# Blender v2.81 (sub 16) OBJ File: ''
# www.blender.org
mtllib Akrotiri Sovereign Base Area.mtl
o 0_Akrotiri_Sovereign_Base_Area_sphere.001
v 3.430655 2.835086 -2.205770
v 3.430189 2.835116 -2.206646
v 3.429493 2.835160 -2.207953
v 3.428856 2.835405 -2.208878
v 3.430068 2.832929 -2.209797
v 3.430484 2.831256 -2.211213
v 3.429992 2.829057 -2.215110
v 3.428024 2.828067 -2.220294
v 3.427042 2.829402 -2.220439
v 3.426399 2.828611 -2.222755
v 3.426308 2.827756 -2.224074
v 3.424868 2.829586 -2.224462
v 3.422832 2.831587 -2.225789
v 3.420432 2.831077 -2.231181
v 3.422796 2.825995 -2.233316
v 3.424464 2.825831 -2.230261
v 3.424342 2.826827 -2.229172
v 3.426168 2.825093 -2.227900
v 3.427389 2.822421 -2.229066
v 3.427158 2.821746 -2.230420
v 3.425870 2.823155 -2.231069
v 3.423820 2.823803 -2.234230
v 3.421709 2.824027 -2.238073
v 3.423083 2.822184 -2.237834
v 3.425762 2.816949 -2.239555
v 3.426094 2.812866 -2.244346
v 3.426690 2.811669 -2.244773
v 3.434654 2.810487 -2.230718
v 3.434029 2.811720 -2.230301
v 3.431805 2.815488 -2.229643
v 3.429875 2.824070 -2.221988
v 3.428382 2.827378 -2.220510
v 3.432192 2.829319 -2.210444
v 3.434106 2.829527 -2.206409
v 3.436332 2.828912 -2.202861
v 3.442914 2.825409 -2.194613
v 3.441284 2.828597 -2.193562
v 3.439905 2.830050 -2.194332
v 3.439085 2.829550 -2.196607
v 3.437427 2.829259 -2.200249
v 3.435215 2.832221 -2.200642
v 3.433797 2.832668 -2.202829
v 3.433117 2.833408 -2.203176
v 3.432157 2.834439 -2.203686
v 3.431276 2.835323 -2.204237
v 3.431085 2.835128 -2.204871
vn 0.7623 0.5176 -0.3885
vn 0.7624 0.5175 -0.3884
vn 0.7623 0.5179 -0.3883
vn 0.7623 0.5178 -0.3884
vn 0.7622 0.5178 -0.3884
vn 0.7624 0.5177 -0.3883
vn 0.7622 0.5179 -0.3885
vn 0.7622 0.5178 -0.3885
vn 0.7622 0.5179 -0.3884
vn 0.7623 0.5177 -0.3884
vn 0.7623 0.5177 -0.3885
vn 0.7621 0.5181 -0.3883
vn 0.7624 0.5178 -0.3882
vn 0.7624 0.5176 -0.3884
vn 0.7622 0.5180 -0.3883
vn 0.7625 0.5177 -0.3881
vn 0.7620 0.5181 -0.3884
vn 0.7624 0.5175 -0.3885
vn 0.7620 0.5182 -0.3883
vn 0.7622 0.5180 -0.3882
vn 0.7622 0.5177 -0.3886
vn 0.7621 0.5181 -0.3882
vn 0.7623 0.5178 -0.3883
vn 0.7622 0.5179 -0.3883
vn 0.7624 0.5173 -0.3887
vn 0.7624 0.5175 -0.3886
usemtl None
s off
f 43//1 42//1 34//1
f 27//2 26//2 25//2
f 24//3 23//3 22//3
f 28//4 27//4 25//4
f 25//5 24//5 22//5
f 22//6 21//6 20//6
f 25//4 22//4 20//4
f 29//7 28//7 25//7
f 32//8 31//8 11//8
f 31//4 30//4 19//4
f 30//9 29//9 25//9
f 25//10 20//10 30//10
f 20//7 19//7 30//7
f 31//9 19//9 18//9
f 31//11 18//11 11//11
f 18//5 17//5 11//5
f 17//12 16//12 15//12
f 15//13 14//13 17//13
f 14//4 13//4 17//4
f 13//9 12//9 17//9
f 12//14 11//14 17//14
f 11//15 10//15 32//15
f 10//16 9//16 8//16
f 10//17 8//17 32//17
f 33//18 32//18 7//18
f 32//19 8//19 7//19
f 33//9 7//9 6//9
f 5//18 4//18 3//18
f 33//13 6//13 5//13
f 34//5 33//5 5//5
f 5//5 3//5 2//5
f 5//20 2//20 1//20
f 35//5 34//5 42//5
f 34//5 5//5 1//5
f 37//21 36//21 39//21
f 36//20 35//20 40//20
f 39//22 38//22 37//22
f 42//4 41//4 35//4
f 41//23 40//23 35//23
f 40//24 39//24 36//24
f 34//23 1//23 44//23
f 44//25 1//25 46//25
f 46//26 45//26 44//26
f 44//11 43//11 34//11
