# Blender v2.81 (sub 16) OBJ File: ''
# www.blender.org
mtllib American Samoa.mtl
o 0_American_Samoa_sphere.001
v -4.736690 -1.253484 0.992979
v -4.736436 -1.254537 0.992827
v -4.736852 -1.253726 0.991877
v -4.736770 -1.253383 0.992721
vn -0.9466 -0.2560 0.1958
vn -0.9463 -0.2571 0.1960
usemtl None
s off
f 4//1 2//1 1//1
f 4//2 3//2 2//2
o 1_American_Samoa_sphere.001
v -4.780795 -1.230938 0.789866
v -4.780148 -1.231815 0.792304
v -4.780190 -1.230747 0.793609
v -4.779928 -1.231266 0.794354
v -4.779685 -1.232336 0.794204
v -4.779773 -1.232931 0.792839
v -4.780571 -1.233200 0.787879
v -4.780725 -1.233598 0.786422
v -4.780712 -1.235118 0.784300
v -4.780207 -1.239475 0.780895
v -4.780155 -1.241297 0.778561
v -4.780415 -1.240650 0.778010
v -4.781586 -1.238327 0.774655
v -4.782248 -1.237204 0.772487
v -4.782524 -1.236579 0.771805
v -4.782427 -1.234433 0.775459
v -4.782258 -1.234163 0.776821
v -4.781736 -1.234209 0.779746
v -4.781556 -1.233959 0.781137
v -4.781825 -1.231477 0.783185
v -4.781452 -1.230762 0.786355
vn -0.9561 -0.2410 0.1669
vn -0.9559 -0.2409 0.1678
vn -0.9561 -0.2413 0.1666
vn -0.9561 -0.2409 0.1670
vn -0.9560 -0.2412 0.1669
vn -0.9560 -0.2413 0.1669
vn -0.9561 -0.2411 0.1668
vn -0.9562 -0.2409 0.1666
vn -0.9561 -0.2410 0.1668
vn -0.9560 -0.2412 0.1671
vn -0.9561 -0.2408 0.1670
vn -0.9560 -0.2412 0.1670
vn -0.9561 -0.2408 0.1669
vn -0.9560 -0.2417 0.1666
usemtl None
s off
f 12//3 11//3 25//3
f 8//4 7//4 9//4
f 7//5 6//5 9//5
f 6//6 5//6 11//6
f 5//7 25//7 11//7
f 25//3 24//3 12//3
f 24//8 23//8 13//8
f 12//9 24//9 13//9
f 22//9 21//9 16//9
f 21//10 20//10 17//10
f 21//11 17//11 16//11
f 20//8 19//8 18//8
f 17//3 20//3 18//3
f 23//12 22//12 14//12
f 16//13 15//13 14//13
f 14//14 22//14 16//14
f 14//3 13//3 23//3
f 11//15 10//15 6//15
f 10//16 9//16 6//16
o 2_American_Samoa_sphere.001
v -4.763804 -1.230273 0.888178
v -4.763690 -1.231168 0.887540
v -4.763994 -1.230714 0.886451
v -4.763937 -1.231434 0.885740
v -4.763980 -1.231751 0.885034
v -4.764120 -1.231714 0.884284
v -4.764369 -1.231302 0.883457
v -4.764234 -1.232066 0.883122
v -4.764226 -1.232462 0.882599
v -4.764325 -1.232560 0.881886
v -4.764497 -1.232488 0.881006
v -4.764792 -1.231446 0.880821
v -4.765066 -1.230558 0.880535
v -4.765312 -1.229889 0.880092
v -4.765525 -1.229504 0.879429
v -4.765526 -1.228570 0.880773
v -4.765288 -1.228250 0.882599
v -4.764627 -1.228349 0.886244
v -4.764173 -1.229000 0.887905
vn -0.9560 -0.2414 0.1668
vn -0.9558 -0.2422 0.1669
vn -0.9562 -0.2408 0.1667
vn -0.9560 -0.2411 0.1669
vn -0.9561 -0.2409 0.1669
vn -0.9562 -0.2408 0.1666
vn -0.9561 -0.2409 0.1670
vn -0.9561 -0.2408 0.1669
vn -0.9564 -0.2397 0.1665
vn -0.9561 -0.2408 0.1670
vn -0.9564 -0.2395 0.1671
vn -0.9559 -0.2418 0.1670
vn -0.9561 -0.2412 0.1666
vn -0.9555 -0.2436 0.1665
vn -0.9563 -0.2402 0.1670
usemtl None
s off
f 43//17 32//17 28//17
f 26//18 44//18 28//18
f 44//19 43//19 28//19
f 43//20 42//20 32//20
f 42//17 41//17 38//17
f 32//21 42//21 38//21
f 41//22 40//22 39//22
f 41//23 39//23 38//23
f 28//24 27//24 26//24
f 30//25 29//25 31//25
f 29//21 28//21 32//21
f 32//26 31//26 29//26
f 34//27 33//27 37//27
f 33//28 32//28 37//28
f 36//29 35//29 37//29
f 35//30 34//30 37//30
f 38//31 37//31 32//31
o 3_American_Samoa_sphere.001
v -4.768077 -1.224450 0.872108
v -4.768188 -1.225512 0.869939
v -4.768359 -1.225403 0.869113
v -4.768737 -1.224257 0.868603
v -4.768739 -1.223750 0.869324
v -4.768594 -1.223731 0.870188
v -4.768357 -1.224019 0.871129
vn -0.9561 -0.2407 0.1669
vn -0.9559 -0.2416 0.1669
vn -0.9559 -0.2417 0.1668
vn -0.9560 -0.2415 0.1665
vn -0.9559 -0.2414 0.1670
usemtl None
s off
f 46//32 49//32 47//32
f 45//33 51//33 46//33
f 51//34 50//34 46//34
f 50//35 49//35 46//35
f 49//36 48//36 47//36
o 4_American_Samoa_sphere.001
v -4.847434 -0.959324 0.761396
v -4.847465 -0.959669 0.760691
v -4.847625 -0.959165 0.760275
v -4.847767 -0.958387 0.760376
v -4.847590 -0.958490 0.761477
vn -0.9709 -0.1953 0.1384
vn -0.9710 -0.1952 0.1382
vn -0.9710 -0.1949 0.1386
usemtl None
s off
f 54//37 52//37 56//37
f 56//38 55//38 54//38
f 54//39 53//39 52//39
