# Blender v2.81 (sub 16) OBJ File: ''
# www.blender.org
mtllib Andorra.mtl
o 0_Andorra_sphere.001
v 3.667917 3.358789 -0.117281
v 3.668986 3.357763 -0.116061
v 3.669559 3.357362 -0.114601
v 3.669717 3.357473 -0.113008
v 3.669495 3.358025 -0.111436
v 3.669175 3.358464 -0.111085
v 3.669115 3.358603 -0.110718
v 3.669276 3.358485 -0.110333
v 3.669673 3.358105 -0.109877
v 3.672849 3.354626 -0.108585
v 3.674326 3.353654 -0.104504
v 3.675651 3.353568 -0.096604
v 3.676229 3.353017 -0.095926
v 3.676908 3.352318 -0.095403
v 3.677602 3.351648 -0.094640
v 3.678235 3.351168 -0.093231
v 3.678401 3.351158 -0.092237
v 3.678290 3.352633 -0.084976
v 3.677707 3.353567 -0.083625
v 3.676349 3.355159 -0.083618
v 3.673052 3.359639 -0.080274
v 3.672270 3.360193 -0.082224
v 3.672095 3.360275 -0.082881
v 3.670760 3.361413 -0.085172
v 3.669105 3.363427 -0.084765
v 3.668071 3.365016 -0.082726
v 3.668558 3.364924 -0.080147
v 3.667322 3.366301 -0.080524
v 3.664900 3.368788 -0.082411
v 3.664494 3.369261 -0.082422
v 3.664156 3.369833 -0.081466
v 3.663155 3.370979 -0.081606
v 3.662030 3.372180 -0.082242
v 3.661344 3.372888 -0.082747
v 3.660359 3.373572 -0.085280
v 3.656038 3.378307 -0.087031
v 3.655710 3.378008 -0.090714
v 3.654408 3.378891 -0.094169
v 3.654091 3.378924 -0.095993
v 3.656206 3.375209 -0.102674
v 3.656453 3.374665 -0.104046
v 3.655633 3.372914 -0.118664
v 3.658030 3.370299 -0.117633
v 3.658635 3.369187 -0.119815
v 3.658888 3.368306 -0.122966
v 3.659787 3.367031 -0.124165
v 3.660215 3.366424 -0.124735
v 3.660777 3.366394 -0.121350
v 3.662522 3.364790 -0.118979
v 3.665029 3.362107 -0.117625
vn 0.7550 0.6447 -0.1195
vn 0.7552 0.6445 -0.1195
vn 0.7548 0.6449 -0.1197
vn 0.7551 0.6447 -0.1196
vn 0.7549 0.6448 -0.1196
vn 0.7550 0.6448 -0.1195
vn 0.7549 0.6448 -0.1197
vn 0.7549 0.6448 -0.1194
vn 0.7550 0.6447 -0.1196
vn 0.7549 0.6448 -0.1195
vn 0.7548 0.6450 -0.1196
vn 0.7550 0.6448 -0.1196
vn 0.7551 0.6445 -0.1196
vn 0.7547 0.6451 -0.1195
vn 0.7549 0.6448 -0.1199
vn 0.7552 0.6446 -0.1194
vn 0.7549 0.6449 -0.1192
vn 0.7550 0.6447 -0.1199
vn 0.7549 0.6449 -0.1197
vn 0.7549 0.6447 -0.1204
vn 0.7546 0.6452 -0.1196
vn 0.7549 0.6448 -0.1198
vn 0.7549 0.6449 -0.1196
vn 0.7549 0.6449 -0.1194
vn 0.7548 0.6450 -0.1198
vn 0.7550 0.6447 -0.1200
vn 0.7547 0.6451 -0.1197
vn 0.7549 0.6449 -0.1195
vn 0.7550 0.6448 -0.1197
usemtl None
s off
f 20//1 19//1 18//1
f 47//2 46//2 48//2
f 46//3 45//3 48//3
f 45//4 44//4 48//4
f 43//5 42//5 41//5
f 48//6 44//6 49//6
f 44//7 43//7 49//7
f 49//8 43//8 50//8
f 43//9 41//9 50//9
f 2//10 1//10 6//10
f 1//9 50//9 6//9
f 40//9 39//9 38//9
f 50//10 41//10 7//10
f 41//11 40//11 25//11
f 7//12 41//12 8//12
f 3//13 2//13 6//13
f 5//14 4//14 6//14
f 4//15 3//15 6//15
f 40//5 38//5 37//5
f 37//6 36//6 35//6
f 35//16 34//16 33//16
f 33//17 32//17 30//17
f 32//18 31//18 30//18
f 40//5 37//5 35//5
f 35//19 33//19 30//19
f 29//6 28//6 26//6
f 28//5 27//5 26//5
f 35//20 30//20 29//20
f 50//21 7//21 6//21
f 40//12 35//12 25//12
f 8//22 41//22 9//22
f 35//12 29//12 25//12
f 29//23 26//23 25//23
f 9//12 41//12 25//12
f 11//9 10//9 9//9
f 25//24 24//24 12//24
f 9//12 25//12 12//12
f 11//10 9//10 12//10
f 15//25 14//25 17//25
f 14//26 13//26 17//26
f 15//27 17//27 16//27
f 13//5 12//5 24//5
f 23//28 22//28 20//28
f 22//29 21//29 20//29
f 13//5 24//5 20//5
f 24//10 23//10 20//10
f 18//9 17//9 20//9
f 20//9 17//9 13//9
