# Blender v2.81 (sub 16) OBJ File: ''
# www.blender.org
mtllib Andorra.mtl
o 0_Andorra_sphere.001
v 3.684473 3.377999 -0.109855
v 3.684982 3.377459 -0.109255
v 3.685228 3.377205 -0.108540
v 3.685253 3.377192 -0.107759
v 3.685079 3.377393 -0.106984
v 3.684898 3.377591 -0.106812
v 3.684853 3.377643 -0.106630
v 3.684924 3.377570 -0.106438
v 3.685115 3.377367 -0.106209
v 3.686739 3.375621 -0.105551
v 3.687384 3.374959 -0.103491
v 3.687839 3.374536 -0.099406
v 3.688128 3.374229 -0.099050
v 3.688477 3.373857 -0.098778
v 3.688825 3.373486 -0.098377
v 3.689124 3.373175 -0.097631
v 3.689186 3.373118 -0.097101
v 3.688917 3.373476 -0.093142
v 3.688556 3.373879 -0.092383
v 3.687807 3.374690 -0.092362
v 3.685854 3.376835 -0.090423
v 3.685489 3.377212 -0.091521
v 3.685416 3.377284 -0.091891
v 3.684760 3.377973 -0.093162
v 3.683817 3.378997 -0.092914
v 3.683146 3.379742 -0.091748
v 3.683308 3.379592 -0.090280
v 3.682623 3.380330 -0.090477
v 3.681329 3.381712 -0.091523
v 3.681099 3.381961 -0.091524
v 3.680857 3.382231 -0.090970
v 3.680290 3.382844 -0.091036
v 3.679677 3.383502 -0.091385
v 3.679309 3.383894 -0.091665
v 3.678881 3.384333 -0.093097
v 3.676497 3.386897 -0.094039
v 3.676532 3.386824 -0.096101
v 3.675998 3.387369 -0.097998
v 3.675930 3.387426 -0.098991
v 3.677506 3.385659 -0.102559
v 3.677719 3.385417 -0.103276
v 3.678066 3.384917 -0.110641
v 3.679290 3.383602 -0.110116
v 3.679718 3.383121 -0.111168
v 3.680003 3.382787 -0.112674
v 3.680530 3.382208 -0.113232
v 3.680779 3.381934 -0.113495
v 3.680917 3.381812 -0.111882
v 3.681726 3.380957 -0.110725
v 3.682980 3.379611 -0.110046
vn 0.7342 0.6789 -0.0110
vn 0.7341 0.6790 -0.0115
vn 0.7344 0.6786 -0.0113
vn 0.7342 0.6788 -0.0114
vn 0.7343 0.6787 -0.0115
vn 0.7343 0.6788 -0.0119
vn 0.7342 0.6788 -0.0115
vn 0.7343 0.6788 -0.0116
vn 0.7341 0.6789 -0.0115
vn 0.7326 0.6806 -0.0115
vn 0.7348 0.6782 -0.0117
vn 0.7343 0.6787 -0.0116
vn 0.7340 0.6790 -0.0115
vn 0.7336 0.6795 -0.0110
vn 0.7350 0.6780 -0.0116
vn 0.7350 0.6780 -0.0115
vn 0.7340 0.6791 -0.0117
vn 0.7344 0.6787 -0.0109
vn 0.7344 0.6786 -0.0109
vn 0.7339 0.6792 -0.0108
vn 0.7344 0.6787 -0.0119
vn 0.7343 0.6788 -0.0112
vn 0.7331 0.6801 -0.0094
vn 0.7341 0.6789 -0.0123
vn 0.7344 0.6786 -0.0117
vn 0.7341 0.6789 -0.0114
vn 0.7343 0.6788 -0.0115
vn 0.7345 0.6785 -0.0115
vn 0.7317 0.6816 -0.0112
vn 0.7345 0.6785 -0.0113
vn 0.7353 0.6776 -0.0116
vn 0.7340 0.6790 -0.0118
vn 0.7343 0.6787 -0.0109
vn 0.7344 0.6787 -0.0116
usemtl None
s off
f 20//1 19//1 18//1
f 47//2 46//2 48//2
f 46//3 45//3 48//3
f 45//4 44//4 48//4
f 43//5 42//5 41//5
f 48//6 44//6 49//6
f 44//5 43//5 49//5
f 49//7 43//7 50//7
f 43//8 41//8 50//8
f 2//2 1//2 6//2
f 1//9 50//9 6//9
f 6//10 50//10 7//10
f 40//11 39//11 38//11
f 50//12 41//12 7//12
f 41//13 40//13 25//13
f 7//14 41//14 8//14
f 3//15 2//15 6//15
f 5//16 4//16 6//16
f 4//12 3//12 6//12
f 40//17 38//17 37//17
f 37//5 36//5 35//5
f 35//18 34//18 33//18
f 33//19 32//19 30//19
f 32//20 31//20 30//20
f 40//12 37//12 35//12
f 35//21 33//21 30//21
f 29//22 28//22 26//22
f 28//3 27//3 26//3
f 35//23 30//23 29//23
f 40//7 35//7 25//7
f 8//24 41//24 9//24
f 35//12 29//12 25//12
f 29//25 26//25 25//25
f 9//5 41//5 25//5
f 11//25 10//25 9//25
f 25//26 24//26 12//26
f 9//27 25//27 12//27
f 11//28 9//28 12//28
f 15//29 14//29 16//29
f 14//30 13//30 17//30
f 16//31 14//31 17//31
f 13//32 12//32 24//32
f 23//1 22//1 20//1
f 22//28 21//28 20//28
f 13//5 24//5 20//5
f 24//33 23//33 20//33
f 18//34 17//34 20//34
f 20//5 17//5 13//5
