# Blender v2.81 (sub 16) OBJ File: ''
# www.blender.org
mtllib Anguilla.mtl
o 0_Anguilla_sphere.001
v 2.146893 1.545085 4.177385
v 2.122384 1.545085 4.189873
v 2.138728 1.542261 4.182297
v 2.118584 1.527123 4.196589
v 2.117407 1.528894 4.196718
v 2.114838 1.530831 4.197511
v 2.112994 1.532825 4.197920
v 2.105427 1.525979 4.203598
v 2.100701 1.524168 4.206488
v 2.094527 1.524284 4.209602
v 2.102777 1.536253 4.202213
v 2.105298 1.538680 4.200283
v 2.109205 1.540299 4.197862
v 2.117964 1.542073 4.192926
v 2.121728 1.544189 4.190446
v 2.126748 1.551418 4.184741
v 2.129942 1.558359 4.179927
v 2.134980 1.563630 4.174940
v 2.145558 1.565728 4.168587
v 2.153660 1.567089 4.163833
v 2.157732 1.566862 4.161863
v 2.158038 1.564241 4.162911
v 2.152930 1.551571 4.171331
v 2.150836 1.547910 4.174078
v 2.147437 1.545267 4.177024
vn 0.4418 0.2307 0.8669
vn 0.4202 0.3787 0.8246
vn 0.4417 0.2306 0.8670
vn 0.4419 0.2304 0.8670
vn 0.4417 0.2308 0.8670
vn 0.4419 0.2307 0.8669
vn 0.4417 0.2307 0.8670
vn 0.4416 0.2308 0.8670
vn 0.4418 0.2308 0.8669
vn 0.4416 0.2307 0.8670
vn 0.4415 0.2308 0.8671
vn 0.4197 0.3776 0.8254
vn 0.4202 0.3787 0.8247
vn 0.4202 0.3786 0.8247
vn 0.4203 0.3786 0.8246
vn 0.4201 0.3787 0.8247
usemtl None
s off
f 6//1 5//1 14//1
f 1//2 24//2 18//2
f 1//3 2//3 3//3
f 2//4 15//4 3//4
f 14//1 13//1 7//1
f 13//5 12//5 7//5
f 15//6 14//6 5//6
f 3//7 15//7 4//7
f 5//8 4//8 15//8
f 12//9 11//9 7//9
f 11//7 10//7 9//7
f 9//10 8//10 11//10
f 8//1 7//1 11//1
f 7//11 6//11 14//11
f 2//2 1//2 16//2
f 1//12 25//12 24//12
f 16//13 1//13 17//13
f 24//14 23//14 18//14
f 23//13 22//13 20//13
f 22//2 21//2 20//2
f 20//15 19//15 23//15
f 19//14 18//14 23//14
f 18//16 17//16 1//16
o 1_Anguilla_sphere.001
v 2.096334 1.577281 4.188363
v 2.095277 1.574456 4.190199
v 2.094363 1.577766 4.189144
vn 0.4201 0.3788 0.8246
usemtl None
s off
f 28//17 27//17 26//17
