# Blender v2.81 (sub 16) OBJ File: ''
# www.blender.org
mtllib Aruba.mtl
o 0_Aruba_sphere.001
v 1.652249 1.089214 4.550739
v 1.666660 1.077732 4.546452
v 1.669615 1.074527 4.545799
v 1.672133 1.068869 4.546022
v 1.681458 1.057414 4.544319
v 1.682781 1.050707 4.545430
v 1.680242 1.048476 4.547318
v 1.675313 1.048929 4.549709
v 1.670096 1.051382 4.551714
v 1.666473 1.055190 4.552546
v 1.671168 1.054842 4.550247
v 1.671035 1.056540 4.549863
v 1.662993 1.060993 4.552775
v 1.646821 1.076119 4.556990
v 1.642417 1.078186 4.558683
v 1.640250 1.079655 4.559397
v 1.639178 1.081941 4.559335
v 1.639383 1.084323 4.558596
v 1.640925 1.088357 4.556737
v 1.641210 1.090661 4.555979
v 1.640078 1.094526 4.555527
v 1.638360 1.097886 4.555508
v 1.637833 1.100529 4.555073
v 1.640220 1.102217 4.553408
v 1.649890 1.091139 4.551429
vn 0.4418 0.2308 0.8669
vn 0.4416 0.2308 0.8670
vn 0.4417 0.2308 0.8670
vn 0.4419 0.2307 0.8669
vn 0.4417 0.2307 0.8670
vn 0.4416 0.2307 0.8671
vn 0.4416 0.2307 0.8670
vn 0.4418 0.2307 0.8670
vn 0.4418 0.2307 0.8669
vn 0.4419 0.2306 0.8669
vn 0.4427 0.2306 0.8665
vn 0.4415 0.2307 0.8671
usemtl None
s off
f 20//1 19//1 25//1
f 6//2 5//2 7//2
f 5//3 4//3 12//3
f 7//4 5//4 8//4
f 4//5 3//5 13//5
f 3//3 2//3 13//3
f 2//5 1//5 14//5
f 4//3 13//3 12//3
f 9//6 8//6 11//6
f 11//3 8//3 5//3
f 11//7 10//7 9//7
f 14//8 13//8 2//8
f 14//9 1//9 19//9
f 12//10 11//10 5//10
f 25//5 24//5 21//5
f 24//6 23//6 22//6
f 1//2 25//2 19//2
f 24//5 22//5 21//5
f 16//2 15//2 18//2
f 15//5 14//5 19//5
f 18//11 17//11 16//11
f 19//12 18//12 15//12
f 25//3 21//3 20//3
