# Blender v2.81 (sub 16) OBJ File: ''
# www.blender.org
mtllib Bahrain.mtl
o 0_Bahrain_sphere.001
v 2.826069 2.204258 -3.434743
v 2.822691 2.199019 -3.441151
v 2.821010 2.201289 -3.441519
v 2.818959 2.202975 -3.442595
v 2.818850 2.200658 -3.444044
v 2.819080 2.196998 -3.445931
v 2.817729 2.196863 -3.447361
v 2.819273 2.195059 -3.446860
v 2.820076 2.192122 -3.447757
v 2.822467 2.191335 -3.445822
v 2.824175 2.182069 -3.449474
v 2.828074 2.167654 -3.453916
v 2.834521 2.148943 -3.458294
v 2.836547 2.145068 -3.458510
v 2.841958 2.137166 -3.457671
v 2.841412 2.142345 -3.455221
v 2.841274 2.147973 -3.452102
v 2.841700 2.153377 -3.448550
v 2.842837 2.157945 -3.444770
v 2.846039 2.165168 -3.437389
v 2.845644 2.169821 -3.435091
v 2.841783 2.175626 -3.435593
v 2.840485 2.178093 -3.435464
v 2.839197 2.180543 -3.435335
v 2.838199 2.186709 -3.432766
v 2.838342 2.192680 -3.429168
v 2.839129 2.196991 -3.425887
v 2.839071 2.198923 -3.424828
v 2.838279 2.201547 -3.424100
v 2.834903 2.209059 -3.423130
v 2.833579 2.210884 -3.423398
v 2.831883 2.211769 -3.424582
v 2.831757 2.211762 -3.424712
v 2.829397 2.211675 -3.427123
v 2.828110 2.211312 -3.428621
v 2.826606 2.210289 -3.430716
v 2.825390 2.209458 -3.432413
v 2.820308 2.211722 -3.436184
v 2.819752 2.211124 -3.437087
v 2.819814 2.209126 -3.438180
v 2.819379 2.207743 -3.439416
v 2.819302 2.207112 -3.439858
v 2.819224 2.206488 -3.440297
v 2.820251 2.204840 -3.440224
v 2.821368 2.204467 -3.439323
v 2.824338 2.204994 -3.436047
vn 0.6545 0.3786 -0.6544
vn 0.6544 0.3786 -0.6545
vn 0.6545 0.3786 -0.6545
vn 0.6543 0.3787 -0.6546
vn 0.6544 0.3787 -0.6545
vn 0.6545 0.3785 -0.6545
vn 0.6545 0.3787 -0.6544
vn 0.6545 0.3787 -0.6545
vn 0.6544 0.3787 -0.6544
vn 0.6536 0.3787 -0.6552
vn 0.6545 0.3787 -0.6543
vn 0.6543 0.3788 -0.6546
vn 0.6548 0.3785 -0.6542
vn 0.6546 0.3785 -0.6544
vn 0.6547 0.3785 -0.6544
vn 0.6543 0.3788 -0.6545
vn 0.6545 0.3784 -0.6546
vn 0.6563 0.3765 -0.6538
vn 0.6534 0.3790 -0.6553
usemtl None
s off
f 35//1 30//1 1//1
f 6//2 5//2 2//2
f 5//2 4//2 3//2
f 2//3 5//3 3//3
f 8//4 7//4 6//4
f 10//1 9//1 8//1
f 12//5 11//5 23//5
f 11//2 10//2 25//2
f 23//6 11//6 24//6
f 14//3 13//3 17//3
f 13//3 12//3 18//3
f 17//7 13//7 18//7
f 16//3 15//3 14//3
f 17//5 16//5 14//5
f 10//3 8//3 6//3
f 10//1 6//1 2//1
f 18//1 12//1 19//1
f 19//3 12//3 20//3
f 10//8 2//8 25//8
f 2//1 1//1 26//1
f 25//9 2//9 26//9
f 46//3 45//3 40//3
f 45//1 44//1 42//1
f 42//10 44//10 43//10
f 12//11 23//11 22//11
f 45//12 42//12 41//12
f 24//7 11//7 25//7
f 45//6 41//6 40//6
f 1//1 46//1 37//1
f 40//13 39//13 38//13
f 46//9 40//9 38//9
f 22//14 21//14 20//14
f 22//5 20//5 12//5
f 46//8 38//8 37//8
f 37//15 36//15 1//15
f 36//12 35//12 1//12
f 35//16 34//16 30//16
f 34//17 33//17 30//17
f 33//18 32//18 31//18
f 31//4 30//4 33//4
f 30//7 29//7 1//7
f 29//19 28//19 27//19
f 29//1 27//1 1//1
f 27//5 26//5 1//5
