# Blender v2.81 (sub 16) OBJ File: ''
# www.blender.org
mtllib Barbados.mtl
o 0_Barbados_sphere.001
v 2.476360 1.138325 4.191659
v 2.476478 1.135373 4.192379
v 2.474841 1.133142 4.193908
v 2.473490 1.131966 4.194992
v 2.472697 1.131277 4.195628
v 2.471327 1.129438 4.196900
v 2.470752 1.129353 4.197252
v 2.470275 1.129354 4.197523
v 2.469825 1.129258 4.197805
v 2.469358 1.128890 4.198169
v 2.468457 1.130304 4.198307
v 2.466972 1.131181 4.198920
v 2.465239 1.131613 4.199793
v 2.464230 1.131686 4.200349
v 2.463634 1.131727 4.200678
v 2.462532 1.132523 4.201094
v 2.461444 1.134409 4.201211
v 2.460023 1.138243 4.200999
v 2.458063 1.149859 4.199019
v 2.458057 1.151193 4.198666
v 2.458458 1.152319 4.198137
v 2.459380 1.153540 4.197285
v 2.460668 1.154103 4.196401
v 2.462142 1.153261 4.195785
v 2.463372 1.151520 4.195547
v 2.463833 1.150650 4.195517
v 2.464500 1.149385 4.195473
v 2.466338 1.145909 4.195352
v 2.467501 1.144383 4.195096
v 2.469023 1.143194 4.194545
v 2.471172 1.141521 4.193766
v 2.472383 1.140793 4.193269
v 2.473896 1.140265 4.192547
v 2.475347 1.139561 4.191907
vn 0.4827 0.2257 0.8462
vn 0.4821 0.2257 0.8465
vn 0.4829 0.2258 0.8460
vn 0.4826 0.2258 0.8463
vn 0.4828 0.2257 0.8462
vn 0.4826 0.2257 0.8462
vn 0.4828 0.2257 0.8461
vn 0.4826 0.2257 0.8463
vn 0.4827 0.2254 0.8463
vn 0.4829 0.2261 0.8460
vn 0.4818 0.2252 0.8468
vn 0.4826 0.2260 0.8462
vn 0.4828 0.2256 0.8462
vn 0.4826 0.2259 0.8462
vn 0.4829 0.2255 0.8462
vn 0.4830 0.2258 0.8460
vn 0.4826 0.2256 0.8463
vn 0.4825 0.2261 0.8462
vn 0.4827 0.2256 0.8463
vn 0.4815 0.2259 0.8468
vn 0.4826 0.2255 0.8463
vn 0.4830 0.2252 0.8462
vn 0.4826 0.2263 0.8461
vn 0.4827 0.2255 0.8463
usemtl None
s off
f 25//1 24//1 21//1
f 1//2 34//2 2//2
f 34//3 33//3 2//3
f 33//4 32//4 3//4
f 3//5 2//5 33//5
f 5//6 4//6 31//6
f 4//7 3//7 32//7
f 31//8 4//8 32//8
f 7//9 6//9 5//9
f 8//10 7//10 5//10
f 9//11 8//11 11//11
f 8//12 5//12 11//12
f 11//8 10//8 9//8
f 5//6 31//6 12//6
f 31//13 30//13 12//13
f 30//14 29//14 18//14
f 13//6 30//6 17//6
f 12//15 11//15 5//15
f 13//16 12//16 30//16
f 29//14 28//14 18//14
f 27//17 26//17 19//17
f 26//14 25//14 19//14
f 19//18 25//18 20//18
f 17//17 30//17 18//17
f 28//19 27//19 19//19
f 14//20 13//20 17//20
f 16//21 15//21 14//21
f 17//22 16//22 14//22
f 19//7 18//7 28//7
f 22//23 21//23 24//23
f 21//17 20//17 25//17
f 24//24 23//24 22//24
