# Blender v2.81 (sub 16) OBJ File: ''
# www.blender.org
mtllib Baykonur Cosmodrome.mtl
o 0_Baykonur_Cosmodrome_sphere.001
v 1.579691 3.590631 -3.100313
v 1.568526 3.614091 -3.078400
v 1.527367 3.590631 -3.125946
v 1.589871 3.590631 -3.094923
v 1.586256 3.576396 -3.113198
v 1.587308 3.577523 -3.111345
v 1.588521 3.579300 -3.108660
v 1.589443 3.581231 -3.105953
v 1.590060 3.583305 -3.103242
v 1.590359 3.585508 -3.100552
v 1.590333 3.587828 -3.097899
v 1.589976 3.590246 -3.095309
v 1.567644 3.614558 -3.078288
v 1.564539 3.615977 -3.078152
v 1.561349 3.617214 -3.078272
v 1.558099 3.618250 -3.078655
v 1.554803 3.619076 -3.079306
v 1.551489 3.619680 -3.080223
v 1.548174 3.620048 -3.081419
v 1.544879 3.620169 -3.082891
v 1.541704 3.620030 -3.084609
v 1.538736 3.619645 -3.086512
v 1.535987 3.619023 -3.088585
v 1.533467 3.618179 -3.090805
v 1.531184 3.617123 -3.093155
v 1.529151 3.615868 -3.095616
v 1.527370 3.614428 -3.098170
v 1.525863 3.612810 -3.100796
v 1.524634 3.611033 -3.103473
v 1.523694 3.609107 -3.106181
v 1.523057 3.607046 -3.108898
v 1.522726 3.604860 -3.111612
v 1.522717 3.602564 -3.114296
v 1.523042 3.600168 -3.116934
v 1.523710 3.597689 -3.119500
v 1.524728 3.595136 -3.121980
v 1.526079 3.592586 -3.124295
v 1.589285 3.592720 -3.092755
v 1.588238 3.595264 -3.090293
v 1.586865 3.597812 -3.087998
v 1.585208 3.600287 -3.085939
v 1.583295 3.602682 -3.084112
v 1.581146 3.604980 -3.082525
v 1.578783 3.607167 -3.081181
v 1.576228 3.609232 -3.080086
v 1.573506 3.611161 -3.079239
v 1.570639 3.612942 -3.078644
v 1.568180 3.569908 -3.129390
v 1.571393 3.570067 -3.127637
v 1.574394 3.570480 -3.125699
v 1.577168 3.571132 -3.123603
v 1.579708 3.572016 -3.121360
v 1.581999 3.573113 -3.118996
v 1.584037 3.574412 -3.116528
v 1.585809 3.575898 -3.113980
v 1.527702 3.590099 -3.126384
v 1.529563 3.587668 -3.128221
v 1.531673 3.585332 -3.129829
v 1.534008 3.583111 -3.131198
v 1.536540 3.581016 -3.132327
v 1.539258 3.579060 -3.133208
v 1.542135 3.577256 -3.133839
v 1.545150 3.575618 -3.134215
v 1.548281 3.574162 -3.134328
v 1.551500 3.572895 -3.134183
v 1.554788 3.571836 -3.133771
v 1.558122 3.570993 -3.133091
v 1.561481 3.570384 -3.132135
v 1.564843 3.570018 -3.130902
vn 0.3229 0.7236 -0.6100
vn 0.3283 0.7127 -0.6199
vn 0.3032 0.7237 -0.6199
vn 0.3086 0.7126 -0.6301
vn 0.3230 0.7235 -0.6101
vn 0.3232 0.7235 -0.6100
vn 0.3230 0.7235 -0.6100
vn 0.3231 0.7236 -0.6100
vn 0.3230 0.7236 -0.6100
vn 0.3231 0.7235 -0.6100
vn 0.3229 0.7235 -0.6101
vn 0.3230 0.7236 -0.6099
vn 0.3230 0.7234 -0.6102
vn 0.3284 0.7129 -0.6196
vn 0.3283 0.7125 -0.6201
vn 0.3284 0.7127 -0.6199
vn 0.3283 0.7126 -0.6200
vn 0.3282 0.7126 -0.6201
vn 0.3037 0.7235 -0.6199
vn 0.3037 0.7235 -0.6200
vn 0.3037 0.7236 -0.6198
vn 0.3036 0.7235 -0.6200
vn 0.3038 0.7236 -0.6198
vn 0.3035 0.7235 -0.6200
vn 0.3036 0.7235 -0.6199
vn 0.3036 0.7236 -0.6199
vn 0.3088 0.7125 -0.6301
vn 0.3085 0.7126 -0.6301
vn 0.3087 0.7126 -0.6300
vn 0.3088 0.7126 -0.6300
vn 0.3086 0.7126 -0.6300
vn 0.3086 0.7127 -0.6299
vn 0.3086 0.7125 -0.6301
vn 0.3087 0.7127 -0.6300
vn 0.3087 0.7125 -0.6301
vn 0.3093 0.7107 -0.6319
usemtl None
s off
f 40//1 39//1 1//1
f 6//2 5//2 1//2
f 13//3 2//3 1//3
f 3//4 1//4 57//4
f 4//5 1//5 38//5
f 1//6 2//6 47//6
f 38//7 1//7 39//7
f 47//8 46//8 1//8
f 46//5 45//5 1//5
f 45//9 44//9 1//9
f 44//10 43//10 1//10
f 43//11 42//11 1//11
f 42//12 41//12 1//12
f 41//13 40//13 1//13
f 1//14 4//14 12//14
f 12//15 11//15 1//15
f 11//16 10//16 1//16
f 10//17 9//17 1//17
f 9//17 8//17 1//17
f 8//16 7//16 1//16
f 7//18 6//18 1//18
f 1//19 3//19 37//19
f 37//20 36//20 1//20
f 36//21 35//21 1//21
f 35//19 34//19 1//19
f 34//21 33//21 1//21
f 33//19 32//19 1//19
f 32//20 31//20 1//20
f 31//21 30//21 1//21
f 30//21 29//21 1//21
f 29//22 28//22 1//22
f 28//23 27//23 1//23
f 27//22 26//22 1//22
f 26//19 25//19 1//19
f 25//21 24//21 1//21
f 24//22 23//22 1//22
f 23//19 22//19 1//19
f 22//20 21//20 1//20
f 21//19 20//19 1//19
f 20//21 19//21 1//21
f 19//19 18//19 1//19
f 18//24 17//24 1//24
f 17//25 16//25 1//25
f 16//26 15//26 1//26
f 15//19 14//19 1//19
f 14//23 13//23 1//23
f 1//27 5//27 55//27
f 55//28 54//28 1//28
f 54//29 53//29 1//29
f 53//29 52//29 1//29
f 52//4 51//4 1//4
f 51//29 50//29 1//29
f 50//30 49//30 1//30
f 49//31 48//31 1//31
f 48//28 69//28 1//28
f 69//31 68//31 1//31
f 68//29 67//29 1//29
f 67//31 66//31 1//31
f 66//32 65//32 1//32
f 65//33 64//33 1//33
f 64//29 63//29 1//29
f 63//34 62//34 1//34
f 62//31 61//31 1//31
f 61//31 60//31 1//31
f 60//29 59//29 1//29
f 59//35 58//35 1//35
f 58//31 57//31 1//31
f 57//36 56//36 3//36
