# Blender v2.81 (sub 16) OBJ File: ''
# www.blender.org
mtllib Bermuda.mtl
o 0_Bermuda_sphere.001
v 1.778998 2.641667 3.779503
v 1.780682 2.640390 3.779513
v 1.783448 2.639232 3.778890
v 1.782797 2.638408 3.779781
v 1.779965 2.638874 3.780908
v 1.777111 2.638503 3.782614
v 1.774082 2.638832 3.783933
v 1.772723 2.640794 3.783293
v 1.773528 2.641474 3.782422
v 1.776412 2.640736 3.781453
v 1.777995 2.641266 3.780286
vn 0.3884 0.5179 0.7622
vn 0.3883 0.5178 0.7623
vn 0.3881 0.5179 0.7623
vn 0.3888 0.5176 0.7622
vn 0.3885 0.5177 0.7623
vn 0.3885 0.5178 0.7622
vn 0.3884 0.5176 0.7623
vn 0.3885 0.5177 0.7622
usemtl None
s off
f 5//1 4//1 2//1
f 2//2 1//2 11//2
f 10//3 9//3 7//3
f 9//4 8//4 7//4
f 2//5 11//5 5//5
f 11//2 10//2 6//2
f 5//6 11//6 6//6
f 4//7 3//7 2//7
f 7//8 6//8 10//8
o 1_Bermuda_sphere.001
v 1.814324 2.659613 3.749313
v 1.812699 2.656455 3.752286
v 1.813436 2.653272 3.754072
v 1.811646 2.654397 3.754220
v 1.808890 2.656353 3.754296
v 1.804352 2.657389 3.755904
v 1.803352 2.655855 3.757456
v 1.800754 2.658213 3.757178
v 1.796638 2.653863 3.762230
v 1.798424 2.650820 3.763387
v 1.801924 2.649678 3.762380
v 1.807888 2.647670 3.760705
v 1.802101 2.644848 3.765571
v 1.797204 2.641055 3.770643
v 1.791128 2.635791 3.777314
v 1.787288 2.633253 3.780995
v 1.785408 2.629539 3.784476
v 1.780687 2.624258 3.790468
v 1.773547 2.620431 3.796706
v 1.766521 2.617723 3.802125
v 1.761779 2.617988 3.804362
v 1.758136 2.618224 3.806057
v 1.752562 2.621519 3.806659
v 1.749315 2.626507 3.804925
v 1.747420 2.630357 3.803276
v 1.750609 2.629002 3.802571
v 1.749572 2.631536 3.801378
v 1.749787 2.634898 3.798985
v 1.747337 2.638358 3.797883
v 1.749794 2.637499 3.797215
v 1.750356 2.639521 3.795554
v 1.752287 2.637451 3.795977
v 1.754669 2.635505 3.796086
v 1.752505 2.633237 3.798728
v 1.752633 2.629264 3.801362
v 1.752243 2.628073 3.802369
v 1.754102 2.626801 3.802286
v 1.759899 2.625981 3.799890
v 1.760174 2.624882 3.800496
v 1.755635 2.625402 3.802456
v 1.755858 2.623073 3.803924
v 1.758581 2.620267 3.804443
v 1.761949 2.620180 3.802786
v 1.765839 2.621866 3.799658
v 1.766420 2.624320 3.797696
v 1.769252 2.624528 3.796111
v 1.773695 2.627448 3.791864
v 1.779588 2.631424 3.786160
v 1.779857 2.632683 3.785169
v 1.775133 2.632226 3.787886
v 1.771388 2.633673 3.788810
v 1.767760 2.637466 3.788083
v 1.768414 2.638718 3.786900
v 1.778379 2.637074 3.782938
v 1.783443 2.639652 3.778607
v 1.786543 2.640553 3.776415
v 1.789031 2.644209 3.772664
v 1.790489 2.643776 3.772216
v 1.795943 2.643971 3.769304
v 1.796872 2.646025 3.767436
v 1.798960 2.648338 3.764801
v 1.795879 2.650714 3.764756
v 1.792597 2.649384 3.767332
v 1.790457 2.647623 3.769619
v 1.790438 2.645486 3.771080
v 1.788846 2.645860 3.771637
v 1.787752 2.647425 3.771131
v 1.788419 2.651212 3.768219
v 1.792142 2.654248 3.764260
v 1.793844 2.658411 3.760565
v 1.798005 2.661613 3.756270
v 1.803279 2.666922 3.749976
vn 0.3883 0.5178 0.7623
vn 0.3884 0.5178 0.7623
vn 0.3885 0.5178 0.7622
vn 0.3884 0.5178 0.7622
vn 0.3884 0.5177 0.7623
vn 0.3885 0.5179 0.7621
vn 0.3883 0.5177 0.7623
vn 0.3886 0.5177 0.7623
vn 0.3882 0.5179 0.7623
vn 0.3883 0.5179 0.7622
vn 0.3885 0.5177 0.7622
vn 0.3885 0.5179 0.7622
vn 0.3883 0.5178 0.7622
vn 0.3884 0.5176 0.7624
vn 0.3883 0.5175 0.7625
vn 0.3882 0.5178 0.7623
vn 0.3884 0.5179 0.7622
usemtl None
s off
f 53//9 52//9 34//9
f 12//10 83//10 16//10
f 83//10 82//10 17//10
f 16//11 83//11 17//11
f 82//12 81//12 19//12
f 81//13 80//13 20//13
f 80//10 79//10 74//10
f 79//12 78//12 75//12
f 78//14 77//14 75//14
f 77//9 76//9 75//9
f 81//10 20//10 19//10
f 79//10 75//10 74//10
f 13//12 12//12 16//12
f 15//9 14//9 13//9
f 16//12 15//12 13//12
f 80//10 74//10 73//10
f 19//12 18//12 17//12
f 80//12 73//12 20//12
f 72//11 71//11 24//11
f 71//15 70//15 24//15
f 19//12 17//12 82//12
f 69//16 68//16 67//16
f 67//12 66//12 27//12
f 66//10 65//10 27//10
f 65//10 64//10 62//10
f 64//17 63//17 62//17
f 62//12 61//12 65//12
f 61//18 60//18 65//18
f 65//12 60//12 27//12
f 70//12 69//12 25//12
f 69//12 67//12 26//12
f 25//12 69//12 26//12
f 67//10 27//10 26//10
f 60//11 59//11 28//11
f 27//10 60//10 28//10
f 57//19 56//19 55//19
f 58//12 57//12 30//12
f 57//9 55//9 30//9
f 59//12 58//12 29//12
f 23//20 22//20 24//20
f 22//11 21//11 72//11
f 24//9 22//9 72//9
f 21//15 20//15 73//15
f 21//15 73//15 72//15
f 25//11 24//11 70//11
f 29//11 28//11 59//11
f 58//10 30//10 29//10
f 32//11 31//11 54//11
f 31//11 30//11 55//11
f 34//9 33//9 53//9
f 33//11 32//11 53//11
f 36//9 35//9 37//9
f 35//21 34//21 48//21
f 37//10 35//10 47//10
f 39//9 38//9 45//9
f 38//11 37//11 46//11
f 45//11 38//11 46//11
f 47//13 35//13 48//13
f 31//9 55//9 54//9
f 41//10 40//10 39//10
f 43//12 42//12 41//12
f 45//9 44//9 43//9
f 47//22 46//22 37//22
f 50//23 49//23 51//23
f 49//24 48//24 51//24
f 45//10 43//10 39//10
f 39//12 43//12 41//12
f 51//25 48//25 52//25
f 52//10 48//10 34//10
f 32//11 54//11 53//11
