# Blender v2.81 (sub 16) OBJ File: ''
# www.blender.org
mtllib Bhutan.mtl
o 0_Bhutan_sphere.001
v 0.000000 2.339648 -4.418829
v 0.000000 2.269951 -4.455033
v -0.139932 2.269951 -4.452804
v 0.089940 2.269951 -4.453620
v 0.000000 2.249162 -4.465421
v -0.127261 2.339648 -4.416800
v -0.140111 2.258537 -4.458505
v 0.049177 2.339648 -4.418056
v -0.139395 2.302839 -4.435728
v 0.000000 2.372217 -4.401256
v -0.160497 2.269951 -4.451834
v -0.143919 2.304221 -4.434796
v -0.146010 2.304528 -4.434538
v -0.148864 2.304354 -4.434494
v -0.149858 2.304653 -4.434291
v -0.152131 2.306178 -4.433392
v -0.153041 2.306445 -4.433209
v -0.154804 2.304593 -4.434089
v -0.161825 2.293357 -4.439600
v -0.162148 2.292430 -4.440067
v -0.161631 2.291097 -4.440785
v -0.159228 2.289271 -4.441848
v -0.158168 2.288122 -4.442495
v -0.157898 2.287418 -4.442874
v -0.157671 2.285954 -4.443646
v -0.157452 2.285292 -4.444000
v -0.157031 2.284666 -4.444346
v -0.156030 2.283719 -4.444886
v -0.155608 2.283191 -4.445180
v -0.155073 2.282061 -4.445793
v -0.154699 2.280726 -4.446505
v -0.154492 2.279296 -4.447258
v -0.154497 2.277886 -4.447991
v -0.155486 2.275358 -4.449259
v -0.159427 2.271877 -4.450883
v 0.001948 2.248978 -4.465482
v 0.006884 2.247748 -4.466020
v 0.008580 2.247586 -4.466074
v 0.009370 2.247693 -4.466008
v 0.010962 2.248118 -4.465770
v 0.011678 2.248207 -4.465715
v 0.012593 2.248837 -4.465385
v 0.013320 2.248550 -4.465518
v 0.013516 2.247786 -4.465896
v 0.013675 2.246984 -4.466294
v 0.013922 2.246466 -4.466549
v 0.014300 2.246083 -4.466735
v 0.015332 2.246358 -4.466581
v 0.018755 2.246362 -4.466526
v 0.020440 2.246592 -4.466384
v 0.024627 2.248227 -4.465501
v 0.026338 2.248295 -4.465441
v 0.029076 2.247259 -4.465915
v 0.030522 2.247231 -4.465906
v 0.031481 2.247908 -4.465553
v 0.030223 2.250074 -4.464491
v 0.030384 2.251436 -4.463808
v 0.032351 2.252848 -4.463071
v 0.035440 2.253883 -4.462505
v 0.038650 2.254348 -4.462223
v 0.043536 2.253816 -4.462411
v 0.046307 2.255083 -4.461735
v 0.049299 2.256946 -4.460757
v 0.051417 2.258272 -4.460061
v 0.054663 2.257488 -4.460402
v 0.055737 2.257538 -4.460360
v 0.056736 2.257443 -4.460392
v 0.057573 2.256852 -4.460674
v 0.058385 2.256103 -4.461036
v 0.059310 2.255550 -4.461298
v 0.061499 2.255024 -4.461526
v 0.063706 2.254826 -4.461591
v 0.068116 2.255052 -4.461408
v 0.070574 2.255672 -4.461060
v 0.071657 2.256820 -4.460469
v 0.072279 2.258412 -4.459664
v 0.073318 2.260377 -4.458665
v 0.074540 2.261604 -4.458034
v 0.076342 2.262821 -4.457397
v 0.078278 2.263612 -4.456971
v 0.079938 2.263532 -4.456985
v 0.080681 2.263047 -4.457216
v 0.081563 2.262825 -4.457313
v 0.082479 2.262909 -4.457256
v 0.083287 2.263343 -4.457027
v 0.083823 2.264145 -4.456618
v 0.083807 2.264895 -4.456243
v 0.083673 2.265709 -4.455839
v 0.083856 2.266666 -4.455358
v 0.085223 2.268193 -4.454573
v 0.086801 2.268024 -4.454633
v 0.088316 2.266877 -4.455182
v 0.089538 2.265408 -4.455897
v 0.089955 2.269278 -4.453957
v -0.126338 2.337827 -4.417761
v -0.125695 2.335920 -4.418762
v -0.125648 2.334152 -4.419682
v -0.126169 2.328696 -4.422507
v -0.125748 2.325362 -4.424246
v -0.122212 2.320816 -4.426664
v -0.121747 2.317847 -4.428213
v -0.123516 2.312167 -4.431136
v -0.124260 2.311064 -4.431697
v -0.126477 2.309491 -4.432478
v -0.127176 2.308200 -4.433138
v -0.128408 2.306981 -4.433752
v -0.130178 2.306501 -4.433973
v -0.132087 2.306195 -4.434102
v -0.133804 2.305530 -4.434419
v -0.135113 2.303920 -4.435235
v -0.135221 2.302725 -4.435854
v -0.135636 2.302140 -4.436151
v -0.137912 2.302364 -4.435999
v 0.048701 2.340217 -4.417757
v 0.045029 2.346331 -4.414515
v 0.044749 2.346799 -4.414268
v 0.042918 2.349607 -4.412781
v 0.041810 2.350886 -4.412108
v 0.040529 2.351933 -4.411563
v 0.038983 2.352452 -4.411308
v 0.037457 2.353523 -4.410753
v 0.033856 2.357588 -4.408617
v 0.032471 2.358361 -4.408222
v 0.031048 2.358765 -4.408026
v 0.021785 2.360271 -4.407359
v 0.018847 2.361459 -4.406765
v 0.017472 2.363643 -4.405607
v 0.016913 2.364879 -4.404949
v 0.015739 2.365757 -4.404494
v 0.013139 2.367232 -4.403739
v 0.012454 2.367906 -4.403386
v 0.011265 2.369393 -4.402602
v 0.010579 2.370053 -4.402257
v 0.009754 2.370425 -4.402069
v 0.009161 2.370186 -4.402207
v 0.006478 2.371585 -4.401495
v 0.003675 2.371033 -4.401836
v 0.002207 2.371791 -4.401451
v 0.000754 2.371993 -4.401364
v -0.160821 2.269389 -4.452100
v -0.162243 2.264875 -4.454291
v -0.161992 2.263646 -4.454917
v -0.161453 2.261000 -4.456266
v -0.158620 2.258439 -4.457682
v -0.153874 2.257835 -4.458207
v -0.152481 2.258448 -4.457966
v -0.149960 2.260371 -4.457123
v -0.148587 2.260888 -4.456930
v -0.147408 2.260606 -4.457126
v -0.147616 2.259577 -4.457631
v -0.147638 2.258419 -4.458210
v -0.145968 2.257715 -4.458640
v -0.146920 2.256655 -4.459126
v -0.147024 2.255371 -4.459763
v -0.146393 2.254484 -4.460237
v -0.145168 2.254631 -4.460220
v -0.144315 2.255713 -4.459719
v -0.144066 2.256984 -4.459096
v -0.143606 2.258128 -4.458545
v -0.142120 2.258858 -4.458250
v -0.020091 2.373066 -4.400477
v -0.020097 2.370282 -4.401979
v -0.022387 2.367370 -4.403514
v -0.025315 2.366934 -4.403703
v -0.027189 2.370268 -4.401874
v -0.029722 2.370262 -4.401837
v -0.032007 2.368987 -4.402488
v -0.035048 2.368980 -4.402443
v -0.038862 2.366443 -4.403752
v -0.042160 2.366180 -4.403841
v -0.045209 2.365165 -4.404340
v -0.045984 2.362629 -4.405696
v -0.043704 2.361874 -4.406140
v -0.042195 2.359336 -4.407533
v -0.039658 2.359091 -4.407706
v -0.037385 2.356813 -4.408971
v -0.036597 2.352789 -4.411155
v -0.037936 2.352941 -4.411052
v -0.039283 2.352917 -4.411043
v -0.044318 2.352271 -4.411312
v -0.046022 2.352640 -4.411086
v -0.047911 2.352818 -4.410959
v -0.050154 2.353889 -4.410345
v -0.051420 2.354145 -4.410187
v -0.052690 2.353893 -4.410303
v -0.056019 2.351935 -4.411306
v -0.058213 2.351432 -4.411542
v -0.060796 2.350839 -4.411821
v -0.065599 2.350572 -4.411889
v -0.070129 2.349694 -4.412291
v -0.074092 2.346775 -4.413802
v -0.075224 2.345803 -4.414309
v -0.077836 2.344620 -4.414906
v -0.081164 2.344318 -4.415015
v -0.084293 2.345001 -4.414597
v -0.086350 2.346779 -4.413605
v -0.087443 2.348272 -4.412782
v -0.090656 2.351619 -4.410925
v -0.092095 2.352628 -4.410358
v -0.094091 2.352963 -4.410144
v -0.096060 2.352707 -4.410252
v -0.097873 2.352813 -4.410165
v -0.099434 2.354248 -4.409367
v -0.100960 2.351551 -4.410797
v -0.103434 2.349571 -4.411826
v -0.109426 2.346822 -4.413214
v -0.110786 2.346413 -4.413413
v -0.111559 2.346185 -4.413524
v -0.112673 2.346037 -4.413586
v -0.115490 2.346023 -4.413548
v -0.118580 2.344893 -4.414109
v -0.121746 2.344550 -4.414244
v -0.123444 2.344141 -4.414437
v -0.125073 2.343486 -4.414764
v -0.126332 2.342642 -4.415200
v -0.127497 2.340877 -4.416133
v -0.005419 2.373871 -4.400277
v -0.009465 2.373097 -4.400630
v -0.011742 2.372073 -4.401146
v -0.013513 2.372327 -4.400980
v -0.015280 2.374092 -4.400001
v -0.017303 2.374845 -4.399561
v 0.089924 2.273522 -4.451766
v 0.090277 2.275520 -4.450722
v 0.091292 2.277274 -4.449795
v 0.093018 2.278453 -4.449155
v 0.097864 2.280773 -4.447874
v 0.098600 2.281258 -4.447611
v 0.098161 2.283641 -4.446380
v 0.096906 2.286181 -4.445080
v 0.095216 2.288376 -4.443966
v 0.093241 2.289573 -4.443376
v 0.088558 2.290647 -4.442892
v 0.087409 2.291429 -4.442503
v 0.086746 2.291884 -4.442277
v 0.086128 2.294148 -4.441111
v 0.084348 2.295333 -4.440523
v 0.081584 2.295123 -4.440676
v 0.079951 2.293897 -4.441339
v 0.077993 2.295326 -4.440627
v 0.079208 2.297168 -4.439651
v 0.080516 2.300144 -4.438085
v 0.081490 2.303265 -4.436448
v 0.080971 2.305108 -4.435499
v 0.080282 2.306746 -4.434659
v 0.078975 2.307880 -4.434090
v 0.079199 2.308294 -4.433871
v 0.079562 2.308989 -4.433505
v 0.079728 2.309824 -4.433069
v 0.079304 2.310804 -4.432566
v 0.078178 2.311362 -4.432294
v 0.077223 2.312304 -4.431819
v 0.077390 2.313147 -4.431379
v 0.076333 2.314337 -4.430777
v 0.075003 2.314577 -4.430674
v 0.074504 2.315768 -4.430063
v 0.073619 2.316856 -4.429512
v 0.072600 2.317446 -4.429221
v 0.070460 2.318218 -4.428854
v 0.069625 2.318043 -4.428958
v 0.069067 2.317937 -4.429022
v 0.068301 2.317622 -4.429197
v 0.067683 2.318327 -4.428841
v 0.065437 2.321306 -4.427329
v 0.062124 2.326346 -4.424762
v 0.060673 2.329492 -4.423151
v 0.060000 2.332335 -4.421686
v 0.057372 2.333870 -4.420929
v 0.054204 2.335168 -4.420304
v 0.051362 2.337093 -4.419349
v -0.134913 2.255519 -4.460096
v -0.132645 2.254511 -4.460636
v -0.128897 2.254045 -4.460929
v -0.127666 2.254119 -4.460911
v -0.124217 2.255015 -4.460518
v -0.122811 2.254955 -4.460571
v -0.120004 2.254054 -4.461066
v -0.118550 2.253952 -4.461140
v -0.117513 2.254755 -4.460755
v -0.115676 2.258245 -4.459041
v -0.114930 2.259246 -4.458552
v -0.113802 2.259539 -4.458424
v -0.110655 2.259691 -4.458397
v -0.109581 2.259530 -4.458495
v -0.108202 2.258651 -4.458956
v -0.107414 2.257429 -4.459580
v -0.106807 2.256002 -4.460303
v -0.105916 2.254551 -4.461042
v -0.104931 2.253648 -4.461509
v -0.103732 2.252925 -4.461889
v -0.102427 2.252379 -4.462183
v -0.101133 2.252061 -4.462362
v -0.099531 2.252014 -4.462412
v -0.098430 2.252401 -4.462236
v -0.096120 2.253651 -4.461648
v -0.093440 2.254201 -4.461416
v -0.087897 2.254076 -4.461566
v -0.085152 2.254374 -4.461461
v -0.082822 2.254354 -4.461508
v -0.078991 2.252769 -4.462362
v -0.073666 2.252337 -4.462662
v -0.055916 2.251428 -4.463399
v -0.045815 2.252467 -4.463041
v -0.037012 2.256599 -4.461117
v -0.029774 2.261281 -4.458892
v -0.027139 2.261678 -4.458735
v -0.025563 2.261222 -4.458988
v -0.024445 2.260424 -4.459405
v -0.023409 2.259480 -4.459893
v -0.022131 2.258613 -4.460347
v -0.020694 2.258192 -4.460580
v -0.017823 2.258312 -4.460566
v -0.016403 2.258213 -4.460638
v -0.013796 2.256707 -4.461432
v -0.011837 2.252010 -4.463810
v -0.009889 2.250431 -4.464630
v -0.006928 2.249705 -4.465040
vn 0.0137 0.4748 -0.8800
vn 0.0144 0.4609 -0.8873
vn -0.0142 0.4611 -0.8872
vn -0.0400 0.4616 -0.8862
vn 0.0139 0.4469 -0.8945
vn -0.0422 0.4470 -0.8935
vn -0.0138 0.4748 -0.8800
vn -0.0143 0.4473 -0.8943
vn 0.0138 0.4749 -0.8800
vn 0.0145 0.4748 -0.8800
vn 0.0138 0.4753 -0.8797
vn 0.0138 0.4748 -0.8800
vn 0.0139 0.4746 -0.8801
vn 0.0140 0.4748 -0.8800
vn 0.0139 0.4748 -0.8800
vn 0.0135 0.4751 -0.8798
vn 0.0118 0.4736 -0.8807
vn 0.0137 0.4744 -0.8802
vn 0.0141 0.4749 -0.8799
vn 0.0142 0.4748 -0.8800
vn 0.0145 0.4754 -0.8797
vn 0.0138 0.4747 -0.8800
vn 0.0139 0.4747 -0.8800
vn 0.0137 0.4754 -0.8796
vn 0.0139 0.4740 -0.8804
vn 0.0130 0.4749 -0.8800
vn 0.0136 0.4733 -0.8808
vn 0.0137 0.4750 -0.8799
vn 0.0139 0.4609 -0.8873
vn 0.0134 0.4609 -0.8874
vn 0.0139 0.4610 -0.8873
vn 0.0138 0.4607 -0.8874
vn 0.0136 0.4608 -0.8874
vn 0.0139 0.4609 -0.8874
vn 0.0148 0.4612 -0.8872
vn 0.0144 0.4610 -0.8873
vn 0.0137 0.4609 -0.8873
vn 0.0134 0.4610 -0.8873
vn 0.0140 0.4609 -0.8874
vn 0.0143 0.4609 -0.8874
vn 0.0141 0.4610 -0.8873
vn 0.0138 0.4610 -0.8873
vn 0.0140 0.4609 -0.8873
vn 0.0160 0.4613 -0.8871
vn 0.0138 0.4609 -0.8873
vn 0.0141 0.4608 -0.8874
vn 0.0137 0.4607 -0.8874
vn 0.0136 0.4613 -0.8871
vn 0.0135 0.4610 -0.8873
vn 0.0140 0.4611 -0.8873
vn 0.0138 0.4603 -0.8877
vn 0.0141 0.4603 -0.8876
vn 0.0139 0.4612 -0.8872
vn 0.0139 0.4608 -0.8874
vn 0.0139 0.4611 -0.8872
vn 0.0142 0.4610 -0.8873
vn 0.0143 0.4611 -0.8872
vn 0.0136 0.4609 -0.8873
vn 0.0142 0.4609 -0.8873
vn 0.0146 0.4607 -0.8874
vn 0.0133 0.4610 -0.8873
vn 0.0136 0.4610 -0.8873
vn 0.0164 0.4608 -0.8874
vn -0.0139 0.4609 -0.8873
vn -0.0141 0.4609 -0.8873
vn -0.0141 0.4611 -0.8872
vn -0.0141 0.4608 -0.8874
vn -0.0148 0.4609 -0.8873
vn -0.0141 0.4610 -0.8873
vn -0.0119 0.4613 -0.8872
vn -0.0146 0.4610 -0.8873
vn -0.0134 0.4609 -0.8873
vn -0.0144 0.4609 -0.8873
vn -0.0141 0.4611 -0.8873
vn -0.0143 0.4607 -0.8874
vn -0.0145 0.4610 -0.8873
vn -0.0141 0.4609 -0.8874
vn -0.0418 0.4609 -0.8865
vn -0.0420 0.4610 -0.8864
vn -0.0419 0.4608 -0.8865
vn -0.0418 0.4599 -0.8870
vn -0.0429 0.4612 -0.8863
vn -0.0418 0.4608 -0.8865
vn -0.0418 0.4609 -0.8864
vn -0.0417 0.4609 -0.8865
vn -0.0418 0.4601 -0.8869
vn -0.0419 0.4609 -0.8864
vn -0.0417 0.4610 -0.8864
vn -0.0416 0.4609 -0.8865
vn -0.0417 0.4608 -0.8865
vn -0.0416 0.4610 -0.8864
vn -0.0426 0.4610 -0.8864
vn -0.0422 0.4610 -0.8864
vn -0.0417 0.4609 -0.8864
vn -0.0421 0.4608 -0.8865
vn -0.0465 0.4599 -0.8867
vn -0.0435 0.4606 -0.8865
vn -0.0415 0.4613 -0.8863
vn 0.0140 0.4469 -0.8945
vn 0.0132 0.4474 -0.8942
vn 0.0145 0.4471 -0.8943
vn 0.0145 0.4467 -0.8946
vn 0.0145 0.4469 -0.8945
vn 0.0142 0.4469 -0.8945
vn 0.0140 0.4470 -0.8944
vn 0.0140 0.4464 -0.8947
vn 0.0141 0.4469 -0.8945
vn 0.0140 0.4468 -0.8945
vn 0.0130 0.4475 -0.8942
vn 0.0141 0.4474 -0.8942
vn 0.0142 0.4466 -0.8946
vn 0.0139 0.4468 -0.8945
vn 0.0138 0.4469 -0.8945
vn 0.0130 0.4469 -0.8945
vn 0.0146 0.4470 -0.8944
vn 0.0137 0.4469 -0.8945
vn 0.0136 0.4472 -0.8943
vn 0.0142 0.4464 -0.8947
vn 0.0129 0.4471 -0.8944
vn 0.0142 0.4475 -0.8942
vn 0.0138 0.4472 -0.8943
vn 0.0158 0.4468 -0.8945
vn 0.0145 0.4468 -0.8945
vn 0.0137 0.4468 -0.8945
vn 0.0143 0.4472 -0.8943
vn 0.0140 0.4476 -0.8941
vn 0.0139 0.4470 -0.8944
vn 0.0141 0.4470 -0.8944
vn 0.0138 0.4464 -0.8948
vn 0.0146 0.4474 -0.8942
vn 0.0119 0.4437 -0.8961
vn 0.0141 0.4473 -0.8943
vn 0.0145 0.4493 -0.8933
vn 0.0136 0.4477 -0.8941
vn 0.0139 0.4476 -0.8941
vn 0.0137 0.4474 -0.8942
vn 0.0141 0.4465 -0.8947
vn -0.0418 0.4470 -0.8935
vn -0.0425 0.4469 -0.8936
vn -0.0413 0.4475 -0.8933
vn -0.0421 0.4470 -0.8935
vn -0.0427 0.4468 -0.8936
vn -0.0425 0.4470 -0.8935
vn -0.0421 0.4471 -0.8935
vn -0.0422 0.4469 -0.8936
vn -0.0420 0.4471 -0.8935
vn -0.0427 0.4469 -0.8936
vn -0.0423 0.4466 -0.8937
vn -0.0418 0.4469 -0.8936
vn -0.0425 0.4468 -0.8936
vn -0.0422 0.4473 -0.8934
vn -0.0409 0.4469 -0.8936
vn -0.0421 0.4472 -0.8935
vn -0.0431 0.4468 -0.8936
vn -0.0416 0.4469 -0.8936
vn -0.0412 0.4473 -0.8934
vn -0.0140 0.4748 -0.8800
vn -0.0151 0.4748 -0.8800
vn -0.0140 0.4750 -0.8799
vn -0.0132 0.4745 -0.8802
vn -0.0143 0.4747 -0.8800
vn -0.0146 0.4749 -0.8799
vn -0.0142 0.4754 -0.8797
vn -0.0139 0.4748 -0.8800
vn -0.0141 0.4751 -0.8798
vn -0.0141 0.4748 -0.8800
vn -0.0140 0.4746 -0.8801
vn -0.0144 0.4750 -0.8799
vn -0.0141 0.4746 -0.8801
vn -0.0143 0.4750 -0.8799
vn -0.0139 0.4746 -0.8801
vn -0.0142 0.4749 -0.8799
vn -0.0141 0.4747 -0.8800
vn -0.0139 0.4755 -0.8796
vn -0.0150 0.4743 -0.8802
vn -0.0138 0.4745 -0.8801
vn -0.0141 0.4749 -0.8799
vn -0.0142 0.4747 -0.8801
vn -0.0140 0.4747 -0.8800
vn -0.0140 0.4749 -0.8800
vn -0.0140 0.4745 -0.8801
vn -0.0139 0.4751 -0.8798
vn -0.0144 0.4748 -0.8800
vn -0.0142 0.4748 -0.8800
vn -0.0142 0.4747 -0.8800
vn -0.0138 0.4753 -0.8797
vn -0.0140 0.4753 -0.8797
vn -0.0141 0.4744 -0.8802
vn -0.0140 0.4752 -0.8798
vn -0.0137 0.4751 -0.8798
vn -0.0135 0.4747 -0.8801
vn -0.0142 0.4766 -0.8790
vn -0.0143 0.4753 -0.8797
vn -0.0140 0.4749 -0.8799
vn -0.0143 0.4745 -0.8802
vn -0.0142 0.4469 -0.8945
vn -0.0141 0.4470 -0.8944
vn -0.0148 0.4468 -0.8945
vn -0.0142 0.4470 -0.8944
vn -0.0143 0.4470 -0.8944
vn -0.0137 0.4467 -0.8946
vn -0.0144 0.4471 -0.8944
vn -0.0140 0.4466 -0.8946
vn -0.0141 0.4469 -0.8945
vn -0.0146 0.4473 -0.8943
vn -0.0139 0.4467 -0.8946
vn -0.0135 0.4468 -0.8945
vn -0.0146 0.4472 -0.8943
vn -0.0148 0.4473 -0.8943
vn -0.0143 0.4467 -0.8946
vn -0.0141 0.4471 -0.8944
vn -0.0144 0.4470 -0.8944
vn -0.0132 0.4475 -0.8942
vn -0.0144 0.4472 -0.8943
vn -0.0143 0.4469 -0.8945
vn -0.0140 0.4458 -0.8950
vn -0.0141 0.4472 -0.8943
vn -0.0142 0.4469 -0.8944
vn -0.0142 0.4489 -0.8935
vn -0.0144 0.4466 -0.8946
vn -0.0140 0.4470 -0.8944
vn -0.0146 0.4468 -0.8945
vn -0.0160 0.4478 -0.8940
vn -0.0136 0.4466 -0.8946
vn -0.0144 0.4469 -0.8944
vn -0.0146 0.4474 -0.8942
usemtl None
s off
f 120//1 1//1 121//1
f 251//2 249//2 248//2
f 2//3 103//3 102//3
f 25//4 28//4 27//4
f 77//5 67//5 78//5
f 159//6 152//6 149//6
f 176//7 175//7 169//7
f 295//8 294//8 291//8
f 8//9 1//9 114//9
f 1//10 10//10 139//10
f 139//11 138//11 137//11
f 1//1 139//1 137//1
f 114//12 1//12 115//12
f 126//12 1//12 130//12
f 137//13 136//13 135//13
f 1//14 126//14 125//14
f 1//15 137//15 130//15
f 117//16 116//16 120//16
f 116//17 115//17 120//17
f 135//18 134//18 133//18
f 133//19 132//19 135//19
f 132//20 131//20 135//20
f 130//13 129//13 127//13
f 129//21 128//21 127//21
f 135//22 131//22 137//22
f 131//23 130//23 137//23
f 120//12 115//12 1//12
f 119//24 118//24 120//24
f 118//25 117//25 120//25
f 130//26 127//26 126//26
f 125//12 124//12 121//12
f 124//27 123//27 122//27
f 124//28 122//28 121//28
f 1//12 125//12 121//12
f 4//29 2//29 240//29
f 2//29 1//29 265//29
f 4//30 240//30 223//30
f 1//31 8//31 270//31
f 269//32 268//32 266//32
f 268//33 267//33 266//33
f 1//34 270//34 265//34
f 270//35 269//35 265//35
f 223//36 240//36 239//36
f 224//37 223//37 239//37
f 269//38 266//38 265//38
f 225//39 224//39 239//39
f 228//40 227//40 229//40
f 227//39 226//39 229//39
f 226//41 225//41 233//41
f 265//42 264//42 2//42
f 225//43 239//43 234//43
f 234//44 239//44 235//44
f 230//45 229//45 226//45
f 232//43 231//43 226//43
f 231//45 230//45 226//45
f 233//43 232//43 226//43
f 264//46 263//46 2//46
f 262//47 261//47 260//47
f 263//48 262//48 2//48
f 234//49 233//49 225//49
f 262//50 260//50 258//50
f 260//51 259//51 258//51
f 258//52 257//52 256//52
f 262//53 258//53 255//53
f 256//54 255//54 258//54
f 255//55 254//55 252//55
f 254//36 253//36 252//36
f 262//29 255//29 246//29
f 255//56 252//56 246//56
f 237//57 236//57 238//57
f 236//43 235//43 238//43
f 239//31 238//31 235//31
f 242//29 241//29 246//29
f 241//45 240//45 246//45
f 243//58 242//58 244//58
f 244//59 242//59 246//59
f 240//29 2//29 262//29
f 245//60 244//60 246//60
f 251//61 250//61 249//61
f 262//43 246//43 240//43
f 252//41 251//41 246//41
f 248//62 247//62 251//62
f 247//63 246//63 251//63
f 3//64 9//64 113//64
f 3//65 113//65 112//65
f 1//65 2//65 101//65
f 2//65 3//65 103//65
f 106//65 3//65 112//65
f 95//66 6//66 1//66
f 96//67 95//67 1//67
f 3//68 106//68 105//68
f 111//68 110//68 109//68
f 3//69 105//69 103//69
f 112//70 111//70 106//70
f 97//71 96//71 100//71
f 96//65 1//65 100//65
f 99//72 98//72 100//72
f 98//73 97//73 100//73
f 111//74 109//74 108//74
f 107//75 111//75 108//75
f 111//76 107//76 106//76
f 101//77 100//77 1//77
f 105//65 104//65 103//65
f 102//69 101//69 2//69
f 3//78 11//78 35//78
f 3//78 35//78 34//78
f 12//79 9//79 23//79
f 9//78 3//78 30//78
f 31//80 3//80 32//80
f 14//81 13//81 12//81
f 17//82 16//82 18//82
f 16//83 15//83 18//83
f 14//84 12//84 23//84
f 3//85 31//85 30//85
f 15//86 14//86 18//86
f 3//87 34//87 33//87
f 3//88 33//88 32//88
f 9//89 30//89 29//89
f 20//90 19//90 21//90
f 19//78 18//78 14//78
f 22//91 19//91 14//91
f 22//92 21//92 19//92
f 9//93 29//93 28//93
f 9//94 28//94 24//94
f 23//95 22//95 14//95
f 26//96 25//96 27//96
f 25//97 24//97 28//97
f 24//98 23//98 9//98
f 2//99 4//99 90//99
f 4//100 94//100 91//100
f 90//101 4//101 91//101
f 94//99 93//99 92//99
f 94//102 92//102 91//102
f 5//103 2//103 36//103
f 38//104 37//104 39//104
f 37//105 36//105 42//105
f 39//106 37//106 40//106
f 2//107 90//107 64//107
f 36//99 2//99 42//99
f 40//108 37//108 42//108
f 2//99 64//99 60//99
f 90//109 89//109 80//109
f 64//99 90//99 79//99
f 42//110 41//110 40//110
f 89//111 88//111 81//111
f 80//112 89//112 81//112
f 88//113 87//113 81//113
f 87//114 86//114 85//114
f 84//115 87//115 85//115
f 84//116 83//116 87//116
f 83//117 82//117 87//117
f 82//107 81//107 87//107
f 46//118 45//118 48//118
f 45//119 44//119 48//119
f 48//120 47//120 46//120
f 50//121 49//121 43//121
f 49//105 48//105 43//105
f 51//107 50//107 43//107
f 48//122 44//122 43//122
f 51//99 43//99 57//99
f 43//123 42//123 57//123
f 54//104 53//104 56//104
f 53//112 52//112 56//112
f 52//116 51//116 57//116
f 55//124 54//124 56//124
f 56//125 52//125 57//125
f 90//126 80//126 79//126
f 57//107 42//107 2//107
f 58//127 57//127 2//127
f 76//99 75//99 73//99
f 75//128 74//128 73//128
f 73//104 72//104 76//104
f 72//129 71//129 68//129
f 71//130 70//130 68//130
f 70//131 69//131 68//131
f 77//99 76//99 72//99
f 72//107 68//107 77//107
f 68//132 67//132 77//132
f 66//133 65//133 64//133
f 67//134 66//134 78//134
f 66//107 64//107 79//107
f 78//135 66//135 79//135
f 64//136 63//136 60//136
f 63//5 62//5 60//5
f 62//137 61//137 60//137
f 59//104 58//104 2//104
f 60//128 59//128 2//128
f 3//138 7//138 160//138
f 3//6 160//6 149//6
f 160//139 159//139 149//139
f 140//140 11//140 147//140
f 11//141 3//141 148//141
f 142//142 141//142 140//142
f 144//143 143//143 142//143
f 146//144 145//144 144//144
f 147//145 146//145 142//145
f 146//146 144//146 142//146
f 142//145 140//145 147//145
f 11//147 148//147 147//147
f 158//148 157//148 152//148
f 157//149 156//149 154//149
f 152//150 157//150 153//150
f 159//151 158//151 152//151
f 156//152 155//152 154//152
f 154//153 153//153 157//153
f 152//154 151//154 150//154
f 149//155 148//155 3//155
f 152//156 150//156 149//156
f 1//157 6//157 194//157
f 6//158 216//158 215//158
f 194//159 6//159 195//159
f 215//160 214//160 6//160
f 214//161 213//161 6//161
f 213//162 212//162 6//162
f 211//163 210//163 209//163
f 212//164 211//164 6//164
f 217//165 10//165 218//165
f 10//166 1//166 219//166
f 219//167 218//167 10//167
f 222//168 221//168 161//168
f 221//169 220//169 162//169
f 161//157 221//157 162//157
f 220//170 219//170 163//170
f 219//157 1//157 163//157
f 6//171 211//171 209//171
f 209//164 208//164 6//164
f 162//172 220//172 163//172
f 204//173 203//173 202//173
f 201//174 200//174 198//174
f 200//175 199//175 198//175
f 204//176 202//176 201//176
f 205//177 204//177 201//177
f 198//178 197//178 201//178
f 197//179 196//179 205//179
f 201//180 197//180 205//180
f 206//177 205//177 195//177
f 205//164 196//164 195//164
f 207//181 206//181 195//181
f 207//182 195//182 208//182
f 208//179 195//179 6//179
f 166//7 165//7 164//7
f 164//183 163//183 177//183
f 163//157 1//157 177//157
f 1//166 194//166 193//166
f 166//177 164//177 167//177
f 167//184 164//184 176//184
f 169//166 168//166 167//166
f 176//177 164//177 177//177
f 1//157 193//157 180//157
f 193//185 192//185 180//185
f 192//186 191//186 188//186
f 191//167 190//167 189//167
f 189//157 188//157 191//157
f 188//187 187//187 180//187
f 187//188 186//188 180//188
f 186//166 185//166 182//166
f 185//189 184//189 183//189
f 182//190 185//190 183//190
f 182//191 181//191 180//191
f 180//192 179//192 177//192
f 179//193 178//193 177//193
f 186//177 182//177 180//177
f 188//194 180//194 192//194
f 180//157 177//157 1//157
f 169//164 167//164 176//164
f 171//172 170//172 173//172
f 170//194 169//194 173//194
f 173//164 172//164 171//164
f 175//195 174//195 173//195
f 175//164 173//164 169//164
f 2//196 5//196 314//196
f 5//197 317//197 314//197
f 317//198 316//198 315//198
f 317//199 315//199 314//199
f 7//199 3//199 271//199
f 3//200 2//200 305//200
f 283//201 3//201 284//201
f 272//202 271//202 273//202
f 275//200 271//200 3//200
f 274//203 273//203 271//203
f 275//200 274//200 271//200
f 2//204 314//204 313//204
f 278//197 277//197 279//197
f 277//205 276//205 280//205
f 279//206 277//206 280//206
f 276//207 275//207 280//207
f 280//208 275//208 281//208
f 2//200 313//200 307//200
f 313//209 312//209 307//209
f 312//210 311//210 309//210
f 311//211 310//211 309//211
f 309//212 308//212 312//212
f 312//213 308//213 307//213
f 281//199 275//199 3//199
f 2//212 307//212 306//212
f 305//214 304//214 302//214
f 304//215 303//215 302//215
f 2//216 306//216 305//216
f 282//217 281//217 3//217
f 283//211 282//211 3//211
f 302//200 301//200 305//200
f 301//199 300//199 299//199
f 301//218 299//218 305//218
f 298//219 297//219 296//219
f 305//200 299//200 284//200
f 299//220 298//220 284//220
f 284//200 3//200 305//200
f 284//199 298//199 296//199
f 285//221 296//221 295//221
f 285//222 284//222 296//222
f 288//223 287//223 289//223
f 287//196 286//196 295//196
f 289//224 287//224 290//224
f 286//211 285//211 295//211
f 291//199 290//199 295//199
f 295//225 290//225 287//225
f 293//226 292//226 294//226
f 292//220 291//220 294//220
