# Blender v2.81 (sub 16) OBJ File: ''
# www.blender.org
mtllib Bosnia and Herzegovina.mtl
o 0_Bosnia_and_Herzegovina_sphere.001
v 3.362497 3.535534 -1.092537
v 3.487313 3.381872 -1.133093
v 3.385068 3.535534 -0.950026
v 3.381346 3.535534 -0.973528
v 3.378811 3.535534 -0.989532
v 3.352873 3.544176 -1.089410
v 3.341494 3.535534 -1.133758
v 3.352216 3.544229 -1.090566
v 3.352210 3.543825 -1.091605
v 3.353126 3.541584 -1.095517
v 3.353046 3.541084 -1.096946
v 3.352726 3.540868 -1.098124
v 3.352432 3.540826 -1.098811
v 3.352190 3.540784 -1.099391
v 3.351428 3.540914 -1.100556
v 3.350464 3.541321 -1.101412
v 3.349602 3.541915 -1.101591
v 3.348742 3.542662 -1.101375
v 3.347864 3.543388 -1.101249
v 3.346932 3.543936 -1.101683
v 3.346055 3.544081 -1.103035
v 3.345877 3.543613 -1.104574
v 3.346236 3.542112 -1.107694
v 3.346152 3.541798 -1.108659
v 3.344604 3.541340 -1.112864
v 3.344515 3.540919 -1.114111
v 3.344740 3.540267 -1.115330
v 3.345299 3.539177 -1.117007
v 3.345655 3.538488 -1.118067
v 3.345723 3.538018 -1.119130
v 3.345756 3.537750 -1.119747
v 3.345529 3.537264 -1.121432
v 3.344937 3.537159 -1.122859
v 3.344049 3.537999 -1.122462
v 3.343369 3.538734 -1.121926
v 3.342892 3.539148 -1.121807
v 3.342085 3.539479 -1.122547
v 3.341902 3.539431 -1.123029
v 3.341662 3.539219 -1.124039
v 3.341463 3.539186 -1.124517
v 3.340387 3.539599 -1.125573
v 3.340121 3.539464 -1.126442
v 3.340309 3.539179 -1.126797
v 3.341002 3.538382 -1.127469
v 3.341393 3.537883 -1.127971
v 3.341649 3.537472 -1.128514
v 3.341611 3.537290 -1.129053
v 3.341130 3.537472 -1.129535
v 3.340729 3.537747 -1.129621
v 3.340265 3.538106 -1.129618
v 3.339801 3.538445 -1.129664
v 3.339400 3.538662 -1.129898
v 3.339204 3.538502 -1.130690
v 3.339373 3.538220 -1.131078
v 3.360257 3.546976 -1.022096
v 3.360557 3.546654 -1.022584
v 3.360181 3.546802 -1.023861
v 3.359746 3.547217 -1.023539
v 3.359413 3.547418 -1.024155
v 3.359974 3.546803 -1.025156
v 3.360178 3.546524 -1.025929
v 3.359193 3.547320 -1.026264
v 3.359667 3.546861 -1.026668
v 3.360047 3.546506 -1.026893
v 3.360473 3.546133 -1.026960
v 3.361086 3.545621 -1.026873
v 3.360069 3.546334 -1.028021
v 3.359758 3.546559 -1.028331
v 3.361522 3.544797 -1.030210
v 3.362500 3.543532 -1.033391
v 3.362738 3.543080 -1.035226
v 3.363294 3.542016 -1.039584
v 3.362862 3.542307 -1.040163
v 3.362076 3.542582 -1.043091
v 3.361722 3.542862 -1.043257
v 3.359485 3.544696 -1.043824
v 3.360195 3.543709 -1.046636
v 3.360320 3.543428 -1.047918
v 3.360906 3.542608 -1.050287
v 3.361163 3.542295 -1.050977
v 3.361349 3.542004 -1.051956
v 3.361015 3.542140 -1.053063
v 3.360078 3.542682 -1.054964
v 3.359383 3.543265 -1.055050
v 3.359198 3.543320 -1.055808
v 3.359565 3.542938 -1.056311
v 3.359930 3.542601 -1.056500
v 3.360337 3.542263 -1.056424
v 3.360849 3.541868 -1.056112
v 3.360887 3.541722 -1.056955
v 3.360635 3.541841 -1.057665
v 3.359732 3.542438 -1.058952
v 3.361235 3.541172 -1.058823
v 3.361731 3.540773 -1.058642
v 3.360546 3.541323 -1.062056
v 3.360366 3.541290 -1.063437
v 3.360153 3.541384 -1.064089
v 3.359280 3.541984 -1.065166
v 3.356960 3.543739 -1.066844
v 3.356152 3.544272 -1.067998
v 3.355816 3.544280 -1.070062
v 3.356224 3.543652 -1.072127
v 3.357114 3.542618 -1.074155
v 3.359771 3.539742 -1.078637
v 3.360313 3.539098 -1.079979
v 3.360424 3.538821 -1.081319
v 3.360245 3.538895 -1.081905
v 3.359279 3.539503 -1.083511
v 3.358682 3.539799 -1.085087
v 3.358355 3.540018 -1.085537
v 3.357421 3.540711 -1.086308
v 3.353246 3.543926 -1.088900
v 3.381019 3.539210 -0.948417
v 3.380475 3.539690 -0.948303
v 3.378820 3.541069 -0.948558
v 3.378229 3.541502 -0.949085
v 3.376932 3.542455 -0.950230
v 3.375791 3.542964 -0.953675
v 3.374657 3.543071 -0.960043
v 3.374141 3.543317 -0.961484
v 3.374016 3.543324 -0.962213
v 3.374157 3.543084 -0.963104
v 3.374648 3.542559 -0.963883
v 3.375258 3.542015 -0.964051
v 3.375807 3.541557 -0.963973
v 3.376338 3.541004 -0.964710
v 3.376270 3.540857 -0.966225
v 3.376579 3.540461 -0.967203
v 3.377602 3.539396 -0.968619
v 3.379988 3.537049 -0.970899
v 3.380873 3.536088 -0.972417
v 3.378259 3.535986 -0.989672
v 3.377432 3.536711 -0.989544
v 3.377021 3.537099 -0.989265
v 3.376644 3.537440 -0.989127
v 3.375920 3.538021 -0.989403
v 3.375478 3.538330 -0.989904
v 3.374737 3.538750 -0.991475
v 3.374219 3.539116 -0.992049
v 3.373004 3.540080 -0.992592
v 3.369080 3.543299 -0.993567
v 3.366914 3.544806 -0.996100
v 3.366251 3.544862 -0.999878
v 3.366488 3.542806 -1.013583
v 3.366003 3.543008 -1.015150
v 3.365303 3.543520 -1.015779
v 3.364791 3.543966 -1.015717
v 3.364216 3.544489 -1.015480
v 3.363336 3.545227 -1.015580
v 3.362730 3.545680 -1.016064
v 3.362358 3.545911 -1.016700
v 3.361902 3.546229 -1.017224
v 3.361074 3.546922 -1.017332
v 3.360733 3.547155 -1.017770
v 3.360036 3.547684 -1.018251
v 3.359366 3.548211 -1.018591
v 3.357553 3.549561 -1.020061
v 3.357837 3.549229 -1.020715
v 3.359156 3.547972 -1.021683
v 3.359664 3.547501 -1.021950
v 3.487129 3.382233 -1.132308
v 3.485808 3.384417 -1.128869
v 3.485436 3.385192 -1.127043
v 3.485613 3.385428 -1.124649
v 3.485506 3.385703 -1.123846
v 3.483962 3.388011 -1.121148
v 3.483340 3.388804 -1.120800
v 3.481930 3.390524 -1.120419
v 3.481417 3.391193 -1.120053
v 3.480952 3.391916 -1.119090
v 3.481123 3.391824 -1.118504
v 3.481545 3.391407 -1.118088
v 3.481866 3.391117 -1.117632
v 3.482069 3.391144 -1.116204
v 3.482080 3.391676 -1.113266
v 3.482262 3.391739 -1.111775
v 3.482855 3.391298 -1.110408
v 3.483695 3.390442 -1.109721
v 3.484730 3.389333 -1.109165
v 3.483835 3.391706 -1.102023
v 3.483563 3.391809 -1.103179
v 3.483633 3.391369 -1.105116
v 3.483546 3.391255 -1.106283
v 3.483177 3.391904 -1.105110
v 3.482999 3.392416 -1.103473
v 3.481607 3.393421 -1.106838
v 3.480243 3.394730 -1.108391
v 3.478704 3.396668 -1.107659
v 3.476145 3.400219 -1.104668
v 3.475127 3.401868 -1.102206
v 3.474771 3.402444 -1.101342
v 3.473204 3.406157 -1.091218
v 3.473103 3.406398 -1.090557
v 3.472583 3.407238 -1.089311
v 3.471653 3.408532 -1.088205
v 3.470606 3.409928 -1.087287
v 3.470096 3.410641 -1.086663
v 3.469861 3.411067 -1.085843
v 3.469641 3.411604 -1.084339
v 3.468687 3.413310 -1.081163
v 3.466810 3.416123 -1.077844
v 3.464274 3.419530 -1.075487
v 3.459094 3.425639 -1.075247
v 3.457854 3.427369 -1.073747
v 3.457463 3.428255 -1.071438
v 3.458360 3.428425 -1.064858
v 3.457891 3.429766 -1.060591
v 3.457399 3.430663 -1.058862
v 3.456691 3.431949 -1.056391
v 3.455053 3.434597 -1.052459
v 3.450648 3.442077 -1.039932
v 3.448610 3.446042 -1.031422
v 3.447856 3.447152 -1.030191
v 3.446748 3.448620 -1.029278
v 3.445820 3.449802 -1.028760
v 3.445086 3.450799 -1.028019
v 3.444091 3.452559 -1.024808
v 3.442676 3.454718 -1.022097
v 3.441286 3.457065 -1.018224
v 3.439936 3.459088 -1.015835
v 3.439418 3.459865 -1.014919
v 3.438880 3.460726 -1.013668
v 3.438565 3.461343 -1.012332
v 3.438550 3.461942 -1.009196
v 3.437983 3.462742 -1.008460
v 3.437185 3.463776 -1.007927
v 3.436487 3.464798 -1.006822
v 3.436465 3.464957 -1.006101
v 3.436928 3.464739 -1.004356
v 3.437047 3.464736 -1.003619
v 3.436952 3.464982 -1.002891
v 3.436746 3.465384 -1.002031
v 3.436218 3.466282 -1.000517
v 3.435408 3.467463 -0.999259
v 3.433442 3.470152 -0.997170
v 3.432589 3.471384 -0.995919
v 3.431256 3.473582 -0.992483
v 3.430489 3.474732 -0.991118
v 3.428253 3.477702 -0.989223
v 3.426566 3.479879 -0.988132
v 3.425694 3.480952 -0.987853
v 3.425023 3.481731 -0.987890
v 3.423934 3.482923 -0.988336
v 3.423400 3.483526 -0.988457
v 3.422383 3.484728 -0.988397
v 3.421848 3.485419 -0.988052
v 3.421560 3.485910 -0.987218
v 3.421293 3.486510 -0.985674
v 3.421354 3.486675 -0.984395
v 3.421499 3.486646 -0.983636
v 3.420933 3.487289 -0.983742
v 3.420584 3.487602 -0.984263
v 3.420086 3.488128 -0.984565
v 3.419196 3.489214 -0.984330
v 3.418193 3.490522 -0.983607
v 3.415689 3.493891 -0.981253
v 3.414626 3.495251 -0.980630
v 3.413711 3.496451 -0.979936
v 3.413241 3.497174 -0.979001
v 3.413388 3.497274 -0.977537
v 3.414561 3.496326 -0.975245
v 3.414741 3.496380 -0.973818
v 3.414114 3.497411 -0.972213
v 3.413076 3.498569 -0.972525
v 3.411971 3.499694 -0.973435
v 3.411149 3.500634 -0.973555
v 3.410856 3.500881 -0.974072
v 3.410055 3.501881 -0.973737
v 3.409405 3.502736 -0.973232
v 3.408974 3.503363 -0.972572
v 3.408893 3.503621 -0.971689
v 3.409088 3.503705 -0.970009
v 3.409092 3.503863 -0.969128
v 3.408946 3.504174 -0.968374
v 3.408330 3.505097 -0.967288
v 3.406996 3.506814 -0.966454
v 3.406513 3.507540 -0.965584
v 3.406589 3.507547 -0.965067
v 3.406896 3.507283 -0.964552
v 3.407100 3.507146 -0.963999
v 3.406881 3.507513 -0.963407
v 3.406425 3.508111 -0.963064
v 3.405867 3.508823 -0.962741
v 3.405378 3.509465 -0.962373
v 3.405143 3.509838 -0.961841
v 3.405282 3.509834 -0.960985
v 3.405735 3.509377 -0.960591
v 3.406302 3.508759 -0.960338
v 3.406774 3.508285 -0.959922
v 3.407008 3.508115 -0.959363
v 3.407305 3.507988 -0.958170
v 3.407569 3.507794 -0.957545
v 3.407862 3.507632 -0.956571
v 3.407599 3.508065 -0.955898
v 3.407102 3.508753 -0.955325
v 3.406673 3.509372 -0.954689
v 3.406324 3.510106 -0.952944
v 3.406105 3.510444 -0.952499
v 3.404725 3.512447 -0.950411
v 3.403872 3.513625 -0.949442
v 3.402925 3.514790 -0.949141
v 3.401934 3.515799 -0.949959
v 3.401398 3.516178 -0.951296
v 3.400831 3.516638 -0.952403
v 3.399757 3.517875 -0.952505
v 3.398787 3.519174 -0.951633
v 3.397972 3.520370 -0.950324
v 3.397002 3.521723 -0.949153
v 3.395608 3.523456 -0.948613
v 3.395156 3.523961 -0.948740
v 3.394495 3.524700 -0.948926
v 3.392423 3.526887 -0.950219
v 3.391371 3.528111 -0.950257
v 3.389794 3.530175 -0.949088
v 3.388732 3.531454 -0.948889
v 3.385983 3.534479 -0.949934
v 3.383426 3.532012 -0.979385
v 3.383762 3.531244 -0.981406
v 3.383927 3.530555 -0.984077
v 3.383783 3.530261 -0.986579
v 3.383207 3.530650 -0.988109
v 3.382352 3.531622 -0.988270
v 3.380618 3.533593 -0.988587
vn 0.6464 0.7561 -0.1023
vn 0.5826 0.7566 -0.2969
vn 0.6462 0.7563 -0.1025
vn 0.6460 0.7565 -0.1023
vn 0.7554 0.6443 -0.1194
vn 0.6459 0.7565 -0.1027
vn 0.6460 0.7564 -0.1023
vn 0.6456 0.7568 -0.1022
vn 0.6455 0.7569 -0.1021
vn 0.6458 0.7567 -0.1017
vn 0.6461 0.7562 -0.1030
vn 0.6461 0.7564 -0.1024
vn 0.6459 0.7567 -0.1011
vn 0.6461 0.7564 -0.1023
vn 0.6461 0.7564 -0.1022
vn 0.6461 0.7563 -0.1023
vn 0.6459 0.7565 -0.1025
vn 0.6464 0.7559 -0.1036
vn 0.6460 0.7564 -0.1025
vn 0.6454 0.7569 -0.1023
vn 0.6464 0.7561 -0.1022
vn 0.6460 0.7564 -0.1024
vn 0.6461 0.7563 -0.1022
vn 0.6462 0.7563 -0.1022
vn 0.6458 0.7566 -0.1024
vn 0.6459 0.7565 -0.1023
vn 0.6462 0.7562 -0.1028
vn 0.6463 0.7561 -0.1024
vn 0.6466 0.7559 -0.1022
vn 0.6449 0.7573 -0.1031
vn 0.5828 0.7564 -0.2970
vn 0.5826 0.7567 -0.2966
vn 0.5826 0.7564 -0.2975
vn 0.5830 0.7563 -0.2967
vn 0.5833 0.7558 -0.2976
vn 0.5830 0.7562 -0.2973
vn 0.5828 0.7564 -0.2969
vn 0.5830 0.7563 -0.2969
vn 0.5828 0.7566 -0.2964
vn 0.5827 0.7565 -0.2969
vn 0.5832 0.7566 -0.2956
vn 0.5829 0.7561 -0.2975
vn 0.5828 0.7565 -0.2967
vn 0.5833 0.7560 -0.2970
vn 0.5827 0.7565 -0.2970
vn 0.5822 0.7571 -0.2963
vn 0.5826 0.7567 -0.2967
vn 0.5829 0.7563 -0.2971
vn 0.5827 0.7568 -0.2962
vn 0.5824 0.7568 -0.2967
vn 0.5832 0.7560 -0.2974
vn 0.5827 0.7562 -0.2978
vn 0.5828 0.7565 -0.2969
vn 0.5825 0.7568 -0.2966
vn 0.5829 0.7560 -0.2979
vn 0.5829 0.7563 -0.2970
vn 0.5829 0.7562 -0.2974
vn 0.5830 0.7562 -0.2971
vn 0.5828 0.7563 -0.2971
vn 0.5821 0.7568 -0.2973
vn 0.5830 0.7562 -0.2970
vn 0.5825 0.7566 -0.2970
vn 0.5829 0.7563 -0.2969
vn 0.5829 0.7565 -0.2963
vn 0.5829 0.7564 -0.2967
vn 0.5828 0.7565 -0.2968
vn 0.5831 0.7562 -0.2968
vn 0.6462 0.7562 -0.1023
vn 0.6460 0.7564 -0.1021
vn 0.6463 0.7562 -0.1024
vn 0.6462 0.7564 -0.1014
vn 0.6458 0.7566 -0.1026
vn 0.6461 0.7563 -0.1025
vn 0.6459 0.7566 -0.1021
vn 0.6458 0.7566 -0.1023
vn 0.6463 0.7563 -0.1019
vn 0.6455 0.7568 -0.1029
vn 0.6462 0.7563 -0.1023
vn 0.6459 0.7566 -0.1020
vn 0.6461 0.7564 -0.1021
vn 0.6463 0.7562 -0.1023
vn 0.6457 0.7568 -0.1019
vn 0.6461 0.7565 -0.1019
vn 0.6456 0.7568 -0.1023
vn 0.6465 0.7560 -0.1026
vn 0.6463 0.7562 -0.1026
vn 0.6465 0.7561 -0.1020
vn 0.6461 0.7563 -0.1026
vn 0.6462 0.7563 -0.1024
vn 0.6459 0.7565 -0.1024
vn 0.6457 0.7567 -0.1025
vn 0.6460 0.7564 -0.1022
vn 0.6467 0.7558 -0.1023
vn 0.6459 0.7566 -0.1022
vn 0.6459 0.7566 -0.1019
vn 0.6462 0.7563 -0.1021
vn 0.6459 0.7566 -0.1023
vn 0.6463 0.7562 -0.1022
vn 0.6462 0.7562 -0.1024
vn 0.6452 0.7571 -0.1025
vn 0.6451 0.7572 -0.1021
vn 0.6454 0.7570 -0.1022
vn 0.6457 0.7566 -0.1027
vn 0.6466 0.7559 -0.1024
vn 0.6462 0.7563 -0.1026
vn 0.6459 0.7566 -0.1025
vn 0.6462 0.7562 -0.1026
vn 0.6455 0.7568 -0.1023
vn 0.6463 0.7562 -0.1025
vn 0.6456 0.7568 -0.1024
vn 0.6458 0.7566 -0.1022
vn 0.6460 0.7565 -0.1022
vn 0.6460 0.7563 -0.1039
vn 0.6461 0.7563 -0.1028
vn 0.7550 0.6448 -0.1196
vn 0.7550 0.6447 -0.1194
vn 0.7548 0.6448 -0.1204
vn 0.7549 0.6448 -0.1196
vn 0.7549 0.6448 -0.1197
vn 0.7549 0.6449 -0.1195
vn 0.7550 0.6446 -0.1207
vn 0.7548 0.6449 -0.1199
vn 0.7550 0.6448 -0.1191
vn 0.7549 0.6448 -0.1198
vn 0.7551 0.6446 -0.1195
vn 0.7548 0.6450 -0.1194
vn 0.7551 0.6447 -0.1186
vn 0.7549 0.6449 -0.1193
vn 0.7550 0.6448 -0.1195
vn 0.7542 0.6448 -0.1237
vn 0.7551 0.6445 -0.1203
vn 0.7548 0.6450 -0.1193
vn 0.7545 0.6453 -0.1196
vn 0.7550 0.6447 -0.1197
vn 0.7549 0.6447 -0.1202
vn 0.7549 0.6448 -0.1195
vn 0.7550 0.6448 -0.1197
vn 0.7545 0.6452 -0.1200
vn 0.7547 0.6451 -0.1198
vn 0.7550 0.6447 -0.1196
vn 0.7550 0.6448 -0.1188
vn 0.7549 0.6447 -0.1206
vn 0.7552 0.6445 -0.1193
vn 0.7546 0.6451 -0.1197
vn 0.7549 0.6449 -0.1194
vn 0.7543 0.6455 -0.1198
vn 0.7553 0.6444 -0.1197
vn 0.7552 0.6445 -0.1197
vn 0.7538 0.6459 -0.1209
vn 0.7545 0.6453 -0.1194
vn 0.7551 0.6447 -0.1196
vn 0.7548 0.6450 -0.1196
vn 0.7552 0.6444 -0.1198
vn 0.7544 0.6454 -0.1196
vn 0.7551 0.6446 -0.1197
vn 0.7549 0.6449 -0.1196
vn 0.7550 0.6447 -0.1198
vn 0.7549 0.6448 -0.1199
vn 0.7551 0.6447 -0.1193
vn 0.7547 0.6451 -0.1199
vn 0.7557 0.6439 -0.1196
vn 0.7550 0.6447 -0.1199
vn 0.7552 0.6443 -0.1205
vn 0.7548 0.6450 -0.1198
vn 0.7542 0.6456 -0.1199
vn 0.7553 0.6443 -0.1195
vn 0.7548 0.6449 -0.1196
vn 0.7552 0.6445 -0.1199
vn 0.7556 0.6440 -0.1202
vn 0.7555 0.6442 -0.1189
vn 0.7548 0.6449 -0.1202
vn 0.7550 0.6448 -0.1193
vn 0.7553 0.6445 -0.1192
vn 0.7544 0.6454 -0.1193
vn 0.7550 0.6448 -0.1194
vn 0.7552 0.6446 -0.1192
vn 0.7550 0.6447 -0.1195
vn 0.7548 0.6449 -0.1197
vn 0.7548 0.6450 -0.1195
vn 0.7550 0.6447 -0.1193
vn 0.7546 0.6452 -0.1195
vn 0.7549 0.6448 -0.1194
vn 0.7549 0.6447 -0.1207
vn 0.7553 0.6444 -0.1195
vn 0.7547 0.6452 -0.1188
vn 0.7551 0.6447 -0.1191
vn 0.7546 0.6452 -0.1193
vn 0.7553 0.6443 -0.1199
vn 0.7560 0.6435 -0.1198
vn 0.7548 0.6449 -0.1198
vn 0.7549 0.6448 -0.1201
vn 0.7551 0.6447 -0.1194
vn 0.7553 0.6444 -0.1196
vn 0.7546 0.6451 -0.1199
vn 0.7562 0.6434 -0.1192
vn 0.7562 0.6433 -0.1201
vn 0.7547 0.6451 -0.1196
vn 0.7537 0.6462 -0.1195
vn 0.7546 0.6453 -0.1193
vn 0.7555 0.6442 -0.1193
vn 0.7556 0.6444 -0.1173
vn 0.7550 0.6447 -0.1200
usemtl None
s off
f 104//1 98//1 97//1
f 32//2 31//2 1//2
f 122//3 121//3 125//3
f 72//4 71//4 145//4
f 154//4 152//4 55//4
f 245//5 222//5 246//5
f 1//6 6//6 112//6
f 1//7 112//7 111//7
f 132//8 5//8 139//8
f 5//7 1//7 94//7
f 135//9 134//9 136//9
f 134//10 133//10 137//10
f 133//11 132//11 138//11
f 5//12 94//12 139//12
f 138//13 132//13 139//13
f 1//14 111//14 110//14
f 109//15 108//15 1//15
f 108//16 107//16 1//16
f 1//17 110//17 109//17
f 134//18 137//18 136//18
f 138//19 137//19 133//19
f 1//20 107//20 106//20
f 1//21 106//21 105//21
f 104//22 103//22 98//22
f 103//23 102//23 98//23
f 1//16 105//16 94//16
f 102//24 101//24 99//24
f 98//25 102//25 99//25
f 105//26 104//26 97//26
f 94//4 105//4 96//4
f 94//7 141//7 140//7
f 140//14 139//14 94//14
f 101//27 100//27 99//27
f 96//28 105//28 97//28
f 95//29 93//29 94//29
f 96//30 95//30 94//30
f 7//31 54//31 48//31
f 54//32 53//32 51//32
f 49//33 54//33 50//33
f 53//34 52//34 51//34
f 51//35 50//35 54//35
f 8//36 6//36 9//36
f 6//37 1//37 10//37
f 10//38 9//38 6//38
f 54//39 49//39 48//39
f 11//40 10//40 1//40
f 14//41 13//41 1//41
f 13//42 12//42 1//42
f 12//43 11//43 1//43
f 7//44 48//44 47//44
f 7//45 47//45 33//45
f 47//46 46//46 33//46
f 15//47 14//47 1//47
f 44//48 43//48 40//48
f 43//49 42//49 41//49
f 40//50 43//50 41//50
f 39//31 38//31 34//31
f 38//51 37//51 35//51
f 38//52 35//52 34//52
f 37//53 36//53 35//53
f 44//54 40//54 45//54
f 40//55 39//55 33//55
f 45//31 40//31 33//31
f 46//56 45//56 33//56
f 16//57 15//57 24//57
f 15//31 1//31 29//31
f 19//58 18//58 21//58
f 18//43 17//43 22//43
f 19//40 21//40 20//40
f 22//59 21//59 18//59
f 23//31 22//31 17//31
f 26//60 25//60 27//60
f 25//61 24//61 27//61
f 24//62 23//62 16//62
f 23//61 17//61 16//61
f 29//63 28//63 24//63
f 28//40 27//40 24//40
f 15//37 29//37 24//37
f 39//64 34//64 33//64
f 30//65 29//65 1//65
f 7//66 33//66 32//66
f 31//67 30//67 1//67
f 1//31 7//31 32//31
f 3//68 4//68 131//68
f 130//69 129//69 126//69
f 129//70 128//70 126//70
f 3//12 131//12 130//12
f 114//71 113//71 116//71
f 113//7 3//7 118//7
f 116//72 115//72 114//72
f 118//7 117//7 116//7
f 121//73 120//73 125//73
f 120//74 119//74 125//74
f 119//14 118//14 3//14
f 118//12 116//12 113//12
f 3//14 130//14 126//14
f 128//75 127//75 126//75
f 125//76 124//76 122//76
f 124//77 123//77 122//77
f 3//7 126//7 119//7
f 126//78 125//78 119//78
f 93//15 92//15 91//15
f 93//79 91//79 94//79
f 91//80 90//80 94//80
f 141//81 94//81 144//81
f 144//70 94//70 72//70
f 143//73 142//73 141//73
f 144//16 143//16 141//16
f 90//82 89//82 94//82
f 89//83 88//83 83//83
f 88//84 87//84 83//84
f 87//85 86//85 83//85
f 86//86 85//86 83//86
f 85//87 84//87 83//87
f 89//88 83//88 82//88
f 72//89 94//89 81//89
f 145//90 144//90 72//90
f 89//91 82//91 94//91
f 82//92 81//92 94//92
f 149//93 148//93 150//93
f 148//94 147//94 150//94
f 66//89 150//89 147//89
f 67//95 65//95 66//95
f 69//96 68//96 67//96
f 69//15 67//15 66//15
f 66//97 147//97 146//97
f 70//4 69//4 145//4
f 69//14 66//14 146//14
f 69//7 146//7 145//7
f 80//98 79//98 74//98
f 79//70 78//70 74//70
f 77//7 76//7 75//7
f 78//99 77//99 74//99
f 74//100 77//100 75//100
f 74//88 73//88 72//88
f 81//101 80//101 74//101
f 81//7 74//7 72//7
f 71//25 70//25 145//25
f 150//102 66//102 151//102
f 66//103 65//103 61//103
f 65//104 64//104 61//104
f 64//105 63//105 61//105
f 63//106 62//106 61//106
f 60//107 59//107 57//107
f 59//97 58//97 57//97
f 61//108 60//108 57//108
f 66//28 61//28 57//28
f 151//109 66//109 56//109
f 56//110 66//110 57//110
f 55//75 160//75 155//75
f 160//111 159//111 156//111
f 160//89 156//89 155//89
f 159//112 158//112 156//112
f 151//74 56//74 152//74
f 56//109 55//109 152//109
f 154//113 153//113 152//113
f 158//114 157//114 156//114
f 155//81 154//81 55//81
f 4//115 3//115 316//115
f 316//116 315//116 313//116
f 315//117 314//117 313//117
f 317//115 4//115 312//115
f 4//118 316//118 313//118
f 318//119 317//119 285//119
f 4//120 313//120 312//120
f 319//118 318//118 277//118
f 317//118 312//118 305//118
f 305//118 312//118 306//118
f 312//118 311//118 307//118
f 311//121 310//121 307//121
f 320//119 319//119 270//119
f 317//115 305//115 285//115
f 285//118 305//118 304//118
f 310//122 309//122 308//122
f 307//119 310//119 308//119
f 307//123 306//123 312//123
f 321//124 320//124 259//124
f 318//125 285//125 284//125
f 318//115 284//115 277//115
f 285//126 304//126 286//126
f 5//127 323//127 322//127
f 304//128 303//128 299//128
f 296//129 304//129 298//129
f 5//130 322//130 321//130
f 2//115 1//115 169//115
f 1//115 5//115 321//115
f 2//124 169//124 162//124
f 162//131 161//131 2//131
f 165//132 164//132 166//132
f 164//118 163//118 166//118
f 162//133 169//133 163//133
f 1//118 321//118 246//118
f 169//119 1//119 170//119
f 167//125 166//125 163//125
f 168//134 167//134 163//134
f 303//118 302//118 300//118
f 302//135 301//135 300//135
f 300//136 299//136 303//136
f 299//137 298//137 304//137
f 298//138 297//138 296//138
f 169//139 168//139 163//139
f 170//129 1//129 189//129
f 304//140 296//140 286//140
f 189//118 1//118 190//118
f 173//141 172//141 174//141
f 172//142 171//142 174//142
f 171//143 170//143 188//143
f 296//144 295//144 291//144
f 286//145 296//145 287//145
f 295//146 294//146 292//146
f 294//147 293//147 292//147
f 292//119 291//119 295//119
f 291//148 290//148 287//148
f 290//149 289//149 288//149
f 287//150 290//150 288//150
f 170//119 189//119 188//119
f 175//129 174//129 171//129
f 291//151 287//151 296//151
f 180//119 179//119 182//119
f 179//152 178//152 183//152
f 182//153 179//153 183//153
f 182//154 181//154 180//154
f 186//155 185//155 184//155
f 184//126 183//126 186//126
f 183//118 178//118 177//118
f 183//129 177//129 186//129
f 187//156 186//156 177//156
f 187//140 177//140 176//140
f 188//120 187//120 175//120
f 187//157 176//157 175//157
f 319//158 277//158 276//158
f 188//118 175//118 171//118
f 319//129 276//129 270//129
f 284//159 283//159 277//159
f 277//146 283//146 278//146
f 283//134 282//134 278//134
f 282//115 281//115 279//115
f 278//160 282//160 279//160
f 281//161 280//161 279//161
f 190//162 1//162 191//162
f 191//118 1//118 203//118
f 203//119 1//119 204//119
f 194//163 193//163 192//163
f 276//164 275//164 272//164
f 275//165 274//165 272//165
f 274//166 273//166 272//166
f 272//126 271//126 276//126
f 320//145 270//145 269//145
f 194//120 192//120 195//120
f 192//167 191//167 196//167
f 196//168 195//168 192//168
f 276//169 271//169 270//169
f 197//170 196//170 191//170
f 200//171 199//171 198//171
f 201//172 200//172 203//172
f 200//119 198//119 203//119
f 203//118 202//118 201//118
f 203//173 198//173 197//173
f 203//118 197//118 191//118
f 320//115 269//115 259//115
f 269//174 268//174 259//174
f 204//175 1//175 205//175
f 268//157 267//157 259//157
f 267//176 266//176 265//176
f 265//115 264//115 261//115
f 264//134 263//134 262//134
f 261//177 264//177 262//177
f 261//178 260//178 265//178
f 267//129 265//129 260//129
f 321//115 259//115 258//115
f 205//118 1//118 211//118
f 207//179 206//179 208//179
f 206//140 205//140 208//140
f 267//180 260//180 259//180
f 210//118 209//118 205//118
f 209//181 208//181 205//181
f 213//182 212//182 214//182
f 212//120 211//120 215//120
f 214//183 212//183 215//183
f 211//177 210//177 205//177
f 321//158 258//158 257//158
f 321//175 257//175 255//175
f 215//184 211//184 216//184
f 216//115 211//115 1//115
f 321//119 255//119 246//119
f 257//185 256//185 255//185
f 246//186 255//186 254//186
f 218//187 217//187 216//187
f 220//188 219//188 218//188
f 221//189 220//189 218//189
f 218//118 216//118 1//118
f 1//115 246//115 222//115
f 254//190 253//190 247//190
f 246//191 254//191 247//191
f 221//118 218//118 1//118
f 222//129 221//129 1//129
f 252//192 251//192 249//192
f 251//128 250//128 249//128
f 225//179 224//179 223//179
f 226//193 225//193 223//193
f 226//194 223//194 227//194
f 223//195 222//195 227//195
f 253//190 252//190 248//190
f 252//175 249//175 248//175
f 227//145 222//145 245//145
f 227//118 245//118 236//118
f 230//196 229//196 231//196
f 229//197 228//197 232//197
f 231//198 229//198 232//198
f 233//155 232//155 228//155
f 235//177 234//177 228//177
f 234//156 233//156 228//156
f 238//143 237//143 239//143
f 237//129 236//129 239//129
f 236//199 235//199 227//199
f 235//200 228//200 227//200
f 240//123 239//123 243//123
f 239//118 236//118 244//118
f 242//201 241//201 240//201
f 243//202 242//202 240//202
f 239//140 244//140 243//140
f 244//179 236//179 245//179
f 253//144 248//144 247//144
