# Blender v2.81 (sub 16) OBJ File: ''
# www.blender.org
mtllib Botswana.mtl
o 0_Botswana_sphere.001
v 3.847108 -1.545086 -2.795083
v 3.604200 -2.269954 -2.618601
v 4.522546 -1.545086 -1.469460
v 4.236991 -2.269954 -1.376678
v 4.409162 -1.545086 -1.691989
v 4.399539 -1.545086 -1.710876
v 4.314527 -1.545086 -1.877721
v 4.311363 -1.545086 -1.883930
v 4.310203 -1.545086 -1.886207
v 4.232900 -1.545086 -2.037924
v 4.228551 -1.550114 -2.041928
v 4.226649 -1.552088 -2.043883
v 4.224524 -1.553606 -2.046684
v 4.222853 -1.555387 -2.048360
v 4.221290 -1.558328 -2.048777
v 4.218743 -1.564486 -2.048226
v 4.214939 -1.570806 -2.049997
v 4.206545 -1.579735 -2.058424
v 4.202985 -1.586366 -2.059435
v 4.202437 -1.588190 -2.058867
v 4.201916 -1.591351 -2.057040
v 4.201396 -1.593090 -2.056494
v 4.200480 -1.595140 -2.056446
v 4.199558 -1.596731 -2.056820
v 4.197315 -1.600097 -2.058190
v 4.194906 -1.603291 -2.060040
v 4.192589 -1.607010 -2.061236
v 4.180554 -1.628927 -2.065104
v 4.178403 -1.631975 -2.066579
v 4.176114 -1.633921 -2.069319
v 4.173965 -1.634860 -2.072690
v 4.171784 -1.634902 -2.076931
v 4.170582 -1.635908 -2.078385
v 4.169219 -1.637666 -2.079477
v 4.168474 -1.640157 -2.078693
v 4.168526 -1.641516 -2.077367
v 4.167330 -1.642599 -2.078738
v 4.165937 -1.643031 -2.081082
v 4.164674 -1.644001 -2.082688
v 4.162277 -1.647454 -2.084279
v 4.160966 -1.648907 -2.085543
v 4.160007 -1.649486 -2.086903
v 4.158154 -1.650196 -2.089900
v 4.157159 -1.650819 -2.091291
v 4.154737 -1.652952 -2.094122
v 4.153520 -1.654375 -2.095230
v 4.152585 -1.655979 -2.095620
v 4.151581 -1.657925 -2.095836
v 4.150589 -1.659093 -2.096730
v 4.149595 -1.659749 -2.098090
v 4.147398 -1.660789 -2.101465
v 4.146323 -1.661739 -2.102719
v 4.144631 -1.663965 -2.104032
v 4.143545 -1.665238 -2.105017
v 4.142590 -1.665963 -2.106238
v 4.141683 -1.666270 -2.107741
v 4.140723 -1.666278 -2.109619
v 4.139003 -1.666844 -2.112484
v 4.132724 -1.671531 -2.120583
v 4.131068 -1.672090 -2.123330
v 4.129745 -1.672035 -2.125977
v 4.128339 -1.672326 -2.128473
v 4.126435 -1.673845 -2.130840
v 4.124323 -1.676687 -2.132425
v 4.122987 -1.677786 -2.134056
v 4.122193 -1.677756 -2.135641
v 4.120736 -1.678088 -2.138203
v 4.119720 -1.678577 -2.139757
v 4.118655 -1.679502 -2.141013
v 4.117568 -1.681016 -2.141782
v 4.111563 -1.691712 -2.143929
v 4.107073 -1.701893 -2.143565
v 4.103086 -1.714401 -2.140119
v 4.102174 -1.712796 -2.143356
v 4.100912 -1.712438 -2.146155
v 4.096360 -1.712508 -2.155025
v 4.092824 -1.713382 -2.161178
v 4.090859 -1.712557 -2.165777
v 4.088965 -1.713903 -2.168280
v 4.087340 -1.713964 -2.171417
v 4.086399 -1.714579 -2.172709
v 4.085409 -1.715722 -2.173623
v 4.084554 -1.717234 -2.173937
v 4.083414 -1.720663 -2.173086
v 4.082765 -1.723738 -2.171587
v 4.081945 -1.726837 -2.170405
v 4.078403 -1.733765 -2.171113
v 4.077035 -1.737235 -2.170671
v 4.075051 -1.744286 -2.168211
v 4.074932 -1.745996 -2.166902
v 4.074496 -1.747944 -2.166004
v 4.073509 -1.750878 -2.165295
v 4.071081 -1.756643 -2.164867
v 4.070461 -1.758481 -2.164426
v 4.069259 -1.763093 -2.162629
v 4.068711 -1.764619 -2.162331
v 4.067777 -1.766268 -2.162677
v 4.064987 -1.770145 -2.164660
v 4.063893 -1.771477 -2.165604
v 4.059590 -1.775690 -2.170253
v 4.057307 -1.778688 -2.172033
v 4.055081 -1.782015 -2.173404
v 4.052351 -1.785581 -2.175547
v 4.051522 -1.786826 -2.176053
v 4.050706 -1.788868 -2.175814
v 4.049836 -1.790360 -2.176178
v 4.048668 -1.791800 -2.177171
v 4.045661 -1.796810 -2.178559
v 4.045109 -1.798400 -2.178211
v 4.044818 -1.800275 -2.177091
v 4.043921 -1.801126 -2.178084
v 4.043251 -1.803113 -2.177611
v 4.041971 -1.804184 -2.179156
v 4.040964 -1.805957 -2.179534
v 4.039569 -1.807840 -2.180575
v 4.037930 -1.809062 -2.182691
v 4.035515 -1.809399 -2.187127
v 4.032095 -1.810660 -2.192702
v 4.027287 -1.810904 -2.201919
v 4.025607 -1.811511 -2.204670
v 4.023606 -1.812672 -2.207550
v 4.019132 -1.816181 -2.213169
v 4.018125 -1.816602 -2.214768
v 4.017113 -1.815851 -2.217428
v 4.015976 -1.815162 -2.220280
v 4.015327 -1.814608 -2.222054
v 4.013810 -1.815327 -2.224384
v 4.012548 -1.815578 -2.226635
v 4.009417 -1.818507 -2.230140
v 4.007171 -1.819755 -2.233423
v 3.999357 -1.825465 -2.243614
v 3.997918 -1.826166 -2.245806
v 3.995404 -1.826529 -2.250413
v 3.994052 -1.827146 -2.252510
v 3.992999 -1.828133 -2.253687
v 3.991043 -1.829216 -2.256550
v 3.990007 -1.830290 -2.257616
v 3.989315 -1.831974 -2.257457
v 3.989058 -1.833998 -2.256137
v 3.988947 -1.836093 -2.254467
v 3.988713 -1.837941 -2.253261
v 3.987556 -1.841625 -2.252211
v 3.985913 -1.845344 -2.252085
v 3.983970 -1.848693 -2.252880
v 3.981833 -1.851351 -2.254678
v 3.979809 -1.852972 -2.257190
v 3.978167 -1.853548 -2.259894
v 3.974534 -1.853424 -2.267135
v 3.973498 -1.854708 -2.268012
v 3.972076 -1.857239 -2.268522
v 3.966617 -1.863523 -2.273573
v 4.333734 -1.859251 -1.556916
v 4.325511 -1.858390 -1.573831
v 4.317194 -1.857566 -1.590896
v 4.308825 -1.856766 -1.608042
v 4.300397 -1.855989 -1.625283
v 4.298332 -1.855794 -1.629511
v 4.299059 -1.852632 -1.630932
v 4.300404 -1.849134 -1.631446
v 4.302281 -1.844243 -1.632170
v 4.304159 -1.839351 -1.632893
v 4.306032 -1.834457 -1.633628
v 4.307918 -1.829552 -1.634345
v 4.309796 -1.824660 -1.635069
v 4.311668 -1.819766 -1.635804
v 4.313555 -1.814860 -1.636522
v 4.315415 -1.809976 -1.637273
v 4.317284 -1.805094 -1.638004
v 4.319157 -1.800199 -1.638739
v 4.321023 -1.795314 -1.639480
v 4.322896 -1.790419 -1.640215
v 4.324757 -1.785546 -1.640954
v 4.326622 -1.780660 -1.641696
v 4.328478 -1.775789 -1.642444
v 4.330338 -1.770900 -1.643197
v 4.334361 -1.760339 -1.644819
v 4.338394 -1.749761 -1.646436
v 4.342387 -1.739230 -1.648090
v 4.346402 -1.728676 -1.649720
v 4.350384 -1.718165 -1.651378
v 4.351179 -1.716082 -1.651695
v 4.354366 -1.707653 -1.653035
v 4.358349 -1.697156 -1.654678
v 4.362309 -1.686681 -1.656345
v 4.366242 -1.676226 -1.658047
v 4.370173 -1.665798 -1.659730
v 4.374116 -1.655365 -1.661393
v 4.378017 -1.644983 -1.663093
v 4.381930 -1.634580 -1.664788
v 4.385825 -1.624220 -1.666481
v 4.388269 -1.617704 -1.667554
v 4.389693 -1.613895 -1.668193
v 4.393554 -1.603576 -1.669914
v 4.394811 -1.600214 -1.670477
v 4.396068 -1.596851 -1.671041
v 4.397321 -1.593500 -1.671601
v 4.398571 -1.590145 -1.672172
v 4.399827 -1.586782 -1.672736
v 4.401061 -1.583444 -1.673322
v 4.402311 -1.580088 -1.673894
v 4.403548 -1.576754 -1.674470
v 4.404798 -1.573398 -1.675041
v 4.406032 -1.570076 -1.675613
v 4.407259 -1.566760 -1.676193
v 4.408513 -1.563408 -1.676753
v 4.409759 -1.560046 -1.677336
v 4.410990 -1.556735 -1.677905
v 4.412234 -1.553400 -1.678469
v 4.413465 -1.550088 -1.679038
v 4.414320 -1.547771 -1.679447
v 4.413682 -1.547601 -1.680853
v 4.412632 -1.547316 -1.683170
v 4.410686 -1.546801 -1.687453
v 4.313442 -1.547143 -1.877996
v 4.311956 -1.547860 -1.880266
v 4.310946 -1.546763 -1.883240
v 4.261067 -1.477849 -2.017761
v 4.260966 -1.486141 -2.013629
v 4.260406 -1.488824 -2.013327
v 4.259637 -1.491121 -2.013635
v 4.257098 -1.497652 -2.015208
v 4.254081 -1.504015 -2.017806
v 4.252434 -1.506645 -2.019663
v 4.250680 -1.508416 -2.022180
v 4.249007 -1.510584 -2.024332
v 4.247416 -1.514069 -2.025635
v 4.244603 -1.521346 -2.027355
v 4.242305 -1.526093 -2.029386
v 4.241585 -1.527986 -2.029810
v 4.240370 -1.531978 -2.030109
v 4.238988 -1.535151 -2.031164
v 4.235034 -1.541376 -2.035674
v 4.398162 -1.543292 -1.714515
v 4.397491 -1.543082 -1.715942
v 4.396815 -1.542898 -1.717365
v 4.395695 -1.542094 -1.719982
v 4.394575 -1.541289 -1.722601
v 4.391806 -1.539293 -1.729079
v 4.389038 -1.537287 -1.735558
v 4.386247 -1.535307 -1.742071
v 4.383447 -1.533319 -1.748605
v 4.380641 -1.531341 -1.755145
v 4.377835 -1.529366 -1.761683
v 4.375022 -1.527382 -1.768241
v 4.372193 -1.525396 -1.774830
v 4.369335 -1.523471 -1.781444
v 4.366487 -1.521521 -1.788052
v 4.363626 -1.519557 -1.794693
v 4.360766 -1.517626 -1.801315
v 4.357881 -1.515692 -1.807986
v 4.355011 -1.513738 -1.814641
v 4.352114 -1.511824 -1.821327
v 4.349213 -1.509906 -1.828022
v 4.346204 -1.507943 -1.834953
v 4.341854 -1.506416 -1.844286
v 4.338676 -1.505325 -1.851094
v 4.336138 -1.504419 -1.856548
v 4.334626 -1.504408 -1.859522
v 4.333674 -1.505346 -1.860900
v 4.333206 -1.507236 -1.860831
v 4.332300 -1.508110 -1.862153
v 4.331651 -1.510659 -1.862094
v 4.330490 -1.513153 -1.863072
v 4.329508 -1.515453 -1.863796
v 4.327626 -1.518536 -1.865881
v 4.326741 -1.521647 -1.865991
v 4.325898 -1.522625 -1.867137
v 4.325347 -1.521691 -1.868704
v 4.324521 -1.522766 -1.869766
v 4.323597 -1.524316 -1.870769
v 4.322588 -1.525473 -1.872145
v 4.321526 -1.526002 -1.873954
v 4.320669 -1.528126 -1.874526
v 4.319681 -1.529685 -1.875651
v 4.319675 -1.531234 -1.874852
v 4.317692 -1.534306 -1.877140
v 4.316892 -1.536259 -1.877690
v 4.317012 -1.538280 -1.876399
v 4.309798 -1.543150 -1.888013
v 4.307764 -1.532698 -1.897466
v 4.307017 -1.531094 -1.899768
v 4.306840 -1.528600 -1.901418
v 4.305840 -1.525591 -1.904953
v 4.305519 -1.524150 -1.906335
v 4.306117 -1.520866 -1.906877
v 4.305242 -1.518504 -1.909829
v 4.304316 -1.519004 -1.911385
v 4.303923 -1.516993 -1.913206
v 4.303044 -1.515774 -1.915569
v 4.302280 -1.512533 -1.918760
v 4.300735 -1.511409 -1.922379
v 4.299911 -1.509043 -1.925233
v 4.299170 -1.503549 -1.929556
v 4.298119 -1.501844 -1.932510
v 4.297394 -1.501496 -1.934115
v 4.296512 -1.501679 -1.935750
v 4.295153 -1.502702 -1.937882
v 4.294521 -1.502182 -1.939394
v 4.294398 -1.497501 -1.942080
v 4.294066 -1.495973 -1.943530
v 4.292206 -1.495437 -1.947460
v 4.291245 -1.495749 -1.949185
v 4.289203 -1.499729 -1.951113
v 4.288138 -1.501152 -1.952460
v 4.285766 -1.505406 -1.954894
v 4.283595 -1.504493 -1.959631
v 4.283002 -1.502080 -1.962055
v 4.282080 -1.495623 -1.967237
v 4.281739 -1.494364 -1.968564
v 4.280804 -1.492247 -1.971505
v 4.280415 -1.489002 -1.973963
v 4.279790 -1.487829 -1.975802
v 4.279174 -1.487360 -1.977257
v 4.279039 -1.485645 -1.978416
v 4.278306 -1.485180 -1.980100
v 4.277750 -1.483320 -1.982162
v 4.277148 -1.482863 -1.983581
v 4.276409 -1.482666 -1.985134
v 4.273927 -1.480260 -1.991263
v 4.273574 -1.478560 -1.992844
v 4.272482 -1.479890 -1.994292
v 4.271642 -1.481055 -1.995332
v 4.270576 -1.481509 -1.997186
v 4.269331 -1.479618 -2.000619
v 4.268532 -1.481570 -2.001167
v 4.267317 -1.481386 -2.003647
v 4.266271 -1.480022 -2.006413
v 4.265571 -1.476938 -2.009397
v 4.263947 -1.476885 -2.012613
vn 0.8246 -0.3787 -0.4203
vn 0.8671 -0.2301 -0.4418
vn 0.8671 -0.2312 -0.4412
vn 0.8247 -0.3787 -0.4202
vn 0.8246 -0.3789 -0.4201
vn 0.8247 -0.3785 -0.4203
vn 0.8247 -0.3786 -0.4202
vn 0.8245 -0.3789 -0.4202
vn 0.8246 -0.3787 -0.4202
vn 0.8247 -0.3784 -0.4202
vn 0.8248 -0.3784 -0.4202
vn 0.8247 -0.3785 -0.4202
vn 0.8246 -0.3788 -0.4202
vn 0.8247 -0.3787 -0.4201
vn 0.8245 -0.3791 -0.4202
vn 0.8248 -0.3789 -0.4197
vn 0.8247 -0.3787 -0.4200
vn 0.8247 -0.3786 -0.4201
vn 0.8247 -0.3783 -0.4204
vn 0.8246 -0.3791 -0.4199
vn 0.8246 -0.3787 -0.4201
vn 0.8248 -0.3783 -0.4202
vn 0.8246 -0.3785 -0.4204
vn 0.8246 -0.3790 -0.4199
vn 0.8249 -0.3781 -0.4201
vn 0.8250 -0.3777 -0.4204
vn 0.8248 -0.3783 -0.4203
vn 0.8246 -0.3786 -0.4202
vn 0.8244 -0.3793 -0.4200
vn 0.8246 -0.3786 -0.4203
vn 0.8245 -0.3791 -0.4201
vn 0.8239 -0.3805 -0.4201
vn 0.8249 -0.3781 -0.4203
vn 0.8245 -0.3788 -0.4203
vn 0.8249 -0.3785 -0.4199
vn 0.8241 -0.3789 -0.4211
vn 0.8250 -0.3787 -0.4196
vn 0.8246 -0.3789 -0.4200
vn 0.8238 -0.3788 -0.4217
vn 0.8246 -0.3785 -0.4203
vn 0.8248 -0.3785 -0.4201
vn 0.8244 -0.3788 -0.4206
vn 0.8251 -0.3788 -0.4192
vn 0.8250 -0.3783 -0.4198
vn 0.8247 -0.3789 -0.4199
vn 0.8246 -0.3789 -0.4202
vn 0.8246 -0.3780 -0.4209
vn 0.8247 -0.3788 -0.4201
vn 0.8250 -0.3769 -0.4212
vn 0.8245 -0.3787 -0.4204
vn 0.8248 -0.3784 -0.4201
vn 0.8247 -0.3788 -0.4200
vn 0.8246 -0.3793 -0.4198
vn 0.8247 -0.3786 -0.4200
vn 0.8242 -0.3796 -0.4202
vn 0.8249 -0.3783 -0.4200
vn 0.8247 -0.3783 -0.4205
vn 0.8249 -0.3784 -0.4200
vn 0.8246 -0.3788 -0.4201
vn 0.8246 -0.3792 -0.4198
vn 0.8250 -0.3778 -0.4202
vn 0.8245 -0.3790 -0.4201
vn 0.8247 -0.3786 -0.4203
vn 0.8249 -0.3785 -0.4200
vn 0.8246 -0.3781 -0.4209
vn 0.8234 -0.3835 -0.4183
vn 0.8241 -0.3800 -0.4199
vn 0.8250 -0.3784 -0.4198
vn 0.8259 -0.3756 -0.4206
vn 0.8250 -0.3778 -0.4203
vn 0.8245 -0.3786 -0.4204
vn 0.8244 -0.3796 -0.4198
vn 0.8670 -0.2308 -0.4417
vn 0.8661 -0.2324 -0.4425
vn 0.8670 -0.2307 -0.4418
vn 0.8670 -0.2307 -0.4417
vn 0.8671 -0.2300 -0.4419
vn 0.8673 -0.2304 -0.4413
vn 0.8669 -0.2308 -0.4417
vn 0.8669 -0.2305 -0.4421
vn 0.8669 -0.2307 -0.4418
vn 0.8669 -0.2308 -0.4418
vn 0.8670 -0.2305 -0.4417
vn 0.8671 -0.2305 -0.4417
vn 0.8669 -0.2314 -0.4416
vn 0.8669 -0.2312 -0.4417
vn 0.8670 -0.2309 -0.4417
vn 0.8669 -0.2315 -0.4416
vn 0.8669 -0.2311 -0.4417
vn 0.8672 -0.2303 -0.4416
vn 0.8670 -0.2309 -0.4415
vn 0.8670 -0.2306 -0.4418
vn 0.8671 -0.2308 -0.4415
vn 0.8670 -0.2303 -0.4418
vn 0.8667 -0.2315 -0.4418
vn 0.8669 -0.2310 -0.4417
vn 0.8670 -0.2305 -0.4418
vn 0.8669 -0.2307 -0.4419
vn 0.8671 -0.2306 -0.4416
vn 0.8669 -0.2309 -0.4417
vn 0.8671 -0.2310 -0.4414
vn 0.8671 -0.2303 -0.4418
vn 0.8670 -0.2310 -0.4416
vn 0.8669 -0.2309 -0.4418
vn 0.8670 -0.2305 -0.4419
vn 0.8670 -0.2304 -0.4418
vn 0.8661 -0.2336 -0.4420
vn 0.8670 -0.2306 -0.4417
vn 0.8674 -0.2298 -0.4414
vn 0.8669 -0.2315 -0.4415
vn 0.8670 -0.2297 -0.4422
vn 0.8670 -0.2309 -0.4416
vn 0.8669 -0.2306 -0.4419
vn 0.8671 -0.2306 -0.4415
vn 0.8671 -0.2298 -0.4421
vn 0.8668 -0.2316 -0.4417
vn 0.8675 -0.2288 -0.4417
vn 0.8666 -0.2323 -0.4415
vn 0.8669 -0.2307 -0.4420
vn 0.8671 -0.2304 -0.4416
vn 0.8673 -0.2294 -0.4418
vn 0.8668 -0.2315 -0.4417
usemtl None
s off
f 45//1 44//1 48//1
f 315//2 314//2 313//2
f 266//3 278//3 267//3
f 2//4 1//4 151//4
f 150//5 149//5 147//5
f 149//6 148//6 147//6
f 4//4 2//4 151//4
f 4//4 151//4 146//4
f 151//7 150//7 147//7
f 146//8 151//8 147//8
f 152//4 3//4 4//4
f 154//7 153//7 4//7
f 153//4 152//4 4//4
f 156//9 155//9 4//9
f 155//4 154//4 4//4
f 4//10 146//10 145//10
f 157//4 4//4 115//4
f 157//11 156//11 4//11
f 160//12 159//12 29//12
f 159//9 158//9 29//9
f 112//9 157//9 115//9
f 161//13 160//13 29//13
f 157//7 112//7 97//7
f 158//12 157//12 97//12
f 4//4 145//4 116//4
f 4//7 116//7 115//7
f 162//7 161//7 29//7
f 164//9 163//9 29//9
f 163//7 162//7 29//7
f 36//7 158//7 41//7
f 167//7 166//7 29//7
f 166//7 165//7 29//7
f 165//4 164//4 29//4
f 158//4 36//4 29//4
f 158//7 97//7 73//7
f 145//1 144//1 118//1
f 116//14 145//14 118//14
f 169//7 168//7 29//7
f 168//4 167//4 29//4
f 172//13 171//13 29//13
f 171//7 170//7 29//7
f 170//4 169//4 29//4
f 158//4 73//4 49//4
f 144//9 143//9 123//9
f 174//1 173//1 215//1
f 173//7 172//7 215//7
f 175//14 174//14 215//14
f 143//11 142//11 131//11
f 144//7 122//7 118//7
f 176//4 175//4 215//4
f 178//7 177//7 215//7
f 177//4 176//4 215//4
f 180//7 179//7 215//7
f 179//9 178//9 215//9
f 215//4 172//4 29//4
f 182//7 181//7 215//7
f 181//15 180//15 215//15
f 184//7 183//7 214//7
f 183//7 182//7 214//7
f 185//4 184//4 214//4
f 122//16 144//16 123//16
f 142//7 141//7 132//7
f 140//9 139//9 135//9
f 139//17 138//17 136//17
f 141//13 140//13 133//13
f 123//7 143//7 129//7
f 186//7 185//7 214//7
f 188//9 187//9 214//9
f 187//9 186//9 214//9
f 190//7 189//7 214//7
f 189//7 188//7 214//7
f 192//14 191//14 6//14
f 191//7 190//7 6//7
f 194//13 193//13 6//13
f 193//9 192//9 6//9
f 197//12 196//12 6//12
f 196//9 195//9 6//9
f 195//18 194//18 6//18
f 6//4 190//4 214//4
f 139//9 136//9 135//9
f 138//19 137//19 136//19
f 135//20 134//20 133//20
f 135//12 133//12 140//12
f 133//9 132//9 141//9
f 199//21 198//21 6//21
f 198//9 197//9 6//9
f 131//9 130//9 143//9
f 130//5 129//5 143//5
f 132//13 131//13 142//13
f 201//8 200//8 6//8
f 200//7 199//7 6//7
f 203//9 202//9 6//9
f 202//22 201//22 6//22
f 206//14 205//14 5//14
f 205//23 204//23 5//23
f 206//12 5//12 213//12
f 204//11 203//11 6//11
f 129//24 128//24 127//24
f 127//25 126//25 125//25
f 125//26 124//26 127//26
f 124//27 123//27 129//27
f 127//8 124//8 129//8
f 122//28 121//28 118//28
f 121//29 120//29 119//29
f 121//12 119//12 118//12
f 118//11 117//11 116//11
f 207//1 206//1 213//1
f 209//13 208//13 212//13
f 208//12 207//12 213//12
f 212//9 208//9 213//9
f 211//1 210//1 209//1
f 212//6 211//6 209//6
f 6//9 5//9 204//9
f 214//4 7//4 6//4
f 215//9 214//9 182//9
f 9//9 8//9 216//9
f 10//7 9//7 17//7
f 9//30 216//30 24//30
f 17//7 9//7 23//7
f 216//7 215//7 28//7
f 24//4 216//4 28//4
f 10//31 17//31 16//31
f 11//12 10//12 16//12
f 115//32 114//32 112//32
f 114//33 113//33 112//33
f 112//34 111//34 110//34
f 110//35 109//35 108//35
f 108//17 107//17 110//17
f 107//18 106//18 110//18
f 105//36 104//36 103//36
f 105//1 103//1 102//1
f 110//37 106//37 105//37
f 110//18 105//18 99//18
f 105//38 102//38 99//38
f 112//22 110//22 98//22
f 98//39 110//39 99//39
f 12//13 11//13 16//13
f 23//18 9//18 24//18
f 14//14 13//14 15//14
f 13//7 12//7 15//7
f 16//9 15//9 12//9
f 19//13 18//13 20//13
f 18//4 17//4 21//4
f 20//7 18//7 21//7
f 102//40 101//40 99//40
f 101//41 100//41 99//41
f 17//42 23//42 22//42
f 22//7 21//7 17//7
f 112//43 98//43 97//43
f 97//44 96//44 73//44
f 24//45 28//45 25//45
f 27//6 26//6 25//6
f 28//12 215//12 29//12
f 41//4 158//4 49//4
f 96//46 95//46 73//46
f 95//47 94//47 93//47
f 95//5 93//5 92//5
f 27//48 25//48 28//48
f 95//7 92//7 73//7
f 92//14 91//14 73//14
f 30//49 29//49 36//49
f 91//9 90//9 73//9
f 90//50 89//50 88//50
f 88//51 87//51 90//51
f 87//9 86//9 90//9
f 85//7 84//7 79//7
f 84//7 83//7 80//7
f 79//52 84//52 80//52
f 86//7 85//7 77//7
f 83//53 82//53 81//53
f 81//1 80//1 83//1
f 79//13 78//13 77//13
f 77//13 76//13 86//13
f 76//11 75//11 73//11
f 86//7 76//7 90//7
f 75//22 74//22 73//22
f 73//28 72//28 64//28
f 72//14 71//14 65//14
f 64//54 72//54 65//54
f 71//12 70//12 65//12
f 70//55 69//55 68//55
f 65//8 70//8 66//8
f 68//56 67//56 70//56
f 67//34 66//34 70//34
f 64//57 63//57 61//57
f 63//58 62//58 61//58
f 64//13 61//13 60//13
f 76//4 73//4 90//4
f 64//20 60//20 59//20
f 59//59 58//59 56//59
f 58//60 57//60 56//60
f 73//7 64//7 59//7
f 79//9 77//9 85//9
f 73//4 59//4 55//4
f 59//61 56//61 55//61
f 31//62 30//62 36//62
f 33//30 32//30 36//30
f 32//63 31//63 36//63
f 35//17 34//17 33//17
f 36//64 35//64 33//64
f 49//13 73//13 54//13
f 73//65 55//65 54//65
f 39//31 38//31 40//31
f 38//34 37//34 40//34
f 37//66 36//66 41//66
f 49//67 54//67 50//67
f 53//68 52//68 51//68
f 54//31 53//31 50//31
f 40//69 37//69 41//69
f 53//30 51//30 50//30
f 44//11 43//11 48//11
f 43//9 42//9 48//9
f 42//70 41//70 48//70
f 48//22 41//22 49//22
f 48//71 47//71 45//71
f 47//72 46//72 45//72
f 9//73 10//73 279//73
f 10//74 232//74 231//74
f 10//75 231//75 305//75
f 279//76 10//76 305//76
f 281//77 280//77 279//77
f 230//78 229//78 228//78
f 231//76 230//76 306//76
f 279//79 305//79 281//79
f 283//80 282//80 281//80
f 305//81 231//81 306//81
f 230//82 228//82 227//82
f 227//83 226//83 223//83
f 226//84 225//84 224//84
f 223//85 226//85 224//85
f 230//73 227//73 306//73
f 284//86 283//86 305//86
f 283//87 281//87 305//87
f 286//81 285//81 287//81
f 285//82 284//82 287//82
f 289//88 288//88 287//88
f 227//76 223//76 306//76
f 223//89 222//89 306//89
f 289//90 287//90 284//90
f 291//91 290//91 289//91
f 294//82 293//82 297//82
f 293//92 292//92 297//92
f 294//89 297//89 296//89
f 291//76 289//76 305//76
f 289//75 284//75 305//75
f 295//93 294//93 296//93
f 292//94 291//94 305//94
f 300//95 299//95 301//95
f 299//76 298//76 303//76
f 301//76 299//76 303//76
f 298//92 297//92 305//92
f 297//96 292//96 305//96
f 218//75 217//75 329//75
f 329//97 328//97 327//97
f 218//76 329//76 327//76
f 219//76 218//76 326//76
f 218//76 327//76 326//76
f 220//98 219//98 326//98
f 325//96 324//96 323//96
f 220//99 326//99 325//99
f 221//100 220//100 325//100
f 221//76 325//76 323//76
f 303//101 302//101 301//101
f 305//102 304//102 298//102
f 304//89 303//89 298//89
f 222//76 221//76 310//76
f 221//92 323//92 313//92
f 313//103 318//103 315//103
f 322//89 321//89 319//89
f 321//104 320//104 319//104
f 318//89 313//89 323//89
f 323//105 322//105 318//105
f 322//106 319//106 318//106
f 307//97 306//97 222//97
f 309//107 308//107 310//107
f 308//108 307//108 310//108
f 312//109 311//109 313//109
f 311//89 310//89 313//89
f 307//76 222//76 310//76
f 318//110 317//110 315//110
f 317//111 316//111 315//111
f 313//100 310//100 221//100
f 6//108 7//108 236//108
f 7//112 278//112 266//112
f 278//113 277//113 276//113
f 275//114 274//114 273//114
f 278//105 276//105 275//105
f 233//115 6//115 234//115
f 236//116 7//116 237//116
f 235//117 6//117 236//117
f 235//118 234//118 6//118
f 240//97 239//97 7//97
f 239//104 238//104 7//104
f 238//76 237//76 7//76
f 242//75 241//75 7//75
f 241//79 240//79 7//79
f 245//82 244//82 7//82
f 244//76 243//76 7//76
f 243//76 242//76 7//76
f 246//100 245//100 7//100
f 246//106 7//106 247//106
f 249//73 248//73 7//73
f 248//79 247//79 7//79
f 249//92 7//92 250//92
f 275//119 273//119 271//119
f 273//120 272//120 271//120
f 278//81 275//81 267//81
f 250//73 7//73 251//73
f 252//76 251//76 7//76
f 252//75 7//75 266//75
f 254//73 253//73 266//73
f 253//100 252//100 266//100
f 256//87 255//87 264//87
f 255//75 254//75 266//75
f 258//73 257//73 260//73
f 257//75 256//75 262//75
f 260//98 257//98 262//98
f 260//104 259//104 258//104
f 262//73 261//73 260//73
f 264//97 263//97 256//97
f 263//92 262//92 256//92
f 266//101 265//101 264//101
f 269//121 268//121 267//121
f 266//76 264//76 255//76
f 270//122 269//122 267//122
f 271//99 270//99 275//99
f 270//73 267//73 275//73
