# Blender v2.81 (sub 16) OBJ File: ''
# www.blender.org
mtllib British Indian Ocean Territory.mtl
o 0_British_Indian_Ocean_Territory_sphere.001
v 1.496039 -0.638713 -4.727433
v 1.496249 -0.646327 -4.726298
v 1.495398 -0.645527 -4.726672
v 1.493432 -0.642612 -4.727686
v 1.493108 -0.642183 -4.727847
v 1.492838 -0.641956 -4.727962
v 1.492601 -0.641621 -4.728082
v 1.492408 -0.640892 -4.728243
v 1.492142 -0.641395 -4.728254
v 1.491996 -0.641898 -4.728229
v 1.492013 -0.642489 -4.728140
v 1.492282 -0.643211 -4.727956
v 1.492931 -0.644057 -4.727637
v 1.495289 -0.646293 -4.726598
v 1.496225 -0.646940 -4.726219
v 1.496836 -0.644409 -4.726387
v 1.496536 -0.639295 -4.727198
v 1.497207 -0.637169 -4.727290
v 1.497790 -0.636670 -4.727181
v 1.499775 -0.635567 -4.726725
v 1.500503 -0.635361 -4.726530
v 1.501283 -0.634857 -4.726361
v 1.503210 -0.632341 -4.726122
v 1.502080 -0.632500 -4.726447
v 1.497776 -0.635474 -4.727353
v 1.496648 -0.636558 -4.727548
vn 0.2913 -0.1338 -0.9472
vn 0.2918 -0.1327 -0.9472
vn 0.2872 -0.1332 -0.9486
vn 0.2916 -0.1331 -0.9472
vn 0.2911 -0.1331 -0.9474
vn 0.2912 -0.1332 -0.9473
vn 0.2911 -0.1332 -0.9474
vn 0.2918 -0.1331 -0.9472
vn 0.2875 -0.1337 -0.9484
vn 0.2920 -0.1334 -0.9471
vn 0.2912 -0.1338 -0.9473
vn 0.2916 -0.1337 -0.9472
vn 0.2909 -0.1333 -0.9474
vn 0.2932 -0.1332 -0.9467
vn 0.2921 -0.1332 -0.9471
vn 0.2907 -0.1330 -0.9475
vn 0.2912 -0.1331 -0.9474
vn 0.2927 -0.1331 -0.9469
vn 0.2917 -0.1330 -0.9472
vn 0.2921 -0.1330 -0.9471
usemtl None
s off
f 26//1 19//1 18//1
f 10//2 9//2 7//2
f 9//3 8//3 7//3
f 12//4 11//4 5//4
f 11//5 10//5 6//5
f 14//6 13//6 3//6
f 13//7 12//7 4//7
f 3//6 13//6 4//6
f 17//8 16//8 1//8
f 16//9 15//9 2//9
f 15//10 14//10 2//10
f 11//11 6//11 5//11
f 10//12 7//12 6//12
f 5//4 4//4 12//4
f 22//13 21//13 24//13
f 21//14 20//14 24//14
f 24//15 23//15 22//15
f 26//16 25//16 19//16
f 25//5 24//5 20//5
f 14//17 3//17 2//17
f 16//18 2//18 1//18
f 25//19 20//19 19//19
f 18//20 17//20 1//20
f 18//20 1//20 26//20
o 1_British_Indian_Ocean_Territory_sphere.001
v 1.492997 -0.640009 -4.728186
v 1.492650 -0.640829 -4.728178
v 1.493018 -0.640345 -4.728132
v 1.493431 -0.639658 -4.728102
v 1.493670 -0.638912 -4.728133
v 1.493467 -0.638247 -4.728289
v 1.492225 -0.635489 -4.729059
v 1.493109 -0.633340 -4.729089
v 1.494940 -0.631265 -4.728817
v 1.496498 -0.628742 -4.728693
v 1.495556 -0.629397 -4.728890
v 1.492510 -0.633325 -4.729275
v 1.491551 -0.634927 -4.729345
v 1.491933 -0.636152 -4.729055
v 1.492764 -0.637350 -4.728631
v 1.493177 -0.638861 -4.728292
v 1.493110 -0.639483 -4.728226
vn 0.2926 -0.1327 -0.9470
vn 0.2908 -0.1331 -0.9475
vn 0.2918 -0.1331 -0.9472
vn 0.2904 -0.1333 -0.9476
vn 0.2891 -0.1331 -0.9480
vn 0.2925 -0.1332 -0.9469
vn 0.2905 -0.1333 -0.9476
vn 0.2931 -0.1330 -0.9468
vn 0.2906 -0.1335 -0.9475
vn 0.2911 -0.1332 -0.9474
vn 0.2901 -0.1333 -0.9477
vn 0.2905 -0.1331 -0.9476
vn 0.2920 -0.1332 -0.9471
vn 0.2908 -0.1334 -0.9474
vn 0.2922 -0.1332 -0.9470
usemtl None
s off
f 43//21 42//21 31//21
f 39//22 38//22 33//22
f 38//23 37//23 35//23
f 34//24 38//24 35//24
f 37//25 36//25 35//25
f 41//26 40//26 33//26
f 40//27 39//27 33//27
f 38//28 34//28 33//28
f 33//29 32//29 41//29
f 32//30 31//30 42//30
f 41//31 32//31 42//31
f 31//32 30//32 43//32
f 30//33 29//33 27//33
f 43//34 30//34 27//34
f 29//35 28//35 27//35
o 2_British_Indian_Ocean_Territory_sphere.001
v 1.586928 -0.579185 -4.705227
v 1.587503 -0.579495 -4.704992
v 1.587805 -0.579436 -4.704895
v 1.587932 -0.579236 -4.704877
v 1.587935 -0.579148 -4.704887
vn 0.3214 -0.1190 -0.9394
vn 0.3219 -0.1164 -0.9396
vn 0.3302 -0.1177 -0.9365
usemtl None
s off
f 45//36 48//36 46//36
f 44//37 48//37 45//37
f 48//38 47//38 46//38
o 3_British_Indian_Ocean_Territory_sphere.001
v 1.595801 -0.556076 -4.705080
v 1.596085 -0.556318 -4.704952
v 1.596156 -0.555362 -4.705048
v 1.596052 -0.554995 -4.705129
v 1.595641 -0.554642 -4.705314
v 1.595487 -0.555370 -4.705276
v 1.595576 -0.555789 -4.705193
vn 0.3233 -0.1172 -0.9390
vn 0.3212 -0.1175 -0.9397
vn 0.3202 -0.1172 -0.9401
vn 0.3217 -0.1178 -0.9395
vn 0.3199 -0.1173 -0.9402
usemtl None
s off
f 55//39 54//39 51//39
f 54//40 53//40 52//40
f 52//41 51//41 54//41
f 51//42 50//42 49//42
f 55//43 51//43 49//43
o 4_British_Indian_Ocean_Territory_sphere.001
v 1.589284 -0.539987 -4.709177
v 1.589813 -0.540399 -4.708952
v 1.590383 -0.539590 -4.708845
v 1.590072 -0.538883 -4.709027
v 1.589686 -0.538353 -4.709217
v 1.589161 -0.538007 -4.709435
v 1.588545 -0.537912 -4.709656
v 1.588838 -0.538943 -4.709443
vn 0.3225 -0.1019 -0.9411
vn 0.3221 -0.1025 -0.9412
vn 0.3223 -0.1025 -0.9411
vn 0.3224 -0.1021 -0.9411
vn 0.3223 -0.1018 -0.9411
vn 0.3208 -0.1018 -0.9417
usemtl None
s off
f 56//44 63//44 59//44
f 62//45 61//45 63//45
f 61//46 60//46 63//46
f 60//47 59//47 63//47
f 59//48 58//48 56//48
f 58//49 57//49 56//49
o 5_British_Indian_Ocean_Territory_sphere.001
v 1.556676 -0.473825 -4.727506
v 1.556751 -0.474012 -4.727460
v 1.557486 -0.473449 -4.727269
v 1.557683 -0.473262 -4.727222
v 1.556894 -0.473407 -4.727476
v 1.556648 -0.473616 -4.727538
vn 0.3210 -0.1007 -0.9417
vn 0.3157 -0.1018 -0.9434
vn 0.3226 -0.1039 -0.9408
vn 0.3217 -0.1012 -0.9414
usemtl None
s off
f 65//50 64//50 68//50
f 69//51 68//51 64//51
f 68//52 67//52 66//52
f 65//53 68//53 66//53
o 6_British_Indian_Ocean_Territory_sphere.001
v 1.519889 -0.464240 -4.740390
v 1.520013 -0.464248 -4.740351
v 1.519225 -0.463488 -4.740662
v 1.519440 -0.463980 -4.740551
v 1.519683 -0.464197 -4.740457
vn 0.2918 -0.0867 -0.9525
vn 0.2919 -0.0863 -0.9525
vn 0.2910 -0.0900 -0.9525
usemtl None
s off
f 70//54 74//54 73//54
f 72//55 71//55 73//55
f 71//56 70//56 73//56
o 7_British_Indian_Ocean_Territory_sphere.001
v 1.559965 -0.460524 -4.727652
v 1.560121 -0.460553 -4.727596
v 1.559315 -0.459190 -4.727996
v 1.559431 -0.459973 -4.727885
v 1.559681 -0.460364 -4.727764
vn 0.3205 -0.0836 -0.9436
vn 0.3220 -0.0868 -0.9428
vn 0.3276 -0.0850 -0.9410
usemtl None
s off
f 75//57 79//57 78//57
f 77//58 76//58 78//58
f 76//59 75//59 78//59
o 8_British_Indian_Ocean_Territory_sphere.001
v 1.557801 -0.456539 -4.728758
v 1.557964 -0.456583 -4.728698
v 1.558119 -0.456430 -4.728659
v 1.558328 -0.456307 -4.728599
v 1.557635 -0.456090 -4.728856
vn 0.3218 -0.0857 -0.9429
vn 0.3202 -0.0868 -0.9434
vn 0.3223 -0.0882 -0.9425
usemtl None
s off
f 82//60 80//60 84//60
f 84//61 83//61 82//61
f 82//62 81//62 80//62
o 9_British_Indian_Ocean_Territory_sphere.001
v 1.541400 -0.455905 -4.734431
v 1.541393 -0.456176 -4.734409
v 1.541528 -0.455962 -4.734382
v 1.541686 -0.455862 -4.734337
v 1.541776 -0.455762 -4.734315
v 1.541695 -0.455491 -4.734368
v 1.541384 -0.455534 -4.734470
v 1.541332 -0.455684 -4.734474
vn 0.3224 -0.0860 -0.9427
vn 0.3244 -0.0868 -0.9419
vn 0.3218 -0.0859 -0.9429
vn 0.3153 -0.0851 -0.9452
vn 0.3212 -0.0859 -0.9431
vn 0.3228 -0.0864 -0.9425
usemtl None
s off
f 85//63 92//63 88//63
f 92//64 91//64 90//64
f 90//65 89//65 88//65
f 87//66 86//66 85//66
f 90//67 88//67 92//67
f 88//68 87//68 85//68
