# Blender v2.81 (sub 16) OBJ File: ''
# www.blender.org
mtllib British Indian Ocean Territory.mtl
o 0_British_Indian_Ocean_Territory_sphere.001
v 1.490220 -0.636022 -4.713916
v 1.490985 -0.650397 -4.712664
v 1.489254 -0.648984 -4.713049
v 1.485042 -0.643544 -4.714144
v 1.484327 -0.642714 -4.714323
v 1.483735 -0.642275 -4.714451
v 1.483202 -0.641618 -4.714588
v 1.482730 -0.640179 -4.714776
v 1.482194 -0.641172 -4.714782
v 1.481915 -0.642166 -4.714748
v 1.482001 -0.643328 -4.714643
v 1.482640 -0.644734 -4.714432
v 1.484088 -0.646346 -4.714075
v 1.489076 -0.650411 -4.712965
v 1.490962 -0.651520 -4.712579
v 1.492059 -0.646830 -4.712775
v 1.491255 -0.637173 -4.713662
v 1.492517 -0.633093 -4.713783
v 1.493663 -0.632172 -4.713675
v 1.497519 -0.630231 -4.713216
v 1.498909 -0.629911 -4.713021
v 1.500377 -0.629037 -4.712858
v 1.503947 -0.624494 -4.712649
v 1.501858 -0.624625 -4.712970
v 1.493594 -0.629835 -4.713869
v 1.491364 -0.631850 -4.714064
vn 0.1560 -0.0776 -0.9847
vn 0.1568 -0.0774 -0.9846
vn 0.1554 -0.0774 -0.9848
vn 0.1561 -0.0771 -0.9847
vn 0.1566 -0.0777 -0.9846
vn 0.1560 -0.0777 -0.9847
vn 0.1557 -0.0773 -0.9848
vn 0.1565 -0.0775 -0.9846
vn 0.1558 -0.0774 -0.9848
vn 0.1561 -0.0774 -0.9847
vn 0.1589 -0.0776 -0.9842
vn 0.1558 -0.0776 -0.9847
vn 0.1560 -0.0773 -0.9847
vn 0.1558 -0.0777 -0.9847
vn 0.1566 -0.0775 -0.9846
vn 0.1550 -0.0773 -0.9849
vn 0.1570 -0.0779 -0.9845
vn 0.1560 -0.0774 -0.9847
vn 0.1560 -0.0775 -0.9847
vn 0.1559 -0.0774 -0.9847
vn 0.1554 -0.0775 -0.9848
vn 0.1558 -0.0775 -0.9847
vn 0.1564 -0.0776 -0.9846
usemtl None
s off
f 26//1 19//1 18//1
f 10//2 9//2 7//2
f 9//3 8//3 7//3
f 12//4 11//4 5//4
f 11//5 10//5 6//5
f 6//6 10//6 7//6
f 14//7 13//7 3//7
f 13//8 12//8 4//8
f 3//9 13//9 4//9
f 17//10 16//10 1//10
f 16//11 15//11 2//11
f 15//12 14//12 2//12
f 2//13 14//13 3//13
f 6//14 5//14 11//14
f 5//15 4//15 12//15
f 22//16 21//16 24//16
f 21//17 20//17 24//17
f 24//8 23//8 22//8
f 26//18 25//18 19//18
f 25//19 24//19 20//19
f 19//20 25//20 20//20
f 2//21 1//21 16//21
f 1//22 26//22 18//22
f 17//23 1//23 18//23
o 1_British_Indian_Ocean_Territory_sphere.001
v 1.487640 -0.643102 -4.713768
v 1.486963 -0.644697 -4.713750
v 1.487697 -0.643746 -4.713708
v 1.488510 -0.642403 -4.713685
v 1.488969 -0.640958 -4.713726
v 1.488529 -0.639681 -4.713896
v 1.485819 -0.634243 -4.714754
v 1.487581 -0.629955 -4.714812
v 1.491304 -0.625916 -4.714540
v 1.494406 -0.621003 -4.714436
v 1.492514 -0.622199 -4.714641
v 1.486313 -0.629884 -4.715018
v 1.484347 -0.633090 -4.715077
v 1.485234 -0.635568 -4.714742
v 1.487039 -0.637942 -4.714269
v 1.487959 -0.640880 -4.713892
v 1.487847 -0.642083 -4.713816
vn 0.1577 -0.0782 -0.9844
vn 0.1560 -0.0775 -0.9847
vn 0.1561 -0.0776 -0.9847
vn 0.1554 -0.0776 -0.9848
vn 0.1557 -0.0776 -0.9848
vn 0.1555 -0.0776 -0.9848
vn 0.1559 -0.0777 -0.9847
vn 0.1558 -0.0775 -0.9848
vn 0.1564 -0.0775 -0.9846
vn 0.1566 -0.0774 -0.9846
vn 0.1562 -0.0773 -0.9847
vn 0.1566 -0.0776 -0.9846
vn 0.1550 -0.0766 -0.9849
vn 0.1558 -0.0774 -0.9847
vn 0.1530 -0.0767 -0.9853
usemtl None
s off
f 27//24 43//24 30//24
f 39//25 38//25 33//25
f 38//26 37//26 35//26
f 34//27 38//27 35//27
f 37//28 36//28 35//28
f 41//29 40//29 33//29
f 40//30 39//30 33//30
f 38//31 34//31 33//31
f 33//32 32//32 41//32
f 32//33 31//33 42//33
f 41//34 32//34 42//34
f 31//35 30//35 43//35
f 30//36 29//36 27//36
f 31//37 43//37 42//37
f 29//38 28//38 27//38
o 2_British_Indian_Ocean_Territory_sphere.001
v 1.580118 -0.576759 -4.687116
v 1.581353 -0.577436 -4.686428
v 1.582003 -0.577291 -4.686109
v 1.582272 -0.576833 -4.686012
v 1.582277 -0.576632 -4.686027
vn 0.4524 -0.0776 -0.8884
vn 0.4527 -0.0773 -0.8883
vn 0.4561 -0.0770 -0.8866
usemtl None
s off
f 45//39 48//39 46//39
f 44//40 48//40 45//40
f 48//41 47//41 46//41
o 3_British_Indian_Ocean_Territory_sphere.001
v 1.588855 -0.554493 -4.684606
v 1.589507 -0.555067 -4.684224
v 1.589646 -0.552768 -4.684354
v 1.589398 -0.551888 -4.684557
v 1.588451 -0.551063 -4.685112
v 1.588124 -0.552815 -4.685125
v 1.588336 -0.553814 -4.684930
vn 0.4533 -0.0778 -0.8879
vn 0.4533 -0.0774 -0.8880
vn 0.4526 -0.0775 -0.8883
vn 0.4519 -0.0774 -0.8887
vn 0.4529 -0.0777 -0.8882
usemtl None
s off
f 55//42 54//42 51//42
f 54//43 53//43 52//43
f 52//44 51//44 54//44
f 51//45 50//45 49//45
f 55//46 51//46 49//46
o 4_British_Indian_Ocean_Territory_sphere.001
v 1.582360 -0.538839 -4.689281
v 1.583551 -0.539800 -4.688591
v 1.584831 -0.537874 -4.688107
v 1.584117 -0.536209 -4.688616
v 1.583237 -0.534973 -4.689172
v 1.582056 -0.534188 -4.689842
v 1.580689 -0.534004 -4.690555
v 1.581354 -0.536403 -4.690006
vn 0.4525 -0.0775 -0.8884
vn 0.4528 -0.0776 -0.8882
vn 0.4528 -0.0775 -0.8883
vn 0.4524 -0.0776 -0.8885
vn 0.4528 -0.0775 -0.8882
vn 0.4526 -0.0776 -0.8883
usemtl None
s off
f 56//47 63//47 59//47
f 62//48 61//48 63//48
f 61//49 60//49 63//49
f 60//50 59//50 63//50
f 59//51 58//51 56//51
f 58//52 57//52 56//52
o 5_British_Indian_Ocean_Territory_sphere.001
v 1.550705 -0.472392 -4.711207
v 1.550860 -0.472790 -4.711094
v 1.552355 -0.471559 -4.710440
v 1.552760 -0.471147 -4.710269
v 1.551141 -0.471488 -4.711064
v 1.550646 -0.471945 -4.711277
vn 0.4508 -0.0774 -0.8892
vn 0.4533 -0.0789 -0.8879
vn 0.4523 -0.0772 -0.8885
vn 0.4525 -0.0778 -0.8884
usemtl None
s off
f 65//53 64//53 68//53
f 69//54 68//54 64//54
f 68//55 67//55 66//55
f 65//56 68//56 66//56
o 6_British_Indian_Ocean_Territory_sphere.001
v 1.514866 -0.463039 -4.723627
v 1.515144 -0.463057 -4.723582
v 1.513367 -0.461398 -4.723993
v 1.513856 -0.462467 -4.723832
v 1.514405 -0.462941 -4.723708
vn 0.1558 -0.0769 -0.9848
vn 0.1576 -0.0770 -0.9845
vn 0.1573 -0.0774 -0.9845
usemtl None
s off
f 70//57 74//57 73//57
f 72//58 71//58 73//58
f 71//59 70//59 73//59
o 7_British_Indian_Ocean_Territory_sphere.001
v 1.554599 -0.459624 -4.710337
v 1.554927 -0.459685 -4.710165
v 1.553252 -0.456746 -4.711275
v 1.553493 -0.458439 -4.711004
v 1.554009 -0.459283 -4.710668
vn 0.4530 -0.0772 -0.8882
vn 0.4519 -0.0777 -0.8887
vn 0.4537 -0.0767 -0.8878
usemtl None
s off
f 75//60 79//60 78//60
f 77//61 76//61 78//61
f 76//62 75//62 78//62
o 8_British_Indian_Ocean_Territory_sphere.001
v 1.552066 -0.455155 -4.712018
v 1.552401 -0.455244 -4.711839
v 1.552720 -0.454911 -4.711706
v 1.553152 -0.454638 -4.711510
v 1.551725 -0.454193 -4.712276
vn 0.4530 -0.0772 -0.8882
vn 0.4522 -0.0779 -0.8885
vn 0.4518 -0.0775 -0.8887
usemtl None
s off
f 82//63 80//63 84//63
f 84//64 83//64 82//64
f 82//65 81//65 80//65
o 9_British_Indian_Ocean_Territory_sphere.001
v 1.536530 -0.454583 -4.719984
v 1.536516 -0.455129 -4.719943
v 1.536773 -0.454695 -4.719850
v 1.537077 -0.454489 -4.719713
v 1.537251 -0.454284 -4.719642
v 1.537095 -0.453739 -4.719769
v 1.536496 -0.453837 -4.720066
v 1.536399 -0.454140 -4.720089
vn 0.4535 -0.0771 -0.8879
vn 0.4509 -0.0764 -0.8893
vn 0.4525 -0.0776 -0.8884
vn 0.4543 -0.0776 -0.8875
vn 0.4552 -0.0778 -0.8870
vn 0.4531 -0.0779 -0.8880
usemtl None
s off
f 85//66 92//66 88//66
f 92//67 91//67 88//67
f 91//68 90//68 88//68
f 90//69 89//69 88//69
f 87//70 86//70 85//70
f 88//71 87//71 85//71
