# Blender v2.81 (sub 16) OBJ File: ''
# www.blender.org
mtllib British Virgin Islands.mtl
o 0_British_Virgin_Islands_sphere.001
v 2.020907 1.552544 4.238153
v 2.020024 1.551527 4.239070
v 2.018170 1.554691 4.238562
v 2.014113 1.556857 4.239635
v 2.008566 1.558047 4.241914
v 2.007502 1.559571 4.241757
v 2.010456 1.560386 4.239878
v 2.012932 1.560431 4.238595
v 2.014251 1.560980 4.237671
v 2.015738 1.561406 4.236718
v 2.019024 1.560385 4.235513
v 2.019923 1.557672 4.236300
vn 0.4203 0.3787 0.8246
vn 0.4202 0.3787 0.8246
vn 0.4203 0.3786 0.8246
vn 0.4200 0.3788 0.8247
vn 0.4201 0.3786 0.8247
vn 0.4200 0.3786 0.8248
vn 0.4202 0.3786 0.8247
usemtl None
s off
f 2//1 1//1 3//1
f 1//2 12//2 3//2
f 12//3 11//3 10//3
f 3//2 12//2 4//2
f 10//4 9//4 4//4
f 8//5 7//5 4//5
f 7//6 6//6 5//6
f 4//7 7//7 5//7
f 10//5 4//5 12//5
f 9//6 8//6 4//6
o 1_British_Virgin_Islands_sphere.001
v 2.039813 1.573860 4.218733
v 2.043989 1.570071 4.218344
v 2.043118 1.568107 4.219690
v 2.039026 1.568723 4.221493
v 2.032838 1.570508 4.223825
v 2.028871 1.567981 4.227007
v 2.027530 1.565043 4.229039
v 2.025295 1.562595 4.231302
v 2.022288 1.561577 4.233302
v 2.019516 1.562147 4.234452
v 2.017342 1.563288 4.235037
v 2.015022 1.564140 4.235827
v 2.011647 1.563987 4.237617
v 2.012025 1.562850 4.237947
v 2.009884 1.559937 4.240375
v 2.007076 1.557501 4.242924
v 2.005434 1.557758 4.243643
v 2.003350 1.553577 4.246624
v 1.998766 1.549722 4.250731
v 1.993482 1.550172 4.253216
v 1.988790 1.550432 4.255487
v 1.980667 1.551113 4.259314
v 1.984239 1.555314 4.255565
v 1.990047 1.555774 4.252394
v 1.991829 1.560430 4.249348
v 1.993894 1.564823 4.246279
v 1.994034 1.570786 4.243470
v 2.000088 1.574803 4.238540
v 2.005289 1.573238 4.236609
v 2.013088 1.574924 4.231861
v 2.017050 1.573744 4.230384
v 2.027992 1.575821 4.223855
vn 0.4201 0.3787 0.8247
vn 0.4204 0.3786 0.8246
vn 0.4202 0.3786 0.8247
vn 0.4200 0.3787 0.8247
vn 0.4202 0.3786 0.8246
vn 0.4204 0.3787 0.8245
vn 0.4202 0.3787 0.8247
vn 0.4202 0.3787 0.8246
vn 0.4201 0.3786 0.8247
vn 0.4203 0.3786 0.8246
vn 0.4203 0.3787 0.8246
vn 0.4201 0.3790 0.8245
vn 0.4207 0.3784 0.8245
usemtl None
s off
f 41//8 27//8 25//8
f 14//9 13//9 16//9
f 13//10 44//10 17//10
f 43//11 42//11 24//11
f 42//12 41//12 25//12
f 24//13 42//13 25//13
f 13//8 17//8 16//8
f 44//14 43//14 18//14
f 17//10 44//10 18//10
f 16//9 15//9 14//9
f 41//10 40//10 39//10
f 38//15 37//15 30//15
f 37//10 36//10 31//10
f 38//16 30//16 29//16
f 41//14 39//14 29//14
f 39//10 38//10 29//10
f 18//10 43//10 19//10
f 20//12 19//12 43//12
f 23//11 43//11 24//11
f 36//17 35//17 33//17
f 35//10 34//10 33//10
f 33//8 32//8 36//8
f 32//10 31//10 36//10
f 31//14 30//14 37//14
f 29//13 28//13 27//13
f 43//18 23//18 22//18
f 20//14 43//14 22//14
f 22//19 21//19 20//19
f 29//8 27//8 41//8
f 27//20 26//20 25//20
o 2_British_Virgin_Islands_sphere.001
v 2.009815 1.563268 4.238881
v 2.008008 1.561484 4.240621
v 1.997774 1.563075 4.245104
v 1.992758 1.563297 4.247559
v 1.994157 1.566040 4.245586
v 2.002570 1.567974 4.240411
v 2.007205 1.567349 4.238337
v 2.008220 1.565999 4.238440
vn 0.4202 0.3786 0.8247
vn 0.4203 0.3786 0.8246
vn 0.4201 0.3787 0.8247
vn 0.4202 0.3787 0.8247
vn 0.4203 0.3786 0.8247
usemtl None
s off
f 47//21 46//21 50//21
f 45//21 52//21 46//21
f 52//22 51//22 50//22
f 46//23 52//23 50//23
f 50//24 49//24 47//24
f 49//25 48//25 47//25
o 3_British_Virgin_Islands_sphere.001
v 2.018021 1.562768 4.234929
v 2.016623 1.561036 4.236437
v 2.015844 1.562086 4.236351
v 2.015707 1.564612 4.235261
v 2.014224 1.568823 4.234084
v 2.014305 1.571820 4.232666
v 2.015821 1.573142 4.231287
v 2.017039 1.572538 4.230944
v 2.017973 1.568404 4.232366
v 2.018250 1.566318 4.233182
vn 0.4200 0.3787 0.8247
vn 0.4203 0.3786 0.8246
vn 0.4204 0.3789 0.8245
vn 0.4202 0.3786 0.8247
vn 0.4204 0.3788 0.8245
vn 0.4205 0.3784 0.8246
vn 0.4204 0.3787 0.8246
usemtl None
s off
f 53//26 62//26 56//26
f 61//27 60//27 58//27
f 60//28 59//28 58//28
f 58//29 57//29 61//29
f 56//30 55//30 53//30
f 55//31 54//31 53//31
f 57//29 56//29 62//29
f 62//32 61//32 57//32
o 4_British_Virgin_Islands_sphere.001
v 2.045801 1.580214 4.212764
v 2.043775 1.574367 4.216481
v 2.037729 1.570574 4.221303
v 2.031424 1.568577 4.225433
v 2.028466 1.568208 4.227109
v 2.026188 1.564481 4.229981
v 2.020537 1.559099 4.235332
v 2.014117 1.554776 4.240588
v 2.009465 1.554159 4.243241
v 2.015646 1.566182 4.234572
v 2.016858 1.572309 4.231141
v 2.014084 1.580317 4.228878
v 2.015640 1.580311 4.228087
v 2.016748 1.579733 4.227787
v 2.017742 1.578840 4.227692
v 2.019090 1.577881 4.227445
v 2.038683 1.578248 4.217293
vn 0.4202 0.3786 0.8246
vn 0.4202 0.3789 0.8246
vn 0.4196 0.3789 0.8248
vn 0.4202 0.3786 0.8247
vn 0.4202 0.3787 0.8246
vn 0.4201 0.3786 0.8247
vn 0.4201 0.3787 0.8247
vn 0.4206 0.3786 0.8245
vn 0.4202 0.3787 0.8247
vn 0.4203 0.3786 0.8246
usemtl None
s off
f 78//33 73//33 67//33
f 77//34 76//34 74//34
f 76//35 75//35 74//35
f 74//36 73//36 77//36
f 72//37 71//37 70//37
f 73//37 72//37 68//37
f 72//38 70//38 69//38
f 68//33 72//33 69//33
f 67//39 66//39 78//39
f 66//33 65//33 79//33
f 68//37 67//37 73//37
f 78//40 77//40 73//40
f 66//41 79//41 78//41
f 65//36 64//36 79//36
f 64//42 63//42 79//42
o 5_British_Virgin_Islands_sphere.001
v 2.045835 1.590497 4.208025
v 2.053098 1.577292 4.210388
v 2.049891 1.577547 4.211905
v 2.027889 1.586744 4.218893
v 2.012063 1.587600 4.226563
v 2.005181 1.589977 4.228979
v 2.000693 1.594969 4.228973
v 2.032226 1.595425 4.212697
vn 0.4202 0.3787 0.8246
vn 0.4203 0.3787 0.8246
vn 0.4202 0.3786 0.8247
vn 0.4202 0.3787 0.8247
usemtl None
s off
f 83//43 82//43 80//43
f 81//44 80//44 82//44
f 80//45 87//45 83//45
f 87//45 86//45 84//45
f 86//44 85//44 84//44
f 84//46 83//46 87//46
