# Blender v2.81 (sub 16) OBJ File: ''
# www.blender.org
mtllib Brunei.mtl
o 0_Brunei_sphere.001
v -2.122326 0.392293 -4.510174
v -2.122700 0.379868 -4.510970
v -2.127737 0.392293 -4.507524
v -2.121245 0.421571 -4.507876
v -2.112807 0.392293 -4.514472
v -2.115801 0.427947 -4.509727
v -2.116704 0.427913 -4.509323
v -2.116855 0.425913 -4.509445
v -2.117618 0.425094 -4.509179
v -2.118700 0.424538 -4.508743
v -2.119756 0.423769 -4.508339
v -2.112761 0.392600 -4.514464
v -2.111699 0.396031 -4.514617
v -2.108835 0.402824 -4.515264
v -2.108011 0.406214 -4.515313
v -2.107421 0.413330 -4.514902
v -2.107723 0.420269 -4.514106
v -2.109249 0.418618 -4.513574
v -2.110674 0.419639 -4.512833
v -2.112182 0.421566 -4.511969
v -2.113930 0.422594 -4.511082
v -2.115642 0.422985 -4.510272
v -2.115656 0.424005 -4.510168
v -2.114923 0.425378 -4.510368
v -2.114403 0.426838 -4.510465
v -2.114554 0.427509 -4.510332
v -2.115059 0.427847 -4.510072
v -2.128072 0.390056 -4.507536
v -2.129209 0.386615 -4.507249
v -2.131104 0.383922 -4.506534
v -2.133959 0.381013 -4.505364
v -2.135158 0.379131 -4.504925
v -2.135410 0.377312 -4.504944
v -2.134312 0.375936 -4.505590
v -2.132585 0.376022 -4.506430
v -2.130735 0.376922 -4.507265
v -2.129280 0.377989 -4.507894
v -2.128581 0.378279 -4.508214
v -2.127074 0.378224 -4.508956
v -2.126241 0.378616 -4.509334
v -2.124982 0.379771 -4.509860
v -2.124319 0.380038 -4.510163
v -2.121857 0.420656 -4.507665
v -2.127586 0.404186 -4.506449
v -2.128002 0.402116 -4.506445
v -2.127936 0.400607 -4.506623
v -2.127428 0.397163 -4.507205
v -2.127512 0.393738 -4.507494
v -2.121977 0.379784 -4.511303
v -2.120305 0.380164 -4.512028
v -2.115717 0.381979 -4.513959
v -2.114639 0.382748 -4.514386
v -2.113968 0.383985 -4.514593
vn -0.4099 0.0866 -0.9080
vn -0.4391 0.0705 -0.8957
vn -0.4383 0.0864 -0.8947
vn -0.4102 0.0706 -0.9092
vn -0.4100 0.0873 -0.9079
vn -0.4099 0.0864 -0.9080
vn -0.4100 0.0864 -0.9080
vn -0.4098 0.0863 -0.9081
vn -0.4103 0.0863 -0.9079
vn -0.4101 0.0865 -0.9079
vn -0.4105 0.0860 -0.9078
vn -0.4105 0.0862 -0.9078
vn -0.4097 0.0865 -0.9081
vn -0.4096 0.0863 -0.9082
vn -0.4101 0.0864 -0.9079
vn -0.4096 0.0869 -0.9081
vn -0.4097 0.0876 -0.9080
vn -0.4102 0.0864 -0.9079
vn -0.4101 0.0863 -0.9079
vn -0.4098 0.0865 -0.9080
vn -0.4385 0.0706 -0.8960
vn -0.4386 0.0703 -0.8959
vn -0.4387 0.0694 -0.8959
vn -0.4390 0.0706 -0.8957
vn -0.4385 0.0708 -0.8959
vn -0.4388 0.0707 -0.8958
vn -0.4387 0.0703 -0.8959
vn -0.4386 0.0707 -0.8959
vn -0.4388 0.0706 -0.8958
vn -0.4395 0.0704 -0.8955
vn -0.4389 0.0704 -0.8958
vn -0.4387 0.0705 -0.8959
vn -0.4390 0.0705 -0.8957
vn -0.4386 0.0706 -0.8959
vn -0.4383 0.0866 -0.8947
vn -0.4385 0.0863 -0.8946
vn -0.4393 0.0864 -0.8942
vn -0.4379 0.0864 -0.8948
vn -0.4384 0.0863 -0.8946
vn -0.4388 0.0864 -0.8944
vn -0.4105 0.0705 -0.9091
vn -0.4105 0.0701 -0.9092
vn -0.4106 0.0705 -0.9091
vn -0.4100 0.0724 -0.9092
usemtl None
s off
f 9//1 8//1 23//1
f 37//2 36//2 31//2
f 44//3 43//3 1//3
f 1//4 53//4 51//4
f 5//5 1//5 12//5
f 1//6 4//6 14//6
f 12//7 1//7 13//7
f 4//7 11//7 22//7
f 11//8 10//8 22//8
f 10//9 9//9 22//9
f 13//7 1//7 14//7
f 15//10 14//10 4//10
f 16//6 4//6 19//6
f 16//6 15//6 4//6
f 18//7 17//7 16//7
f 21//11 20//11 19//11
f 19//12 18//12 16//12
f 8//13 7//13 6//13
f 21//14 19//14 22//14
f 22//6 19//6 4//6
f 8//15 6//15 25//15
f 6//16 27//16 25//16
f 27//17 26//17 25//17
f 25//18 24//18 8//18
f 24//19 23//19 8//19
f 23//20 22//20 9//20
f 1//21 2//21 42//21
f 41//22 40//22 38//22
f 40//23 39//23 38//23
f 1//24 42//24 29//24
f 42//25 41//25 29//25
f 28//26 3//26 1//26
f 29//27 28//27 1//27
f 29//28 41//28 30//28
f 41//29 38//29 30//29
f 30//30 38//30 37//30
f 32//31 31//31 35//31
f 31//32 30//32 37//32
f 34//33 33//33 32//33
f 36//34 35//34 31//34
f 35//26 34//26 32//26
f 1//35 3//35 48//35
f 47//36 46//36 1//36
f 46//37 45//37 44//37
f 1//38 46//38 44//38
f 1//39 48//39 47//39
f 43//40 4//40 1//40
f 1//41 5//41 53//41
f 53//42 52//42 51//42
f 51//43 50//43 1//43
f 50//44 49//44 2//44
f 1//43 50//43 2//43
o 1_Brunei_sphere.001
v -2.043807 0.392293 -4.545627
v -2.089271 0.392293 -4.525099
v -2.101502 0.420111 -4.516929
v -2.100271 0.419258 -4.517567
v -2.098877 0.419224 -4.518199
v -2.097408 0.419498 -4.518836
v -2.095952 0.419587 -4.519485
v -2.094188 0.419052 -4.520332
v -2.092785 0.418062 -4.521060
v -2.090317 0.415375 -4.522430
v -2.089002 0.414443 -4.523113
v -2.086128 0.413101 -4.524538
v -2.085469 0.412406 -4.524902
v -2.085376 0.410862 -4.525091
v -2.086030 0.409239 -4.524950
v -2.087681 0.406010 -4.524512
v -2.088206 0.404202 -4.524446
v -2.088545 0.402263 -4.524478
v -2.043566 0.392939 -4.545675
v -2.042599 0.393610 -4.546047
v -2.040607 0.394433 -4.546868
v -2.037920 0.396659 -4.547870
v -2.036201 0.397620 -4.548554
v -2.031810 0.398356 -4.550467
v -2.026502 0.401079 -4.552604
v -2.046691 0.400336 -4.543560
v -2.052626 0.401580 -4.540761
v -2.058018 0.404984 -4.538003
v -2.065787 0.408095 -4.534199
v -2.068528 0.409192 -4.532857
v -2.070140 0.410999 -4.531957
v -2.071275 0.413533 -4.531203
v -2.074043 0.416740 -4.529649
v -2.083376 0.425141 -4.524635
v -2.086293 0.427123 -4.523129
v -2.099341 0.435986 -4.516395
v -2.109416 0.440610 -4.511406
v -2.111388 0.440869 -4.510490
v -2.112903 0.440223 -4.509868
v -2.113061 0.439088 -4.509905
v -2.111944 0.438200 -4.510493
v -2.109521 0.436996 -4.511702
v -2.108906 0.435823 -4.512092
v -2.107723 0.432361 -4.512955
v -2.107527 0.431318 -4.513143
v -2.107037 0.430123 -4.513478
v -2.104669 0.427619 -4.514785
v -2.103925 0.426233 -4.515253
v -2.102190 0.424248 -4.516225
v -2.101984 0.422906 -4.516446
v -2.101971 0.421445 -4.516591
v -2.089290 0.392052 -4.525109
v -2.089866 0.388851 -4.525098
v -2.091363 0.386413 -4.524611
v -2.092945 0.385792 -4.523945
v -2.094112 0.386007 -4.523401
v -2.094715 0.385581 -4.523162
v -2.094614 0.383074 -4.523402
v -2.093985 0.379757 -4.523943
v -2.093439 0.378289 -4.524304
v -2.092630 0.376796 -4.524785
v -2.090776 0.374757 -4.525780
v -2.090291 0.374222 -4.526041
v -2.089844 0.373412 -4.526305
v -2.089950 0.371615 -4.526398
v -2.092400 0.372734 -4.525204
v -2.092720 0.371207 -4.525178
v -2.092193 0.369596 -4.525541
v -2.090464 0.366604 -4.526554
v -2.089955 0.364896 -4.526917
v -2.089619 0.361276 -4.527349
v -2.089049 0.359990 -4.527706
v -2.081941 0.352273 -4.531515
v -2.078250 0.349858 -4.533369
v -2.074950 0.350264 -4.534827
v -2.074533 0.350955 -4.534962
v -2.073878 0.353130 -4.535089
v -2.073461 0.354028 -4.535207
v -2.072805 0.354695 -4.535451
v -2.071074 0.355998 -4.536132
v -2.065901 0.361081 -4.538073
v -2.064711 0.362763 -4.538480
v -2.063879 0.364480 -4.538723
v -2.062057 0.370027 -4.539114
v -2.061016 0.371186 -4.539495
v -2.059535 0.371280 -4.540156
v -2.056281 0.370634 -4.541676
v -2.052765 0.371391 -4.543204
v -2.050035 0.371602 -4.544421
v -2.049641 0.372404 -4.544536
v -2.049463 0.373718 -4.544515
v -2.049704 0.374233 -4.544366
v -2.050788 0.375301 -4.543794
v -2.051028 0.376144 -4.543620
v -2.050376 0.380063 -4.543610
v -2.049234 0.381865 -4.543985
v -2.049168 0.384311 -4.543826
v -2.048479 0.386767 -4.543946
v -2.047984 0.387730 -4.544095
v -2.047115 0.388750 -4.544408
v -2.046837 0.389323 -4.544489
v -2.046743 0.390014 -4.544478
v -2.046544 0.390598 -4.544523
v -2.045962 0.390843 -4.544766
v -2.044734 0.390879 -4.545318
v -2.044230 0.391144 -4.545525
vn -0.4096 0.0863 -0.9082
vn -0.4106 0.0706 -0.9091
vn -0.4099 0.0864 -0.9080
vn -0.4100 0.0864 -0.9080
vn -0.4099 0.0866 -0.9080
vn -0.4100 0.0863 -0.9080
vn -0.4099 0.0865 -0.9080
vn -0.4100 0.0865 -0.9080
vn -0.4120 0.0857 -0.9071
vn -0.4097 0.0864 -0.9081
vn -0.4097 0.0866 -0.9081
vn -0.4101 0.0863 -0.9079
vn -0.4100 0.0862 -0.9080
vn -0.4099 0.0863 -0.9080
vn -0.4104 0.0862 -0.9078
vn -0.4101 0.0864 -0.9079
vn -0.4098 0.0864 -0.9081
vn -0.4098 0.0865 -0.9081
vn -0.4100 0.0868 -0.9079
vn -0.4104 0.0861 -0.9078
vn -0.4098 0.0863 -0.9081
vn -0.4096 0.0864 -0.9082
vn -0.4103 0.0862 -0.9079
vn -0.4103 0.0865 -0.9078
vn -0.4111 0.0863 -0.9075
vn -0.4095 0.0868 -0.9082
vn -0.4104 0.0864 -0.9078
vn -0.4105 0.0708 -0.9091
vn -0.4119 0.0707 -0.9085
vn -0.4101 0.0703 -0.9093
vn -0.4113 0.0707 -0.9088
vn -0.4106 0.0701 -0.9091
vn -0.4105 0.0705 -0.9091
vn -0.4104 0.0707 -0.9091
vn -0.4137 0.0696 -0.9077
vn -0.4105 0.0707 -0.9091
vn -0.4127 0.0719 -0.9080
vn -0.4104 0.0706 -0.9092
vn -0.4090 0.0703 -0.9098
vn -0.4105 0.0706 -0.9091
vn -0.4110 0.0707 -0.9089
vn -0.4100 0.0707 -0.9093
vn -0.4106 0.0705 -0.9091
vn -0.4101 0.0706 -0.9093
vn -0.4104 0.0705 -0.9092
vn -0.4094 0.0705 -0.9096
vn -0.4102 0.0705 -0.9093
vn -0.4111 0.0703 -0.9089
vn -0.4110 0.0705 -0.9089
vn -0.4102 0.0706 -0.9093
vn -0.4106 0.0707 -0.9091
vn -0.4109 0.0709 -0.9089
vn -0.4091 0.0705 -0.9098
vn -0.4124 0.0703 -0.9083
vn -0.4103 0.0706 -0.9092
vn -0.4107 0.0709 -0.9090
vn -0.4105 0.0704 -0.9091
vn -0.4103 0.0705 -0.9092
vn -0.4119 0.0708 -0.9085
vn -0.4107 0.0708 -0.9090
vn -0.4105 0.0703 -0.9091
vn -0.4088 0.0707 -0.9099
vn -0.4106 0.0708 -0.9090
usemtl None
s off
f 95//45 94//45 90//45
f 125//46 123//46 132//46
f 54//47 55//47 80//47
f 55//48 71//48 83//48
f 80//48 55//48 81//48
f 71//49 70//49 83//49
f 70//50 69//50 84//50
f 83//51 70//51 84//51
f 69//52 68//52 84//52
f 72//53 54//53 79//53
f 75//47 74//47 79//47
f 74//54 73//54 79//54
f 73//55 72//55 79//55
f 54//56 80//56 79//56
f 68//57 67//57 84//57
f 55//48 82//48 81//48
f 82//58 55//58 83//58
f 67//50 66//50 86//50
f 78//59 77//59 76//59
f 65//60 64//60 87//60
f 64//49 63//49 87//49
f 63//56 62//56 87//56
f 87//61 62//61 88//61
f 79//47 78//47 76//47
f 79//48 76//48 75//48
f 59//62 58//62 103//62
f 58//52 57//52 104//52
f 103//63 58//63 104//63
f 57//64 56//64 104//64
f 102//65 101//65 89//65
f 101//52 100//52 89//52
f 59//66 103//66 102//66
f 60//67 59//67 102//67
f 100//58 99//58 89//58
f 99//52 98//52 89//52
f 60//48 102//48 89//48
f 61//56 60//56 88//56
f 98//68 97//68 89//68
f 97//58 96//58 89//58
f 62//54 61//54 88//54
f 60//48 89//48 88//48
f 86//50 85//50 67//50
f 85//50 84//50 67//50
f 86//47 66//47 87//47
f 87//62 66//62 65//62
f 91//52 90//52 94//52
f 90//48 89//48 96//48
f 95//69 90//69 96//69
f 93//70 92//70 94//70
f 92//71 91//71 94//71
f 55//72 54//72 156//72
f 54//73 159//73 158//73
f 157//74 54//74 158//74
f 54//75 157//75 156//75
f 105//76 55//76 152//76
f 55//77 156//77 152//77
f 106//78 105//78 138//78
f 155//79 154//79 153//79
f 105//80 152//80 151//80
f 156//81 155//81 152//81
f 107//82 106//82 116//82
f 155//83 153//83 152//83
f 105//77 151//77 138//77
f 110//84 109//84 108//84
f 108//85 107//85 111//85
f 106//86 138//86 137//86
f 117//77 106//77 137//77
f 111//87 110//87 108//87
f 113//88 112//88 107//88
f 112//89 111//89 107//89
f 115//82 114//82 107//82
f 114//82 113//82 107//82
f 116//90 115//90 107//90
f 106//91 117//91 116//91
f 151//92 150//92 138//92
f 150//93 149//93 148//93
f 150//94 148//94 138//94
f 148//95 147//95 139//95
f 138//96 148//96 139//96
f 146//84 145//84 141//84
f 145//97 144//97 143//97
f 147//98 146//98 141//98
f 145//99 143//99 141//99
f 143//100 142//100 141//100
f 141//101 140//101 147//101
f 140//102 139//102 147//102
f 120//89 119//89 118//89
f 118//72 117//72 137//72
f 137//84 136//84 118//84
f 136//103 135//103 134//103
f 136//87 134//87 118//87
f 121//104 120//104 118//104
f 122//89 121//89 118//89
f 134//82 133//82 118//82
f 133//105 132//105 123//105
f 118//87 133//87 123//87
f 123//82 122//82 118//82
f 125//106 124//106 123//106
f 127//84 126//84 130//84
f 126//77 125//77 132//77
f 131//99 126//99 132//99
f 129//99 128//99 127//99
f 130//87 129//87 127//87
f 126//107 131//107 130//107
