# Blender v2.81 (sub 16) OBJ File: ''
# www.blender.org
mtllib Burkina Faso.mtl
o 0_Burkina_Faso_sphere.001
v 4.815203 1.295522 0.000004
v 4.895869 0.959523 0.000004
v 4.880776 0.861774 0.243464
v 4.882583 0.854235 0.243482
v 4.883075 0.852479 0.243038
v 4.884089 0.849616 0.240975
v 4.884553 0.848072 0.240384
v 4.885075 0.845822 0.240498
v 4.885905 0.841801 0.241353
v 4.886496 0.839594 0.240965
v 4.887605 0.836401 0.238803
v 4.887978 0.834636 0.239127
v 4.888320 0.831128 0.242284
v 4.888797 0.828132 0.243814
v 4.889184 0.826293 0.244154
v 4.889712 0.824500 0.243538
v 4.890100 0.823708 0.242294
v 4.890604 0.822774 0.240529
v 4.891048 0.821184 0.240129
v 4.891422 0.819511 0.240304
v 4.891617 0.818185 0.241088
v 4.891891 0.816745 0.241541
v 4.892208 0.815328 0.241685
v 4.892570 0.813922 0.241526
v 4.894002 0.810417 0.237800
v 4.895417 0.806682 0.234526
v 4.895620 0.803963 0.237372
v 4.896362 0.799403 0.239599
v 4.896451 0.797908 0.241304
v 4.896096 0.797950 0.243480
v 4.895432 0.799343 0.245556
v 4.891369 0.810268 0.254650
v 4.888700 0.818388 0.259196
v 4.887484 0.822375 0.260833
v 4.886834 0.824347 0.261948
v 4.886294 0.825645 0.263387
v 4.885946 0.825949 0.265122
v 4.885695 0.824910 0.268278
v 4.885436 0.824903 0.269933
v 4.884897 0.826088 0.271536
v 4.884276 0.828081 0.272437
v 4.883093 0.832245 0.273589
v 4.882310 0.834294 0.275429
v 4.881889 0.834646 0.277558
v 4.881577 0.834581 0.279624
v 4.881124 0.835411 0.281226
v 4.880641 0.837153 0.281632
v 4.880173 0.839239 0.281430
v 4.879762 0.840928 0.281465
v 4.879463 0.840488 0.284015
v 4.880010 0.836156 0.287129
v 4.880112 0.834896 0.288398
v 4.879836 0.834595 0.290598
v 4.879425 0.835690 0.291529
v 4.878969 0.837483 0.291692
v 4.878558 0.839244 0.291619
v 4.878293 0.838731 0.294068
v 4.877970 0.838876 0.295885
v 4.877394 0.840204 0.297513
v 4.874700 0.841052 0.313238
v 4.874047 0.840115 0.318775
v 4.873736 0.840364 0.320359
v 4.873170 0.841663 0.321964
v 4.872632 0.842612 0.323925
v 4.872751 0.841341 0.325101
v 4.872292 0.841744 0.327390
v 4.871624 0.841083 0.332603
v 4.871522 0.840617 0.333958
v 4.871665 0.838423 0.336384
v 4.871538 0.837252 0.338960
v 4.870648 0.836890 0.345126
v 4.870495 0.836272 0.347030
v 4.870489 0.833990 0.350527
v 4.870308 0.833419 0.352535
v 4.870268 0.832671 0.353918
v 4.870562 0.831191 0.354310
v 4.870773 0.829926 0.354894
v 4.870337 0.829771 0.357881
v 4.870223 0.828789 0.360091
v 4.870390 0.827507 0.360978
v 4.870002 0.828119 0.362497
v 4.868857 0.829376 0.367823
v 4.868665 0.829110 0.369439
v 4.868702 0.827849 0.371117
v 4.869157 0.824195 0.373785
v 4.869113 0.823247 0.375497
v 4.868691 0.822678 0.379023
v 4.868583 0.822064 0.380636
v 4.868653 0.820957 0.381876
v 4.869229 0.817695 0.383181
v 4.869533 0.816090 0.383698
v 4.870080 0.813999 0.383412
v 4.870671 0.810598 0.384835
v 4.870129 0.810768 0.387999
v 4.869827 0.811075 0.389441
v 4.870122 0.809667 0.389711
v 4.870474 0.808220 0.389680
v 4.870291 0.807932 0.391274
v 4.869144 0.811739 0.392741
v 4.868707 0.813002 0.393589
v 4.868247 0.813415 0.395872
v 4.867780 0.813147 0.399226
v 4.867258 0.813302 0.402286
v 4.866613 0.815104 0.403625
v 4.866252 0.816740 0.403424
v 4.865835 0.819067 0.402527
v 4.865498 0.820604 0.402331
v 4.865067 0.821393 0.403853
v 4.864813 0.821323 0.405565
v 4.865210 0.818942 0.406669
v 4.865661 0.816806 0.407057
v 4.865294 0.816718 0.409511
v 4.864631 0.818576 0.410873
v 4.864379 0.818121 0.413157
v 4.864208 0.817337 0.415426
v 4.864148 0.816528 0.417032
v 4.864199 0.815419 0.418393
v 4.863860 0.815970 0.419692
v 4.863387 0.816766 0.421476
v 4.862944 0.818379 0.421827
v 4.862368 0.819817 0.423284
v 4.861971 0.820908 0.424133
v 4.861650 0.821288 0.425585
v 4.861873 0.819986 0.426152
v 4.861721 0.819675 0.427585
v 4.861080 0.821518 0.428838
v 4.860764 0.821831 0.430361
v 4.860356 0.822847 0.431393
v 4.860438 0.823642 0.429670
v 4.860545 0.824180 0.428181
v 4.860047 0.825656 0.429086
v 4.859490 0.827662 0.429563
v 4.859050 0.828980 0.430344
v 4.858911 0.828376 0.432137
v 4.858373 0.830184 0.432793
v 4.857903 0.831256 0.434133
v 4.857487 0.831753 0.436013
v 4.857120 0.831819 0.438229
v 4.856638 0.832803 0.439775
v 4.856420 0.832532 0.441564
v 4.856602 0.831101 0.442586
v 4.855409 0.833685 0.446199
v 4.854465 0.838403 0.445008
v 4.853639 0.841036 0.446233
v 4.853167 0.842296 0.447304
v 4.853167 0.843333 0.445731
v 4.852433 0.846182 0.446045
v 4.851944 0.847519 0.447110
v 4.851280 0.848701 0.449509
v 4.850454 0.851145 0.451017
v 4.850436 0.849875 0.453059
v 4.849872 0.851011 0.454896
v 4.849395 0.852147 0.456189
v 4.849504 0.853713 0.453126
v 4.848586 0.855836 0.455700
v 4.847985 0.858372 0.455652
v 4.847623 0.858214 0.458176
v 4.847125 0.860848 0.457330
v 4.813274 1.288516 -0.022792
v 4.813709 1.286559 -0.023012
v 4.814546 1.284418 -0.020975
v 4.815045 1.283055 -0.019889
v 4.815657 1.280592 -0.019760
v 4.816428 1.275639 -0.022398
v 4.816959 1.273025 -0.023003
v 4.821735 1.257022 -0.017112
v 4.822695 1.252659 -0.017663
v 4.823265 1.248502 -0.020367
v 4.823319 1.247454 -0.021608
v 4.823890 1.236461 -0.034669
v 4.824440 1.231614 -0.038541
v 4.825091 1.229357 -0.037856
v 4.826055 1.225867 -0.037057
v 4.827470 1.221673 -0.034483
v 4.827950 1.219661 -0.034498
v 4.828158 1.218035 -0.035654
v 4.828217 1.217036 -0.036796
v 4.828364 1.215840 -0.037680
v 4.828970 1.213872 -0.036837
v 4.829232 1.212218 -0.037688
v 4.829208 1.210908 -0.039828
v 4.829545 1.209373 -0.040023
v 4.829800 1.207831 -0.040752
v 4.829792 1.206875 -0.042253
v 4.829723 1.206101 -0.043859
v 4.829815 1.205076 -0.044834
v 4.830497 1.202745 -0.044060
v 4.830772 1.201188 -0.044682
v 4.830752 1.200020 -0.046582
v 4.831082 1.197652 -0.048085
v 4.831253 1.196206 -0.049197
v 4.831321 1.195009 -0.050587
v 4.831287 1.193111 -0.053673
v 4.831420 1.191940 -0.054611
v 4.831502 1.190917 -0.055643
v 4.831370 1.190302 -0.057411
v 4.831950 1.187831 -0.057498
v 4.832529 1.186006 -0.056608
v 4.832910 1.184672 -0.056220
v 4.833232 1.182484 -0.057500
v 4.833040 1.181701 -0.059906
v 4.831037 1.182005 -0.072093
v 4.831039 1.181205 -0.073287
v 4.831419 1.179627 -0.073284
v 4.831742 1.177704 -0.074160
v 4.831655 1.176870 -0.075973
v 4.831416 1.176783 -0.077614
v 4.830798 1.177070 -0.081077
v 4.830414 1.175850 -0.085348
v 4.830298 1.173023 -0.090368
v 4.830603 1.169284 -0.094114
v 4.831481 1.165299 -0.094612
v 4.831850 1.162606 -0.096361
v 4.831873 1.160491 -0.099420
v 4.831333 1.156039 -0.109582
v 4.831196 1.155515 -0.111238
v 4.830688 1.155020 -0.115194
v 4.830531 1.154637 -0.116769
v 4.830532 1.153689 -0.118201
v 4.830698 1.151811 -0.120002
v 4.831319 1.150897 -0.117459
v 4.831410 1.151722 -0.115637
v 4.831343 1.153005 -0.114115
v 4.831496 1.153485 -0.112423
v 4.831991 1.152028 -0.111507
v 4.832863 1.149006 -0.110577
v 4.833138 1.149651 -0.107863
v 4.833639 1.150865 -0.102863
v 4.834136 1.153710 -0.095414
v 4.834368 1.154042 -0.093448
v 4.835403 1.150518 -0.092250
v 4.837193 1.143023 -0.092308
v 4.839180 1.134707 -0.092371
v 4.840521 1.129093 -0.092411
v 4.840911 1.127458 -0.092428
v 4.841273 1.125782 -0.092688
v 4.841484 1.124355 -0.093515
v 4.841398 1.122951 -0.096185
v 4.840493 1.122325 -0.102848
v 4.840373 1.120976 -0.105654
v 4.840552 1.116727 -0.110962
v 4.840739 1.112255 -0.116560
v 4.840975 1.106697 -0.123491
v 4.841057 1.104759 -0.125914
v 4.841317 1.098634 -0.133558
v 4.841490 1.094495 -0.138737
v 4.841712 1.089304 -0.145204
v 4.841636 1.087876 -0.147848
v 4.841337 1.087056 -0.150982
v 4.840037 1.086081 -0.160664
v 4.838423 1.084889 -0.172664
v 4.838124 1.085024 -0.174344
v 4.837643 1.085967 -0.175957
v 4.837097 1.087485 -0.177099
v 4.836520 1.089229 -0.178100
v 4.835745 1.091402 -0.179702
v 4.835189 1.093010 -0.180770
v 4.834918 1.092691 -0.182966
v 4.833955 1.094938 -0.185641
v 4.832453 1.094512 -0.195769
v 4.832093 1.093482 -0.199600
v 4.832355 1.090735 -0.202114
v 4.832691 1.088968 -0.202672
v 4.832825 1.087499 -0.204051
v 4.832819 1.085698 -0.206819
v 4.833121 1.083451 -0.208320
v 4.834537 1.076865 -0.209360
v 4.834954 1.074299 -0.210615
v 4.835148 1.072344 -0.212355
v 4.835617 1.070339 -0.212434
v 4.836174 1.067897 -0.212621
v 4.836805 1.066642 -0.210537
v 4.837784 1.066315 -0.204854
v 4.837886 1.066888 -0.203339
v 4.838394 1.065821 -0.201753
v 4.839630 1.064594 -0.195806
v 4.840118 1.063508 -0.194369
v 4.840779 1.060911 -0.194135
v 4.841256 1.057730 -0.195944
v 4.841902 1.052339 -0.200036
v 4.843027 1.042959 -0.207149
v 4.844092 1.034103 -0.213850
v 4.845291 1.024124 -0.221410
v 4.845477 1.020060 -0.226392
v 4.848098 1.011478 -0.222856
v 4.848864 1.009186 -0.221491
v 4.850338 1.005503 -0.217769
v 4.851109 1.002986 -0.216718
v 4.851496 1.001417 -0.216651
v 4.851977 0.999600 -0.216363
v 4.852464 0.998453 -0.215034
v 4.853877 0.995976 -0.209864
v 4.856198 0.990956 -0.202816
v 4.860933 0.979598 -0.190142
v 4.861768 0.978148 -0.187065
v 4.862214 0.978512 -0.183697
v 4.862470 0.980096 -0.179682
v 4.862581 0.981253 -0.177226
v 4.862989 0.980922 -0.175151
v 4.863124 0.981441 -0.173513
v 4.863480 0.981164 -0.171687
v 4.864371 0.979921 -0.167942
v 4.864669 0.979864 -0.166150
v 4.865229 0.980297 -0.161961
v 4.865552 0.979928 -0.160472
v 4.866017 0.979185 -0.158666
v 4.866875 0.978504 -0.154283
v 4.867307 0.977775 -0.152663
v 4.867723 0.977273 -0.150795
v 4.867199 0.980727 -0.148863
v 4.867466 0.980704 -0.147215
v 4.866967 0.982517 -0.147620
v 4.867960 0.984092 -0.138959
v 4.868150 0.984498 -0.137150
v 4.868186 0.985363 -0.135611
v 4.868572 0.984121 -0.135054
v 4.869096 0.983354 -0.132909
v 4.869481 0.982572 -0.131666
v 4.870046 0.980807 -0.130769
v 4.870367 0.978896 -0.131639
v 4.870811 0.978072 -0.130086
v 4.871336 0.977296 -0.127951
v 4.871887 0.976239 -0.126074
v 4.872409 0.974614 -0.125235
v 4.872695 0.973073 -0.125769
v 4.872850 0.971836 -0.126665
v 4.873651 0.969483 -0.125174
v 4.873611 0.970510 -0.123868
v 4.874039 0.969590 -0.122559
v 4.873783 0.971755 -0.120898
v 4.874144 0.971256 -0.119377
v 4.874350 0.969671 -0.120481
v 4.874714 0.968119 -0.120531
v 4.875383 0.966125 -0.119325
v 4.875513 0.967630 -0.116228
v 4.875640 0.968098 -0.114715
v 4.875882 0.968250 -0.112955
v 4.876309 0.967661 -0.111151
v 4.876164 0.969173 -0.109777
v 4.876614 0.968542 -0.107896
v 4.877297 0.966653 -0.106444
v 4.877682 0.963916 -0.108163
v 4.878348 0.960930 -0.108481
v 4.878787 0.960654 -0.106132
v 4.879579 0.958711 -0.104074
v 4.880352 0.957882 -0.100449
v 4.880775 0.956381 -0.100054
v 4.880407 0.956715 -0.101869
v 4.880764 0.955284 -0.101783
v 4.880815 0.954282 -0.102987
v 4.881248 0.952236 -0.103357
v 4.881592 0.950326 -0.104071
v 4.881680 0.949278 -0.105107
v 4.882036 0.947868 -0.104996
v 4.882021 0.949019 -0.103346
v 4.882373 0.950226 -0.099296
v 4.882711 0.949725 -0.097916
v 4.882647 0.950802 -0.096693
v 4.882638 0.951653 -0.095459
v 4.882858 0.952487 -0.092805
v 4.883264 0.951761 -0.091344
v 4.883982 0.949668 -0.089982
v 4.884538 0.947627 -0.089569
v 4.884650 0.946463 -0.090621
v 4.884919 0.944943 -0.091232
v 4.885371 0.943487 -0.090582
v 4.885609 0.943588 -0.088926
v 4.885818 0.945394 -0.084868
v 4.887631 0.945769 -0.072853
v 4.888968 0.946053 -0.063981
v 4.890064 0.945308 -0.058194
v 4.892644 0.942141 -0.046703
v 4.891595 0.945755 -0.047847
v 4.891726 0.946180 -0.046373
v 4.891285 0.947582 -0.047036
v 4.892219 0.950660 -0.036474
v 4.893011 0.952589 -0.028550
v 4.895075 0.957589 -0.007934
vn 0.9606 0.2326 0.1521
vn 0.9610 0.2308 -0.1522
vn 0.9611 0.2306 -0.1521
vn 0.9609 0.2315 -0.1520
vn 0.9611 0.2304 0.1522
vn 0.9611 0.2305 0.1523
vn 0.9611 0.2304 0.1520
vn 0.9610 0.2308 0.1524
vn 0.9610 0.2307 0.1523
vn 0.9609 0.2311 0.1524
vn 0.9610 0.2307 0.1522
vn 0.9610 0.2307 0.1521
vn 0.9611 0.2306 0.1522
vn 0.9609 0.2309 0.1527
vn 0.9611 0.2302 0.1524
vn 0.9610 0.2300 0.1537
vn 0.9610 0.2311 0.1520
vn 0.9612 0.2302 0.1521
vn 0.9610 0.2308 0.1522
vn 0.9614 0.2292 0.1523
vn 0.9610 0.2306 0.1523
vn 0.9609 0.2316 0.1520
vn 0.9611 0.2302 0.1527
vn 0.9611 0.2306 0.1521
vn 0.9610 0.2308 0.1521
vn 0.9609 0.2311 0.1525
vn 0.9610 0.2309 0.1523
vn 0.9611 0.2308 0.1518
vn 0.9611 0.2304 0.1521
vn 0.9611 0.2307 0.1522
vn 0.9610 0.2310 0.1522
vn 0.9610 0.2306 0.1524
vn 0.9606 0.2325 0.1523
vn 0.9612 0.2300 0.1523
vn 0.9611 0.2305 0.1522
vn 0.9610 0.2308 0.1523
vn 0.9609 0.2311 0.1522
vn 0.9612 0.2295 0.1528
vn 0.9610 0.2316 0.1514
vn 0.9611 0.2307 0.1520
vn 0.9610 0.2309 0.1522
vn 0.9611 0.2302 0.1526
vn 0.9609 0.2312 0.1521
vn 0.9612 0.2302 0.1523
vn 0.9611 0.2307 0.1521
vn 0.9611 0.2304 0.1524
vn 0.9609 0.2315 0.1520
vn 0.9613 0.2294 0.1523
vn 0.9609 0.2313 0.1525
vn 0.9610 0.2310 0.1523
vn 0.9610 0.2310 0.1520
vn 0.9610 0.2307 0.1526
vn 0.9612 0.2303 0.1522
vn 0.9612 0.2303 0.1521
vn 0.9610 0.2310 0.1521
vn 0.9611 0.2306 0.1523
vn 0.9606 0.2328 0.1520
vn 0.9607 0.2323 0.1519
vn 0.9612 0.2300 0.1524
vn 0.9611 0.2306 0.1520
vn 0.9611 0.2303 0.1526
vn 0.9609 0.2313 0.1522
vn 0.9611 0.2305 0.1525
vn 0.9612 0.2298 0.1523
vn 0.9609 0.2312 0.1524
vn 0.9608 0.2317 0.1523
vn 0.9612 0.2299 0.1523
vn 0.9611 0.2306 0.1524
vn 0.9609 0.2312 0.1522
vn 0.9611 0.2304 0.1523
vn 0.9611 0.2303 0.1524
vn 0.9610 0.2311 0.1522
vn 0.9612 0.2301 0.1522
vn 0.9612 0.2300 0.1522
vn 0.9612 0.2302 0.1522
vn 0.9610 0.2307 0.1525
vn 0.9618 0.2276 0.1520
vn 0.9611 0.2305 0.1520
vn 0.9608 0.2315 0.1523
vn 0.9608 0.2314 0.1526
vn 0.9608 0.2317 0.1522
vn 0.9609 0.2311 -0.1524
vn 0.9610 0.2307 -0.1522
vn 0.9609 0.2311 -0.1522
vn 0.9610 0.2310 -0.1523
vn 0.9610 0.2310 -0.1522
vn 0.9611 0.2304 -0.1521
vn 0.9611 0.2301 -0.1525
vn 0.9610 0.2307 -0.1524
vn 0.9610 0.2307 -0.1523
vn 0.9610 0.2308 -0.1523
vn 0.9610 0.2308 -0.1521
vn 0.9610 0.2309 -0.1521
vn 0.9611 0.2306 -0.1523
vn 0.9611 0.2300 -0.1527
vn 0.9611 0.2306 -0.1522
vn 0.9607 0.2321 -0.1525
vn 0.9611 0.2307 -0.1521
vn 0.9610 0.2306 -0.1526
vn 0.9610 0.2306 -0.1523
vn 0.9609 0.2314 -0.1521
vn 0.9612 0.2301 -0.1521
vn 0.9610 0.2309 -0.1523
vn 0.9610 0.2309 -0.1522
vn 0.9611 0.2305 -0.1519
vn 0.9610 0.2306 -0.1524
vn 0.9612 0.2297 -0.1527
vn 0.9612 0.2306 -0.1516
vn 0.9612 0.2304 -0.1519
vn 0.9604 0.2329 -0.1531
vn 0.9612 0.2297 -0.1525
vn 0.9609 0.2311 -0.1523
vn 0.9614 0.2294 -0.1518
vn 0.9610 0.2309 -0.1524
vn 0.9609 0.2313 -0.1521
vn 0.9611 0.2304 -0.1524
vn 0.9613 0.2297 -0.1523
vn 0.9603 0.2329 -0.1537
vn 0.9614 0.2292 -0.1522
vn 0.9612 0.2299 -0.1525
vn 0.9606 0.2322 -0.1525
vn 0.9609 0.2312 -0.1524
vn 0.9611 0.2304 -0.1522
vn 0.9609 0.2314 -0.1523
vn 0.9611 0.2303 -0.1522
vn 0.9612 0.2302 -0.1521
vn 0.9611 0.2305 -0.1523
vn 0.9609 0.2311 -0.1521
vn 0.9610 0.2313 -0.1518
vn 0.9610 0.2304 -0.1528
vn 0.9610 0.2309 -0.1520
vn 0.9608 0.2315 -0.1529
vn 0.9611 0.2306 -0.1517
vn 0.9615 0.2290 -0.1522
vn 0.9613 0.2298 -0.1522
vn 0.9611 0.2299 -0.1529
vn 0.9609 0.2315 -0.1522
vn 0.9610 0.2312 -0.1519
vn 0.9611 0.2305 -0.1521
vn 0.9611 0.2307 -0.1520
vn 0.9611 0.2304 -0.1525
vn 0.9614 0.2293 -0.1523
vn 0.9612 0.2303 -0.1521
vn 0.9608 0.2318 -0.1519
vn 0.9610 0.2309 -0.1525
vn 0.9609 0.2313 -0.1522
vn 0.9609 0.2312 -0.1522
vn 0.9610 0.2308 -0.1524
vn 0.9611 0.2303 -0.1527
vn 0.9610 0.2311 -0.1522
vn 0.9609 0.2312 -0.1525
vn 0.9617 0.2278 -0.1522
vn 0.9611 0.2305 -0.1520
vn 0.9611 0.2307 -0.1522
vn 0.9611 0.2305 -0.1522
vn 0.9610 0.2305 -0.1529
vn 0.9608 0.2317 -0.1522
vn 0.9604 0.2332 -0.1522
vn 0.9614 0.2294 -0.1522
vn 0.9612 0.2300 -0.1522
usemtl None
s off
f 75//1 74//1 82//1
f 240//2 239//2 238//2
f 360//3 359//3 347//3
f 355//4 353//4 352//4
f 158//5 157//5 156//5
f 156//6 155//6 154//6
f 154//7 153//7 152//7
f 152//8 151//8 154//8
f 151//9 150//9 154//9
f 150//10 149//10 148//10
f 3//11 158//11 64//11
f 158//12 156//12 83//12
f 64//13 158//13 67//13
f 156//14 154//14 150//14
f 156//15 150//15 148//15
f 4//13 3//13 49//13
f 7//16 6//16 8//16
f 6//17 5//17 8//17
f 5//18 4//18 43//18
f 3//11 64//11 60//11
f 156//19 148//19 83//19
f 148//20 147//20 83//20
f 68//13 158//13 71//13
f 146//21 145//21 144//21
f 3//13 60//13 59//13
f 158//22 68//22 67//22
f 146//23 144//23 143//23
f 147//24 146//24 136//24
f 9//25 8//25 5//25
f 147//26 136//26 133//26
f 146//27 143//27 137//27
f 136//28 146//28 137//28
f 143//11 142//11 140//11
f 142//19 141//19 140//19
f 12//6 11//6 10//6
f 13//19 12//19 10//19
f 13//19 10//19 36//19
f 10//29 9//29 36//29
f 14//30 13//30 36//30
f 14//31 36//31 35//31
f 143//32 140//32 139//32
f 139//33 138//33 137//33
f 139//34 137//34 143//34
f 9//19 5//19 42//19
f 15//35 14//35 35//35
f 135//36 134//36 133//36
f 71//37 158//37 72//37
f 136//38 135//38 133//38
f 132//39 131//39 130//39
f 130//25 129//25 126//25
f 129//40 128//40 127//40
f 126//9 129//9 127//9
f 126//41 125//41 123//41
f 125//42 124//42 123//42
f 130//43 126//43 123//43
f 122//44 121//44 114//44
f 121//35 120//35 115//35
f 114//19 121//19 115//19
f 130//45 123//45 122//45
f 132//46 130//46 122//46
f 120//47 119//47 118//47
f 132//11 122//11 109//11
f 133//48 132//48 109//48
f 122//19 114//19 109//19
f 120//46 118//46 116//46
f 118//49 117//49 116//49
f 120//35 116//35 115//35
f 19//50 18//50 17//50
f 21//51 20//51 17//51
f 20//5 19//5 17//5
f 21//11 17//11 16//11
f 22//52 21//52 16//52
f 22//11 16//11 33//11
f 16//53 15//53 33//53
f 23//6 22//6 32//6
f 113//36 112//36 110//36
f 112//27 111//27 110//27
f 114//54 113//54 109//54
f 24//55 23//55 32//55
f 22//41 33//41 32//41
f 26//45 25//45 27//45
f 25//9 24//9 31//9
f 27//9 25//9 31//9
f 29//56 28//56 30//56
f 28//9 27//9 31//9
f 28//31 31//31 30//31
f 32//11 31//11 24//11
f 34//19 33//19 15//19
f 34//13 15//13 35//13
f 113//9 110//9 109//9
f 36//11 9//11 42//11
f 133//57 109//57 108//57
f 37//29 36//29 42//29
f 39//58 38//58 40//58
f 38//31 37//31 41//31
f 41//59 40//59 38//59
f 42//13 41//13 37//13
f 133//13 108//13 147//13
f 43//45 42//45 5//45
f 106//60 105//60 102//60
f 105//61 104//61 103//61
f 102//19 105//19 103//19
f 102//62 101//62 106//62
f 106//56 101//56 107//56
f 101//44 100//44 107//44
f 99//63 98//63 96//63
f 98//64 97//64 96//64
f 100//65 99//65 95//65
f 99//36 96//36 95//36
f 107//19 100//19 89//19
f 95//66 94//66 91//66
f 94//29 93//29 92//29
f 91//19 94//19 92//19
f 100//19 95//19 91//19
f 100//35 91//35 90//35
f 108//41 107//41 88//41
f 100//56 90//56 89//56
f 44//41 43//41 49//41
f 49//11 43//11 4//11
f 46//67 45//67 47//67
f 45//49 44//49 47//49
f 48//56 47//56 44//56
f 49//68 48//68 44//68
f 107//5 89//5 88//5
f 52//69 51//69 55//69
f 51//31 50//31 56//31
f 50//13 49//13 59//13
f 108//11 88//11 84//11
f 84//42 88//42 87//42
f 87//45 86//45 84//45
f 86//8 85//8 84//8
f 53//5 52//5 54//5
f 51//9 56//9 55//9
f 55//70 54//70 52//70
f 58//71 57//71 59//71
f 57//72 56//72 59//72
f 62//10 61//10 63//10
f 61//5 60//5 63//5
f 59//73 56//73 50//73
f 108//74 84//74 83//74
f 49//19 3//19 59//19
f 64//56 63//56 60//56
f 66//75 65//75 64//75
f 67//76 66//76 64//76
f 108//19 83//19 147//19
f 83//77 82//77 72//77
f 72//11 158//11 83//11
f 70//78 69//78 68//78
f 81//79 80//79 79//79
f 71//11 70//11 68//11
f 74//80 73//80 72//80
f 82//75 81//75 79//75
f 78//81 77//81 76//81
f 82//5 79//5 78//5
f 74//35 72//35 82//35
f 82//19 78//19 75//19
f 78//75 76//75 75//75
f 2//2 343//2 341//2
f 343//82 342//82 341//82
f 160//3 159//3 161//3
f 159//83 1//83 161//83
f 1//83 2//83 167//83
f 2//84 341//84 340//84
f 2//83 340//83 237//83
f 167//83 2//83 179//83
f 162//85 161//85 1//85
f 165//86 164//86 163//86
f 163//87 162//87 1//87
f 340//88 339//88 318//88
f 339//2 338//2 337//2
f 339//2 337//2 331//2
f 337//89 336//89 331//89
f 165//90 163//90 166//90
f 163//83 1//83 166//83
f 179//91 2//91 180//91
f 180//83 2//83 188//83
f 335//92 334//92 333//92
f 336//93 335//93 331//93
f 167//94 166//94 1//94
f 167//95 179//95 175//95
f 339//2 331//2 323//2
f 335//96 333//96 332//96
f 335//3 332//3 331//3
f 168//97 167//97 175//97
f 171//85 170//85 172//85
f 170//2 169//2 174//2
f 172//98 170//98 173//98
f 169//99 168//99 175//99
f 174//100 173//100 170//100
f 331//101 330//101 323//101
f 330//102 329//102 328//102
f 328//94 327//94 326//94
f 328//103 326//103 325//103
f 330//104 328//104 325//104
f 175//105 174//105 169//105
f 178//106 177//106 179//106
f 177//3 176//3 179//3
f 323//107 330//107 324//107
f 324//96 330//96 325//96
f 188//83 2//83 200//83
f 179//108 176//108 175//108
f 182//109 181//109 180//109
f 200//83 2//83 236//83
f 183//110 182//110 180//110
f 339//2 323//2 318//2
f 180//106 188//106 183//106
f 318//111 323//111 319//111
f 322//103 321//103 319//103
f 321//91 320//91 319//91
f 323//112 322//112 319//112
f 183//113 188//113 187//113
f 186//92 185//92 187//92
f 185//114 184//114 187//114
f 184//115 183//115 187//115
f 190//112 189//112 188//112
f 236//116 2//116 237//116
f 317//117 316//117 315//117
f 318//118 317//118 315//118
f 191//119 190//119 188//119
f 188//120 200//120 199//120
f 315//121 314//121 313//121
f 318//83 315//83 245//83
f 191//122 188//122 199//122
f 315//86 313//86 312//86
f 312//104 311//104 310//104
f 310//96 309//96 308//96
f 307//123 306//123 312//123
f 306//124 305//124 312//124
f 310//124 308//124 307//124
f 315//83 312//83 279//83
f 312//125 310//125 307//125
f 305//126 304//126 312//126
f 304//127 303//127 301//127
f 303//128 302//128 301//128
f 192//129 191//129 199//129
f 237//90 340//90 238//90
f 194//130 193//130 192//130
f 197//131 196//131 195//131
f 195//132 194//132 198//132
f 194//3 192//3 199//3
f 198//133 194//133 199//133
f 312//83 304//83 280//83
f 238//83 340//83 243//83
f 304//83 301//83 280//83
f 301//131 300//131 280//131
f 300//134 299//134 298//134
f 298//135 297//135 294//135
f 297//123 296//123 294//123
f 296//115 295//115 294//115
f 294//2 293//2 298//2
f 292//83 291//83 288//83
f 291//136 290//136 289//136
f 298//137 293//137 300//137
f 293//2 292//2 282//2
f 300//83 293//83 281//83
f 281//83 293//83 282//83
f 291//138 289//138 288//138
f 197//139 195//139 198//139
f 292//84 288//84 287//84
f 287//100 286//100 283//100
f 286//140 285//140 283//140
f 292//83 287//83 282//83
f 244//83 340//83 318//83
f 282//2 287//2 283//2
f 285//91 284//91 283//91
f 281//91 280//91 300//91
f 340//83 244//83 243//83
f 203//141 202//141 204//141
f 202//104 201//104 204//104
f 201//139 200//139 233//139
f 280//83 279//83 312//83
f 205//94 204//94 201//94
f 279//127 278//127 249//127
f 278//127 277//127 251//127
f 251//84 277//84 252//84
f 206//94 205//94 231//94
f 205//2 201//2 231//2
f 209//142 208//142 207//142
f 209//85 207//85 212//85
f 207//2 206//2 230//2
f 212//83 207//83 230//83
f 211//104 210//104 212//104
f 210//143 209//143 212//143
f 213//2 212//2 230//2
f 276//144 275//144 274//144
f 274//93 273//93 268//93
f 273//2 272//2 268//2
f 268//2 272//2 270//2
f 272//2 271//2 270//2
f 270//145 269//145 268//145
f 267//3 266//3 264//3
f 266//112 265//112 264//112
f 268//104 267//104 274//104
f 276//83 274//83 264//83
f 274//83 267//83 264//83
f 277//83 276//83 253//83
f 263//91 276//91 264//91
f 263//146 262//146 261//146
f 261//85 260//85 263//85
f 260//147 259//147 258//147
f 258//2 257//2 256//2
f 260//83 258//83 263//83
f 276//103 254//103 253//103
f 276//83 263//83 258//83
f 254//2 276//2 258//2
f 258//148 256//148 255//148
f 254//149 258//149 255//149
f 230//2 206//2 231//2
f 214//2 213//2 229//2
f 277//126 253//126 252//126
f 218//148 217//148 223//148
f 217//83 216//83 224//83
f 220//98 219//98 221//98
f 219//104 218//104 222//104
f 222//94 221//94 219//94
f 223//91 222//91 218//91
f 217//84 224//84 223//84
f 216//98 215//98 225//98
f 224//91 216//91 225//91
f 227//150 226//150 225//150
f 227//96 225//96 215//96
f 229//94 228//94 214//94
f 228//92 227//92 215//92
f 214//96 228//96 215//96
f 278//2 251//2 250//2
f 213//83 230//83 229//83
f 233//91 232//91 201//91
f 232//96 231//96 201//96
f 234//96 233//96 200//96
f 278//83 250//83 249//83
f 235//103 234//103 200//103
f 315//83 279//83 249//83
f 249//83 248//83 315//83
f 247//83 246//83 315//83
f 246//90 245//90 315//90
f 315//83 248//83 247//83
f 236//151 235//151 200//151
f 245//98 244//98 318//98
f 243//87 242//87 238//87
f 242//104 241//104 238//104
f 241//2 240//2 238//2
f 343//152 2//152 344//152
f 2//125 378//125 344//125
f 378//96 377//96 344//96
f 346//146 345//146 344//146
f 344//147 377//147 346//147
f 377//96 376//96 346//96
f 375//153 374//153 373//153
f 346//83 376//83 375//83
f 349//83 348//83 347//83
f 347//154 346//154 360//154
f 346//96 375//96 370//96
f 373//155 372//155 371//155
f 346//150 370//150 361//150
f 375//155 373//155 371//155
f 350//104 349//104 351//104
f 349//91 347//91 356//91
f 351//92 349//92 356//92
f 355//156 352//156 351//156
f 375//157 371//157 370//157
f 370//104 369//104 361//104
f 369//104 368//104 362//104
f 360//158 346//158 361//158
f 355//96 351//96 356//96
f 358//159 357//159 356//159
f 368//127 367//127 363//127
f 367//150 366//150 365//150
f 363//91 367//91 364//91
f 365//92 364//92 367//92
f 368//2 363//2 362//2
f 358//91 356//91 347//91
f 359//150 358//150 347//150
f 369//154 362//154 361//154
f 355//160 354//160 353//160
