# Blender v2.81 (sub 16) OBJ File: ''
# www.blender.org
mtllib Burundi.mtl
o 0_Burundi_sphere.001
v 4.354615 -0.313955 -2.436046
v 4.302577 -0.313955 -2.527280
v 4.297977 -0.255705 -2.541811
v 4.296157 -0.294134 -2.540735
v 4.295833 -0.300977 -2.540543
v 4.367269 -0.235535 -2.422570
v 4.354214 -0.235535 -2.445458
v 4.329906 -0.235535 -2.488073
v 4.303865 -0.235535 -2.533728
v 4.308024 -0.201613 -2.529127
v 4.307879 -0.201508 -2.529388
v 4.307659 -0.201990 -2.529737
v 4.307395 -0.203217 -2.530102
v 4.307122 -0.203910 -2.530526
v 4.304647 -0.207834 -2.534554
v 4.303168 -0.209216 -2.537037
v 4.301749 -0.209343 -2.539515
v 4.303053 -0.212965 -2.536941
v 4.303569 -0.214808 -2.535891
v 4.304934 -0.222859 -2.532860
v 4.305193 -0.225631 -2.532185
v 4.305353 -0.226552 -2.531833
v 4.305730 -0.227642 -2.531084
v 4.306695 -0.229611 -2.529238
v 4.307013 -0.230693 -2.528594
v 4.307106 -0.232845 -2.528260
v 4.306594 -0.233790 -2.529082
v 4.305758 -0.233814 -2.530547
v 4.304868 -0.233218 -2.532154
v 4.303369 -0.231804 -2.534894
v 4.302405 -0.231073 -2.536642
v 4.302629 -0.232724 -2.536118
v 4.366925 -0.228495 -2.423730
v 4.366016 -0.226543 -2.425479
v 4.363521 -0.226185 -2.429881
v 4.362810 -0.226390 -2.431112
v 4.360108 -0.228689 -2.435666
v 4.359127 -0.229278 -2.437340
v 4.357285 -0.229731 -2.440534
v 4.356354 -0.230171 -2.442131
v 4.355536 -0.231079 -2.443494
v 4.354980 -0.231873 -2.444405
v 4.354932 -0.232281 -2.444457
v 4.354955 -0.233312 -2.444334
v 4.354764 -0.234499 -2.444576
v 4.329693 -0.234713 -2.488512
v 4.329348 -0.232804 -2.489269
v 4.329178 -0.230874 -2.489719
v 4.329193 -0.229896 -2.489772
v 4.329315 -0.220913 -2.490270
v 4.328605 -0.214293 -2.492040
v 4.329146 -0.207555 -2.491624
v 4.329013 -0.203079 -2.492212
v 4.329046 -0.202267 -2.492219
v 4.328939 -0.201773 -2.492445
v 4.328496 -0.201748 -2.493224
v 4.328134 -0.202150 -2.493827
v 4.327819 -0.202666 -2.494339
v 4.326931 -0.204128 -2.495779
v 4.326590 -0.204229 -2.496369
v 4.326229 -0.204161 -2.497007
v 4.325812 -0.204187 -2.497736
v 4.325304 -0.204545 -2.498600
v 4.324747 -0.205370 -2.499509
v 4.323296 -0.208589 -2.501799
v 4.322541 -0.209850 -2.503022
v 4.321597 -0.211068 -2.504581
v 4.320576 -0.211855 -2.506308
v 4.319611 -0.211798 -2.508005
v 4.318909 -0.210770 -2.509317
v 4.317119 -0.205826 -2.512848
v 4.317050 -0.205216 -2.513017
v 4.317058 -0.204391 -2.513068
v 4.316923 -0.203805 -2.513351
v 4.316415 -0.203910 -2.514233
v 4.315018 -0.205251 -2.516576
v 4.314475 -0.205500 -2.517509
v 4.313780 -0.205443 -2.518731
v 4.312964 -0.205108 -2.520189
v 4.312168 -0.204584 -2.521625
v 4.311570 -0.203946 -2.522724
v 4.311049 -0.202914 -2.523720
v 4.310867 -0.202389 -2.524079
v 4.310705 -0.201913 -2.524403
v 4.310310 -0.201124 -2.525157
v 4.309629 -0.200717 -2.526383
v 4.309412 -0.200937 -2.526746
v 4.297376 -0.256349 -2.542725
v 4.296746 -0.256831 -2.543701
v 4.296535 -0.257081 -2.544020
v 4.296390 -0.257614 -2.544200
v 4.296196 -0.259033 -2.544368
v 4.296054 -0.259412 -2.544559
v 4.295433 -0.259660 -2.545547
v 4.294967 -0.259432 -2.546331
v 4.294525 -0.259087 -2.547090
v 4.293962 -0.259012 -2.548015
v 4.293381 -0.259404 -2.548923
v 4.292267 -0.260706 -2.550603
v 4.291648 -0.261044 -2.551578
v 4.290588 -0.260858 -2.553327
v 4.288500 -0.259711 -2.556855
v 4.287429 -0.259724 -2.558601
v 4.287686 -0.260765 -2.558073
v 4.287801 -0.261232 -2.557837
v 4.289071 -0.264351 -2.555436
v 4.289309 -0.265741 -2.554901
v 4.289021 -0.267020 -2.555236
v 4.287796 -0.269036 -2.557021
v 4.287289 -0.270244 -2.557723
v 4.287259 -0.270704 -2.557723
v 4.287420 -0.271868 -2.557337
v 4.287434 -0.272374 -2.557261
v 4.287241 -0.273032 -2.557508
v 4.286607 -0.273860 -2.558455
v 4.286389 -0.274482 -2.558745
v 4.286290 -0.275583 -2.558790
v 4.286316 -0.276675 -2.558633
v 4.286617 -0.278761 -2.557922
v 4.287182 -0.280522 -2.556815
v 4.287129 -0.281164 -2.556834
v 4.286854 -0.282714 -2.557119
v 4.286805 -0.283220 -2.557146
v 4.287386 -0.285567 -2.555950
v 4.288423 -0.287004 -2.554107
v 4.289679 -0.287277 -2.552028
v 4.290945 -0.286136 -2.550082
v 4.291038 -0.287173 -2.549822
v 4.291294 -0.287957 -2.549322
v 4.291719 -0.288437 -2.548576
v 4.292278 -0.288573 -2.547651
v 4.293486 -0.289478 -2.545585
v 4.294440 -0.290670 -2.543901
v 4.295232 -0.292204 -2.542448
v 4.295648 -0.294465 -2.541531
v 4.294200 -0.295898 -2.543743
v 4.294150 -0.298223 -2.543579
v 4.295250 -0.300441 -2.541552
v 4.302786 -0.315775 -2.526653
v 4.304213 -0.321431 -2.523344
v 4.304419 -0.323000 -2.522757
v 4.304367 -0.324687 -2.522609
v 4.304091 -0.326157 -2.522881
v 4.303765 -0.327500 -2.523262
v 4.303546 -0.328862 -2.523451
v 4.303600 -0.330396 -2.523137
v 4.305602 -0.329129 -2.519809
v 4.306605 -0.330539 -2.517848
v 4.307908 -0.336336 -2.514735
v 4.309887 -0.341035 -2.510594
v 4.310297 -0.342824 -2.509619
v 4.310660 -0.349116 -2.508086
v 4.311131 -0.352391 -2.506791
v 4.311213 -0.352943 -2.506570
v 4.312010 -0.356485 -2.504665
v 4.313118 -0.359691 -2.502266
v 4.315758 -0.364642 -2.496929
v 4.316127 -0.365945 -2.496097
v 4.316905 -0.371265 -2.493973
v 4.317362 -0.372655 -2.492973
v 4.318258 -0.373749 -2.491246
v 4.318653 -0.374461 -2.490453
v 4.320032 -0.376159 -2.487792
v 4.321405 -0.379092 -2.484966
v 4.323570 -0.381267 -2.480859
v 4.323934 -0.381528 -2.480185
v 4.324671 -0.381286 -2.478926
v 4.325172 -0.380811 -2.478115
v 4.325638 -0.380692 -2.477315
v 4.326287 -0.381559 -2.476055
v 4.326352 -0.383289 -2.475693
v 4.326528 -0.384034 -2.475279
v 4.327221 -0.384727 -2.473964
v 4.327465 -0.385241 -2.473463
v 4.327549 -0.386476 -2.473138
v 4.327500 -0.387598 -2.473065
v 4.327570 -0.388578 -2.472801
v 4.328023 -0.389353 -2.471897
v 4.328229 -0.389198 -2.471558
v 4.330013 -0.388921 -2.468470
v 4.332202 -0.387915 -2.464776
v 4.342304 -0.388151 -2.447031
v 4.344966 -0.367090 -2.445373
v 4.345312 -0.365424 -2.445004
v 4.347029 -0.357058 -2.443189
v 4.350255 -0.347943 -2.438836
v 4.352114 -0.344364 -2.436088
v 4.352886 -0.342484 -2.435002
v 4.353444 -0.340156 -2.434358
v 4.354435 -0.329855 -2.434090
v 4.354370 -0.323508 -2.435112
v 4.354328 -0.319819 -2.435712
v 4.304897 -0.237969 -2.531650
v 4.305189 -0.239108 -2.531012
v 4.305266 -0.240455 -2.530726
v 4.305176 -0.242670 -2.530638
v 4.305992 -0.245230 -2.528923
v 4.306394 -0.247161 -2.528003
v 4.306228 -0.248665 -2.528128
v 4.305012 -0.251495 -2.529946
v 4.304296 -0.252742 -2.531062
v 4.303492 -0.253180 -2.532424
v 4.303644 -0.254134 -2.532052
v 4.303361 -0.254830 -2.532470
v 4.302950 -0.255579 -2.533106
v 4.302717 -0.256664 -2.533396
v 4.302512 -0.256500 -2.533772
v 4.301773 -0.254129 -2.535332
v 4.301300 -0.253275 -2.536256
v 4.300722 -0.252831 -2.537320
v 4.300366 -0.252951 -2.537930
v 4.297215 -0.302341 -2.537970
v 4.297711 -0.303692 -2.536949
v 4.298026 -0.304295 -2.536330
v 4.298313 -0.304511 -2.535804
v 4.299432 -0.305043 -2.533781
v 4.299526 -0.306016 -2.533510
v 4.300383 -0.306340 -2.531971
v 4.301201 -0.306376 -2.530532
v 4.301414 -0.307674 -2.530015
v 4.301505 -0.308025 -2.529816
v 4.302623 -0.309765 -2.527664
v 4.302809 -0.310810 -2.527221
v 4.302624 -0.312558 -2.527351
v 4.354652 -0.312970 -2.436091
v 4.356531 -0.290787 -2.435259
v 4.356566 -0.288231 -2.435482
v 4.356436 -0.287066 -2.435840
v 4.355530 -0.285208 -2.437635
v 4.355343 -0.284824 -2.438005
v 4.356137 -0.283633 -2.436744
v 4.356520 -0.281926 -2.436263
v 4.356921 -0.276102 -2.436207
v 4.356856 -0.274332 -2.436518
v 4.356604 -0.272859 -2.437123
v 4.356085 -0.272234 -2.438102
v 4.355936 -0.271232 -2.438475
v 4.355997 -0.270656 -2.438432
v 4.356537 -0.265625 -2.438043
v 4.356997 -0.264335 -2.437381
v 4.357639 -0.263408 -2.436357
v 4.358405 -0.262840 -2.435078
v 4.359210 -0.262655 -2.433687
v 4.360071 -0.261990 -2.432250
v 4.360515 -0.260431 -2.431646
v 4.360771 -0.258627 -2.431398
v 4.361091 -0.257238 -2.430991
v 4.361782 -0.256356 -2.429877
v 4.362593 -0.255829 -2.428513
v 4.363288 -0.255129 -2.427372
v 4.363634 -0.253733 -2.426922
v 4.363767 -0.252327 -2.426844
v 4.363986 -0.251461 -2.426556
v 4.364718 -0.249563 -2.425484
v 4.365222 -0.247233 -2.424860
v 4.365448 -0.246539 -2.424540
v 4.366120 -0.245967 -2.423425
v 4.367028 -0.245802 -2.421851
v 4.367834 -0.245350 -2.420488
v 4.368251 -0.243883 -2.419921
v 4.368253 -0.242027 -2.420123
v 4.368035 -0.240541 -2.420671
v 4.367532 -0.239582 -2.421659
v 4.366667 -0.239349 -2.423201
v 4.367334 -0.237248 -2.422265
v 4.353738 -0.236356 -2.446199
v 4.353425 -0.237436 -2.446630
v 4.353471 -0.238428 -2.446438
v 4.354001 -0.239908 -2.445345
v 4.354105 -0.240818 -2.445061
v 4.353960 -0.241828 -2.445204
v 4.353471 -0.243639 -2.445859
v 4.353369 -0.244729 -2.445918
v 4.352909 -0.246386 -2.446541
v 4.351856 -0.246184 -2.448409
v 4.350065 -0.244547 -2.451730
v 4.349296 -0.244364 -2.453099
v 4.348449 -0.244675 -2.454549
v 4.346856 -0.245259 -2.457277
v 4.345794 -0.246402 -2.459012
v 4.344996 -0.245841 -2.460473
v 4.344234 -0.244805 -2.461923
v 4.343298 -0.244550 -2.463594
v 4.342849 -0.244586 -2.464377
v 4.342519 -0.244313 -2.464987
v 4.342212 -0.243917 -2.465568
v 4.340968 -0.242977 -2.467853
v 4.340660 -0.243014 -2.468390
v 4.340181 -0.243322 -2.469196
v 4.338322 -0.244519 -2.472321
v 4.337493 -0.244771 -2.473746
v 4.336535 -0.244528 -2.475454
v 4.336139 -0.244013 -2.476205
v 4.335988 -0.243202 -2.476559
v 4.335931 -0.241371 -2.476862
v 4.335649 -0.240560 -2.477447
v 4.335150 -0.240552 -2.478322
v 4.334158 -0.241138 -2.479997
v 4.333078 -0.241202 -2.481883
v 4.332215 -0.240871 -2.483432
v 4.331450 -0.239906 -2.484883
v 4.330650 -0.238095 -2.486485
v 4.330147 -0.236520 -2.487543
vn 0.8680 -0.0395 -0.4950
vn 0.8680 -0.0384 -0.4950
vn 0.8680 -0.0404 -0.4950
vn 0.8513 -0.0549 -0.5219
vn 0.8513 -0.0547 -0.5218
vn 0.8664 -0.0704 -0.4943
vn 0.8673 -0.0560 -0.4947
vn 0.8679 -0.0396 -0.4951
vn 0.8679 -0.0385 -0.4952
vn 0.8680 -0.0392 -0.4950
vn 0.8680 -0.0398 -0.4950
vn 0.8680 -0.0394 -0.4951
vn 0.8680 -0.0393 -0.4951
vn 0.8680 -0.0390 -0.4951
vn 0.8680 -0.0399 -0.4950
vn 0.8680 -0.0377 -0.4952
vn 0.8680 -0.0392 -0.4951
vn 0.8679 -0.0390 -0.4952
vn 0.8680 -0.0394 -0.4950
vn 0.8680 -0.0391 -0.4951
vn 0.8677 -0.0397 -0.4956
vn 0.8679 -0.0393 -0.4951
vn 0.8678 -0.0385 -0.4955
vn 0.8677 -0.0398 -0.4955
vn 0.8680 -0.0396 -0.4950
vn 0.8677 -0.0391 -0.4955
vn 0.8685 -0.0410 -0.4939
vn 0.8680 -0.0393 -0.4950
vn 0.8678 -0.0402 -0.4952
vn 0.8683 -0.0380 -0.4946
vn 0.8680 -0.0388 -0.4950
vn 0.8681 -0.0373 -0.4949
vn 0.8678 -0.0395 -0.4953
vn 0.8683 -0.0418 -0.4943
vn 0.8680 -0.0390 -0.4950
vn 0.8679 -0.0394 -0.4951
vn 0.8679 -0.0391 -0.4951
vn 0.8678 -0.0393 -0.4953
vn 0.8680 -0.0392 -0.4949
vn 0.8680 -0.0391 -0.4950
vn 0.8679 -0.0399 -0.4951
vn 0.8679 -0.0400 -0.4951
vn 0.8680 -0.0371 -0.4952
vn 0.8678 -0.0400 -0.4953
vn 0.8680 -0.0399 -0.4949
vn 0.8678 -0.0389 -0.4954
vn 0.8679 -0.0401 -0.4951
vn 0.8680 -0.0386 -0.4951
vn 0.8680 -0.0401 -0.4949
vn 0.8681 -0.0388 -0.4948
vn 0.8678 -0.0390 -0.4954
vn 0.8684 -0.0416 -0.4942
vn 0.8679 -0.0408 -0.4951
vn 0.8679 -0.0398 -0.4952
vn 0.8680 -0.0383 -0.4950
vn 0.8516 -0.0549 -0.5214
vn 0.8513 -0.0549 -0.5218
vn 0.8513 -0.0548 -0.5218
vn 0.8514 -0.0549 -0.5216
vn 0.8514 -0.0549 -0.5217
vn 0.8512 -0.0550 -0.5219
vn 0.8518 -0.0548 -0.5210
vn 0.8512 -0.0574 -0.5217
vn 0.8516 -0.0559 -0.5211
vn 0.8513 -0.0534 -0.5219
vn 0.8513 -0.0548 -0.5217
vn 0.8516 -0.0542 -0.5214
vn 0.8511 -0.0548 -0.5222
vn 0.8516 -0.0551 -0.5213
vn 0.8514 -0.0555 -0.5215
vn 0.8513 -0.0557 -0.5217
vn 0.8514 -0.0551 -0.5217
vn 0.8520 -0.0523 -0.5210
vn 0.8514 -0.0552 -0.5216
vn 0.8512 -0.0550 -0.5220
vn 0.8515 -0.0550 -0.5214
vn 0.8514 -0.0548 -0.5217
vn 0.8515 -0.0545 -0.5216
vn 0.8511 -0.0552 -0.5222
vn 0.8510 -0.0554 -0.5222
vn 0.8513 -0.0549 -0.5217
vn 0.8516 -0.0548 -0.5213
vn 0.8514 -0.0550 -0.5217
vn 0.8512 -0.0543 -0.5219
vn 0.8514 -0.0554 -0.5215
vn 0.8512 -0.0527 -0.5222
vn 0.8513 -0.0552 -0.5218
vn 0.8514 -0.0564 -0.5215
vn 0.8514 -0.0531 -0.5218
vn 0.8513 -0.0551 -0.5218
vn 0.8517 -0.0557 -0.5211
vn 0.8514 -0.0556 -0.5216
vn 0.8514 -0.0545 -0.5216
vn 0.8514 -0.0551 -0.5216
vn 0.8514 -0.0546 -0.5216
vn 0.8512 -0.0544 -0.5220
vn 0.8515 -0.0552 -0.5214
vn 0.8665 -0.0707 -0.4942
vn 0.8665 -0.0706 -0.4942
vn 0.8665 -0.0705 -0.4942
vn 0.8664 -0.0705 -0.4943
vn 0.8664 -0.0707 -0.4943
vn 0.8672 -0.0709 -0.4929
vn 0.8665 -0.0708 -0.4941
vn 0.8665 -0.0702 -0.4943
vn 0.8665 -0.0703 -0.4943
vn 0.8667 -0.0700 -0.4939
vn 0.8665 -0.0697 -0.4944
vn 0.8665 -0.0703 -0.4941
vn 0.8664 -0.0707 -0.4942
vn 0.8664 -0.0714 -0.4942
vn 0.8664 -0.0701 -0.4944
vn 0.8665 -0.0706 -0.4941
vn 0.8664 -0.0703 -0.4943
vn 0.8664 -0.0709 -0.4943
vn 0.8664 -0.0706 -0.4943
vn 0.8667 -0.0702 -0.4939
vn 0.8663 -0.0708 -0.4944
vn 0.8667 -0.0682 -0.4941
vn 0.8663 -0.0708 -0.4945
vn 0.8666 -0.0704 -0.4940
vn 0.8697 -0.0717 -0.4884
vn 0.8666 -0.0704 -0.4941
vn 0.8661 -0.0694 -0.4950
vn 0.8665 -0.0693 -0.4943
vn 0.8668 -0.0706 -0.4937
vn 0.8663 -0.0711 -0.4944
vn 0.8665 -0.0704 -0.4941
vn 0.8666 -0.0689 -0.4943
vn 0.8667 -0.0691 -0.4941
vn 0.8663 -0.0702 -0.4946
vn 0.8673 -0.0550 -0.4947
vn 0.8669 -0.0550 -0.4954
vn 0.8674 -0.0545 -0.4946
vn 0.8673 -0.0549 -0.4947
vn 0.8668 -0.0560 -0.4955
vn 0.8673 -0.0553 -0.4947
vn 0.8665 -0.0547 -0.4961
vn 0.8671 -0.0551 -0.4950
vn 0.8671 -0.0544 -0.4952
vn 0.8676 -0.0557 -0.4942
vn 0.8673 -0.0547 -0.4948
vn 0.8675 -0.0547 -0.4944
vn 0.8672 -0.0549 -0.4949
vn 0.8674 -0.0542 -0.4946
vn 0.8668 -0.0556 -0.4955
vn 0.8674 -0.0550 -0.4946
vn 0.8673 -0.0543 -0.4948
vn 0.8675 -0.0546 -0.4944
vn 0.8681 -0.0549 -0.4933
vn 0.8675 -0.0554 -0.4944
vn 0.8669 -0.0551 -0.4955
vn 0.8673 -0.0549 -0.4948
vn 0.8672 -0.0568 -0.4947
vn 0.8673 -0.0550 -0.4948
vn 0.8676 -0.0542 -0.4942
vn 0.8673 -0.0548 -0.4947
vn 0.8671 -0.0589 -0.4946
vn 0.8673 -0.0544 -0.4948
vn 0.8669 -0.0546 -0.4955
vn 0.8670 -0.0546 -0.4953
vn 0.8673 -0.0534 -0.4949
vn 0.8677 -0.0523 -0.4944
vn 0.8673 -0.0551 -0.4947
vn 0.8674 -0.0547 -0.4946
vn 0.8668 -0.0533 -0.4958
vn 0.8673 -0.0545 -0.4948
vn 0.8674 -0.0553 -0.4945
vn 0.8672 -0.0547 -0.4950
vn 0.8672 -0.0550 -0.4949
vn 0.8673 -0.0546 -0.4947
vn 0.8674 -0.0548 -0.4946
vn 0.8673 -0.0561 -0.4946
vn 0.8672 -0.0552 -0.4949
vn 0.8671 -0.0553 -0.4950
vn 0.8673 -0.0547 -0.4947
vn 0.8673 -0.0545 -0.4947
vn 0.8680 -0.0563 -0.4934
vn 0.8673 -0.0552 -0.4947
vn 0.8675 -0.0522 -0.4947
vn 0.8672 -0.0547 -0.4949
vn 0.8673 -0.0570 -0.4946
vn 0.8674 -0.0546 -0.4946
vn 0.8673 -0.0551 -0.4946
vn 0.8674 -0.0549 -0.4946
vn 0.8673 -0.0555 -0.4947
vn 0.8673 -0.0551 -0.4948
vn 0.8672 -0.0545 -0.4950
vn 0.8669 -0.0552 -0.4954
vn 0.8674 -0.0548 -0.4947
vn 0.8672 -0.0555 -0.4949
vn 0.8674 -0.0543 -0.4946
vn 0.8672 -0.0553 -0.4949
vn 0.8673 -0.0556 -0.4946
vn 0.8674 -0.0547 -0.4947
vn 0.8674 -0.0557 -0.4945
vn 0.8670 -0.0568 -0.4950
vn 0.8672 -0.0626 -0.4940
vn 0.8672 -0.0564 -0.4947
vn 0.8674 -0.0536 -0.4947
vn 0.8676 -0.0515 -0.4946
vn 0.8672 -0.0538 -0.4950
usemtl None
s off
f 20//1 79//1 78//1
f 12//2 11//2 10//2
f 87//3 85//3 10//3
f 38//1 37//1 6//1
f 135//4 4//4 138//4
f 100//5 107//5 101//5
f 183//6 170//6 169//6
f 290//7 285//7 284//7
f 9//8 32//8 30//8
f 32//9 31//9 30//9
f 30//10 29//10 9//10
f 46//11 8//11 26//11
f 8//12 9//12 27//12
f 47//13 46//13 26//13
f 8//14 27//14 26//14
f 9//15 29//15 28//15
f 9//16 28//16 27//16
f 48//17 47//17 26//17
f 50//17 49//17 68//17
f 49//14 48//14 68//14
f 50//18 68//18 67//18
f 53//19 52//19 59//19
f 52//20 51//20 64//20
f 59//21 52//21 60//21
f 51//13 50//13 67//13
f 48//17 26//17 69//17
f 26//22 25//22 69//22
f 55//23 54//23 56//23
f 54//24 53//24 56//24
f 68//25 48//25 69//25
f 24//26 23//26 20//26
f 23//27 22//27 21//27
f 51//28 67//28 66//28
f 25//25 24//25 70//25
f 58//29 57//29 53//29
f 57//30 56//30 53//30
f 59//31 58//31 53//31
f 23//19 21//19 20//19
f 62//32 61//32 63//32
f 61//33 60//33 64//33
f 63//34 61//34 64//34
f 65//35 64//35 51//35
f 64//36 60//36 52//36
f 66//8 65//8 51//8
f 24//17 20//17 78//17
f 20//13 19//13 80//13
f 14//37 19//37 15//37
f 18//36 17//36 16//36
f 19//38 18//38 15//38
f 18//39 16//39 15//39
f 19//12 14//12 81//12
f 19//40 81//40 80//40
f 69//20 25//20 70//20
f 14//41 13//41 82//41
f 81//20 14//20 82//20
f 13//18 12//18 10//18
f 10//17 85//17 84//17
f 10//42 84//42 83//42
f 13//40 10//40 83//40
f 13//43 83//43 82//43
f 71//35 70//35 76//35
f 70//17 24//17 78//17
f 76//44 70//44 77//44
f 74//45 73//45 75//45
f 73//46 72//46 75//46
f 72//47 71//47 76//47
f 20//37 80//37 79//37
f 76//48 75//48 72//48
f 77//49 70//49 78//49
f 87//50 86//50 85//50
f 6//17 7//17 45//17
f 44//51 43//51 41//51
f 43//52 42//52 41//52
f 6//20 45//20 38//20
f 45//53 44//53 39//53
f 38//25 45//25 39//25
f 34//36 33//36 35//36
f 33//10 6//10 35//10
f 36//54 35//54 6//54
f 37//17 36//17 6//17
f 41//35 40//35 44//35
f 40//55 39//55 44//55
f 4//56 5//56 138//56
f 138//57 137//57 135//57
f 137//58 136//58 135//58
f 3//59 4//59 93//59
f 4//60 134//60 93//60
f 134//61 133//61 93//61
f 3//62 93//62 92//62
f 90//63 89//63 91//63
f 89//64 88//64 91//64
f 88//65 3//65 92//65
f 133//59 132//59 93//59
f 92//66 91//66 88//66
f 132//67 131//67 127//67
f 131//68 130//68 128//68
f 130//69 129//69 128//69
f 128//70 127//70 131//70
f 127//71 126//71 125//71
f 125//72 124//72 121//72
f 124//73 123//73 122//73
f 121//74 124//74 122//74
f 120//75 119//75 114//75
f 119//60 118//60 114//60
f 118//76 117//76 114//76
f 125//77 121//77 127//77
f 121//78 120//78 127//78
f 117//79 116//79 115//79
f 114//80 117//80 115//80
f 132//81 127//81 93//81
f 127//60 120//60 113//60
f 120//82 114//82 113//82
f 127//83 113//83 108//83
f 113//84 112//84 108//84
f 112//85 111//85 109//85
f 111//86 110//86 109//86
f 109//57 108//57 112//57
f 93//66 127//66 94//66
f 94//60 127//60 108//60
f 97//87 96//87 98//87
f 96//88 95//88 98//88
f 95//89 94//89 99//89
f 94//90 108//90 99//90
f 108//91 107//91 99//91
f 99//92 98//92 95//92
f 107//93 106//93 101//93
f 99//94 107//94 100//94
f 106//95 105//95 102//95
f 105//96 104//96 102//96
f 104//97 103//97 102//97
f 102//72 101//72 106//72
f 2//98 1//98 140//98
f 1//99 192//99 150//99
f 140//100 1//100 148//100
f 192//100 191//100 186//100
f 191//101 190//101 186//101
f 190//102 189//102 186//102
f 189//103 188//103 187//103
f 186//104 189//104 187//104
f 185//99 184//99 169//99
f 184//105 183//105 169//105
f 185//106 158//106 157//106
f 186//98 185//98 151//98
f 192//99 186//99 151//99
f 140//107 139//107 2//107
f 148//99 1//99 150//99
f 192//99 151//99 150//99
f 140//108 148//108 141//108
f 183//99 182//99 181//99
f 158//99 185//99 169//99
f 142//109 141//109 147//109
f 183//99 181//99 170//99
f 181//110 180//110 174//110
f 174//111 180//111 175//111
f 179//112 178//112 177//112
f 180//100 179//100 175//100
f 143//113 142//113 147//113
f 141//98 148//98 147//98
f 145//114 144//114 147//114
f 144//115 143//115 147//115
f 147//98 146//98 145//98
f 150//116 149//116 148//116
f 179//102 177//102 176//102
f 175//117 179//117 176//117
f 151//99 185//99 157//99
f 181//118 174//118 173//118
f 173//119 172//119 171//119
f 181//102 173//102 170//102
f 153//120 152//120 157//120
f 152//121 151//121 157//121
f 155//122 154//122 153//122
f 157//123 156//123 153//123
f 156//124 155//124 153//124
f 160//125 159//125 161//125
f 159//109 158//109 161//109
f 162//126 161//126 163//126
f 161//116 158//116 163//116
f 173//127 171//127 170//127
f 165//104 164//104 168//104
f 164//128 163//128 168//128
f 167//129 166//129 165//129
f 168//130 167//130 165//130
f 163//110 158//110 169//110
f 168//131 163//131 169//131
f 1//132 2//132 223//132
f 2//133 224//133 223//133
f 227//134 226//134 229//134
f 226//135 225//135 230//135
f 229//136 226//136 230//136
f 225//137 1//137 223//137
f 222//138 221//138 220//138
f 225//135 223//135 230//135
f 223//139 222//139 292//139
f 230//135 223//135 292//135
f 228//140 227//140 229//140
f 222//141 220//141 219//141
f 219//142 218//142 216//142
f 218//143 217//143 216//143
f 222//144 219//144 206//144
f 232//145 231//145 230//145
f 234//146 233//146 236//146
f 233//144 232//144 230//144
f 236//147 233//147 230//147
f 236//148 235//148 234//148
f 230//149 292//149 291//149
f 237//150 236//150 230//150
f 216//151 215//151 212//151
f 215//152 214//152 213//152
f 219//132 216//132 4//132
f 230//135 291//135 280//135
f 237//153 230//153 280//153
f 222//132 200//132 300//132
f 215//154 213//154 212//154
f 212//155 5//155 4//155
f 238//156 237//156 280//156
f 200//135 222//135 206//135
f 239//155 238//155 280//155
f 216//157 212//157 4//157
f 4//153 3//153 206//153
f 3//134 211//134 208//134
f 207//135 3//135 208//135
f 211//158 210//158 209//158
f 209//159 208//159 211//159
f 206//160 205//160 204//160
f 206//161 204//161 200//161
f 204//162 203//162 200//162
f 3//163 207//163 206//163
f 240//164 239//164 274//164
f 4//135 206//135 219//135
f 203//165 202//165 201//165
f 203//166 201//166 200//166
f 241//164 240//164 274//164
f 239//135 280//135 275//135
f 244//167 243//167 245//167
f 243//168 242//168 245//168
f 242//169 241//169 247//169
f 239//170 275//170 274//170
f 200//171 199//171 300//171
f 246//135 245//135 242//135
f 292//135 222//135 300//135
f 199//164 198//164 303//164
f 197//172 196//172 195//172
f 198//157 197//157 8//157
f 247//173 246//173 242//173
f 250//159 249//159 251//159
f 249//174 248//174 252//174
f 251//175 249//175 252//175
f 247//135 241//135 274//135
f 248//157 247//157 273//157
f 197//173 195//173 194//173
f 193//176 9//176 8//176
f 197//132 194//132 8//132
f 300//173 199//173 301//173
f 194//177 193//177 8//177
f 8//167 303//167 198//167
f 252//178 248//178 253//178
f 303//179 302//179 199//179
f 302//171 301//171 199//171
f 255//157 254//157 253//157
f 300//180 299//180 293//180
f 259//181 258//181 260//181
f 258//135 257//135 264//135
f 261//153 258//153 264//153
f 261//132 260//132 258//132
f 263//182 262//182 264//182
f 262//183 261//183 264//183
f 6//184 265//184 264//184
f 257//185 256//185 264//185
f 7//164 6//164 264//164
f 264//132 256//132 270//132
f 256//186 255//186 270//186
f 266//187 7//187 269//187
f 7//135 264//135 270//135
f 268//188 267//188 266//188
f 269//147 268//147 266//147
f 7//189 270//189 269//189
f 298//190 297//190 294//190
f 297//191 296//191 295//191
f 294//192 297//192 295//192
f 299//193 298//193 293//193
f 298//194 294//194 293//194
f 255//195 253//195 271//195
f 270//171 255//171 271//171
f 273//196 272//196 271//196
f 300//197 293//197 292//197
f 273//164 271//164 253//164
f 274//172 273//172 247//172
f 273//132 253//132 248//132
f 290//157 289//157 285//157
f 289//198 288//198 287//198
f 285//199 289//199 286//199
f 289//200 287//200 286//200
f 291//159 290//159 281//159
f 280//173 291//173 281//173
f 277//201 276//201 278//201
f 276//164 275//164 278//164
f 279//202 278//202 280//202
f 280//132 278//132 275//132
f 283//134 282//134 281//134
f 284//181 283//181 281//181
f 284//179 281//179 290//179
