# Blender v2.81 (sub 16) OBJ File: ''
# www.blender.org
mtllib Burundi.mtl
o 0_Burundi_sphere.001
v 4.248646 -0.169827 -2.510343
v 4.248480 -0.169696 -2.510693
v 4.248195 -0.170329 -2.511144
v 4.247818 -0.171915 -2.511613
v 4.247458 -0.172818 -2.512165
v 4.244317 -0.177980 -2.517444
v 4.242490 -0.179831 -2.520712
v 4.240801 -0.180075 -2.523987
v 4.242162 -0.184636 -2.520535
v 4.242676 -0.186973 -2.519124
v 4.243886 -0.197241 -2.514991
v 4.244051 -0.200799 -2.514060
v 4.244192 -0.201974 -2.513581
v 4.244585 -0.203362 -2.512573
v 4.245635 -0.205863 -2.510084
v 4.245955 -0.207243 -2.509219
v 4.245961 -0.210020 -2.508733
v 4.245300 -0.211266 -2.509815
v 4.244298 -0.211337 -2.511769
v 4.243268 -0.210600 -2.513918
v 4.241555 -0.208843 -2.517580
v 4.240447 -0.207941 -2.519909
v 4.240627 -0.210064 -2.519194
v 4.243101 -0.216758 -2.513192
v 4.243410 -0.218227 -2.512332
v 4.243454 -0.219980 -2.511947
v 4.243269 -0.222865 -2.511816
v 4.244161 -0.226168 -2.509500
v 4.244576 -0.228675 -2.508257
v 4.244325 -0.230643 -2.508413
v 4.242777 -0.234373 -2.510811
v 4.241878 -0.236026 -2.512293
v 4.240901 -0.236622 -2.514107
v 4.241049 -0.237862 -2.513606
v 4.240685 -0.238778 -2.514162
v 4.240172 -0.239769 -2.515000
v 4.239855 -0.241194 -2.515377
v 4.239615 -0.240988 -2.515883
v 4.238818 -0.237913 -2.517975
v 4.238287 -0.236816 -2.519205
v 4.237612 -0.236253 -2.520626
v 4.237185 -0.236423 -2.521436
v 4.233545 -0.240951 -2.527803
v 4.232826 -0.241608 -2.529102
v 4.232581 -0.241943 -2.529527
v 4.232400 -0.242640 -2.529762
v 4.232127 -0.244499 -2.529979
v 4.231953 -0.244996 -2.530235
v 4.231250 -0.245347 -2.531554
v 4.230740 -0.245072 -2.532604
v 4.230263 -0.244640 -2.533612
v 4.229640 -0.244567 -2.534849
v 4.228977 -0.245103 -2.536058
v 4.227693 -0.246839 -2.538282
v 4.226992 -0.247307 -2.539577
v 4.225822 -0.247108 -2.541906
v 4.223563 -0.245712 -2.546580
v 4.222382 -0.245774 -2.548887
v 4.222621 -0.247110 -2.548188
v 4.222730 -0.247709 -2.547873
v 4.224009 -0.251698 -2.544680
v 4.224215 -0.253491 -2.543967
v 4.223846 -0.255162 -2.544406
v 4.222413 -0.257821 -2.546762
v 4.221801 -0.259404 -2.547692
v 4.221753 -0.260002 -2.547685
v 4.221887 -0.261508 -2.547163
v 4.221880 -0.262164 -2.547065
v 4.221640 -0.263024 -2.547390
v 4.220907 -0.264118 -2.548641
v 4.220641 -0.264931 -2.549023
v 4.220487 -0.266362 -2.549081
v 4.220476 -0.267781 -2.548860
v 4.220720 -0.270482 -2.547918
v 4.221275 -0.272759 -2.546438
v 4.221190 -0.273593 -2.546463
v 4.220825 -0.275619 -2.546833
v 4.220751 -0.276278 -2.546865
v 4.221296 -0.279323 -2.545273
v 4.222386 -0.281177 -2.542817
v 4.223767 -0.281511 -2.540048
v 4.225218 -0.279996 -2.537460
v 4.225279 -0.281350 -2.537109
v 4.225533 -0.282373 -2.536435
v 4.225986 -0.282991 -2.535441
v 4.226601 -0.283161 -2.534206
v 4.227911 -0.284327 -2.531434
v 4.228929 -0.285874 -2.529170
v 4.229755 -0.287877 -2.527206
v 4.230520 -0.290402 -2.525273
v 4.230132 -0.290841 -2.525960
v 4.228457 -0.292737 -2.528922
v 4.228311 -0.295792 -2.528685
v 4.229449 -0.298701 -2.525953
v 4.231683 -0.301196 -2.521142
v 4.232229 -0.302977 -2.519766
v 4.232583 -0.303772 -2.518936
v 4.232915 -0.304058 -2.518235
v 4.234240 -0.304758 -2.515515
v 4.234316 -0.306043 -2.515144
v 4.235329 -0.306471 -2.513083
v 4.236313 -0.306520 -2.511142
v 4.236522 -0.308235 -2.510441
v 4.236615 -0.308700 -2.510178
v 4.237899 -0.311004 -2.507263
v 4.238084 -0.312388 -2.506664
v 4.237804 -0.314702 -2.506817
v 4.237676 -0.316815 -2.506706
v 4.237915 -0.318967 -2.505868
v 4.239544 -0.326477 -2.501386
v 4.239764 -0.328561 -2.500597
v 4.239669 -0.330800 -2.500400
v 4.239316 -0.332748 -2.500760
v 4.238900 -0.334526 -2.501271
v 4.238617 -0.336332 -2.501518
v 4.238654 -0.338370 -2.501096
v 4.241086 -0.336715 -2.496606
v 4.242274 -0.338604 -2.493952
v 4.243755 -0.346342 -2.489721
v 4.246077 -0.352645 -2.484084
v 4.246539 -0.355038 -2.482767
v 4.246884 -0.363447 -2.480649
v 4.247402 -0.367837 -2.478882
v 4.247490 -0.368580 -2.478581
v 4.248401 -0.373333 -2.475980
v 4.249699 -0.377662 -2.472691
v 4.252839 -0.384392 -2.465377
v 4.253267 -0.386151 -2.464234
v 4.254132 -0.393323 -2.461309
v 4.254676 -0.395210 -2.459920
v 4.255751 -0.396713 -2.457552
v 4.256224 -0.397693 -2.456455
v 4.257890 -0.400037 -2.452785
v 4.259525 -0.404042 -2.448889
v 4.262152 -0.407078 -2.443215
v 4.262592 -0.407448 -2.442287
v 4.263508 -0.407155 -2.440539
v 4.264128 -0.406535 -2.439428
v 4.264708 -0.406400 -2.438315
v 4.265493 -0.407602 -2.436567
v 4.265546 -0.409938 -2.436063
v 4.265756 -0.410956 -2.435477
v 4.266599 -0.411928 -2.433657
v 4.266889 -0.412633 -2.432966
v 4.266980 -0.414306 -2.432501
v 4.266905 -0.415825 -2.432388
v 4.266976 -0.417152 -2.432020
v 4.267519 -0.418223 -2.430773
v 4.267777 -0.418026 -2.430299
v 4.269985 -0.417742 -2.426016
v 4.272716 -0.416490 -2.420870
v 4.285303 -0.417338 -2.396022
v 4.288937 -0.388796 -2.393777
v 4.289389 -0.386540 -2.393276
v 4.291657 -0.375224 -2.390760
v 4.295841 -0.362927 -2.384655
v 4.298224 -0.358103 -2.380805
v 4.299223 -0.355565 -2.379277
v 4.299953 -0.352407 -2.378386
v 4.301345 -0.338412 -2.378051
v 4.301339 -0.329785 -2.379540
v 4.301334 -0.324774 -2.380407
v 4.301844 -0.315479 -2.380999
v 4.304819 -0.285436 -2.380305
v 4.304930 -0.281985 -2.380678
v 4.304796 -0.280414 -2.381207
v 4.303704 -0.277920 -2.383778
v 4.303480 -0.277405 -2.384307
v 4.304511 -0.275790 -2.382561
v 4.305037 -0.273485 -2.381922
v 4.305699 -0.265634 -2.381966
v 4.305663 -0.263255 -2.382444
v 4.305389 -0.261279 -2.383322
v 4.304752 -0.260449 -2.384713
v 4.304590 -0.259106 -2.385261
v 4.304682 -0.258333 -2.385214
v 4.305494 -0.251567 -2.384778
v 4.306106 -0.249825 -2.383876
v 4.306935 -0.248564 -2.382463
v 4.307912 -0.247784 -2.380679
v 4.308935 -0.247512 -2.378720
v 4.310040 -0.246594 -2.376708
v 4.310636 -0.244490 -2.375898
v 4.311007 -0.242061 -2.375587
v 4.311441 -0.240191 -2.375053
v 4.312339 -0.238985 -2.373497
v 4.313371 -0.238254 -2.371598
v 4.314268 -0.237290 -2.370003
v 4.314740 -0.235407 -2.369400
v 4.314944 -0.233517 -2.369322
v 4.315246 -0.232347 -2.368929
v 4.316214 -0.229780 -2.367470
v 4.316914 -0.226633 -2.366636
v 4.317213 -0.225699 -2.366207
v 4.318077 -0.224908 -2.364647
v 4.319230 -0.224651 -2.362428
v 4.320265 -0.224011 -2.360506
v 4.320820 -0.222030 -2.359756
v 4.320872 -0.219545 -2.360080
v 4.320632 -0.217560 -2.360891
v 4.320020 -0.216297 -2.362309
v 4.318931 -0.216024 -2.364493
v 4.319829 -0.213181 -2.363217
v 4.319619 -0.201558 -2.365619
v 4.318547 -0.199013 -2.368158
v 4.315418 -0.198665 -2.374360
v 4.314521 -0.198968 -2.376068
v 4.311040 -0.202140 -2.382357
v 4.309780 -0.202973 -2.384687
v 4.307462 -0.203651 -2.389120
v 4.306281 -0.204278 -2.391332
v 4.305217 -0.205518 -2.393206
v 4.304491 -0.206596 -2.394447
v 4.304416 -0.207136 -2.394500
v 4.304400 -0.208497 -2.394298
v 4.304117 -0.210071 -2.394586
v 4.302772 -0.212579 -2.396796
v 4.302351 -0.214028 -2.397373
v 4.302381 -0.215346 -2.397089
v 4.303005 -0.217290 -2.395532
v 4.303110 -0.218500 -2.395120
v 4.302904 -0.219847 -2.395293
v 4.302245 -0.222277 -2.396170
v 4.302087 -0.223734 -2.396230
v 4.301463 -0.225962 -2.397073
v 4.300153 -0.225732 -2.399685
v 4.297972 -0.223617 -2.404327
v 4.297020 -0.223404 -2.406231
v 4.295953 -0.223850 -2.408249
v 4.293958 -0.224688 -2.412021
v 4.292606 -0.226246 -2.414406
v 4.291634 -0.225532 -2.416437
v 4.290720 -0.224182 -2.418462
v 4.289569 -0.223878 -2.420774
v 4.289010 -0.223946 -2.421859
v 4.288610 -0.223598 -2.422703
v 4.288245 -0.223083 -2.423507
v 4.286736 -0.221886 -2.426676
v 4.286352 -0.221947 -2.427418
v 4.285752 -0.222373 -2.428523
v 4.283423 -0.224029 -2.432809
v 4.282395 -0.224394 -2.434765
v 4.281224 -0.224108 -2.437112
v 4.280750 -0.223444 -2.438156
v 4.280593 -0.222376 -2.438646
v 4.280576 -0.219964 -2.439094
v 4.280252 -0.218903 -2.439912
v 4.279644 -0.218910 -2.441104
v 4.278405 -0.219725 -2.443396
v 4.277081 -0.219851 -2.445971
v 4.276033 -0.219450 -2.448097
v 4.275122 -0.218211 -2.450098
v 4.274198 -0.215862 -2.452314
v 4.273632 -0.213809 -2.453776
v 4.273148 -0.211459 -2.455128
v 4.272814 -0.208976 -2.456208
v 4.272700 -0.206466 -2.456861
v 4.272762 -0.205193 -2.456958
v 4.273330 -0.193481 -2.457849
v 4.272771 -0.184930 -2.460410
v 4.273737 -0.176179 -2.460012
v 4.273787 -0.170399 -2.460903
v 4.273864 -0.169345 -2.460933
v 4.273753 -0.168726 -2.461257
v 4.273219 -0.168717 -2.462307
v 4.272763 -0.169259 -2.463110
v 4.272357 -0.169944 -2.463788
v 4.271215 -0.171880 -2.465698
v 4.270799 -0.172031 -2.466491
v 4.270363 -0.171964 -2.467356
v 4.269856 -0.172030 -2.468340
v 4.269228 -0.172519 -2.469490
v 4.268514 -0.173616 -2.470702
v 4.266609 -0.177856 -2.473716
v 4.265639 -0.179528 -2.475333
v 4.264437 -0.181157 -2.477412
v 4.263170 -0.182228 -2.479716
v 4.262007 -0.182209 -2.482001
v 4.261213 -0.180928 -2.483779
v 4.259305 -0.174669 -2.488596
v 4.259253 -0.173883 -2.488833
v 4.259300 -0.172827 -2.488921
v 4.259166 -0.172084 -2.489312
v 4.258553 -0.172248 -2.490485
v 4.256816 -0.174052 -2.493586
v 4.256151 -0.174407 -2.494831
v 4.255321 -0.174378 -2.496464
v 4.254364 -0.173994 -2.498409
v 4.253438 -0.173370 -2.500333
v 4.252754 -0.172596 -2.501808
v 4.252184 -0.171301 -2.503148
v 4.251993 -0.170644 -2.503635
v 4.251825 -0.170047 -2.504068
v 4.251393 -0.169060 -2.505085
v 4.250603 -0.168582 -2.506717
v 4.250333 -0.168874 -2.507196
vn 0.8883 -0.0764 -0.4528
vn 0.8885 -0.0762 -0.4524
vn 0.8883 -0.0778 -0.4526
vn 0.8878 -0.0777 -0.4535
vn 0.8883 -0.0775 -0.4527
vn 0.8883 -0.0776 -0.4528
vn 0.8883 -0.0775 -0.4526
vn 0.8884 -0.0776 -0.4526
vn 0.8880 -0.0780 -0.4531
vn 0.8886 -0.0774 -0.4522
vn 0.8885 -0.0774 -0.4523
vn 0.8883 -0.0777 -0.4527
vn 0.8884 -0.0769 -0.4525
vn 0.8884 -0.0772 -0.4526
vn 0.8881 -0.0787 -0.4529
vn 0.8884 -0.0768 -0.4525
vn 0.8883 -0.0768 -0.4528
vn 0.8883 -0.0777 -0.4526
vn 0.8886 -0.0758 -0.4523
vn 0.8883 -0.0769 -0.4529
vn 0.8881 -0.0769 -0.4531
vn 0.8886 -0.0768 -0.4523
vn 0.8884 -0.0775 -0.4526
vn 0.8881 -0.0784 -0.4528
vn 0.8882 -0.0771 -0.4530
vn 0.8884 -0.0777 -0.4525
vn 0.8883 -0.0773 -0.4528
vn 0.8882 -0.0775 -0.4528
vn 0.8883 -0.0774 -0.4526
vn 0.8883 -0.0774 -0.4528
vn 0.8883 -0.0776 -0.4527
vn 0.8881 -0.0774 -0.4530
vn 0.8883 -0.0776 -0.4526
vn 0.8886 -0.0773 -0.4520
vn 0.8884 -0.0749 -0.4529
vn 0.8883 -0.0770 -0.4528
vn 0.8883 -0.0783 -0.4526
vn 0.8883 -0.0774 -0.4527
vn 0.8884 -0.0774 -0.4525
vn 0.8880 -0.0775 -0.4532
vn 0.8885 -0.0773 -0.4523
vn 0.8884 -0.0773 -0.4526
vn 0.8883 -0.0771 -0.4527
vn 0.8882 -0.0792 -0.4525
vn 0.8884 -0.0761 -0.4527
vn 0.8882 -0.0794 -0.4525
vn 0.8883 -0.0775 -0.4528
vn 0.8884 -0.0773 -0.4524
vn 0.8889 -0.0769 -0.4515
vn 0.8883 -0.0784 -0.4526
vn 0.8884 -0.0779 -0.4525
vn 0.8882 -0.0784 -0.4528
vn 0.8882 -0.0776 -0.4529
vn 0.8883 -0.0772 -0.4527
vn 0.8882 -0.0780 -0.4527
vn 0.8884 -0.0776 -0.4525
vn 0.8883 -0.0773 -0.4526
vn 0.8886 -0.0772 -0.4522
vn 0.8882 -0.0771 -0.4529
vn 0.8885 -0.0785 -0.4521
vn 0.8888 -0.0798 -0.4514
vn 0.8884 -0.0766 -0.4526
vn 0.8875 -0.0766 -0.4544
vn 0.8884 -0.0776 -0.4524
vn 0.8883 -0.0780 -0.4526
vn 0.8884 -0.0775 -0.4524
vn 0.8882 -0.0774 -0.4528
vn 0.8860 -0.0827 -0.4562
vn 0.8888 -0.0751 -0.4520
vn 0.8886 -0.0749 -0.4524
vn 0.8884 -0.0772 -0.4525
vn 0.8884 -0.0768 -0.4526
vn 0.8880 -0.0786 -0.4532
vn 0.8883 -0.0778 -0.4525
vn 0.8884 -0.0774 -0.4526
vn 0.8881 -0.0790 -0.4529
vn 0.8880 -0.0784 -0.4532
vn 0.8885 -0.0775 -0.4523
vn 0.8885 -0.0780 -0.4523
vn 0.8885 -0.0770 -0.4524
vn 0.8885 -0.0768 -0.4525
vn 0.8883 -0.0773 -0.4527
vn 0.8884 -0.0775 -0.4525
vn 0.8881 -0.0779 -0.4530
vn 0.8892 -0.0755 -0.4513
vn 0.8887 -0.0767 -0.4520
vn 0.8882 -0.0777 -0.4528
vn 0.8883 -0.0779 -0.4526
vn 0.8884 -0.0770 -0.4526
vn 0.8882 -0.0788 -0.4527
vn 0.8882 -0.0776 -0.4528
vn 0.8886 -0.0771 -0.4522
vn 0.8883 -0.0781 -0.4527
vn 0.8881 -0.0775 -0.4531
vn 0.8880 -0.0785 -0.4531
vn 0.8882 -0.0775 -0.4529
vn 0.8882 -0.0782 -0.4527
vn 0.8884 -0.0769 -0.4527
vn 0.8884 -0.0778 -0.4525
vn 0.8881 -0.0773 -0.4531
vn 0.8883 -0.0779 -0.4527
vn 0.8882 -0.0772 -0.4528
vn 0.8884 -0.0771 -0.4526
vn 0.8883 -0.0781 -0.4526
vn 0.8885 -0.0774 -0.4522
vn 0.8882 -0.0778 -0.4527
vn 0.8884 -0.0784 -0.4524
vn 0.8882 -0.0769 -0.4529
vn 0.8883 -0.0771 -0.4528
vn 0.8886 -0.0796 -0.4517
vn 0.8882 -0.0777 -0.4529
vn 0.8882 -0.0773 -0.4529
vn 0.8883 -0.0778 -0.4527
vn 0.8881 -0.0786 -0.4529
vn 0.8882 -0.0781 -0.4528
vn 0.8884 -0.0769 -0.4526
vn 0.8884 -0.0768 -0.4527
vn 0.8881 -0.0802 -0.4525
vn 0.8884 -0.0767 -0.4526
vn 0.8882 -0.0806 -0.4524
vn 0.8884 -0.0796 -0.4522
vn 0.8883 -0.0783 -0.4525
vn 0.8881 -0.0788 -0.4529
vn 0.8882 -0.0780 -0.4528
vn 0.8886 -0.0763 -0.4522
vn 0.8882 -0.0785 -0.4527
usemtl None
s off
f 251//1 250//1 244//1
f 3//2 2//2 1//2
f 296//3 294//3 1//3
f 72//4 71//4 70//4
f 72//5 70//5 69//5
f 74//6 73//6 69//6
f 73//7 72//7 69//7
f 75//8 74//8 69//8
f 78//9 77//9 79//9
f 77//10 76//10 79//10
f 75//11 69//11 68//11
f 79//12 76//12 80//12
f 76//13 75//13 82//13
f 81//14 80//14 82//14
f 82//7 80//7 76//7
f 84//15 83//15 85//15
f 83//16 82//16 86//16
f 85//17 83//17 86//17
f 75//5 68//5 82//5
f 67//18 66//18 64//18
f 66//19 65//19 64//19
f 82//7 68//7 63//7
f 68//20 67//20 63//20
f 67//21 64//21 63//21
f 87//22 86//22 82//22
f 88//5 87//5 48//5
f 87//7 82//7 48//7
f 49//23 63//23 54//23
f 82//7 63//7 49//7
f 63//24 62//24 54//24
f 54//3 62//3 55//3
f 61//7 60//7 57//7
f 60//25 59//25 57//25
f 59//3 58//3 57//3
f 62//26 61//26 56//26
f 55//27 62//27 56//27
f 89//28 88//28 37//28
f 61//29 57//29 56//29
f 90//5 89//5 37//5
f 82//30 49//30 48//30
f 92//31 91//31 93//31
f 91//32 90//32 94//32
f 94//33 93//33 91//33
f 97//34 96//34 98//34
f 96//35 95//35 98//35
f 95//31 94//31 90//31
f 101//36 100//36 99//36
f 99//37 98//37 95//37
f 99//38 95//38 90//38
f 102//39 101//39 99//39
f 104//40 103//40 105//40
f 103//41 102//41 105//41
f 102//42 99//42 90//42
f 54//43 53//43 50//43
f 53//44 52//44 51//44
f 50//45 53//45 51//45
f 50//46 49//46 54//46
f 88//7 48//7 37//7
f 102//7 90//7 37//7
f 105//47 102//47 37//47
f 108//48 107//48 109//48
f 107//47 106//47 109//47
f 106//38 105//38 243//38
f 47//42 46//42 43//42
f 46//49 45//49 44//49
f 43//50 46//50 44//50
f 105//7 37//7 31//7
f 48//51 47//51 38//51
f 37//52 48//52 38//52
f 110//53 109//53 106//53
f 43//33 42//33 38//33
f 42//54 41//54 40//54
f 38//55 42//55 39//55
f 40//56 39//56 42//56
f 47//57 43//57 38//57
f 37//58 36//58 35//58
f 110//12 106//12 118//12
f 251//42 31//42 252//42
f 111//59 110//59 118//59
f 31//7 251//7 105//7
f 37//60 35//60 31//60
f 35//61 34//61 31//61
f 105//7 251//7 243//7
f 118//7 106//7 243//7
f 34//62 33//62 32//62
f 34//63 32//63 31//63
f 31//18 30//18 252//18
f 112//64 111//64 117//64
f 30//65 29//65 254//65
f 252//33 30//33 253//33
f 115//7 114//7 117//7
f 114//12 113//12 117//12
f 116//42 115//42 117//42
f 117//54 113//54 112//54
f 120//66 119//66 118//66
f 118//38 117//38 111//38
f 120//7 118//7 163//7
f 28//38 27//38 26//38
f 121//29 120//29 163//29
f 29//5 28//5 17//5
f 28//7 26//7 17//7
f 17//38 26//38 18//38
f 26//67 25//67 18//67
f 122//27 121//27 127//27
f 127//7 121//7 155//7
f 124//68 123//68 125//68
f 123//64 122//64 127//64
f 126//16 125//16 123//16
f 127//53 126//53 123//53
f 121//7 162//7 156//7
f 130//69 129//69 131//69
f 129//12 128//12 131//12
f 128//18 127//18 155//18
f 162//7 121//7 163//7
f 128//7 155//7 139//7
f 131//33 128//33 133//33
f 133//70 132//70 131//70
f 133//7 128//7 139//7
f 133//67 139//67 138//67
f 135//71 134//71 138//71
f 134//26 133//26 138//26
f 137//56 136//56 135//56
f 138//72 137//72 135//72
f 118//7 243//7 168//7
f 142//73 141//73 143//73
f 141//18 140//18 143//18
f 140//7 139//7 154//7
f 253//54 30//54 254//54
f 24//57 23//57 20//57
f 23//3 22//3 21//3
f 23//18 21//18 20//18
f 25//74 24//74 18//74
f 24//75 20//75 19//75
f 24//29 19//29 18//29
f 144//76 143//76 151//76
f 143//23 140//23 151//23
f 147//77 146//77 149//77
f 146//78 145//78 149//78
f 155//7 121//7 156//7
f 148//79 147//79 149//79
f 29//7 17//7 256//7
f 145//56 144//56 150//56
f 149//7 145//7 150//7
f 151//7 150//7 144//7
f 17//18 16//18 278//18
f 139//7 155//7 154//7
f 15//29 14//29 11//29
f 14//80 13//80 12//80
f 14//81 12//81 11//81
f 151//29 140//29 153//29
f 152//7 151//7 153//7
f 16//59 15//59 279//59
f 15//7 11//7 287//7
f 288//82 11//82 289//82
f 11//7 288//7 287//7
f 11//7 10//7 289//7
f 290//7 10//7 5//7
f 153//5 140//5 154//5
f 10//83 290//83 289//83
f 254//14 29//14 255//14
f 9//7 8//7 7//7
f 10//83 9//83 6//83
f 158//78 157//78 159//78
f 157//18 156//18 159//18
f 9//38 7//38 6//38
f 6//33 5//33 10//33
f 160//33 159//33 156//33
f 162//56 161//56 156//56
f 161//38 160//38 156//38
f 165//84 164//84 167//84
f 164//5 163//5 168//5
f 167//85 164//85 168//85
f 166//86 165//86 167//86
f 4//87 3//87 1//87
f 5//88 4//88 291//88
f 4//89 1//89 292//89
f 1//54 294//54 293//54
f 292//90 1//90 293//90
f 292//65 291//65 4//65
f 170//91 169//91 168//91
f 172//92 171//92 174//92
f 171//38 170//38 168//38
f 174//83 171//83 168//83
f 174//93 173//93 172//93
f 175//94 174//94 168//94
f 5//29 291//29 290//29
f 168//7 163//7 118//7
f 285//57 284//57 281//57
f 284//95 283//95 282//95
f 281//96 284//96 282//96
f 286//89 285//89 279//89
f 285//97 281//97 280//97
f 285//5 280//5 279//5
f 287//98 286//98 279//98
f 287//7 279//7 15//7
f 279//83 278//83 16//83
f 182//48 181//48 183//48
f 181//43 180//43 183//43
f 184//99 183//99 180//99
f 184//100 180//100 185//100
f 180//82 179//82 185//82
f 185//7 179//7 225//7
f 179//33 178//33 225//33
f 185//33 225//33 224//33
f 188//101 187//101 189//101
f 187//102 186//102 190//102
f 189//36 187//36 190//36
f 190//5 186//5 191//5
f 186//103 185//103 224//103
f 191//33 186//33 222//33
f 193//104 192//104 191//104
f 186//31 224//31 222//31
f 193//33 191//33 222//33
f 193//101 222//101 221//101
f 194//105 193//105 209//105
f 209//7 193//7 221//7
f 197//83 196//83 198//83
f 196//31 195//31 202//31
f 198//7 196//7 199//7
f 200//82 199//82 202//82
f 202//23 199//23 196//23
f 202//106 201//106 200//106
f 204//5 203//5 206//5
f 203//7 202//7 206//7
f 206//75 205//75 204//75
f 208//7 207//7 202//7
f 207//28 206//28 202//28
f 211//107 210//107 215//107
f 210//82 209//82 216//82
f 215//108 210//108 216//108
f 212//109 211//109 215//109
f 209//7 208//7 194//7
f 208//7 202//7 194//7
f 213//110 212//110 214//110
f 215//111 214//111 212//111
f 218//99 217//99 219//99
f 217//5 216//5 220//5
f 219//5 217//5 220//5
f 194//47 202//47 195//47
f 216//29 209//29 221//29
f 220//112 216//112 221//112
f 178//113 177//113 225//113
f 224//114 223//114 222//114
f 177//33 176//33 231//33
f 176//115 175//115 231//115
f 177//39 226//39 225//39
f 226//7 177//7 231//7
f 228//18 227//18 229//18
f 227//116 226//116 229//116
f 175//29 168//29 231//29
f 231//117 230//117 229//117
f 234//82 233//82 232//82
f 231//57 229//57 226//57
f 235//12 234//12 232//12
f 235//57 232//57 241//57
f 232//29 231//29 242//29
f 241//118 232//118 242//118
f 238//119 237//119 240//119
f 237//120 236//120 240//120
f 231//7 168//7 242//7
f 239//121 238//121 240//121
f 236//122 235//122 241//122
f 274//33 273//33 260//33
f 273//57 272//57 270//57
f 269//123 273//123 270//123
f 272//19 271//19 270//19
f 273//5 269//5 260//5
f 268//14 267//14 262//14
f 267//97 266//97 262//97
f 269//81 268//81 261//81
f 260//33 269//33 261//33
f 275//39 274//39 260//39
f 266//81 265//81 262//81
f 265//124 264//124 263//124
f 262//33 261//33 268//33
f 265//53 263//53 262//53
f 260//29 259//29 276//29
f 259//7 258//7 277//7
f 276//7 259//7 277//7
f 258//87 257//87 277//87
f 275//7 260//7 276//7
f 257//18 256//18 17//18
f 277//82 257//82 278//82
f 278//7 257//7 17//7
f 256//38 255//38 29//38
f 241//29 240//29 236//29
f 243//18 242//18 168//18
f 244//125 243//125 251//125
f 247//104 246//104 248//104
f 246//5 245//5 248//5
f 249//83 248//83 245//83
f 249//80 245//80 244//80
f 250//97 249//97 244//97
f 296//126 295//126 294//126
