# Blender v2.81 (sub 16) OBJ File: ''
# www.blender.org
mtllib Cambodia.mtl
o 0_Cambodia_sphere.001
v -1.170189 0.892783 -4.726549
v -1.166680 0.889173 -4.727971
v -1.160689 0.889086 -4.728941
v -1.155252 0.889934 -4.729599
v -1.150593 0.892808 -4.729647
v -1.146936 0.898855 -4.728774
v -1.150058 0.899768 -4.728061
v -1.151573 0.900867 -4.727557
v -1.154433 0.904131 -4.726320
v -1.151649 0.908653 -4.725676
v -1.152660 0.911455 -4.724843
v -1.156345 0.912515 -4.724004
v -1.161706 0.911930 -4.723295
v -1.167145 0.908333 -4.723298
v -1.170203 0.900522 -4.724689
vn -0.1524 0.2307 -0.9610
vn -0.1522 0.2308 -0.9610
vn -0.1523 0.2308 -0.9610
vn -0.1525 0.2307 -0.9610
vn -0.1521 0.2308 -0.9611
vn -0.1523 0.2306 -0.9610
vn -0.1522 0.2307 -0.9610
vn -0.1522 0.2307 -0.9611
vn -0.1521 0.2307 -0.9611
usemtl None
s off
f 8//1 7//1 5//1
f 15//2 14//2 9//2
f 14//3 13//3 9//3
f 13//4 12//4 9//4
f 12//2 11//2 10//2
f 9//5 12//5 10//5
f 1//1 15//1 3//1
f 3//1 9//1 8//1
f 3//6 2//6 1//6
f 5//7 4//7 8//7
f 4//8 3//8 8//8
f 7//9 6//9 5//9
f 15//9 9//9 3//9
o 1_Cambodia_sphere.001
v -1.121676 0.905097 -4.731276
v -1.124487 0.904939 -4.730869
v -1.127035 0.907196 -4.729923
v -1.127962 0.908933 -4.729360
v -1.128665 0.908750 -4.729292
v -1.129866 0.907334 -4.729442
v -1.130002 0.904464 -4.730109
v -1.128516 0.901398 -4.731081
v -1.126970 0.897074 -4.732364
v -1.124587 0.893771 -4.733534
v -1.120275 0.896173 -4.733641
v -1.111398 0.908408 -4.732109
v -1.108177 0.914766 -4.731093
v -1.109422 0.920310 -4.729565
v -1.114727 0.922487 -4.728202
v -1.119230 0.923022 -4.727360
v -1.121542 0.922166 -4.727200
v -1.122496 0.919358 -4.727723
v -1.118953 0.913862 -4.729603
v -1.118795 0.912029 -4.730069
v -1.118744 0.910023 -4.730558
v -1.119592 0.906909 -4.731172
vn -0.1524 0.2307 -0.9610
vn -0.1522 0.2307 -0.9610
vn -0.1532 0.2306 -0.9609
vn -0.1521 0.2308 -0.9610
vn -0.1518 0.2307 -0.9611
vn -0.1525 0.2307 -0.9610
vn -0.1523 0.2308 -0.9610
vn -0.1523 0.2307 -0.9610
vn -0.1522 0.2307 -0.9611
vn -0.1521 0.2307 -0.9611
vn -0.1527 0.2307 -0.9610
vn -0.1522 0.2308 -0.9610
vn -0.1519 0.2308 -0.9611
vn -0.1523 0.2310 -0.9610
vn -0.1520 0.2306 -0.9611
usemtl None
s off
f 26//10 16//10 37//10
f 22//10 21//10 18//10
f 21//11 20//11 18//11
f 20//12 19//12 18//12
f 25//13 24//13 26//13
f 24//14 23//14 17//14
f 26//15 24//15 17//15
f 23//16 22//16 17//16
f 22//17 18//17 17//17
f 28//18 27//18 35//18
f 27//19 26//19 37//19
f 30//11 29//11 34//11
f 29//11 28//11 34//11
f 32//20 31//20 33//20
f 31//17 30//17 34//17
f 34//19 33//19 31//19
f 27//21 37//21 36//21
f 26//22 17//22 16//22
f 35//23 34//23 28//23
f 36//24 35//24 27//24
o 2_Cambodia_sphere.001
v -1.121472 0.925729 -4.726355
v -1.123719 0.925129 -4.726143
v -1.126235 0.925346 -4.725693
v -1.128424 0.924782 -4.725481
v -1.129409 0.921856 -4.726028
v -1.131146 0.920368 -4.726110
v -1.134488 0.919904 -4.725692
v -1.137422 0.918071 -4.725667
v -1.137886 0.912509 -4.726929
v -1.132940 0.910623 -4.728166
v -1.128502 0.908325 -4.729420
v -1.124982 0.904739 -4.730838
v -1.122801 0.898854 -4.732597
v -1.119302 0.901435 -4.732532
v -1.117274 0.905911 -4.731778
v -1.116080 0.910146 -4.730950
v -1.115301 0.911998 -4.730629
v -1.115541 0.912956 -4.730361
v -1.102383 0.917490 -4.731357
v -1.095774 0.922392 -4.731226
v -1.090454 0.928244 -4.730664
v -1.088571 0.934388 -4.729487
v -1.092365 0.939977 -4.727545
v -1.100664 0.942829 -4.725545
v -1.107660 0.940821 -4.724920
v -1.113498 0.936181 -4.725109
v -1.118476 0.931207 -4.725515
v -1.119422 0.929877 -4.725684
v -1.120340 0.927077 -4.726211
vn -0.1518 0.2307 -0.9611
vn -0.1521 0.2307 -0.9611
vn -0.1521 0.2307 -0.9610
vn -0.1521 0.2308 -0.9610
vn -0.1525 0.2309 -0.9610
vn -0.1524 0.2308 -0.9610
vn -0.1519 0.2307 -0.9611
vn -0.1523 0.2307 -0.9610
vn -0.1522 0.2307 -0.9610
vn -0.1522 0.2308 -0.9610
vn -0.1523 0.2308 -0.9610
vn -0.1533 0.2308 -0.9608
vn -0.1520 0.2308 -0.9611
vn -0.1524 0.2307 -0.9610
vn -0.1528 0.2313 -0.9608
vn -0.1522 0.2307 -0.9611
usemtl None
s off
f 38//25 66//25 55//25
f 46//26 45//26 47//26
f 45//27 44//27 47//27
f 44//28 43//28 47//28
f 42//29 41//29 40//29
f 47//30 43//30 48//30
f 43//26 42//26 48//26
f 42//31 40//31 39//31
f 42//32 39//32 55//32
f 39//33 38//33 55//33
f 49//26 48//26 53//26
f 48//33 42//33 55//33
f 51//34 50//34 49//34
f 53//32 52//32 49//32
f 52//35 51//35 49//35
f 55//36 54//36 53//36
f 57//33 56//33 63//33
f 56//32 55//32 66//32
f 63//32 56//32 64//32
f 59//37 58//37 60//37
f 58//33 57//33 61//33
f 61//38 60//38 58//38
f 63//33 62//33 57//33
f 62//26 61//26 57//26
f 65//39 64//39 66//39
f 66//40 64//40 56//40
f 55//34 53//34 48//34
o 3_Cambodia_sphere.001
v -1.080947 1.002877 -4.714252
v -1.081792 1.000990 -4.714571
v -1.086169 1.004866 -4.712947
v -1.090085 1.005219 -4.712243
v -1.093369 1.002737 -4.712318
v -1.098863 0.992410 -4.713927
v -1.099337 0.988033 -4.714903
v -1.099092 0.983872 -4.715941
v -1.099732 0.978687 -4.717084
v -1.101772 0.974227 -4.717832
v -1.103936 0.970867 -4.718296
v -1.104767 0.968018 -4.718848
v -1.102813 0.965159 -4.719844
v -1.105118 0.959874 -4.720748
v -1.105176 0.952591 -4.722487
v -1.103752 0.945554 -4.724402
v -1.101586 0.940926 -4.725857
v -1.096413 0.938200 -4.727330
v -1.090204 0.937876 -4.728391
v -1.086329 0.939705 -4.728566
v -1.088069 0.943266 -4.727436
v -1.083450 0.947381 -4.727179
v -1.081594 0.955620 -4.725495
v -1.081037 0.970239 -4.722074
v -1.076912 0.987634 -4.718551
v -1.076205 0.997798 -4.716223
v -1.078915 1.006702 -4.713656
v -1.079692 1.004874 -4.713971
vn -0.1522 0.2309 -0.9610
vn -0.1525 0.2307 -0.9610
vn -0.1522 0.2307 -0.9610
vn -0.1523 0.2307 -0.9610
vn -0.1522 0.2308 -0.9610
vn -0.1521 0.2307 -0.9611
vn -0.1524 0.2307 -0.9610
vn -0.1519 0.2306 -0.9611
vn -0.1523 0.2308 -0.9610
vn -0.1523 0.2306 -0.9611
usemtl None
s off
f 68//41 71//41 69//41
f 79//41 78//41 77//41
f 79//42 77//42 76//42
f 81//43 80//43 89//43
f 80//44 79//44 89//44
f 83//45 82//45 87//45
f 82//44 81//44 87//44
f 85//44 84//44 87//44
f 84//46 83//46 87//46
f 87//46 86//46 85//46
f 89//44 88//44 87//44
f 92//46 91//46 68//46
f 91//43 90//43 74//43
f 68//43 91//43 72//43
f 90//43 89//43 79//43
f 89//43 87//43 81//43
f 79//43 76//43 90//43
f 76//45 75//45 90//45
f 74//43 73//43 91//43
f 73//45 72//45 91//45
f 72//43 71//43 68//43
f 75//47 74//47 90//47
f 93//48 92//48 94//48
f 94//49 92//49 67//49
f 68//42 67//42 92//42
f 71//50 70//50 69//50
o 4_Cambodia_sphere.001
v -1.097103 0.964223 -4.720973
v -1.095318 0.961892 -4.721816
v -1.091206 0.962072 -4.722424
v -1.090645 0.966189 -4.721524
v -1.091747 0.975937 -4.719009
v -1.087602 0.982650 -4.718054
v -1.081608 0.990512 -4.717116
v -1.078814 0.998406 -4.715663
v -1.084115 1.005050 -4.713229
v -1.091656 1.000683 -4.713083
v -1.093373 0.999175 -4.713173
v -1.094406 0.996987 -4.713534
v -1.094477 0.994939 -4.714015
v -1.094074 0.993548 -4.714413
v -1.093675 0.993391 -4.714514
v -1.095979 0.989447 -4.715096
v -1.100956 0.982636 -4.715942
v -1.102854 0.979224 -4.716461
v -1.103001 0.976169 -4.717172
v -1.101252 0.973227 -4.718154
vn -0.1521 0.2307 -0.9611
vn -0.1522 0.2309 -0.9610
vn -0.1524 0.2307 -0.9610
vn -0.1522 0.2307 -0.9610
vn -0.1524 0.2308 -0.9610
vn -0.1522 0.2308 -0.9610
vn -0.1522 0.2306 -0.9611
vn -0.1509 0.2316 -0.9610
vn -0.1521 0.2308 -0.9610
vn -0.1522 0.2307 -0.9611
vn -0.1526 0.2307 -0.9610
usemtl None
s off
f 109//51 107//51 106//51
f 113//52 112//52 99//52
f 112//53 111//53 99//53
f 111//54 110//54 100//54
f 99//51 111//51 100//51
f 96//55 95//55 98//55
f 95//56 114//56 99//56
f 98//54 95//54 99//54
f 114//57 113//57 99//57
f 109//58 108//58 107//58
f 110//54 109//54 100//54
f 97//59 96//59 98//59
f 102//54 101//54 104//54
f 101//54 100//54 109//54
f 104//54 101//54 109//54
f 104//60 103//60 102//60
f 106//54 105//54 109//54
f 105//61 104//61 109//61
o 5_Cambodia_sphere.001
v -1.332081 0.994206 -4.676558
v -1.330722 0.992631 -4.677151
v -1.329789 0.990965 -4.677700
v -1.329622 0.989133 -4.678165
v -1.330901 0.987251 -4.678415
v -1.332035 0.986729 -4.678360
v -1.334450 0.986401 -4.678057
v -1.335482 0.985705 -4.678061
v -1.335955 0.984707 -4.678225
v -1.336118 0.983498 -4.678489
v -1.336067 0.981117 -4.679069
v -1.337738 0.976387 -4.679940
v -1.337968 0.975010 -4.680234
v -1.337792 0.973636 -4.680592
v -1.336982 0.970491 -4.681476
v -1.078743 0.970652 -4.722338
v -1.079126 0.971699 -4.722026
v -1.078402 0.969018 -4.722785
v -1.077798 0.968298 -4.723053
v -1.075885 0.968475 -4.723313
v -1.074612 0.970155 -4.723111
v -1.071896 0.971323 -4.723261
v -1.071068 0.973374 -4.722900
v -1.070812 0.975770 -4.722365
v -1.070814 0.977677 -4.721907
v -1.070365 0.978966 -4.721669
v -1.069761 0.979701 -4.721588
v -1.068569 0.980944 -4.721478
v -1.068814 0.977620 -4.722238
v -1.068748 0.976128 -4.722606
v -1.068290 0.974981 -4.722954
v -1.066533 0.975269 -4.723164
v -1.065146 0.974916 -4.723468
v -1.063817 0.974221 -4.723845
v -1.062915 0.973511 -4.724158
v -1.060729 0.976136 -4.723874
v -1.062663 0.977446 -4.723254
v -1.065128 0.976489 -4.723093
v -1.063962 0.977714 -4.722983
v -1.063301 0.978767 -4.722836
v -1.063037 0.982694 -4.721934
v -1.064100 0.983782 -4.721505
v -1.065510 0.983381 -4.721378
v -1.067193 0.982687 -4.721278
v -1.069043 0.982865 -4.720942
v -1.066010 0.984174 -4.721108
v -1.065543 0.984794 -4.721034
v -1.066255 0.985473 -4.720757
v -1.064148 0.985413 -4.721106
v -1.063398 0.987358 -4.720757
v -1.062866 0.985378 -4.721317
v -1.062230 0.983990 -4.721751
v -1.061590 0.986633 -4.721218
v -1.061988 0.988682 -4.720663
v -1.062926 0.990196 -4.720151
v -1.064498 0.991328 -4.719630
v -1.065454 0.991774 -4.719372
v -1.067170 0.991814 -4.719090
v -1.068207 0.991132 -4.719090
v -1.069457 0.990632 -4.719012
v -1.070822 0.990924 -4.718725
v -1.071973 0.991751 -4.718344
v -1.072501 0.992855 -4.717996
v -1.069721 0.991656 -4.718724
v -1.068232 0.992437 -4.718772
v -1.067065 0.993369 -4.718734
v -1.062471 0.991277 -4.719964
v -1.061105 0.993041 -4.719756
v -1.060434 0.994392 -4.719538
v -1.057144 0.997391 -4.719339
v -1.053520 1.002231 -4.718751
v -1.054587 0.999106 -4.719333
v -1.061122 0.991239 -4.720186
v -1.061017 0.989632 -4.720589
v -1.060038 0.986754 -4.721435
v -1.060110 0.985303 -4.721772
v -1.061422 0.981228 -4.722542
v -1.061402 0.979533 -4.722952
v -1.060994 0.978389 -4.723291
v -1.059310 0.980308 -4.723098
v -1.059005 0.981664 -4.722820
v -1.056764 0.983840 -4.722653
v -1.056104 0.984540 -4.722589
v -1.057471 0.986769 -4.721838
v -1.056735 0.992241 -4.720640
v -1.055356 0.996027 -4.719950
v -1.052269 1.000020 -4.719481
vn -0.1522 0.2307 -0.9610
vn -0.1519 0.2306 -0.9611
vn -0.1516 0.2304 -0.9612
vn -0.1524 0.2317 -0.9608
vn -0.1522 0.2310 -0.9610
vn -0.1522 0.2305 -0.9611
vn -0.1527 0.2308 -0.9610
vn -0.1526 0.2309 -0.9609
vn -0.1520 0.2307 -0.9611
vn -0.1520 0.2310 -0.9610
vn -0.1523 0.2304 -0.9611
vn -0.1521 0.2306 -0.9611
vn -0.1521 0.2308 -0.9611
vn -0.1520 0.2308 -0.9610
vn -0.1523 0.2306 -0.9610
vn -0.1524 0.2307 -0.9610
vn -0.1525 0.2306 -0.9610
vn -0.1520 0.2306 -0.9611
vn -0.1524 0.2305 -0.9610
vn -0.1520 0.2309 -0.9610
vn -0.1521 0.2311 -0.9610
vn -0.1521 0.2308 -0.9610
vn -0.1524 0.2306 -0.9610
vn -0.1520 0.2312 -0.9610
vn -0.1517 0.2308 -0.9611
vn -0.1529 0.2305 -0.9610
vn -0.1528 0.2305 -0.9610
vn -0.1529 0.2309 -0.9609
vn -0.1522 0.2306 -0.9611
vn -0.1523 0.2306 -0.9611
vn -0.1521 0.2307 -0.9611
vn -0.1522 0.2308 -0.9610
vn -0.1522 0.2304 -0.9611
vn -0.1505 0.2307 -0.9613
vn -0.1529 0.2306 -0.9610
vn -0.1519 0.2316 -0.9609
vn -0.1526 0.2306 -0.9610
vn -0.1519 0.2307 -0.9611
vn -0.1525 0.2310 -0.9609
vn -0.1519 0.2305 -0.9611
vn -0.1521 0.2300 -0.9612
vn -0.1535 0.2309 -0.9608
vn -0.1515 0.2306 -0.9612
vn -0.1518 0.2306 -0.9611
vn -0.1520 0.2311 -0.9610
vn -0.1509 0.2303 -0.9613
vn -0.1517 0.2306 -0.9611
vn -0.1523 0.2309 -0.9610
vn -0.1516 0.2308 -0.9611
vn -0.1519 0.2308 -0.9611
vn -0.1523 0.2308 -0.9610
vn -0.1529 0.2307 -0.9609
vn -0.1518 0.2308 -0.9611
vn -0.1524 0.2303 -0.9611
vn -0.1516 0.2310 -0.9611
vn -0.1526 0.2302 -0.9611
vn -0.1526 0.2308 -0.9609
vn -0.1521 0.2310 -0.9610
vn -0.1555 0.2305 -0.9606
vn -0.1508 0.2308 -0.9613
vn -0.1520 0.2305 -0.9611
vn -0.1518 0.2310 -0.9610
vn -0.1524 0.2308 -0.9610
vn -0.1524 0.2305 -0.9611
vn -0.1525 0.2309 -0.9610
vn -0.1522 0.2307 -0.9611
vn -0.1513 0.2305 -0.9612
vn -0.1526 0.2307 -0.9610
vn -0.1523 0.2307 -0.9611
vn -0.1515 0.2308 -0.9611
vn -0.1527 0.2309 -0.9609
vn -0.1522 0.2309 -0.9610
vn -0.1523 0.2305 -0.9611
vn -0.1521 0.2305 -0.9611
usemtl None
s off
f 199//62 183//62 200//62
f 196//63 195//63 190//63
f 187//64 169//64 181//64
f 180//65 177//65 183//65
f 162//66 122//66 120//66
f 160//67 123//67 122//67
f 166//68 190//68 191//68
f 141//69 140//69 159//69
f 148//70 147//70 151//70
f 163//71 165//71 161//71
f 172//72 179//72 180//72
f 200//73 184//73 186//73
f 182//74 183//74 199//74
f 183//73 184//73 200//73
f 187//75 182//75 199//75
f 198//76 197//76 196//76
f 187//76 199//76 188//76
f 199//62 198//62 188//62
f 189//77 188//77 198//77
f 192//78 191//78 194//78
f 191//79 190//79 195//79
f 193//80 192//80 194//80
f 191//81 195//81 194//81
f 190//82 189//82 198//82
f 198//83 196//83 190//83
f 188//84 189//84 168//84
f 189//85 167//85 168//85
f 181//86 182//86 187//86
f 187//76 188//76 169//76
f 188//87 168//87 169//87
f 169//88 170//88 181//88
f 182//89 181//89 170//89
f 180//90 179//90 177//90
f 179//91 178//91 177//91
f 182//92 170//92 180//92
f 116//90 115//90 177//90
f 115//93 183//93 177//93
f 178//94 176//94 177//94
f 183//62 182//62 180//62
f 116//66 177//66 117//66
f 177//94 176//94 118//94
f 117//90 177//90 118//90
f 176//95 175//95 162//95
f 118//62 176//62 119//62
f 175//96 174//96 162//96
f 119//93 176//93 162//93
f 173//97 172//97 171//97
f 174//98 173//98 162//98
f 173//78 171//78 170//78
f 162//92 170//92 164//92
f 170//99 169//99 164//99
f 169//86 168//86 164//86
f 168//100 167//100 164//100
f 167//101 166//101 165//101
f 164//93 163//93 162//93
f 163//82 161//82 162//82
f 167//77 165//77 164//77
f 120//67 119//67 162//67
f 170//92 162//92 173//92
f 121//102 120//102 122//102
f 122//66 162//66 160//66
f 162//103 161//103 160//103
f 160//104 161//104 157//104
f 161//105 165//105 156//105
f 166//96 167//96 190//96
f 167//106 189//106 190//106
f 161//76 156//76 157//76
f 165//76 166//76 156//76
f 124//107 123//107 125//107
f 123//67 160//67 159//67
f 159//62 125//62 123//62
f 157//108 158//108 160//108
f 158//109 159//109 160//109
f 191//110 155//110 166//110
f 155//111 156//111 166//111
f 125//62 159//62 131//62
f 159//93 158//93 142//93
f 131//112 159//112 140//112
f 158//93 157//93 154//93
f 157//113 156//113 155//113
f 154//114 157//114 155//114
f 154//115 153//115 142//115
f 153//62 152//62 143//62
f 142//62 153//62 143//62
f 152//116 147//116 146//116
f 146//117 145//117 144//117
f 144//118 143//118 146//118
f 146//119 143//119 152//119
f 126//75 125//75 129//75
f 128//120 127//120 126//120
f 131//93 129//93 125//93
f 129//121 128//121 126//121
f 133//122 132//122 134//122
f 132//123 130//123 134//123
f 130//124 131//124 135//124
f 135//125 134//125 130//125
f 137//113 136//113 135//113
f 139//126 138//126 131//126
f 138//74 137//74 131//74
f 137//127 135//127 131//127
f 158//84 154//84 142//84
f 140//128 139//128 131//128
f 159//129 142//129 141//129
f 151//130 150//130 148//130
f 150//81 149//81 148//81
f 163//70 164//70 165//70
f 172//131 173//131 179//131
f 173//132 174//132 178//132
f 174//132 175//132 178//132
f 175//133 176//133 178//133
f 173//133 178//133 179//133
f 180//77 170//77 171//77
f 171//134 172//134 180//134
f 186//133 185//133 201//133
f 201//135 200//135 186//135
