# Blender v2.81 (sub 16) OBJ File: ''
# www.blender.org
mtllib Cayman Islands.mtl
o 0_Cayman_Islands_sphere.001
v 0.708276 1.654033 4.664478
v 0.709545 1.652545 4.664825
v 0.711808 1.652564 4.664496
v 0.713349 1.653139 4.664073
v 0.713483 1.654107 4.663710
v 0.714038 1.655259 4.663223
v 0.714527 1.655009 4.663242
v 0.715766 1.654696 4.663177
v 0.715736 1.655073 4.663047
v 0.715601 1.655338 4.662972
v 0.715736 1.655264 4.662980
v 0.715559 1.655613 4.662881
v 0.715341 1.655847 4.662829
v 0.715306 1.656072 4.662755
v 0.715675 1.656406 4.662583
v 0.715278 1.656724 4.662527
v 0.715022 1.657090 4.662434
v 0.714510 1.658109 4.662145
v 0.716021 1.657929 4.661994
v 0.719109 1.656708 4.661988
v 0.720752 1.656421 4.661856
v 0.725167 1.657018 4.661016
v 0.726948 1.657010 4.660765
v 0.728478 1.656839 4.660608
v 0.729978 1.656392 4.660553
v 0.730850 1.655404 4.660779
v 0.731203 1.653291 4.661478
v 0.729626 1.652069 4.662136
v 0.727317 1.651676 4.662604
v 0.724453 1.652395 4.662756
v 0.722519 1.652099 4.663137
v 0.720778 1.651803 4.663489
v 0.719230 1.651509 4.663814
v 0.718006 1.650657 4.664290
v 0.716606 1.649562 4.664878
v 0.715793 1.649456 4.665031
v 0.710376 1.650117 4.665568
v 0.708992 1.650198 4.665736
v 0.707516 1.650039 4.666002
v 0.706576 1.649331 4.666387
v 0.705660 1.650189 4.666213
v 0.705760 1.651480 4.665741
v 0.706023 1.652045 4.665504
v 0.706265 1.652985 4.665136
v 0.706479 1.654393 4.664606
v 0.706408 1.655611 4.664184
v 0.705949 1.656733 4.663852
v 0.704611 1.657661 4.663713
v 0.703690 1.658218 4.663647
v 0.703827 1.659250 4.663260
v 0.704283 1.659910 4.662961
v 0.705446 1.660292 4.662661
v 0.707002 1.659810 4.662610
v 0.706821 1.658707 4.663027
v 0.707692 1.657308 4.663400
v 0.708474 1.655721 4.663851
vn 0.1331 0.3314 0.9340
vn 0.1326 0.3311 0.9342
vn 0.1320 0.3313 0.9343
vn 0.1332 0.3312 0.9341
vn 0.1324 0.3313 0.9342
vn 0.1333 0.3312 0.9341
vn 0.1335 0.3312 0.9341
vn 0.1329 0.3313 0.9341
vn 0.1327 0.3312 0.9342
vn 0.1334 0.3312 0.9341
vn 0.1340 0.3308 0.9342
vn 0.1325 0.3314 0.9341
vn 0.1331 0.3312 0.9341
vn 0.1310 0.3306 0.9346
vn 0.1350 0.3311 0.9339
vn 0.1329 0.3311 0.9342
vn 0.1299 0.3310 0.9346
vn 0.1330 0.3313 0.9341
vn 0.1269 0.3325 0.9345
vn 0.1333 0.3323 0.9337
vn 0.1315 0.3307 0.9345
vn 0.1329 0.3312 0.9342
vn 0.1326 0.3312 0.9342
vn 0.1327 0.3310 0.9342
vn 0.1331 0.3315 0.9340
vn 0.1332 0.3314 0.9341
vn 0.1326 0.3314 0.9341
vn 0.1332 0.3314 0.9340
vn 0.1329 0.3314 0.9341
vn 0.1327 0.3308 0.9343
vn 0.1328 0.3312 0.9342
vn 0.1324 0.3312 0.9342
vn 0.1326 0.3309 0.9343
vn 0.1328 0.3313 0.9341
vn 0.1330 0.3314 0.9341
vn 0.1330 0.3311 0.9342
vn 0.1332 0.3315 0.9340
vn 0.1327 0.3311 0.9342
vn 0.1330 0.3312 0.9342
vn 0.1333 0.3310 0.9342
vn 0.1318 0.3316 0.9342
vn 0.1346 0.3316 0.9338
vn 0.1328 0.3316 0.9340
usemtl None
s off
f 48//1 47//1 54//1
f 27//2 26//2 28//2
f 26//3 25//3 24//3
f 28//4 26//4 24//4
f 24//5 23//5 29//5
f 28//6 24//6 29//6
f 23//7 22//7 30//7
f 22//8 21//8 30//8
f 20//9 19//9 15//9
f 19//10 18//10 17//10
f 19//11 17//11 16//11
f 15//12 19//12 16//12
f 21//13 20//13 32//13
f 15//14 14//14 13//14
f 15//15 13//15 12//15
f 20//16 15//16 11//16
f 11//17 15//17 12//17
f 30//18 29//18 23//18
f 11//19 10//19 9//19
f 20//20 11//20 9//20
f 31//4 30//4 21//4
f 32//9 31//9 21//9
f 20//21 9//21 8//21
f 20//22 8//22 33//22
f 33//23 32//23 20//23
f 36//24 35//24 34//24
f 34//25 33//25 8//25
f 37//26 36//26 3//26
f 36//27 34//27 4//27
f 3//28 36//28 4//28
f 38//23 37//23 2//23
f 2//29 37//29 3//29
f 34//18 8//18 4//18
f 8//30 7//30 5//30
f 4//31 8//31 5//31
f 7//30 6//30 5//30
f 41//32 40//32 39//32
f 43//33 42//33 39//33
f 42//34 41//34 39//34
f 44//35 43//35 2//35
f 39//36 38//36 2//36
f 2//18 43//18 39//18
f 1//29 56//29 46//29
f 56//22 55//22 46//22
f 55//37 54//37 47//37
f 46//38 55//38 47//38
f 44//39 2//39 1//39
f 45//34 44//34 1//34
f 54//34 53//34 52//34
f 45//10 1//10 46//10
f 54//40 52//40 51//40
f 51//41 50//41 48//41
f 50//42 49//42 48//42
f 51//43 48//43 54//43
o 1_Cayman_Islands_sphere.001
v 0.820427 1.685745 4.634562
v 0.820108 1.685598 4.634670
v 0.819318 1.685107 4.634984
v 0.817169 1.684490 4.635578
v 0.811114 1.681378 4.637744
v 0.808120 1.681776 4.638125
v 0.809262 1.683338 4.637369
v 0.810650 1.684116 4.636849
v 0.812215 1.685381 4.636125
v 0.814241 1.685669 4.635669
v 0.816691 1.685662 4.635244
v 0.818967 1.686548 4.634531
vn 0.1625 0.3315 0.9294
vn 0.1621 0.3314 0.9294
vn 0.1623 0.3316 0.9294
vn 0.1617 0.3316 0.9295
vn 0.1622 0.3315 0.9294
vn 0.1618 0.3313 0.9296
vn 0.1621 0.3312 0.9295
vn 0.1626 0.3311 0.9295
vn 0.1623 0.3311 0.9295
vn 0.1628 0.3312 0.9294
usemtl None
s off
f 60//44 59//44 67//44
f 57//45 68//45 58//45
f 68//46 67//46 59//46
f 58//47 68//47 59//47
f 67//48 66//48 60//48
f 66//49 65//49 61//49
f 60//50 66//50 61//50
f 64//51 63//51 61//51
f 63//52 62//52 61//52
f 65//53 64//53 61//53
o 2_Cayman_Islands_sphere.001
v 0.828968 1.684447 4.633534
v 0.825762 1.683478 4.634439
v 0.827477 1.685618 4.633377
v 0.833128 1.688034 4.631530
v 0.835864 1.689672 4.630468
v 0.837752 1.690149 4.629969
v 0.838982 1.689680 4.629921
v 0.839473 1.688403 4.630291
v 0.835656 1.686379 4.631679
vn 0.1622 0.3313 0.9295
vn 0.1613 0.3312 0.9297
vn 0.1626 0.3312 0.9295
vn 0.1622 0.3314 0.9295
vn 0.1621 0.3314 0.9295
vn 0.1623 0.3314 0.9294
vn 0.1623 0.3313 0.9294
usemtl None
s off
f 77//54 76//54 73//54
f 76//55 75//55 74//55
f 74//56 73//56 76//56
f 73//57 72//57 77//57
f 72//58 71//58 69//58
f 71//59 70//59 69//59
f 69//60 77//60 72//60
