# Blender v2.81 (sub 16) OBJ File: ''
# www.blender.org
mtllib Central African Republic.mtl
o 0_Central_African_Republic_sphere.001
v 4.658319 0.782172 -1.601469
v 4.655927 0.782172 -1.606164
v 4.653348 0.782172 -1.611224
v 4.651479 0.782172 -1.614892
v 4.646743 0.782172 -1.624187
v 4.645260 0.782172 -1.627098
v 4.643325 0.782172 -1.630896
v 4.477792 0.782172 -1.955773
v 4.475529 0.782172 -1.960214
v 4.472960 0.782172 -1.965257
v 4.768912 0.180873 -1.369187
v 4.769230 0.178753 -1.368231
v 4.769128 0.182324 -1.367097
v 4.473942 0.775496 -1.964471
v 4.474802 0.773010 -1.963211
v 4.476781 0.768848 -1.960037
v 4.477468 0.766496 -1.959094
v 4.477628 0.764335 -1.959148
v 4.658075 0.761007 -1.605570
v 4.662386 0.765359 -1.596364
v 4.662889 0.767242 -1.595055
v 4.663066 0.769526 -1.594316
v 4.664327 0.769903 -1.591778
v 4.663097 0.774124 -1.593468
v 4.662117 0.774225 -1.595373
v 4.661541 0.776215 -1.596164
v 4.660544 0.777125 -1.597965
v 4.659550 0.778012 -1.599765
v 4.473970 0.965185 -1.867685
v 4.472952 0.965789 -1.869367
v 4.471602 0.965850 -1.871985
v 4.470600 0.964885 -1.874455
v 4.469131 0.965032 -1.877261
v 4.467372 0.964149 -1.881175
v 4.466750 0.962290 -1.883367
v 4.464595 0.960633 -1.888462
v 4.462385 0.960226 -1.893011
v 4.462857 0.957723 -1.893391
v 4.461048 0.939228 -1.906604
v 4.458165 0.932760 -1.915640
v 4.454106 0.917013 -1.931830
v 4.452559 0.892900 -1.947459
v 4.451027 0.868750 -1.963080
v 4.451078 0.864680 -1.965107
v 4.453403 0.848931 -1.968769
v 4.454401 0.845433 -1.968638
v 4.455568 0.842727 -1.967760
v 4.458289 0.837570 -1.965115
v 4.459396 0.834925 -1.964323
v 4.459697 0.831668 -1.965433
v 4.460575 0.827635 -1.965817
v 4.460595 0.825621 -1.966828
v 4.460142 0.824119 -1.968504
v 4.462781 0.817026 -1.967029
v 4.463415 0.812620 -1.968086
v 4.464263 0.810201 -1.967684
v 4.467645 0.804869 -1.963833
v 4.469012 0.802847 -1.962206
v 4.470368 0.801938 -1.960018
v 4.471684 0.802045 -1.957380
v 4.473278 0.799943 -1.955350
v 4.477179 0.787694 -1.954093
v 4.477573 0.785483 -1.954473
v 4.473169 0.785772 -1.962965
v 4.653844 0.784502 -1.609033
v 4.650735 0.784568 -1.615101
v 4.648500 0.785226 -1.619143
v 4.647199 0.785780 -1.621408
v 4.646610 0.784440 -1.623264
v 4.645403 0.784497 -1.625602
v 4.641186 0.784962 -1.633636
v 4.637865 0.784738 -1.640272
v 4.636014 0.784712 -1.643918
v 4.634608 0.785802 -1.646107
v 4.633277 0.786382 -1.648417
v 4.632576 0.784850 -1.650593
v 4.630073 0.785482 -1.655177
v 4.628178 0.787169 -1.658014
v 4.626155 0.788033 -1.661531
v 4.622021 0.787918 -1.669706
v 4.620566 0.789953 -1.671498
v 4.619483 0.789686 -1.673764
v 4.618126 0.791211 -1.675630
v 4.617124 0.791385 -1.677505
v 4.616261 0.793507 -1.678092
v 4.615771 0.791868 -1.679909
v 4.613448 0.795856 -1.682385
v 4.612311 0.795595 -1.684753
v 4.611146 0.797385 -1.686103
v 4.610603 0.794812 -1.688514
v 4.609338 0.794750 -1.691029
v 4.607813 0.796520 -1.693097
v 4.606780 0.796667 -1.695049
v 4.605912 0.794431 -1.697920
v 4.601792 0.794520 -1.705958
v 4.600640 0.795172 -1.707878
v 4.599151 0.796838 -1.709933
v 4.597070 0.798413 -1.713194
v 4.596089 0.800640 -1.713954
v 4.595111 0.802471 -1.714917
v 4.593908 0.803265 -1.716865
v 4.593430 0.806304 -1.716217
v 4.593225 0.808386 -1.715530
v 4.591747 0.809547 -1.717824
v 4.590701 0.812080 -1.718555
v 4.589397 0.811791 -1.721264
v 4.587985 0.811339 -1.724273
v 4.585651 0.811329 -1.728859
v 4.585365 0.814965 -1.727520
v 4.583287 0.816835 -1.730623
v 4.581198 0.818105 -1.734058
v 4.579956 0.818973 -1.736043
v 4.578565 0.821260 -1.737579
v 4.577411 0.821936 -1.739491
v 4.576272 0.823572 -1.740872
v 4.575696 0.825832 -1.740822
v 4.573878 0.828662 -1.742911
v 4.570872 0.833246 -1.746416
v 4.569858 0.835520 -1.747220
v 4.568205 0.837332 -1.749516
v 4.567301 0.839245 -1.750290
v 4.565893 0.841509 -1.751873
v 4.564680 0.845694 -1.752067
v 4.563126 0.849514 -1.753121
v 4.562417 0.851628 -1.753409
v 4.561258 0.853163 -1.754882
v 4.560413 0.852271 -1.757006
v 4.558902 0.854086 -1.759024
v 4.557915 0.856004 -1.759958
v 4.556577 0.859295 -1.760867
v 4.552818 0.864166 -1.765700
v 4.551425 0.867034 -1.766934
v 4.548146 0.872404 -1.770567
v 4.546923 0.872701 -1.772811
v 4.545557 0.871328 -1.776210
v 4.543367 0.872325 -1.779987
v 4.541369 0.875288 -1.782360
v 4.539469 0.878974 -1.784165
v 4.534939 0.889712 -1.787447
v 4.533064 0.893020 -1.789397
v 4.531358 0.894820 -1.791807
v 4.530102 0.894188 -1.794601
v 4.527949 0.895352 -1.798218
v 4.526488 0.896221 -1.800633
v 4.524918 0.899460 -1.802022
v 4.523594 0.901591 -1.803508
v 4.522266 0.902860 -1.805451
v 4.521834 0.905898 -1.804711
v 4.518967 0.912465 -1.806909
v 4.518700 0.914927 -1.806146
v 4.519099 0.917510 -1.804015
v 4.518825 0.919819 -1.803348
v 4.518438 0.923268 -1.802305
v 4.517631 0.926871 -1.802006
v 4.516659 0.929566 -1.802506
v 4.515611 0.932768 -1.802890
v 4.514044 0.934083 -1.805279
v 4.512766 0.935179 -1.807215
v 4.511497 0.936250 -1.809147
v 4.510158 0.936864 -1.811454
v 4.509124 0.935831 -1.814022
v 4.507188 0.938713 -1.816316
v 4.505488 0.940664 -1.818634
v 4.501770 0.942892 -1.824769
v 4.501083 0.945813 -1.824589
v 4.499828 0.948958 -1.825410
v 4.498013 0.951461 -1.827666
v 4.494696 0.950837 -1.834501
v 4.493113 0.949789 -1.838157
v 4.492126 0.951723 -1.839082
v 4.491041 0.954595 -1.839711
v 4.489367 0.956756 -1.841868
v 4.487906 0.958909 -1.843612
v 4.487059 0.958336 -1.845574
v 4.485346 0.960567 -1.847770
v 4.483645 0.962003 -1.850357
v 4.482452 0.962629 -1.852372
v 4.481236 0.963068 -1.854531
v 4.479840 0.964223 -1.856667
v 4.478650 0.966141 -1.858000
v 4.477511 0.967021 -1.859776
v 4.476390 0.966385 -1.862308
vn 0.9847 0.0776 -0.1559
vn 0.8883 0.0775 -0.4526
vn 0.8670 0.2307 -0.4418
vn 0.8671 0.2302 -0.4418
vn 0.8669 0.2309 -0.4417
vn 0.8669 0.2310 -0.4417
vn 0.8670 0.2306 -0.4418
vn 0.8883 0.0776 -0.4526
vn 0.8883 0.0777 -0.4526
vn 0.8882 0.0779 -0.4529
vn 0.8883 0.0777 -0.4527
vn 0.8883 0.0774 -0.4527
vn 0.8883 0.0775 -0.4527
vn 0.8884 0.0773 -0.4526
vn 0.8881 0.0776 -0.4530
vn 0.8883 0.0774 -0.4526
vn 0.8886 0.0771 -0.4521
vn 0.8883 0.0776 -0.4527
vn 0.8670 0.2307 -0.4417
vn 0.8672 0.2298 -0.4418
vn 0.8670 0.2306 -0.4417
vn 0.8670 0.2305 -0.4418
vn 0.8670 0.2308 -0.4417
vn 0.8667 0.2321 -0.4416
vn 0.8671 0.2304 -0.4417
vn 0.8668 0.2314 -0.4417
vn 0.8670 0.2304 -0.4417
vn 0.8668 0.2308 -0.4419
vn 0.8670 0.2309 -0.4416
vn 0.8672 0.2305 -0.4414
vn 0.8669 0.2307 -0.4419
vn 0.8671 0.2300 -0.4418
vn 0.8668 0.2314 -0.4416
vn 0.8669 0.2307 -0.4418
vn 0.8670 0.2303 -0.4418
vn 0.8670 0.2304 -0.4418
vn 0.8670 0.2305 -0.4419
vn 0.8671 0.2305 -0.4417
vn 0.8667 0.2318 -0.4418
vn 0.8668 0.2312 -0.4418
vn 0.8669 0.2313 -0.4416
vn 0.8669 0.2311 -0.4417
vn 0.8671 0.2307 -0.4415
vn 0.8675 0.2305 -0.4407
vn 0.8670 0.2308 -0.4416
vn 0.8669 0.2308 -0.4418
vn 0.8670 0.2302 -0.4420
vn 0.8668 0.2313 -0.4417
vn 0.8669 0.2309 -0.4418
vn 0.8670 0.2302 -0.4419
vn 0.8672 0.2299 -0.4416
vn 0.8672 0.2306 -0.4414
vn 0.8668 0.2315 -0.4417
vn 0.8669 0.2308 -0.4417
vn 0.8669 0.2314 -0.4416
vn 0.8671 0.2303 -0.4418
vn 0.8668 0.2319 -0.4414
vn 0.8669 0.2311 -0.4416
vn 0.8669 0.2312 -0.4416
vn 0.8670 0.2308 -0.4415
vn 0.8669 0.2314 -0.4415
vn 0.8669 0.2311 -0.4418
vn 0.8672 0.2310 -0.4412
vn 0.8671 0.2305 -0.4416
vn 0.8669 0.2305 -0.4419
vn 0.8670 0.2297 -0.4421
vn 0.8670 0.2310 -0.4415
vn 0.8672 0.2297 -0.4419
vn 0.8673 0.2310 -0.4409
vn 0.8672 0.2303 -0.4415
vn 0.8669 0.2313 -0.4417
vn 0.8670 0.2310 -0.4416
vn 0.8671 0.2308 -0.4414
vn 0.8669 0.2306 -0.4420
usemtl None
s off
f 13//1 12//1 11//1
f 10//2 9//2 14//2
f 10//3 64//3 9//3
f 142//4 141//4 140//4
f 70//5 5//5 6//5
f 67//6 66//6 4//6
f 3//7 65//7 2//7
f 2//8 1//8 28//8
f 28//9 27//9 20//9
f 27//10 26//10 25//10
f 25//11 24//11 22//11
f 24//12 23//12 22//12
f 27//2 25//2 20//2
f 3//13 2//13 19//13
f 2//2 28//2 19//2
f 6//14 5//14 19//14
f 5//2 4//2 19//2
f 19//2 4//2 3//2
f 22//13 21//13 25//13
f 21//15 20//15 25//15
f 8//2 7//2 18//2
f 7//16 6//16 19//16
f 19//2 28//2 20//2
f 19//2 18//2 7//2
f 18//17 17//17 8//17
f 16//2 15//2 8//2
f 15//11 14//11 9//11
f 8//16 15//16 9//16
f 17//18 16//18 8//18
f 7//19 8//19 76//19
f 8//6 63//6 115//6
f 76//20 8//20 77//20
f 63//21 62//21 136//21
f 72//22 71//22 7//22
f 75//23 74//23 76//23
f 74//4 73//4 76//4
f 73//24 72//24 7//24
f 77//19 8//19 80//19
f 62//3 61//3 144//3
f 80//5 8//5 95//5
f 60//25 59//25 57//25
f 59//26 58//26 57//26
f 61//19 60//19 49//19
f 95//27 8//27 96//27
f 96//19 8//19 98//19
f 57//19 56//19 54//19
f 56//28 55//28 54//28
f 54//29 53//29 52//29
f 51//30 50//30 49//30
f 54//31 52//31 51//31
f 57//23 54//23 60//23
f 76//5 73//5 7//5
f 79//32 78//32 77//32
f 98//23 8//23 108//23
f 80//33 79//33 77//33
f 108//19 8//19 114//19
f 54//23 51//23 60//23
f 51//34 49//34 60//34
f 114//35 8//35 115//35
f 82//36 81//36 80//36
f 84//22 83//22 82//22
f 86//21 85//21 84//21
f 88//37 87//37 86//37
f 90//25 89//25 88//25
f 93//34 92//34 94//34
f 92//3 91//3 94//3
f 90//38 88//38 86//38
f 91//39 90//39 86//39
f 86//40 84//40 82//40
f 82//41 80//41 94//41
f 86//42 82//42 94//42
f 80//36 95//36 94//36
f 94//4 91//4 86//4
f 48//43 47//43 45//43
f 47//44 46//44 45//44
f 45//31 44//31 48//31
f 44//3 43//3 48//3
f 43//19 42//19 49//19
f 48//45 43//45 49//45
f 42//19 41//19 147//19
f 41//19 40//19 147//19
f 40//7 39//7 147//7
f 49//19 42//19 61//19
f 38//7 37//7 36//7
f 42//19 147//19 61//19
f 39//46 38//46 35//46
f 98//47 97//47 96//47
f 38//29 36//29 35//29
f 35//36 34//36 33//36
f 32//48 31//48 30//48
f 35//38 33//38 32//38
f 39//49 35//49 29//49
f 29//50 35//50 32//50
f 115//19 63//19 120//19
f 100//51 99//51 101//51
f 99//52 98//52 101//52
f 32//53 30//53 29//53
f 182//54 181//54 180//54
f 39//19 29//19 169//19
f 178//48 29//48 179//48
f 29//19 182//19 179//19
f 182//54 180//54 179//54
f 101//29 98//29 108//29
f 120//54 63//54 122//54
f 104//46 103//46 102//46
f 102//7 101//7 104//7
f 107//21 101//21 108//21
f 29//19 178//19 169//19
f 178//19 177//19 174//19
f 177//55 176//55 174//55
f 101//49 107//49 104//49
f 106//3 105//3 104//3
f 107//56 106//56 104//56
f 178//23 174//23 169//23
f 176//57 175//57 174//57
f 174//56 173//56 172//56
f 172//3 171//3 170//3
f 169//58 168//58 164//58
f 168//34 167//34 166//34
f 172//59 170//59 174//59
f 170//60 169//60 174//60
f 168//46 166//46 165//46
f 164//54 168//54 165//54
f 164//61 163//61 162//61
f 161//62 160//62 159//62
f 164//3 162//3 161//3
f 39//19 169//19 147//19
f 110//54 109//54 108//54
f 169//19 164//19 149//19
f 149//19 164//19 161//19
f 161//3 159//3 158//3
f 149//23 161//23 150//23
f 110//34 108//34 111//34
f 122//19 63//19 136//19
f 111//40 108//40 112//40
f 112//63 108//63 114//63
f 161//3 158//3 153//3
f 150//3 161//3 152//3
f 157//64 156//64 155//64
f 158//65 157//65 155//65
f 114//66 113//66 112//66
f 117//46 116//46 115//46
f 136//49 62//49 137//49
f 118//46 117//46 115//46
f 137//19 62//19 144//19
f 152//3 161//3 153//3
f 158//67 155//67 154//67
f 154//29 153//29 158//29
f 152//36 151//36 150//36
f 118//68 115//68 120//68
f 120//34 119//34 118//34
f 122//69 121//69 120//69
f 124//5 123//5 127//5
f 123//19 122//19 127//19
f 126//4 125//4 127//4
f 125//7 124//7 127//7
f 128//21 127//21 122//21
f 128//46 122//46 136//46
f 131//34 130//34 129//34
f 131//7 129//7 136//7
f 129//70 128//70 136//70
f 133//7 132//7 135//7
f 132//71 131//71 135//71
f 135//40 134//40 133//40
f 131//72 136//72 135//72
f 169//23 149//23 147//23
f 149//19 148//19 147//19
f 147//6 146//6 145//6
f 147//73 145//73 144//73
f 144//19 61//19 147//19
f 140//26 139//26 142//26
f 139//3 138//3 142//3
f 138//74 137//74 144//74
f 144//35 143//35 138//35
f 142//45 138//45 143//45
f 70//5 69//5 5//5
f 4//19 5//19 67//19
f 5//23 69//23 67//23
f 69//40 68//40 67//40
