# Blender v2.81 (sub 16) OBJ File: ''
# www.blender.org
mtllib Cook Islands.mtl
o 0_Cook_Islands_sphere.001
v -4.297111 -1.867864 1.743602
v -4.297478 -1.867968 1.742605
v -4.298005 -1.867826 1.741484
v -4.298492 -1.867417 1.740738
v -4.299018 -1.866715 1.740211
v -4.299630 -1.865741 1.739767
v -4.299852 -1.864750 1.740277
v -4.299933 -1.863772 1.741117
v -4.299855 -1.863066 1.742054
v -4.299631 -1.862817 1.742859
v -4.299058 -1.863209 1.743826
v -4.298408 -1.863999 1.744559
v -4.297005 -1.865978 1.745851
v -4.296565 -1.866909 1.745929
v -4.296703 -1.867526 1.744944
vn -0.8564 -0.3752 0.3547
vn -0.8560 -0.3755 0.3552
vn -0.8565 -0.3754 0.3543
vn -0.8559 -0.3762 0.3547
vn -0.8569 -0.3739 0.3548
vn -0.8562 -0.3758 0.3546
vn -0.8562 -0.3757 0.3547
vn -0.8564 -0.3752 0.3548
vn -0.8563 -0.3752 0.3548
vn -0.8563 -0.3756 0.3545
vn -0.8563 -0.3752 0.3549
vn -0.8561 -0.3759 0.3546
usemtl None
s off
f 12//1 8//1 4//1
f 14//2 13//2 15//2
f 13//1 12//1 1//1
f 15//3 13//3 1//3
f 12//4 11//4 8//4
f 11//5 10//5 9//5
f 8//6 11//6 9//6
f 8//7 7//7 5//7
f 7//8 6//8 5//8
f 5//9 4//9 8//9
f 4//10 3//10 12//10
f 3//11 2//11 12//11
f 2//12 1//12 12//12
o 1_Cook_Islands_sphere.001
v -4.371420 -1.810974 1.614098
v -4.371191 -1.811759 1.613847
v -4.371104 -1.812440 1.613331
v -4.372056 -1.812093 1.611193
v -4.372135 -1.812155 1.610914
v -4.372985 -1.811376 1.609519
v -4.374076 -1.811629 1.606354
v -4.374795 -1.810727 1.605438
v -4.374803 -1.810096 1.606107
v -4.375199 -1.808518 1.606787
v -4.375525 -1.807503 1.607034
v -4.375489 -1.806952 1.607735
v -4.374820 -1.806695 1.609785
v -4.374219 -1.806756 1.611309
v -4.373474 -1.807162 1.612838
v -4.372707 -1.807982 1.613968
v -4.372053 -1.809261 1.614300
vn -0.8725 -0.3607 0.3297
vn -0.8724 -0.3609 0.3297
vn -0.8723 -0.3612 0.3296
vn -0.8724 -0.3608 0.3297
vn -0.8723 -0.3609 0.3298
vn -0.8725 -0.3609 0.3294
vn -0.8724 -0.3609 0.3296
vn -0.8722 -0.3617 0.3294
vn -0.8725 -0.3604 0.3299
vn -0.8724 -0.3612 0.3294
vn -0.8725 -0.3606 0.3298
vn -0.8726 -0.3603 0.3298
vn -0.8713 -0.3633 0.3299
usemtl None
s off
f 24//13 22//13 21//13
f 16//14 32//14 19//14
f 32//15 31//15 30//15
f 19//16 32//16 30//16
f 30//17 29//17 21//17
f 29//18 28//18 21//18
f 28//13 27//13 25//13
f 21//19 28//19 25//19
f 27//20 26//20 25//20
f 24//21 23//21 22//21
f 25//22 24//22 21//22
f 30//23 21//23 19//23
f 17//19 16//19 19//19
f 19//24 18//24 17//24
f 21//25 20//25 19//25
o 2_Cook_Islands_sphere.001
v -4.329700 -1.723998 1.809611
v -4.329834 -1.724625 1.808685
v -4.330319 -1.724331 1.807796
v -4.331051 -1.723048 1.807263
v -4.331547 -1.721557 1.807504
v -4.331378 -1.721050 1.808401
v -4.330788 -1.721421 1.809469
v -4.330014 -1.722578 1.810222
vn -0.8667 -0.3465 0.3588
vn -0.8668 -0.3462 0.3590
vn -0.8668 -0.3460 0.3591
vn -0.8666 -0.3465 0.3591
vn -0.8667 -0.3460 0.3592
vn -0.8671 -0.3450 0.3593
usemtl None
s off
f 33//26 40//26 36//26
f 40//27 39//27 36//27
f 39//28 38//28 36//28
f 38//29 37//29 36//29
f 36//30 35//30 33//30
f 35//31 34//31 33//31
o 3_Cook_Islands_sphere.001
v -4.358072 -1.711040 1.753606
v -4.358348 -1.711625 1.752373
v -4.359061 -1.711293 1.750973
v -4.359969 -1.710037 1.749993
v -4.360834 -1.708002 1.749866
v -4.360462 -1.707689 1.751065
v -4.359475 -1.708412 1.752751
v -4.358496 -1.709475 1.754090
vn -0.8668 -0.3460 0.3590
vn -0.8667 -0.3463 0.3589
vn -0.8670 -0.3457 0.3590
vn -0.8667 -0.3460 0.3593
vn -0.8667 -0.3461 0.3592
usemtl None
s off
f 42//32 41//32 48//32
f 48//33 47//33 42//33
f 47//34 46//34 44//34
f 46//35 45//35 44//35
f 44//36 43//36 47//36
f 43//33 42//33 47//33
o 4_Cook_Islands_sphere.001
v -4.369330 -1.695787 1.741128
v -4.368991 -1.696311 1.741441
v -4.369699 -1.695432 1.740580
v -4.369505 -1.695559 1.740925
vn -0.8665 -0.3484 0.3576
vn -0.8692 -0.3360 0.3628
usemtl None
s off
f 49//37 51//37 50//37
f 49//38 52//38 51//38
o 5_Cook_Islands_sphere.001
v -4.370242 -1.695004 1.739680
v -4.370335 -1.695066 1.739397
v -4.370369 -1.694836 1.739534
v -4.370217 -1.694511 1.740215
vn -0.8663 -0.3473 0.3590
vn -0.8661 -0.3473 0.3594
usemtl None
s off
f 55//39 53//39 56//39
f 55//40 54//40 53//40
o 6_Cook_Islands_sphere.001
v -4.353344 -1.693693 1.781740
v -4.352290 -1.693693 1.784284
v -4.351159 -1.696977 1.783850
v -4.351171 -1.698223 1.782619
v -4.351568 -1.697060 1.782782
v -4.352025 -1.696217 1.782490
v -4.352431 -1.695678 1.782029
v -4.352840 -1.695043 1.781654
v -4.353322 -1.693871 1.781621
v -4.351862 -1.694819 1.784231
v -4.353399 -1.693184 1.782074
v -4.353333 -1.691186 1.784066
v -4.353253 -1.690669 1.784732
v -4.352730 -1.692478 1.784336
vn -0.8668 -0.3463 0.3589
vn -0.8717 -0.3311 0.3612
vn -0.8666 -0.3466 0.3590
vn -0.8671 -0.3465 0.3580
vn -0.8667 -0.3465 0.3590
vn -0.8670 -0.3456 0.3590
vn -0.8669 -0.3459 0.3589
vn -0.8667 -0.3462 0.3590
vn -0.8668 -0.3462 0.3589
vn -0.8717 -0.3314 0.3609
vn -0.8716 -0.3314 0.3613
usemtl None
s off
f 61//41 59//41 62//41
f 68//42 67//42 70//42
f 58//43 57//43 64//43
f 57//44 65//44 64//44
f 64//45 63//45 66//45
f 64//46 66//46 58//46
f 63//47 62//47 66//47
f 60//48 59//48 61//48
f 59//49 66//49 62//49
f 57//50 58//50 67//50
f 58//51 70//51 67//51
f 70//50 69//50 68//50
o 7_Cook_Islands_sphere.001
v -4.404341 -1.648837 1.696135
v -4.403964 -1.649452 1.696521
v -4.403622 -1.649189 1.697687
v -4.403564 -1.649440 1.697590
v -4.403554 -1.649608 1.697451
v -4.403610 -1.649880 1.697032
v -4.404123 -1.649452 1.696100
v -4.404785 -1.648612 1.695183
v -4.405207 -1.647822 1.694851
v -4.404995 -1.647552 1.695680
v -4.404696 -1.648000 1.696026
vn -0.8825 -0.3310 0.3340
vn -0.8825 -0.3315 0.3337
vn -0.8826 -0.3309 0.3339
vn -0.8830 -0.3308 0.3330
vn -0.8827 -0.3311 0.3335
vn -0.8833 -0.3295 0.3335
vn -0.8836 -0.3287 0.3335
vn -0.8819 -0.3336 0.3331
vn -0.8812 -0.3350 0.3334
usemtl None
s off
f 72//52 71//52 77//52
f 71//53 81//53 78//53
f 81//54 80//54 78//54
f 80//55 79//55 78//55
f 78//56 77//56 71//56
f 77//57 76//57 72//57
f 76//58 75//58 72//58
f 75//59 74//59 72//59
f 74//60 73//60 72//60
o 8_Cook_Islands_sphere.001
v -4.440176 -1.613496 1.636101
v -4.439635 -1.614201 1.636865
v -4.439400 -1.614896 1.636833
v -4.439605 -1.614584 1.636584
v -4.439829 -1.614029 1.636516
v -4.439944 -1.613954 1.636282
v -4.439735 -1.615539 1.635337
v -4.439653 -1.615837 1.635273
v -4.438978 -1.617694 1.635308
v -4.438910 -1.618526 1.634704
v -4.439245 -1.618485 1.633856
v -4.439707 -1.617698 1.633376
v -4.440082 -1.616647 1.633377
v -4.440464 -1.615003 1.633917
v -4.440519 -1.614440 1.634301
v -4.440501 -1.613660 1.635087
vn -0.8869 -0.3175 0.3357
vn -0.8880 -0.3146 0.3355
vn -0.8875 -0.3163 0.3352
vn -0.8872 -0.3172 0.3351
vn -0.8874 -0.3164 0.3354
vn -0.8873 -0.3162 0.3357
vn -0.8874 -0.3165 0.3353
vn -0.8876 -0.3159 0.3352
vn -0.8869 -0.3176 0.3355
vn -0.8873 -0.3166 0.3353
vn -0.8879 -0.3147 0.3355
vn -0.8870 -0.3172 0.3355
vn -0.8872 -0.3169 0.3354
vn -0.8873 -0.3161 0.3359
usemtl None
s off
f 82//61 87//61 86//61
f 82//62 97//62 87//62
f 97//63 96//63 88//63
f 96//64 95//64 88//64
f 95//65 94//65 89//65
f 88//66 95//66 89//66
f 94//67 93//67 90//67
f 93//68 92//68 90//68
f 92//69 91//69 90//69
f 90//70 89//70 94//70
f 85//71 84//71 83//71
f 86//72 85//72 83//72
f 97//73 88//73 87//73
f 86//74 83//74 82//74
o 9_Cook_Islands_sphere.001
v -4.759939 -0.944488 1.203213
v -4.759994 -0.944701 1.202804
v -4.760104 -0.944487 1.202527
v -4.760277 -0.943846 1.202350
v -4.760125 -0.943720 1.203094
v -4.760043 -0.943707 1.203445
v -4.759941 -0.943807 1.203786
vn -0.9539 -0.1948 0.2285
vn -0.9541 -0.1924 0.2294
vn -0.9534 -0.1963 0.2291
vn -0.9537 -0.1954 0.2288
vn -0.9543 -0.1926 0.2285
usemtl None
s off
f 102//75 100//75 98//75
f 104//76 103//76 98//76
f 103//77 102//77 98//77
f 102//78 101//78 100//78
f 100//79 99//79 98//79
o 10_Cook_Islands_sphere.001
v -4.648975 -0.900755 1.602534
v -4.647103 -0.904527 1.605875
v -4.649140 -0.900858 1.601994
v -4.649494 -0.900190 1.601339
v -4.649604 -0.899903 1.601179
vn -0.9306 -0.1820 0.3176
vn -0.9310 -0.1796 0.3179
vn -0.9309 -0.1785 0.3187
usemtl None
s off
f 107//80 105//80 108//80
f 106//81 105//81 107//81
f 105//82 109//82 108//82
o 11_Cook_Islands_sphere.001
v -4.656709 -0.871250 1.596582
v -4.656923 -0.871988 1.595542
v -4.657092 -0.871133 1.595531
v -4.656688 -0.870447 1.597097
vn -0.9306 -0.1800 0.3188
vn -0.9304 -0.1805 0.3189
usemtl None
s off
f 112//83 110//83 113//83
f 112//84 111//84 110//84
o 12_Cook_Islands_sphere.001
v -4.576679 -0.780483 1.854709
v -4.577398 -0.780484 1.852971
v -4.578028 -0.780065 1.851617
v -4.578798 -0.779053 1.850155
v -4.579322 -0.778012 1.849298
v -4.579216 -0.777460 1.849773
v -4.576756 -0.779932 1.854741
vn -0.9138 -0.1478 0.3784
vn -0.9136 -0.1490 0.3783
vn -0.9138 -0.1479 0.3783
vn -0.9134 -0.1487 0.3790
vn -0.9135 -0.1497 0.3783
usemtl None
s off
f 115//85 114//85 120//85
f 120//86 119//86 116//86
f 119//87 118//87 117//87
f 116//88 119//88 117//88
f 116//89 115//89 120//89
