# Blender v2.81 (sub 16) OBJ File: ''
# www.blender.org
mtllib Cook Islands.mtl
o 0_Cook_Islands_sphere.001
v -4.247909 -1.856560 1.727790
v -4.249829 -1.857089 1.723545
v -4.252479 -1.856557 1.718825
v -4.254837 -1.854855 1.715729
v -4.257297 -1.851889 1.713574
v -4.260100 -1.847772 1.711784
v -4.260980 -1.843482 1.713922
v -4.261169 -1.839177 1.717430
v -4.260627 -1.835994 1.721363
v -4.259456 -1.834778 1.724757
v -4.256674 -1.836291 1.728853
v -4.253562 -1.839594 1.731983
v -4.246831 -1.848071 1.737556
v -4.244785 -1.852163 1.737883
v -4.245686 -1.854975 1.733582
vn -0.8246 -0.3787 0.4202
vn -0.8247 -0.3786 0.4201
vn -0.8247 -0.3786 0.4202
vn -0.8247 -0.3787 0.4202
vn -0.8246 -0.3786 0.4203
vn -0.8246 -0.3788 0.4202
vn -0.8246 -0.3786 0.4204
usemtl None
s off
f 12//1 8//1 4//1
f 14//2 13//2 15//2
f 13//3 12//3 1//3
f 15//4 13//4 1//4
f 12//3 11//3 8//3
f 11//5 10//5 9//5
f 8//6 11//6 9//6
f 8//1 7//1 5//1
f 7//7 6//7 5//7
f 5//4 4//4 8//4
f 4//2 3//2 12//2
f 3//3 2//3 12//3
f 2//4 1//4 12//4
o 1_Cook_Islands_sphere.001
v -4.332606 -1.800398 1.612174
v -4.331791 -1.803144 1.611297
v -4.331603 -1.805553 1.609497
v -4.335782 -1.804516 1.602229
v -4.336150 -1.804750 1.601297
v -4.339636 -1.802230 1.596725
v -4.344278 -1.803350 1.586605
v -4.347006 -1.800483 1.583835
v -4.346910 -1.798351 1.585944
v -4.348179 -1.793122 1.588165
v -4.349286 -1.789786 1.589000
v -4.349030 -1.787867 1.591231
v -4.346257 -1.786625 1.597793
v -4.343765 -1.786517 1.602782
v -4.340680 -1.787565 1.607892
v -4.337538 -1.790130 1.611747
v -4.334972 -1.794454 1.612887
vn -0.8246 -0.3787 0.4202
vn -0.8247 -0.3786 0.4202
vn -0.8247 -0.3788 0.4200
vn -0.8247 -0.3787 0.4202
vn -0.8248 -0.3786 0.4201
vn -0.8247 -0.3786 0.4201
vn -0.8246 -0.3786 0.4202
vn -0.8246 -0.3788 0.4202
vn -0.8249 -0.3780 0.4202
usemtl None
s off
f 24//8 22//8 21//8
f 16//9 32//9 19//9
f 32//10 31//10 30//10
f 19//9 32//9 30//9
f 30//8 29//8 21//8
f 29//11 28//11 21//11
f 28//8 27//8 25//8
f 21//8 28//8 25//8
f 27//12 26//12 25//12
f 24//13 23//13 22//13
f 25//14 24//14 21//14
f 30//11 21//11 19//11
f 17//11 16//11 19//11
f 19//15 18//15 17//15
f 21//16 20//16 19//16
o 2_Cook_Islands_sphere.001
v -4.281651 -1.709942 1.793693
v -4.282391 -1.712685 1.789768
v -4.284799 -1.711515 1.786098
v -4.288308 -1.706175 1.784022
v -4.290598 -1.699938 1.785148
v -4.289727 -1.697703 1.788872
v -4.286850 -1.699087 1.793269
v -4.283092 -1.703853 1.796353
vn -0.8246 -0.3787 0.4202
vn -0.8247 -0.3786 0.4202
vn -0.8246 -0.3786 0.4203
vn -0.8246 -0.3788 0.4202
usemtl None
s off
f 33//17 40//17 36//17
f 40//17 39//17 36//17
f 39//18 38//18 36//18
f 38//19 37//19 36//19
f 36//18 35//18 33//18
f 35//20 34//20 33//20
o 3_Cook_Islands_sphere.001
v -4.312870 -1.699188 1.742113
v -4.314251 -1.701621 1.737210
v -4.317580 -1.700400 1.731777
v -4.321671 -1.695551 1.728118
v -4.325434 -1.687680 1.727825
v -4.323725 -1.686304 1.732419
v -4.319243 -1.688884 1.738889
v -4.314736 -1.692909 1.744108
vn -0.8246 -0.3787 0.4202
vn -0.8247 -0.3787 0.4201
vn -0.8247 -0.3786 0.4202
usemtl None
s off
f 42//21 41//21 48//21
f 48//22 47//22 42//22
f 47//21 46//21 44//21
f 46//23 45//23 44//23
f 44//23 43//23 47//23
f 43//21 42//21 47//21
o 4_Cook_Islands_sphere.001
v -4.329889 -1.680245 1.725781
v -4.328363 -1.682264 1.726957
v -4.331556 -1.678927 1.723697
v -4.330679 -1.679379 1.725012
vn -0.8248 -0.3777 0.4208
vn -0.8248 -0.3788 0.4197
usemtl None
s off
f 49//24 51//24 50//24
f 49//25 52//25 51//25
o 5_Cook_Islands_sphere.001
v -4.330867 -1.680432 1.723693
v -4.331300 -1.680701 1.722601
v -4.331439 -1.679795 1.723145
v -4.330708 -1.678452 1.725790
vn -0.8249 -0.3782 0.4203
vn -0.8245 -0.3790 0.4202
usemtl None
s off
f 55//26 53//26 56//26
f 55//27 54//27 53//27
o 6_Cook_Islands_sphere.001
v -4.304522 -1.688243 1.768359
v -4.304715 -1.693472 1.763269
v -4.306545 -1.688650 1.764021
v -4.308691 -1.685202 1.762918
v -4.310601 -1.683040 1.761118
v -4.312496 -1.680498 1.759689
v -4.314677 -1.675773 1.759666
v -4.315012 -1.672973 1.761532
v -4.314656 -1.664736 1.769652
v -4.314271 -1.662574 1.772357
v -4.311818 -1.669832 1.770633
v -4.307759 -1.679323 1.770045
vn -0.8247 -0.3785 0.4202
vn -0.8247 -0.3786 0.4201
vn -0.8247 -0.3787 0.4201
vn -0.8248 -0.3783 0.4202
vn -0.8247 -0.3786 0.4202
vn -0.8246 -0.3787 0.4202
vn -0.8246 -0.3786 0.4202
vn -0.8246 -0.3788 0.4202
vn -0.8247 -0.3787 0.4202
usemtl None
s off
f 60//28 59//28 57//28
f 67//29 66//29 65//29
f 65//30 64//30 67//30
f 64//31 63//31 68//31
f 67//32 64//32 68//32
f 63//33 62//33 68//33
f 62//34 61//34 68//34
f 61//35 60//35 68//35
f 57//36 68//36 60//36
f 59//32 58//32 57//32
o 7_Cook_Islands_sphere.001
v -4.371501 -1.636867 1.683202
v -4.369966 -1.638865 1.684416
v -4.368457 -1.637860 1.688282
v -4.368238 -1.638712 1.687945
v -4.368214 -1.639287 1.687474
v -4.368493 -1.640240 1.686066
v -4.370648 -1.638907 1.683039
v -4.373343 -1.636241 1.680151
v -4.375008 -1.633709 1.679167
v -4.374104 -1.632712 1.681840
v -4.372907 -1.634125 1.682915
vn -0.8246 -0.3788 0.4201
vn -0.8245 -0.3789 0.4202
vn -0.8247 -0.3786 0.4201
vn -0.8248 -0.3783 0.4203
vn -0.8250 -0.3780 0.4201
vn -0.8244 -0.3794 0.4201
vn -0.8248 -0.3781 0.4204
vn -0.8247 -0.3784 0.4204
usemtl None
s off
f 70//37 69//37 75//37
f 69//38 79//38 76//38
f 79//38 78//38 76//38
f 78//39 77//39 76//39
f 76//40 75//40 69//40
f 75//41 74//41 70//41
f 74//42 73//42 70//42
f 73//43 72//43 70//43
f 72//44 71//44 70//44
o 8_Cook_Islands_sphere.001
v -4.416218 -1.599911 1.628743
v -4.414339 -1.601716 1.630805
v -4.413527 -1.603623 1.630680
v -4.414248 -1.602799 1.630007
v -4.415020 -1.601295 1.629849
v -4.415424 -1.601123 1.629209
v -4.414758 -1.605563 1.626517
v -4.414478 -1.606389 1.626321
v -4.412136 -1.611543 1.626273
v -4.411927 -1.613917 1.624543
v -4.413137 -1.613847 1.622231
v -4.414752 -1.611681 1.621013
v -4.416025 -1.608786 1.621125
v -4.417283 -1.604264 1.622731
v -4.417450 -1.602701 1.623810
v -4.417355 -1.600499 1.625983
vn -0.8247 -0.3784 0.4205
vn -0.8247 -0.3786 0.4202
vn -0.8248 -0.3785 0.4201
vn -0.8246 -0.3789 0.4202
vn -0.8248 -0.3785 0.4202
vn -0.8247 -0.3785 0.4203
vn -0.8247 -0.3787 0.4201
vn -0.8246 -0.3788 0.4201
vn -0.8247 -0.3788 0.4201
vn -0.8247 -0.3788 0.4199
vn -0.8251 -0.3779 0.4200
usemtl None
s off
f 80//45 85//45 84//45
f 80//46 95//46 85//46
f 95//47 94//47 86//47
f 94//48 93//48 86//48
f 93//49 92//49 87//49
f 86//50 93//50 87//50
f 92//51 91//51 88//51
f 91//52 90//52 88//52
f 90//46 89//46 88//46
f 88//46 87//46 92//46
f 83//53 82//53 81//53
f 84//54 83//54 81//54
f 95//46 86//46 85//46
f 84//55 81//55 80//55
o 9_Cook_Islands_sphere.001
v -4.712709 -0.936139 1.191875
v -4.712780 -0.937007 1.190115
v -4.713186 -0.936094 1.188931
v -4.713950 -0.933400 1.188197
v -4.713557 -0.932926 1.191395
v -4.713327 -0.932896 1.192890
v -4.712992 -0.933338 1.194338
vn -0.9611 -0.2305 0.1522
vn -0.9610 -0.2309 0.1524
vn -0.9611 -0.2307 0.1520
vn -0.9610 -0.2310 0.1522
vn -0.9611 -0.2304 0.1522
usemtl None
s off
f 100//56 98//56 96//56
f 102//57 101//57 96//57
f 101//58 100//58 96//58
f 100//59 99//59 98//59
f 98//60 97//60 96//60
o 10_Cook_Islands_sphere.001
v -4.631489 -0.895393 1.594999
v -4.625572 -0.903811 1.602215
v -4.632001 -0.895666 1.593851
v -4.633050 -0.894264 1.592525
v -4.633371 -0.893659 1.592212
vn -0.8668 -0.2311 0.4418
vn -0.8672 -0.2300 0.4418
vn -0.8669 -0.2303 0.4421
usemtl None
s off
f 105//61 103//61 106//61
f 104//62 103//62 105//62
f 103//63 107//63 106//63
o 11_Cook_Islands_sphere.001
v -4.640535 -0.868296 1.591399
v -4.641185 -0.869869 1.589301
v -4.641643 -0.868112 1.589321
v -4.640444 -0.866603 1.592462
vn -0.8670 -0.2306 0.4416
vn -0.8671 -0.2302 0.4418
usemtl None
s off
f 110//64 108//64 111//64
f 110//65 109//65 108//65
o 12_Cook_Islands_sphere.001
v -4.533932 -0.777997 1.846317
v -4.537169 -0.778032 1.839957
v -4.539806 -0.776500 1.835045
v -4.542836 -0.772786 1.829733
v -4.544778 -0.768949 1.826578
v -4.544147 -0.766841 1.828180
v -4.534068 -0.775911 1.846407
vn -0.8883 -0.0777 0.4526
vn -0.8883 -0.0776 0.4527
vn -0.8883 -0.0776 0.4526
vn -0.8884 -0.0775 0.4525
vn -0.8883 -0.0774 0.4526
usemtl None
s off
f 113//66 112//66 118//66
f 118//67 117//67 114//67
f 117//68 116//68 115//68
f 114//69 117//69 115//69
f 114//70 113//70 118//70
