# Blender v2.81 (sub 16) OBJ File: ''
# www.blender.org
mtllib Curacao.mtl
o 0_Curaçao_sphere.001
v 1.765734 1.028265 4.509136
v 1.771585 1.022254 4.507754
v 1.772541 1.020721 4.507675
v 1.771258 1.019815 4.508570
v 1.768091 1.019315 4.510316
v 1.764356 1.019258 4.512235
v 1.761329 1.019713 4.513657
v 1.757250 1.021889 4.515156
v 1.749112 1.027838 4.517718
v 1.741491 1.030555 4.520879
v 1.736522 1.033738 4.522563
v 1.732007 1.037601 4.523836
v 1.729914 1.041040 4.523987
v 1.728660 1.044257 4.523770
v 1.726280 1.045353 4.524691
v 1.723581 1.045700 4.525974
v 1.721334 1.046663 4.526863
v 1.719290 1.049139 4.527246
v 1.714411 1.056849 4.527679
v 1.712708 1.058157 4.528199
v 1.710758 1.059277 4.528894
v 1.709095 1.060677 4.529369
v 1.708267 1.062782 4.529231
v 1.708075 1.068328 4.527853
v 1.707566 1.071276 4.527328
v 1.706263 1.073906 4.527291
v 1.706889 1.075297 4.526602
v 1.707501 1.075871 4.526138
v 1.708179 1.075737 4.525828
v 1.709004 1.074984 4.525608
v 1.715065 1.072221 4.523255
v 1.717710 1.070515 4.522361
v 1.720413 1.068082 4.521632
v 1.722210 1.065125 4.521503
v 1.724305 1.057813 4.522381
v 1.725862 1.054644 4.522431
v 1.731486 1.049133 4.521032
v 1.737827 1.045776 4.518695
v 1.756603 1.040401 4.510559
v 1.758877 1.038927 4.509793
v 1.759939 1.036839 4.509807
v 1.760649 1.033551 4.510321
v 1.761981 1.031515 4.510183
vn 0.4420 0.2306 0.8669
vn 0.4418 0.2308 0.8669
vn 0.4418 0.2307 0.8669
vn 0.4416 0.2308 0.8670
vn 0.4417 0.2307 0.8670
vn 0.4420 0.2307 0.8669
vn 0.4416 0.2307 0.8670
vn 0.4418 0.2307 0.8670
vn 0.4417 0.2308 0.8670
vn 0.4419 0.2307 0.8669
vn 0.4418 0.2306 0.8670
vn 0.4415 0.2307 0.8671
vn 0.4420 0.2308 0.8668
vn 0.4419 0.2305 0.8669
vn 0.4414 0.2310 0.8671
vn 0.4416 0.2309 0.8670
vn 0.4415 0.2309 0.8670
vn 0.4417 0.2308 0.8669
vn 0.4422 0.2310 0.8667
vn 0.4419 0.2308 0.8669
vn 0.4419 0.2306 0.8669
vn 0.4415 0.2308 0.8671
usemtl None
s off
f 34//1 33//1 20//1
f 3//2 2//2 4//2
f 2//3 1//3 5//3
f 2//4 5//4 4//4
f 1//5 43//5 8//5
f 5//5 1//5 6//5
f 7//6 6//6 1//6
f 9//5 8//5 42//5
f 8//3 7//3 1//3
f 11//7 10//7 38//7
f 10//8 9//8 39//8
f 39//7 9//7 42//7
f 13//9 12//9 38//9
f 12//10 11//10 38//10
f 14//8 13//8 38//8
f 8//11 43//11 42//11
f 38//8 10//8 39//8
f 17//5 16//5 36//5
f 16//12 15//12 36//12
f 18//10 17//10 36//10
f 15//5 14//5 37//5
f 19//5 18//5 35//5
f 36//3 15//3 37//3
f 37//5 14//5 38//5
f 42//13 41//13 39//13
f 41//14 40//14 39//14
f 20//15 19//15 34//15
f 22//7 21//7 23//7
f 21//16 20//16 23//16
f 24//5 23//5 32//5
f 27//1 26//1 30//1
f 26//17 25//17 30//17
f 23//8 20//8 32//8
f 25//8 24//8 31//8
f 30//18 25//18 31//18
f 29//19 28//19 27//19
f 32//3 31//3 24//3
f 30//20 29//20 27//20
f 18//21 36//21 35//21
f 32//22 20//22 33//22
f 35//3 34//3 19//3
