# Blender v2.81 (sub 16) OBJ File: ''
# www.blender.org
mtllib Cyprus.mtl
o 0_Cyprus_sphere.001
v 3.387873 2.853400 -2.265319
v 3.387910 2.852652 -2.266244
v 3.387480 2.852703 -2.267020
v 3.387119 2.852746 -2.267672
v 3.386919 2.852347 -2.268595
v 3.387090 2.851462 -2.269440
v 3.387233 2.851444 -2.269184
v 3.387748 2.851236 -2.268451
v 3.388113 2.851046 -2.267989
v 3.388396 2.851010 -2.267481
v 3.388468 2.851023 -2.267321
v 3.388241 2.851607 -2.266987
v 3.388595 2.851708 -2.266157
v 3.389030 2.851656 -2.265374
v 3.388782 2.852413 -2.264853
v 3.388986 2.852690 -2.264082
v 3.389251 2.853242 -2.262825
v 3.388875 2.853587 -2.263103
v 3.388440 2.853637 -2.263890
vn 0.7622 0.5178 -0.3885
vn 0.7626 0.5172 -0.3886
vn 0.7623 0.5177 -0.3884
vn 0.7621 0.5180 -0.3885
vn 0.7619 0.5183 -0.3884
vn 0.7624 0.5176 -0.3884
vn 0.7620 0.5181 -0.3886
vn 0.7622 0.5181 -0.3883
vn 0.7620 0.5180 -0.3886
vn 0.7627 0.5173 -0.3883
vn 0.7627 0.5174 -0.3880
vn 0.7629 0.5169 -0.3883
vn 0.7616 0.5185 -0.3889
vn 0.7624 0.5177 -0.3883
vn 0.7626 0.5173 -0.3884
vn 0.7623 0.5178 -0.3883
usemtl None
s off
f 12//1 9//1 8//1
f 6//2 5//2 7//2
f 5//3 4//3 8//3
f 7//4 5//4 8//4
f 4//5 3//5 12//5
f 3//6 2//6 12//6
f 2//7 1//7 15//7
f 1//8 19//8 15//8
f 19//9 18//9 16//9
f 18//10 17//10 16//10
f 16//11 15//11 19//11
f 15//12 14//12 13//12
f 12//13 11//13 10//13
f 15//7 13//7 2//7
f 13//14 12//14 2//14
f 12//15 10//15 9//15
f 8//16 4//16 12//16
o 1_Cyprus_sphere.001
v 3.388767 2.853014 -2.264080
v 3.389282 2.852671 -2.263526
v 3.389435 2.852904 -2.262916
v 3.389249 2.853433 -2.262575
v 3.388619 2.854417 -2.262499
v 3.388153 2.855151 -2.262435
v 3.387556 2.855495 -2.263148
v 3.387093 2.855397 -2.264188
v 3.388105 2.853397 -2.264869
vn 0.7623 0.5179 -0.3882
vn 0.7622 0.5178 -0.3885
vn 0.7620 0.5177 -0.3890
vn 0.7620 0.5184 -0.3880
vn 0.7625 0.5166 -0.3895
vn 0.7623 0.5179 -0.3883
usemtl None
s off
f 28//17 26//17 24//17
f 28//18 27//18 26//18
f 26//19 25//19 24//19
f 24//18 23//18 20//18
f 23//20 22//20 20//20
f 22//21 21//21 20//21
f 20//22 28//22 24//22
o 2_Cyprus_sphere.001
v 3.379640 2.861576 -2.270578
v 3.379160 2.861284 -2.271909
v 3.378161 2.861379 -2.273742
v 3.376490 2.862437 -2.275613
v 3.375255 2.862548 -2.277888
v 3.375026 2.861785 -2.279355
v 3.374522 2.861176 -2.281155
v 3.373735 2.861478 -2.282298
v 3.373137 2.861964 -2.282825
v 3.372463 2.862747 -2.283102
v 3.372253 2.861394 -2.285317
v 3.372280 2.859420 -2.287898
v 3.373530 2.855473 -2.290706
v 3.374065 2.852961 -2.293005
v 3.374334 2.850678 -2.295519
v 3.374022 2.849794 -2.297312
v 3.375017 2.849527 -2.295716
v 3.376602 2.849598 -2.292509
v 3.377879 2.850227 -2.289164
v 3.377886 2.851649 -2.287255
v 3.378332 2.852300 -2.285511
v 3.382637 2.850882 -2.278953
v 3.387064 2.848527 -2.273403
v 3.388251 2.847611 -2.272295
v 3.389444 2.846393 -2.271580
v 3.391172 2.846845 -2.267585
v 3.392912 2.846090 -2.265176
v 3.393191 2.846648 -2.263885
v 3.391425 2.848310 -2.265134
v 3.390616 2.848676 -2.266236
v 3.389189 2.851439 -2.265351
v 3.390511 2.851496 -2.262681
v 3.390714 2.852644 -2.260752
v 3.388827 2.856156 -2.259772
v 3.388850 2.857210 -2.258322
v 3.389954 2.858374 -2.254603
v 3.388620 2.860168 -2.254831
v 3.387383 2.861222 -2.255854
v 3.385924 2.862172 -2.257451
v 3.385719 2.861495 -2.258756
v 3.385694 2.860673 -2.259900
v 3.384464 2.861132 -2.261702
v 3.382974 2.862311 -2.263054
v 3.381905 2.863436 -2.263653
v 3.381073 2.864314 -2.264115
v 3.380699 2.862623 -2.267103
v 3.380112 2.862111 -2.268937
vn 0.7622 0.5179 -0.3884
vn 0.7623 0.5177 -0.3883
vn 0.7621 0.5182 -0.3882
vn 0.7624 0.5174 -0.3886
vn 0.7623 0.5178 -0.3884
vn 0.7623 0.5177 -0.3886
vn 0.7623 0.5178 -0.3883
vn 0.7623 0.5179 -0.3883
vn 0.7621 0.5181 -0.3884
vn 0.7622 0.5177 -0.3886
vn 0.7623 0.5177 -0.3885
vn 0.7620 0.5182 -0.3883
vn 0.7623 0.5177 -0.3884
vn 0.7621 0.5179 -0.3886
vn 0.7625 0.5177 -0.3881
vn 0.7622 0.5178 -0.3884
vn 0.7620 0.5183 -0.3882
vn 0.7622 0.5180 -0.3883
vn 0.7622 0.5179 -0.3885
vn 0.7622 0.5181 -0.3881
vn 0.7622 0.5179 -0.3883
vn 0.7622 0.5178 -0.3885
vn 0.7621 0.5179 -0.3885
vn 0.7624 0.5176 -0.3884
vn 0.7624 0.5177 -0.3883
usemtl None
s off
f 70//23 62//23 59//23
f 41//24 40//24 49//24
f 40//25 39//25 36//25
f 39//23 38//23 37//23
f 39//26 37//26 36//26
f 40//27 36//27 49//27
f 36//28 35//28 49//28
f 42//29 41//29 47//29
f 34//26 33//26 32//26
f 41//30 49//30 48//30
f 35//29 34//29 50//29
f 49//27 35//27 50//27
f 45//31 44//31 43//31
f 43//27 42//27 46//27
f 34//32 32//32 31//32
f 41//33 48//33 47//33
f 34//27 31//27 50//27
f 46//34 45//34 43//34
f 47//35 46//35 42//35
f 31//35 30//35 50//35
f 29//36 75//36 59//36
f 75//37 74//37 59//37
f 30//32 29//32 51//32
f 50//38 30//38 51//38
f 74//23 73//23 72//23
f 51//27 29//27 59//27
f 74//35 72//35 71//35
f 74//38 71//38 70//38
f 54//39 53//39 52//39
f 52//40 51//40 59//40
f 74//38 70//38 59//38
f 56//23 55//23 57//23
f 55//35 54//35 57//35
f 54//41 52//41 58//41
f 69//42 68//42 63//42
f 68//36 67//36 66//36
f 58//43 57//43 54//43
f 68//44 66//44 63//44
f 66//29 65//29 63//29
f 65//27 64//27 63//27
f 62//45 61//45 60//45
f 69//46 63//46 62//46
f 59//35 58//35 52//35
f 62//47 60//47 59//47
f 70//29 69//29 62//29
o 3_Cyprus_sphere.001
v 3.418699 2.866752 -2.187020
v 3.419101 2.865458 -2.187956
v 3.419225 2.864488 -2.189006
v 3.418863 2.863855 -2.190560
v 3.418002 2.863254 -2.193051
v 3.417544 2.862409 -2.195076
v 3.417012 2.861708 -2.197055
v 3.416909 2.860980 -2.198227
v 3.417491 2.859529 -2.199019
v 3.417960 2.858620 -2.199311
v 3.418110 2.857855 -2.200037
v 3.417840 2.857517 -2.201018
v 3.417447 2.857550 -2.201746
v 3.415927 2.858260 -2.203781
v 3.414997 2.859014 -2.204603
v 3.414618 2.859474 -2.204731
v 3.413787 2.860571 -2.204901
v 3.413235 2.860982 -2.205437
v 3.413005 2.860637 -2.206347
v 3.413080 2.859967 -2.207094
v 3.412799 2.859199 -2.208668
v 3.412199 2.859251 -2.209776
v 3.411261 2.859973 -2.210655
v 3.409642 2.861570 -2.211703
v 3.408141 2.862998 -2.212745
v 3.406991 2.863749 -2.214001
v 3.405382 2.864965 -2.215537
v 3.404482 2.865823 -2.216161
v 3.403988 2.866012 -2.216879
v 3.403012 2.865863 -2.218992
v 3.402072 2.865508 -2.221310
v 3.400985 2.865595 -2.223327
v 3.400109 2.866164 -2.224289
v 3.399642 2.866564 -2.224672
v 3.398958 2.867405 -2.224893
v 3.397240 2.868819 -2.226379
v 3.396567 2.868869 -2.227634
v 3.396216 2.868471 -2.228853
v 3.395830 2.868141 -2.230050
v 3.395332 2.868115 -2.231062
v 3.395085 2.867776 -2.232000
v 3.395103 2.866635 -2.233484
v 3.395190 2.865640 -2.234641
v 3.394860 2.864952 -2.236207
v 3.394112 2.864592 -2.238154
v 3.393666 2.864840 -2.238698
v 3.393215 2.865369 -2.238878
v 3.392776 2.866115 -2.238745
v 3.391880 2.866894 -2.239465
v 3.390176 2.868658 -2.240458
v 3.389706 2.868904 -2.241053
v 3.389086 2.868813 -2.242390
v 3.387903 2.869115 -2.244310
v 3.387073 2.869391 -2.245571
v 3.386990 2.869116 -2.246100
v 3.387567 2.867949 -2.246524
v 3.388128 2.866568 -2.247264
v 3.388091 2.866008 -2.248084
v 3.388104 2.865101 -2.249266
v 3.388097 2.863979 -2.250776
v 3.388324 2.863396 -2.251110
v 3.389058 2.861784 -2.251816
v 3.389885 2.860239 -2.252252
v 3.390801 2.858389 -2.252922
v 3.392128 2.856223 -2.253205
v 3.393236 2.854493 -2.253336
v 3.393728 2.853247 -2.254032
v 3.393807 2.852320 -2.255113
v 3.393340 2.852370 -2.255963
v 3.392458 2.852814 -2.257102
v 3.391429 2.854331 -2.257098
v 3.389921 2.857071 -2.256406
v 3.389454 2.857547 -2.256688
v 3.388851 2.858163 -2.257050
v 3.388133 2.858867 -2.257522
v 3.388132 2.858232 -2.258369
v 3.389256 2.855954 -2.259201
v 3.389615 2.854724 -2.260136
v 3.389307 2.854345 -2.261245
v 3.388259 2.855011 -2.262414
v 3.387323 2.856289 -2.262547
v 3.386706 2.856847 -2.263015
v 3.386322 2.856746 -2.263903
v 3.386135 2.856205 -2.264992
v 3.385702 2.856389 -2.265596
v 3.385229 2.856722 -2.266080
v 3.384928 2.856469 -2.267007
v 3.384716 2.856146 -2.267856
v 3.384244 2.855360 -2.269827
v 3.383800 2.855272 -2.270818
v 3.383420 2.855179 -2.271688
v 3.383173 2.854442 -2.273154
v 3.383107 2.854386 -2.273359
v 3.383854 2.852972 -2.273778
v 3.385031 2.852255 -2.272425
v 3.387115 2.850103 -2.271203
v 3.388015 2.848861 -2.271092
v 3.389056 2.847289 -2.271144
v 3.390104 2.845556 -2.271398
v 3.391011 2.843854 -2.271888
v 3.391817 2.842047 -2.272714
v 3.392306 2.841249 -2.272820
v 3.392870 2.840870 -2.272218
v 3.393308 2.840474 -2.271886
v 3.394440 2.838732 -2.271986
v 3.394897 2.838160 -2.271852
v 3.395733 2.837716 -2.270804
v 3.397173 2.837500 -2.268265
v 3.397856 2.837160 -2.267379
v 3.398588 2.836387 -2.266972
v 3.399588 2.835209 -2.266579
v 3.400610 2.834123 -2.266021
v 3.401430 2.833590 -2.265124
v 3.403141 2.832766 -2.262865
v 3.404975 2.831462 -2.261003
v 3.406221 2.830896 -2.259312
v 3.406162 2.832265 -2.257602
v 3.407575 2.829507 -2.258505
v 3.409548 2.827907 -2.256768
v 3.413524 2.826173 -2.251275
v 3.414492 2.825500 -2.250273
v 3.415153 2.824942 -2.249721
v 3.416062 2.824180 -2.248952
v 3.416841 2.823856 -2.247856
v 3.419801 2.824076 -2.241752
v 3.423482 2.822908 -2.236085
v 3.424378 2.822464 -2.234919
v 3.425455 2.821552 -2.234020
v 3.429474 2.817633 -2.231357
v 3.430839 2.815835 -2.231076
v 3.432026 2.815661 -2.228978
v 3.433166 2.815266 -2.227268
v 3.433870 2.814496 -2.226912
v 3.433999 2.814844 -2.226195
v 3.433338 2.816276 -2.225584
v 3.432330 2.817243 -2.226271
v 3.432395 2.816714 -2.226851
v 3.431462 2.816849 -2.228500
v 3.430148 2.819624 -2.227379
v 3.431505 2.819805 -2.224476
v 3.432632 2.818678 -2.223766
v 3.433423 2.817672 -2.223556
v 3.433476 2.818115 -2.222860
v 3.433831 2.818510 -2.221638
v 3.434364 2.817780 -2.221564
v 3.435435 2.818231 -2.218861
v 3.435705 2.819353 -2.216837
v 3.435485 2.820232 -2.216095
v 3.434834 2.821563 -2.215597
v 3.435179 2.821408 -2.215129
v 3.435554 2.821357 -2.214459
v 3.435803 2.821325 -2.214015
v 3.436036 2.821327 -2.213556
v 3.436136 2.821422 -2.213231
v 3.436605 2.820932 -2.212965
v 3.437114 2.820365 -2.212722
v 3.437470 2.819962 -2.212560
v 3.438215 2.819683 -2.211470
v 3.439363 2.818102 -2.211323
v 3.440220 2.818196 -2.209517
v 3.440638 2.818427 -2.208389
v 3.441342 2.817649 -2.208043
v 3.442165 2.816004 -2.208622
v 3.442912 2.815573 -2.207731
v 3.445211 2.814821 -2.204221
v 3.446905 2.815242 -2.200336
v 3.448089 2.816475 -2.196367
v 3.449197 2.818901 -2.190958
v 3.449754 2.819472 -2.189106
v 3.450567 2.819776 -2.187105
v 3.452491 2.819895 -2.183170
v 3.453043 2.820408 -2.181401
v 3.453408 2.821218 -2.179605
v 3.453966 2.823729 -2.175162
v 3.453949 2.824275 -2.174468
v 3.452657 2.827284 -2.172991
v 3.452606 2.827747 -2.172475
v 3.452114 2.828733 -2.172126
v 3.450359 2.834120 -2.168388
v 3.450483 2.834888 -2.167121
v 3.450900 2.835990 -2.164832
v 3.450916 2.836761 -2.163773
v 3.450772 2.837765 -2.162719
v 3.450408 2.838988 -2.161803
v 3.449724 2.840333 -2.161350
v 3.448584 2.841713 -2.161748
v 3.448100 2.844327 -2.159214
v 3.447613 2.845407 -2.158730
v 3.446413 2.847663 -2.158077
v 3.445595 2.849589 -2.157115
v 3.444963 2.852690 -2.154222
v 3.444516 2.854238 -2.153034
v 3.443360 2.856793 -2.151897
v 3.442198 2.858671 -2.151674
v 3.441308 2.859333 -2.152539
v 3.440952 2.858227 -2.154712
v 3.440961 2.855599 -2.158198
v 3.440738 2.854556 -2.160025
v 3.440166 2.853973 -2.161924
v 3.438073 2.854297 -2.165600
v 3.435488 2.856042 -2.168348
v 3.432781 2.858595 -2.170258
v 3.430334 2.861315 -2.171434
v 3.427999 2.864469 -2.171811
v 3.426612 2.866184 -2.172246
v 3.425375 2.867175 -2.173352
v 3.425040 2.867649 -2.173379
v 3.424664 2.868128 -2.173478
v 3.424285 2.868354 -2.173920
v 3.424115 2.868254 -2.174387
v 3.423980 2.867863 -2.175174
v 3.423706 2.867681 -2.175954
v 3.423139 2.867900 -2.176775
v 3.423367 2.866795 -2.177801
v 3.423040 2.866148 -2.179304
v 3.422475 2.865971 -2.180650
v 3.421813 2.866234 -2.181598
v 3.420875 2.866967 -2.182462
v 3.419871 2.868294 -2.182665
v 3.418926 2.869569 -2.182820
v 3.417644 2.869332 -2.185650
vn 0.7624 0.5172 -0.3889
vn 0.7627 0.5170 -0.3886
vn 0.7621 0.5180 -0.3884
vn 0.7624 0.5176 -0.3884
vn 0.7621 0.5178 -0.3888
vn 0.7622 0.5179 -0.3884
vn 0.7622 0.5179 -0.3883
vn 0.7625 0.5176 -0.3883
vn 0.7623 0.5179 -0.3882
vn 0.7624 0.5171 -0.3891
vn 0.7621 0.5179 -0.3885
vn 0.7624 0.5177 -0.3883
vn 0.7623 0.5178 -0.3883
vn 0.7623 0.5175 -0.3886
vn 0.7623 0.5182 -0.3877
vn 0.7622 0.5178 -0.3885
vn 0.7623 0.5176 -0.3885
vn 0.7623 0.5177 -0.3884
vn 0.7625 0.5180 -0.3877
vn 0.7624 0.5177 -0.3884
vn 0.7622 0.5178 -0.3886
vn 0.7622 0.5181 -0.3882
vn 0.7622 0.5178 -0.3884
vn 0.7624 0.5175 -0.3885
vn 0.7623 0.5178 -0.3884
vn 0.7623 0.5179 -0.3881
vn 0.7619 0.5175 -0.3895
vn 0.7626 0.5176 -0.3880
vn 0.7622 0.5179 -0.3885
vn 0.7623 0.5179 -0.3883
vn 0.7623 0.5176 -0.3886
vn 0.7622 0.5180 -0.3883
vn 0.7620 0.5177 -0.3891
vn 0.7621 0.5181 -0.3882
vn 0.7627 0.5172 -0.3883
vn 0.7618 0.5184 -0.3885
vn 0.7623 0.5177 -0.3885
vn 0.7621 0.5169 -0.3898
vn 0.7620 0.5193 -0.3870
vn 0.7621 0.5185 -0.3879
vn 0.7622 0.5176 -0.3887
vn 0.7621 0.5178 -0.3887
vn 0.7627 0.5175 -0.3879
vn 0.7612 0.5196 -0.3880
vn 0.7625 0.5173 -0.3887
vn 0.7621 0.5184 -0.3878
vn 0.7622 0.5177 -0.3887
vn 0.7632 0.5164 -0.3884
vn 0.7620 0.5182 -0.3884
vn 0.7624 0.5178 -0.3882
vn 0.7622 0.5181 -0.3881
vn 0.7618 0.5184 -0.3884
vn 0.7622 0.5180 -0.3882
vn 0.7625 0.5177 -0.3880
vn 0.7621 0.5180 -0.3885
vn 0.7627 0.5170 -0.3887
vn 0.7620 0.5181 -0.3885
vn 0.7621 0.5181 -0.3883
vn 0.7621 0.5180 -0.3883
vn 0.7631 0.5165 -0.3885
vn 0.7621 0.5177 -0.3889
vn 0.7624 0.5174 -0.3887
vn 0.7624 0.5176 -0.3885
vn 0.7615 0.5191 -0.3880
vn 0.7622 0.5177 -0.3886
vn 0.7624 0.5179 -0.3879
vn 0.7619 0.5183 -0.3883
vn 0.7619 0.5184 -0.3882
vn 0.7624 0.5171 -0.3890
vn 0.7620 0.5209 -0.3846
vn 0.7624 0.5152 -0.3915
vn 0.7613 0.5202 -0.3871
vn 0.7620 0.5187 -0.3877
vn 0.7618 0.5184 -0.3886
vn 0.7626 0.5175 -0.3881
vn 0.7623 0.5178 -0.3882
vn 0.7626 0.5172 -0.3886
vn 0.7620 0.5184 -0.3881
vn 0.7620 0.5183 -0.3882
vn 0.7620 0.5182 -0.3883
vn 0.7625 0.5169 -0.3892
vn 0.7624 0.5175 -0.3884
vn 0.7624 0.5177 -0.3882
vn 0.7622 0.5177 -0.3885
vn 0.7623 0.5180 -0.3881
vn 0.7624 0.5174 -0.3886
vn 0.7623 0.5177 -0.3883
vn 0.7629 0.5167 -0.3887
vn 0.7624 0.5176 -0.3883
vn 0.7619 0.5179 -0.3889
vn 0.7627 0.5177 -0.3878
vn 0.7627 0.5171 -0.3885
vn 0.7621 0.5182 -0.3881
vn 0.7619 0.5179 -0.3890
vn 0.7625 0.5176 -0.3882
vn 0.7620 0.5180 -0.3886
vn 0.7623 0.5175 -0.3887
vn 0.7626 0.5174 -0.3883
vn 0.7621 0.5179 -0.3886
vn 0.7622 0.5181 -0.3880
vn 0.7624 0.5184 -0.3873
vn 0.7620 0.5181 -0.3884
vn 0.7625 0.5175 -0.3883
usemtl None
s off
f 287//48 286//48 281//48
f 169//49 168//49 167//49
f 167//50 166//50 170//50
f 166//51 165//51 170//51
f 164//52 163//52 171//52
f 163//53 162//53 160//53
f 165//54 164//54 170//54
f 170//55 169//55 167//55
f 171//56 170//56 164//56
f 163//57 160//57 159//57
f 162//58 161//58 160//58
f 172//59 171//59 155//59
f 159//60 171//60 163//60
f 159//61 158//61 156//61
f 158//62 157//62 156//62
f 173//53 172//53 154//53
f 171//63 159//63 155//63
f 174//64 173//64 154//64
f 172//65 155//65 154//65
f 177//66 176//66 178//66
f 176//67 175//67 178//67
f 175//68 174//68 183//68
f 159//69 156//69 155//69
f 174//70 154//70 145//70
f 178//71 175//71 179//71
f 183//72 174//72 145//72
f 179//73 175//73 183//73
f 181//74 180//74 182//74
f 180//59 179//59 182//59
f 154//75 153//75 145//75
f 183//76 182//76 179//76
f 184//65 183//65 145//65
f 152//77 151//77 148//77
f 151//63 150//63 149//63
f 153//78 152//78 146//78
f 145//79 153//79 146//79
f 187//80 186//80 188//80
f 186//71 185//71 188//71
f 185//81 184//81 143//81
f 151//82 149//82 148//82
f 148//83 147//83 152//83
f 147//84 146//84 152//84
f 184//72 145//72 144//72
f 189//68 188//68 185//68
f 191//67 190//67 192//67
f 190//64 189//64 192//64
f 194//60 193//60 192//60
f 184//65 144//65 143//65
f 189//72 185//72 143//72
f 192//70 189//70 143//70
f 195//53 194//53 192//53
f 198//85 197//85 199//85
f 197//86 196//86 199//86
f 196//87 195//87 200//87
f 195//72 192//72 142//72
f 142//68 192//68 143//68
f 200//72 195//72 142//72
f 200//65 199//65 196//65
f 201//70 200//70 98//70
f 200//72 142//72 119//72
f 120//88 142//88 141//88
f 141//65 140//65 121//65
f 140//65 139//65 121//65
f 142//53 120//53 119//53
f 120//69 141//69 121//69
f 202//63 201//63 97//63
f 139//50 138//50 121//50
f 138//89 137//89 134//89
f 137//90 136//90 134//90
f 136//91 135//91 134//91
f 134//92 133//92 121//92
f 133//93 132//93 121//93
f 131//78 130//78 129//78
f 138//70 134//70 121//70
f 132//63 131//63 128//63
f 131//56 129//56 128//56
f 203//94 202//94 214//94
f 132//51 128//51 127//51
f 127//95 126//95 125//95
f 132//72 127//72 124//72
f 204//65 203//65 214//65
f 200//72 119//72 107//72
f 206//96 205//96 213//96
f 205//97 204//97 213//97
f 209//54 208//54 207//54
f 207//98 206//98 212//98
f 200//70 107//70 98//70
f 132//64 124//64 122//64
f 121//99 132//99 122//99
f 127//100 125//100 124//100
f 124//101 123//101 122//101
f 209//102 207//102 210//102
f 206//72 213//72 212//72
f 211//103 210//103 212//103
f 212//104 210//104 207//104
f 201//51 98//51 97//51
f 107//105 119//105 118//105
f 118//78 117//78 114//78
f 117//106 116//106 114//106
f 114//68 116//68 115//68
f 214//84 213//84 204//84
f 214//53 202//53 215//53
f 107//107 118//107 108//107
f 218//108 217//108 216//108
f 216//109 215//109 219//109
f 118//110 114//110 109//110
f 114//68 113//68 109//68
f 118//111 109//111 108//111
f 113//112 112//112 110//112
f 112//113 111//113 110//113
f 110//114 109//114 113//114
f 215//72 202//72 97//72
f 224//72 215//72 97//72
f 219//115 218//115 216//115
f 221//116 220//116 219//116
f 223//100 222//100 224//100
f 222//70 221//70 224//70
f 226//117 225//117 224//117
f 215//72 224//72 219//72
f 224//72 221//72 219//72
f 227//118 226//118 229//118
f 226//59 224//59 229//59
f 229//119 228//119 227//119
f 229//60 224//60 88//60
f 230//120 229//120 233//120
f 233//121 232//121 231//121
f 231//122 230//122 233//122
f 224//123 97//123 96//123
f 236//72 229//72 86//72
f 106//124 105//124 102//124
f 105//64 104//64 102//64
f 229//125 236//125 233//125
f 107//56 106//56 98//56
f 235//60 234//60 233//60
f 98//63 106//63 99//63
f 104//124 103//124 102//124
f 235//126 233//126 236//126
f 106//127 102//127 101//127
f 101//63 100//63 99//63
f 101//67 99//67 106//67
f 239//105 238//105 237//105
f 237//128 236//128 241//128
f 88//63 224//63 89//63
f 240//129 239//129 237//129
f 242//79 241//79 236//79
f 241//79 240//79 237//79
f 243//72 242//72 236//72
f 229//130 88//130 87//130
f 229//129 87//129 86//129
f 244//131 243//131 86//131
f 243//70 236//70 86//70
f 247//132 246//132 245//132
f 248//133 247//133 245//133
f 245//76 244//76 253//76
f 224//70 96//70 89//70
f 249//129 248//129 251//129
f 248//70 245//70 251//70
f 251//134 245//134 253//134
f 251//76 250//76 249//76
f 253//100 252//100 251//100
f 89//48 96//48 90//48
f 95//127 94//127 91//127
f 94//135 93//135 92//135
f 96//70 95//70 90//70
f 253//65 244//65 254//65
f 94//56 92//56 91//56
f 257//68 256//68 261//68
f 256//136 255//136 261//136
f 255//79 254//79 261//79
f 254//72 244//72 276//72
f 95//67 91//67 90//67
f 259//137 258//137 261//137
f 258//64 257//64 261//64
f 261//138 260//138 259//138
f 263//70 262//70 261//70
f 264//133 263//133 261//133
f 244//72 86//72 276//72
f 265//70 264//70 274//70
f 264//72 261//72 274//72
f 274//54 261//54 275//54
f 267//123 266//123 272//123
f 266//63 265//63 272//63
f 254//60 276//60 275//60
f 261//70 254//70 275//70
f 268//131 267//131 271//131
f 270//139 269//139 271//139
f 269//100 268//100 271//100
f 272//53 271//53 267//53
f 86//140 85//140 79//140
f 85//56 84//56 82//56
f 84//141 83//141 82//141
f 82//142 81//142 85//142
f 81//50 80//50 85//50
f 80//51 79//51 85//51
f 273//59 272//59 265//59
f 276//70 86//70 277//70
f 79//143 78//143 277//143
f 274//84 273//84 265//84
f 86//72 79//72 277//72
f 78//144 77//144 292//144
f 76//53 296//53 294//53
f 296//59 295//59 294//59
f 277//65 78//65 291//65
f 77//60 76//60 293//60
f 76//72 294//72 293//72
f 291//145 78//145 292//145
f 280//146 279//146 281//146
f 279//76 278//76 290//76
f 290//147 278//147 291//147
f 278//88 277//88 291//88
f 77//106 293//106 292//106
f 283//148 282//148 285//148
f 282//70 281//70 286//70
f 283//68 285//68 284//68
f 285//149 282//149 286//149
f 279//54 290//54 289//54
f 289//150 288//150 287//150
f 279//65 289//65 281//65
f 289//100 287//100 281//100
