# Blender v2.81 (sub 16) OBJ File: ''
# www.blender.org
mtllib Dhekelia Sovereign Base Area.mtl
o 0_Dhekelia_Sovereign_Base_Area_sphere.001
v 3.396208 2.875025 -2.279814
v 3.394973 2.875025 -2.281694
v 3.395270 2.874300 -2.282155
v 3.394962 2.874301 -2.282622
v 3.395072 2.873564 -2.283382
v 3.395668 2.873007 -2.283176
v 3.396011 2.872836 -2.282869
v 3.396147 2.872718 -2.282810
v 3.396808 2.872145 -2.282525
v 3.397034 2.872998 -2.281107
v 3.397483 2.872594 -2.280933
v 3.398056 2.872080 -2.280707
v 3.398851 2.871561 -2.280150
v 3.399507 2.871387 -2.279371
v 3.399528 2.871789 -2.278833
v 3.399643 2.872126 -2.278233
v 3.400406 2.871723 -2.277578
v 3.401046 2.871264 -2.277183
v 3.401724 2.870457 -2.277166
v 3.401142 2.869844 -2.278823
v 3.401122 2.869332 -2.279498
v 3.402073 2.867732 -2.280065
v 3.401961 2.867164 -2.280951
v 3.401274 2.867059 -2.282129
v 3.401994 2.865802 -2.282615
v 3.402409 2.865676 -2.282141
v 3.403300 2.864987 -2.281652
v 3.403155 2.864699 -2.282235
v 3.402268 2.864948 -2.283272
v 3.401369 2.864607 -2.285070
v 3.402071 2.863941 -2.284839
v 3.402776 2.863356 -2.284502
v 3.403409 2.863105 -2.283856
v 3.403817 2.863431 -2.282823
v 3.403997 2.865055 -2.280504
v 3.404290 2.865625 -2.279341
v 3.405039 2.865880 -2.277880
v 3.404915 2.865882 -2.278066
v 3.404757 2.865940 -2.278233
v 3.404533 2.865999 -2.278501
v 3.404470 2.866000 -2.278595
v 3.404403 2.866340 -2.278269
v 3.404495 2.866505 -2.277922
v 3.404653 2.866504 -2.277682
v 3.404841 2.866502 -2.277399
v 3.404831 2.866793 -2.277047
v 3.405081 2.866907 -2.276523
v 3.405269 2.866906 -2.276240
v 3.405428 2.866787 -2.276146
v 3.405309 2.866562 -2.276612
v 3.405218 2.866445 -2.276896
v 3.405319 2.866161 -2.277100
v 3.405131 2.866163 -2.277383
v 3.404976 2.866108 -2.277689
v 3.405070 2.865889 -2.277822
v 3.405759 2.866127 -2.276473
v 3.407584 2.865971 -2.273891
v 3.408430 2.865606 -2.273063
v 3.407734 2.866714 -2.272727
v 3.407490 2.866542 -2.273315
v 3.406831 2.867407 -2.273230
v 3.407237 2.867801 -2.272117
v 3.407097 2.868260 -2.271752
v 3.406480 2.868722 -2.272109
v 3.406308 2.869237 -2.271722
v 3.406705 2.869749 -2.270473
v 3.406734 2.870086 -2.270005
v 3.406754 2.870316 -2.269685
v 3.406418 2.871006 -2.269328
v 3.405830 2.871693 -2.269359
v 3.405101 2.871870 -2.270246
v 3.404301 2.872501 -2.270670
v 3.403923 2.872502 -2.271244
v 3.403904 2.872212 -2.271639
v 3.405144 2.870612 -2.271765
v 3.405794 2.869755 -2.271854
v 3.405223 2.869985 -2.272434
v 3.403743 2.871077 -2.273312
v 3.403336 2.869941 -2.275361
v 3.402597 2.870572 -2.275693
v 3.402226 2.870453 -2.276406
v 3.401841 2.870577 -2.276837
v 3.401160 2.871489 -2.276726
v 3.399538 2.872525 -2.277890
v 3.399236 2.872298 -2.278637
v 3.399214 2.871791 -2.279309
v 3.398715 2.871907 -2.279922
v 3.397824 2.872536 -2.280487
v 3.397376 2.872996 -2.280590
v 3.397004 2.873272 -2.280808
v 3.396859 2.873898 -2.280240
v 3.396245 2.874972 -2.279824
v 3.395002 2.874926 -2.281775
v 3.395042 2.874697 -2.282001
v 3.395254 2.876330 -2.279568
v 3.394729 2.876331 -2.280366
v 3.395000 2.875715 -2.280753
v 3.394793 2.875597 -2.281224
vn 0.6873 0.5690 -0.4515
vn 0.6800 0.5813 -0.4469
vn 0.6870 0.5667 -0.4548
vn 0.6878 0.5683 -0.4517
vn 0.6875 0.5687 -0.4516
vn 0.6883 0.5689 -0.4501
vn 0.6874 0.5687 -0.4518
vn 0.6868 0.5688 -0.4525
vn 0.6873 0.5685 -0.4521
vn 0.6875 0.5685 -0.4519
vn 0.6858 0.5698 -0.4528
vn 0.6879 0.5679 -0.4520
vn 0.6878 0.5681 -0.4518
vn 0.6873 0.5688 -0.4518
vn 0.6877 0.5680 -0.4521
vn 0.6884 0.5680 -0.4511
vn 0.6876 0.5686 -0.4516
vn 0.6876 0.5685 -0.4517
vn 0.6879 0.5680 -0.4518
vn 0.6873 0.5686 -0.4520
vn 0.6877 0.5682 -0.4519
vn 0.6883 0.5674 -0.4520
vn 0.6884 0.5676 -0.4516
vn 0.6874 0.5686 -0.4518
vn 0.6880 0.5683 -0.4513
vn 0.6876 0.5686 -0.4515
vn 0.6878 0.5683 -0.4516
vn 0.6877 0.5685 -0.4515
vn 0.6874 0.5685 -0.4520
vn 0.6875 0.5686 -0.4517
vn 0.6877 0.5685 -0.4516
vn 0.6877 0.5686 -0.4515
vn 0.6876 0.5684 -0.4518
vn 0.6875 0.5688 -0.4515
vn 0.6877 0.5684 -0.4516
vn 0.6877 0.5682 -0.4520
vn 0.6874 0.5687 -0.4517
vn 0.6876 0.5675 -0.4529
vn 0.6870 0.5701 -0.4505
vn 0.6870 0.5692 -0.4517
vn 0.6890 0.5655 -0.4533
vn 0.6887 0.5675 -0.4512
vn 0.6879 0.5677 -0.4521
vn 0.6878 0.5684 -0.4515
vn 0.6864 0.5696 -0.4522
vn 0.6880 0.5682 -0.4515
vn 0.6874 0.5691 -0.4512
vn 0.6877 0.5683 -0.4518
vn 0.6873 0.5683 -0.4524
vn 0.6889 0.5682 -0.4500
vn 0.6877 0.5688 -0.4512
vn 0.6872 0.5684 -0.4524
vn 0.6869 0.5684 -0.4529
vn 0.6888 0.5665 -0.4524
vn 0.6882 0.5679 -0.4516
vn 0.6878 0.5688 -0.4510
vn 0.6877 0.5686 -0.4514
vn 0.6876 0.5686 -0.4514
vn 0.6876 0.5685 -0.4516
vn 0.6879 0.5680 -0.4519
vn 0.6878 0.5684 -0.4514
vn 0.6879 0.5682 -0.4515
vn 0.6883 0.5676 -0.4518
vn 0.6878 0.5674 -0.4528
vn 0.6875 0.5689 -0.4514
vn 0.6864 0.5706 -0.4509
vn 0.6878 0.5677 -0.4524
vn 0.6875 0.5686 -0.4518
vn 0.6876 0.5688 -0.4513
vn 0.6876 0.5684 -0.4517
vn 0.6875 0.5685 -0.4518
vn 0.6871 0.5686 -0.4524
vn 0.6868 0.5691 -0.4522
vn 0.6873 0.5689 -0.4516
vn 0.6880 0.5680 -0.4517
vn 0.6871 0.5693 -0.4515
vn 0.6874 0.5689 -0.4515
vn 0.6882 0.5677 -0.4518
vn 0.6874 0.5690 -0.4513
vn 0.6802 0.5814 -0.4464
vn 0.6793 0.5821 -0.4469
vn 0.6797 0.5816 -0.4470
usemtl None
s off
f 85//1 16//1 15//1
f 97//2 95//2 1//2
f 2//3 1//3 92//3
f 92//4 91//4 93//4
f 91//5 90//5 3//5
f 92//6 93//6 2//6
f 90//7 89//7 10//7
f 89//8 88//8 11//8
f 10//9 89//9 11//9
f 93//10 91//10 3//10
f 3//11 94//11 93//11
f 3//12 90//12 10//12
f 5//13 4//13 6//13
f 4//14 3//14 6//14
f 88//10 87//10 12//10
f 7//15 6//15 3//15
f 8//16 7//16 10//16
f 7//17 3//17 10//17
f 10//18 9//18 8//18
f 12//19 11//19 88//19
f 14//20 13//20 86//20
f 13//21 12//21 87//21
f 13//22 87//22 86//22
f 21//23 20//23 22//23
f 20//24 19//24 22//24
f 25//25 24//25 26//25
f 24//26 23//26 26//26
f 26//17 23//17 27//17
f 23//27 22//27 36//27
f 27//28 23//28 35//28
f 35//29 23//29 36//29
f 22//18 19//18 43//18
f 36//30 22//30 42//30
f 30//31 29//31 31//31
f 29//32 28//32 34//32
f 31//24 29//24 32//24
f 33//33 29//33 34//33
f 33//34 32//34 29//34
f 35//35 34//35 27//35
f 38//36 37//36 36//36
f 34//37 28//37 27//37
f 39//38 38//38 36//38
f 40//39 39//39 36//39
f 42//40 22//40 43//40
f 41//41 40//41 36//41
f 42//42 41//42 36//42
f 44//43 43//43 46//43
f 43//44 19//44 81//44
f 46//20 43//20 81//20
f 46//45 45//45 44//45
f 19//46 18//46 82//46
f 46//18 81//18 79//18
f 47//47 46//47 79//47
f 48//48 47//48 79//48
f 49//49 48//49 61//49
f 19//50 82//50 81//50
f 52//51 51//51 56//51
f 51//52 50//52 56//52
f 54//53 53//53 55//53
f 53//54 52//54 55//54
f 56//32 55//32 52//32
f 59//55 58//55 60//55
f 58//56 57//56 60//56
f 63//13 62//13 64//13
f 62//57 61//57 64//57
f 61//58 60//58 57//58
f 61//59 57//59 49//59
f 57//10 56//10 49//10
f 67//35 66//35 75//35
f 66//60 65//60 76//60
f 65//61 64//61 76//61
f 64//28 61//28 77//28
f 76//62 64//62 77//62
f 56//63 50//63 49//63
f 68//64 67//64 69//64
f 66//65 76//65 75//65
f 71//27 70//27 69//27
f 73//66 72//66 74//66
f 72//67 71//67 74//67
f 75//28 74//28 71//28
f 71//24 69//24 67//24
f 71//68 67//68 75//68
f 79//69 78//69 77//69
f 77//70 61//70 79//70
f 79//71 61//71 48//71
f 81//72 80//72 79//72
f 85//73 84//73 16//73
f 84//74 83//74 17//74
f 16//75 84//75 17//75
f 83//76 82//76 18//76
f 83//77 18//77 17//77
f 14//78 86//78 15//78
f 86//79 85//79 15//79
f 1//80 2//80 97//80
f 2//81 98//81 97//81
f 97//82 96//82 95//82
o 1_Dhekelia_Sovereign_Base_Area_sphere.001
v 3.405490 2.867743 -2.274848
v 3.405270 2.867853 -2.275045
v 3.404985 2.867973 -2.275328
v 3.404559 2.868714 -2.275043
v 3.404764 2.868772 -2.274659
v 3.405021 2.868662 -2.274405
v 3.405218 2.868395 -2.274442
v 3.405483 2.868039 -2.274488
v 3.405558 2.867841 -2.274622
vn 0.6867 0.5694 -0.4519
vn 0.6887 0.5677 -0.4511
vn 0.6867 0.5688 -0.4526
vn 0.6875 0.5689 -0.4513
vn 0.6875 0.5680 -0.4524
vn 0.6851 0.5713 -0.4519
vn 0.6886 0.5671 -0.4520
usemtl None
s off
f 101//83 103//83 105//83
f 101//84 102//84 103//84
f 103//85 104//85 105//85
f 105//86 106//86 100//86
f 106//87 107//87 100//87
f 107//88 99//88 100//88
f 100//89 101//89 105//89
