# Blender v2.81 (sub 16) OBJ File: ''
# www.blender.org
mtllib Dhekelia Sovereign Base Area.mtl
o 0_Dhekelia_Sovereign_Base_Area_sphere.001
v 3.371608 2.867482 -2.278466
v 3.371019 2.867523 -2.279569
v 3.371281 2.865812 -2.281337
v 3.372465 2.864443 -2.280837
v 3.373142 2.863996 -2.280105
v 3.373413 2.863703 -2.279962
v 3.374748 2.862263 -2.279263
v 3.375140 2.864218 -2.275887
v 3.376061 2.863200 -2.275438
v 3.377247 2.861893 -2.274851
v 3.378901 2.860516 -2.273440
v 3.380267 2.859975 -2.271481
v 3.380288 2.860931 -2.270166
v 3.380510 2.861717 -2.268682
v 3.382141 2.860604 -2.266965
v 3.383532 2.859364 -2.265888
v 3.385040 2.857256 -2.265738
v 3.383812 2.855909 -2.269944
v 3.383795 2.854680 -2.271615
v 3.385936 2.850551 -2.272921
v 3.385718 2.849213 -2.275131
v 3.384238 2.849177 -2.278084
v 3.385857 2.845924 -2.279243
v 3.386769 2.845476 -2.278051
v 3.388772 2.843484 -2.276776
v 3.388461 2.842841 -2.278242
v 3.386496 2.843776 -2.280853
v 3.384565 2.843299 -2.285277
v 3.386113 2.841444 -2.284713
v 3.387682 2.839759 -2.283879
v 3.389096 2.838886 -2.282268
v 3.389999 2.839501 -2.279676
v 3.390340 2.843381 -2.273836
v 3.390982 2.844667 -2.270860
v 3.392695 2.845021 -2.267027
v 3.392410 2.845070 -2.267522
v 3.392042 2.845272 -2.267973
v 3.391523 2.845500 -2.268690
v 3.391380 2.845523 -2.268939
v 3.391213 2.846386 -2.268116
v 3.391417 2.846761 -2.267216
v 3.391781 2.846702 -2.266580
v 3.392215 2.846631 -2.265823
v 3.392182 2.847355 -2.264922
v 3.392756 2.847555 -2.263529
v 3.393194 2.847486 -2.262762
v 3.393571 2.847134 -2.262490
v 3.393300 2.846614 -2.263715
v 3.393092 2.846357 -2.264467
v 3.393338 2.845613 -2.264974
v 3.392900 2.845687 -2.265736
v 3.392543 2.845606 -2.266546
v 3.392768 2.845031 -2.266871
v 3.394373 2.845366 -2.263273
v 3.398770 2.844277 -2.256095
v 3.400876 2.843006 -2.253657
v 3.399120 2.846119 -2.252954
v 3.398523 2.845771 -2.254589
v 3.396894 2.848207 -2.254538
v 3.397868 2.849073 -2.251472
v 3.397514 2.850291 -2.250543
v 3.396007 2.851664 -2.251672
v 3.395576 2.853026 -2.250701
v 3.396517 2.854218 -2.247264
v 3.396577 2.855073 -2.246006
v 3.396618 2.855658 -2.245146
v 3.395782 2.857512 -2.244313
v 3.394349 2.859406 -2.244603
v 3.392617 2.860013 -2.247193
v 3.390730 2.861767 -2.248557
v 3.389860 2.861843 -2.250164
v 3.389828 2.861119 -2.251191
v 3.392765 2.856822 -2.251158
v 3.394330 2.854484 -2.251203
v 3.392973 2.855219 -2.252884
v 3.389509 2.858319 -2.255551
v 3.388638 2.855597 -2.260890
v 3.386955 2.857332 -2.261879
v 3.386141 2.857130 -2.263746
v 3.385291 2.857520 -2.264896
v 3.383767 2.859886 -2.264732
v 3.380268 2.862691 -2.267859
v 3.379651 2.862201 -2.269722
v 3.379635 2.860995 -2.271363
v 3.378600 2.861363 -2.272902
v 3.376750 2.863006 -2.274342
v 3.375822 2.864160 -2.274626
v 3.375064 2.864863 -2.275176
v 3.374736 2.866351 -2.273836
v 3.373454 2.868938 -2.272904
v 3.371489 2.872199 -2.272413
v 3.370484 2.872240 -2.274331
v 3.371022 2.870790 -2.275208
v 3.370628 2.870534 -2.276322
v 3.371052 2.868958 -2.277591
v 3.371145 2.868427 -2.278116
vn 0.7623 0.5174 -0.3888
vn 0.7623 0.5178 -0.3882
vn 0.7620 0.5180 -0.3885
vn 0.7622 0.5186 -0.3874
vn 0.7622 0.5177 -0.3886
vn 0.7623 0.5177 -0.3884
vn 0.7623 0.5177 -0.3885
vn 0.7621 0.5181 -0.3884
vn 0.7622 0.5176 -0.3888
vn 0.7621 0.5179 -0.3885
vn 0.7623 0.5179 -0.3882
vn 0.7623 0.5176 -0.3885
vn 0.7622 0.5178 -0.3885
vn 0.7624 0.5178 -0.3881
vn 0.7623 0.5178 -0.3883
vn 0.7627 0.5169 -0.3888
vn 0.7623 0.5178 -0.3884
vn 0.7621 0.5181 -0.3883
vn 0.7625 0.5175 -0.3884
vn 0.7621 0.5180 -0.3885
vn 0.7624 0.5176 -0.3884
vn 0.7625 0.5174 -0.3885
vn 0.7620 0.5181 -0.3884
vn 0.7622 0.5178 -0.3886
vn 0.7626 0.5179 -0.3876
vn 0.7622 0.5179 -0.3884
vn 0.7624 0.5174 -0.3887
vn 0.7622 0.5178 -0.3884
vn 0.7624 0.5176 -0.3885
vn 0.7621 0.5180 -0.3883
vn 0.7623 0.5176 -0.3884
vn 0.7622 0.5179 -0.3883
vn 0.7624 0.5175 -0.3885
vn 0.7623 0.5176 -0.3886
vn 0.7620 0.5180 -0.3887
vn 0.7626 0.5174 -0.3884
vn 0.7621 0.5177 -0.3888
vn 0.7624 0.5177 -0.3883
vn 0.7621 0.5177 -0.3887
vn 0.7623 0.5180 -0.3880
vn 0.7623 0.5179 -0.3883
vn 0.7646 0.5142 -0.3886
vn 0.7622 0.5175 -0.3890
vn 0.7617 0.5190 -0.3879
vn 0.7625 0.5171 -0.3888
vn 0.7621 0.5187 -0.3876
vn 0.7618 0.5189 -0.3878
vn 0.7625 0.5176 -0.3882
usemtl None
s off
f 41//1 40//1 20//1
f 3//2 2//2 4//2
f 2//3 1//3 4//3
f 1//4 96//4 95//4
f 95//5 94//5 93//5
f 93//6 92//6 91//6
f 91//7 90//7 93//7
f 90//6 89//6 95//6
f 95//8 89//8 1//8
f 88//9 87//9 8//9
f 87//10 86//10 9//10
f 8//11 87//11 9//11
f 89//12 88//12 1//12
f 95//13 93//13 90//13
f 5//14 4//14 1//14
f 8//15 7//15 6//15
f 6//16 5//16 8//16
f 5//17 1//17 8//17
f 1//18 88//18 8//18
f 86//13 85//13 10//13
f 10//19 9//19 86//19
f 12//18 11//18 84//18
f 11//7 10//7 85//7
f 11//5 85//5 84//5
f 84//20 83//20 13//20
f 83//21 82//21 14//21
f 13//22 83//22 14//22
f 13//23 12//23 84//23
f 79//2 78//2 77//2
f 77//6 76//6 75//6
f 77//6 75//6 46//6
f 75//2 74//2 62//2
f 59//24 75//24 62//24
f 80//25 79//25 17//25
f 79//13 77//13 44//13
f 73//26 72//26 69//26
f 72//27 71//27 70//27
f 69//28 72//28 70//28
f 69//29 68//29 67//29
f 67//30 66//30 65//30
f 65//21 64//21 73//21
f 64//31 63//31 74//31
f 62//17 61//17 60//17
f 67//32 65//32 69//32
f 64//32 74//32 73//32
f 69//26 65//26 73//26
f 62//6 60//6 59//6
f 63//33 62//33 74//33
f 58//11 57//11 56//11
f 58//34 56//34 55//34
f 59//35 58//35 55//35
f 54//32 53//32 50//32
f 53//13 52//13 51//13
f 59//6 55//6 47//6
f 55//6 54//6 47//6
f 53//36 51//36 50//36
f 50//11 49//11 54//11
f 49//37 48//37 54//37
f 75//17 59//17 46//17
f 47//38 54//38 48//38
f 79//28 44//28 41//28
f 46//18 59//18 47//18
f 14//39 82//39 15//39
f 82//40 81//40 15//40
f 16//2 15//2 81//2
f 19//24 18//24 20//24
f 18//26 17//26 20//26
f 17//22 16//22 80//22
f 16//11 81//11 80//11
f 77//14 46//14 45//14
f 23//11 22//11 24//11
f 22//15 21//15 24//15
f 20//17 17//17 41//17
f 21//17 20//17 34//17
f 24//41 21//41 25//41
f 25//13 21//13 33//13
f 79//6 41//6 17//6
f 77//17 45//17 44//17
f 28//26 27//26 29//26
f 27//7 26//7 32//7
f 29//13 27//13 30//13
f 31//15 27//15 32//15
f 31//28 30//28 27//28
f 33//6 32//6 25//6
f 36//42 35//42 34//42
f 32//20 26//20 25//20
f 37//43 36//43 34//43
f 38//44 37//44 34//44
f 34//28 33//28 21//28
f 44//45 43//45 42//45
f 44//46 42//46 41//46
f 39//47 38//47 34//47
f 40//48 39//48 34//48
f 40//17 34//17 20//17
o 1_Dhekelia_Sovereign_Base_Area_sphere.001
v 3.389281 2.852673 -2.263526
v 3.388767 2.853014 -2.264080
v 3.388104 2.853398 -2.264869
v 3.387093 2.855398 -2.264188
v 3.387555 2.855496 -2.263149
v 3.388152 2.855153 -2.262436
v 3.388620 2.854416 -2.262499
v 3.389249 2.853434 -2.262575
v 3.389435 2.852905 -2.262915
vn 0.7623 0.5178 -0.3884
vn 0.7622 0.5179 -0.3884
vn 0.7625 0.5175 -0.3882
vn 0.7623 0.5177 -0.3883
vn 0.7624 0.5173 -0.3888
vn 0.7624 0.5178 -0.3881
usemtl None
s off
f 99//49 101//49 103//49
f 99//50 100//50 101//50
f 101//51 102//51 103//51
f 103//52 104//52 98//52
f 104//53 105//53 98//53
f 105//54 97//54 98//54
f 98//50 99//50 103//50
