# Blender v2.81 (sub 16) OBJ File: ''
# www.blender.org
mtllib Djibouti.mtl
o 0_Djibouti_sphere.001
v 3.557065 1.090714 -3.340301
v 3.650202 1.013934 -3.262506
v 3.594945 1.013934 -3.323233
v 3.565729 1.035518 -3.348436
v 3.577278 1.090714 -3.318087
v 3.571402 0.998171 -3.353764
v 3.572543 0.990304 -3.354835
v 3.648787 1.016927 -3.263103
v 3.647806 1.017768 -3.263913
v 3.645318 1.019212 -3.266185
v 3.644574 1.020307 -3.266652
v 3.644057 1.021526 -3.266830
v 3.643492 1.022028 -3.267290
v 3.642797 1.022316 -3.267962
v 3.641906 1.022876 -3.268762
v 3.640965 1.023773 -3.269510
v 3.640181 1.024711 -3.270072
v 3.637249 1.029288 -3.271830
v 3.630916 1.039163 -3.275631
v 3.627579 1.045493 -3.277273
v 3.626779 1.046516 -3.277825
v 3.625265 1.047490 -3.279177
v 3.624638 1.048547 -3.279527
v 3.623265 1.051669 -3.280039
v 3.613142 1.066976 -3.286267
v 3.610494 1.072572 -3.287386
v 3.605939 1.079372 -3.290217
v 3.602238 1.084021 -3.292798
v 3.601185 1.084281 -3.293872
v 3.599717 1.083680 -3.295677
v 3.597348 1.081960 -3.298831
v 3.590173 1.070309 -3.310443
v 3.589159 1.071918 -3.311043
v 3.588871 1.072028 -3.311324
v 3.586939 1.072769 -3.313211
v 3.585893 1.074415 -3.313833
v 3.585285 1.075183 -3.314256
v 3.583496 1.075653 -3.316071
v 3.582688 1.076214 -3.316781
v 3.581992 1.078514 -3.316809
v 3.582105 1.081192 -3.315828
v 3.581905 1.083733 -3.315236
v 3.578859 1.087176 -3.317482
v 3.567432 1.033987 -3.347054
v 3.573053 1.026247 -3.343353
v 3.573398 1.025968 -3.343062
v 3.573771 1.025757 -3.342721
v 3.574394 1.025399 -3.342150
v 3.574854 1.025020 -3.341765
v 3.575203 1.024436 -3.341570
v 3.575611 1.023250 -3.341500
v 3.576001 1.022738 -3.341236
v 3.576873 1.022301 -3.340417
v 3.580049 1.022081 -3.336997
v 3.580943 1.021629 -3.336159
v 3.581946 1.020739 -3.335341
v 3.582891 1.020170 -3.334485
v 3.584320 1.020999 -3.332649
v 3.585454 1.020738 -3.331486
v 3.591258 1.017934 -3.326005
v 3.592980 1.016583 -3.324544
v 3.594641 1.014500 -3.323385
v 3.569286 0.995740 -3.356642
v 3.569977 0.996952 -3.355582
v 3.576788 1.091788 -3.318257
v 3.575617 1.093018 -3.319119
v 3.575122 1.092924 -3.319697
v 3.574552 1.092095 -3.320607
v 3.573951 1.092179 -3.321239
v 3.560188 1.099947 -3.333690
v 3.559413 1.099027 -3.334858
v 3.559138 1.097514 -3.335681
v 3.558982 1.095824 -3.336435
v 3.558617 1.094371 -3.337337
v 3.573355 0.988887 -3.354360
v 3.593729 0.953686 -3.342372
v 3.594561 0.954142 -3.341322
v 3.595248 0.953408 -3.340784
v 3.595978 0.952366 -3.340289
v 3.596900 0.951901 -3.339414
v 3.597631 0.952080 -3.338558
v 3.598970 0.952670 -3.336911
v 3.601310 0.953006 -3.334241
v 3.602538 0.953413 -3.332770
v 3.603344 0.954613 -3.331530
v 3.604118 0.959275 -3.329302
v 3.605144 0.959877 -3.327997
v 3.606512 0.959950 -3.326472
v 3.610406 0.961355 -3.321777
v 3.610848 0.961301 -3.321307
v 3.613106 0.961042 -3.318902
v 3.618661 0.958706 -3.313487
v 3.623050 0.954991 -3.309762
v 3.624422 0.954127 -3.308510
v 3.625288 0.954192 -3.307539
v 3.626117 0.954639 -3.306496
v 3.627384 0.954947 -3.305012
v 3.629412 0.954013 -3.303059
v 3.629920 0.953941 -3.302522
v 3.630946 0.953995 -3.301379
v 3.631453 0.953920 -3.300844
v 3.633717 0.952564 -3.298756
v 3.634542 0.952279 -3.297935
v 3.635634 0.952296 -3.296729
v 3.638458 0.953302 -3.293329
v 3.641716 0.952801 -3.289896
v 3.643381 0.952054 -3.288286
v 3.645563 0.949400 -3.286673
v 3.647242 0.948822 -3.284998
v 3.650541 0.948638 -3.281428
v 3.650970 0.948405 -3.281024
v 3.651296 0.947981 -3.280792
v 3.651650 0.947662 -3.280497
v 3.652132 0.947775 -3.279933
v 3.652415 0.948201 -3.279497
v 3.652488 0.948709 -3.279266
v 3.652622 0.949145 -3.278991
v 3.659133 0.951217 -3.271222
v 3.660448 0.952033 -3.269537
v 3.660747 0.952845 -3.268968
v 3.660964 0.953424 -3.268558
v 3.659569 0.955855 -3.269373
v 3.658669 0.959512 -3.269282
v 3.656089 0.976018 -3.267240
v 3.655406 0.985360 -3.265229
v 3.655423 0.995240 -3.262292
v 3.654760 0.999928 -3.261635
v 3.651895 1.007707 -3.262485
v 3.600261 1.003696 -3.320415
v 3.600753 1.002959 -3.320093
v 3.601364 1.002515 -3.319552
v 3.603265 1.001738 -3.317692
v 3.603807 1.001694 -3.317110
v 3.605134 1.002062 -3.315543
v 3.606669 1.001973 -3.313882
v 3.607141 1.002055 -3.313339
v 3.607413 1.002384 -3.312943
v 3.607797 1.003505 -3.312190
v 3.608064 1.003808 -3.311807
v 3.609339 1.003691 -3.310441
v 3.610118 1.002975 -3.309795
v 3.610216 1.002379 -3.309865
v 3.609420 1.002638 -3.310662
v 3.609438 1.000772 -3.311194
v 3.609724 0.998623 -3.311515
v 3.609653 0.996859 -3.312114
v 3.607910 0.995789 -3.314345
v 3.606986 0.994244 -3.315818
v 3.606339 0.993841 -3.316648
v 3.605502 0.994060 -3.317503
v 3.604401 0.995312 -3.318343
v 3.603710 0.995606 -3.319016
v 3.603236 0.995410 -3.319594
v 3.602751 0.995045 -3.320235
v 3.602215 0.994882 -3.320872
v 3.601629 0.995297 -3.321394
v 3.601127 0.996388 -3.321623
v 3.601430 0.997037 -3.321099
v 3.601958 0.997479 -3.320387
v 3.602181 0.997961 -3.320000
v 3.601465 0.999387 -3.320365
v 3.600137 1.000580 -3.321473
v 3.597285 1.002084 -3.324162
v 3.593277 1.002778 -3.328362
v 3.591961 1.003274 -3.329662
v 3.591265 1.003917 -3.330236
v 3.590703 1.004629 -3.330644
v 3.590186 1.004893 -3.331134
v 3.589645 1.004193 -3.331935
v 3.589221 1.003861 -3.332499
v 3.587743 1.003901 -3.334113
v 3.579674 1.004105 -3.342919
v 3.578396 1.004474 -3.344215
v 3.577256 1.004429 -3.345480
v 3.576172 1.003359 -3.346988
v 3.574985 1.003754 -3.348176
v 3.574213 1.004940 -3.348675
v 3.573612 1.006084 -3.348996
v 3.572959 1.006359 -3.349633
v 3.572743 1.005467 -3.350134
v 3.572642 1.000463 -3.351723
v 3.572174 0.999070 -3.352650
v 3.571629 0.998367 -3.353456
v 3.554384 1.085058 -3.344817
v 3.553466 1.081925 -3.346734
v 3.552813 1.080690 -3.347790
v 3.551935 1.080325 -3.348809
v 3.550816 1.081269 -3.349671
v 3.551279 1.078268 -3.350122
v 3.551392 1.076832 -3.350450
v 3.551319 1.075399 -3.350969
v 3.551027 1.074228 -3.351633
v 3.550629 1.073293 -3.352332
v 3.550351 1.072253 -3.352941
v 3.550406 1.070742 -3.353351
v 3.550840 1.067483 -3.353912
v 3.550924 1.065752 -3.354360
v 3.550739 1.064563 -3.354920
v 3.549187 1.060190 -3.357874
v 3.549234 1.058751 -3.358270
v 3.550192 1.053767 -3.358823
v 3.550762 1.047320 -3.360230
v 3.551512 1.044585 -3.360301
v 3.552784 1.042043 -3.359776
v 3.554410 1.039932 -3.358751
v 3.556232 1.038492 -3.357316
v 3.556735 1.038298 -3.356857
v 3.558402 1.037910 -3.355257
v 3.560223 1.036747 -3.353738
v 3.561462 1.036442 -3.352553
v 3.564043 1.036369 -3.349913
v 3.565240 1.035941 -3.348810
vn 0.7226 0.2106 -0.6584
vn 0.7044 0.1950 -0.6825
vn 0.7205 0.2260 -0.6556
vn 0.7254 0.1952 -0.6600
vn 0.7013 0.2108 -0.6810
vn 0.7231 0.2105 -0.6579
vn 0.7231 0.2108 -0.6578
vn 0.7231 0.2104 -0.6579
vn 0.7232 0.2104 -0.6578
vn 0.7232 0.2103 -0.6578
vn 0.7235 0.2100 -0.6576
vn 0.7231 0.2107 -0.6579
vn 0.7230 0.2105 -0.6580
vn 0.7231 0.2103 -0.6579
vn 0.7232 0.2104 -0.6579
vn 0.7230 0.2105 -0.6579
vn 0.7221 0.2109 -0.6588
vn 0.7224 0.2109 -0.6585
vn 0.7232 0.2103 -0.6579
vn 0.7234 0.2099 -0.6578
vn 0.7233 0.2108 -0.6575
vn 0.7233 0.2104 -0.6577
vn 0.7231 0.2103 -0.6580
vn 0.7228 0.2107 -0.6582
vn 0.7233 0.2105 -0.6576
vn 0.7225 0.2095 -0.6589
vn 0.7200 0.2113 -0.6610
vn 0.7231 0.2106 -0.6579
vn 0.7249 0.2008 -0.6590
vn 0.7233 0.2100 -0.6578
vn 0.7230 0.2104 -0.6581
vn 0.7231 0.2104 -0.6580
vn 0.7229 0.2105 -0.6581
vn 0.7232 0.2105 -0.6578
vn 0.7230 0.2106 -0.6579
vn 0.7230 0.2103 -0.6581
vn 0.7227 0.2112 -0.6581
vn 0.7232 0.2106 -0.6578
vn 0.7233 0.2103 -0.6577
vn 0.7233 0.2101 -0.6578
vn 0.7043 0.1950 -0.6826
vn 0.7204 0.2257 -0.6558
vn 0.7203 0.2255 -0.6560
vn 0.7205 0.2257 -0.6556
vn 0.7204 0.2259 -0.6557
vn 0.7210 0.2258 -0.6551
vn 0.7206 0.2260 -0.6555
vn 0.7206 0.2258 -0.6556
vn 0.7205 0.2258 -0.6556
vn 0.7203 0.2269 -0.6555
vn 0.7254 0.1950 -0.6601
vn 0.7255 0.1952 -0.6599
vn 0.7256 0.1950 -0.6599
vn 0.7253 0.1950 -0.6602
vn 0.7254 0.1951 -0.6601
vn 0.7262 0.1954 -0.6592
vn 0.7255 0.1962 -0.6597
vn 0.7253 0.1948 -0.6603
vn 0.7263 0.1937 -0.6595
vn 0.7252 0.1950 -0.6603
vn 0.7261 0.1951 -0.6594
vn 0.7255 0.1948 -0.6601
vn 0.7256 0.1948 -0.6600
vn 0.7255 0.1950 -0.6600
vn 0.7254 0.1950 -0.6602
vn 0.7256 0.1938 -0.6602
vn 0.7254 0.1958 -0.6599
vn 0.7254 0.1952 -0.6601
vn 0.7252 0.1958 -0.6602
vn 0.7253 0.1950 -0.6603
vn 0.7254 0.1953 -0.6601
vn 0.7254 0.1948 -0.6601
vn 0.7257 0.1936 -0.6602
vn 0.7266 0.1934 -0.6592
vn 0.7254 0.1954 -0.6600
vn 0.7253 0.1957 -0.6600
vn 0.7253 0.1949 -0.6602
vn 0.7253 0.1955 -0.6600
vn 0.7256 0.1937 -0.6603
vn 0.7261 0.1979 -0.6585
vn 0.7252 0.1953 -0.6603
vn 0.7271 0.1940 -0.6585
vn 0.7254 0.1947 -0.6602
vn 0.7255 0.1943 -0.6602
vn 0.7255 0.1955 -0.6599
vn 0.7257 0.1940 -0.6601
vn 0.7255 0.1950 -0.6601
vn 0.7254 0.1949 -0.6601
vn 0.7256 0.1951 -0.6598
vn 0.7255 0.1963 -0.6596
vn 0.7257 0.1947 -0.6599
vn 0.7253 0.1964 -0.6598
vn 0.7256 0.1949 -0.6600
vn 0.7257 0.1950 -0.6598
vn 0.7254 0.1946 -0.6602
vn 0.7253 0.1958 -0.6601
vn 0.7252 0.1954 -0.6603
vn 0.7254 0.1957 -0.6599
vn 0.7256 0.1949 -0.6599
vn 0.7255 0.1951 -0.6600
vn 0.7253 0.1952 -0.6602
vn 0.7254 0.1949 -0.6602
vn 0.7257 0.1949 -0.6598
vn 0.7252 0.1951 -0.6603
vn 0.7255 0.1949 -0.6600
vn 0.7252 0.1958 -0.6601
vn 0.7255 0.1947 -0.6601
vn 0.7254 0.1954 -0.6601
vn 0.7254 0.1945 -0.6602
vn 0.7257 0.1948 -0.6599
vn 0.7020 0.2105 -0.6804
vn 0.7028 0.2102 -0.6797
vn 0.7021 0.2098 -0.6805
vn 0.7023 0.2110 -0.6799
vn 0.7021 0.2106 -0.6803
vn 0.7020 0.2105 -0.6803
vn 0.7020 0.2103 -0.6804
vn 0.7018 0.2104 -0.6805
vn 0.7019 0.2107 -0.6804
vn 0.7026 0.2098 -0.6800
vn 0.7020 0.2102 -0.6804
vn 0.7020 0.2104 -0.6803
vn 0.7021 0.2105 -0.6803
vn 0.7021 0.2104 -0.6802
vn 0.7022 0.2102 -0.6803
vn 0.7021 0.2097 -0.6805
vn 0.7021 0.2104 -0.6803
vn 0.7022 0.2103 -0.6802
vn 0.7022 0.2105 -0.6801
vn 0.7022 0.2105 -0.6802
vn 0.7019 0.2104 -0.6805
vn 0.7017 0.2110 -0.6805
vn 0.7021 0.2103 -0.6804
vn 0.7026 0.2106 -0.6797
vn 0.7024 0.2106 -0.6799
usemtl None
s off
f 38//1 36//1 35//1
f 7//2 64//2 6//2
f 69//3 5//3 1//3
f 181//4 176//4 175//4
f 196//5 192//5 191//5
f 2//6 3//6 10//6
f 3//7 62//7 22//7
f 10//8 3//8 15//8
f 62//6 61//6 23//6
f 9//9 8//9 2//9
f 10//10 9//10 2//10
f 10//11 15//11 11//11
f 61//9 60//9 32//9
f 15//12 3//12 16//12
f 60//13 59//13 32//13
f 16//14 3//14 17//14
f 58//15 57//15 56//15
f 17//16 3//16 18//16
f 59//8 58//8 32//8
f 18//8 3//8 19//8
f 13//17 12//17 11//17
f 11//18 15//18 14//18
f 58//19 56//19 55//19
f 54//6 53//6 50//6
f 53//20 52//20 51//20
f 58//21 55//21 54//21
f 13//22 11//22 14//22
f 19//6 3//6 22//6
f 53//23 51//23 50//23
f 58//16 54//16 44//16
f 22//24 62//24 23//24
f 54//25 50//25 49//25
f 61//6 24//6 23//6
f 54//26 49//26 48//26
f 47//27 46//27 45//27
f 54//28 48//28 44//28
f 48//29 47//29 45//29
f 44//13 4//13 39//13
f 4//6 1//6 39//6
f 48//19 45//19 44//19
f 24//6 61//6 32//6
f 21//30 20//30 22//30
f 20//31 19//31 22//31
f 1//32 5//32 43//32
f 43//33 42//33 41//33
f 1//6 43//6 40//6
f 40//34 43//34 41//34
f 25//6 24//6 32//6
f 32//6 58//6 35//6
f 1//35 40//35 39//35
f 35//6 58//6 44//6
f 27//32 26//32 31//32
f 26//32 25//32 32//32
f 31//8 26//8 32//8
f 29//36 28//36 30//36
f 28//6 27//6 30//6
f 31//13 30//13 27//13
f 34//37 33//37 32//37
f 38//38 37//38 36//38
f 44//39 39//39 38//39
f 35//40 34//40 32//40
f 44//13 38//13 35//13
f 7//41 63//41 64//41
f 73//42 72//42 70//42
f 72//43 71//43 70//43
f 70//44 69//44 73//44
f 68//45 67//45 65//45
f 67//46 66//46 65//46
f 74//47 73//47 69//47
f 68//48 65//48 5//48
f 1//49 74//49 69//49
f 69//50 68//50 5//50
f 3//51 2//51 140//51
f 2//51 128//51 141//51
f 3//52 140//52 139//52
f 128//53 127//53 126//53
f 128//54 126//54 125//54
f 129//55 3//55 139//55
f 131//56 130//56 129//56
f 133//57 132//57 134//57
f 132//58 131//58 129//58
f 136//59 135//59 137//59
f 135//60 134//60 138//60
f 137//61 135//61 138//61
f 132//62 129//62 134//62
f 128//51 125//51 142//51
f 125//55 124//55 105//55
f 106//62 124//62 107//62
f 122//63 121//63 120//63
f 120//64 119//64 122//64
f 119//65 118//65 122//65
f 118//64 117//64 122//64
f 116//66 115//66 112//66
f 115//67 114//67 112//67
f 123//68 122//68 117//68
f 117//69 116//69 111//69
f 111//53 116//53 112//53
f 114//70 113//70 112//70
f 124//51 123//51 107//51
f 123//55 117//55 107//55
f 110//71 109//71 107//71
f 109//72 108//72 107//72
f 117//73 111//73 110//73
f 124//55 106//55 105//55
f 107//51 117//51 110//51
f 138//74 134//74 139//74
f 134//55 129//55 139//55
f 140//75 2//75 141//75
f 105//62 104//62 101//62
f 104//76 103//76 102//76
f 101//77 104//77 102//77
f 125//51 105//51 146//51
f 146//51 105//51 101//51
f 144//63 143//63 142//63
f 142//78 141//78 128//78
f 100//79 99//79 97//79
f 99//80 98//80 97//80
f 125//55 146//55 142//55
f 101//51 100//51 146//51
f 144//81 142//81 145//81
f 145//82 142//82 146//82
f 100//51 97//51 146//51
f 96//83 95//83 93//83
f 95//84 94//84 93//84
f 97//85 96//85 92//85
f 148//51 92//51 91//51
f 148//86 147//86 146//86
f 148//87 146//87 92//87
f 92//51 96//51 93//51
f 91//87 90//87 149//87
f 90//88 89//88 149//88
f 149//89 89//89 150//89
f 97//51 92//51 146//51
f 148//64 91//64 149//64
f 152//90 151//90 153//90
f 151//91 150//91 153//91
f 89//55 88//55 155//55
f 88//51 87//51 155//51
f 154//62 153//62 150//62
f 155//92 154//92 150//92
f 150//51 89//51 155//51
f 86//93 85//93 83//93
f 85//62 84//62 83//62
f 87//64 86//64 156//64
f 155//94 87//94 156//94
f 82//95 81//95 78//95
f 81//96 80//96 79//96
f 78//53 81//53 79//53
f 86//55 83//55 82//55
f 157//97 156//97 164//97
f 156//51 86//51 171//51
f 171//51 86//51 77//51
f 86//55 82//55 77//55
f 77//98 82//98 78//98
f 77//68 76//68 75//68
f 160//93 159//93 161//93
f 159//64 158//64 161//64
f 164//99 156//99 165//99
f 77//51 75//51 171//51
f 161//64 158//64 162//64
f 158//100 157//100 162//100
f 163//101 162//101 157//101
f 164//51 163//51 157//51
f 165//102 156//102 170//102
f 75//51 7//51 182//51
f 7//103 6//103 183//103
f 7//104 183//104 182//104
f 170//85 156//85 171//85
f 181//105 180//105 176//105
f 180//76 179//76 178//76
f 75//51 182//51 175//51
f 182//101 181//101 175//101
f 166//55 165//55 170//55
f 168//62 167//62 169//62
f 167//106 166//106 169//106
f 180//107 178//107 177//107
f 180//68 177//68 176//68
f 170//108 169//108 166//108
f 172//51 171//51 75//51
f 174//109 173//109 175//109
f 173//110 172//110 175//110
f 175//87 172//87 75//87
f 1//111 4//111 185//111
f 4//112 212//112 185//112
f 211//113 210//113 208//113
f 210//114 209//114 208//114
f 212//115 211//115 198//115
f 185//116 212//116 197//116
f 185//117 184//117 1//117
f 197//118 212//118 198//118
f 208//119 207//119 205//119
f 207//120 206//120 205//120
f 205//121 204//121 208//121
f 204//122 203//122 208//122
f 203//123 202//123 208//123
f 201//124 200//124 198//124
f 200//125 199//125 198//125
f 202//116 201//116 208//116
f 211//116 208//116 201//116
f 186//126 185//126 191//126
f 201//127 198//127 211//127
f 185//128 197//128 196//128
f 189//129 188//129 187//129
f 187//116 186//116 189//116
f 185//130 196//130 191//130
f 190//131 189//131 186//131
f 191//132 190//132 186//132
f 196//133 195//133 192//133
f 195//134 194//134 193//134
f 192//135 195//135 193//135
