# Blender v2.81 (sub 16) OBJ File: ''
# www.blender.org
mtllib Dominican Republic.mtl
o 0_Dominican_Republic_sphere.001
v 1.509366 1.503498 4.513288
v 1.507394 1.502878 4.514458
v 1.505386 1.504251 4.515116
v 1.505184 1.507100 4.514461
v 1.506002 1.510332 4.513184
v 1.507090 1.512880 4.511951
v 1.508788 1.511865 4.511356
v 1.510591 1.510501 4.510801
v 1.513998 1.507193 4.509945
v 1.512127 1.506653 4.511042
vn 0.4417 0.2308 0.8670
vn 0.4417 0.2306 0.8670
vn 0.4418 0.2308 0.8669
vn 0.4416 0.2307 0.8670
vn 0.4417 0.2307 0.8670
usemtl None
s off
f 2//1 1//1 4//1
f 9//1 8//1 10//1
f 8//2 7//2 5//2
f 10//3 8//3 5//3
f 7//4 6//4 5//4
f 5//5 4//5 10//5
f 4//1 3//1 2//1
f 10//1 4//1 1//1
o 1_Dominican_Republic_sphere.001
v 1.700357 1.545085 4.404906
v 1.736209 1.545085 4.386639
v 1.708496 1.552284 4.397454
v 1.718397 1.550681 4.393145
v 1.729504 1.550743 4.387457
v 1.732651 1.549587 4.386384
v 1.735272 1.546520 4.386457
v 1.699406 1.545900 4.405016
v 1.695256 1.551857 4.404396
v 1.692592 1.557336 4.403238
v 1.695303 1.558235 4.401443
v 1.698874 1.557471 4.399975
v 1.702641 1.555585 4.398921
v 1.706010 1.553216 4.398293
v 1.738368 1.541629 4.386458
v 1.740606 1.536991 4.386552
v 1.740472 1.535003 4.387150
v 1.736894 1.536014 4.388704
v 1.729284 1.539913 4.391544
v 1.725539 1.540875 4.393196
v 1.721763 1.540545 4.395207
v 1.715445 1.538589 4.398948
v 1.711968 1.538244 4.400811
v 1.704712 1.540728 4.403847
vn 0.4202 0.3786 0.8247
vn 0.4418 0.2306 0.8670
vn 0.4202 0.3787 0.8247
vn 0.4206 0.3787 0.8244
vn 0.4198 0.3787 0.8248
vn 0.4198 0.3787 0.8249
vn 0.4203 0.3786 0.8246
vn 0.4201 0.3787 0.8247
vn 0.4204 0.3786 0.8246
vn 0.4418 0.2308 0.8669
vn 0.4415 0.2307 0.8671
vn 0.4415 0.2309 0.8670
vn 0.4417 0.2307 0.8670
vn 0.4418 0.2307 0.8669
vn 0.4419 0.2308 0.8669
usemtl None
s off
f 11//6 13//6 24//6
f 12//7 30//7 29//7
f 11//8 12//8 14//8
f 12//9 17//9 15//9
f 14//6 12//6 15//6
f 17//10 16//10 15//10
f 18//11 11//11 24//11
f 20//12 19//12 21//12
f 19//13 18//13 23//13
f 23//14 18//14 24//14
f 22//6 21//6 19//6
f 23//6 22//6 19//6
f 14//6 13//6 11//6
f 12//15 11//15 31//15
f 11//16 34//16 33//16
f 12//17 31//17 30//17
f 33//15 32//15 11//15
f 32//18 31//18 11//18
f 25//19 12//19 29//19
f 27//19 26//19 28//19
f 26//20 25//20 28//20
f 29//15 28//15 25//15
o 2_Dominican_Republic_sphere.001
v 1.463130 1.594583 4.503052
v 1.463690 1.590204 4.504777
v 1.489154 1.545085 4.512519
v 1.533971 1.545085 4.489684
v 1.528151 1.534879 4.495366
v 1.527649 1.532909 4.496146
v 1.527379 1.532215 4.496468
v 1.526702 1.531713 4.496947
v 1.525271 1.530960 4.497876
v 1.524409 1.530162 4.498528
v 1.523800 1.529342 4.499056
v 1.523353 1.528302 4.499561
v 1.522968 1.526858 4.500141
v 1.522406 1.527129 4.500356
v 1.521871 1.527615 4.500498
v 1.521800 1.526979 4.500704
v 1.521429 1.526500 4.501020
v 1.521682 1.525733 4.501096
v 1.521325 1.525192 4.501422
v 1.520872 1.524861 4.501741
v 1.520287 1.524783 4.502059
v 1.519652 1.522697 4.502938
v 1.519410 1.522084 4.503225
v 1.518585 1.520662 4.504024
v 1.516554 1.512485 4.507235
v 1.515873 1.510919 4.507998
v 1.513080 1.506265 4.510660
v 1.512317 1.506742 4.510922
v 1.511643 1.507510 4.511061
v 1.510822 1.508680 4.511168
v 1.505248 1.518854 4.511300
v 1.503944 1.520510 4.511524
v 1.501430 1.521851 4.512448
v 1.495675 1.521509 4.515471
v 1.493165 1.522457 4.516498
v 1.493832 1.523016 4.516009
v 1.496002 1.525586 4.514219
v 1.496441 1.526668 4.513708
v 1.496246 1.528579 4.513299
v 1.495877 1.529937 4.513125
v 1.494637 1.532551 4.513062
v 1.493793 1.534006 4.513104
v 1.493517 1.535586 4.512825
v 1.493852 1.538865 4.511781
v 1.493239 1.540441 4.511674
v 1.491894 1.542251 4.511878
v 1.461394 1.591876 4.504449
v 1.460367 1.593164 4.504077
v 1.461744 1.594248 4.503410
vn 0.4417 0.2307 0.8670
vn 0.1445 0.3788 0.9141
vn 0.4417 0.2308 0.8669
vn 0.4417 0.2305 0.8670
vn 0.4411 0.2314 0.8671
vn 0.4425 0.2308 0.8665
vn 0.4416 0.2308 0.8670
vn 0.4383 0.2308 0.8687
vn 0.4418 0.2307 0.8670
vn 0.4418 0.2309 0.8669
vn 0.4418 0.2305 0.8670
vn 0.4431 0.2305 0.8663
vn 0.4398 0.2319 0.8676
vn 0.4402 0.2323 0.8673
vn 0.4408 0.2304 0.8675
vn 0.4417 0.2308 0.8670
vn 0.4400 0.2309 0.8678
vn 0.4419 0.2308 0.8669
vn 0.4416 0.2310 0.8669
vn 0.4426 0.2307 0.8665
vn 0.4378 0.2317 0.8687
vn 0.4421 0.2307 0.8668
vn 0.4432 0.2306 0.8663
vn 0.4476 0.2300 0.8641
vn 0.4407 0.2308 0.8675
vn 0.4413 0.2329 0.8666
vn 0.4420 0.2307 0.8669
vn 0.4420 0.2305 0.8669
vn 0.4414 0.2306 0.8672
vn 0.4420 0.2306 0.8669
vn 0.4419 0.2307 0.8669
vn 0.4415 0.2308 0.8671
vn 0.1451 0.3787 0.9141
vn 0.1444 0.3786 0.9142
usemtl None
s off
f 66//21 65//21 58//21
f 83//22 82//22 81//22
f 38//23 37//23 80//23
f 38//24 80//24 79//24
f 41//25 40//25 42//25
f 40//26 39//26 42//26
f 39//21 38//21 79//21
f 78//27 77//27 75//27
f 77//28 76//28 75//28
f 39//29 79//29 44//29
f 79//30 78//30 44//30
f 43//31 42//31 39//31
f 78//32 75//32 74//32
f 44//21 78//21 49//21
f 44//33 43//33 39//33
f 78//29 74//29 49//29
f 44//34 49//34 45//34
f 74//35 73//35 67//35
f 49//36 74//36 55//36
f 48//37 47//37 46//37
f 46//38 45//38 49//38
f 73//39 72//39 67//39
f 49//40 48//40 46//40
f 51//41 50//41 49//41
f 53//42 52//42 51//42
f 55//36 54//36 51//36
f 54//43 53//43 51//43
f 57//44 56//44 58//44
f 56//29 55//29 66//29
f 58//21 56//21 66//21
f 60//27 59//27 64//27
f 59//29 58//29 65//29
f 55//29 74//29 66//29
f 55//45 51//45 49//45
f 61//23 60//23 63//23
f 59//38 65//38 64//38
f 61//46 63//46 62//46
f 66//47 74//47 67//47
f 63//48 60//48 64//48
f 72//49 71//49 67//49
f 71//50 70//50 68//50
f 67//51 71//51 68//51
f 70//52 69//52 68//52
f 36//53 35//53 81//53
f 35//54 83//54 81//54
