# Blender v2.81 (sub 16) OBJ File: ''
# www.blender.org
mtllib El Salvador.mtl
o 0_El_Salvador_sphere.001
v 0.197258 1.127608 4.824277
v 0.198516 1.124288 4.824874
v 0.195798 1.122976 4.825620
v 0.191683 1.124577 4.825887
v 0.189025 1.123479 4.826571
v 0.189017 1.126887 4.825755
v 0.187330 1.130337 4.825194
v 0.187928 1.134320 4.824143
v 0.187612 1.138334 4.823229
v 0.189862 1.139912 4.822494
v 0.194243 1.138448 4.822152
v 0.197029 1.132505 4.823137
vn 0.1522 0.2307 0.9611
vn 0.1521 0.2308 0.9610
vn 0.1522 0.2307 0.9610
vn 0.1523 0.2307 0.9610
vn 0.1521 0.2307 0.9611
vn 0.1522 0.2308 0.9610
vn 0.1523 0.2306 0.9611
vn 0.1525 0.2306 0.9610
usemtl None
s off
f 1//1 6//1 4//1
f 1//2 12//2 6//2
f 12//3 11//3 8//3
f 11//4 10//4 8//4
f 10//5 9//5 8//5
f 8//4 7//4 12//4
f 7//6 6//6 12//6
f 3//7 2//7 1//7
f 6//8 5//8 4//8
f 4//7 3//7 1//7
o 1_El_Salvador_sphere.001
v 0.190930 1.131665 4.824305
v 0.188880 1.129722 4.825096
v 0.184759 1.133462 4.824851
v 0.183698 1.138467 4.823817
v 0.185503 1.140231 4.823108
v 0.188159 1.140390 4.822649
v 0.190652 1.138938 4.822603
v 0.192782 1.134236 4.823394
vn 0.1522 0.2306 0.9611
vn 0.1522 0.2307 0.9610
vn 0.1528 0.2306 0.9610
vn 0.1518 0.2311 0.9610
vn 0.1519 0.2308 0.9611
vn 0.1524 0.2309 0.9610
usemtl None
s off
f 20//9 15//9 13//9
f 20//10 19//10 15//10
f 19//11 18//11 15//11
f 18//12 17//12 16//12
f 16//13 15//13 18//13
f 15//14 14//14 13//14
o 2_El_Salvador_sphere.001
v 0.000000 1.207685 4.836294
v 0.000000 1.175297 4.844070
v 0.046292 1.247480 4.819408
v 0.046408 1.245687 4.819821
v 0.046875 1.246401 4.819575
v 0.049591 1.244706 4.819552
v 0.050986 1.244482 4.819385
v 0.054495 1.243918 4.818964
v 0.057326 1.242577 4.818838
v 0.061999 1.241577 4.818338
v 0.064336 1.239932 4.818363
v 0.068604 1.238658 4.817993
v 0.069480 1.239450 4.817664
v 0.070810 1.241992 4.816843
v 0.071545 1.242738 4.816547
v 0.072366 1.242961 4.816364
v 0.072912 1.242857 4.816302
v 0.073369 1.242437 4.816331
v 0.073905 1.241727 4.816416
v 0.074372 1.240858 4.816551
v 0.074577 1.239919 4.816743
v 0.074497 1.238957 4.816988
v 0.074134 1.238029 4.817268
v 0.075198 1.237124 4.817317
v 0.078389 1.236742 4.816903
v 0.079891 1.235997 4.816844
v 0.080494 1.234821 4.817030
v 0.080878 1.231910 4.817668
v 0.081303 1.231056 4.817806
v 0.083699 1.229255 4.817859
v 0.084573 1.228218 4.817970
v 0.085426 1.226804 4.818174
v 0.085786 1.225607 4.818404
v 0.085842 1.225161 4.818503
v 0.085938 1.224381 4.818675
v 0.086250 1.223366 4.818869
v 0.087086 1.222763 4.818882
v 0.088004 1.222951 4.818691
v 0.089126 1.223583 4.818361
v 0.090452 1.224126 4.818021
v 0.091939 1.224081 4.817796
v 0.094306 1.222582 4.817781
v 0.096319 1.220091 4.818060
v 0.097771 1.217204 4.818523
v 0.098415 1.214486 4.819074
v 0.100101 1.214700 4.818756
v 0.104328 1.214322 4.818177
v 0.105477 1.214738 4.817895
v 0.106470 1.215321 4.817598
v 0.107316 1.215392 4.817447
v 0.108016 1.214280 4.817603
v 0.107945 1.212649 4.818006
v 0.107371 1.211070 4.818476
v 0.107324 1.209712 4.818809
v 0.108851 1.208715 4.818807
v 0.110937 1.208405 4.818551
v 0.111391 1.208235 4.818520
v 0.112096 1.207640 4.818551
v 0.112584 1.206981 4.818632
v 0.112809 1.206169 4.818791
v 0.112776 1.205668 4.818916
v 0.113361 1.205703 4.818816
v 0.115847 1.206026 4.818345
v 0.118343 1.205811 4.818000
v 0.125818 1.203361 4.817405
v 0.130183 1.202952 4.816812
v 0.131148 1.202543 4.816757
v 0.132044 1.201685 4.816821
v 0.131940 1.201143 4.816967
v 0.131365 1.201093 4.817071
v 0.131992 1.199782 4.817286
v 0.131929 1.198643 4.817570
v 0.131599 1.197460 4.817906
v 0.131405 1.196021 4.818282
v 0.131689 1.195082 4.818463
v 0.132786 1.192484 4.818913
v 0.132865 1.190913 4.819278
v 0.131998 1.189550 4.819742
v 0.134655 1.189602 4.819309
v 0.136515 1.190639 4.818765
v 0.138332 1.191324 4.818313
v 0.142365 1.192076 4.817493
v 0.143330 1.191999 4.817359
v 0.144940 1.191350 4.817260
v 0.145677 1.191259 4.817165
v 0.145791 1.192125 4.816939
v 0.145858 1.192734 4.816782
v 0.146170 1.193077 4.816650
v 0.146828 1.193100 4.816541
v 0.147634 1.192946 4.816450
v 0.148443 1.192696 4.816382
v 0.149092 1.192421 4.816345
v 0.149784 1.193639 4.815943
v 0.150877 1.193995 4.815685
v 0.152105 1.194051 4.815477
v 0.153205 1.194384 4.815222
v 0.154002 1.195092 4.814926
v 0.154336 1.195656 4.814738
v 0.154740 1.196330 4.814512
v 0.155399 1.197015 4.814243
v 0.156612 1.197479 4.813940
v 0.157518 1.197320 4.813835
v 0.158168 1.197450 4.813700
v 0.158643 1.198793 4.813303
v 0.157539 1.199882 4.813216
v 0.157205 1.202204 4.812712
v 0.158246 1.202875 4.812386
v 0.159778 1.202688 4.812188
v 0.162503 1.202062 4.811907
v 0.164137 1.201991 4.811665
v 0.169488 1.202487 4.810698
v 0.172207 1.202287 4.810315
v 0.173406 1.201336 4.810354
v 0.174964 1.197591 4.811006
v 0.176485 1.195867 4.811179
v 0.178413 1.194184 4.811278
v 0.180132 1.192243 4.811471
v 0.181027 1.189730 4.811933
v 0.185759 1.191837 4.810678
v 0.187320 1.192196 4.810345
v 0.188143 1.192018 4.810256
v 0.189702 1.191038 4.810245
v 0.190421 1.190825 4.810182
v 0.190899 1.191041 4.810055
v 0.192238 1.191983 4.809617
v 0.193056 1.192225 4.809429
v 0.194109 1.192140 4.809282
v 0.196173 1.191690 4.809064
v 0.197193 1.191726 4.808893
v 0.198205 1.192379 4.808576
v 0.199065 1.193391 4.808197
v 0.200118 1.194191 4.807838
v 0.201709 1.194218 4.807580
v 0.202715 1.193461 4.807602
v 0.203787 1.190769 4.808079
v 0.204664 1.189547 4.808233
v 0.205220 1.189222 4.808223
v 0.206712 1.188649 4.808125
v 0.207369 1.188300 4.808104
v 0.209067 1.186915 4.808167
v 0.212126 1.184420 4.808282
v 0.214014 1.183668 4.808164
v 0.213070 1.182213 4.808662
v 0.210971 1.177660 4.810088
v 0.210451 1.176015 4.810565
v 0.211168 1.174304 4.810863
v 0.210651 1.173230 4.811203
v 0.209591 1.172323 4.811588
v 0.208678 1.171101 4.812026
v 0.208311 1.169321 4.812512
v 0.208443 1.165546 4.813397
v 0.208222 1.163702 4.813875
v 0.205725 1.158059 4.815625
v 0.205131 1.155276 4.816387
v 0.206267 1.152911 4.816775
v 0.207370 1.152498 4.816699
v 0.209629 1.153103 4.816196
v 0.211191 1.152477 4.816100
v 0.212020 1.151556 4.816189
v 0.212586 1.150312 4.816398
v 0.212788 1.148950 4.816693
v 0.212551 1.147650 4.817043
v 0.210721 1.145781 4.817781
v 0.202355 1.142591 4.819872
v 0.201442 1.143111 4.819892
v 0.200905 1.143970 4.819771
v 0.200081 1.146175 4.819372
v 0.197139 1.141495 4.820961
v 0.196385 1.138696 4.821753
v 0.198343 1.137344 4.821767
v 0.199595 1.136839 4.821690
v 0.203148 1.133523 4.821924
v 0.205169 1.132160 4.821931
v 0.205351 1.131550 4.822048
v 0.205358 1.130328 4.822340
v 0.204502 1.128209 4.822985
v 0.202394 1.126777 4.823663
v 0.194541 1.123513 4.825690
v 0.192428 1.122045 4.826377
v 0.192065 1.120455 4.826816
v 0.194511 1.118741 4.826841
v 0.190793 1.118157 4.827569
v 0.176357 1.119928 4.829431
v 0.172991 1.120741 4.829769
v 0.172283 1.120780 4.829872
v 0.170554 1.120239 4.830276
v 0.161657 1.120061 4.831727
v 0.152182 1.121993 4.832764
v 0.149741 1.121386 4.833296
v 0.148436 1.121891 4.833382
v 0.146963 1.122292 4.833519
v 0.146961 1.122903 4.833373
v 0.149249 1.122911 4.833008
v 0.149401 1.124420 4.832622
v 0.148164 1.126371 4.832349
v 0.146949 1.127251 4.832331
v 0.146311 1.127712 4.832321
v 0.147931 1.125252 4.832654
v 0.148407 1.124228 4.832825
v 0.144748 1.124562 4.833324
v 0.142963 1.124491 4.833624
v 0.141443 1.123974 4.833990
v 0.142418 1.123512 4.833946
v 0.143205 1.123577 4.833806
v 0.144153 1.123779 4.833607
v 0.145579 1.123724 4.833394
v 0.145584 1.122987 4.833570
v 0.143239 1.122204 4.834130
v 0.140649 1.122437 4.834484
v 0.138629 1.123747 4.834489
v 0.137994 1.126195 4.834002
v 0.138986 1.125711 4.833961
v 0.140740 1.126703 4.833446
v 0.140736 1.127308 4.833301
v 0.139013 1.128156 4.833370
v 0.137111 1.130796 4.833038
v 0.135846 1.131619 4.833040
v 0.136192 1.130181 4.833331
v 0.136766 1.128983 4.833528
v 0.137066 1.127934 4.833732
v 0.136618 1.126948 4.834039
v 0.135158 1.127825 4.834060
v 0.130929 1.129088 4.834427
v 0.129104 1.130121 4.834468
v 0.127444 1.133035 4.834031
v 0.126678 1.133536 4.834032
v 0.125516 1.133690 4.834179
v 0.122248 1.134516 4.834498
v 0.120794 1.134596 4.834709
v 0.116806 1.134101 4.835460
v 0.111267 1.134285 4.836293
v 0.110066 1.133833 4.836592
v 0.110724 1.133286 4.836618
v 0.111442 1.132876 4.836604
v 0.112158 1.132720 4.836527
v 0.112799 1.132957 4.836369
v 0.115570 1.132167 4.836120
v 0.123478 1.132528 4.834781
v 0.124366 1.132342 4.834685
v 0.125647 1.131603 4.834660
v 0.126346 1.130932 4.834710
v 0.127590 1.129414 4.834877
v 0.128431 1.128766 4.834900
v 0.128435 1.128037 4.835074
v 0.126573 1.128453 4.835269
v 0.125220 1.128779 4.835405
v 0.122274 1.129802 4.835626
v 0.122277 1.129134 4.835786
v 0.130421 1.127043 4.834998
v 0.134703 1.125454 4.834702
v 0.136639 1.123530 4.834857
v 0.135943 1.122399 4.835238
v 0.134148 1.122802 4.835426
v 0.132150 1.123926 4.835473
v 0.130834 1.124952 4.835435
v 0.129358 1.125759 4.835474
v 0.103957 1.131848 4.838036
v 0.100951 1.133384 4.838143
v 0.077223 1.145552 4.838980
v 0.066093 1.152893 4.838981
v 0.059793 1.155988 4.839236
v 0.053045 1.157934 4.839837
v 0.049926 1.158091 4.840293
v 0.047560 1.158777 4.840504
v 0.034750 1.159334 4.842398
v 0.029335 1.160985 4.842860
v 0.026800 1.161618 4.843109
v 0.021205 1.163784 4.843476
v 0.018277 1.163311 4.844052
v 0.010014 1.163636 4.845284
v 0.008695 1.164647 4.845249
v 0.007822 1.168046 4.844572
v 0.007497 1.170156 4.844117
v 0.006416 1.171125 4.844056
v 0.004647 1.172340 4.844044
v 0.001130 1.208478 4.835925
v 0.002952 1.210314 4.835196
v 0.003868 1.210913 4.834907
v 0.007669 1.212322 4.833966
v 0.008942 1.212387 4.833749
v 0.010503 1.211932 4.833611
v 0.012749 1.210084 4.833699
v 0.014019 1.209527 4.833632
v 0.015292 1.210199 4.833269
v 0.015328 1.210706 4.833142
v 0.014705 1.212202 4.832881
v 0.014621 1.212908 4.832725
v 0.014869 1.213648 4.832508
v 0.018605 1.220310 4.830317
v 0.020359 1.222235 4.829576
v 0.022571 1.223934 4.828818
v 0.024882 1.224979 4.828201
v 0.034383 1.227175 4.826169
v 0.034956 1.227744 4.825942
v 0.034944 1.229186 4.825598
v 0.034660 1.229565 4.825552
v 0.033532 1.230146 4.825591
v 0.033144 1.230538 4.825558
v 0.032981 1.231139 4.825439
v 0.032821 1.232550 4.825127
v 0.032707 1.232983 4.825041
v 0.032195 1.233979 4.824883
v 0.031939 1.234330 4.824839
v 0.031428 1.234825 4.824801
v 0.030817 1.235105 4.824831
v 0.028970 1.235364 4.825060
v 0.028429 1.236670 4.824833
v 0.028951 1.237440 4.824565
v 0.029839 1.238077 4.824272
v 0.030402 1.238974 4.823967
v 0.030148 1.240049 4.823749
v 0.029504 1.240960 4.823633
v 0.029129 1.241999 4.823443
v 0.029706 1.243456 4.823001
v 0.030962 1.244392 4.822578
v 0.032263 1.244282 4.822398
v 0.033229 1.243289 4.822484
v 0.033483 1.241580 4.822854
v 0.034690 1.242457 4.822452
v 0.036894 1.245131 4.821461
v 0.037510 1.245394 4.821300
v 0.038479 1.245810 4.821047
v 0.039896 1.245625 4.820867
v 0.040905 1.245088 4.820836
v 0.041915 1.244712 4.820766
v 0.043327 1.245006 4.820472
v 0.045374 1.247125 4.819639
v -0.002605 1.176512 4.843366
v -0.009426 1.179045 4.841677
v -0.016496 1.181838 4.839887
v -0.018595 1.187945 4.838088
v -0.018633 1.189390 4.837735
v -0.018387 1.190891 4.837414
v -0.017849 1.192365 4.837145
v -0.017058 1.193717 4.836946
v -0.015872 1.194854 4.836861
v -0.013160 1.196247 4.836956
v -0.011948 1.197161 4.836928
v -0.011033 1.198478 4.836757
v -0.010382 1.199826 4.836537
v -0.009539 1.201135 4.836356
v -0.008089 1.202335 4.836298
vn 0.1522 0.2308 0.9610
vn 0.1520 0.2309 0.9610
vn 0.1521 0.2308 0.9610
vn 0.1523 0.2308 0.9610
vn -0.1529 0.2307 0.9609
vn 0.1521 0.2307 0.9610
vn 0.1524 0.2307 0.9610
vn 0.1524 0.2310 0.9609
vn 0.1522 0.2307 0.9611
vn 0.1521 0.2307 0.9611
vn 0.1515 0.2305 0.9612
vn 0.1522 0.2300 0.9612
vn 0.1522 0.2305 0.9611
vn 0.1522 0.2307 0.9610
vn 0.1521 0.2304 0.9611
vn 0.1523 0.2307 0.9610
vn 0.1522 0.2295 0.9613
vn 0.1516 0.2308 0.9611
vn 0.1525 0.2307 0.9610
vn 0.1473 0.2314 0.9616
vn 0.1529 0.2309 0.9609
vn 0.1521 0.2298 0.9613
vn 0.1520 0.2308 0.9611
vn 0.1530 0.2303 0.9610
vn 0.1516 0.2313 0.9610
vn 0.1523 0.2309 0.9610
vn 0.1519 0.2308 0.9611
vn 0.1529 0.2305 0.9610
vn 0.1525 0.2313 0.9608
vn 0.1517 0.2308 0.9611
vn 0.1522 0.2309 0.9610
vn 0.1524 0.2305 0.9611
vn 0.1522 0.2306 0.9611
vn 0.1524 0.2308 0.9610
vn 0.1518 0.2309 0.9611
vn 0.1539 0.2314 0.9606
vn 0.1522 0.2314 0.9609
vn 0.1515 0.2304 0.9612
vn 0.1490 0.2304 0.9616
vn 0.1521 0.2312 0.9610
vn 0.1523 0.2306 0.9611
vn 0.1520 0.2317 0.9608
vn 0.1524 0.2297 0.9612
vn 0.1523 0.2286 0.9615
vn 0.1531 0.2307 0.9609
vn 0.1519 0.2307 0.9611
vn 0.1528 0.2305 0.9610
vn 0.1517 0.2304 0.9612
vn 0.1522 0.2319 0.9608
vn 0.1522 0.2310 0.9610
vn 0.1531 0.2309 0.9609
vn 0.1520 0.2307 0.9611
vn 0.1530 0.2308 0.9609
vn 0.1528 0.2303 0.9610
vn 0.1526 0.2308 0.9610
vn 0.1531 0.2306 0.9609
vn 0.1515 0.2306 0.9612
vn 0.1556 0.2306 0.9605
vn 0.1515 0.2307 0.9612
vn 0.1527 0.2288 0.9614
vn 0.1529 0.2304 0.9610
vn 0.1558 0.2315 0.9603
vn 0.1518 0.2311 0.9610
vn 0.1521 0.2302 0.9612
vn 0.1506 0.2306 0.9613
vn 0.1524 0.2306 0.9610
vn 0.1507 0.2308 0.9613
vn 0.1509 0.2311 0.9612
vn 0.1547 0.2307 0.9607
vn 0.1524 0.2304 0.9611
vn 0.1521 0.2308 0.9611
vn 0.1520 0.2311 0.9610
vn 0.1525 0.2304 0.9611
vn 0.1525 0.2311 0.9609
vn 0.1524 0.2309 0.9610
vn 0.1517 0.2310 0.9611
vn 0.1521 0.2306 0.9611
vn 0.1513 0.2308 0.9612
vn 0.1525 0.2306 0.9610
vn 0.1522 0.2303 0.9611
vn 0.1526 0.2314 0.9608
vn 0.1526 0.2310 0.9609
vn 0.1527 0.2309 0.9609
vn 0.1536 0.2307 0.9608
vn 0.1514 0.2307 0.9612
vn 0.1496 0.2310 0.9614
vn 0.1544 0.2309 0.9607
vn 0.1527 0.2306 0.9610
vn 0.1526 0.2307 0.9610
vn 0.1508 0.2305 0.9613
vn 0.1524 0.2302 0.9611
vn 0.1518 0.2307 0.9611
vn 0.1523 0.2306 0.9610
vn 0.1518 0.2312 0.9610
vn 0.1517 0.2310 0.9610
vn 0.1520 0.2305 0.9611
vn 0.1519 0.2304 0.9612
vn 0.1528 0.2314 0.9608
vn 0.1520 0.2312 0.9610
vn 0.1531 0.2312 0.9608
vn 0.1524 0.2303 0.9611
vn 0.1514 0.2308 0.9611
vn 0.1508 0.2318 0.9610
vn 0.1528 0.2291 0.9613
vn 0.1531 0.2298 0.9611
vn 0.1519 0.2309 0.9610
vn 0.1517 0.2297 0.9614
vn 0.1520 0.2304 0.9612
vn 0.1520 0.2294 0.9614
vn 0.1523 0.2314 0.9609
vn 0.1518 0.2305 0.9612
vn 0.1510 0.2308 0.9612
vn 0.1512 0.2306 0.9612
vn 0.1611 0.2323 0.9592
vn 0.1526 0.2306 0.9610
vn 0.1481 0.2308 0.9617
vn 0.1549 0.2302 0.9607
vn 0.1525 0.2302 0.9611
vn 0.1517 0.2299 0.9613
vn 0.1529 0.2310 0.9609
vn 0.1523 0.2310 0.9610
vn 0.1522 0.2311 0.9609
vn 0.1524 0.2292 0.9614
vn 0.1525 0.2308 0.9610
vn 0.1528 0.2310 0.9609
vn 0.1519 0.2303 0.9612
vn 0.1541 0.2306 0.9608
vn 0.1529 0.2307 0.9609
vn 0.1483 0.2307 0.9616
vn 0.1523 0.2304 0.9611
vn 0.1518 0.2317 0.9609
vn 0.1521 0.2309 0.9610
vn 0.1540 0.2318 0.9605
vn 0.1525 0.2303 0.9611
vn 0.1528 0.2307 0.9609
vn 0.1503 0.2309 0.9613
vn 0.1526 0.2303 0.9611
vn 0.1525 0.2313 0.9609
vn 0.1509 0.2315 0.9611
vn 0.1549 0.2295 0.9609
vn 0.1526 0.2318 0.9607
vn 0.1524 0.2301 0.9612
vn 0.1519 0.2313 0.9609
vn 0.1502 0.2307 0.9614
vn 0.1562 0.2277 0.9611
vn 0.1527 0.2308 0.9609
vn 0.1526 0.2312 0.9609
vn 0.1523 0.2305 0.9611
vn 0.1533 0.2307 0.9609
vn 0.1512 0.2304 0.9613
vn 0.1526 0.2305 0.9610
vn 0.1520 0.2306 0.9611
vn 0.1525 0.2305 0.9611
vn 0.1518 0.2308 0.9611
vn 0.1527 0.2307 0.9610
vn 0.1524 0.2306 0.9611
vn 0.1528 0.2293 0.9613
vn 0.1519 0.2305 0.9611
vn 0.1527 0.2303 0.9611
vn 0.1522 0.2302 0.9612
vn 0.1520 0.2303 0.9612
vn -0.1521 0.2307 0.9611
vn -0.1523 0.2307 0.9610
vn -0.1504 0.2305 0.9614
vn -0.1535 0.2304 0.9609
vn -0.1523 0.2308 0.9610
vn -0.1522 0.2307 0.9610
vn -0.1520 0.2307 0.9611
vn -0.1526 0.2307 0.9610
vn -0.1529 0.2310 0.9609
vn -0.1524 0.2306 0.9610
vn -0.1490 0.2301 0.9617
vn -0.1518 0.2306 0.9611
usemtl None
s off
f 116//15 112//15 138//15
f 221//16 233//16 222//16
f 266//17 267//17 268//17
f 270//18 269//18 275//18
f 203//18 202//18 199//18
f 358//19 357//19 349//19
f 21//20 22//20 303//20
f 22//21 295//21 303//21
f 295//15 294//15 303//15
f 298//22 297//22 302//22
f 297//23 296//23 302//23
f 296//24 21//24 303//24
f 293//17 292//17 289//17
f 292//25 291//25 290//25
f 294//21 293//21 303//21
f 299//17 298//17 302//17
f 301//26 300//26 299//26
f 302//16 301//16 299//16
f 302//27 296//27 303//27
f 292//28 290//28 289//28
f 289//29 288//29 293//29
f 288//30 287//30 304//30
f 287//28 286//28 304//28
f 286//28 285//28 304//28
f 285//24 284//24 304//24
f 284//31 283//31 282//31
f 293//28 288//28 303//28
f 288//32 304//32 303//32
f 284//33 282//33 313//33
f 304//28 284//28 313//28
f 307//34 306//34 308//34
f 306//35 305//35 308//35
f 305//36 304//36 312//36
f 304//30 313//30 312//30
f 282//28 281//28 57//28
f 313//28 282//28 56//28
f 309//37 308//37 305//37
f 311//38 310//38 312//38
f 310//39 309//39 312//39
f 312//30 309//30 305//30
f 280//30 279//30 81//30
f 279//28 278//28 251//28
f 280//30 65//30 281//30
f 57//30 281//30 65//30
f 65//28 280//28 74//28
f 278//21 277//21 252//21
f 277//40 268//40 255//40
f 268//41 267//41 257//41
f 267//15 266//15 259//15
f 266//15 265//15 261//15
f 260//17 266//17 261//17
f 265//42 264//42 263//42
f 262//15 261//15 265//15
f 265//43 263//43 262//43
f 266//17 260//17 259//17
f 259//44 258//44 267//44
f 258//18 257//18 267//18
f 257//45 256//45 255//45
f 268//46 257//46 255//46
f 280//47 81//47 75//47
f 314//30 313//30 56//30
f 81//28 279//28 98//28
f 315//48 314//48 29//48
f 282//49 57//49 56//49
f 318//50 317//50 319//50
f 317//51 316//51 319//51
f 320//52 319//52 316//52
f 320//53 316//53 321//53
f 316//47 315//47 345//47
f 321//28 316//28 345//28
f 277//26 255//26 254//26
f 277//54 254//54 253//54
f 322//15 321//15 339//15
f 277//55 253//55 252//55
f 251//56 250//56 249//56
f 252//57 251//57 278//57
f 314//28 56//28 32//28
f 279//28 251//28 98//28
f 251//24 249//24 98//24
f 323//24 322//24 338//24
f 248//58 247//58 246//58
f 314//28 32//28 31//28
f 249//59 248//59 98//59
f 248//60 246//60 98//60
f 245//18 244//18 237//18
f 244//30 243//30 237//30
f 246//40 245//40 237//40
f 243//18 242//18 238//18
f 242//61 241//61 240//61
f 240//62 239//62 242//62
f 239//16 238//16 242//16
f 246//30 237//30 99//30
f 243//18 238//18 237//18
f 98//30 246//30 99//30
f 237//63 236//63 217//63
f 188//64 216//64 189//64
f 236//65 235//65 234//65
f 217//64 216//64 188//64
f 216//28 197//28 189//28
f 236//47 234//47 217//47
f 237//30 217//30 105//30
f 197//66 196//66 192//66
f 189//67 197//67 190//67
f 196//33 195//33 192//33
f 195//47 194//47 192//47
f 194//68 193//68 192//68
f 192//69 191//69 197//69
f 191//44 190//44 197//44
f 324//47 323//47 338//47
f 99//30 237//30 105//30
f 327//70 326//70 328//70
f 326//71 325//71 328//71
f 217//28 188//28 138//28
f 325//72 324//72 329//72
f 329//73 328//73 325//73
f 188//66 187//66 138//66
f 99//74 105//74 104//74
f 187//75 186//75 184//75
f 186//76 185//76 184//76
f 184//28 183//28 187//28
f 183//77 182//77 181//77
f 181//69 180//69 176//69
f 180//78 179//78 176//78
f 179//79 178//79 177//79
f 179//80 177//80 176//80
f 183//37 181//37 176//37
f 329//81 324//81 330//81
f 330//21 324//21 338//21
f 187//18 183//18 176//18
f 331//82 330//82 338//82
f 333//83 332//83 334//83
f 332//84 331//84 338//84
f 335//85 334//85 337//85
f 338//17 334//17 332//17
f 337//86 336//86 335//86
f 338//24 337//24 334//24
f 187//87 176//87 175//87
f 187//18 175//18 174//18
f 341//88 340//88 344//88
f 340//89 339//89 344//89
f 342//90 341//90 343//90
f 339//91 338//91 322//91
f 187//92 174//92 173//92
f 173//37 172//37 171//37
f 173//93 171//93 170//93
f 341//94 344//94 343//94
f 345//30 339//30 321//30
f 345//86 344//86 339//86
f 187//30 173//30 138//30
f 173//23 170//23 138//23
f 143//66 169//66 148//66
f 169//89 143//89 170//89
f 148//21 169//21 165//21
f 23//45 347//45 24//45
f 347//40 346//40 24//40
f 346//91 345//91 315//91
f 29//28 314//28 31//28
f 26//95 25//95 24//95
f 28//96 27//96 29//96
f 27//47 26//47 315//47
f 29//21 27//21 315//21
f 31//97 30//97 29//97
f 26//91 24//91 346//91
f 168//98 167//98 165//98
f 167//99 166//99 165//99
f 169//100 168//100 165//100
f 165//28 164//28 157//28
f 156//101 165//101 157//101
f 26//21 346//21 315//21
f 163//102 162//102 161//102
f 161//103 160//103 164//103
f 160//104 159//104 158//104
f 164//20 160//20 157//20
f 158//105 157//105 160//105
f 164//106 163//106 161//106
f 165//28 156//28 149//28
f 155//107 154//107 151//107
f 154//108 153//108 152//108
f 154//55 152//55 151//55
f 165//109 149//109 148//109
f 156//110 155//110 149//110
f 149//45 155//45 150//45
f 32//66 56//66 49//66
f 35//24 34//24 38//24
f 34//66 33//66 42//66
f 40//111 34//111 41//111
f 36//112 35//112 38//112
f 34//33 40//33 39//33
f 38//113 37//113 36//113
f 39//111 38//111 34//111
f 42//114 41//114 34//114
f 43//24 42//24 33//24
f 43//18 33//18 32//18
f 46//115 45//115 47//115
f 45//21 44//21 48//21
f 44//110 43//110 32//110
f 155//91 151//91 150//91
f 45//106 48//106 47//106
f 44//103 32//103 49//103
f 48//45 44//45 49//45
f 51//116 50//116 55//116
f 50//49 49//49 55//49
f 52//24 51//24 54//24
f 52//117 54//117 53//117
f 143//118 148//118 144//118
f 49//119 56//119 55//119
f 55//120 54//120 51//120
f 148//54 147//54 144//54
f 147//121 146//121 145//121
f 144//122 147//122 145//122
f 170//18 143//18 138//18
f 60//123 59//123 61//123
f 59//124 58//124 62//124
f 61//18 59//18 62//18
f 63//30 62//30 58//30
f 65//28 64//28 57//28
f 64//21 63//21 58//21
f 67//18 66//18 74//18
f 66//125 65//125 74//125
f 70//126 69//126 71//126
f 69//55 68//55 71//55
f 68//127 67//127 73//127
f 72//88 71//88 68//88
f 73//46 72//46 68//46
f 74//24 73//24 67//24
f 64//29 58//29 57//29
f 77//128 76//128 78//128
f 76//129 75//129 81//129
f 78//65 76//65 81//65
f 75//40 74//40 280//40
f 78//130 81//130 79//130
f 79//131 81//131 80//131
f 84//132 83//132 82//132
f 84//15 82//15 98//15
f 82//133 81//133 98//133
f 87//134 86//134 90//134
f 86//135 85//135 90//135
f 85//28 84//28 94//28
f 94//30 84//30 98//30
f 143//132 142//132 138//132
f 142//136 141//136 139//136
f 141//137 140//137 139//137
f 139//28 138//28 142//28
f 138//138 137//138 136//138
f 138//116 136//116 135//116
f 88//139 87//139 90//139
f 90//140 89//140 88//140
f 92//98 91//98 90//98
f 93//141 92//141 90//141
f 90//23 85//23 93//23
f 94//44 93//44 85//44
f 97//22 96//22 98//22
f 96//142 95//142 98//142
f 95//143 94//143 98//143
f 101//144 100//144 104//144
f 100//145 99//145 104//145
f 102//146 101//146 104//146
f 103//147 102//147 104//147
f 138//28 135//28 123//28
f 135//30 134//30 123//30
f 123//17 134//17 130//17
f 134//15 133//15 131//15
f 133//96 132//96 131//96
f 131//30 130//30 134//30
f 129//24 128//24 124//24
f 128//24 127//24 125//24
f 128//24 125//24 124//24
f 127//93 126//93 125//93
f 130//148 129//148 124//148
f 105//66 217//66 112//66
f 130//149 124//149 123//149
f 112//28 217//28 138//28
f 108//150 107//150 109//150
f 107//70 106//70 109//70
f 106//105 105//105 110//105
f 138//23 123//23 116//23
f 116//78 123//78 117//78
f 105//28 112//28 111//28
f 110//151 105//151 111//151
f 110//152 109//152 106//152
f 114//153 113//153 112//153
f 115//18 114//18 112//18
f 123//154 122//154 117//154
f 122//155 121//155 120//155
f 120//156 119//156 122//156
f 119//157 118//157 122//157
f 118//158 117//158 122//158
f 116//159 115//159 112//159
f 216//160 217//160 220//160
f 217//18 234//18 221//18
f 220//66 217//66 221//66
f 234//161 233//161 221//161
f 219//45 218//45 220//45
f 218//162 216//162 220//162
f 233//138 232//138 222//138
f 232//66 231//66 230//66
f 230//29 229//29 222//29
f 229//41 228//41 223//41
f 222//132 229//132 223//132
f 228//146 227//146 225//146
f 227//146 226//146 225//146
f 225//163 224//163 228//163
f 224//24 223//24 228//24
f 232//30 230//30 222//30
f 265//164 266//164 276//164
f 266//165 268//165 276//165
f 268//166 277//166 276//166
f 275//167 274//167 270//167
f 274//44 273//44 270//44
f 273//168 272//168 271//168
f 270//169 273//169 271//169
f 265//170 276//170 269//170
f 276//24 275//24 269//24
f 197//28 216//28 205//28
f 216//24 215//24 205//24
f 197//171 205//171 204//171
f 215//139 214//139 208//139
f 197//15 204//15 198//15
f 213//172 212//172 210//172
f 212//173 211//173 210//173
f 214//24 213//24 208//24
f 215//48 208//48 207//48
f 199//174 198//174 203//174
f 210//151 209//151 213//151
f 209//175 208//175 213//175
f 207//45 206//45 205//45
f 207//23 205//23 215//23
f 200//98 199//98 202//98
f 198//45 204//45 203//45
f 202//120 201//120 200//120
f 22//176 21//176 348//176
f 21//177 362//177 348//177
f 362//178 361//178 360//178
f 362//179 360//179 359//179
f 350//180 349//180 351//180
f 349//181 348//181 358//181
f 358//182 348//182 359//182
f 352//183 351//183 357//183
f 357//176 351//176 349//176
f 354//184 353//184 357//184
f 353//185 352//185 357//185
f 356//186 355//186 354//186
f 357//187 356//187 354//187
f 348//181 362//181 359//181
