# Blender v2.81 (sub 16) OBJ File: ''
# www.blender.org
mtllib Federated States of Micronesia.mtl
o 0_Federated_States_of_Micronesia_sphere.001
v -4.523512 0.080747 -2.128600
v -4.523520 0.080419 -2.128603
v -4.524152 0.080472 -2.127199
v -4.523986 0.080119 -2.127586
v -4.523587 0.080123 -2.128469
v -4.523614 0.080899 -2.128364
v -4.523798 0.080963 -2.127955
v -4.524025 0.080785 -2.127463
v -4.523458 0.080671 -2.128716
vn -0.9107 0.0250 -0.4124
vn -0.8972 0.0194 -0.4412
vn -0.9111 0.0249 -0.4115
vn -0.9119 0.0224 -0.4097
vn -0.9111 0.0225 -0.4116
vn -0.9113 0.0218 -0.4112
vn -0.9113 0.0237 -0.4111
usemtl None
s off
f 7//1 6//1 5//1
f 1//2 9//2 2//2
f 1//3 2//3 6//3
f 2//4 5//4 6//4
f 5//5 4//5 7//5
f 4//6 3//6 8//6
f 7//7 4//7 8//7
o 1_Federated_States_of_Micronesia_sphere.001
v -4.520862 0.084385 -2.133816
v -4.520637 0.083821 -2.134305
v -4.520181 0.083885 -2.135232
v -4.520164 0.084255 -2.135248
v -4.520431 0.084575 -2.134684
vn -0.8978 0.0242 -0.4397
vn -0.8975 0.0237 -0.4403
vn -0.8983 0.0248 -0.4387
usemtl None
s off
f 11//8 14//8 12//8
f 10//9 14//9 11//9
f 14//10 13//10 12//10
o 2_Federated_States_of_Micronesia_sphere.001
v -4.523305 0.084276 -2.128833
v -4.523148 0.084019 -2.129169
v -4.522813 0.084090 -2.129848
v -4.522590 0.084540 -2.130280
v -4.522593 0.084969 -2.130250
v -4.522817 0.085126 -2.129786
v -4.523162 0.084829 -2.129097
vn -0.8977 0.0228 -0.4400
vn -0.8975 0.0244 -0.4403
vn -0.8979 0.0229 -0.4396
vn -0.8977 0.0233 -0.4400
vn -0.8972 0.0240 -0.4409
usemtl None
s off
f 18//11 17//11 20//11
f 15//12 21//12 16//12
f 21//13 20//13 17//13
f 16//14 21//14 17//14
f 20//15 19//15 18//15
o 3_Federated_States_of_Micronesia_sphere.001
v -4.517669 0.328116 -2.116767
v -4.517184 0.327155 -2.118007
v -4.517002 0.328570 -2.118168
v -4.517490 0.329526 -2.116920
vn -0.9092 0.0704 -0.4104
vn -0.9092 0.0705 -0.4104
usemtl None
s off
f 24//16 22//16 25//16
f 24//17 23//17 22//17
o 4_Federated_States_of_Micronesia_sphere.001
v -4.513896 0.329318 -2.124863
v -4.513256 0.328412 -2.126316
v -4.513075 0.329749 -2.126469
v -4.513716 0.330658 -2.125015
vn -0.8958 0.0708 -0.4388
vn -0.8959 0.0697 -0.4388
usemtl None
s off
f 28//18 26//18 29//18
f 28//19 27//19 26//19
o 5_Federated_States_of_Micronesia_sphere.001
v -4.461900 0.460833 -2.207365
v -4.461505 0.460520 -2.208232
v -4.461582 0.461576 -2.207866
v -4.462040 0.462669 -2.206717
v -4.462609 0.463325 -2.205426
v -4.463019 0.463111 -2.204632
v -4.462964 0.462273 -2.204909
v -4.462484 0.461464 -2.206048
vn -0.8945 0.0861 -0.4386
vn -0.8946 0.0867 -0.4383
vn -0.8947 0.0865 -0.4382
vn -0.8945 0.0862 -0.4387
vn -0.8947 0.0863 -0.4383
vn -0.8949 0.0859 -0.4380
usemtl None
s off
f 37//20 36//20 34//20
f 35//21 34//21 36//21
f 34//22 33//22 37//22
f 33//23 32//23 30//23
f 32//24 31//24 30//24
f 30//25 37//25 33//25
o 6_Federated_States_of_Micronesia_sphere.001
v -4.761525 0.462689 -1.451582
v -4.761299 0.459875 -1.453145
v -4.761181 0.459207 -1.453726
v -4.760838 0.458939 -1.454920
v -4.760490 0.459220 -1.455966
v -4.760134 0.459657 -1.456995
v -4.759746 0.459887 -1.458192
v -4.759168 0.459871 -1.460074
v -4.758762 0.460045 -1.461343
v -4.758319 0.460501 -1.462646
v -4.758081 0.462071 -1.462956
v -4.758275 0.463603 -1.461875
v -4.759233 0.467298 -1.457669
v -4.759650 0.468480 -1.455969
v -4.760141 0.468921 -1.454239
v -4.760635 0.467938 -1.452925
v -4.760716 0.467382 -1.452825
v -4.760787 0.466015 -1.452998
v -4.760847 0.465406 -1.452985
v -4.761003 0.464934 -1.452615
v -4.761200 0.464753 -1.452027
v -4.761392 0.464506 -1.451476
v -4.761524 0.463834 -1.451245
vn -0.9522 0.0866 -0.2928
vn -0.9525 0.0850 -0.2925
vn -0.9523 0.0867 -0.2924
vn -0.9520 0.0860 -0.2937
vn -0.9522 0.0862 -0.2931
vn -0.9523 0.0864 -0.2928
vn -0.9522 0.0860 -0.2930
vn -0.9522 0.0864 -0.2930
vn -0.9523 0.0862 -0.2927
vn -0.9522 0.0865 -0.2931
vn -0.9522 0.0865 -0.2929
vn -0.9522 0.0861 -0.2931
vn -0.9523 0.0865 -0.2927
vn -0.9521 0.0884 -0.2928
vn -0.9524 0.0866 -0.2924
vn -0.9522 0.0869 -0.2929
vn -0.9522 0.0863 -0.2930
vn -0.9522 0.0864 -0.2929
vn -0.9522 0.0861 -0.2930
vn -0.9524 0.0842 -0.2931
vn -0.9522 0.0869 -0.2928
usemtl None
s off
f 55//26 54//26 51//26
f 60//27 59//27 58//27
f 60//28 58//28 38//28
f 58//29 57//29 38//29
f 39//30 38//30 57//30
f 41//31 40//31 39//31
f 43//32 42//32 57//32
f 42//33 41//33 39//33
f 46//34 45//34 49//34
f 45//35 44//35 49//35
f 42//36 39//36 57//36
f 47//37 46//37 48//37
f 44//38 43//38 50//38
f 50//39 56//39 55//39
f 57//40 56//40 43//40
f 46//41 49//41 48//41
f 56//42 50//42 43//42
f 49//43 44//43 50//43
f 51//44 50//44 55//44
f 53//45 52//45 54//45
f 52//46 51//46 54//46
o 7_Federated_States_of_Micronesia_sphere.001
v -4.584017 0.503109 -1.930475
v -4.584014 0.502931 -1.930529
v -4.583952 0.503142 -1.930623
v -4.583878 0.503297 -1.930761
v -4.583849 0.503415 -1.930797
v -4.583928 0.503482 -1.930589
v -4.584044 0.503371 -1.930341
v -4.584053 0.503241 -1.930353
vn -0.9194 0.1038 -0.3794
vn -0.9190 0.0959 -0.3824
vn -0.9186 0.1031 -0.3816
vn -0.9198 0.0990 -0.3796
vn -0.9184 0.1063 -0.3812
vn -0.9194 0.0989 -0.3807
usemtl None
s off
f 63//47 68//47 66//47
f 67//48 66//48 68//48
f 66//49 65//49 64//49
f 63//50 66//50 64//50
f 63//51 62//51 61//51
f 61//52 68//52 63//52
o 8_Federated_States_of_Micronesia_sphere.001
v -4.270582 0.583505 -2.533562
v -4.270385 0.583037 -2.533989
v -4.270338 0.583655 -2.533927
v -4.270321 0.584183 -2.533834
v -4.270365 0.584639 -2.533659
v -4.270539 0.585027 -2.533287
v -4.270702 0.584418 -2.533158
v -4.270707 0.583936 -2.533261
vn -0.8463 0.1178 -0.5194
vn -0.8471 0.1161 -0.5185
vn -0.8471 0.1166 -0.5185
vn -0.8471 0.1173 -0.5183
vn -0.8465 0.1193 -0.5189
vn -0.8470 0.1176 -0.5185
usemtl None
s off
f 69//53 76//53 72//53
f 75//54 74//54 73//54
f 73//55 72//55 75//55
f 72//56 71//56 69//56
f 75//57 72//57 76//57
f 71//58 70//58 69//58
o 9_Federated_States_of_Micronesia_sphere.001
v -4.601710 0.585233 -1.864264
v -4.601438 0.584743 -1.865073
v -4.601435 0.585662 -1.864795
v -4.601502 0.585949 -1.864545
v -4.601727 0.586052 -1.863969
v -4.601763 0.585519 -1.864048
vn -0.9175 0.1179 -0.3797
vn -0.9173 0.1188 -0.3799
vn -0.9177 0.1169 -0.3798
vn -0.9175 0.1181 -0.3797
usemtl None
s off
f 77//59 82//59 80//59
f 81//60 80//60 82//60
f 80//61 79//61 77//61
f 79//62 78//62 77//62
o 10_Federated_States_of_Micronesia_sphere.001
v -4.607795 0.606853 -1.842886
v -4.608064 0.606431 -1.842366
v -4.608341 0.606920 -1.841547
v -4.608592 0.606860 -1.840959
v -4.608864 0.606586 -1.840388
v -4.609217 0.606422 -1.839587
v -4.610048 0.606511 -1.837553
v -4.610371 0.606412 -1.836804
v -4.610415 0.606230 -1.836753
v -4.611078 0.605267 -1.835451
v -4.611188 0.605209 -1.835203
v -4.611488 0.604436 -1.834717
v -4.611419 0.604251 -1.834942
v -4.611110 0.604010 -1.835762
v -4.611389 0.603144 -1.835358
v -4.611708 0.602814 -1.834688
v -4.612030 0.602935 -1.833874
v -4.612320 0.603405 -1.833027
v -4.613267 0.598840 -1.832154
v -4.613377 0.597962 -1.832159
v -4.613139 0.597742 -1.832803
v -4.612390 0.597901 -1.834563
v -4.612267 0.597678 -1.834929
v -4.612436 0.596734 -1.834811
v -4.612924 0.595102 -1.834138
v -4.613104 0.594054 -1.834026
v -4.613135 0.592642 -1.834389
v -4.612916 0.591814 -1.835176
v -4.612554 0.591434 -1.836168
v -4.611006 0.590804 -1.840098
v -4.610349 0.590900 -1.841655
v -4.609893 0.591891 -1.842449
v -4.609234 0.591231 -1.844244
v -4.608693 0.592024 -1.845304
v -4.608220 0.593355 -1.846034
v -4.607774 0.594289 -1.846822
v -4.607785 0.595452 -1.846436
v -4.607710 0.596586 -1.846265
v -4.607491 0.597632 -1.846473
v -4.607057 0.598529 -1.847243
v -4.607115 0.598879 -1.846992
v -4.607171 0.599796 -1.846577
v -4.606216 0.599945 -1.848834
v -4.605821 0.601321 -1.849362
v -4.605720 0.604331 -1.848675
v -4.605946 0.605184 -1.847866
v -4.606599 0.605213 -1.846280
v -4.607135 0.605623 -1.844859
v -4.607004 0.607646 -1.844549
vn -0.9174 0.1176 -0.3802
vn -0.9178 0.1165 -0.3796
vn -0.9175 0.1175 -0.3799
vn -0.9175 0.1177 -0.3799
vn -0.9176 0.1175 -0.3798
vn -0.9175 0.1177 -0.3800
vn -0.9171 0.1176 -0.3808
vn -0.9176 0.1186 -0.3794
vn -0.9175 0.1173 -0.3801
vn -0.9175 0.1173 -0.3800
vn -0.9175 0.1183 -0.3796
vn -0.9175 0.1176 -0.3800
vn -0.9172 0.1181 -0.3805
vn -0.9176 0.1168 -0.3799
vn -0.9175 0.1168 -0.3801
vn -0.9176 0.1173 -0.3798
vn -0.9175 0.1165 -0.3802
vn -0.9173 0.1174 -0.3805
vn -0.9180 0.1140 -0.3799
vn -0.9175 0.1178 -0.3798
vn -0.9174 0.1178 -0.3800
vn -0.9173 0.1176 -0.3803
vn -0.9174 0.1179 -0.3800
vn -0.9173 0.1191 -0.3799
vn -0.9181 0.1131 -0.3799
vn -0.9172 0.1181 -0.3804
vn -0.9174 0.1179 -0.3801
vn -0.9174 0.1177 -0.3801
vn -0.9176 0.1167 -0.3801
vn -0.9173 0.1174 -0.3806
vn -0.9175 0.1175 -0.3801
vn -0.9176 0.1172 -0.3798
vn -0.9174 0.1177 -0.3802
vn -0.9175 0.1172 -0.3801
vn -0.9175 0.1175 -0.3800
vn -0.9177 0.1173 -0.3797
vn -0.9177 0.1193 -0.3790
vn -0.9173 0.1171 -0.3806
vn -0.9175 0.1176 -0.3799
vn -0.9175 0.1169 -0.3802
vn -0.9176 0.1169 -0.3799
vn -0.9174 0.1176 -0.3801
usemtl None
s off
f 130//63 129//63 124//63
f 102//64 101//64 103//64
f 101//65 100//65 99//65
f 101//66 99//66 104//66
f 104//67 103//67 101//67
f 104//68 99//68 98//68
f 105//69 104//69 98//69
f 105//65 98//65 97//65
f 108//70 107//70 111//70
f 107//71 106//71 111//71
f 105//72 97//72 124//72
f 97//73 96//73 88//73
f 124//74 97//74 88//74
f 109//75 108//75 110//75
f 110//76 108//76 111//76
f 106//77 105//77 114//77
f 96//78 95//78 93//78
f 95//79 94//79 93//79
f 96//80 93//80 92//80
f 91//81 90//81 89//81
f 92//82 91//82 96//82
f 105//83 124//83 121//83
f 91//84 89//84 96//84
f 89//85 88//85 96//85
f 87//86 86//86 84//86
f 86//87 85//87 84//87
f 88//88 87//88 124//88
f 112//89 111//89 106//89
f 114//90 113//90 112//90
f 116//91 115//91 114//91
f 119//92 118//92 117//92
f 117//74 116//74 114//74
f 114//93 112//93 106//93
f 84//94 83//94 130//94
f 83//95 131//95 130//95
f 105//96 121//96 120//96
f 87//97 84//97 124//97
f 117//71 114//71 119//71
f 120//68 114//68 105//68
f 120//98 119//98 114//98
f 123//99 122//99 121//99
f 124//100 123//100 121//100
f 84//101 130//101 124//101
f 126//102 125//102 124//102
f 128//103 127//103 129//103
f 127//104 126//104 124//104
f 129//74 127//74 124//74
o 11_Federated_States_of_Micronesia_sphere.001
v -4.372499 0.637526 -2.338431
v -4.372398 0.636576 -2.338894
v -4.371849 0.639937 -2.338967
v -4.371730 0.641405 -2.338771
v -4.372163 0.640655 -2.338168
v -4.372406 0.639650 -2.337997
v -4.372519 0.638577 -2.338091
vn -0.8760 0.1329 -0.4636
vn -0.8760 0.1323 -0.4638
vn -0.8759 0.1333 -0.4638
vn -0.8763 0.1332 -0.4630
vn -0.8761 0.1329 -0.4635
usemtl None
s off
f 138//105 137//105 134//105
f 137//106 136//106 134//106
f 136//107 135//107 134//107
f 134//108 133//108 132//108
f 138//109 134//109 132//109
o 12_Federated_States_of_Micronesia_sphere.001
v -4.258359 0.641864 -2.539825
v -4.258359 0.641467 -2.539927
v -4.258036 0.642311 -2.540238
v -4.258329 0.642347 -2.539750
v -4.258393 0.642189 -2.539686
vn -0.8447 0.1327 -0.5185
vn -0.8452 0.1316 -0.5181
vn -0.8450 0.1340 -0.5177
usemtl None
s off
f 141//110 140//110 139//110
f 143//111 142//111 139//111
f 142//112 141//112 139//112
o 13_Federated_States_of_Micronesia_sphere.001
v -4.362773 0.642880 -2.355263
v -4.363540 0.641287 -2.354273
v -4.363724 0.639928 -2.354316
v -4.363655 0.638303 -2.354912
v -4.363310 0.637569 -2.355773
v -4.362669 0.638897 -2.356604
v -4.362381 0.638898 -2.357146
v -4.362096 0.638314 -2.357852
v -4.361609 0.638371 -2.358756
v -4.361015 0.638700 -2.359783
v -4.360383 0.638907 -2.360919
v -4.360470 0.639226 -2.360661
v -4.360584 0.639356 -2.360409
v -4.360888 0.639457 -2.359806
v -4.361228 0.639863 -2.359047
v -4.362271 0.640355 -2.356936
v -4.362423 0.640978 -2.356470
v -4.362137 0.641872 -2.356755
v -4.361269 0.641592 -2.358475
v -4.360806 0.642565 -2.359069
v -4.362136 0.643296 -2.356348
vn -0.8757 0.1334 -0.4641
vn -0.8759 0.1323 -0.4639
vn -0.8758 0.1333 -0.4639
vn -0.8758 0.1339 -0.4637
vn -0.8760 0.1326 -0.4638
vn -0.8759 0.1335 -0.4637
vn -0.8758 0.1334 -0.4638
vn -0.8759 0.1324 -0.4639
vn -0.8758 0.1335 -0.4638
vn -0.8759 0.1328 -0.4638
vn -0.8760 0.1325 -0.4637
vn -0.8755 0.1328 -0.4646
vn -0.8761 0.1325 -0.4636
vn -0.8760 0.1332 -0.4636
vn -0.8762 0.1328 -0.4634
vn -0.8760 0.1324 -0.4639
vn -0.8764 0.1320 -0.4632
usemtl None
s off
f 157//113 156//113 153//113
f 146//114 145//114 160//114
f 145//115 144//115 160//115
f 144//116 164//116 161//116
f 164//117 163//117 162//117
f 161//118 164//118 162//118
f 147//118 146//118 149//118
f 149//119 146//119 160//119
f 149//120 148//120 147//120
f 152//121 151//121 158//121
f 151//122 150//122 158//122
f 153//123 152//123 158//123
f 150//124 149//124 159//124
f 144//125 161//125 160//125
f 159//122 158//122 150//122
f 158//126 157//126 153//126
f 149//127 160//127 159//127
f 154//128 153//128 155//128
f 156//129 155//129 153//129
o 14_Federated_States_of_Micronesia_sphere.001
v -4.371393 0.649459 -2.337096
v -4.371717 0.649024 -2.336608
v -4.371966 0.649463 -2.336013
v -4.372337 0.649363 -2.335341
v -4.372831 0.649097 -2.334484
v -4.373455 0.649023 -2.333327
v -4.373150 0.647953 -2.334211
v -4.372560 0.646896 -2.335628
v -4.371857 0.646128 -2.337175
v -4.371215 0.645937 -2.338443
v -4.371058 0.647053 -2.338419
v -4.370997 0.647978 -2.338270
v -4.371065 0.649644 -2.337664
v -4.371260 0.649570 -2.337317
vn -0.8760 0.1332 -0.4635
vn -0.8757 0.1340 -0.4639
vn -0.8752 0.1348 -0.4646
vn -0.8760 0.1330 -0.4637
vn -0.8761 0.1338 -0.4631
vn -0.8757 0.1331 -0.4642
vn -0.8759 0.1330 -0.4637
vn -0.8760 0.1333 -0.4635
vn -0.8758 0.1331 -0.4639
vn -0.8760 0.1336 -0.4635
vn -0.8761 0.1322 -0.4636
vn -0.8761 0.1323 -0.4637
usemtl None
s off
f 166//130 176//130 173//130
f 169//131 168//131 171//131
f 168//132 167//132 166//132
f 166//133 165//133 176//133
f 165//134 178//134 176//134
f 168//135 166//135 172//135
f 171//136 168//136 172//136
f 171//137 170//137 169//137
f 173//138 172//138 166//138
f 175//139 174//139 173//139
f 177//140 176//140 178//140
f 176//141 175//141 173//141
o 15_Federated_States_of_Micronesia_sphere.001
v -4.298532 0.745769 -2.441060
v -4.298533 0.745426 -2.441163
v -4.298280 0.746378 -2.441316
v -4.298509 0.746256 -2.440954
v -4.298558 0.746046 -2.440931
vn -0.8589 0.1512 -0.4894
vn -0.8584 0.1495 -0.4907
vn -0.8581 0.1479 -0.4917
usemtl None
s off
f 181//142 179//142 183//142
f 183//143 182//143 181//143
f 181//144 180//144 179//144
o 16_Federated_States_of_Micronesia_sphere.001
v -4.267122 0.745990 -2.496062
v -4.266948 0.745364 -2.496556
v -4.266648 0.746513 -2.496733
v -4.266566 0.747995 -2.496425
v -4.266767 0.749082 -2.495745
v -4.267289 0.749045 -2.494840
v -4.267458 0.748269 -2.494779
v -4.267350 0.747108 -2.495321
vn -0.8589 0.1482 -0.4902
vn -0.8586 0.1498 -0.4903
vn -0.8590 0.1486 -0.4900
vn -0.8589 0.1491 -0.4899
vn -0.8588 0.1489 -0.4902
vn -0.8588 0.1484 -0.4904
usemtl None
s off
f 184//145 191//145 186//145
f 190//146 189//146 188//146
f 188//147 187//147 190//147
f 187//148 186//148 191//148
f 190//149 187//149 191//149
f 186//150 185//150 184//150
o 17_Federated_States_of_Micronesia_sphere.001
v -4.281823 0.780185 -2.459901
v -4.281639 0.780014 -2.460275
v -4.281802 0.780840 -2.459737
v -4.281920 0.781019 -2.459476
v -4.282183 0.780891 -2.459055
v -4.282135 0.780430 -2.459279
v -4.282004 0.780269 -2.459558
vn -0.8586 0.1491 -0.4905
vn -0.8591 0.1475 -0.4900
vn -0.8581 0.1483 -0.4916
vn -0.8580 0.1511 -0.4909
vn -0.8592 0.1495 -0.4894
usemtl None
s off
f 198//151 197//151 194//151
f 196//152 195//152 197//152
f 195//153 194//153 197//153
f 194//154 193//154 192//154
f 192//155 198//155 194//155
o 18_Federated_States_of_Micronesia_sphere.001
v -3.674511 0.829090 -3.287038
v -3.675363 0.828612 -3.286219
v -3.676540 0.829461 -3.284716
v -3.676376 0.828438 -3.285150
v -3.675852 0.827026 -3.286074
v -3.675194 0.825746 -3.287114
v -3.674624 0.825154 -3.287886
v -3.673740 0.825566 -3.288756
v -3.673059 0.827434 -3.289042
v -3.672342 0.827034 -3.289929
v -3.671885 0.826191 -3.290640
v -3.669555 0.818458 -3.295112
v -3.668996 0.817258 -3.296022
v -3.668470 0.819407 -3.296070
v -3.668645 0.822479 -3.295118
v -3.669276 0.825232 -3.293745
v -3.670143 0.826422 -3.292497
v -3.670487 0.827048 -3.291964
v -3.670618 0.830029 -3.291084
v -3.670793 0.831020 -3.290647
v -3.671595 0.831765 -3.289581
v -3.672039 0.831140 -3.289248
v -3.672499 0.828805 -3.289319
v -3.672499 0.829668 -3.289106
v -3.672575 0.830549 -3.288804
v -3.672732 0.831331 -3.288439
v -3.672974 0.831896 -3.288033
v -3.673429 0.832470 -3.287391
v -3.674058 0.833043 -3.286558
v -3.674578 0.833045 -3.285986
v -3.674649 0.831891 -3.286193
v -3.674196 0.830369 -3.287068
vn -0.7297 0.1639 -0.6638
vn -0.7296 0.1642 -0.6639
vn -0.7294 0.1640 -0.6642
vn -0.7295 0.1642 -0.6639
vn -0.7294 0.1641 -0.6642
vn -0.7296 0.1645 -0.6638
vn -0.7296 0.1636 -0.6640
vn -0.7295 0.1639 -0.6640
vn -0.7295 0.1642 -0.6640
vn -0.7298 0.1636 -0.6639
vn -0.7297 0.1640 -0.6638
vn -0.7298 0.1637 -0.6637
vn -0.7296 0.1639 -0.6639
vn -0.7295 0.1645 -0.6639
vn -0.7297 0.1638 -0.6638
vn -0.7295 0.1643 -0.6639
vn -0.7296 0.1640 -0.6639
vn -0.7297 0.1638 -0.6639
vn -0.7295 0.1639 -0.6641
vn -0.7296 0.1638 -0.6640
vn -0.7296 0.1641 -0.6639
vn -0.7295 0.1646 -0.6639
vn -0.7298 0.1637 -0.6638
vn -0.7296 0.1643 -0.6638
vn -0.7297 0.1640 -0.6639
vn -0.7296 0.1642 -0.6638
usemtl None
s off
f 212//156 211//156 210//156
f 230//157 229//157 226//157
f 229//158 228//158 227//158
f 226//159 229//159 227//159
f 226//160 225//160 230//160
f 225//161 224//161 230//161
f 224//162 223//162 230//162
f 223//163 222//163 230//163
f 221//164 220//164 217//164
f 220//165 219//165 218//165
f 222//161 221//161 199//161
f 230//166 222//166 199//166
f 220//167 218//167 217//167
f 221//168 217//168 208//168
f 217//164 216//164 208//164
f 200//169 199//169 203//169
f 199//170 221//170 207//170
f 202//171 201//171 200//171
f 204//172 203//172 199//172
f 203//173 202//173 200//173
f 206//174 205//174 204//174
f 207//175 206//175 204//175
f 199//176 207//176 204//176
f 207//177 221//177 208//177
f 215//178 214//178 209//178
f 214//179 213//179 209//179
f 216//180 215//180 209//180
f 208//168 216//168 209//168
f 213//181 212//181 210//181
f 209//176 213//176 210//176
o 19_Federated_States_of_Micronesia_sphere.001
v -3.803388 0.847944 -3.132520
v -3.802918 0.847657 -3.133182
v -3.802777 0.848238 -3.133204
v -3.803112 0.848842 -3.132624
v -3.803623 0.848915 -3.131967
v -3.803754 0.848594 -3.131890
vn -0.7700 0.1645 -0.6164
vn -0.7698 0.1637 -0.6169
vn -0.7696 0.1640 -0.6171
vn -0.7695 0.1650 -0.6170
usemtl None
s off
f 231//182 236//182 234//182
f 236//183 235//183 234//183
f 234//184 233//184 231//184
f 233//185 232//185 231//185
