# Blender v2.81 (sub 16) OBJ File: ''
# www.blender.org
mtllib Grenada.mtl
o 0_Grenada_sphere.001
v 2.308001 1.007908 4.238255
v 2.295297 0.999951 4.246845
v 2.295003 1.002574 4.246297
v 2.292453 1.001086 4.247993
v 2.290643 0.999079 4.249449
v 2.289645 0.996420 4.250665
v 2.289539 0.993091 4.251605
v 2.286507 0.993644 4.253003
v 2.283533 0.994557 4.254275
v 2.280665 0.995849 4.255393
v 2.277950 0.997492 4.256339
v 2.275003 0.994294 4.258691
v 2.269707 0.992974 4.261741
v 2.263688 0.993213 4.264744
v 2.258691 0.994569 4.266930
v 2.268943 1.002494 4.259597
v 2.270734 1.004673 4.258104
v 2.271268 1.009886 4.256445
v 2.269850 1.014055 4.256058
v 2.267778 1.018157 4.256021
v 2.266351 1.023052 4.255446
v 2.267153 1.031064 4.252905
v 2.272240 1.045254 4.246537
v 2.271730 1.051538 4.245124
v 2.287727 1.076755 4.230263
v 2.294344 1.078047 4.226547
v 2.301802 1.076905 4.223051
v 2.309245 1.072024 4.220558
v 2.309160 1.070903 4.220899
v 2.307385 1.068792 4.222365
v 2.310713 1.062653 4.222304
v 2.311840 1.057419 4.223123
v 2.312588 1.039797 4.227431
v 2.312093 1.037296 4.228349
v 2.310964 1.034821 4.229583
v 2.309434 1.029359 4.231816
v 2.309834 1.026583 4.232350
v 2.312228 1.020796 4.232671
v 2.311548 1.019693 4.233311
v 2.309993 1.018840 4.234331
v 2.309291 1.016744 4.235246
v 2.309202 1.013978 4.236027
v 2.309410 1.011088 4.236691
vn 0.4417 0.2308 0.8670
vn 0.4415 0.2307 0.8671
vn 0.4420 0.2308 0.8668
vn 0.4418 0.2307 0.8669
vn 0.4417 0.2307 0.8670
vn 0.4418 0.2307 0.8670
vn 0.4422 0.2307 0.8667
vn 0.4434 0.2308 0.8661
vn 0.4417 0.2306 0.8670
vn 0.4418 0.2308 0.8669
vn 0.4427 0.2306 0.8665
vn 0.4417 0.2308 0.8669
vn 0.4419 0.2307 0.8669
vn 0.4418 0.2306 0.8670
vn 0.4416 0.2307 0.8670
vn 0.4414 0.2309 0.8671
vn 0.4415 0.2306 0.8671
vn 0.4418 0.2309 0.8669
usemtl None
s off
f 4//1 18//1 5//1
f 32//2 31//2 30//2
f 30//3 29//3 28//3
f 28//4 27//4 30//4
f 27//5 26//5 30//5
f 26//6 25//6 30//6
f 25//5 24//5 32//5
f 30//5 25//5 32//5
f 23//5 22//5 36//5
f 22//7 21//7 20//7
f 24//1 23//1 33//1
f 33//5 32//5 24//5
f 35//8 34//8 33//8
f 35//5 33//5 23//5
f 22//4 20//4 19//4
f 22//5 19//5 3//5
f 36//9 22//9 37//9
f 36//6 35//6 23//6
f 19//4 18//4 4//4
f 37//10 22//10 41//10
f 22//6 3//6 41//6
f 39//11 38//11 40//11
f 38//4 37//4 40//4
f 3//12 19//12 4//12
f 18//13 17//13 11//13
f 41//1 40//1 37//1
f 17//13 16//13 11//13
f 18//5 11//5 5//5
f 16//5 15//5 14//5
f 14//4 13//4 16//4
f 13//1 12//1 16//1
f 11//5 10//5 5//5
f 10//4 9//4 5//4
f 5//14 9//14 6//14
f 12//15 11//15 16//15
f 9//12 8//12 6//12
f 1//16 43//16 42//16
f 42//17 41//17 3//17
f 8//13 7//13 6//13
f 1//4 42//4 3//4
f 3//18 2//18 1//18
o 1_Grenada_sphere.001
v 2.314394 1.070630 4.218305
v 2.313708 1.061064 4.221200
v 2.314536 1.051065 4.223440
v 2.306688 1.053452 4.226803
v 2.299645 1.051132 4.231009
v 2.292870 1.046973 4.235568
v 2.285813 1.043805 4.240007
v 2.286980 1.046781 4.238620
v 2.289028 1.054453 4.235535
v 2.290179 1.057433 4.234156
v 2.288801 1.057658 4.234798
v 2.284238 1.057380 4.237197
v 2.284654 1.059327 4.236466
v 2.286692 1.064065 4.234167
v 2.296472 1.061006 4.229998
v 2.301138 1.069422 4.225381
v 2.304550 1.080977 4.220568
v 2.310503 1.087398 4.215826
v 2.314155 1.079447 4.216081
vn 0.4417 0.2308 0.8670
vn 0.4418 0.2307 0.8669
vn 0.4417 0.2307 0.8670
vn 0.4418 0.2307 0.8670
vn 0.4418 0.2308 0.8669
vn 0.4415 0.2308 0.8671
vn 0.4421 0.2307 0.8668
vn 0.4417 0.2308 0.8669
usemtl None
s off
f 56//19 55//19 54//19
f 62//20 61//20 60//20
f 62//20 60//20 44//20
f 60//21 59//21 44//21
f 45//21 44//21 59//21
f 47//22 46//22 45//22
f 50//23 49//23 51//23
f 49//21 48//21 52//21
f 51//20 49//20 52//20
f 48//23 47//23 58//23
f 47//21 45//21 59//21
f 58//21 47//21 59//21
f 58//20 57//20 53//20
f 57//24 56//24 54//24
f 53//25 57//25 54//25
f 53//26 52//26 48//26
f 53//19 48//19 58//19
