# Blender v2.81 (sub 16) OBJ File: ''
# www.blender.org
mtllib Guernsey.mtl
o 0_Guernsey_sphere.001
v 3.249751 3.797150 0.134195
v 3.250152 3.796780 0.134725
v 3.250061 3.796848 0.134985
v 3.249638 3.797224 0.134779
v 3.249301 3.797520 0.134666
v 3.248882 3.797878 0.134809
v 3.248545 3.798172 0.134771
v 3.248378 3.798324 0.134600
v 3.248115 3.798558 0.134429
v 3.247879 3.798772 0.134203
v 3.247812 3.798836 0.134063
v 3.248263 3.798461 0.133654
v 3.249111 3.797730 0.133576
vn 0.6543 0.7556 0.0309
vn 0.6546 0.7554 0.0313
vn 0.6539 0.7560 0.0311
vn 0.6552 0.7548 0.0315
vn 0.6545 0.7554 0.0309
vn 0.6547 0.7553 0.0307
vn 0.6548 0.7551 0.0309
vn 0.6543 0.7556 0.0287
vn 0.6548 0.7552 0.0312
vn 0.6547 0.7553 0.0305
vn 0.6547 0.7552 0.0309
usemtl None
s off
f 5//1 4//1 1//1
f 13//2 12//2 8//2
f 12//3 11//3 10//3
f 8//4 12//4 9//4
f 10//5 9//5 12//5
f 8//6 7//6 6//6
f 1//7 13//7 5//7
f 3//8 2//8 4//8
f 2//9 1//9 4//9
f 13//10 8//10 6//10
f 5//11 13//11 6//11
o 1_Guernsey_sphere.001
v 3.245799 3.800396 0.138601
v 3.246612 3.799670 0.139106
v 3.246342 3.799902 0.139160
v 3.245743 3.800421 0.139168
v 3.245289 3.800819 0.139068
v 3.245165 3.800940 0.138725
vn 0.6547 0.7552 0.0312
vn 0.6550 0.7550 0.0302
vn 0.6544 0.7555 0.0309
vn 0.6549 0.7551 0.0301
usemtl None
s off
f 16//12 15//12 14//12
f 14//13 19//13 18//13
f 18//14 17//14 14//14
f 17//15 16//15 14//15
o 2_Guernsey_sphere.001
v 3.243633 3.802029 0.144564
v 3.243766 3.802029 0.141749
v 3.243194 3.802432 0.143720
v 3.242859 3.802759 0.142553
v 3.243505 3.802253 0.141630
v 3.248483 3.797841 0.144166
v 3.248739 3.797595 0.144762
v 3.248689 3.797623 0.145144
v 3.248517 3.797758 0.145492
v 3.248402 3.797838 0.145966
v 3.248145 3.797833 0.151532
v 3.247959 3.797985 0.151761
v 3.247610 3.798295 0.151588
v 3.247294 3.798587 0.151120
v 3.247229 3.798671 0.150473
v 3.246262 3.799499 0.150699
v 3.245993 3.799748 0.150321
v 3.246015 3.799758 0.149609
v 3.245925 3.799868 0.148835
v 3.244176 3.801492 0.146189
v 3.243847 3.801827 0.144982
v 3.244078 3.801753 0.141890
v 3.245242 3.800703 0.142881
v 3.246670 3.799452 0.143206
v 3.247703 3.798540 0.143610
v 3.247969 3.798310 0.143612
v 3.248146 3.798153 0.143695
vn 0.6429 0.7653 0.0303
vn 0.6539 0.7559 0.0308
vn 0.6430 0.7653 0.0301
vn 0.6431 0.7651 0.0315
vn 0.6549 0.7551 0.0307
vn 0.6546 0.7554 0.0307
vn 0.6546 0.7553 0.0311
vn 0.6548 0.7551 0.0308
vn 0.6547 0.7553 0.0309
vn 0.6547 0.7552 0.0311
vn 0.6558 0.7543 0.0316
vn 0.6548 0.7552 0.0302
vn 0.6545 0.7554 0.0311
vn 0.6546 0.7553 0.0316
vn 0.6544 0.7556 0.0302
vn 0.6547 0.7553 0.0308
vn 0.6547 0.7552 0.0314
vn 0.6550 0.7546 0.0404
vn 0.6544 0.7555 0.0313
vn 0.6546 0.7553 0.0309
vn 0.6551 0.7549 0.0293
vn 0.6544 0.7555 0.0310
vn 0.6551 0.7549 0.0311
usemtl None
s off
f 22//16 21//16 23//16
f 28//17 27//17 25//17
f 20//18 21//18 22//18
f 21//19 24//19 23//19
f 21//20 20//20 41//20
f 20//21 40//21 42//21
f 41//22 20//22 42//22
f 40//23 39//23 42//23
f 39//24 38//24 29//24
f 42//25 39//25 43//25
f 37//26 36//26 35//26
f 38//27 37//27 34//27
f 37//28 35//28 34//28
f 34//29 33//29 30//29
f 33//30 32//30 30//30
f 44//22 43//22 29//22
f 43//31 39//31 29//31
f 32//32 31//32 30//32
f 38//24 34//24 29//24
f 46//33 45//33 44//33
f 44//34 29//34 28//34
f 34//35 30//35 29//35
f 46//36 44//36 25//36
f 26//37 25//37 27//37
f 28//38 25//38 44//38
o 3_Guernsey_sphere.001
v 3.231014 3.813434 0.124174
v 3.231157 3.813277 0.125102
v 3.230808 3.813549 0.125628
v 3.230088 3.814173 0.125155
v 3.229753 3.814486 0.124348
v 3.229730 3.814528 0.123778
v 3.229354 3.814881 0.122832
v 3.229331 3.814910 0.122592
v 3.229520 3.814760 0.122361
v 3.229897 3.814443 0.122376
v 3.230710 3.813719 0.123418
vn 0.6424 0.7657 0.0306
vn 0.6425 0.7657 0.0312
vn 0.6421 0.7660 0.0320
vn 0.6433 0.7650 0.0302
vn 0.6424 0.7657 0.0302
vn 0.6429 0.7654 0.0302
vn 0.6427 0.7656 0.0295
vn 0.6428 0.7654 0.0303
vn 0.6429 0.7653 0.0305
usemtl None
s off
f 57//39 56//39 52//39
f 56//40 55//40 53//40
f 55//41 54//41 53//41
f 53//42 52//42 56//42
f 52//43 51//43 57//43
f 51//44 50//44 47//44
f 50//45 49//45 48//45
f 48//46 47//46 50//46
f 47//47 57//47 51//47
