# Blender v2.81 (sub 16) OBJ File: ''
# www.blender.org
mtllib Guernsey.mtl
o 0_Guernsey_sphere.001
v 3.233536 3.775435 0.133317
v 3.234593 3.774333 0.134786
v 3.234310 3.774477 0.135510
v 3.233150 3.775545 0.134936
v 3.232223 3.776379 0.134622
v 3.231032 3.777343 0.135019
v 3.230093 3.778159 0.134914
v 3.229649 3.778603 0.134437
v 3.228938 3.779274 0.133963
v 3.228311 3.779894 0.133336
v 3.228142 3.780091 0.132951
v 3.229460 3.779118 0.131822
v 3.231830 3.777123 0.131608
vn 0.6458 0.7566 0.1027
vn 0.6459 0.7565 0.1021
vn 0.6463 0.7562 0.1025
vn 0.6463 0.7562 0.1024
vn 0.6460 0.7565 0.1020
vn 0.6462 0.7564 0.1018
vn 0.6459 0.7565 0.1023
vn 0.6459 0.7566 0.1020
vn 0.6459 0.7565 0.1026
vn 0.6459 0.7565 0.1024
usemtl None
s off
f 5//1 4//1 1//1
f 13//2 12//2 8//2
f 12//3 11//3 10//3
f 8//4 12//4 9//4
f 10//5 9//5 12//5
f 8//6 7//6 6//6
f 1//7 13//7 5//7
f 3//8 2//8 4//8
f 2//9 1//9 4//9
f 13//10 8//10 6//10
f 5//3 13//3 6//3
o 1_Guernsey_sphere.001
v 3.227857 3.779742 0.137332
v 3.230083 3.777650 0.138742
v 3.229315 3.778285 0.138894
v 3.227626 3.779725 0.138914
v 3.226360 3.780844 0.138635
v 3.226058 3.781232 0.137676
vn 0.6457 0.7566 0.1032
vn 0.6461 0.7563 0.1026
vn 0.6460 0.7565 0.1023
vn 0.6462 0.7563 0.1023
usemtl None
s off
f 16//11 15//11 14//11
f 14//12 19//12 18//12
f 18//13 17//13 14//13
f 17//14 16//14 14//14
o 2_Guernsey_sphere.001
v 3.235575 3.772942 0.138869
v 3.236236 3.772155 0.140510
v 3.236061 3.772162 0.141567
v 3.235544 3.772473 0.142534
v 3.235177 3.772608 0.143853
v 3.233888 3.771549 0.159814
v 3.233323 3.771941 0.160491
v 3.232331 3.772856 0.159984
v 3.231471 3.773777 0.158610
v 3.231356 3.774131 0.156719
v 3.228536 3.776449 0.157385
v 3.227805 3.777222 0.156284
v 3.227963 3.777367 0.154215
v 3.227807 3.777803 0.151983
v 3.223188 3.782763 0.144471
v 3.222442 3.783857 0.141100
v 3.220822 3.785711 0.137622
v 3.220092 3.786764 0.134440
v 3.222011 3.785464 0.131943
v 3.223555 3.784050 0.132642
v 3.226660 3.781034 0.135336
v 3.230608 3.777541 0.136232
v 3.233448 3.774966 0.137340
v 3.234190 3.774331 0.137347
v 3.234676 3.773885 0.137575
vn 0.6460 0.7565 0.1023
vn 0.6461 0.7563 0.1022
vn 0.6459 0.7565 0.1023
vn 0.6460 0.7564 0.1023
vn 0.6460 0.7564 0.1024
vn 0.6461 0.7563 0.1023
vn 0.6466 0.7565 0.0980
vn 0.6452 0.7572 0.1021
vn 0.6458 0.7567 0.1021
vn 0.6459 0.7565 0.1024
vn 0.6462 0.7563 0.1025
vn 0.6461 0.7564 0.1023
vn 0.6461 0.7563 0.1024
vn 0.6461 0.7563 0.1025
vn 0.6459 0.7566 0.1024
usemtl None
s off
f 29//15 33//15 32//15
f 38//16 37//16 39//16
f 37//17 36//17 39//17
f 35//18 34//18 40//18
f 34//18 33//18 24//18
f 40//19 34//19 41//19
f 36//18 35//18 40//18
f 40//18 39//18 36//18
f 42//20 41//20 24//20
f 24//18 41//18 34//18
f 44//21 43//21 42//21
f 21//22 20//22 22//22
f 20//23 44//23 42//23
f 23//24 20//24 42//24
f 23//25 22//25 20//25
f 26//18 25//18 27//18
f 25//26 24//26 29//26
f 27//26 25//26 28//26
f 28//27 25//27 29//27
f 24//28 23//28 42//28
f 31//29 30//29 32//29
f 30//18 29//18 32//18
f 29//18 24//18 33//18
o 3_Guernsey_sphere.001
v 3.215353 3.792247 0.123832
v 3.215634 3.791664 0.126366
v 3.214622 3.792333 0.127810
v 3.212726 3.794129 0.126509
v 3.211926 3.795110 0.124305
v 3.211941 3.795307 0.122760
v 3.211059 3.796404 0.120214
v 3.211030 3.796515 0.119573
v 3.211570 3.796138 0.118955
v 3.212575 3.795275 0.118992
v 3.214624 3.793147 0.121785
vn 0.6462 0.7563 0.1024
vn 0.6460 0.7565 0.1024
vn 0.6470 0.7555 0.1029
vn 0.6458 0.7566 0.1022
vn 0.6459 0.7565 0.1022
vn 0.6460 0.7564 0.1023
vn 0.6460 0.7565 0.1022
vn 0.6460 0.7564 0.1022
usemtl None
s off
f 55//30 54//30 50//30
f 54//31 53//31 51//31
f 53//32 52//32 51//32
f 51//33 50//33 54//33
f 50//34 49//34 55//34
f 49//35 48//35 45//35
f 48//36 47//36 46//36
f 46//35 45//35 48//35
f 45//37 55//37 49//37
