# Blender v2.81 (sub 16) OBJ File: ''
# www.blender.org
mtllib Haiti.mtl
o 0_Haiti_sphere.001
v 1.324435 1.545085 4.545522
v 1.345173 1.545085 4.542238
v 1.345306 1.543700 4.542549
v 1.343299 1.542171 4.543234
v 1.339739 1.541616 4.543931
v 1.332572 1.541573 4.545076
v 1.329190 1.542110 4.545483
v 1.326118 1.543720 4.545583
v 1.322999 1.550318 4.543582
v 1.324448 1.549124 4.543847
v 1.326524 1.550629 4.542895
v 1.327667 1.550135 4.542919
v 1.328605 1.548871 4.543293
v 1.330037 1.548096 4.543388
v 1.335850 1.548271 4.542395
v 1.338919 1.548187 4.541943
v 1.342480 1.547601 4.541622
v 1.345070 1.546244 4.541774
v 1.320627 1.547811 4.544996
v 1.321002 1.549754 4.544132
v 1.321807 1.550571 4.543666
vn 0.1529 0.2306 0.9610
vn 0.1447 0.3786 0.9142
vn 0.1522 0.2307 0.9610
vn 0.1522 0.2306 0.9611
vn 0.1519 0.2306 0.9611
vn 0.1523 0.2307 0.9610
vn 0.1519 0.2307 0.9611
vn 0.1448 0.3786 0.9141
vn 0.1451 0.3788 0.9140
vn 0.1448 0.3787 0.9141
vn 0.1450 0.3787 0.9141
vn 0.1448 0.3788 0.9141
vn 0.1445 0.3785 0.9143
vn 0.1454 0.3787 0.9140
vn 0.1448 0.3789 0.9140
vn 0.1446 0.3786 0.9142
vn 0.1444 0.3784 0.9143
vn 0.1450 0.3782 0.9143
vn 0.1450 0.3788 0.9141
usemtl None
s off
f 4//1 3//1 2//1
f 19//2 1//2 10//2
f 2//3 1//3 6//3
f 1//4 8//4 6//4
f 8//5 7//5 6//5
f 6//6 5//6 2//6
f 5//7 4//7 2//7
f 1//8 2//8 15//8
f 2//9 18//9 17//9
f 1//10 15//10 14//10
f 17//11 16//11 2//11
f 16//12 15//12 2//12
f 13//13 12//13 10//13
f 12//14 11//14 10//14
f 14//15 13//15 1//15
f 13//16 10//16 1//16
f 10//17 9//17 20//17
f 9//18 21//18 20//18
f 20//19 19//19 10//19
o 1_Haiti_sphere.001
v 1.327962 1.586413 4.527844
v 1.323662 1.583584 4.529698
v 1.317116 1.583262 4.530868
v 1.311452 1.585775 4.530724
v 1.310258 1.591398 4.528584
v 1.315160 1.593799 4.526814
v 1.322107 1.593432 4.525865
v 1.327448 1.590839 4.526093
vn 0.1447 0.3787 0.9142
vn 0.1449 0.3787 0.9141
vn 0.1448 0.3787 0.9141
vn 0.1448 0.3786 0.9141
vn 0.1450 0.3786 0.9141
vn 0.1448 0.3786 0.9142
usemtl None
s off
f 24//20 23//20 28//20
f 22//21 29//21 23//21
f 29//22 28//22 23//22
f 28//23 27//23 24//23
f 27//24 26//24 25//24
f 24//25 27//25 25//25
o 2_Haiti_sphere.001
v 1.401084 1.595630 4.512445
v 1.400053 1.595109 4.512825
v 1.399279 1.595690 4.512707
v 1.398192 1.597492 4.512132
v 1.397248 1.598180 4.511997
v 1.396443 1.598331 4.512062
v 1.394098 1.598316 4.512440
v 1.384406 1.599710 4.513397
v 1.381041 1.599744 4.513916
v 1.377382 1.600343 4.514248
v 1.366465 1.605863 4.513690
v 1.355311 1.608053 4.514549
v 1.352069 1.609695 4.514383
v 1.349044 1.612829 4.513564
v 1.346418 1.614280 4.513379
v 1.345659 1.614794 4.513286
v 1.344547 1.615829 4.513034
v 1.343491 1.617066 4.512688
v 1.342878 1.618411 4.512228
v 1.343122 1.619770 4.511627
v 1.344500 1.621418 4.510726
v 1.346579 1.622817 4.509817
v 1.349081 1.623772 4.509026
v 1.351784 1.624144 4.508443
v 1.354827 1.623858 4.508080
v 1.372495 1.617573 4.507885
v 1.380610 1.615344 4.507523
v 1.389416 1.611547 4.507701
v 1.397219 1.608780 4.507611
v 1.400535 1.605311 4.508523
v 1.401510 1.603076 4.509294
v 1.402116 1.600401 4.510306
v 1.402070 1.597758 4.511408
vn 0.1448 0.3785 0.9142
vn 0.1453 0.3786 0.9141
vn 0.1443 0.3787 0.9142
vn 0.1450 0.3786 0.9141
vn 0.1448 0.3786 0.9142
vn 0.1449 0.3786 0.9142
vn 0.1448 0.3786 0.9141
vn 0.1447 0.3787 0.9142
vn 0.1446 0.3786 0.9142
vn 0.1449 0.3786 0.9141
vn 0.1448 0.3787 0.9141
vn 0.1442 0.3786 0.9143
vn 0.1454 0.3784 0.9141
vn 0.1451 0.3786 0.9141
vn 0.1451 0.3787 0.9141
vn 0.1450 0.3787 0.9141
vn 0.1449 0.3787 0.9141
vn 0.1444 0.3788 0.9141
vn 0.1451 0.3789 0.9140
vn 0.1452 0.3787 0.9140
usemtl None
s off
f 34//26 33//26 61//26
f 61//27 60//27 34//27
f 60//28 59//28 35//28
f 59//29 58//29 35//29
f 58//30 57//30 36//30
f 35//31 58//31 36//31
f 57//32 56//32 37//32
f 56//33 55//33 40//33
f 37//34 56//34 38//34
f 55//30 54//30 41//30
f 54//28 53//28 43//28
f 53//35 52//35 43//35
f 52//36 51//36 44//36
f 43//29 52//29 44//29
f 51//33 50//33 45//33
f 50//37 49//37 47//37
f 49//38 48//38 47//38
f 47//39 46//39 50//39
f 46//40 45//40 50//40
f 45//28 44//28 51//28
f 43//29 42//29 54//29
f 42//33 41//33 54//33
f 40//36 39//36 56//36
f 39//41 38//41 56//41
f 41//42 40//42 55//42
f 62//42 61//42 33//42
f 60//43 35//43 34//43
f 31//44 30//44 32//44
f 30//30 62//30 33//30
f 33//45 32//45 30//45
f 37//32 36//32 57//32
o 3_Haiti_sphere.001
v 1.296403 1.545085 4.549962
v 1.314014 1.545085 4.547173
v 1.451487 1.685543 4.467219
v 1.467348 1.561627 4.516035
v 1.312402 1.543607 4.547782
v 1.310892 1.540863 4.548681
v 1.314975 1.537080 4.548942
v 1.315627 1.535638 4.549185
v 1.316181 1.533788 4.549541
v 1.315989 1.533031 4.549754
v 1.314770 1.532635 4.550042
v 1.308577 1.532133 4.551143
v 1.307667 1.532207 4.551270
v 1.306732 1.532555 4.551334
v 1.306026 1.533173 4.551298
v 1.305614 1.534566 4.551029
v 1.299281 1.542517 4.550122
v 1.298256 1.542972 4.550176
v 1.297569 1.543474 4.550164
v 1.297424 1.544061 4.550046
v 1.297157 1.544456 4.549994
v 1.335394 1.554810 4.539758
v 1.334959 1.553096 4.540537
v 1.334455 1.551795 4.541156
v 1.333145 1.552314 4.541148
v 1.332578 1.552271 4.541255
v 1.331593 1.551588 4.541695
v 1.330633 1.551965 4.541691
v 1.330082 1.553042 4.541332
v 1.330348 1.554479 4.540694
v 1.329102 1.554044 4.541072
v 1.328272 1.551724 4.542164
v 1.327086 1.550711 4.542772
v 1.326996 1.551871 4.542306
v 1.327155 1.552919 4.541846
v 1.327569 1.554270 4.541221
v 1.327778 1.554951 4.540906
v 1.326263 1.553092 4.541916
v 1.325609 1.552373 4.542317
v 1.324945 1.552729 4.542275
v 1.323939 1.552854 4.542383
v 1.323716 1.552345 4.542629
v 1.323817 1.551661 4.542896
v 1.320199 1.548530 4.544766
v 1.295264 1.545836 4.549831
v 1.285306 1.551137 4.549213
v 1.283555 1.551731 4.549244
v 1.280600 1.551970 4.549613
v 1.279315 1.552335 4.549665
v 1.278185 1.552936 4.549596
v 1.277625 1.553735 4.549354
v 1.452785 1.684684 4.466952
v 1.453551 1.684492 4.466651
v 1.454154 1.684775 4.466213
v 1.454498 1.685403 4.465749
v 1.454955 1.686015 4.465236
v 1.455870 1.686262 4.464656
v 1.457304 1.687419 4.463394
v 1.459642 1.687376 4.462222
v 1.463814 1.686170 4.460650
v 1.466081 1.685845 4.459645
v 1.466722 1.685402 4.459521
v 1.466333 1.684328 4.460213
v 1.465662 1.683880 4.460761
v 1.464693 1.683730 4.461323
v 1.462374 1.683794 4.462475
v 1.463414 1.682211 4.462672
v 1.464869 1.682026 4.462016
v 1.466384 1.682431 4.461058
v 1.467596 1.682611 4.460358
v 1.469234 1.681355 4.460100
v 1.470224 1.680772 4.459863
v 1.470609 1.681039 4.459545
v 1.470927 1.682213 4.458843
v 1.470684 1.682833 4.458682
v 1.468795 1.683329 4.459417
v 1.468146 1.683862 4.459503
v 1.467765 1.684625 4.459347
v 1.467811 1.685484 4.458929
v 1.468393 1.686011 4.458391
v 1.469349 1.685939 4.457936
v 1.471565 1.685439 4.457037
v 1.475099 1.685310 4.455296
v 1.476091 1.682922 4.455886
v 1.476553 1.681389 4.456355
v 1.476614 1.680018 4.456954
v 1.476714 1.677755 4.457942
v 1.477307 1.675790 4.458542
v 1.480223 1.670349 4.459555
v 1.481928 1.663596 4.461786
v 1.482264 1.659767 4.463373
v 1.481504 1.657826 4.464651
v 1.481089 1.657350 4.465082
v 1.480291 1.654774 4.466671
v 1.479555 1.654194 4.467312
v 1.477422 1.653024 4.468936
v 1.476928 1.652506 4.469425
v 1.477521 1.650793 4.469910
v 1.479219 1.648719 4.469997
v 1.479606 1.648359 4.469965
v 1.482651 1.645541 4.469707
v 1.488372 1.642792 4.468055
v 1.489488 1.642255 4.467733
v 1.489612 1.637190 4.469996
v 1.489323 1.635747 4.470805
v 1.488407 1.634289 4.471941
v 1.485747 1.632463 4.474135
v 1.484584 1.631431 4.475202
v 1.482411 1.628193 4.477796
v 1.479174 1.624542 4.481122
v 1.478148 1.623953 4.481914
v 1.474003 1.623078 4.484428
v 1.472673 1.622228 4.485497
v 1.473062 1.620771 4.485967
v 1.474520 1.620914 4.485158
v 1.476512 1.621475 4.483886
v 1.478461 1.621308 4.482969
v 1.479282 1.620681 4.482839
v 1.480697 1.618251 4.483234
v 1.481540 1.617356 4.483215
v 1.483613 1.615589 4.482970
v 1.484311 1.614795 4.482979
v 1.484926 1.613221 4.483389
v 1.485343 1.609836 4.484731
v 1.486339 1.606519 4.485745
v 1.486365 1.604967 4.486445
v 1.486102 1.603458 4.487272
v 1.485671 1.602089 4.488121
v 1.484821 1.600614 4.489231
v 1.483744 1.599785 4.490160
v 1.481644 1.598634 4.491759
v 1.481108 1.598336 4.492168
v 1.479897 1.597107 4.493350
v 1.478467 1.594481 4.495284
v 1.477502 1.593465 4.496243
v 1.474420 1.592668 4.498178
v 1.468170 1.594188 4.500666
v 1.465211 1.593799 4.502352
v 1.463921 1.592900 4.503422
v 1.464775 1.591519 4.503621
v 1.472845 1.583804 4.503052
v 1.473448 1.582992 4.503117
v 1.473771 1.581761 4.503517
v 1.473379 1.581355 4.503904
v 1.472801 1.581072 4.504329
v 1.472580 1.580206 4.504838
v 1.473218 1.578672 4.505218
v 1.474501 1.577938 4.504901
v 1.477765 1.576923 4.503704
v 1.478512 1.576293 4.503613
v 1.479926 1.574461 4.503734
v 1.480661 1.573683 4.503716
v 1.483952 1.571482 4.503050
v 1.488539 1.569542 4.501604
v 1.489788 1.568717 4.501346
v 1.490608 1.568020 4.501248
v 1.489982 1.566291 4.502361
v 1.486816 1.560679 4.506551
v 1.486304 1.559231 4.507476
v 1.486221 1.557676 4.508233
v 1.486418 1.556904 4.508487
v 1.487512 1.554531 4.509019
v 1.487794 1.553616 4.509296
v 1.487859 1.552295 4.509869
v 1.488257 1.549963 4.510737
v 1.488084 1.548614 4.511445
v 1.487327 1.546307 4.512889
v 1.485907 1.547282 4.513165
v 1.479551 1.554730 4.512984
v 1.476867 1.557055 4.513284
v 1.473854 1.558999 4.513927
vn 0.1522 0.2307 0.9611
vn 0.1445 0.3793 0.9139
vn 0.1448 0.3787 0.9141
vn 0.4197 0.3785 0.8250
vn 0.1522 0.2307 0.9610
vn 0.1531 0.2315 0.9607
vn 0.1522 0.2305 0.9611
vn 0.1505 0.2307 0.9613
vn 0.1522 0.2306 0.9611
vn 0.1520 0.2308 0.9611
vn 0.1517 0.2304 0.9612
vn 0.1521 0.2310 0.9610
vn 0.1521 0.2307 0.9611
vn 0.1524 0.2308 0.9610
vn 0.1523 0.2307 0.9610
vn 0.1531 0.2311 0.9608
vn 0.1522 0.2308 0.9610
vn 0.1530 0.2308 0.9609
vn 0.1525 0.2308 0.9610
vn 0.1447 0.3789 0.9141
vn 0.1450 0.3787 0.9141
vn 0.1448 0.3786 0.9141
vn 0.1448 0.3788 0.9141
vn 0.1467 0.3784 0.9139
vn 0.1448 0.3786 0.9142
vn 0.1440 0.3788 0.9142
vn 0.1449 0.3783 0.9143
vn 0.1449 0.3791 0.9139
vn 0.1456 0.3785 0.9141
vn 0.1448 0.3785 0.9142
vn 0.1451 0.3793 0.9138
vn 0.1445 0.3781 0.9144
vn 0.1444 0.3788 0.9141
vn 0.1447 0.3785 0.9142
vn 0.1450 0.3785 0.9142
vn 0.1450 0.3784 0.9142
vn 0.1449 0.3787 0.9141
vn 0.1451 0.3786 0.9141
vn 0.1447 0.3788 0.9141
vn 0.1449 0.3784 0.9142
vn 0.1451 0.3788 0.9140
vn 0.1445 0.3782 0.9144
vn 0.1449 0.3790 0.9140
vn 0.4202 0.3786 0.8247
vn 0.4198 0.3788 0.8248
vn 0.4204 0.3787 0.8245
vn 0.4241 0.3779 0.8230
vn 0.4202 0.3786 0.8246
vn 0.4202 0.3787 0.8246
vn 0.4201 0.3787 0.8247
vn 0.4202 0.3785 0.8247
vn 0.4203 0.3786 0.8246
vn 0.4200 0.3787 0.8247
vn 0.4198 0.3787 0.8249
vn 0.4206 0.3783 0.8246
vn 0.4202 0.3787 0.8247
vn 0.4194 0.3786 0.8251
vn 0.4199 0.3786 0.8249
vn 0.4203 0.3787 0.8246
vn 0.4205 0.3786 0.8245
vn 0.4200 0.3788 0.8247
vn 0.4216 0.3785 0.8240
vn 0.4197 0.3787 0.8249
vn 0.4197 0.3790 0.8247
vn 0.4202 0.3788 0.8246
vn 0.4199 0.3787 0.8248
vn 0.4195 0.3787 0.8250
vn 0.4206 0.3792 0.8242
vn 0.4199 0.3788 0.8247
vn 0.4199 0.3785 0.8249
vn 0.4201 0.3788 0.8246
vn 0.4201 0.3788 0.8247
vn 0.4209 0.3785 0.8244
vn 0.4196 0.3789 0.8249
vn 0.4208 0.3790 0.8242
vn 0.4197 0.3786 0.8250
vn 0.4207 0.3782 0.8246
vn 0.4202 0.3789 0.8245
vn 0.4209 0.3780 0.8246
vn 0.4203 0.3788 0.8246
vn 0.4194 0.3788 0.8250
vn 0.4204 0.3786 0.8246
vn 0.4193 0.3788 0.8250
vn 0.4201 0.3786 0.8247
vn 0.4210 0.3787 0.8242
vn 0.4203 0.3785 0.8247
vn 0.4194 0.3791 0.8248
vn 0.4204 0.3785 0.8246
vn 0.4208 0.3785 0.8244
vn 0.4212 0.3782 0.8243
vn 0.4200 0.3784 0.8249
vn 0.4205 0.3787 0.8245
vn 0.4188 0.3788 0.8253
vn 0.4204 0.3771 0.8253
vn 0.4195 0.3788 0.8250
vn 0.4191 0.3786 0.8252
vn 0.4210 0.3786 0.8242
vn 0.4206 0.3784 0.8246
vn 0.4187 0.3788 0.8253
vn 0.4218 0.3784 0.8239
vn 0.4206 0.3786 0.8245
vn 0.4201 0.3790 0.8245
vn 0.4204 0.3788 0.8245
vn 0.4203 0.3786 0.8247
usemtl None
s off
f 68//46 78//46 74//46
f 113//47 112//47 111//47
f 92//48 87//48 84//48
f 177//49 176//49 181//49
f 64//50 63//50 83//50
f 82//51 81//51 80//51
f 64//52 83//52 67//52
f 83//53 82//53 79//53
f 67//54 83//54 79//54
f 82//55 80//55 79//55
f 78//56 77//56 76//56
f 78//50 76//50 75//50
f 67//57 79//57 68//57
f 79//58 78//58 68//58
f 70//59 69//59 73//59
f 69//60 68//60 74//60
f 78//61 75//61 74//61
f 74//62 73//62 69//62
f 73//63 72//63 71//63
f 70//64 73//64 71//64
f 63//65 64//65 107//65
f 64//66 106//66 103//66
f 107//67 64//67 103//67
f 106//68 105//68 104//68
f 106//69 104//69 103//69
f 108//70 107//70 103//70
f 111//71 110//71 113//71
f 110//72 109//72 113//72
f 109//73 108//73 103//73
f 102//74 101//74 100//74
f 109//75 103//75 113//75
f 103//76 102//76 100//76
f 100//77 98//77 103//77
f 98//75 113//75 103//75
f 99//78 98//78 93//78
f 98//79 97//79 93//79
f 97//68 96//68 94//68
f 96//80 95//80 94//80
f 94//81 93//81 97//81
f 92//82 91//82 88//82
f 91//83 90//83 88//83
f 90//84 89//84 88//84
f 99//85 93//85 92//85
f 86//75 85//75 87//75
f 85//86 84//86 87//86
f 92//87 88//87 87//87
f 84//88 99//88 92//88
f 231//89 230//89 226//89
f 230//89 229//89 228//89
f 226//90 230//90 227//90
f 228//91 227//91 230//91
f 226//92 225//92 224//92
f 226//93 224//93 231//93
f 224//94 223//94 231//94
f 232//95 231//95 222//95
f 231//96 223//96 222//96
f 233//95 232//95 220//95
f 232//97 222//97 221//97
f 232//95 221//95 220//95
f 114//98 65//98 175//98
f 65//99 66//99 201//99
f 115//100 114//100 159//100
f 65//89 201//89 175//89
f 66//89 233//89 210//89
f 220//101 219//101 215//101
f 219//98 218//98 217//98
f 215//96 219//96 216//96
f 233//89 220//89 215//89
f 118//102 117//102 119//102
f 117//103 116//103 119//103
f 121//104 120//104 128//104
f 120//97 119//97 128//97
f 233//97 215//97 214//97
f 217//105 216//105 219//105
f 119//95 116//95 128//95
f 124//105 123//105 125//105
f 123//106 122//106 126//106
f 125//107 123//107 126//107
f 122//97 121//97 128//97
f 233//108 214//108 213//108
f 116//109 115//109 129//109
f 128//110 116//110 129//110
f 127//97 126//97 122//97
f 128//111 127//111 122//111
f 233//89 213//89 210//89
f 213//112 212//112 210//112
f 212//113 211//113 210//113
f 66//114 210//114 209//114
f 132//101 131//101 133//101
f 131//115 130//115 133//115
f 133//116 130//116 134//116
f 130//89 129//89 158//89
f 134//117 130//117 151//117
f 158//118 129//118 159//118
f 66//97 209//97 208//97
f 207//119 206//119 204//119
f 206//120 205//120 204//120
f 66//101 208//101 202//101
f 208//121 207//121 202//121
f 139//117 138//117 143//117
f 138//104 137//104 143//104
f 141//122 140//122 143//122
f 140//123 139//123 143//123
f 143//124 142//124 141//124
f 146//110 145//110 144//110
f 144//104 143//104 137//104
f 147//96 146//96 136//96
f 146//89 144//89 136//89
f 148//125 147//125 136//125
f 144//126 137//126 136//126
f 149//94 148//94 135//94
f 148//94 136//94 135//94
f 152//127 151//127 158//127
f 151//93 150//93 134//93
f 158//89 151//89 130//89
f 150//104 149//104 134//104
f 149//115 135//115 134//115
f 153//128 152//128 155//128
f 155//129 152//129 158//129
f 155//130 154//130 153//130
f 157//131 156//131 155//131
f 158//132 157//132 155//132
f 204//133 203//133 207//133
f 203//127 202//127 207//127
f 129//101 115//101 159//101
f 66//110 202//110 201//110
f 160//134 159//134 175//134
f 175//101 159//101 114//101
f 201//105 200//105 176//105
f 175//135 201//135 176//135
f 199//94 198//94 195//94
f 198//136 197//136 196//136
f 161//106 160//106 174//106
f 198//131 196//131 195//131
f 165//137 164//137 166//137
f 164//95 163//95 166//95
f 166//89 163//89 168//89
f 167//138 166//138 168//138
f 169//89 168//89 163//89
f 172//97 171//97 174//97
f 171//127 170//127 162//127
f 172//139 174//139 173//139
f 170//94 169//94 163//94
f 163//89 162//89 170//89
f 174//95 171//95 161//95
f 200//98 199//98 176//98
f 199//101 195//101 176//101
f 195//97 194//97 176//97
f 162//140 161//140 171//140
f 175//105 174//105 160//105
f 194//141 193//141 186//141
f 176//101 194//101 186//101
f 193//93 192//93 186//93
f 192//142 191//142 190//142
f 189//143 192//143 190//143
f 189//144 188//144 186//144
f 188//145 187//145 186//145
f 186//146 185//146 182//146
f 185//134 184//134 183//134
f 182//147 185//147 183//147
f 192//127 189//127 186//127
f 176//148 182//148 181//148
f 181//106 180//106 178//106
f 180//49 179//49 178//49
f 186//95 182//95 176//95
f 181//149 178//149 177//149
o 4_Haiti_sphere.001
v 1.387809 1.710635 4.466912
v 1.400648 1.706475 4.466601
v 1.405926 1.703638 4.466940
v 1.404857 1.700566 4.468382
v 1.402782 1.701274 4.468417
v 1.391842 1.702045 4.469831
v 1.386360 1.703700 4.470014
v 1.379460 1.704764 4.470665
v 1.376980 1.705644 4.470694
v 1.375368 1.705277 4.471101
v 1.373722 1.704607 4.471640
v 1.372175 1.704278 4.472021
v 1.369002 1.704690 4.472353
v 1.365158 1.705624 4.472575
v 1.361523 1.707012 4.472576
v 1.359035 1.708744 4.472252
v 1.359727 1.708763 4.472135
v 1.360134 1.708970 4.471985
v 1.360941 1.709715 4.471548
v 1.367743 1.712062 4.469499
v 1.375099 1.713198 4.467863
v 1.379223 1.713483 4.467092
v 1.381986 1.713197 4.466773
v 1.384503 1.712268 4.466759
vn 0.1443 0.3787 0.9142
vn 0.1445 0.3786 0.9142
vn 0.1448 0.3786 0.9142
vn 0.1451 0.3786 0.9141
vn 0.1446 0.3786 0.9142
vn 0.1450 0.3786 0.9141
vn 0.1446 0.3787 0.9142
vn 0.1450 0.3787 0.9141
vn 0.1447 0.3786 0.9142
vn 0.1446 0.3787 0.9141
vn 0.1448 0.3786 0.9141
vn 0.1456 0.3786 0.9141
vn 0.1463 0.3784 0.9140
vn 0.1429 0.3781 0.9147
usemtl None
s off
f 244//150 243//150 254//150
f 236//151 235//151 238//151
f 235//152 234//152 239//152
f 236//153 238//153 237//153
f 234//154 257//154 240//154
f 257//155 256//155 241//155
f 256//156 255//156 241//156
f 255//156 254//156 242//156
f 254//157 253//157 244//157
f 253//158 252//158 247//158
f 247//153 252//153 248//153
f 252//159 251//159 248//159
f 257//152 241//152 240//152
f 255//160 242//160 241//160
f 242//161 254//161 243//161
f 238//152 235//152 239//152
f 240//152 239//152 234//152
f 246//155 253//155 247//155
f 250//162 249//162 248//162
f 253//151 246//151 245//151
f 251//163 250//163 248//163
f 245//150 244//150 253//150
