# Blender v2.81 (sub 16) OBJ File: ''
# www.blender.org
mtllib Heard Island and McDonald Islands.mtl
o 0_Heard_Island_and_McDonald_Islands_sphere.001
v 0.832946 -3.988091 -2.873732
v 0.830769 -3.988491 -2.873608
v 0.828661 -3.988492 -2.873940
v 0.826936 -3.988213 -2.874540
v 0.837603 -3.991194 -2.869361
v 0.840594 -3.994034 -2.865562
v 0.842469 -3.994749 -2.864427
v 0.847547 -3.995420 -2.862839
v 0.850001 -3.995295 -2.862595
v 0.852714 -3.994209 -2.863437
v 0.853596 -3.993641 -2.863963
v 0.856094 -3.991762 -2.865767
v 0.859699 -3.988141 -2.869436
v 0.860624 -3.986954 -2.870679
v 0.860393 -3.986119 -2.871693
v 0.861348 -3.985727 -2.872001
v 0.861989 -3.985199 -2.872518
v 0.862138 -3.984606 -2.873189
v 0.861627 -3.984003 -2.873976
v 0.863208 -3.983476 -2.874342
v 0.864412 -3.983238 -2.874430
v 0.868428 -3.983302 -2.873719
v 0.869785 -3.982879 -2.873999
v 0.870963 -3.981939 -2.874913
v 0.871941 -3.980384 -2.876579
v 0.869897 -3.979644 -2.877769
v 0.868431 -3.978379 -2.879483
v 0.865427 -3.980024 -2.878032
v 0.864968 -3.980064 -2.878058
v 0.864150 -3.980878 -2.877235
v 0.862650 -3.981793 -2.876401
v 0.861298 -3.982320 -2.875998
v 0.860887 -3.981965 -2.876479
v 0.861024 -3.980713 -2.877923
v 0.860489 -3.980099 -2.878727
v 0.859501 -3.980168 -2.878802
v 0.858257 -3.980921 -2.878118
v 0.859045 -3.981501 -2.877314
v 0.857706 -3.982706 -2.876115
v 0.856124 -3.982805 -2.876249
v 0.854659 -3.982147 -2.877252
v 0.853726 -3.981053 -2.878681
v 0.852152 -3.981420 -2.878501
v 0.848015 -3.981203 -2.879410
v 0.846044 -3.981888 -2.878920
v 0.845060 -3.982404 -2.878472
v 0.843255 -3.982749 -2.878353
v 0.842280 -3.983050 -2.878156
v 0.841553 -3.983549 -2.877687
v 0.839973 -3.984877 -2.876382
v 0.839312 -3.985121 -2.876202
v 0.836939 -3.986521 -2.874938
v 0.835899 -3.987328 -2.874157
vn 0.1018 -0.7561 -0.6465
vn 0.1023 -0.7564 -0.6461
vn 0.1023 -0.7567 -0.6457
vn 0.1027 -0.7560 -0.6465
vn 0.1022 -0.7564 -0.6460
vn 0.1021 -0.7566 -0.6459
vn 0.1024 -0.7569 -0.6455
vn 0.1023 -0.7564 -0.6460
vn 0.1025 -0.7565 -0.6459
vn 0.1023 -0.7563 -0.6462
vn 0.1024 -0.7564 -0.6460
vn 0.1024 -0.7562 -0.6462
vn 0.1024 -0.7561 -0.6463
vn 0.1024 -0.7565 -0.6459
vn 0.1022 -0.7563 -0.6461
vn 0.1022 -0.7564 -0.6461
vn 0.1019 -0.7567 -0.6457
vn 0.1023 -0.7563 -0.6461
vn 0.1026 -0.7569 -0.6454
vn 0.1023 -0.7565 -0.6460
vn 0.1026 -0.7564 -0.6460
vn 0.1026 -0.7566 -0.6458
vn 0.1026 -0.7563 -0.6462
vn 0.1026 -0.7565 -0.6459
vn 0.1023 -0.7565 -0.6459
vn 0.1025 -0.7563 -0.6461
vn 0.1025 -0.7564 -0.6461
usemtl None
s off
f 30//1 29//1 28//1
f 53//2 52//2 5//2
f 52//2 51//2 5//2
f 50//3 49//3 46//3
f 49//4 48//4 47//4
f 51//5 50//5 5//5
f 49//6 47//6 46//6
f 46//7 45//7 43//7
f 45//2 44//2 43//2
f 50//8 46//8 7//8
f 12//8 46//8 41//8
f 43//9 42//9 41//9
f 43//10 41//10 46//10
f 41//11 40//11 12//11
f 46//8 12//8 7//8
f 5//11 50//11 6//11
f 40//12 39//12 15//12
f 1//8 53//8 5//8
f 38//10 37//10 36//10
f 38//2 36//2 34//2
f 36//13 35//13 34//13
f 34//14 33//14 38//14
f 39//8 38//8 33//8
f 39//15 33//15 32//15
f 39//16 32//16 19//16
f 5//17 4//17 3//17
f 7//11 6//11 50//11
f 9//18 8//18 10//18
f 8//10 7//10 11//10
f 11//19 10//19 8//19
f 13//11 12//11 40//11
f 12//11 11//11 7//11
f 13//20 40//20 15//20
f 15//21 14//21 13//21
f 17//11 16//11 19//11
f 16//22 15//22 19//22
f 19//23 18//23 17//23
f 5//12 3//12 2//12
f 19//5 15//5 39//5
f 5//18 2//18 1//18
f 20//24 19//24 32//24
f 23//5 22//5 26//5
f 22//25 21//25 30//25
f 28//20 22//20 30//20
f 24//25 23//25 26//25
f 22//8 28//8 26//8
f 21//26 20//26 31//26
f 20//16 32//16 31//16
f 25//11 24//11 26//11
f 28//11 27//11 26//11
f 21//27 31//27 30//27
