# Blender v2.81 (sub 16) OBJ File: ''
# www.blender.org
mtllib Indian Ocean Territories.mtl
o 0_Indian_Ocean_Territories_sphere.001
v -0.583544 -1.046820 -4.782483
v -0.577879 -1.049468 -4.782745
v -0.573259 -1.047533 -4.783941
v -0.572032 -1.046057 -4.784490
v -0.571571 -1.043491 -4.785179
v -0.577056 -1.043144 -4.784393
v -0.581380 -1.040853 -4.784259
v -0.584132 -1.036736 -4.784811
v -0.585061 -1.031119 -4.786013
v -0.587242 -1.036706 -4.784326
v -0.586666 -1.042221 -4.783093
vn -0.1522 -0.2308 -0.9610
vn -0.1519 -0.2307 -0.9611
vn -0.1521 -0.2308 -0.9610
vn -0.1524 -0.2307 -0.9610
vn -0.1520 -0.2308 -0.9611
vn -0.1520 -0.2307 -0.9611
vn -0.1523 -0.2307 -0.9610
vn -0.1521 -0.2308 -0.9611
vn -0.1521 -0.2307 -0.9611
usemtl None
s off
f 7//1 6//1 1//1
f 10//2 9//2 8//2
f 10//3 8//3 11//3
f 8//4 7//4 11//4
f 1//5 11//5 7//5
f 3//6 2//6 6//6
f 2//7 1//7 6//7
f 5//8 4//8 6//8
f 4//9 3//9 6//9
o 1_Indian_Ocean_Territories_sphere.001
v -0.569899 -1.048399 -4.784266
v -0.575237 -1.050824 -4.782837
v -0.582635 -1.048197 -4.782297
v -0.585542 -1.051149 -4.781127
v -0.573942 -1.055840 -4.781839
v -0.567293 -1.047404 -4.784917
v -0.564362 -1.033733 -4.788664
v -0.563846 -1.022288 -4.791493
v -0.567025 -1.022240 -4.791001
v -0.566886 -1.026818 -4.789924
v -0.567454 -1.030636 -4.788918
v -0.569741 -1.038213 -4.786736
v -0.567757 -1.043388 -4.785808
vn -0.1524 -0.2306 -0.9610
vn -0.1521 -0.2308 -0.9610
vn -0.1522 -0.2306 -0.9611
vn -0.1522 -0.2307 -0.9610
vn -0.1530 -0.2306 -0.9609
vn -0.1524 -0.2308 -0.9610
vn -0.1522 -0.2308 -0.9610
vn -0.1523 -0.2307 -0.9610
vn -0.1521 -0.2307 -0.9611
vn -0.1519 -0.2306 -0.9611
vn -0.1524 -0.2307 -0.9610
usemtl None
s off
f 17//10 12//10 24//10
f 15//11 14//11 13//11
f 16//12 15//12 13//12
f 19//13 18//13 21//13
f 18//14 17//14 24//14
f 22//15 18//15 23//15
f 21//16 20//16 19//16
f 24//17 23//17 18//17
f 22//18 21//18 18//18
f 17//19 16//19 12//19
f 16//20 13//20 12//20
o 2_Indian_Ocean_Territories_sphere.001
v -1.334177 -0.897134 -4.699532
v -1.332505 -0.903740 -4.698210
v -1.332237 -0.909290 -4.696920
v -1.329765 -0.913413 -4.696322
v -1.329947 -0.920356 -4.694626
v -1.328321 -0.923686 -4.694084
v -1.323863 -0.924123 -4.694685
v -1.322670 -0.919215 -4.696053
v -1.321160 -0.914651 -4.697388
v -1.320515 -0.910381 -4.698515
v -1.316371 -0.908792 -4.699552
v -1.310285 -0.907508 -4.700825
v -1.303276 -0.907724 -4.701883
v -1.296907 -0.909558 -4.702452
v -1.296205 -0.906061 -4.703402
v -1.299643 -0.904224 -4.703299
v -1.302321 -0.899000 -4.704129
v -1.301008 -0.894900 -4.705321
v -1.301310 -0.891218 -4.706157
v -1.305115 -0.892671 -4.705206
v -1.310795 -0.895932 -4.703523
v -1.318668 -0.896521 -4.702135
v -1.323015 -0.892895 -4.702317
v -1.327608 -0.888790 -4.702575
v -1.332754 -0.886545 -4.702299
v -1.335432 -0.888404 -4.701428
v -1.334734 -0.892040 -4.700666
vn -0.1523 -0.2307 -0.9610
vn -0.1525 -0.2308 -0.9610
vn -0.1522 -0.2308 -0.9610
vn -0.1521 -0.2307 -0.9611
vn -0.1524 -0.2307 -0.9610
vn -0.1523 -0.2308 -0.9610
vn -0.1522 -0.2307 -0.9610
vn -0.1522 -0.2307 -0.9611
vn -0.1522 -0.2306 -0.9611
vn -0.1525 -0.2307 -0.9610
vn -0.1520 -0.2307 -0.9611
usemtl None
s off
f 37//21 36//21 41//21
f 50//22 49//22 51//22
f 49//23 48//23 51//23
f 48//24 47//24 25//24
f 51//25 48//25 25//25
f 26//26 25//26 47//26
f 26//27 47//27 46//27
f 28//27 27//27 34//27
f 27//28 26//28 34//28
f 45//24 44//24 41//24
f 44//27 43//27 42//27
f 26//27 46//27 34//27
f 46//27 45//27 36//27
f 35//23 46//23 36//23
f 30//29 29//29 32//29
f 29//26 28//26 32//26
f 46//21 35//21 34//21
f 44//30 42//30 41//30
f 31//24 30//24 32//24
f 34//21 33//21 28//21
f 33//26 32//26 28//26
f 45//24 41//24 36//24
f 40//29 39//29 38//29
f 40//24 38//24 37//24
f 40//31 37//31 41//31
