# Blender v2.81 (sub 16) OBJ File: ''
# www.blender.org
mtllib Israel.mtl
o 0_Israel_sphere.001
v 3.376700 2.739815 -2.438679
v 3.378332 2.736233 -2.440251
v 3.377988 2.735356 -2.442094
v 3.378969 2.733145 -2.443118
v 3.380100 2.731620 -2.442930
v 3.381044 2.730471 -2.442611
v 3.381612 2.729328 -2.443020
v 3.380800 2.728360 -2.445903
v 3.381413 2.727335 -2.446067
v 3.384575 2.720016 -2.449619
v 3.384855 2.719061 -2.450343
v 3.385272 2.716577 -2.452836
v 3.386633 2.714803 -2.452530
v 3.388503 2.712713 -2.451647
v 3.390058 2.710380 -2.451704
v 3.390401 2.709425 -2.452305
v 3.391649 2.707430 -2.452516
v 3.395352 2.703448 -2.450557
v 3.397605 2.700770 -2.449705
v 3.398380 2.700435 -2.448632
v 3.401491 2.698028 -2.445734
v 3.403662 2.695994 -2.444184
v 3.404517 2.695405 -2.443291
v 3.405285 2.695535 -2.441612
v 3.406389 2.694619 -2.440667
v 3.407598 2.693254 -2.440114
v 3.408183 2.692713 -2.439687
v 3.408543 2.692489 -2.439279
v 3.409089 2.691582 -2.439415
v 3.409221 2.691028 -2.439894
v 3.409081 2.690714 -2.440588
v 3.409575 2.690212 -2.440287
v 3.409864 2.689625 -2.440503
v 3.410006 2.688936 -2.441144
v 3.410899 2.686920 -2.442080
v 3.411177 2.685961 -2.442811
v 3.411539 2.685529 -2.442678
v 3.412264 2.684798 -2.442230
v 3.412223 2.685321 -2.441613
v 3.412915 2.683689 -2.442429
v 3.413064 2.683192 -2.442801
v 3.413562 2.683155 -2.441872
v 3.413829 2.682620 -2.442063
v 3.413470 2.682672 -2.442697
v 3.413554 2.681994 -2.443436
v 3.413621 2.681044 -2.444571
v 3.414284 2.680349 -2.444195
v 3.414712 2.679918 -2.443931
v 3.415115 2.679368 -2.443875
v 3.415445 2.678840 -2.443928
v 3.415386 2.678530 -2.444458
v 3.415204 2.678387 -2.445006
v 3.415495 2.677805 -2.445211
v 3.415869 2.677498 -2.444886
v 3.416221 2.677273 -2.444494
v 3.416259 2.676757 -2.445109
v 3.417055 2.676127 -2.444386
v 3.417046 2.675620 -2.445081
v 3.417564 2.675103 -2.444752
v 3.417544 2.674706 -2.445321
v 3.417927 2.674167 -2.445289
v 3.418352 2.674009 -2.444663
v 3.418619 2.673151 -2.445285
v 3.418651 2.672576 -2.445987
v 3.421045 2.673245 -2.440398
v 3.421711 2.673583 -2.438639
v 3.422571 2.673565 -2.436976
v 3.423284 2.673998 -2.435000
v 3.422495 2.675976 -2.433911
v 3.421259 2.678428 -2.433067
v 3.420662 2.680259 -2.431797
v 3.421157 2.681409 -2.429293
v 3.422148 2.681565 -2.427141
v 3.424599 2.681179 -2.422844
v 3.425066 2.681564 -2.421415
v 3.425342 2.683073 -2.418861
v 3.425606 2.683509 -2.417762
v 3.426348 2.683445 -2.416391
v 3.427232 2.682690 -2.415663
v 3.429158 2.680650 -2.414602
v 3.430988 2.679247 -2.412882
v 3.432605 2.678197 -2.411108
v 3.434242 2.676841 -2.409702
v 3.436149 2.674465 -2.409128
v 3.438682 2.670281 -2.409735
v 3.439518 2.668902 -2.409933
v 3.440617 2.667236 -2.409997
v 3.441531 2.666660 -2.408971
v 3.442440 2.665431 -2.408825
v 3.443842 2.662892 -2.409459
v 3.444488 2.661829 -2.409609
v 3.444140 2.661606 -2.410587
v 3.444171 2.661034 -2.411290
v 3.444530 2.660189 -2.411711
v 3.445181 2.659152 -2.411816
v 3.445958 2.658135 -2.411647
v 3.448677 2.655565 -2.409737
v 3.449785 2.654336 -2.409202
v 3.450244 2.653557 -2.409338
v 3.450867 2.651126 -2.411358
v 3.451350 2.649792 -2.412188
v 3.454666 2.642249 -2.415736
v 3.455399 2.640751 -2.416295
v 3.456361 2.638959 -2.416795
v 3.456619 2.638237 -2.417253
v 3.456947 2.637667 -2.417367
v 3.458323 2.635238 -2.417905
v 3.459126 2.632175 -2.420415
v 3.460014 2.629527 -2.422202
v 3.461610 2.628359 -2.420626
v 3.463006 2.627583 -2.418921
v 3.463782 2.626469 -2.418884
v 3.464343 2.624794 -2.420014
v 3.463253 2.624536 -2.422499
v 3.462643 2.624596 -2.423617
v 3.461716 2.625195 -2.424636
v 3.460371 2.626575 -2.425436
v 3.459917 2.626931 -2.425853
v 3.459441 2.626837 -2.426913
v 3.458264 2.625349 -2.431205
v 3.456125 2.624538 -2.436486
v 3.455822 2.623899 -2.437931
v 3.456017 2.622938 -2.438831
v 3.456610 2.621615 -2.439430
v 3.457526 2.619889 -2.439934
v 3.457901 2.619414 -2.439830
v 3.458240 2.619445 -2.439124
v 3.458279 2.619787 -2.438591
v 3.461140 2.618591 -2.434571
v 3.462212 2.617846 -2.433461
v 3.463406 2.616769 -2.432552
v 3.465998 2.614162 -2.430942
v 3.471255 2.609606 -2.426698
v 3.472726 2.608024 -2.425920
v 3.474646 2.605526 -2.425482
v 3.475917 2.603317 -2.425933
v 3.477069 2.601054 -2.426690
v 3.478610 2.598397 -2.427207
v 3.483019 2.592951 -2.425814
v 3.484966 2.590167 -2.425706
v 3.485860 2.587509 -2.427493
v 3.485552 2.586468 -2.429487
v 3.484636 2.586322 -2.431477
v 3.483384 2.586777 -2.433330
v 3.482064 2.587521 -2.434928
v 3.479392 2.588421 -2.438972
v 3.474477 2.589034 -2.447802
v 3.471415 2.590865 -2.451369
v 3.464029 2.597672 -2.456791
v 3.460653 2.600236 -2.459998
v 3.457823 2.600979 -2.464562
v 3.460176 2.596329 -2.466143
v 3.460578 2.595536 -2.466410
v 3.461633 2.593712 -2.466773
v 3.463922 2.590414 -2.466677
v 3.465789 2.588022 -2.466202
v 3.465788 2.587485 -2.466918
v 3.466707 2.585762 -2.467413
v 3.468092 2.584007 -2.467034
v 3.469546 2.582002 -2.466854
v 3.470416 2.579855 -2.468007
v 3.471063 2.577869 -2.469387
v 3.471446 2.576326 -2.470691
v 3.471848 2.574435 -2.472424
v 3.472655 2.572308 -2.473676
v 3.473972 2.570015 -2.474148
v 3.478987 2.563378 -2.473154
v 3.480401 2.561010 -2.473536
v 3.481647 2.558512 -2.474421
v 3.482806 2.557000 -2.474162
v 3.484772 2.555034 -2.472923
v 3.485662 2.554147 -2.472361
v 3.487071 2.552259 -2.472112
v 3.488075 2.550440 -2.472567
v 3.488947 2.548659 -2.473228
v 3.489958 2.546880 -2.473617
v 3.490574 2.546077 -2.473479
v 3.491775 2.544920 -2.472665
v 3.492399 2.544239 -2.472347
v 3.493147 2.543228 -2.472227
v 3.493732 2.542306 -2.472307
v 3.494925 2.540258 -2.472698
v 3.496176 2.538317 -2.472828
v 3.502642 2.529699 -2.471630
v 3.509272 2.519626 -2.472045
v 3.510418 2.517690 -2.472378
v 3.512749 2.514317 -2.472301
v 3.513703 2.512409 -2.472971
v 3.513908 2.511629 -2.473608
v 3.514123 2.510130 -2.475185
v 3.514572 2.509026 -2.475777
v 3.515213 2.507903 -2.476015
v 3.515862 2.507009 -2.475935
v 3.516552 2.506133 -2.475747
v 3.517293 2.505093 -2.475679
v 3.519750 2.500879 -2.476475
v 3.520728 2.499454 -2.476457
v 3.521878 2.497184 -2.477225
v 3.523454 2.492507 -2.480366
v 3.524702 2.490014 -2.481242
v 3.526702 2.487214 -2.481049
v 3.530686 2.482433 -2.479605
v 3.532734 2.479206 -2.479887
v 3.533235 2.478254 -2.480172
v 3.533741 2.477519 -2.480160
v 3.534255 2.476865 -2.480023
v 3.534763 2.476141 -2.479991
v 3.536409 2.473397 -2.480419
v 3.538849 2.468586 -2.482043
v 3.539828 2.466946 -2.482310
v 3.546085 2.457906 -2.482082
v 3.547380 2.455873 -2.482249
v 3.549813 2.451408 -2.483428
v 3.551199 2.449352 -2.483449
v 3.552504 2.447741 -2.483037
v 3.553663 2.445956 -2.483140
v 3.554916 2.443774 -2.483590
v 3.555618 2.442690 -2.483657
v 3.556233 2.441932 -2.483462
v 3.557706 2.440288 -2.482761
v 3.558464 2.439371 -2.482496
v 3.558918 2.438769 -2.482408
v 3.559528 2.437917 -2.482347
v 3.559874 2.437819 -2.481798
v 3.560236 2.437792 -2.481124
v 3.560366 2.438720 -2.479633
v 3.559720 2.441744 -2.476869
v 3.559082 2.443555 -2.475706
v 3.556271 2.449026 -2.473929
v 3.553297 2.456920 -2.469242
v 3.551235 2.464016 -2.463827
v 3.548938 2.471944 -2.457767
v 3.547035 2.476226 -2.455793
v 3.546554 2.477198 -2.455442
v 3.546284 2.478077 -2.454798
v 3.544064 2.485467 -2.449305
v 3.540622 2.496840 -2.440897
v 3.538693 2.503228 -2.436164
v 3.538576 2.504305 -2.434960
v 3.539203 2.507234 -2.429824
v 3.539116 2.507945 -2.429047
v 3.538738 2.508862 -2.428567
v 3.537953 2.510296 -2.428195
v 3.536339 2.512787 -2.428043
v 3.535774 2.513897 -2.427670
v 3.535689 2.514823 -2.426602
v 3.535591 2.516239 -2.424908
v 3.535150 2.517575 -2.423993
v 3.533557 2.520916 -2.422664
v 3.531226 2.527236 -2.418813
v 3.528070 2.538248 -2.410326
v 3.525429 2.547415 -2.403288
v 3.523442 2.554317 -2.397986
v 3.521276 2.561048 -2.393263
v 3.518550 2.569491 -2.387357
v 3.517839 2.571686 -2.385826
v 3.516646 2.572817 -2.386659
v 3.513160 2.575792 -2.389534
v 3.510372 2.578643 -2.391207
v 3.509544 2.580061 -2.390940
v 3.508463 2.582845 -2.389351
v 3.507747 2.584243 -2.388894
v 3.505409 2.587236 -2.389490
v 3.496955 2.595423 -2.395169
v 3.495982 2.596209 -2.396029
v 3.493588 2.598479 -2.397701
v 3.492626 2.600227 -2.397258
v 3.492568 2.601786 -2.395293
v 3.492903 2.603405 -2.392479
v 3.491856 2.604855 -2.392601
v 3.489767 2.607158 -2.393630
v 3.480829 2.618224 -2.396420
v 3.480230 2.618891 -2.396704
v 3.473550 2.627947 -2.397742
v 3.470322 2.632334 -2.398230
v 3.468553 2.634452 -2.398877
v 3.463718 2.641727 -2.398667
v 3.463101 2.643001 -2.398179
v 3.462095 2.643944 -2.398896
v 3.450267 2.661517 -2.398681
v 3.442846 2.673670 -2.397044
v 3.436424 2.684200 -2.395609
v 3.435819 2.684989 -2.395744
v 3.433795 2.688577 -2.394932
v 3.433069 2.689656 -2.394921
v 3.432544 2.690833 -2.394380
v 3.428411 2.697395 -2.393743
v 3.424627 2.704544 -2.391640
v 3.423516 2.706173 -2.391648
v 3.422675 2.706761 -2.392515
v 3.422306 2.706580 -2.393481
v 3.421997 2.705719 -2.395234
v 3.421529 2.705551 -2.396378
v 3.421128 2.705696 -2.396971
v 3.418559 2.708282 -2.398566
v 3.418059 2.708968 -2.398632
v 3.416708 2.711064 -2.398490
v 3.416052 2.712076 -2.398428
v 3.415638 2.713025 -2.397975
v 3.415891 2.713418 -2.396953
v 3.415078 2.714604 -2.396970
v 3.412410 2.719429 -2.395773
v 3.410635 2.721999 -2.395828
v 3.409724 2.723522 -2.395587
v 3.409189 2.724883 -2.394823
v 3.408442 2.725677 -2.395229
v 3.408132 2.726456 -2.394800
v 3.405135 2.726295 -2.400896
v 3.404232 2.726997 -2.401732
v 3.403707 2.727154 -2.402555
v 3.403313 2.726929 -2.403626
v 3.401323 2.727761 -2.406424
v 3.400878 2.727778 -2.407275
v 3.400644 2.727466 -2.408150
v 3.400541 2.726880 -2.409134
v 3.400577 2.726099 -2.410104
v 3.400784 2.725182 -2.410919
v 3.400845 2.724400 -2.411842
v 3.400428 2.724293 -2.412805
v 3.397907 2.725339 -2.416357
v 3.395511 2.726757 -2.419168
v 3.394321 2.726972 -2.421218
v 3.393556 2.728161 -2.421135
v 3.391811 2.730359 -2.421629
v 3.390855 2.731677 -2.421749
v 3.389677 2.733664 -2.421410
v 3.387693 2.737490 -2.420202
v 3.386572 2.739206 -2.420115
v 3.385722 2.740274 -2.420359
v 3.384990 2.741338 -2.420378
v 3.384391 2.742075 -2.420573
v 3.383932 2.742172 -2.421343
v 3.383958 2.741717 -2.421897
v 3.384235 2.739884 -2.423799
v 3.384086 2.739293 -2.424878
v 3.384034 2.738966 -2.425417
v 3.383254 2.740710 -2.424623
v 3.382651 2.741303 -2.425015
v 3.382043 2.741523 -2.425916
v 3.381374 2.741762 -2.426909
v 3.380159 2.742818 -2.427888
v 3.377553 2.745421 -2.429532
v 3.376784 2.745744 -2.430610
v 3.376278 2.745841 -2.431474
v 3.375655 2.746109 -2.432338
v 3.374973 2.746520 -2.433130
v 3.374320 2.747015 -2.433751
v 3.373177 2.748192 -2.434425
v 3.371219 2.750768 -2.434834
v 3.370718 2.751302 -2.435106
v 3.371354 2.749822 -2.435829
v 3.372257 2.748375 -2.435987
v 3.373208 2.747592 -2.435164
v 3.373744 2.747045 -2.434843
v 3.374327 2.744728 -2.436786
v 3.377002 2.741644 -2.435648
v 3.377055 2.741050 -2.436335
vn 0.7622 0.5179 -0.3884
vn 0.7622 0.5179 -0.3883
vn 0.7623 0.5178 -0.3884
vn 0.7622 0.5177 -0.3885
vn 0.7622 0.5178 -0.3885
vn 0.7622 0.5180 -0.3883
vn 0.7624 0.5175 -0.3885
vn 0.7620 0.5179 -0.3887
vn 0.7624 0.5177 -0.3883
vn 0.7622 0.5178 -0.3884
vn 0.7618 0.5181 -0.3888
vn 0.7625 0.5173 -0.3887
vn 0.7622 0.5181 -0.3881
vn 0.7625 0.5173 -0.3886
vn 0.7621 0.5181 -0.3883
vn 0.7629 0.5177 -0.3872
vn 0.7618 0.5185 -0.3883
vn 0.7620 0.5180 -0.3886
vn 0.7623 0.5177 -0.3885
vn 0.7623 0.5177 -0.3884
vn 0.7626 0.5177 -0.3879
vn 0.7624 0.5179 -0.3880
vn 0.7622 0.5177 -0.3886
vn 0.7623 0.5175 -0.3887
vn 0.7620 0.5181 -0.3884
vn 0.7623 0.5176 -0.3885
vn 0.7617 0.5187 -0.3882
vn 0.7623 0.5178 -0.3883
vn 0.7622 0.5176 -0.3887
vn 0.7627 0.5168 -0.3889
vn 0.7620 0.5186 -0.3879
vn 0.7621 0.5179 -0.3885
vn 0.7625 0.5169 -0.3891
vn 0.7617 0.5180 -0.3893
vn 0.7623 0.5179 -0.3883
vn 0.7620 0.5180 -0.3885
vn 0.7621 0.5176 -0.3890
vn 0.7625 0.5175 -0.3884
vn 0.7626 0.5179 -0.3876
vn 0.7626 0.5173 -0.3885
vn 0.7621 0.5180 -0.3884
vn 0.7622 0.5179 -0.3885
vn 0.7623 0.5179 -0.3882
vn 0.7635 0.5161 -0.3883
vn 0.7624 0.5178 -0.3880
vn 0.7624 0.5174 -0.3886
vn 0.7621 0.5181 -0.3882
vn 0.7628 0.5174 -0.3879
vn 0.7625 0.5176 -0.3882
vn 0.7621 0.5182 -0.3881
vn 0.7620 0.5180 -0.3887
vn 0.7626 0.5175 -0.3881
vn 0.7625 0.5180 -0.3877
vn 0.7623 0.5181 -0.3880
vn 0.7622 0.5181 -0.3882
vn 0.7624 0.5178 -0.3882
vn 0.7620 0.5179 -0.3886
vn 0.7624 0.5176 -0.3883
vn 0.7622 0.5178 -0.3886
vn 0.7624 0.5176 -0.3885
vn 0.7619 0.5182 -0.3884
vn 0.7624 0.5177 -0.3882
vn 0.7635 0.5167 -0.3874
vn 0.7620 0.5182 -0.3883
vn 0.7624 0.5176 -0.3884
vn 0.7622 0.5175 -0.3890
vn 0.7622 0.5177 -0.3887
vn 0.7626 0.5174 -0.3883
vn 0.7625 0.5176 -0.3881
vn 0.7620 0.5177 -0.3890
vn 0.7621 0.5180 -0.3883
vn 0.7621 0.5179 -0.3886
vn 0.7622 0.5176 -0.3886
vn 0.7629 0.5168 -0.3885
vn 0.7617 0.5182 -0.3890
vn 0.7622 0.5180 -0.3881
vn 0.7629 0.5173 -0.3878
vn 0.7628 0.5176 -0.3876
vn 0.7615 0.5183 -0.3892
vn 0.7627 0.5172 -0.3884
vn 0.7629 0.5169 -0.3884
vn 0.7622 0.5180 -0.3882
vn 0.7626 0.5170 -0.3887
vn 0.7627 0.5171 -0.3885
vn 0.7624 0.5175 -0.3884
vn 0.7621 0.5182 -0.3882
vn 0.7623 0.5176 -0.3884
vn 0.7621 0.5183 -0.3881
vn 0.7617 0.5185 -0.3887
vn 0.7631 0.5164 -0.3885
vn 0.7621 0.5177 -0.3889
vn 0.7625 0.5178 -0.3880
vn 0.7623 0.5178 -0.3885
vn 0.7624 0.5178 -0.3881
vn 0.7620 0.5176 -0.3892
vn 0.7619 0.5173 -0.3897
vn 0.7626 0.5170 -0.3888
vn 0.7627 0.5174 -0.3882
vn 0.7631 0.5172 -0.3875
vn 0.7619 0.5182 -0.3886
vn 0.7617 0.5181 -0.3891
vn 0.7626 0.5173 -0.3884
vn 0.7615 0.5181 -0.3896
vn 0.7631 0.5172 -0.3876
vn 0.7627 0.5173 -0.3881
vn 0.7621 0.5180 -0.3885
vn 0.7625 0.5175 -0.3882
vn 0.7626 0.5172 -0.3885
vn 0.7627 0.5170 -0.3885
vn 0.7623 0.5179 -0.3881
vn 0.7625 0.5175 -0.3883
vn 0.7622 0.5180 -0.3884
vn 0.7618 0.5183 -0.3885
usemtl None
s off
f 295//1 294//1 29//1
f 57//2 55//2 66//2
f 208//3 231//3 209//3
f 345//4 344//4 356//4
f 351//5 349//5 348//5
f 330//6 329//6 333//6
f 9//7 8//7 7//7
f 6//8 5//8 2//8
f 5//1 4//1 2//1
f 10//9 9//9 7//9
f 4//10 3//10 2//10
f 2//3 1//3 336//3
f 336//11 335//11 327//11
f 335//12 329//12 328//12
f 328//13 327//13 335//13
f 327//1 326//1 336//1
f 6//1 2//1 336//1
f 336//9 326//9 325//9
f 7//14 6//14 325//14
f 6//10 336//10 325//10
f 10//10 7//10 322//10
f 324//15 7//15 325//15
f 324//16 323//16 322//16
f 322//17 321//17 320//17
f 324//2 322//2 7//2
f 10//3 322//3 14//3
f 11//18 10//18 14//18
f 13//6 12//6 11//6
f 14//19 13//19 11//19
f 322//3 320//3 24//3
f 15//3 322//3 18//3
f 15//20 14//20 322//20
f 17//21 16//21 15//21
f 20//22 19//22 18//22
f 18//1 17//1 15//1
f 21//10 322//10 24//10
f 322//20 21//20 20//20
f 320//10 319//10 25//10
f 20//10 18//10 322//10
f 23//23 22//23 24//23
f 22//24 21//24 24//24
f 319//25 318//25 298//25
f 317//26 316//26 312//26
f 316//27 315//27 312//27
f 24//6 320//6 25//6
f 315//28 314//28 312//28
f 318//29 317//29 311//29
f 311//28 317//28 312//28
f 314//30 313//30 312//30
f 311//31 310//31 309//31
f 25//10 319//10 28//10
f 311//32 309//32 308//32
f 318//28 311//28 308//28
f 27//33 26//33 28//33
f 26//34 25//34 28//34
f 28//3 319//3 296//3
f 298//35 318//35 299//35
f 308//36 307//36 306//36
f 318//3 308//3 299//3
f 319//23 298//23 297//23
f 308//35 306//35 304//35
f 306//37 305//37 304//37
f 29//38 28//38 295//38
f 32//39 31//39 30//39
f 30//40 29//40 32//40
f 319//35 297//35 296//35
f 308//41 304//41 303//41
f 303//3 302//3 308//3
f 302//42 301//42 299//42
f 301//43 300//43 299//43
f 28//10 296//10 295//10
f 302//5 299//5 308//5
f 33//44 32//44 29//44
f 35//3 34//3 39//3
f 34//45 33//45 39//45
f 37//46 36//46 35//46
f 39//47 38//47 37//47
f 285//20 284//20 39//20
f 287//48 286//48 285//48
f 289//20 288//20 291//20
f 288//4 287//4 292//4
f 291//49 290//49 289//49
f 292//2 291//2 288//2
f 287//2 285//2 294//2
f 285//20 39//20 29//20
f 29//50 39//50 33//50
f 293//28 292//28 287//28
f 39//9 37//9 35//9
f 294//3 285//3 29//3
f 294//43 293//43 287//43
f 62//51 61//51 59//51
f 61//52 60//52 59//52
f 59//28 58//28 57//28
f 65//15 64//15 63//15
f 62//53 59//53 57//53
f 65//1 63//1 62//1
f 68//20 67//20 69//20
f 67//10 66//10 69//10
f 66//6 65//6 57//6
f 65//28 62//28 57//28
f 57//54 56//54 55//54
f 56//55 54//55 55//55
f 55//10 69//10 66//10
f 82//1 81//1 284//1
f 81//56 80//56 79//56
f 81//1 79//1 284//1
f 83//20 82//20 283//20
f 283//10 82//10 284//10
f 79//38 78//38 284//38
f 86//57 85//57 88//57
f 85//1 84//1 281//1
f 87//58 86//58 88//58
f 85//20 281//20 88//20
f 89//28 88//28 281//28
f 91//23 90//23 280//23
f 90//20 89//20 280//20
f 93//59 92//59 91//59
f 95//38 94//38 91//38
f 94//58 93//58 91//58
f 97//3 96//3 91//3
f 96//56 95//56 91//56
f 98//1 97//1 280//1
f 97//10 91//10 280//10
f 101//3 100//3 279//3
f 100//20 99//20 279//20
f 102//3 101//3 279//3
f 102//2 279//2 103//2
f 104//60 103//60 277//60
f 277//20 103//20 279//20
f 106//61 105//61 104//61
f 109//5 108//5 110//5
f 108//20 107//20 111//20
f 110//62 108//62 111//62
f 107//63 106//63 104//63
f 277//10 107//10 104//10
f 107//1 277//1 276//1
f 107//3 276//3 111//3
f 111//64 276//64 112//64
f 112//65 274//65 113//65
f 118//66 117//66 119//66
f 117//67 116//67 119//67
f 120//3 119//3 116//3
f 122//68 121//68 123//68
f 121//20 120//20 129//20
f 128//28 121//28 129//28
f 124//19 123//19 128//19
f 128//1 123//1 121//1
f 126//1 125//1 127//1
f 125//69 124//69 128//69
f 128//70 127//70 125//70
f 120//10 116//10 130//10
f 116//6 115//6 131//6
f 130//65 116//65 131//65
f 129//42 120//42 130//42
f 115//71 114//71 132//71
f 131//20 115//20 132//20
f 133//3 132//3 114//3
f 133//28 114//28 113//28
f 133//43 113//43 134//43
f 134//10 113//10 273//10
f 273//3 113//3 274//3
f 135//1 134//1 273//1
f 138//67 137//67 139//67
f 137//72 136//72 139//72
f 136//3 135//3 267//3
f 135//73 273//73 272//73
f 274//6 112//6 275//6
f 135//3 272//3 267//3
f 140//2 139//2 266//2
f 139//10 136//10 267//10
f 267//3 272//3 271//3
f 76//74 75//74 74//74
f 76//3 74//3 73//3
f 77//75 76//75 73//75
f 77//20 73//20 39//20
f 73//76 72//76 39//76
f 70//26 69//26 55//26
f 55//77 54//77 51//77
f 54//72 53//72 51//72
f 53//5 52//5 51//5
f 51//78 50//78 55//78
f 70//3 55//3 50//3
f 71//1 70//1 43//1
f 70//3 50//3 43//3
f 72//60 71//60 39//60
f 43//9 50//9 49//9
f 71//60 43//60 42//60
f 48//79 47//79 45//79
f 47//80 46//80 45//80
f 71//1 42//1 39//1
f 49//36 48//36 43//36
f 45//81 44//81 43//81
f 48//41 45//41 43//41
f 42//1 41//1 40//1
f 42//10 40//10 39//10
f 40//82 38//82 39//82
f 39//1 284//1 77//1
f 77//83 284//83 78//83
f 283//2 282//2 83//2
f 282//3 281//3 84//3
f 83//3 282//3 84//3
f 281//3 280//3 89//3
f 279//58 278//58 277//58
f 280//10 279//10 99//10
f 98//84 280//84 99//84
f 276//85 275//85 112//85
f 271//5 270//5 268//5
f 270//5 269//5 268//5
f 271//65 268//65 267//65
f 141//20 140//20 265//20
f 139//20 267//20 266//20
f 140//3 266//3 265//3
f 142//23 141//23 253//23
f 265//3 264//3 141//3
f 264//3 263//3 260//3
f 260//3 141//3 264//3
f 141//19 260//19 259//19
f 263//86 262//86 261//86
f 263//18 261//18 260//18
f 143//26 142//26 180//26
f 146//41 145//41 144//41
f 141//3 259//3 253//3
f 147//10 146//10 167//10
f 146//1 144//1 172//1
f 172//20 144//20 173//20
f 144//6 143//6 173//6
f 150//10 149//10 152//10
f 149//20 148//20 156//20
f 152//7 149//7 153//7
f 167//3 146//3 172//3
f 142//3 253//3 252//3
f 151//3 150//3 152//3
f 142//10 252//10 251//10
f 259//9 258//9 254//9
f 253//10 259//10 254//10
f 258//5 257//5 255//5
f 149//2 156//2 155//2
f 148//3 147//3 160//3
f 156//1 148//1 159//1
f 154//86 153//86 149//86
f 155//20 154//20 149//20
f 158//23 157//23 156//23
f 159//62 158//62 156//62
f 258//10 255//10 254//10
f 257//28 256//28 255//28
f 160//87 159//87 148//87
f 251//3 250//3 181//3
f 142//3 251//3 180//3
f 160//65 147//65 161//65
f 161//41 147//41 162//41
f 143//32 180//32 179//32
f 249//28 248//28 246//28
f 248//88 247//88 246//88
f 173//3 143//3 179//3
f 250//20 249//20 184//20
f 180//5 251//5 181//5
f 162//3 147//3 167//3
f 249//15 246//15 245//15
f 244//28 243//28 239//28
f 243//89 242//89 240//89
f 249//3 245//3 185//3
f 243//20 240//20 239//20
f 242//90 241//90 240//90
f 245//91 244//91 239//91
f 165//3 164//3 166//3
f 164//21 163//21 166//21
f 163//57 162//57 167//57
f 167//28 166//28 163//28
f 170//92 169//92 168//92
f 170//93 168//93 171//93
f 168//1 167//1 172//1
f 172//9 171//9 168//9
f 245//3 239//3 187//3
f 239//38 238//38 187//38
f 176//94 175//94 178//94
f 175//49 174//49 178//49
f 176//95 178//95 177//95
f 174//43 173//43 179//43
f 250//3 184//3 181//3
f 237//10 236//10 197//10
f 236//3 235//3 202//3
f 184//10 249//10 185//10
f 238//3 237//3 188//3
f 179//5 178//5 174//5
f 185//20 245//20 187//20
f 234//1 233//1 207//1
f 233//3 232//3 207//3
f 234//19 207//19 206//19
f 235//20 234//20 203//20
f 183//48 182//48 181//48
f 187//82 238//82 188//82
f 184//23 183//23 181//23
f 232//3 231//3 208//3
f 234//10 206//10 203//10
f 231//20 230//20 211//20
f 236//19 198//19 197//19
f 188//10 237//10 195//10
f 187//13 186//13 185//13
f 237//28 197//28 195//28
f 198//10 236//10 202//10
f 229//19 228//19 216//19
f 228//3 227//3 219//3
f 217//96 219//96 218//96
f 230//10 229//10 212//10
f 235//20 203//20 202//20
f 219//1 217//1 228//1
f 227//1 226//1 220//1
f 220//97 226//97 221//97
f 226//86 225//86 222//86
f 225//98 224//98 222//98
f 224//51 223//51 222//51
f 222//13 221//13 226//13
f 189//85 188//85 195//85
f 191//99 190//99 193//99
f 190//100 189//100 193//100
f 193//101 192//101 191//101
f 194//1 193//1 189//1
f 220//19 219//19 227//19
f 195//102 194//102 189//102
f 197//29 196//29 195//29
f 200//20 199//20 201//20
f 199//82 198//82 201//82
f 202//28 201//28 198//28
f 205//103 204//103 203//103
f 205//104 203//104 206//104
f 207//10 232//10 208//10
f 216//2 228//2 217//2
f 215//1 214//1 229//1
f 214//19 213//19 229//19
f 213//3 212//3 229//3
f 229//10 216//10 215//10
f 211//3 210//3 231//3
f 210//1 209//1 231//1
f 212//3 211//3 230//3
f 335//105 336//105 337//105
f 336//28 1//28 357//28
f 336//1 357//1 340//1
f 338//23 337//23 339//23
f 340//7 339//7 336//7
f 339//67 337//67 336//67
f 343//10 342//10 356//10
f 342//1 341//1 356//1
f 341//14 340//14 356//14
f 344//28 343//28 356//28
f 356//1 355//1 345//1
f 355//106 346//106 345//106
f 340//107 357//107 356//107
f 347//108 354//108 348//108
f 354//109 353//109 348//109
f 353//110 352//110 348//110
f 352//82 351//82 348//82
f 351//111 350//111 349//111
f 329//112 335//112 334//112
f 334//32 333//32 329//32
f 333//113 332//113 331//113
f 330//41 333//41 331//41
