# Blender v2.81 (sub 16) OBJ File: ''
# www.blender.org
mtllib Jamaica.mtl
o 0_Jamaica_sphere.001
v 1.037329 1.545083 4.640755
v 1.038159 1.533048 4.644469
v 1.034559 1.583135 4.628365
v 1.129602 1.545083 4.618603
v 1.001383 1.545083 4.648199
v 1.036678 1.533556 4.644612
v 1.034762 1.533787 4.644935
v 1.033300 1.533173 4.645435
v 1.031654 1.532025 4.646146
v 1.029938 1.531867 4.646553
v 1.026310 1.532849 4.646987
v 1.022773 1.533416 4.647537
v 1.011755 1.532745 4.650035
v 1.011192 1.532847 4.650118
v 1.009418 1.533966 4.650125
v 1.006454 1.535347 4.650293
v 1.005696 1.535893 4.650273
v 1.005300 1.536524 4.650152
v 1.004314 1.538663 4.649665
v 1.004097 1.539334 4.649493
v 1.003754 1.539862 4.649394
v 1.002261 1.540368 4.649540
v 1.001781 1.540729 4.649523
v 1.001546 1.542477 4.649006
v 1.001554 1.544581 4.648326
v 1.129846 1.544587 4.618705
v 1.130613 1.543045 4.619022
v 1.131962 1.541049 4.619347
v 1.133604 1.539469 4.619467
v 1.135933 1.537845 4.619436
v 1.135144 1.537173 4.619844
v 1.131051 1.536124 4.621168
v 1.128230 1.534526 4.622365
v 1.126580 1.534040 4.622919
v 1.125109 1.534406 4.623153
v 1.125640 1.534808 4.622895
v 1.125845 1.535093 4.622753
v 1.126082 1.536116 4.622364
v 1.124660 1.535589 4.622876
v 1.123511 1.533684 4.623772
v 1.122134 1.533261 4.624239
v 1.120851 1.533615 4.624433
v 1.119341 1.534276 4.624580
v 1.117827 1.534649 4.624822
v 1.115463 1.533752 4.625681
v 1.109136 1.533206 4.627378
v 1.104590 1.533886 4.628248
v 1.103939 1.533855 4.628415
v 1.103337 1.533744 4.628595
v 1.102668 1.533825 4.628729
v 1.101785 1.534403 4.628754
v 1.101362 1.535155 4.628611
v 1.101123 1.536123 4.628353
v 1.100818 1.536949 4.628158
v 1.100159 1.537305 4.628200
v 1.099491 1.537504 4.628296
v 1.099022 1.537969 4.628257
v 1.098603 1.538527 4.628176
v 1.098069 1.538968 4.628161
v 1.095593 1.539543 4.628569
v 1.094961 1.539878 4.628611
v 1.093679 1.540374 4.628758
v 1.092003 1.540280 4.629191
v 1.089120 1.539600 4.630104
v 1.087877 1.539455 4.630450
v 1.083640 1.539613 4.631416
v 1.083597 1.540185 4.631240
v 1.092463 1.540684 4.628950
v 1.091862 1.541214 4.628921
v 1.091425 1.541602 4.628900
v 1.090345 1.541843 4.629081
v 1.087895 1.541882 4.629656
v 1.086238 1.541846 4.630066
v 1.084472 1.542840 4.630167
v 1.082964 1.543769 4.630227
v 1.081863 1.544263 4.630330
v 1.081675 1.543404 4.630655
v 1.081358 1.542523 4.631017
v 1.080437 1.541413 4.631599
v 1.080173 1.540770 4.631872
v 1.079097 1.540897 4.632089
v 1.078827 1.540284 4.632353
v 1.078650 1.538378 4.633015
v 1.077566 1.533342 4.634913
v 1.076599 1.531848 4.635631
v 1.075357 1.531035 4.636194
v 1.074288 1.531028 4.636452
v 1.073561 1.531351 4.636522
v 1.072875 1.531785 4.636545
v 1.071960 1.532135 4.636652
v 1.067481 1.532148 4.637722
v 1.067436 1.532769 4.637531
v 1.069108 1.533333 4.636946
v 1.068179 1.534085 4.636925
v 1.066981 1.535536 4.636741
v 1.066084 1.536193 4.636742
v 1.065068 1.536573 4.636863
v 1.062716 1.536832 4.637343
v 1.060655 1.536117 4.638071
v 1.058905 1.535070 4.638831
v 1.057758 1.532469 4.639952
v 1.057496 1.531709 4.640263
v 1.058272 1.529397 4.640828
v 1.057699 1.529168 4.641040
v 1.056714 1.528559 4.641474
v 1.056138 1.528317 4.641691
v 1.056379 1.527878 4.641776
v 1.056580 1.527034 4.642003
v 1.056815 1.526502 4.642119
v 1.055920 1.526895 4.642206
v 1.055048 1.526938 4.642401
v 1.054224 1.526649 4.642693
v 1.053485 1.526006 4.643080
v 1.054969 1.525137 4.643006
v 1.056497 1.524803 4.642748
v 1.058062 1.524923 4.642333
v 1.059660 1.525405 4.641793
v 1.060703 1.522262 4.642564
v 1.060558 1.520823 4.643067
v 1.058617 1.520233 4.643725
v 1.056923 1.520324 4.644102
v 1.055389 1.520669 4.644358
v 1.053842 1.521388 4.644496
v 1.046380 1.527609 4.644264
v 1.044799 1.529418 4.644055
v 1.038517 1.532914 4.644427
v 1.000925 1.546341 4.647865
v 0.998797 1.547078 4.648055
v 0.993138 1.547110 4.649216
v 0.991800 1.547577 4.649334
v 0.989559 1.551911 4.648322
v 0.988851 1.552817 4.648160
v 0.988117 1.553286 4.648152
v 0.987275 1.553687 4.648190
v 0.986613 1.553850 4.648271
v 0.986078 1.554285 4.648233
v 0.985613 1.555287 4.647989
v 0.984979 1.557254 4.647449
v 0.983231 1.560262 4.646787
v 0.981121 1.561364 4.646848
v 0.975130 1.561215 4.648140
v 0.971427 1.561814 4.648703
v 0.970084 1.561826 4.648976
v 0.969366 1.561144 4.649358
v 0.968764 1.560808 4.649597
v 0.968205 1.560921 4.649674
v 0.966145 1.561704 4.649834
v 0.964776 1.562004 4.650015
v 0.962221 1.562785 4.650278
v 0.960803 1.562956 4.650514
v 0.959350 1.563304 4.650696
v 0.957900 1.564205 4.650690
v 0.956796 1.565485 4.650482
v 0.956336 1.566935 4.650083
v 0.956736 1.567623 4.649766
v 0.957886 1.568452 4.649245
v 0.958407 1.569147 4.648901
v 0.958569 1.570239 4.648495
v 0.958284 1.572745 4.647700
v 0.958390 1.573455 4.647437
v 0.958943 1.574439 4.646987
v 0.958971 1.575064 4.646768
v 0.959232 1.575392 4.646602
v 0.960487 1.575492 4.646308
v 0.961250 1.575997 4.645978
v 0.961829 1.576969 4.645527
v 0.962624 1.577634 4.645136
v 0.964016 1.577194 4.644998
v 0.964701 1.579548 4.644054
v 0.967041 1.581778 4.642809
v 0.969880 1.582712 4.641904
v 0.972080 1.581164 4.641975
v 0.973194 1.582552 4.641272
v 0.974484 1.582578 4.640996
v 0.976033 1.582040 4.640858
v 0.977909 1.581686 4.640590
v 0.983135 1.582317 4.639293
v 0.984889 1.582307 4.638933
v 0.985796 1.581992 4.638853
v 0.986441 1.581769 4.638795
v 0.987356 1.581549 4.638680
v 0.988273 1.581692 4.638442
v 0.989064 1.582262 4.638084
v 0.989102 1.582806 4.637891
v 0.989033 1.583440 4.637689
v 0.989478 1.584300 4.637303
v 0.991169 1.586592 4.636173
v 0.991951 1.587353 4.635752
v 0.993343 1.587985 4.635248
v 0.996601 1.588513 4.634393
v 1.000340 1.588380 4.633665
v 1.006988 1.586999 4.632758
v 1.012859 1.585783 4.631956
v 1.020778 1.585651 4.630362
v 1.024332 1.584833 4.629904
v 1.029991 1.584442 4.628866
v 1.032148 1.583939 4.628590
v 1.033891 1.582960 4.628563
v 1.129180 1.545919 4.618417
v 1.036404 1.583604 4.627761
v 1.040534 1.583583 4.626777
v 1.044815 1.583105 4.625913
v 1.047797 1.582364 4.625451
v 1.048186 1.581991 4.625486
v 1.048560 1.580965 4.625748
v 1.048978 1.580610 4.625769
v 1.049450 1.580606 4.625657
v 1.049870 1.580807 4.625487
v 1.050109 1.581071 4.625340
v 1.053687 1.580599 4.624643
v 1.054153 1.580336 4.624621
v 1.055599 1.579162 4.624677
v 1.056041 1.578897 4.624662
v 1.058681 1.578806 4.624059
v 1.061426 1.579256 4.623246
v 1.062890 1.579498 4.622811
v 1.063875 1.579261 4.622656
v 1.065619 1.578481 4.622505
v 1.066587 1.578309 4.622332
v 1.071356 1.578501 4.621120
v 1.072252 1.578983 4.620740
v 1.073556 1.579138 4.620374
v 1.074632 1.579055 4.620144
v 1.075629 1.578892 4.619961
v 1.076257 1.578169 4.620058
v 1.076074 1.577287 4.620405
v 1.076158 1.576167 4.620769
v 1.077119 1.575362 4.620814
v 1.080132 1.573587 4.620699
v 1.082786 1.572137 4.620560
v 1.083261 1.571330 4.620723
v 1.084179 1.569147 4.621252
v 1.084714 1.568428 4.621370
v 1.085523 1.567965 4.621334
v 1.087022 1.567565 4.621111
v 1.091237 1.567241 4.620211
v 1.092649 1.566939 4.619976
v 1.093884 1.566319 4.619892
v 1.095541 1.564798 4.620016
v 1.096783 1.564045 4.619976
v 1.098188 1.563627 4.619782
v 1.100863 1.563792 4.619083
v 1.102344 1.562818 4.619062
v 1.102801 1.562704 4.618991
v 1.103236 1.562327 4.619017
v 1.103759 1.561982 4.619009
v 1.104438 1.561826 4.618899
v 1.110512 1.561824 4.617442
v 1.110955 1.561576 4.617421
v 1.111680 1.560385 4.617655
v 1.112001 1.560020 4.617703
v 1.118035 1.558928 4.616629
v 1.121211 1.557833 4.616242
v 1.121739 1.556106 4.616708
v 1.124197 1.553958 4.616855
v 1.126168 1.551460 4.617239
vn 0.1925 0.3165 0.9289
vn 0.1933 0.3016 0.9336
vn 0.2229 0.3006 0.9273
vn 0.2215 0.3164 0.9224
vn 0.1924 0.3164 0.9289
vn 0.1931 0.3165 0.9287
vn 0.1932 0.3176 0.9283
vn 0.1923 0.3165 0.9289
vn 0.1924 0.3165 0.9289
vn 0.1922 0.3166 0.9289
vn 0.1923 0.3167 0.9288
vn 0.1925 0.3164 0.9289
vn 0.1921 0.3167 0.9289
vn 0.1940 0.3159 0.9287
vn 0.1907 0.3170 0.9290
vn 0.1915 0.3170 0.9289
vn 0.2058 0.3152 0.9264
vn 0.1926 0.3165 0.9288
vn 0.1930 0.3165 0.9287
vn 0.1920 0.3165 0.9290
vn 0.1922 0.3165 0.9289
vn 0.1928 0.3163 0.9288
vn 0.1922 0.3168 0.9288
vn 0.1915 0.3166 0.9290
vn 0.1926 0.3164 0.9289
vn 0.1925 0.3193 0.9279
vn 0.1923 0.3131 0.9300
vn 0.1938 0.3172 0.9283
vn 0.1942 0.3163 0.9286
vn 0.1928 0.3164 0.9288
vn 0.1923 0.3166 0.9289
vn 0.1922 0.3162 0.9290
vn 0.1917 0.3161 0.9291
vn 0.1933 0.3167 0.9286
vn 0.1924 0.3166 0.9288
vn 0.1922 0.3164 0.9289
vn 0.1919 0.3164 0.9290
vn 0.1924 0.3163 0.9289
vn 0.1927 0.3168 0.9287
vn 0.1936 0.3164 0.9286
vn 0.1979 0.3155 0.9281
vn 0.1927 0.3163 0.9289
vn 0.1919 0.3166 0.9289
vn 0.1926 0.3147 0.9294
vn 0.1916 0.3172 0.9288
vn 0.1925 0.3166 0.9288
vn 0.1927 0.3164 0.9289
vn 0.1925 0.3162 0.9290
vn 0.1926 0.3166 0.9288
vn 0.1934 0.3165 0.9287
vn 0.1918 0.3166 0.9290
vn 0.1934 0.3015 0.9337
vn 0.1916 0.3015 0.9340
vn 0.1936 0.3013 0.9337
vn 0.1931 0.3017 0.9337
vn 0.1929 0.3018 0.9336
vn 0.1935 0.3011 0.9338
vn 0.1937 0.3014 0.9336
vn 0.1931 0.3019 0.9336
vn 0.1908 0.3011 0.9343
vn 0.1934 0.3015 0.9336
vn 0.1933 0.3010 0.9338
vn 0.1931 0.3015 0.9337
vn 0.1936 0.3015 0.9336
vn 0.1926 0.2996 0.9344
vn 0.1928 0.3015 0.9338
vn 0.1934 0.3014 0.9337
vn 0.1941 0.3011 0.9336
vn 0.1933 0.3015 0.9337
vn 0.2224 0.3015 0.9272
vn 0.2225 0.3013 0.9272
vn 0.2225 0.3016 0.9271
vn 0.2227 0.3015 0.9271
vn 0.2244 0.3013 0.9268
vn 0.2226 0.3014 0.9272
vn 0.2226 0.3015 0.9271
vn 0.2227 0.3014 0.9271
vn 0.2229 0.3014 0.9271
vn 0.2225 0.3015 0.9272
vn 0.2223 0.3015 0.9272
vn 0.2227 0.3016 0.9271
vn 0.2222 0.3015 0.9272
vn 0.2223 0.3017 0.9271
vn 0.2229 0.3019 0.9269
vn 0.2224 0.3024 0.9269
vn 0.2226 0.3014 0.9271
vn 0.2223 0.3016 0.9272
vn 0.2220 0.3007 0.9275
vn 0.2223 0.3010 0.9273
vn 0.2231 0.3015 0.9270
vn 0.2225 0.3014 0.9272
vn 0.2233 0.3015 0.9269
vn 0.2221 0.3016 0.9272
vn 0.2226 0.3016 0.9271
vn 0.2219 0.3016 0.9273
vn 0.2227 0.3009 0.9273
vn 0.2221 0.3017 0.9272
vn 0.2228 0.3015 0.9271
vn 0.2228 0.3014 0.9271
vn 0.2222 0.3010 0.9274
vn 0.2217 0.3010 0.9275
vn 0.2216 0.3013 0.9274
vn 0.2225 0.3010 0.9273
vn 0.2230 0.3017 0.9269
vn 0.2211 0.3019 0.9274
vn 0.2216 0.3018 0.9273
vn 0.2261 0.3007 0.9265
vn 0.2244 0.3016 0.9267
vn 0.2215 0.3014 0.9274
vn 0.2229 0.3013 0.9271
vn 0.2224 0.3014 0.9272
vn 0.2233 0.3014 0.9270
vn 0.2226 0.3020 0.9269
vn 0.2225 0.3015 0.9271
vn 0.2227 0.3012 0.9272
vn 0.2196 0.3010 0.9280
vn 0.2236 0.3036 0.9262
vn 0.2227 0.3017 0.9270
vn 0.2228 0.3016 0.9270
vn 0.2221 0.3021 0.9270
vn 0.2226 0.3017 0.9270
vn 0.2224 0.3016 0.9271
vn 0.2225 0.3022 0.9269
vn 0.2218 0.3006 0.9276
vn 0.2229 0.3010 0.9272
vn 0.2229 0.3015 0.9270
vn 0.2229 0.3018 0.9270
vn 0.2223 0.3013 0.9273
vn 0.2219 0.3014 0.9273
vn 0.2218 0.3015 0.9273
vn 0.2225 0.3017 0.9271
vn 0.2228 0.3024 0.9268
vn 0.2230 0.3013 0.9271
vn 0.2226 0.3013 0.9272
vn 0.2235 0.3021 0.9267
vn 0.2219 0.3020 0.9271
vn 0.2209 0.3028 0.9271
vn 0.2227 0.3024 0.9268
vn 0.2226 0.3010 0.9273
vn 0.2224 0.3018 0.9271
vn 0.2228 0.3008 0.9273
vn 0.2214 0.3165 0.9224
vn 0.2222 0.3164 0.9223
vn 0.2213 0.3162 0.9225
vn 0.2213 0.3165 0.9224
vn 0.2204 0.3166 0.9226
vn 0.2213 0.3163 0.9225
vn 0.2214 0.3166 0.9223
vn 0.2214 0.3161 0.9225
vn 0.2218 0.3162 0.9224
vn 0.2200 0.3157 0.9230
vn 0.2215 0.3165 0.9224
vn 0.2236 0.3169 0.9217
vn 0.2243 0.3170 0.9215
vn 0.2215 0.3163 0.9224
vn 0.2212 0.3156 0.9228
vn 0.2217 0.3175 0.9220
vn 0.2239 0.3175 0.9215
vn 0.2210 0.3166 0.9225
vn 0.2214 0.3167 0.9223
vn 0.2206 0.3170 0.9224
vn 0.2212 0.3166 0.9224
vn 0.2252 0.3185 0.9208
vn 0.2214 0.3153 0.9228
vn 0.2205 0.3167 0.9225
vn 0.2211 0.3163 0.9225
vn 0.2221 0.3160 0.9224
vn 0.2214 0.3173 0.9221
vn 0.2215 0.3158 0.9226
vn 0.2212 0.3164 0.9225
vn 0.2216 0.3161 0.9225
vn 0.2214 0.3166 0.9224
vn 0.2207 0.3164 0.9226
vn 0.2214 0.3162 0.9225
vn 0.2211 0.3166 0.9224
vn 0.2206 0.3167 0.9225
vn 0.2216 0.3169 0.9222
vn 0.2225 0.3163 0.9222
vn 0.2206 0.3163 0.9227
vn 0.2216 0.3166 0.9223
vn 0.2217 0.3167 0.9223
vn 0.2212 0.3165 0.9225
vn 0.2216 0.3165 0.9223
vn 0.2211 0.3168 0.9223
vn 0.2215 0.3168 0.9223
usemtl None
s off
f 150//1 157//1 156//1
f 10//2 8//2 11//2
f 64//3 63//3 68//3
f 232//4 231//4 229//4
f 5//5 1//5 127//5
f 1//6 3//6 198//6
f 198//7 197//7 196//7
f 1//8 198//8 195//8
f 127//9 1//9 195//9
f 198//10 196//10 195//10
f 195//9 194//9 127//9
f 194//8 193//8 127//8
f 192//5 191//5 183//5
f 191//11 190//11 183//11
f 193//12 192//12 127//12
f 183//8 190//8 187//8
f 190//13 189//13 187//13
f 189//14 188//14 187//14
f 187//15 186//15 183//15
f 186//16 185//16 184//16
f 186//17 184//17 183//17
f 192//8 183//8 128//8
f 128//18 127//18 192//18
f 130//19 129//19 131//19
f 129//8 128//8 131//8
f 128//9 183//9 132//9
f 183//20 182//20 138//20
f 132//21 183//21 138//21
f 132//22 131//22 128//22
f 133//23 132//23 138//23
f 138//12 182//12 139//12
f 182//24 181//24 139//24
f 181//25 180//25 140//25
f 179//26 178//26 177//26
f 180//27 179//27 177//27
f 136//28 135//28 134//28
f 134//29 133//29 138//29
f 139//21 181//21 140//21
f 177//1 176//1 140//1
f 175//21 174//21 172//21
f 174//30 173//30 172//30
f 177//5 140//5 180//5
f 176//31 175//31 172//31
f 172//32 171//32 170//32
f 136//33 134//33 137//33
f 138//34 137//34 134//34
f 172//35 170//35 169//35
f 176//8 172//8 141//8
f 140//1 176//1 141//1
f 172//9 169//9 168//9
f 168//36 167//36 166//36
f 168//37 166//37 165//37
f 172//8 168//8 142//8
f 142//12 141//12 172//12
f 168//13 165//13 158//13
f 165//38 164//38 158//38
f 164//39 163//39 161//39
f 163//40 162//40 161//40
f 161//41 160//41 159//41
f 142//37 168//37 143//37
f 143//9 168//9 147//9
f 164//42 161//42 159//42
f 164//43 159//43 158//43
f 147//9 168//9 158//9
f 145//44 144//44 146//44
f 144//45 143//45 146//45
f 147//46 146//46 143//46
f 149//37 148//37 158//37
f 148//47 147//47 158//47
f 149//48 158//48 157//48
f 151//49 150//49 156//49
f 150//21 149//21 157//21
f 153//50 152//50 156//50
f 152//24 151//24 156//24
f 155//51 154//51 153//51
f 156//49 155//49 153//49
f 1//52 5//52 12//52
f 5//53 25//53 12//53
f 25//54 24//54 21//54
f 24//55 23//55 22//55
f 21//56 24//56 22//56
f 20//57 19//57 15//57
f 19//58 18//58 16//58
f 19//59 16//59 15//59
f 18//60 17//60 16//60
f 25//61 21//61 12//61
f 21//62 20//62 12//62
f 6//63 2//63 1//63
f 7//64 6//64 1//64
f 15//65 14//65 13//65
f 7//66 1//66 8//66
f 8//67 1//67 11//67
f 10//68 9//68 8//68
f 11//69 1//69 12//69
f 20//52 15//52 12//52
f 15//52 13//52 12//52
f 1//70 2//70 126//70
f 125//71 124//71 106//71
f 124//72 123//72 113//72
f 1//73 126//73 125//73
f 26//74 4//74 38//74
f 4//75 1//75 76//75
f 1//76 125//76 100//76
f 124//77 113//77 112//77
f 123//78 122//78 115//78
f 122//79 121//79 115//79
f 121//80 120//80 116//80
f 120//81 119//81 118//81
f 116//73 120//73 118//73
f 118//82 117//82 116//82
f 31//83 30//83 29//83
f 34//84 33//84 37//84
f 33//77 32//77 38//77
f 34//85 37//85 36//85
f 32//86 31//86 29//86
f 32//87 29//87 28//87
f 35//88 34//88 36//88
f 37//89 33//89 38//89
f 32//76 28//76 38//76
f 28//90 27//90 38//90
f 121//76 116//76 115//76
f 27//91 26//91 38//91
f 123//92 115//92 114//92
f 123//93 114//93 113//93
f 41//91 40//91 42//91
f 40//94 39//94 42//94
f 39//95 38//95 4//95
f 124//76 112//76 106//76
f 43//96 39//96 44//96
f 43//97 42//97 39//97
f 46//70 45//70 54//70
f 45//73 44//73 54//73
f 44//98 39//98 4//98
f 47//99 46//99 54//99
f 47//73 54//73 53//73
f 125//86 106//86 102//86
f 112//100 111//100 106//100
f 110//101 109//101 108//101
f 111//102 110//102 106//102
f 50//103 49//103 51//103
f 49//104 48//104 52//104
f 48//105 47//105 53//105
f 110//106 108//106 107//106
f 106//107 110//107 107//107
f 106//108 105//108 102//108
f 105//109 104//109 102//109
f 104//110 103//110 102//110
f 49//111 52//111 51//111
f 53//112 52//112 48//112
f 125//113 102//113 101//113
f 125//114 101//114 100//114
f 54//77 44//77 58//77
f 58//115 44//115 59//115
f 1//81 100//81 99//81
f 55//116 54//116 58//116
f 57//117 56//117 55//117
f 58//94 57//94 55//94
f 1//98 99//98 98//98
f 1//86 98//86 76//86
f 98//118 97//118 76//118
f 59//76 44//76 4//76
f 61//95 60//95 59//95
f 95//91 94//91 83//91
f 94//119 93//119 83//119
f 93//120 92//120 91//120
f 93//121 91//121 90//121
f 93//122 90//122 83//122
f 89//123 88//123 85//123
f 88//124 87//124 86//124
f 90//125 89//125 84//125
f 83//98 90//98 84//98
f 96//81 95//81 82//81
f 96//126 82//126 81//126
f 88//127 86//127 85//127
f 85//128 84//128 89//128
f 83//71 82//71 95//71
f 81//129 80//129 79//129
f 81//130 79//130 78//130
f 81//72 78//72 77//72
f 81//131 77//131 76//131
f 75//132 74//132 72//132
f 74//133 73//133 72//133
f 96//134 81//134 97//134
f 81//79 76//79 97//79
f 76//135 75//135 71//135
f 75//82 72//82 71//82
f 61//112 59//112 70//112
f 70//114 59//114 4//114
f 62//136 61//136 70//136
f 4//76 76//76 71//76
f 70//110 4//110 71//110
f 70//137 69//137 62//137
f 69//138 68//138 62//138
f 68//139 67//139 64//139
f 67//140 66//140 65//140
f 64//138 67//138 65//138
f 63//141 62//141 68//141
f 1//142 4//142 241//142
f 4//143 199//143 251//143
f 1//144 241//144 240//144
f 199//145 256//145 251//145
f 256//146 255//146 254//146
f 254//147 253//147 252//147
f 256//148 254//148 251//148
f 3//142 1//142 206//142
f 3//147 206//147 201//147
f 201//149 200//149 3//149
f 203//150 202//150 205//150
f 202//144 201//144 205//144
f 205//151 204//151 203//151
f 206//142 1//142 213//142
f 254//152 252//152 251//152
f 206//153 205//153 201//153
f 206//154 213//154 207//154
f 213//155 1//155 214//155
f 210//156 209//156 208//156
f 208//144 207//144 211//144
f 211//157 210//157 208//157
f 212//144 211//144 207//144
f 250//158 249//158 248//158
f 250//4 248//4 247//4
f 251//159 250//159 247//159
f 251//152 247//152 4//152
f 247//160 246//160 4//160
f 213//161 212//161 207//161
f 234//162 1//162 235//162
f 245//163 244//163 243//163
f 246//164 245//164 241//164
f 245//165 243//165 241//165
f 243//166 242//166 241//166
f 1//167 234//167 233//167
f 214//142 1//142 218//142
f 217//168 216//168 215//168
f 215//169 214//169 218//169
f 246//170 241//170 4//170
f 218//142 217//142 215//142
f 239//171 238//171 236//171
f 238//160 237//160 236//160
f 236//172 235//172 239//172
f 240//173 239//173 235//173
f 240//152 235//152 1//152
f 222//174 221//174 227//174
f 221//175 220//175 227//175
f 224//176 223//176 226//176
f 223//177 222//177 226//177
f 226//178 225//178 224//178
f 227//179 226//179 222//179
f 228//160 227//160 219//160
f 227//180 220//180 219//180
f 231//181 230//181 229//181
f 229//182 228//182 232//182
f 228//183 219//183 232//183
f 232//184 219//184 233//184
f 219//185 218//185 1//185
f 233//142 219//142 1//142
