# Blender v2.81 (sub 16) OBJ File: ''
# www.blender.org
mtllib Jamaica.mtl
o 0_Jamaica_sphere.001
v 0.956865 1.545085 4.603740
v 1.128611 1.545085 4.576538
v 0.956205 1.546111 4.603419
v 0.953422 1.547441 4.603309
v 0.945670 1.547159 4.604653
v 0.940821 1.547843 4.605138
v 0.939073 1.547836 4.605418
v 0.938179 1.546977 4.605916
v 0.937410 1.546550 4.606214
v 0.936680 1.546682 4.606275
v 0.933954 1.547623 4.606317
v 0.932154 1.547973 4.606457
v 0.928772 1.548904 4.606607
v 0.926910 1.549097 4.606822
v 0.924988 1.549505 4.606957
v 0.923043 1.550608 4.606808
v 0.921509 1.552185 4.606398
v 0.920830 1.553994 4.605757
v 0.921311 1.554863 4.605320
v 0.922770 1.555912 4.604655
v 0.923413 1.556793 4.604188
v 0.923567 1.558164 4.603596
v 0.923035 1.561301 4.602381
v 0.923140 1.562194 4.601994
v 0.923798 1.563433 4.601377
v 0.923799 1.564221 4.601050
v 0.924128 1.564637 4.600826
v 0.925771 1.564780 4.600506
v 0.926742 1.565421 4.600087
v 0.927445 1.566653 4.599465
v 0.928450 1.567497 4.598957
v 0.930301 1.566958 4.598887
v 0.931070 1.569930 4.597534
v 0.934022 1.572765 4.595892
v 0.937689 1.573967 4.594813
v 0.940655 1.572042 4.595141
v 0.942036 1.573796 4.594195
v 0.943729 1.573845 4.593907
v 0.945783 1.573181 4.593856
v 0.948250 1.572756 4.593642
v 0.955036 1.573600 4.592218
v 0.957322 1.573608 4.591853
v 0.958515 1.573219 4.591825
v 0.959362 1.572947 4.591803
v 0.960564 1.572679 4.591724
v 0.961753 1.572869 4.591457
v 0.962747 1.573589 4.591001
v 0.962776 1.574272 4.590714
v 0.962663 1.575068 4.590402
v 0.963200 1.576152 4.589868
v 0.965289 1.579047 4.588338
v 0.966281 1.580014 4.587780
v 0.968066 1.580820 4.587163
v 0.972268 1.581509 4.586213
v 0.977120 1.581368 4.585502
v 0.985770 1.579691 4.584827
v 0.993367 1.578218 4.584234
v 1.003542 1.578122 4.582662
v 1.008112 1.577131 4.582349
v 1.015347 1.576690 4.581386
v 1.018110 1.576088 4.581197
v 1.020354 1.574887 4.581339
v 1.023554 1.575721 4.580487
v 1.028830 1.575759 4.579636
v 1.034294 1.575234 4.578988
v 1.038092 1.574362 4.578747
v 1.038592 1.573910 4.578856
v 1.039083 1.572650 4.579299
v 1.039617 1.572221 4.579393
v 1.040217 1.572221 4.579298
v 1.040747 1.572478 4.579107
v 1.041040 1.572804 4.578926
v 1.045569 1.572285 4.578423
v 1.046161 1.571966 4.578462
v 1.048001 1.570549 4.578757
v 1.048558 1.570232 4.578800
v 1.051882 1.570163 4.578303
v 1.055319 1.570763 4.577510
v 1.057152 1.571087 4.577085
v 1.058387 1.570813 4.577003
v 1.060576 1.569889 4.577039
v 1.061787 1.569695 4.576928
v 1.067723 1.570015 4.575855
v 1.068834 1.570617 4.575429
v 1.070454 1.570829 4.575085
v 1.071790 1.570746 4.574908
v 1.073028 1.570562 4.574788
v 1.073811 1.569693 4.575024
v 1.073587 1.568618 4.575505
v 1.073695 1.567253 4.576053
v 1.074889 1.566295 4.576261
v 1.078613 1.564197 4.576540
v 1.081887 1.562490 4.576729
v 1.082471 1.561523 4.577036
v 1.083600 1.558909 4.577940
v 1.084259 1.558049 4.578192
v 1.085250 1.557509 4.578259
v 1.087088 1.557061 4.578154
v 1.092236 1.556764 4.577461
v 1.093957 1.556435 4.577325
v 1.095460 1.555719 4.577384
v 1.097470 1.553928 4.577807
v 1.098974 1.553059 4.577929
v 1.100676 1.552589 4.577854
v 1.103914 1.552851 4.577232
v 1.105699 1.551722 4.577417
v 1.106249 1.551599 4.577381
v 1.106772 1.551159 4.577481
v 1.107400 1.550759 4.577547
v 1.108219 1.550591 4.577487
v 1.115520 1.550740 4.576268
v 1.116052 1.550449 4.576304
v 1.116910 1.549053 4.576747
v 1.117290 1.548630 4.576862
v 1.124486 1.547486 4.576196
v 1.128250 1.546276 4.576101
v 1.137945 1.531762 4.578258
v 1.138767 1.530125 4.578521
v 1.139712 1.528238 4.578824
v 1.141353 1.525799 4.579149
v 1.143337 1.523893 4.579293
v 1.146136 1.521957 4.579315
v 1.145219 1.521087 4.579669
v 1.140385 1.519623 4.580786
v 1.137061 1.517513 4.581819
v 1.135102 1.516841 4.582290
v 1.133336 1.517240 4.582474
v 1.133964 1.517765 4.582249
v 1.134205 1.518133 4.582122
v 1.134465 1.519423 4.581771
v 1.132777 1.518710 4.582210
v 1.131438 1.516270 4.583008
v 1.129795 1.515686 4.583408
v 1.128252 1.516077 4.583559
v 1.126426 1.516850 4.583662
v 1.124602 1.517264 4.583852
v 1.121770 1.516037 4.584595
v 1.114128 1.515100 4.586030
v 1.108603 1.515769 4.586745
v 1.107813 1.515708 4.586884
v 1.107081 1.515537 4.587042
v 1.106265 1.515623 4.587150
v 1.105184 1.516312 4.587156
v 1.104663 1.517254 4.587012
v 1.104367 1.518467 4.586768
v 1.103989 1.519505 4.586578
v 1.103181 1.519925 4.586606
v 1.102367 1.520150 4.586680
v 1.101791 1.520728 4.586633
v 1.101279 1.521415 4.586549
v 1.100623 1.521950 4.586524
v 1.097596 1.522589 4.586850
v 1.096823 1.522986 4.586878
v 1.095253 1.523570 4.586986
v 1.093202 1.523386 4.587356
v 1.089664 1.522418 4.588148
v 1.088141 1.522185 4.588445
v 1.082919 1.522227 4.589262
v 1.082867 1.522948 4.589097
v 1.093761 1.523911 4.587141
v 1.093027 1.524561 4.587101
v 1.092491 1.525038 4.587071
v 1.091167 1.525303 4.587217
v 1.088160 1.525260 4.587704
v 1.086122 1.525159 4.588051
v 1.083949 1.526352 4.588109
v 1.082093 1.527477 4.588133
v 1.080737 1.528065 4.588206
v 1.080503 1.526969 4.588506
v 1.080113 1.525841 4.588839
v 1.078965 1.524392 4.589368
v 1.078638 1.523569 4.589618
v 1.077309 1.523692 4.589799
v 1.076972 1.522900 4.590043
v 1.076744 1.520464 4.590663
v 1.075376 1.513983 4.592436
v 1.074164 1.512023 4.593099
v 1.072613 1.510931 4.593606
v 1.071280 1.510877 4.593831
v 1.070372 1.511254 4.593884
v 1.069522 1.511785 4.593891
v 1.068381 1.512198 4.593973
v 1.062773 1.512030 4.594901
v 1.062721 1.512822 4.594719
v 1.064823 1.513619 4.594195
v 1.063667 1.514552 4.594154
v 1.062180 1.516367 4.593954
v 1.061063 1.517168 4.593938
v 1.059793 1.517618 4.594031
v 1.056845 1.517863 4.594440
v 1.054241 1.516855 4.595094
v 1.052018 1.515435 4.595787
v 1.050532 1.512028 4.596840
v 1.050186 1.511036 4.597133
v 1.051135 1.508071 4.597695
v 1.050402 1.507747 4.597889
v 1.049146 1.506915 4.598288
v 1.048411 1.506576 4.598485
v 1.048711 1.506016 4.598572
v 1.048950 1.504925 4.598796
v 1.049242 1.504247 4.598913
v 1.048113 1.504713 4.598980
v 1.047005 1.504737 4.599149
v 1.045955 1.504318 4.599417
v 1.045005 1.503452 4.599774
v 1.046875 1.502386 4.599734
v 1.048807 1.502021 4.599516
v 1.050799 1.502250 4.599146
v 1.052833 1.502952 4.598655
v 1.054109 1.498913 4.599422
v 1.053901 1.497027 4.599908
v 1.051432 1.496159 4.600507
v 1.049279 1.496195 4.600840
v 1.047333 1.496570 4.601058
v 1.045373 1.497435 4.601161
v 1.035969 1.505213 4.600783
v 1.033990 1.507507 4.600545
v 1.026028 1.511791 4.600778
v 1.023694 1.512574 4.600960
v 1.021254 1.512824 4.601286
v 1.019376 1.511991 4.601784
v 1.017235 1.510447 4.602493
v 1.015033 1.510192 4.602904
v 1.010414 1.511384 4.603349
v 1.005894 1.512032 4.603909
v 0.991683 1.510871 4.606439
v 0.990960 1.510990 4.606525
v 0.988713 1.512415 4.606539
v 0.984938 1.514145 4.606721
v 0.983982 1.514843 4.606705
v 0.983497 1.515658 4.606586
v 0.982313 1.518432 4.606107
v 0.982071 1.519308 4.605936
v 0.981648 1.519990 4.605839
v 0.979743 1.520616 4.605990
v 0.979132 1.521070 4.605978
v 0.978911 1.523353 4.605465
v 0.979020 1.526094 4.604790
v 0.978297 1.528383 4.604354
v 0.975591 1.529298 4.604564
v 0.968275 1.529220 4.605742
v 0.966575 1.529803 4.605870
v 0.963940 1.535423 4.604939
v 0.963079 1.536588 4.604795
v 0.962162 1.537186 4.604797
v 0.961093 1.537686 4.604846
v 0.960250 1.537892 4.604930
v 0.959586 1.538448 4.604902
v 0.959048 1.539744 4.604676
v 0.958355 1.542288 4.604175
v 1.128876 1.544209 4.576706
v 1.131842 1.541613 4.576859
v 1.134240 1.538569 4.577210
vn 0.1450 0.3792 0.9139
vn 0.1522 0.2307 0.9610
vn 0.1448 0.3786 0.9142
vn 0.1445 0.3787 0.9142
vn 0.1448 0.3789 0.9140
vn 0.1442 0.3783 0.9144
vn 0.1445 0.3789 0.9141
vn 0.1449 0.3787 0.9141
vn 0.1507 0.3779 0.9135
vn 0.1449 0.3792 0.9139
vn 0.1446 0.3786 0.9142
vn 0.1448 0.3787 0.9141
vn 0.1447 0.3787 0.9141
vn 0.1449 0.3782 0.9143
vn 0.1455 0.3786 0.9140
vn 0.1454 0.3787 0.9140
vn 0.1448 0.3793 0.9138
vn 0.1438 0.3787 0.9143
vn 0.1446 0.3782 0.9144
vn 0.1452 0.3787 0.9141
vn 0.1450 0.3787 0.9141
vn 0.1448 0.3788 0.9141
vn 0.1447 0.3786 0.9142
vn 0.1446 0.3787 0.9142
vn 0.1460 0.3787 0.9139
vn 0.1450 0.3786 0.9141
vn 0.1442 0.3786 0.9142
vn 0.1467 0.3787 0.9138
vn 0.1440 0.3787 0.9142
vn 0.1448 0.3786 0.9141
vn 0.1459 0.3780 0.9142
vn 0.1432 0.3786 0.9144
vn 0.1452 0.3789 0.9140
vn 0.1447 0.3788 0.9141
vn 0.1433 0.3786 0.9144
vn 0.1443 0.3787 0.9142
vn 0.1456 0.3787 0.9140
vn 0.1474 0.3784 0.9138
vn 0.1440 0.3785 0.9143
vn 0.1445 0.3786 0.9142
vn 0.1439 0.3785 0.9143
vn 0.1449 0.3784 0.9142
vn 0.1445 0.3788 0.9141
vn 0.1449 0.3786 0.9142
vn 0.1446 0.3783 0.9143
vn 0.1458 0.3786 0.9140
vn 0.1443 0.3788 0.9142
vn 0.1451 0.3786 0.9141
vn 0.1447 0.3787 0.9142
vn 0.1453 0.3783 0.9142
vn 0.1455 0.3787 0.9140
vn 0.1447 0.3782 0.9143
vn 0.1453 0.3780 0.9143
vn 0.1449 0.3788 0.9141
vn 0.1450 0.3784 0.9142
vn 0.1448 0.3791 0.9140
vn 0.1468 0.3784 0.9139
vn 0.1452 0.3783 0.9142
vn 0.1439 0.3788 0.9142
vn 0.1449 0.3786 0.9141
vn 0.1447 0.3789 0.9140
vn 0.1442 0.3787 0.9142
vn 0.1466 0.3785 0.9139
vn 0.1445 0.3794 0.9139
vn 0.1454 0.3788 0.9140
vn 0.1448 0.3793 0.9139
vn 0.1447 0.3781 0.9144
vn 0.1452 0.3804 0.9133
vn 0.1454 0.3796 0.9136
vn 0.1419 0.3781 0.9148
vn 0.1475 0.3789 0.9136
vn 0.1447 0.3793 0.9139
vn 0.1518 0.2301 0.9613
vn 0.1527 0.2308 0.9609
vn 0.1515 0.2310 0.9611
vn 0.1525 0.2306 0.9610
vn 0.1519 0.2293 0.9614
vn 0.1522 0.2307 0.9611
vn 0.1521 0.2307 0.9611
vn 0.1518 0.2309 0.9611
vn 0.1529 0.2311 0.9609
vn 0.1509 0.2309 0.9612
vn 0.1523 0.2307 0.9610
vn 0.1524 0.2307 0.9610
vn 0.1515 0.2308 0.9611
vn 0.1518 0.2306 0.9612
vn 0.1523 0.2305 0.9611
vn 0.1520 0.2307 0.9611
vn 0.1521 0.2310 0.9610
vn 0.1527 0.2306 0.9610
vn 0.1519 0.2308 0.9611
vn 0.1521 0.2309 0.9610
vn 0.1523 0.2308 0.9610
vn 0.1522 0.2308 0.9610
vn 0.1518 0.2303 0.9612
vn 0.1549 0.2312 0.9605
vn 0.1521 0.2306 0.9611
vn 0.1517 0.2309 0.9611
vn 0.1526 0.2309 0.9609
vn 0.1510 0.2303 0.9613
vn 0.1524 0.2309 0.9610
vn 0.1513 0.2298 0.9614
vn 0.1517 0.2308 0.9611
vn 0.1524 0.2305 0.9611
vn 0.1522 0.2309 0.9610
vn 0.1525 0.2303 0.9611
vn 0.1522 0.2302 0.9612
vn 0.1524 0.2306 0.9610
vn 0.1524 0.2297 0.9613
vn 0.1524 0.2304 0.9611
vn 0.1523 0.2306 0.9611
vn 0.1520 0.2308 0.9611
vn 0.1523 0.2301 0.9612
vn 0.1508 0.2304 0.9613
vn 0.1532 0.2312 0.9608
vn 0.1516 0.2306 0.9612
vn 0.1526 0.2305 0.9610
vn 0.1533 0.2302 0.9610
vn 0.1510 0.2311 0.9611
vn 0.1513 0.2294 0.9615
vn 0.1496 0.2297 0.9617
vn 0.1522 0.2310 0.9610
vn 0.1535 0.2313 0.9607
vn 0.1523 0.2309 0.9610
vn 0.1518 0.2308 0.9611
vn 0.1508 0.2288 0.9617
vn 0.1513 0.2306 0.9612
vn 0.1501 0.2309 0.9613
vn 0.1520 0.2308 0.9610
vn 0.1536 0.2309 0.9608
vn 0.1525 0.2289 0.9614
vn 0.1524 0.2303 0.9611
vn 0.1547 0.2301 0.9608
vn 0.1524 0.2319 0.9607
vn 0.1527 0.2303 0.9611
vn 0.1523 0.2304 0.9611
vn 0.1527 0.2309 0.9609
vn 0.1519 0.2302 0.9612
vn 0.1520 0.2305 0.9611
vn 0.1521 0.2305 0.9611
vn 0.1521 0.2308 0.9610
vn 0.1517 0.2318 0.9609
vn 0.1526 0.2304 0.9611
vn 0.1523 0.2306 0.9610
vn 0.1519 0.2309 0.9611
vn 0.1524 0.2308 0.9610
vn 0.1523 0.2310 0.9610
vn 0.1531 0.2304 0.9610
vn 0.1513 0.2308 0.9612
vn 0.1534 0.2306 0.9609
vn 0.1526 0.2310 0.9609
usemtl None
s off
f 73//1 72//1 71//1
f 189//2 173//2 168//2
f 1//3 2//3 109//3
f 2//4 116//4 115//4
f 114//5 2//5 115//5
f 113//6 112//6 111//6
f 2//7 114//7 110//7
f 113//8 111//8 110//8
f 2//9 110//9 109//9
f 114//10 113//10 110//10
f 3//11 1//11 46//11
f 6//12 5//12 36//12
f 5//12 4//12 40//12
f 45//13 4//13 3//13
f 1//12 109//12 104//12
f 1//14 104//14 103//14
f 4//15 45//15 44//15
f 1//12 103//12 97//12
f 104//16 109//16 108//16
f 108//17 107//17 106//17
f 9//18 8//18 10//18
f 8//19 7//19 10//19
f 7//20 6//20 32//20
f 1//12 97//12 76//12
f 106//21 105//21 104//21
f 1//3 76//3 69//3
f 108//22 106//22 104//22
f 13//3 12//3 22//3
f 12//23 11//23 32//23
f 22//3 12//3 32//3
f 11//23 10//23 7//23
f 1//12 69//12 62//12
f 11//24 7//24 32//24
f 15//21 14//21 20//21
f 14//20 13//20 21//20
f 20//25 14//25 21//25
f 17//26 16//26 20//26
f 16//27 15//27 20//27
f 19//28 18//28 17//28
f 20//29 19//29 17//29
f 1//30 62//30 59//30
f 97//31 103//31 98//31
f 102//13 101//13 99//13
f 101//32 100//32 99//32
f 103//33 102//33 98//33
f 98//34 102//34 99//34
f 22//35 21//35 13//35
f 24//12 23//12 25//12
f 23//36 22//36 28//36
f 25//37 23//37 28//37
f 27//38 26//38 25//38
f 1//12 59//12 57//12
f 76//39 97//39 96//39
f 27//36 25//36 28//36
f 40//30 4//30 41//30
f 95//40 94//40 92//40
f 94//41 93//41 92//41
f 96//7 95//7 82//7
f 29//22 28//22 22//22
f 31//42 30//42 32//42
f 30//43 29//43 32//43
f 34//44 33//44 36//44
f 33//22 32//22 36//22
f 29//23 22//23 32//23
f 76//45 96//45 77//45
f 95//46 92//46 91//46
f 35//23 34//23 36//23
f 38//47 37//47 36//47
f 6//30 36//30 32//30
f 95//13 91//13 82//13
f 91//48 90//48 82//48
f 1//49 57//49 56//49
f 39//50 38//50 36//50
f 89//11 88//11 87//11
f 90//51 89//51 85//51
f 40//23 39//23 36//23
f 42//52 41//52 43//52
f 43//53 41//53 44//53
f 44//23 41//23 4//23
f 40//8 36//8 5//8
f 96//12 82//12 77//12
f 89//11 87//11 86//11
f 86//23 85//23 89//23
f 85//4 84//4 90//4
f 84//54 83//54 90//54
f 83//3 82//3 90//3
f 46//8 45//8 3//8
f 47//23 46//23 1//23
f 47//12 1//12 56//12
f 81//55 80//55 78//55
f 80//56 79//56 78//56
f 50//57 49//57 48//57
f 52//58 51//58 53//58
f 51//59 50//59 48//59
f 53//12 47//12 54//12
f 56//12 55//12 47//12
f 55//60 54//60 47//60
f 59//61 58//61 57//61
f 53//62 51//62 47//62
f 47//63 51//63 48//63
f 81//30 78//30 77//30
f 82//64 81//64 77//64
f 61//65 60//65 62//65
f 60//60 59//60 62//60
f 64//66 63//66 62//66
f 75//67 74//67 70//67
f 74//68 73//68 71//68
f 76//20 75//20 70//20
f 65//54 64//54 68//54
f 64//13 62//13 69//13
f 68//69 64//69 69//69
f 67//70 66//70 68//70
f 66//11 65//11 68//11
f 69//71 76//71 70//71
f 74//72 71//72 70//72
f 2//2 1//2 168//2
f 1//73 250//73 244//73
f 168//2 1//2 190//2
f 250//74 249//74 246//74
f 249//75 248//75 246//75
f 250//76 246//76 245//76
f 248//77 247//77 246//77
f 1//78 239//78 190//78
f 253//79 252//79 136//79
f 252//2 251//2 136//2
f 251//80 2//80 151//80
f 239//81 1//81 240//81
f 2//79 168//79 163//79
f 250//82 245//82 244//82
f 117//83 253//83 136//83
f 151//79 2//79 162//79
f 119//84 118//84 130//84
f 118//85 117//85 130//85
f 117//83 136//83 131//83
f 243//86 242//86 241//86
f 244//87 243//87 240//87
f 240//88 1//88 244//88
f 120//83 119//83 130//83
f 251//89 151//89 150//89
f 136//84 251//84 137//84
f 123//90 122//90 121//90
f 123//83 121//83 124//83
f 121//91 120//91 124//91
f 126//92 125//92 129//92
f 125//2 124//2 130//2
f 129//78 125//78 130//78
f 243//93 241//93 240//93
f 124//94 120//94 130//94
f 128//95 127//95 126//95
f 129//96 128//96 126//96
f 238//97 237//97 234//97
f 237//98 236//98 235//98
f 234//99 237//99 235//99
f 233//100 232//100 228//100
f 232//101 231//101 229//101
f 232//89 229//89 228//89
f 231//102 230//102 229//102
f 238//2 234//2 225//2
f 234//103 233//103 225//103
f 239//99 238//99 225//99
f 228//104 227//104 226//104
f 233//83 228//83 225//83
f 228//2 226//2 225//2
f 224//105 223//105 221//105
f 223//106 222//106 221//106
f 225//107 224//107 220//107
f 224//108 221//108 220//108
f 239//94 225//94 220//94
f 239//2 220//2 190//2
f 190//109 220//109 191//109
f 220//110 219//110 191//110
f 131//78 130//78 117//78
f 133//97 132//97 134//97
f 132//88 131//88 134//88
f 135//111 134//111 131//111
f 138//94 137//94 146//94
f 146//2 137//2 251//2
f 139//112 138//112 146//112
f 136//97 135//97 131//97
f 219//97 218//97 192//97
f 217//105 216//105 204//105
f 216//93 215//93 205//93
f 205//94 215//94 206//94
f 215//88 214//88 206//88
f 214//83 213//83 207//83
f 213//97 212//97 208//97
f 207//88 213//88 208//88
f 212//84 211//84 210//84
f 210//83 209//83 208//83
f 210//97 208//97 212//97
f 206//83 214//83 207//83
f 218//78 217//78 192//78
f 216//113 205//113 204//113
f 140//90 139//90 145//90
f 142//114 141//114 143//114
f 141//115 140//115 144//115
f 144//116 143//116 141//116
f 145//105 144//105 140//105
f 139//117 146//117 145//117
f 217//105 204//105 198//105
f 217//2 198//2 194//2
f 204//118 203//118 198//118
f 149//119 148//119 147//119
f 146//83 251//83 150//83
f 149//120 147//120 150//120
f 147//121 146//121 150//121
f 219//122 192//122 191//122
f 202//123 201//123 200//123
f 217//97 194//97 193//97
f 203//124 202//124 199//124
f 198//125 203//125 199//125
f 153//126 152//126 151//126
f 202//127 200//127 199//127
f 198//128 197//128 194//128
f 197//129 196//129 194//129
f 196//130 195//130 194//130
f 153//111 151//111 162//111
f 154//131 153//131 162//131
f 217//84 193//84 192//84
f 157//95 156//95 159//95
f 156//2 155//2 160//2
f 159//132 158//132 157//132
f 162//133 161//133 154//133
f 161//134 160//134 154//134
f 160//111 159//111 156//111
f 160//135 155//135 154//135
f 190//136 189//136 168//136
f 163//137 162//137 2//137
f 166//83 165//83 164//83
f 166//138 164//138 167//138
f 164//139 163//139 167//139
f 187//2 186//2 175//2
f 186//129 185//129 175//129
f 185//140 184//140 183//140
f 185//84 183//84 182//84
f 185//141 182//141 175//141
f 181//140 180//140 177//140
f 180//142 179//142 178//142
f 182//143 181//143 176//143
f 175//144 182//144 176//144
f 188//105 187//105 174//105
f 188//145 174//145 173//145
f 180//146 178//146 177//146
f 177//147 176//147 181//147
f 175//83 174//83 187//83
f 173//146 172//146 171//146
f 173//148 171//148 170//148
f 173//149 170//149 169//149
f 173//150 169//150 168//150
f 168//151 167//151 163//151
f 189//106 188//106 173//106
