# Blender v2.81 (sub 16) OBJ File: ''
# www.blender.org
mtllib Jordan.mtl
o 0_Jordan_sphere.001
v 3.335754 2.679133 -2.587470
v 3.400601 2.545206 -2.637770
v 3.415382 2.679133 -2.481415
v 3.449006 2.612492 -2.505843
v 3.481778 2.545206 -2.529653
v 3.513690 2.477292 -2.552840
v 3.485512 2.477292 -2.590370
v 3.407180 2.530870 -2.642874
v 3.531236 2.438568 -2.565587
v 3.557611 2.477292 -2.490348
v 3.434419 2.679133 -2.454327
v 3.399699 2.679133 -2.502303
v 3.372652 2.679133 -2.538326
v 3.404063 2.612492 -2.565701
v 3.405584 2.697889 -2.474296
v 3.407402 2.694410 -2.475616
v 3.472204 2.612492 -2.472835
v 3.396768 2.545206 -2.642554
v 3.263774 2.745113 -2.609183
v 3.256472 2.745113 -2.618297
v 3.318707 2.712544 -2.574247
v 3.361074 2.627750 -2.607110
v 3.516394 2.545206 -2.480399
v 3.280172 2.679133 -2.656847
v 3.397642 2.551425 -2.635475
v 3.407377 2.693173 -2.476979
v 3.407614 2.688909 -2.481248
v 3.407817 2.688058 -2.481894
v 3.407322 2.687655 -2.482986
v 3.406712 2.687620 -2.483837
v 3.404918 2.687928 -2.485895
v 3.404335 2.687634 -2.486988
v 3.403815 2.687707 -2.487601
v 3.402984 2.688344 -2.488023
v 3.402418 2.688071 -2.489070
v 3.402043 2.686031 -2.491763
v 3.400633 2.683254 -2.496627
v 3.371702 2.679749 -2.538928
v 3.361720 2.685965 -2.545540
v 3.354543 2.690382 -2.550349
v 3.343470 2.697217 -2.557747
v 3.338347 2.700385 -2.561163
v 3.332408 2.704057 -2.565124
v 3.321383 2.710883 -2.572469
v 3.363139 2.627014 -2.605124
v 3.366313 2.625874 -2.602081
v 3.379720 2.621093 -2.589190
v 3.393141 2.616341 -2.576250
v 3.399436 2.678048 -2.503779
v 3.399050 2.677520 -2.504842
v 3.398369 2.677136 -2.506148
v 3.396056 2.676773 -2.509606
v 3.395663 2.676131 -2.510795
v 3.394184 2.675849 -2.513058
v 3.388655 2.674788 -2.521525
v 3.387921 2.673065 -2.524292
v 3.386826 2.673709 -2.525081
v 3.385884 2.673672 -2.526374
v 3.383585 2.672609 -2.530540
v 3.382981 2.672574 -2.531381
v 3.382274 2.672850 -2.532036
v 3.406556 2.611612 -2.563262
v 3.405077 2.602568 -2.574300
v 3.403583 2.593524 -2.585356
v 3.402065 2.584506 -2.596419
v 3.400530 2.575492 -2.607501
v 3.400469 2.575021 -2.608053
v 3.400419 2.574541 -2.608602
v 3.399440 2.566268 -2.618200
v 3.398452 2.558009 -2.627797
v 3.408441 2.530118 -2.641922
v 3.415211 2.526051 -2.636839
v 3.416845 2.524771 -2.635901
v 3.418062 2.523399 -2.635608
v 3.421556 2.518691 -2.635508
v 3.425825 2.512944 -2.635381
v 3.429757 2.507663 -2.635252
v 3.435056 2.500535 -2.635089
v 3.436622 2.499262 -2.634235
v 3.442734 2.497610 -2.627694
v 3.449677 2.495733 -2.620261
v 3.457089 2.493744 -2.612313
v 3.464550 2.491766 -2.604289
v 3.469157 2.490566 -2.599314
v 3.473648 2.489392 -2.594468
v 3.475319 2.488489 -2.593116
v 3.477192 2.486806 -2.592248
v 3.482569 2.480655 -2.591037
v 3.487030 2.475524 -2.589997
v 3.493029 2.468503 -2.588556
v 3.499209 2.461285 -2.587055
v 3.504630 2.457070 -2.583768
v 3.512800 2.450721 -2.578806
v 3.520228 2.444968 -2.574278
v 3.527839 2.439096 -2.569618
v 3.529318 2.438418 -2.568281
v 3.530581 2.438385 -2.566631
v 3.254830 2.750292 -2.614813
v 3.310120 2.717681 -2.579660
v 3.301710 2.722716 -2.584958
v 3.290303 2.729445 -2.592249
v 3.284760 2.732719 -2.595787
v 3.270801 2.740985 -2.604675
v 3.258039 2.739870 -2.621756
v 3.260852 2.730474 -2.627947
v 3.263168 2.722683 -2.633102
v 3.266311 2.712262 -2.639938
v 3.269560 2.701491 -2.647006
v 3.274202 2.686134 -2.657070
v 3.278512 2.684613 -2.653261
v 3.281540 2.672251 -2.662003
v 3.271231 2.675570 -2.671561
v 3.270649 2.674817 -2.673038
v 3.271061 2.672544 -2.674791
v 3.272499 2.667558 -2.677969
v 3.274799 2.665211 -2.677438
v 3.283457 2.658742 -2.673084
v 3.283721 2.658173 -2.673321
v 3.284285 2.657963 -2.672826
v 3.285632 2.657037 -2.672070
v 3.294566 2.649907 -2.668028
v 3.296616 2.648977 -2.666397
v 3.302894 2.646881 -2.660651
v 3.315328 2.642764 -2.649236
v 3.327765 2.638672 -2.637795
v 3.340209 2.634598 -2.626323
v 3.350677 2.631196 -2.616652
v 3.352673 2.630552 -2.614802
v 3.281644 2.673723 -2.660404
v 3.281831 2.672615 -2.661277
v 3.397410 2.549738 -2.637390
v 3.469509 2.617399 -2.471348
v 3.466097 2.622786 -2.470361
v 3.463473 2.626074 -2.470529
v 3.460535 2.629764 -2.470707
v 3.458025 2.632018 -2.471834
v 3.456901 2.636015 -2.469099
v 3.456624 2.636565 -2.468897
v 3.455686 2.637498 -2.469219
v 3.453721 2.643428 -2.465583
v 3.453304 2.644023 -2.465533
v 3.452567 2.644371 -2.466204
v 3.451864 2.645307 -2.466190
v 3.451703 2.646123 -2.465533
v 3.451464 2.646740 -2.465204
v 3.450975 2.647751 -2.464803
v 3.450668 2.648540 -2.464386
v 3.450244 2.650278 -2.463104
v 3.448588 2.653703 -2.461746
v 3.447704 2.654976 -2.461622
v 3.446544 2.655852 -2.462323
v 3.446532 2.656768 -2.461346
v 3.446064 2.657629 -2.461080
v 3.444438 2.659433 -2.461436
v 3.444414 2.659908 -2.460956
v 3.443848 2.660647 -2.460959
v 3.443367 2.660912 -2.461356
v 3.443085 2.661464 -2.461158
v 3.442819 2.662340 -2.460587
v 3.442034 2.663523 -2.460421
v 3.439703 2.667024 -2.459942
v 3.440262 2.667025 -2.459144
v 3.439728 2.667705 -2.459168
v 3.439159 2.668088 -2.459562
v 3.439067 2.668943 -2.458765
v 3.438506 2.670356 -2.458031
v 3.437774 2.671765 -2.457545
v 3.437144 2.672630 -2.457502
v 3.436976 2.673727 -2.456553
v 3.435807 2.675950 -2.455805
v 3.435673 2.676667 -2.455218
v 3.435093 2.677178 -2.455489
v 3.435089 2.676673 -2.456043
v 3.434658 2.677910 -2.455313
v 3.434600 2.678369 -2.454899
v 3.515711 2.546193 -2.480337
v 3.509415 2.553875 -2.481253
v 3.508195 2.555669 -2.481111
v 3.507081 2.557557 -2.480719
v 3.506513 2.558400 -2.480645
v 3.505785 2.559305 -2.480734
v 3.505159 2.559894 -2.481008
v 3.503950 2.560878 -2.481698
v 3.503348 2.561590 -2.481809
v 3.502389 2.563252 -2.481434
v 3.501589 2.564922 -2.480825
v 3.500641 2.566619 -2.480396
v 3.499262 2.568313 -2.480586
v 3.498365 2.569073 -2.481064
v 3.496372 2.570755 -2.482140
v 3.495223 2.572119 -2.482347
v 3.494083 2.574466 -2.481513
v 3.492724 2.576664 -2.481144
v 3.487761 2.582649 -2.481941
v 3.486514 2.584778 -2.481485
v 3.485809 2.586822 -2.480349
v 3.485538 2.588690 -2.478780
v 3.485260 2.590191 -2.477604
v 3.484726 2.592113 -2.476351
v 3.483945 2.594169 -2.475309
v 3.482514 2.595992 -2.475438
v 3.481140 2.597562 -2.475750
v 3.480268 2.599184 -2.475291
v 3.480325 2.599721 -2.474648
v 3.478467 2.601875 -2.475038
v 3.476219 2.604896 -2.475074
v 3.475213 2.606590 -2.474732
v 3.474832 2.607342 -2.474486
v 3.472632 2.611686 -2.473069
v 3.556274 2.479398 -2.490123
v 3.550351 2.487629 -2.490237
v 3.549443 2.489160 -2.489983
v 3.547225 2.493748 -2.488505
v 3.545693 2.496306 -2.488099
v 3.545212 2.496959 -2.488125
v 3.544717 2.497542 -2.488240
v 3.544240 2.498210 -2.488244
v 3.543779 2.499121 -2.487980
v 3.541867 2.502095 -2.487698
v 3.538006 2.506307 -2.488937
v 3.536093 2.508848 -2.489092
v 3.534964 2.511229 -2.488294
v 3.533648 2.515862 -2.485486
v 3.532609 2.518017 -2.484789
v 3.531679 2.519318 -2.484798
v 3.529393 2.523261 -2.484067
v 3.528682 2.524210 -2.484120
v 3.528020 2.524989 -2.484276
v 3.527401 2.525797 -2.484341
v 3.526810 2.526844 -2.484124
v 3.526410 2.527930 -2.483596
v 3.526309 2.529456 -2.482199
v 3.526153 2.530236 -2.481633
v 3.525283 2.532058 -2.481030
v 3.523060 2.535137 -2.481084
v 3.522003 2.536936 -2.480771
v 3.534669 2.439507 -2.559788
v 3.539181 2.440734 -2.552173
v 3.541407 2.441348 -2.548408
v 3.546007 2.442645 -2.540600
v 3.551784 2.444278 -2.530790
v 3.557178 2.445832 -2.521600
v 3.563194 2.447598 -2.511321
v 3.567760 2.448976 -2.503483
v 3.572027 2.450279 -2.496142
v 3.571167 2.450905 -2.496757
v 3.567685 2.457854 -2.494943
v 3.566457 2.459853 -2.494745
v 3.564071 2.462977 -2.495096
v 3.563550 2.464195 -2.494652
v 3.563810 2.465600 -2.492914
v 3.564418 2.465593 -2.492055
v 3.564251 2.466156 -2.491744
v 3.563325 2.468199 -2.491072
v 3.562239 2.469875 -2.490986
v 3.560995 2.471319 -2.491349
v 3.559702 2.473225 -2.491334
v 3.434386 2.679741 -2.453692
v 3.433914 2.679862 -2.454227
v 3.433511 2.680361 -2.454241
v 3.433574 2.680747 -2.453718
v 3.433014 2.681205 -2.454001
v 3.433071 2.681702 -2.453362
v 3.432202 2.682256 -2.453976
v 3.432205 2.682755 -2.453411
v 3.431410 2.683212 -2.454029
v 3.431116 2.683765 -2.453827
v 3.431365 2.684052 -2.453149
v 3.431095 2.684712 -2.452794
v 3.430680 2.685215 -2.452819
v 3.430222 2.685600 -2.453038
v 3.429754 2.685768 -2.453516
v 3.429591 2.686835 -2.452549
v 3.429476 2.687805 -2.451623
v 3.429049 2.688273 -2.451707
v 3.428473 2.689734 -2.450885
v 3.427655 2.690572 -2.451109
v 3.427099 2.690832 -2.451606
v 3.426857 2.691743 -2.450928
v 3.425993 2.693643 -2.450024
v 3.425888 2.694303 -2.449433
v 3.425601 2.694851 -2.449226
v 3.425066 2.695312 -2.449470
v 3.425261 2.695624 -2.448843
v 3.425154 2.696148 -2.448406
v 3.424818 2.696751 -2.448206
v 3.424194 2.697184 -2.448609
v 3.423561 2.697676 -2.448957
v 3.422267 2.698922 -2.449398
v 3.421061 2.699741 -2.450195
v 3.420144 2.699571 -2.451691
v 3.419188 2.700091 -2.452466
v 3.416820 2.701934 -2.453767
v 3.413353 2.704103 -2.456264
v 3.412479 2.704373 -2.457205
v 3.411810 2.704659 -2.457835
v 3.411549 2.704397 -2.458501
v 3.411554 2.703656 -2.459326
v 3.407801 2.702123 -2.466388
v 3.407578 2.701780 -2.467091
v 3.407409 2.700702 -2.468541
v 3.406703 2.700605 -2.469653
v 3.406797 2.699991 -2.470210
v 3.407396 2.699209 -2.470235
v 3.407514 2.698550 -2.470809
v 3.407411 2.698037 -2.471531
v 3.407086 2.697813 -2.472245
v 3.406389 2.697974 -2.473054
v 3.396174 2.541324 -2.646902
v 3.395586 2.537500 -2.651187
v 3.396128 2.537125 -2.650858
v 3.400777 2.534496 -2.647498
vn 0.6718 0.5424 -0.5044
vn 0.6851 0.5157 -0.5144
vn 0.6874 0.5423 -0.4831
vn 0.6952 0.5289 -0.4869
vn 0.7010 0.5157 -0.4926
vn 0.7075 0.5022 -0.4972
vn 0.6717 0.5424 -0.5045
vn 0.6788 0.5288 -0.5095
vn 0.6915 0.5022 -0.5192
vn 0.6978 0.4886 -0.5238
vn 0.6489 0.5556 -0.5199
vn 0.6557 0.5424 -0.5253
vn 0.6626 0.5290 -0.5302
vn 0.6686 0.5158 -0.5357
vn 0.6946 0.5289 -0.4876
vn 0.7140 0.4880 -0.5020
vn 0.6874 0.5424 -0.4830
vn 0.6749 0.5022 -0.5407
vn 0.6718 0.5424 -0.5045
vn 0.6719 0.5424 -0.5044
vn 0.6718 0.5425 -0.5045
vn 0.6830 0.5067 -0.5260
vn 0.6851 0.5156 -0.5145
vn 0.6875 0.5423 -0.4829
vn 0.6873 0.5424 -0.4831
vn 0.6873 0.5425 -0.4830
vn 0.6872 0.5424 -0.4834
vn 0.6873 0.5425 -0.4831
vn 0.6880 0.5421 -0.4824
vn 0.6872 0.5421 -0.4836
vn 0.6867 0.5404 -0.4863
vn 0.6868 0.5428 -0.4834
vn 0.6881 0.5417 -0.4828
vn 0.6876 0.5431 -0.4819
vn 0.6871 0.5428 -0.4829
vn 0.6866 0.5433 -0.4831
vn 0.6884 0.5421 -0.4819
vn 0.6872 0.5426 -0.4831
vn 0.6943 0.5291 -0.4879
vn 0.6942 0.5291 -0.4879
vn 0.6942 0.5291 -0.4880
vn 0.6943 0.5289 -0.4880
vn 0.6945 0.5268 -0.4900
vn 0.6941 0.5292 -0.4880
vn 0.6941 0.5293 -0.4880
vn 0.6945 0.5286 -0.4880
vn 0.6940 0.5294 -0.4880
vn 0.6940 0.5296 -0.4877
vn 0.6945 0.5288 -0.4879
vn 0.6941 0.5293 -0.4879
vn 0.6942 0.5291 -0.4881
vn 0.6944 0.5289 -0.4879
vn 0.6944 0.5292 -0.4876
vn 0.6940 0.5301 -0.4871
vn 0.6939 0.5295 -0.4879
vn 0.6943 0.5290 -0.4879
vn 0.6941 0.5289 -0.4883
vn 0.6946 0.5289 -0.4877
vn 0.6942 0.5293 -0.4878
vn 0.6946 0.5288 -0.4877
vn 0.6943 0.5293 -0.4876
vn 0.6950 0.5295 -0.4864
vn 0.6944 0.5292 -0.4875
vn 0.6938 0.5290 -0.4888
vn 0.6944 0.5289 -0.4880
vn 0.6943 0.5288 -0.4882
vn 0.6941 0.5291 -0.4882
vn 0.6949 0.5294 -0.4866
vn 0.6943 0.5291 -0.4878
vn 0.6944 0.5290 -0.4878
vn 0.7010 0.5157 -0.4927
vn 0.7009 0.5157 -0.4926
vn 0.7009 0.5158 -0.4926
vn 0.7007 0.5163 -0.4924
vn 0.7010 0.5156 -0.4927
vn 0.7007 0.5156 -0.4931
vn 0.7012 0.5156 -0.4924
vn 0.7009 0.5157 -0.4927
vn 0.7003 0.5162 -0.4930
vn 0.7011 0.5155 -0.4927
vn 0.7016 0.5150 -0.4925
vn 0.7015 0.5155 -0.4921
vn 0.7007 0.5158 -0.4929
vn 0.7008 0.5158 -0.4928
vn 0.7011 0.5158 -0.4924
vn 0.7008 0.5153 -0.4933
vn 0.7013 0.5153 -0.4925
vn 0.7013 0.5156 -0.4922
vn 0.7005 0.5152 -0.4938
vn 0.7008 0.5159 -0.4927
vn 0.7010 0.5158 -0.4926
vn 0.7004 0.5160 -0.4932
vn 0.7075 0.5022 -0.4973
vn 0.7074 0.5023 -0.4972
vn 0.7075 0.5018 -0.4977
vn 0.7076 0.5019 -0.4974
vn 0.7067 0.5029 -0.4977
vn 0.7076 0.5022 -0.4971
vn 0.7083 0.5017 -0.4966
vn 0.7081 0.5018 -0.4968
vn 0.7074 0.5022 -0.4973
vn 0.7038 0.5016 -0.5031
vn 0.7079 0.5026 -0.4962
vn 0.7075 0.5021 -0.4973
vn 0.7075 0.5014 -0.4981
vn 0.7074 0.5021 -0.4975
vn 0.7065 0.5028 -0.4980
vn 0.7069 0.5032 -0.4970
vn 0.7076 0.5018 -0.4975
vn 0.7080 0.5020 -0.4967
vn 0.7075 0.5023 -0.4971
vn 0.6717 0.5426 -0.5044
vn 0.6717 0.5424 -0.5046
vn 0.6716 0.5428 -0.5044
vn 0.6718 0.5425 -0.5043
vn 0.6719 0.5423 -0.5044
vn 0.6722 0.5418 -0.5046
vn 0.6724 0.5414 -0.5047
vn 0.6718 0.5423 -0.5045
vn 0.6718 0.5425 -0.5044
vn 0.6719 0.5424 -0.5043
vn 0.6786 0.5291 -0.5095
vn 0.6789 0.5291 -0.5090
vn 0.6786 0.5291 -0.5094
vn 0.6785 0.5291 -0.5095
vn 0.6785 0.5291 -0.5096
vn 0.6790 0.5290 -0.5091
vn 0.6787 0.5291 -0.5094
vn 0.6781 0.5296 -0.5095
vn 0.6784 0.5294 -0.5095
vn 0.6788 0.5289 -0.5093
vn 0.6786 0.5290 -0.5095
vn 0.6782 0.5296 -0.5095
vn 0.6912 0.5021 -0.5197
vn 0.6914 0.5024 -0.5192
vn 0.6916 0.5022 -0.5192
vn 0.6915 0.5023 -0.5191
vn 0.6916 0.5022 -0.5191
vn 0.6915 0.5022 -0.5193
vn 0.6915 0.5021 -0.5193
vn 0.6977 0.4886 -0.5239
vn 0.6973 0.4895 -0.5237
vn 0.6979 0.4884 -0.5238
vn 0.6974 0.4892 -0.5237
vn 0.6556 0.5424 -0.5253
vn 0.6557 0.5424 -0.5252
vn 0.6622 0.5291 -0.5306
vn 0.6621 0.5292 -0.5306
vn 0.6623 0.5291 -0.5305
vn 0.6622 0.5292 -0.5305
vn 0.6624 0.5290 -0.5305
vn 0.6617 0.5295 -0.5308
vn 0.6622 0.5291 -0.5305
vn 0.6622 0.5291 -0.5307
vn 0.6620 0.5291 -0.5308
vn 0.6685 0.5157 -0.5358
vn 0.7139 0.4886 -0.5017
vn 0.7138 0.4886 -0.5017
vn 0.7137 0.4887 -0.5017
vn 0.7140 0.4885 -0.5016
vn 0.7137 0.4887 -0.5018
vn 0.7138 0.4886 -0.5018
vn 0.7141 0.4882 -0.5017
vn 0.7139 0.4884 -0.5017
vn 0.7138 0.4887 -0.5017
vn 0.7140 0.4884 -0.5016
vn 0.7139 0.4886 -0.5016
vn 0.7139 0.4885 -0.5018
vn 0.6876 0.5422 -0.4829
vn 0.6872 0.5425 -0.4832
vn 0.6876 0.5422 -0.4830
vn 0.6871 0.5424 -0.4834
vn 0.6881 0.5414 -0.4832
vn 0.6869 0.5427 -0.4833
vn 0.6873 0.5424 -0.4830
vn 0.6874 0.5421 -0.4833
vn 0.6876 0.5416 -0.4836
vn 0.6867 0.5432 -0.4831
vn 0.6872 0.5425 -0.4833
vn 0.6874 0.5424 -0.4831
vn 0.6872 0.5424 -0.4833
vn 0.6877 0.5424 -0.4826
vn 0.6869 0.5436 -0.4824
vn 0.6878 0.5420 -0.4829
vn 0.6871 0.5428 -0.4830
vn 0.6874 0.5426 -0.4827
vn 0.6870 0.5430 -0.4829
vn 0.6874 0.5426 -0.4828
vn 0.6876 0.5421 -0.4830
vn 0.6871 0.5426 -0.4831
vn 0.6874 0.5422 -0.4833
vn 0.6878 0.5424 -0.4825
vn 0.6877 0.5413 -0.4838
vn 0.6874 0.5423 -0.4832
vn 0.6871 0.5429 -0.4829
vn 0.6750 0.5020 -0.5407
vn 0.6749 0.5023 -0.5406
usemtl None
s off
f 41//1 40//1 1//1
f 65//2 64//2 5//2
f 272//3 266//3 3//3
f 157//4 154//4 151//4
f 194//5 193//5 191//5
f 228//6 225//6 222//6
f 30//7 29//7 3//7
f 55//8 54//8 56//8
f 81//9 80//9 76//9
f 89//10 7//10 6//10
f 20//11 98//11 19//11
f 103//12 102//12 105//12
f 130//13 129//13 123//13
f 131//14 2//14 18//14
f 171//15 173//15 172//15
f 253//16 252//16 251//16
f 298//17 305//17 301//17
f 312//18 309//18 2//18
f 1//19 21//19 44//19
f 43//1 42//1 1//1
f 42//20 41//20 1//20
f 1//1 44//1 43//1
f 38//21 13//21 1//21
f 40//1 39//1 1//1
f 39//20 38//20 1//20
f 5//2 2//2 69//2
f 2//2 25//2 70//2
f 2//2 70//2 69//2
f 62//2 4//2 5//2
f 63//2 62//2 5//2
f 68//22 67//22 66//22
f 5//2 69//2 68//2
f 64//2 63//2 5//2
f 68//23 66//23 5//23
f 66//2 65//2 5//2
f 11//24 3//24 260//24
f 3//25 16//25 272//25
f 260//26 3//26 266//26
f 16//25 274//25 273//25
f 272//17 271//17 267//17
f 271//27 270//27 267//27
f 16//28 273//28 272//28
f 259//29 258//29 11//29
f 262//30 261//30 260//30
f 260//31 259//31 11//31
f 270//32 269//32 267//32
f 269//33 268//33 267//33
f 260//34 264//34 262//34
f 264//35 263//35 262//35
f 264//36 260//36 266//36
f 272//37 267//37 266//37
f 266//38 265//38 264//38
f 17//39 4//39 132//39
f 4//40 3//40 143//40
f 132//41 4//41 133//41
f 3//42 11//42 174//42
f 11//43 175//43 174//43
f 174//44 172//44 173//44
f 136//40 4//40 139//40
f 134//39 133//39 4//39
f 136//45 135//45 134//45
f 138//46 137//46 139//46
f 137//47 136//47 139//47
f 141//48 140//48 142//48
f 140//49 139//49 142//49
f 136//39 134//39 4//39
f 3//50 174//50 173//50
f 173//51 171//51 170//51
f 170//52 169//52 173//52
f 169//53 168//53 173//53
f 168//54 167//54 166//54
f 166//55 165//55 164//55
f 164//56 163//56 161//56
f 163//57 162//57 161//57
f 161//58 160//58 158//58
f 160//59 159//59 158//59
f 168//60 166//60 164//60
f 139//40 4//40 143//40
f 139//61 143//61 142//61
f 3//39 173//39 168//39
f 3//40 168//40 164//40
f 145//62 144//62 143//62
f 3//59 164//59 161//59
f 157//63 156//63 154//63
f 156//64 155//64 154//64
f 161//40 158//40 3//40
f 158//65 157//65 3//65
f 143//40 3//40 151//40
f 146//66 145//66 143//66
f 149//67 148//67 151//67
f 148//41 147//41 151//41
f 147//68 146//68 151//68
f 146//49 143//49 151//49
f 3//69 157//69 151//69
f 154//70 153//70 151//70
f 153//56 152//56 151//56
f 151//52 150//52 149//52
f 23//71 5//71 176//71
f 5//72 4//72 194//72
f 176//73 5//73 177//73
f 4//5 17//5 209//5
f 209//73 208//73 4//73
f 208//5 207//5 4//5
f 177//73 5//73 183//73
f 177//74 183//74 178//74
f 4//75 207//75 206//75
f 205//76 204//76 203//76
f 4//5 206//5 202//5
f 206//77 205//77 202//77
f 183//78 5//78 184//78
f 180//79 179//79 182//79
f 179//80 178//80 183//80
f 182//81 181//81 180//81
f 183//82 182//82 179//82
f 205//83 203//83 202//83
f 202//84 201//84 198//84
f 201//85 200//85 199//85
f 184//5 5//5 190//5
f 184//86 190//86 185//86
f 4//72 202//72 196//72
f 201//75 199//75 198//75
f 196//84 202//84 197//84
f 198//87 197//87 202//87
f 190//75 5//75 191//75
f 187//73 186//73 189//73
f 186//88 185//88 189//88
f 189//89 188//89 187//89
f 190//90 189//90 185//90
f 4//91 196//91 195//91
f 191//5 5//5 194//5
f 193//92 192//92 191//92
f 4//91 195//91 194//91
f 10//93 6//93 210//93
f 6//6 5//6 222//6
f 210//6 6//6 211//6
f 5//6 23//6 236//6
f 235//94 234//94 231//94
f 234//95 233//95 232//95
f 231//96 234//96 232//96
f 5//6 236//6 230//6
f 236//97 235//97 231//97
f 211//98 6//98 212//98
f 212//6 6//6 217//6
f 236//99 231//99 230//99
f 217//6 6//6 220//6
f 214//100 213//100 216//100
f 213//101 212//101 216//101
f 216//102 215//102 214//102
f 219//103 218//103 217//103
f 220//104 219//104 217//104
f 217//105 216//105 212//105
f 5//106 230//106 229//106
f 220//6 6//6 221//6
f 221//6 6//6 222//6
f 5//6 229//6 222//6
f 229//107 228//107 222//107
f 228//108 227//108 226//108
f 225//109 224//109 223//109
f 228//110 226//110 225//110
f 225//111 223//111 222//111
f 3//1 12//1 37//1
f 36//112 35//112 33//112
f 35//113 34//113 33//113
f 3//19 37//19 36//19
f 26//114 16//114 3//114
f 28//115 27//115 3//115
f 27//116 26//116 3//116
f 32//117 31//117 30//117
f 36//118 33//118 32//118
f 29//119 28//119 3//119
f 36//120 32//120 3//120
f 32//121 30//121 3//121
f 4//122 14//122 56//122
f 14//122 48//122 60//122
f 4//123 51//123 50//123
f 48//122 47//122 13//122
f 47//122 46//122 1//122
f 4//122 56//122 54//122
f 45//124 22//124 1//124
f 46//125 45//125 1//125
f 3//122 4//122 50//122
f 51//126 4//126 53//126
f 49//126 12//126 3//126
f 50//127 49//127 3//127
f 56//122 14//122 59//122
f 53//128 4//128 54//128
f 1//122 13//122 47//122
f 13//122 61//122 48//122
f 53//129 52//129 51//129
f 59//130 14//130 60//130
f 61//131 60//131 48//131
f 59//132 58//132 56//132
f 58//133 57//133 56//133
f 6//9 7//9 88//9
f 6//9 88//9 87//9
f 2//9 5//9 73//9
f 5//9 6//9 87//9
f 2//134 73//134 72//134
f 71//135 8//135 2//135
f 72//136 71//136 2//136
f 87//136 86//136 5//136
f 86//9 85//9 5//9
f 73//137 5//137 74//137
f 5//9 85//9 84//9
f 74//9 5//9 82//9
f 76//138 75//138 81//138
f 75//139 74//139 82//139
f 81//9 75//9 82//9
f 84//9 83//9 5//9
f 83//9 82//9 5//9
f 77//9 76//9 80//9
f 79//140 78//140 80//140
f 78//139 77//139 80//139
f 6//141 9//141 94//141
f 9//142 97//142 95//142
f 94//143 9//143 95//143
f 97//144 96//144 95//144
f 94//141 93//141 6//141
f 93//10 92//10 6//10
f 92//141 91//141 6//141
f 91//141 90//141 6//141
f 90//141 89//141 6//141
f 1//12 24//12 110//12
f 110//12 109//12 108//12
f 107//145 106//145 102//145
f 106//145 105//145 102//145
f 110//145 108//145 100//145
f 108//12 107//12 101//12
f 21//146 1//146 99//146
f 1//12 110//12 100//12
f 99//145 1//145 100//145
f 101//12 100//12 108//12
f 105//12 104//12 103//12
f 104//12 20//12 19//12
f 103//145 104//145 19//145
f 102//12 101//12 107//12
f 1//147 22//147 128//147
f 128//148 127//148 1//148
f 127//149 126//149 1//149
f 126//150 125//150 1//150
f 125//147 124//147 1//147
f 124//150 123//150 129//150
f 123//147 122//147 130//147
f 130//147 122//147 121//147
f 121//149 120//149 130//149
f 130//151 120//151 111//151
f 119//13 118//13 117//13
f 120//152 119//152 117//152
f 117//153 116//153 111//153
f 116//154 115//154 114//154
f 111//153 116//153 114//153
f 114//155 113//155 112//155
f 111//147 114//147 112//147
f 120//148 117//148 111//148
f 1//153 124//153 24//153
f 129//147 24//147 124//147
f 131//156 25//156 2//156
f 6//157 10//157 241//157
f 10//158 257//158 242//158
f 241//158 10//158 242//158
f 256//159 255//159 251//159
f 255//160 254//160 251//160
f 257//161 256//161 250//161
f 237//158 9//158 6//158
f 239//162 238//162 6//162
f 238//157 237//157 6//157
f 241//158 240//158 6//158
f 240//157 239//157 6//157
f 243//158 242//158 250//158
f 243//163 250//163 249//163
f 245//164 244//164 246//164
f 244//165 243//165 249//165
f 246//158 244//158 247//158
f 248//166 247//166 244//166
f 248//162 244//162 249//162
f 242//158 257//158 250//158
f 250//167 256//167 251//167
f 254//168 253//168 251//168
f 16//169 15//169 308//169
f 16//170 308//170 307//170
f 275//171 274//171 16//171
f 277//172 276//172 278//172
f 276//28 275//28 278//28
f 280//173 279//173 278//173
f 275//28 16//28 278//28
f 16//174 307//174 306//174
f 16//175 306//175 278//175
f 278//176 306//176 305//176
f 282//177 281//177 283//177
f 281//178 280//178 283//178
f 280//179 278//179 291//179
f 278//180 305//180 292//180
f 304//181 303//181 302//181
f 278//182 292//182 291//182
f 305//183 304//183 301//183
f 292//25 305//25 298//25
f 285//184 284//184 287//184
f 284//185 283//185 287//185
f 287//186 286//186 285//186
f 290//187 289//187 291//187
f 289//170 288//170 291//170
f 288//169 287//169 283//169
f 283//188 280//188 291//188
f 294//189 293//189 298//189
f 293//190 292//190 298//190
f 291//3 288//3 283//3
f 304//191 302//191 301//191
f 301//192 300//192 299//192
f 298//184 297//184 295//184
f 297//193 296//193 295//193
f 301//194 299//194 298//194
f 295//195 294//195 298//195
f 2//18 8//18 312//18
f 312//18 311//18 309//18
f 311//196 310//196 309//196
f 309//197 18//197 2//197
