# Blender v2.81 (sub 16) OBJ File: ''
# www.blender.org
mtllib Kosovo.mtl
o 0_Kosovo_sphere.001
v 3.376702 3.415561 -1.287580
v 3.376799 3.415580 -1.287355
v 3.377001 3.415784 -1.286580
v 3.377886 3.415187 -1.285951
v 3.378189 3.414777 -1.286120
v 3.379166 3.413615 -1.286362
v 3.380100 3.412574 -1.286463
v 3.380290 3.412515 -1.286200
v 3.380587 3.411846 -1.286860
v 3.380064 3.409136 -1.292921
v 3.379484 3.406141 -1.299625
v 3.379397 3.405707 -1.300600
v 3.379048 3.405190 -1.302248
v 3.376888 3.404813 -1.307186
v 3.376918 3.404029 -1.308585
v 3.377875 3.402082 -1.310324
v 3.380737 3.397719 -1.312814
v 3.381291 3.396607 -1.313792
v 3.381168 3.395936 -1.315282
v 3.380314 3.396354 -1.316180
v 3.379356 3.396925 -1.317000
v 3.378898 3.396711 -1.318295
v 3.379804 3.394816 -1.320039
v 3.381775 3.392231 -1.320973
v 3.383645 3.389575 -1.322240
v 3.384247 3.387453 -1.325000
v 3.384003 3.387231 -1.325893
v 3.383168 3.387168 -1.327648
v 3.382890 3.386971 -1.328559
v 3.382830 3.386532 -1.329493
v 3.382937 3.385451 -1.331292
v 3.382871 3.385031 -1.332201
v 3.382093 3.384464 -1.334783
v 3.381420 3.384338 -1.336336
v 3.381579 3.383668 -1.337269
v 3.381927 3.383223 -1.337413
v 3.383317 3.381446 -1.337988
v 3.384577 3.380039 -1.338129
v 3.387286 3.377235 -1.338022
v 3.388436 3.375932 -1.338189
v 3.388880 3.375519 -1.338083
v 3.389246 3.375284 -1.337800
v 3.389455 3.375042 -1.337840
v 3.389436 3.374573 -1.338749
v 3.389082 3.374197 -1.340144
v 3.388625 3.374176 -1.341079
v 3.387730 3.374136 -1.342909
v 3.384789 3.372900 -1.350979
v 3.384341 3.372335 -1.352906
v 3.384454 3.371422 -1.354382
v 3.385282 3.368736 -1.357748
v 3.385220 3.367969 -1.359295
v 3.384680 3.367921 -1.360443
v 3.382122 3.369020 -1.363421
v 3.381310 3.368974 -1.365100
v 3.380553 3.368431 -1.367596
v 3.380530 3.368174 -1.368118
v 3.380446 3.367249 -1.370001
v 3.381625 3.365294 -1.371320
v 3.382428 3.364549 -1.371129
v 3.383160 3.364145 -1.370443
v 3.383869 3.363843 -1.369613
v 3.384593 3.363411 -1.368994
v 3.384763 3.363149 -1.369148
v 3.386330 3.361406 -1.369312
v 3.386560 3.361172 -1.369295
v 3.387173 3.360824 -1.368737
v 3.387437 3.360580 -1.368672
v 3.387678 3.360194 -1.368917
v 3.388011 3.359405 -1.369731
v 3.388232 3.359070 -1.369917
v 3.390158 3.357100 -1.369799
v 3.396115 3.351970 -1.367639
v 3.399585 3.349548 -1.365330
v 3.400667 3.348610 -1.364949
v 3.401784 3.347278 -1.365231
v 3.403772 3.344468 -1.366551
v 3.404992 3.343126 -1.366650
v 3.406735 3.341948 -1.365419
v 3.409786 3.341053 -1.361094
v 3.411688 3.339694 -1.359885
v 3.413377 3.337586 -1.360488
v 3.414994 3.333529 -1.364853
v 3.416533 3.331030 -1.366475
v 3.418609 3.330626 -1.363151
v 3.419365 3.330705 -1.361522
v 3.419368 3.331605 -1.359844
v 3.420298 3.330896 -1.359335
v 3.420730 3.330568 -1.359098
v 3.420965 3.330790 -1.358222
v 3.420805 3.331466 -1.357282
v 3.421027 3.331768 -1.356285
v 3.422073 3.331259 -1.355178
v 3.422617 3.330486 -1.355546
v 3.422965 3.329675 -1.356370
v 3.423388 3.329076 -1.356652
v 3.423821 3.329066 -1.355822
v 3.424361 3.330130 -1.352784
v 3.425048 3.330130 -1.351436
v 3.425521 3.329837 -1.351053
v 3.426043 3.329514 -1.350629
v 3.432688 3.323982 -1.347866
v 3.433339 3.323214 -1.348015
v 3.433638 3.322730 -1.348329
v 3.433903 3.322242 -1.348714
v 3.434437 3.321484 -1.349075
v 3.435802 3.319699 -1.349713
v 3.436503 3.318903 -1.349816
v 3.436983 3.318814 -1.349039
v 3.438020 3.319646 -1.345457
v 3.438208 3.319801 -1.344802
v 3.438056 3.320418 -1.343952
v 3.437986 3.320701 -1.343564
v 3.437314 3.322012 -1.342447
v 3.436500 3.323857 -1.340617
v 3.435936 3.326323 -1.337142
v 3.435735 3.328446 -1.333590
v 3.435815 3.329003 -1.332400
v 3.435949 3.329162 -1.331842
v 3.436200 3.329222 -1.331238
v 3.437802 3.328365 -1.329685
v 3.440605 3.326441 -1.327759
v 3.441583 3.325770 -1.327086
v 3.443078 3.325105 -1.325387
v 3.444539 3.324649 -1.323368
v 3.448124 3.323534 -1.318405
v 3.452818 3.322081 -1.311892
v 3.454397 3.321308 -1.310228
v 3.456236 3.319916 -1.309205
v 3.458028 3.318134 -1.309000
v 3.461789 3.313983 -1.309332
v 3.463377 3.312042 -1.309822
v 3.465147 3.309358 -1.311335
v 3.465699 3.308521 -1.311806
v 3.467221 3.306765 -1.312083
v 3.467471 3.306476 -1.312129
v 3.469094 3.304934 -1.311809
v 3.471092 3.303211 -1.311090
v 3.471888 3.302632 -1.310603
v 3.472909 3.301891 -1.309976
v 3.473971 3.301572 -1.308484
v 3.473916 3.302096 -1.307618
v 3.473152 3.303954 -1.305667
v 3.473149 3.304399 -1.304845
v 3.473572 3.304167 -1.304445
v 3.474952 3.302945 -1.304007
v 3.475504 3.302601 -1.303564
v 3.476060 3.302668 -1.302348
v 3.476110 3.303172 -1.301313
v 3.475577 3.304922 -1.299107
v 3.475056 3.305546 -1.298970
v 3.474374 3.306638 -1.298281
v 3.473887 3.307257 -1.298084
v 3.472916 3.308254 -1.298138
v 3.472349 3.308681 -1.298458
v 3.471848 3.308973 -1.298898
v 3.471058 3.309584 -1.299313
v 3.469479 3.311074 -1.299644
v 3.468616 3.312156 -1.299326
v 3.467876 3.313315 -1.298624
v 3.466673 3.315043 -1.297777
v 3.463496 3.320485 -1.293900
v 3.462423 3.322111 -1.292984
v 3.460266 3.324823 -1.292177
v 3.459155 3.326337 -1.291547
v 3.457698 3.328656 -1.290096
v 3.454783 3.334039 -1.285815
v 3.454084 3.335787 -1.283941
v 3.453904 3.336375 -1.283201
v 3.453538 3.337591 -1.281659
v 3.452923 3.343912 -1.271121
v 3.453272 3.344162 -1.269971
v 3.455479 3.344438 -1.265126
v 3.455760 3.344612 -1.264250
v 3.455561 3.345219 -1.263515
v 3.454743 3.346618 -1.262521
v 3.454317 3.347211 -1.262255
v 3.453367 3.348316 -1.262066
v 3.452929 3.348964 -1.261721
v 3.452705 3.349495 -1.261173
v 3.452533 3.350392 -1.259845
v 3.452262 3.350931 -1.259376
v 3.451800 3.351452 -1.259315
v 3.450707 3.352359 -1.259774
v 3.450153 3.353034 -1.259609
v 3.449797 3.353692 -1.259082
v 3.449579 3.354548 -1.257920
v 3.449374 3.355041 -1.257406
v 3.446936 3.359287 -1.254302
v 3.446402 3.360690 -1.252744
v 3.446604 3.362582 -1.248831
v 3.446142 3.364036 -1.247035
v 3.444913 3.365043 -1.247577
v 3.444031 3.366088 -1.247367
v 3.443200 3.367235 -1.246866
v 3.442141 3.368533 -1.246533
v 3.441498 3.369179 -1.246595
v 3.440098 3.370427 -1.247022
v 3.438011 3.372444 -1.247371
v 3.437839 3.372741 -1.247157
v 3.437408 3.373604 -1.246400
v 3.436560 3.377077 -1.241612
v 3.435900 3.378408 -1.240432
v 3.434567 3.379980 -1.240127
v 3.433786 3.380602 -1.240504
v 3.432331 3.381517 -1.241659
v 3.431676 3.381930 -1.242177
v 3.431072 3.382203 -1.242856
v 3.430401 3.381518 -1.245447
v 3.430309 3.380042 -1.248370
v 3.429722 3.379319 -1.250865
v 3.427587 3.380895 -1.252127
v 3.426911 3.381667 -1.252018
v 3.426370 3.382405 -1.251710
v 3.425718 3.383177 -1.251554
v 3.424741 3.384031 -1.251885
v 3.424214 3.384323 -1.252378
v 3.422313 3.385032 -1.254790
v 3.419065 3.385566 -1.260173
v 3.415532 3.386351 -1.265648
v 3.412996 3.387390 -1.268694
v 3.410810 3.389125 -1.269760
v 3.410335 3.389917 -1.269223
v 3.409757 3.390882 -1.268564
v 3.409816 3.391786 -1.266768
v 3.409521 3.392843 -1.265383
v 3.407443 3.395066 -1.265331
v 3.405832 3.396332 -1.266140
v 3.405026 3.396589 -1.267243
v 3.404443 3.396540 -1.268480
v 3.403487 3.396882 -1.269719
v 3.402868 3.397304 -1.270150
v 3.402262 3.397820 -1.270381
v 3.400962 3.399026 -1.270692
v 3.400220 3.399558 -1.271160
v 3.399882 3.399518 -1.271898
v 3.399656 3.399290 -1.272764
v 3.399241 3.399273 -1.273609
v 3.397578 3.400429 -1.274727
v 3.394753 3.402786 -1.275890
v 3.391920 3.405399 -1.276595
v 3.390219 3.407346 -1.276316
v 3.390072 3.407857 -1.275655
v 3.390391 3.407907 -1.274936
v 3.390818 3.407851 -1.274203
v 3.390990 3.408030 -1.273532
v 3.390777 3.408562 -1.272963
v 3.390352 3.409339 -1.272352
v 3.389259 3.411083 -1.271258
v 3.388461 3.412611 -1.269983
v 3.387840 3.413504 -1.269544
v 3.386799 3.414521 -1.269697
v 3.386248 3.414847 -1.270173
v 3.385086 3.414865 -1.272419
v 3.383935 3.415328 -1.273819
v 3.378542 3.418618 -1.278291
v 3.377209 3.419213 -1.279801
v 3.376217 3.419345 -1.281502
v 3.375913 3.419041 -1.282663
v 3.375719 3.418849 -1.283402
v 3.375795 3.417895 -1.285024
v 3.375939 3.417259 -1.285923
v 3.376138 3.416709 -1.286555
vn -0.6805 -0.6448 0.3480
vn 0.6810 0.6449 -0.3470
vn 0.6810 0.6448 -0.3471
vn 0.6809 0.6449 -0.3471
vn 0.6813 0.6449 -0.3462
vn 0.6811 0.6447 -0.3471
vn 0.6809 0.6449 -0.3470
vn 0.6811 0.6448 -0.3470
vn 0.6809 0.6448 -0.3473
vn 0.6810 0.6455 -0.3458
vn 0.6809 0.6450 -0.3469
vn 0.6809 0.6454 -0.3462
vn 0.6803 0.6454 -0.3474
vn 0.6803 0.6455 -0.3473
vn 0.6813 0.6446 -0.3469
vn 0.6813 0.6446 -0.3468
vn 0.6810 0.6448 -0.3470
vn 0.6808 0.6449 -0.3473
vn 0.6811 0.6447 -0.3470
vn 0.6810 0.6457 -0.3455
vn 0.6811 0.6445 -0.3474
vn 0.6812 0.6447 -0.3470
vn 0.6809 0.6451 -0.3469
vn 0.6812 0.6446 -0.3472
vn 0.6811 0.6446 -0.3472
vn 0.6811 0.6447 -0.3469
vn 0.6812 0.6447 -0.3469
vn 0.6812 0.6448 -0.3468
vn 0.6826 0.6428 -0.3478
vn 0.6809 0.6452 -0.3464
vn 0.6811 0.6448 -0.3469
vn 0.6810 0.6448 -0.3472
vn 0.6811 0.6444 -0.3476
vn 0.6812 0.6446 -0.3471
vn 0.6809 0.6451 -0.3467
vn 0.6811 0.6449 -0.3468
vn 0.6811 0.6449 -0.3466
vn 0.6824 0.6434 -0.3470
vn 0.6809 0.6449 -0.3472
vn 0.6811 0.6448 -0.3471
vn 0.6808 0.6447 -0.3477
vn 0.6813 0.6445 -0.3471
vn 0.6804 0.6455 -0.3470
vn 0.6812 0.6446 -0.3470
vn 0.6806 0.6451 -0.3473
vn 0.6807 0.6446 -0.3480
vn 0.6810 0.6447 -0.3472
vn 0.6811 0.6446 -0.3471
vn 0.6811 0.6448 -0.3468
vn 0.6811 0.6447 -0.3472
vn 0.6810 0.6449 -0.3469
vn 0.6813 0.6449 -0.3464
vn 0.6811 0.6449 -0.3467
vn 0.6813 0.6444 -0.3472
vn 0.6807 0.6447 -0.3479
vn 0.6810 0.6447 -0.3471
vn 0.6813 0.6447 -0.3466
vn 0.6812 0.6445 -0.3473
vn 0.6814 0.6444 -0.3472
vn 0.6810 0.6453 -0.3462
vn 0.6810 0.6450 -0.3467
vn 0.6809 0.6452 -0.3465
vn 0.6820 0.6436 -0.3473
vn 0.6814 0.6443 -0.3474
vn 0.6808 0.6450 -0.3471
vn 0.6808 0.6450 -0.3472
vn 0.6819 0.6440 -0.3468
vn 0.6807 0.6447 -0.3477
vn 0.6812 0.6445 -0.3472
vn 0.6810 0.6450 -0.3468
vn 0.6813 0.6452 -0.3457
vn 0.6804 0.6449 -0.3480
vn 0.6810 0.6448 -0.3469
vn 0.6815 0.6441 -0.3475
vn 0.6807 0.6452 -0.3470
vn 0.6820 0.6439 -0.3468
vn 0.6817 0.6438 -0.3476
vn 0.6814 0.6448 -0.3463
vn 0.6810 0.6446 -0.3474
vn 0.6815 0.6452 -0.3453
vn 0.6806 0.6453 -0.3470
vn 0.6806 0.6456 -0.3465
vn 0.6807 0.6454 -0.3466
vn 0.6805 0.6457 -0.3465
vn 0.6809 0.6448 -0.3474
vn 0.6809 0.6450 -0.3468
vn 0.6812 0.6448 -0.3467
vn 0.6811 0.6445 -0.3475
vn 0.6805 0.6453 -0.3473
vn 0.6805 0.6445 -0.3487
vn 0.6813 0.6445 -0.3470
vn 0.6809 0.6450 -0.3470
vn 0.6808 0.6449 -0.3474
vn 0.6808 0.6450 -0.3473
vn 0.6815 0.6444 -0.3468
vn 0.6809 0.6443 -0.3481
vn 0.6797 0.6466 -0.3463
vn 0.6813 0.6447 -0.3465
vn 0.6813 0.6445 -0.3472
vn 0.6811 0.6444 -0.3477
vn 0.6805 0.6455 -0.3467
vn 0.6815 0.6447 -0.3464
vn 0.6808 0.6451 -0.3469
vn 0.6807 0.6449 -0.3474
vn 0.6810 0.6445 -0.3477
vn 0.6810 0.6447 -0.3473
vn 0.6805 0.6458 -0.3461
vn 0.6811 0.6446 -0.3473
vn 0.6810 0.6451 -0.3465
vn 0.6811 0.6453 -0.3460
vn 0.6810 0.6447 -0.3474
vn 0.6812 0.6449 -0.3465
usemtl None
s off
f 1//1 2//1 259//1
f 59//2 58//2 61//2
f 58//3 57//3 62//3
f 61//4 58//4 62//4
f 57//5 56//5 62//5
f 56//6 55//6 63//6
f 55//7 54//7 63//7
f 54//8 53//8 63//8
f 56//9 63//9 62//9
f 60//10 59//10 61//10
f 65//11 64//11 67//11
f 64//12 63//12 67//12
f 66//13 65//13 67//13
f 68//14 67//14 53//14
f 67//8 63//8 53//8
f 53//15 52//15 68//15
f 51//2 50//2 48//2
f 50//16 49//16 48//16
f 68//17 52//17 73//17
f 52//18 51//18 74//18
f 73//19 52//19 74//19
f 71//20 70//20 69//20
f 69//21 68//21 72//21
f 51//17 48//17 47//17
f 47//22 46//22 74//22
f 46//23 45//23 74//23
f 51//8 47//8 74//8
f 71//24 69//24 72//24
f 68//8 73//8 72//8
f 45//25 44//25 80//25
f 74//26 45//26 75//26
f 75//17 45//17 80//17
f 44//27 43//27 118//27
f 80//28 44//28 81//28
f 42//29 41//29 40//29
f 76//3 75//3 80//3
f 42//30 40//30 39//30
f 77//31 76//31 79//31
f 42//2 39//2 31//2
f 39//17 38//17 32//17
f 32//32 38//32 33//32
f 78//33 77//33 79//33
f 76//19 80//19 79//19
f 38//31 37//31 33//31
f 37//34 36//34 33//34
f 81//17 44//17 118//17
f 36//21 35//21 34//21
f 33//35 36//35 34//35
f 81//17 118//17 99//17
f 82//36 81//36 92//36
f 92//37 81//37 93//37
f 43//38 42//38 27//38
f 39//39 32//39 31//39
f 84//2 83//2 85//2
f 83//40 82//40 87//40
f 85//34 83//34 87//34
f 42//17 31//17 27//17
f 82//6 92//6 87//6
f 31//27 30//27 27//27
f 30//41 29//41 28//41
f 27//42 30//42 28//42
f 87//43 86//43 85//43
f 89//39 88//39 90//39
f 88//44 87//44 91//44
f 91//45 90//45 88//45
f 26//28 43//28 27//28
f 43//8 26//8 221//8
f 92//46 91//46 87//46
f 93//47 81//47 99//47
f 26//48 25//48 222//48
f 99//15 118//15 100//15
f 24//22 23//22 19//22
f 23//49 22//49 20//49
f 19//50 23//50 20//50
f 94//17 93//17 98//17
f 25//51 24//51 19//51
f 22//34 21//34 20//34
f 25//17 19//17 18//17
f 96//52 95//52 97//52
f 95//53 94//53 97//53
f 93//54 99//54 98//54
f 25//8 18//8 222//8
f 118//55 43//55 119//55
f 17//40 16//40 13//40
f 16//27 15//27 14//27
f 13//17 16//17 14//17
f 18//25 17//25 12//25
f 98//56 97//56 94//56
f 119//57 43//57 120//57
f 17//15 13//15 12//15
f 120//17 43//17 221//17
f 101//57 100//57 118//57
f 101//22 118//22 117//22
f 11//48 239//48 12//48
f 239//51 11//51 240//51
f 102//40 101//40 116//40
f 18//17 12//17 239//17
f 101//2 117//2 116//2
f 11//40 10//40 240//40
f 103//58 102//58 114//58
f 10//19 9//19 241//19
f 106//11 105//11 110//11
f 105//59 104//59 110//59
f 104//49 103//49 114//49
f 8//60 7//60 6//60
f 102//40 116//40 115//40
f 9//27 8//27 242//27
f 221//3 26//3 222//3
f 107//2 106//2 109//2
f 110//61 104//61 112//61
f 109//62 108//62 107//62
f 111//63 110//63 112//63
f 110//6 109//6 106//6
f 113//64 112//64 104//64
f 114//65 113//65 104//65
f 8//34 6//34 256//34
f 6//3 5//3 256//3
f 5//66 4//66 256//66
f 115//8 114//8 102//8
f 18//17 239//17 238//17
f 240//31 10//31 241//31
f 123//67 122//67 124//67
f 122//11 121//11 125//11
f 121//34 120//34 169//34
f 167//8 126//8 168//8
f 122//68 125//68 124//68
f 126//8 167//8 127//8
f 126//69 125//69 121//69
f 127//51 166//51 128//51
f 166//19 127//19 167//19
f 126//8 121//8 168//8
f 128//50 166//50 165//50
f 129//7 128//7 165//7
f 129//17 165//17 164//17
f 130//70 129//70 162//70
f 131//51 130//51 161//51
f 129//8 164//8 163//8
f 131//22 159//22 132//22
f 134//71 133//71 135//71
f 133//3 132//3 158//3
f 144//17 133//17 158//17
f 133//6 144//6 135//6
f 137//72 136//72 135//72
f 139//8 138//8 143//8
f 138//73 137//73 143//73
f 141//74 140//74 142//74
f 140//70 139//70 142//70
f 143//6 142//6 139//6
f 137//51 135//51 144//51
f 137//75 144//75 143//75
f 147//76 146//76 148//76
f 146//66 145//66 149//66
f 148//77 146//77 149//77
f 145//21 144//21 156//21
f 144//6 158//6 157//6
f 158//44 132//44 159//44
f 151//73 150//73 149//73
f 153//78 152//78 156//78
f 152//79 151//79 156//79
f 155//80 154//80 153//80
f 156//41 155//41 153//41
f 151//31 149//31 145//31
f 144//47 157//47 156//47
f 159//32 131//32 160//32
f 151//51 145//51 156//51
f 161//8 160//8 131//8
f 161//40 130//40 162//40
f 163//6 162//6 129//6
f 168//81 121//81 169//81
f 241//17 9//17 242//17
f 169//17 120//17 170//17
f 170//8 120//8 221//8
f 171//8 170//8 221//8
f 174//82 173//82 175//82
f 173//7 172//7 178//7
f 172//42 171//42 185//42
f 185//8 179//8 172//8
f 173//6 178//6 177//6
f 179//83 185//83 184//83
f 178//2 172//2 179//2
f 176//54 175//54 173//54
f 177//84 176//84 173//84
f 180//85 179//85 184//85
f 182//86 181//86 183//86
f 181//87 180//87 184//87
f 184//88 183//88 181//88
f 185//89 171//89 186//89
f 186//8 171//8 220//8
f 188//90 187//90 186//90
f 189//91 188//91 186//91
f 189//17 186//17 220//17
f 220//3 171//3 221//3
f 192//8 191//8 193//8
f 191//92 190//92 193//92
f 190//31 189//31 199//31
f 196//93 195//93 197//93
f 195//35 194//35 198//35
f 194//94 193//94 190//94
f 195//51 198//51 197//51
f 194//19 190//19 198//19
f 199//19 198//19 190//19
f 2//95 263//95 262//95
f 262//96 261//96 2//96
f 261//97 260//97 259//97
f 259//98 258//98 257//98
f 261//99 259//99 2//99
f 259//17 257//17 4//17
f 257//7 256//7 4//7
f 256//17 255//17 8//17
f 254//31 253//31 250//31
f 253//100 252//100 251//100
f 250//11 253//11 251//11
f 249//27 248//27 243//27
f 248//11 247//11 244//11
f 243//99 248//99 244//99
f 250//17 249//17 254//17
f 247//101 246//101 245//101
f 245//3 244//3 247//3
f 254//3 249//3 243//3
f 255//28 254//28 243//28
f 203//93 202//93 205//93
f 202//73 201//73 210//73
f 206//3 202//3 209//3
f 205//102 204//102 203//102
f 208//25 207//25 209//25
f 207//103 206//103 209//103
f 206//17 205//17 202//17
f 210//19 209//19 202//19
f 201//8 200//8 211//8
f 210//32 201//32 211//32
f 200//6 199//6 211//6
f 255//104 243//104 242//104
f 255//17 242//17 8//17
f 237//52 236//52 234//52
f 236//105 235//105 234//105
f 234//106 233//106 237//106
f 233//70 232//70 238//70
f 237//107 233//107 238//107
f 232//108 231//108 222//108
f 238//17 232//17 222//17
f 230//109 229//109 227//109
f 229//3 228//3 227//3
f 227//28 226//28 225//28
f 227//3 225//3 224//3
f 231//50 230//50 224//50
f 230//17 227//17 224//17
f 231//8 224//8 223//8
f 231//106 223//106 222//106
f 238//19 222//19 18//19
f 211//17 199//17 189//17
f 212//51 211//51 189//51
f 215//110 214//110 217//110
f 214//111 213//111 217//111
f 217//112 216//112 215//112
f 219//19 218//19 212//19
f 218//106 217//106 213//106
f 212//103 218//103 213//103
f 220//8 219//8 189//8
f 219//3 212//3 189//3
f 259//6 4//6 3//6
f 259//3 3//3 1//3
