# Blender v2.81 (sub 16) OBJ File: ''
# www.blender.org
mtllib Kuwait.mtl
o 0_Kuwait_sphere.001
v 2.853019 2.433600 -3.229708
v 2.852387 2.430730 -3.232795
v 2.853538 2.422142 -3.238996
v 2.855342 2.418910 -3.239957
v 2.858171 2.420202 -3.236023
v 2.860150 2.420682 -3.233634
v 2.861660 2.422344 -3.230700
v 2.865401 2.428900 -3.221348
v 2.869109 2.430830 -3.215987
v 2.875025 2.431808 -3.209234
v 2.880320 2.431321 -3.204357
v 2.876684 2.440034 -3.200535
v 2.871957 2.445180 -3.200856
v 2.867444 2.445942 -3.204717
v 2.859287 2.442711 -3.215639
v 2.856301 2.441035 -3.220062
v 2.855234 2.439180 -3.222716
v 2.853659 2.436477 -3.226604
vn 0.6049 0.5178 -0.6050
vn 0.6048 0.5179 -0.6050
vn 0.6049 0.5177 -0.6050
vn 0.6050 0.5177 -0.6049
vn 0.6049 0.5179 -0.6049
vn 0.6050 0.5178 -0.6049
vn 0.6049 0.5178 -0.6049
usemtl None
s off
f 15//1 9//1 8//1
f 3//2 2//2 5//2
f 2//3 1//3 7//3
f 5//4 2//4 6//4
f 1//5 18//5 8//5
f 18//1 17//1 8//1
f 17//6 16//6 8//6
f 16//7 15//7 8//7
f 15//7 14//7 9//7
f 14//7 13//7 12//7
f 10//7 14//7 12//7
f 12//6 11//6 10//6
f 14//7 10//7 9//7
f 2//5 7//5 6//5
f 5//7 4//7 3//7
f 8//6 7//6 1//6
o 1_Kuwait_sphere.001
v 2.847890 2.495421 -3.181919
v 2.841449 2.457906 -3.220471
v 2.842221 2.451047 -3.225570
v 2.846664 2.442480 -3.228461
v 2.851653 2.436548 -3.228550
v 2.858574 2.429854 -3.227359
v 2.865986 2.424006 -3.224952
v 2.872482 2.420643 -3.221335
v 2.873381 2.420700 -3.220387
v 2.878325 2.421031 -3.215160
v 2.879804 2.425755 -3.209637
v 2.879201 2.439546 -3.198436
v 2.880114 2.452144 -3.186739
v 2.880488 2.453321 -3.185358
v 2.880842 2.454437 -3.184048
v 2.882964 2.456390 -3.180255
v 2.883265 2.458427 -3.178210
v 2.879521 2.460853 -3.179877
v 2.877388 2.461972 -3.181052
v 2.873182 2.464675 -3.182944
v 2.871364 2.465237 -3.184282
v 2.870361 2.466398 -3.184291
v 2.866754 2.473293 -3.181996
v 2.868617 2.474351 -3.179227
v 2.869744 2.474563 -3.177919
v 2.871177 2.474453 -3.176580
v 2.868564 2.477451 -3.176627
v 2.866592 2.477267 -3.178756
v 2.864166 2.474585 -3.183478
v 2.862657 2.474309 -3.185223
v 2.860594 2.474527 -3.187100
v 2.858933 2.475885 -3.187599
v 2.858499 2.478981 -3.185383
v 2.855349 2.480409 -3.187310
v 2.852595 2.482022 -3.188684
v 2.851345 2.483803 -3.188409
v 2.852851 2.485711 -3.185269
v 2.854382 2.485970 -3.183517
v 2.856706 2.484880 -3.182126
v 2.857755 2.485664 -3.180406
v 2.857856 2.486979 -3.179179
v 2.857362 2.489083 -3.177873
v 2.856647 2.491210 -3.176766
v 2.855939 2.492620 -3.176268
v 2.858501 2.492579 -3.173740
v 2.858714 2.492931 -3.173227
v 2.859018 2.493462 -3.172468
v 2.857824 2.494944 -3.172393
v 2.855313 2.496628 -3.173464
v 2.852811 2.497694 -3.175053
v 2.850715 2.497847 -3.177018
v 2.849063 2.497089 -3.179318
vn 0.6050 0.5179 -0.6048
vn 0.6049 0.5178 -0.6050
vn 0.6049 0.5178 -0.6049
vn 0.6050 0.5178 -0.6049
vn 0.6048 0.5179 -0.6050
vn 0.6050 0.5177 -0.6049
vn 0.6050 0.5176 -0.6050
vn 0.6053 0.5176 -0.6047
vn 0.6048 0.5179 -0.6049
vn 0.6042 0.5182 -0.6053
vn 0.6049 0.5179 -0.6049
vn 0.6049 0.5179 -0.6050
vn 0.6050 0.5178 -0.6048
vn 0.6050 0.5177 -0.6050
vn 0.6046 0.5179 -0.6051
vn 0.6050 0.5175 -0.6051
vn 0.6051 0.5178 -0.6048
vn 0.6047 0.5181 -0.6049
usemtl None
s off
f 45//8 44//8 43//8
f 21//9 20//9 22//9
f 20//10 19//10 54//10
f 19//11 70//11 62//11
f 70//12 69//12 62//12
f 69//13 68//13 62//13
f 68//14 67//14 62//14
f 67//10 66//10 62//10
f 66//15 65//15 64//15
f 62//16 66//16 63//16
f 64//17 63//17 66//17
f 62//11 61//11 19//11
f 61//18 60//18 56//18
f 20//9 54//9 53//9
f 54//19 19//19 55//19
f 23//18 22//18 20//18
f 25//10 24//10 29//10
f 24//10 23//10 30//10
f 27//10 26//10 25//10
f 29//11 28//11 27//11
f 30//10 29//10 24//10
f 29//10 27//10 25//10
f 23//10 20//10 30//10
f 61//9 56//9 19//9
f 60//20 59//20 56//20
f 59//12 58//12 56//12
f 58//21 57//21 56//21
f 33//9 32//9 37//9
f 32//22 31//22 39//22
f 31//9 30//9 39//9
f 39//10 30//10 20//10
f 56//20 55//20 19//20
f 32//21 39//21 38//21
f 35//18 34//18 36//18
f 34//9 33//9 36//9
f 37//9 36//9 33//9
f 38//11 37//11 32//11
f 40//23 39//23 20//23
f 20//10 53//10 50//10
f 52//24 51//24 50//24
f 20//18 50//18 49//18
f 53//12 52//12 50//12
f 41//9 40//9 48//9
f 49//10 40//10 20//10
f 40//11 49//11 48//11
f 42//18 41//18 46//18
f 41//25 48//25 47//25
f 47//9 46//9 41//9
f 46//9 45//9 42//9
f 42//10 45//10 43//10
o 2_Kuwait_sphere.001
v 2.874212 2.462437 -3.183831
v 2.876265 2.461964 -3.182182
v 2.877634 2.463216 -3.179741
v 2.878114 2.465517 -3.177293
v 2.877592 2.467748 -3.175905
v 2.872868 2.470773 -3.178038
v 2.864277 2.479266 -3.179360
v 2.860704 2.481245 -3.181239
v 2.850250 2.483147 -3.190066
v 2.846615 2.482786 -3.194010
v 2.848834 2.479200 -3.194860
v 2.857515 2.474312 -3.190363
v 2.859871 2.472418 -3.189628
v 2.863886 2.468436 -3.189022
v 2.865539 2.467045 -3.188559
vn 0.6049 0.5178 -0.6049
vn 0.6049 0.5179 -0.6049
vn 0.6048 0.5178 -0.6050
vn 0.6050 0.5177 -0.6049
vn 0.6050 0.5178 -0.6049
usemtl None
s off
f 82//26 81//26 79//26
f 80//27 79//27 81//27
f 79//26 78//26 82//26
f 78//26 77//26 83//26
f 77//26 76//26 84//26
f 78//27 83//27 82//27
f 76//28 75//28 74//28
f 74//26 73//26 76//26
f 73//29 72//29 71//29
f 76//26 73//26 71//26
f 71//26 85//26 76//26
f 85//29 84//29 76//29
f 84//30 83//30 77//30
o 3_Kuwait_sphere.001
v 2.855179 2.473063 -3.193768
v 2.854494 2.469281 -3.197690
v 2.852512 2.469409 -3.199562
v 2.853164 2.464788 -3.202866
v 2.853368 2.460206 -3.206584
v 2.852530 2.454808 -3.212042
v 2.852770 2.450780 -3.215250
v 2.853935 2.448685 -3.215878
v 2.855679 2.448362 -3.214411
v 2.858020 2.449897 -3.210757
v 2.859080 2.451022 -3.208733
v 2.859174 2.451958 -3.207838
v 2.860507 2.452190 -3.206306
v 2.862108 2.452622 -3.204335
v 2.863319 2.452881 -3.202904
v 2.867977 2.451919 -3.199068
v 2.871104 2.449576 -3.197947
v 2.873923 2.447242 -3.197126
v 2.879734 2.444068 -3.194031
v 2.884328 2.440448 -3.192536
v 2.887271 2.437255 -3.192327
v 2.889864 2.434727 -3.191897
v 2.894046 2.432717 -3.189436
v 2.895023 2.431087 -3.189854
v 2.896362 2.429534 -3.189843
v 2.894769 2.429399 -3.191553
v 2.891754 2.430062 -3.194000
v 2.889497 2.430604 -3.195793
v 2.887526 2.431416 -3.197070
v 2.885476 2.432229 -3.198423
v 2.884756 2.431503 -3.199765
v 2.887586 2.429728 -3.198454
v 2.888085 2.428493 -3.199012
v 2.889139 2.427051 -3.199192
v 2.887934 2.425596 -3.201642
v 2.886671 2.425637 -3.202872
v 2.885020 2.426254 -3.203993
v 2.883094 2.426972 -3.205305
v 2.881622 2.429449 -3.204657
v 2.880286 2.430054 -3.205476
v 2.879104 2.429531 -3.207104
v 2.877072 2.430907 -3.207959
v 2.875668 2.432447 -3.208045
v 2.874224 2.433145 -3.208891
v 2.873935 2.432559 -3.209681
v 2.873593 2.430664 -3.211646
v 2.873549 2.430397 -3.211918
v 2.872957 2.429231 -3.213508
v 2.872339 2.428934 -3.214381
v 2.870644 2.428129 -3.216765
v 2.867651 2.428874 -3.219121
v 2.870048 2.424338 -3.220606
v 2.870897 2.422450 -3.221372
v 2.871894 2.419455 -3.222940
v 2.872962 2.414979 -3.225702
v 2.873189 2.412941 -3.227220
v 2.872992 2.411009 -3.229070
v 2.873451 2.408967 -3.230360
v 2.877348 2.395267 -3.238189
v 2.877459 2.391951 -3.240917
v 2.876539 2.385541 -3.247323
v 2.875966 2.384333 -3.248931
v 2.873629 2.383333 -3.252124
v 2.874044 2.381844 -3.252983
v 2.875168 2.379868 -3.253551
v 2.876097 2.377866 -3.254335
v 2.876310 2.375936 -3.255774
v 2.875724 2.372669 -3.259157
v 2.875800 2.371491 -3.260089
v 2.875616 2.370153 -3.261418
v 2.874272 2.369379 -3.263425
v 2.871609 2.368760 -3.266617
v 2.872949 2.367209 -3.266605
v 2.873978 2.365453 -3.267079
v 2.874654 2.363659 -3.267939
v 2.874919 2.362014 -3.269082
v 2.875629 2.362866 -3.267642
v 2.875842 2.363271 -3.267083
v 2.876257 2.362490 -3.267337
v 2.876395 2.361993 -3.267624
v 2.876226 2.361638 -3.268096
v 2.875716 2.361256 -3.268933
v 2.876612 2.360395 -3.268775
v 2.877054 2.360135 -3.268555
v 2.877277 2.360260 -3.268225
v 2.877447 2.360565 -3.267794
v 2.877945 2.360538 -3.267319
v 2.878871 2.358480 -3.268155
v 2.878406 2.358033 -3.269002
v 2.877166 2.358685 -3.269684
v 2.875787 2.359943 -3.269986
v 2.876007 2.358949 -3.270617
v 2.877691 2.354256 -3.272950
v 2.877937 2.353065 -3.273724
v 2.877898 2.351789 -3.274854
v 2.877521 2.350070 -3.276703
v 2.877132 2.349061 -3.277955
v 2.890049 2.348139 -3.265828
v 2.903114 2.347264 -3.253513
v 2.916286 2.346415 -3.241067
v 2.929550 2.345601 -3.228500
v 2.933573 2.345366 -3.224678
v 2.933114 2.347966 -3.222911
v 2.933814 2.349614 -3.220801
v 2.934949 2.350949 -3.218523
v 2.935838 2.352605 -3.216217
v 2.936051 2.354815 -3.214112
v 2.935865 2.357723 -3.211809
v 2.935341 2.360741 -3.209750
v 2.933416 2.366140 -3.207053
v 2.932727 2.368663 -3.205582
v 2.931384 2.382003 -3.195507
v 2.932019 2.389230 -3.188685
v 2.932178 2.391074 -3.186949
v 2.936169 2.391619 -3.182491
v 2.943225 2.392575 -3.174617
v 2.950306 2.393551 -3.166700
v 2.957411 2.394537 -3.158752
v 2.964525 2.395532 -3.150785
v 2.972578 2.396590 -3.141827
v 2.980625 2.397658 -3.132865
v 2.988698 2.398739 -3.123868
v 2.996791 2.399839 -3.114833
v 2.993370 2.402840 -3.115685
v 2.975640 2.418415 -3.120084
v 2.966940 2.428151 -3.120450
v 2.959419 2.434679 -3.122383
v 2.957448 2.436751 -3.122581
v 2.952282 2.443937 -3.121595
v 2.941945 2.455395 -3.122126
v 2.938841 2.459379 -3.121819
v 2.938218 2.460444 -3.121530
v 2.936630 2.463644 -3.120380
v 2.935618 2.465166 -3.120088
v 2.930263 2.471492 -3.120029
v 2.915625 2.491559 -3.117490
v 2.911186 2.496075 -3.118063
v 2.905869 2.499369 -3.120561
v 2.891176 2.505534 -3.129977
v 2.886577 2.506186 -3.134017
v 2.867236 2.506208 -3.153339
v 2.863397 2.505200 -3.158042
v 2.851444 2.495342 -3.178432
v 2.851639 2.493593 -3.179735
v 2.851526 2.492008 -3.181204
v 2.851642 2.489981 -3.182824
v 2.852215 2.487778 -3.184136
v 2.853820 2.483912 -3.185841
v 2.854599 2.481447 -3.187173
v 2.855055 2.478026 -3.189644
vn 0.6049 0.5178 -0.6049
vn 0.6051 0.5177 -0.6049
vn 0.6047 0.5181 -0.6049
vn 0.6050 0.5180 -0.6047
vn 0.6050 0.5177 -0.6050
vn 0.6049 0.5176 -0.6051
vn 0.6048 0.5177 -0.6051
vn 0.6049 0.5178 -0.6050
vn 0.6050 0.5178 -0.6048
vn 0.6049 0.5179 -0.6049
vn 0.6049 0.5175 -0.6052
vn 0.6051 0.5179 -0.6047
vn 0.6049 0.5177 -0.6051
vn 0.6050 0.5179 -0.6048
vn 0.6048 0.5178 -0.6051
vn 0.6049 0.5167 -0.6059
vn 0.6042 0.5180 -0.6055
vn 0.6051 0.5176 -0.6049
vn 0.6048 0.5181 -0.6048
vn 0.6052 0.5178 -0.6047
vn 0.6053 0.5179 -0.6045
vn 0.6051 0.5175 -0.6050
vn 0.6048 0.5176 -0.6052
vn 0.6050 0.5178 -0.6049
vn 0.6050 0.5177 -0.6049
vn 0.6045 0.5178 -0.6054
vn 0.6058 0.5171 -0.6047
vn 0.6047 0.5180 -0.6050
vn 0.6048 0.5180 -0.6049
vn 0.6048 0.5173 -0.6055
vn 0.6051 0.5178 -0.6048
vn 0.6048 0.5179 -0.6050
vn 0.6050 0.5181 -0.6046
vn 0.6059 0.5169 -0.6047
vn 0.6044 0.5182 -0.6051
vn 0.6051 0.5174 -0.6051
vn 0.6048 0.5178 -0.6050
vn 0.6051 0.5179 -0.6048
vn 0.6046 0.5178 -0.6052
vn 0.6050 0.5179 -0.6049
vn 0.6046 0.5180 -0.6051
vn 0.6051 0.5177 -0.6048
vn 0.6054 0.5174 -0.6048
vn 0.6049 0.5180 -0.6048
vn 0.6057 0.5174 -0.6045
vn 0.6046 0.5179 -0.6053
vn 0.6048 0.5180 -0.6048
vn 0.6052 0.5177 -0.6047
vn 0.6045 0.5180 -0.6052
vn 0.6052 0.5175 -0.6049
usemtl None
s off
f 119//31 112//31 111//31
f 178//32 177//32 175//32
f 177//33 176//33 175//33
f 179//34 178//34 183//34
f 178//35 175//35 174//35
f 178//31 174//31 183//31
f 180//36 179//36 183//36
f 174//37 173//37 183//37
f 183//32 182//32 181//32
f 183//31 181//31 180//31
f 185//38 184//38 146//38
f 184//31 183//31 154//31
f 172//39 183//39 173//39
f 187//40 186//40 188//40
f 186//31 185//31 189//31
f 188//40 186//40 189//40
f 183//31 172//31 154//31
f 191//41 190//41 192//41
f 190//42 189//42 192//42
f 193//43 192//43 189//43
f 195//44 194//44 189//44
f 194//44 193//44 189//44
f 189//31 185//31 195//31
f 184//45 152//45 151//45
f 171//46 170//46 168//46
f 170//47 169//47 168//47
f 152//31 184//31 154//31
f 195//48 185//48 196//48
f 171//49 168//49 166//49
f 168//50 167//50 166//50
f 172//51 171//51 165//51
f 154//52 172//52 155//52
f 196//31 185//31 145//31
f 171//53 166//53 165//53
f 197//31 196//31 144//31
f 199//40 198//40 120//40
f 198//54 197//54 120//54
f 202//54 201//54 110//54
f 201//31 200//31 110//31
f 202//31 213//31 203//31
f 155//40 172//40 163//40
f 213//35 202//35 214//35
f 200//38 199//38 110//38
f 214//31 202//31 215//31
f 204//31 203//31 212//31
f 212//38 203//38 213//38
f 206//55 205//55 210//55
f 205//54 204//54 211//54
f 210//38 205//38 211//38
f 208//31 207//31 209//31
f 207//31 206//31 210//31
f 209//38 207//38 210//38
f 212//38 211//38 204//38
f 184//31 151//31 146//31
f 172//56 165//56 164//56
f 172//57 164//57 163//57
f 163//31 162//31 160//31
f 162//44 161//44 160//44
f 202//31 110//31 215//31
f 215//40 110//40 216//40
f 216//38 110//38 108//38
f 163//40 160//40 159//40
f 158//58 157//58 156//58
f 163//54 159//54 156//54
f 159//35 158//35 156//35
f 217//59 216//59 108//59
f 219//60 218//60 217//60
f 222//61 221//61 223//61
f 221//31 220//31 224//31
f 223//35 221//35 224//35
f 220//45 219//45 217//45
f 163//62 156//62 155//62
f 220//54 217//54 108//54
f 224//31 220//31 225//31
f 227//54 226//54 234//54
f 226//31 225//31 104//31
f 234//31 226//31 104//31
f 229//31 228//31 227//31
f 231//63 230//63 232//63
f 230//64 229//64 232//64
f 233//65 232//65 229//65
f 229//31 227//31 233//31
f 154//66 153//66 152//66
f 185//31 146//31 145//31
f 227//38 234//38 233//38
f 225//31 220//31 105//31
f 104//31 225//31 105//31
f 110//31 199//31 120//31
f 196//54 145//54 144//54
f 235//67 234//67 104//67
f 86//54 235//54 102//54
f 86//62 102//62 101//62
f 151//68 150//68 147//68
f 150//55 149//55 147//55
f 149//67 148//67 147//67
f 87//35 86//35 101//35
f 87//54 100//54 89//54
f 89//31 88//31 87//31
f 92//31 91//31 95//31
f 91//38 90//38 97//38
f 90//54 89//54 100//54
f 90//32 100//32 99//32
f 151//69 147//69 146//69
f 100//54 87//54 101//54
f 93//38 92//38 94//38
f 91//67 97//67 96//67
f 95//70 91//70 96//70
f 95//40 94//40 92//40
f 99//35 98//35 90//35
f 98//67 97//67 90//67
f 197//31 144//31 120//31
f 144//31 143//31 120//31
f 143//71 142//71 141//71
f 143//38 141//38 121//38
f 143//32 121//32 120//32
f 141//43 140//43 121//43
f 137//35 136//35 135//35
f 137//72 135//72 138//72
f 135//31 134//31 138//31
f 138//73 134//73 133//73
f 139//74 138//74 133//74
f 132//75 131//75 127//75
f 131//38 130//38 127//38
f 139//31 133//31 123//31
f 133//48 132//48 126//48
f 140//35 139//35 123//35
f 133//55 126//55 123//55
f 130//34 129//34 128//34
f 127//58 130//58 128//58
f 126//39 125//39 123//39
f 125//76 124//76 123//76
f 132//54 127//54 126//54
f 102//31 235//31 104//31
f 104//54 103//54 102//54
f 123//31 122//31 140//31
f 122//77 121//77 140//77
f 107//39 106//39 108//39
f 106//78 105//78 108//78
f 105//31 220//31 108//31
f 110//49 109//49 108//49
f 120//79 119//79 111//79
f 110//80 120//80 111//80
f 119//32 118//32 113//32
f 118//55 117//55 113//55
f 117//43 116//43 115//43
f 115//39 114//39 117//39
f 114//31 113//31 117//31
f 119//38 113//38 112//38
