# Blender v2.81 (sub 16) OBJ File: ''
# www.blender.org
mtllib Lebanon.mtl
o 0_Lebanon_sphere.001
v 3.345614 2.810416 -2.430725
v 3.327698 2.842458 -2.417708
v 3.361106 2.810416 -2.408683
v 3.362684 2.778837 -2.443127
v 3.368627 2.767845 -2.447444
v 3.371449 2.762623 -2.449495
v 3.319411 2.810416 -2.465626
v 3.413754 2.745113 -2.409646
v 3.394517 2.745113 -2.437018
v 3.360689 2.810925 -2.408664
v 3.359753 2.811544 -2.409252
v 3.359413 2.811915 -2.409290
v 3.358117 2.814182 -2.408410
v 3.356654 2.816438 -2.407781
v 3.355076 2.818349 -2.407729
v 3.353408 2.819578 -2.408625
v 3.353171 2.818734 -2.409975
v 3.351645 2.820243 -2.410334
v 3.349731 2.822534 -2.410304
v 3.348340 2.824019 -2.410499
v 3.345017 2.825844 -2.413033
v 3.343503 2.827255 -2.413491
v 3.343283 2.828992 -2.411718
v 3.343034 2.829439 -2.411535
v 3.342424 2.829153 -2.412745
v 3.338436 2.830400 -2.416921
v 3.334522 2.833440 -2.418838
v 3.333464 2.834138 -2.419503
v 3.332681 2.834779 -2.419848
v 3.331882 2.835793 -2.419766
v 3.329960 2.839168 -2.418445
v 3.329226 2.840687 -2.417664
v 3.328768 2.841961 -2.416785
v 3.328759 2.842774 -2.415821
v 3.328215 2.842802 -2.416559
v 3.327933 2.842659 -2.417133
v 3.395701 2.744102 -2.436468
v 3.397066 2.743101 -2.435650
v 3.397849 2.742880 -2.434784
v 3.398558 2.742678 -2.434001
v 3.399229 2.742116 -2.433678
v 3.399810 2.740763 -2.434371
v 3.399993 2.740469 -2.434440
v 3.400090 2.740753 -2.433984
v 3.400333 2.741334 -2.432986
v 3.400168 2.743093 -2.431245
v 3.400183 2.743529 -2.430734
v 3.400721 2.743440 -2.430068
v 3.401371 2.742742 -2.429927
v 3.402153 2.741729 -2.429952
v 3.403065 2.740724 -2.429783
v 3.404250 2.739093 -2.429929
v 3.406264 2.735456 -2.431146
v 3.407480 2.733579 -2.431524
v 3.408493 2.732338 -2.431475
v 3.410369 2.730265 -2.431134
v 3.411173 2.729141 -2.431253
v 3.412559 2.728970 -2.429472
v 3.415258 2.727682 -2.427079
v 3.418136 2.726750 -2.424031
v 3.418633 2.726867 -2.423192
v 3.418630 2.727617 -2.422353
v 3.418464 2.728487 -2.421613
v 3.418487 2.729237 -2.420739
v 3.418662 2.729793 -2.419864
v 3.418824 2.729955 -2.419452
v 3.418963 2.730103 -2.419089
v 3.419478 2.730100 -2.418359
v 3.421445 2.729338 -2.416416
v 3.421731 2.729368 -2.415975
v 3.422210 2.729592 -2.415041
v 3.422447 2.729621 -2.414673
v 3.422802 2.729468 -2.414338
v 3.423554 2.728932 -2.413871
v 3.423799 2.728817 -2.413651
v 3.426980 2.729187 -2.408710
v 3.426694 2.729630 -2.408618
v 3.426909 2.729590 -2.408359
v 3.426825 2.729866 -2.408169
v 3.426740 2.730090 -2.408037
v 3.426042 2.730916 -2.408104
v 3.425225 2.731746 -2.408334
v 3.424428 2.732395 -2.408739
v 3.423188 2.732973 -2.409855
v 3.422496 2.733708 -2.410013
v 3.421789 2.734551 -2.410073
v 3.421172 2.735173 -2.410252
v 3.421159 2.735675 -2.409708
v 3.420869 2.735745 -2.410042
v 3.420783 2.735651 -2.410270
v 3.420884 2.735174 -2.410662
v 3.417477 2.739211 -2.410976
v 3.416126 2.741409 -2.410430
v 3.416016 2.743279 -2.408487
v 3.414590 2.744270 -2.409403
v 3.319455 2.810214 -2.465792
v 3.321682 2.808342 -2.464908
v 3.323944 2.805997 -2.464504
v 3.327128 2.803693 -2.462826
v 3.328776 2.802205 -2.462287
v 3.329579 2.801178 -2.462362
v 3.330124 2.800323 -2.462586
v 3.330722 2.799652 -2.462537
v 3.331699 2.799159 -2.461785
v 3.332319 2.799122 -2.461000
v 3.332993 2.799611 -2.459558
v 3.333460 2.799674 -2.458867
v 3.334726 2.799030 -2.457896
v 3.337547 2.796480 -2.456976
v 3.340410 2.794381 -2.455498
v 3.341727 2.793212 -2.455045
v 3.343025 2.791917 -2.454758
v 3.345369 2.789296 -2.454553
v 3.345433 2.789032 -2.454760
v 3.345528 2.788335 -2.455410
v 3.345492 2.787890 -2.455952
v 3.344957 2.786492 -2.458222
v 3.343468 2.786071 -2.460673
v 3.343064 2.785418 -2.461937
v 3.343780 2.783924 -2.462646
v 3.344826 2.782964 -2.462320
v 3.345764 2.782783 -2.461273
v 3.347113 2.783342 -2.458854
v 3.348525 2.784891 -2.455250
v 3.349171 2.785103 -2.454154
v 3.350017 2.784761 -2.453407
v 3.350996 2.784079 -2.452863
v 3.352014 2.783496 -2.452156
v 3.352937 2.783476 -2.450948
v 3.353122 2.783788 -2.450356
v 3.353149 2.784765 -2.449231
v 3.353311 2.785001 -2.448753
v 3.355587 2.783685 -2.447186
v 3.356587 2.783238 -2.446352
v 3.357553 2.782952 -2.445383
v 3.358465 2.782559 -2.444606
v 3.359320 2.781777 -2.444337
v 3.360741 2.780234 -2.444162
v 3.368274 2.767438 -2.448365
v 3.367956 2.766673 -2.449642
v 3.368016 2.765850 -2.450478
v 3.368884 2.764505 -2.450818
v 3.370148 2.763412 -2.450351
v 3.311701 2.840770 -2.440959
v 3.310610 2.840798 -2.442378
v 3.309304 2.841262 -2.443583
v 3.310737 2.838992 -2.444288
v 3.311231 2.838658 -2.444015
v 3.311407 2.839171 -2.443190
v 3.311908 2.839425 -2.442230
v 3.312852 2.838880 -2.441600
v 3.313423 2.838016 -2.441835
v 3.313958 2.836954 -2.442343
v 3.314786 2.835822 -2.442544
v 3.316144 2.834907 -2.441789
v 3.317821 2.834026 -2.440568
v 3.319139 2.832968 -2.440032
v 3.319330 2.831849 -2.441065
v 3.319384 2.831529 -2.441361
v 3.319182 2.831465 -2.441703
v 3.318910 2.831527 -2.441995
v 3.317872 2.831877 -2.442975
v 3.316560 2.831952 -2.444635
v 3.315446 2.831819 -2.446272
v 3.315011 2.831528 -2.447186
v 3.315409 2.830312 -2.448055
v 3.315497 2.829380 -2.449012
v 3.315287 2.828709 -2.450063
v 3.314799 2.828265 -2.451225
v 3.314768 2.827189 -2.452503
v 3.314614 2.826903 -2.453039
v 3.314209 2.827057 -2.453400
v 3.313898 2.826373 -2.454602
v 3.314013 2.825738 -2.455178
v 3.314493 2.824940 -2.455460
v 3.315304 2.823755 -2.455741
v 3.315700 2.823258 -2.455788
v 3.316045 2.822919 -2.455718
v 3.316393 2.822543 -2.455686
v 3.316759 2.821951 -2.455881
v 3.316964 2.821373 -2.456273
v 3.317059 2.820813 -2.456791
v 3.317133 2.818995 -2.458785
v 3.317057 2.818298 -2.459688
v 3.316851 2.818111 -2.460178
v 3.316514 2.818145 -2.460588
v 3.316283 2.818049 -2.461005
v 3.316371 2.817487 -2.461534
v 3.316983 2.816551 -2.461798
v 3.317842 2.815756 -2.461567
v 3.318690 2.814826 -2.461509
v 3.319237 2.813468 -2.462343
v 3.319535 2.812428 -2.463144
v 3.319283 2.810990 -2.465135
v 3.327461 2.841613 -2.418997
v 3.326736 2.841233 -2.420399
v 3.325772 2.841192 -2.421731
v 3.324506 2.841412 -2.423165
v 3.323489 2.841304 -2.424644
v 3.321704 2.841114 -2.427239
v 3.321471 2.841193 -2.427459
v 3.320712 2.841623 -2.427975
v 3.320399 2.841711 -2.428290
v 3.320251 2.841581 -2.428637
v 3.320036 2.841056 -2.429529
v 3.319844 2.840928 -2.429931
v 3.317121 2.841123 -2.433334
v 3.316541 2.841392 -2.433795
v 3.315815 2.841977 -2.434089
v 3.315288 2.842638 -2.434031
v 3.314483 2.844050 -2.433478
v 3.314034 2.844599 -2.433443
v 3.312654 2.845462 -2.434288
v 3.312334 2.844879 -2.435386
v 3.312731 2.842333 -2.437787
v 3.312457 2.841256 -2.439391
v 3.363091 2.778534 -2.442900
v 3.364344 2.777280 -2.442576
v 3.365047 2.776449 -2.442542
v 3.366369 2.775418 -2.441857
v 3.367032 2.774767 -2.441670
v 3.367422 2.774157 -2.441824
v 3.368013 2.772841 -2.442513
v 3.368505 2.772141 -2.442627
v 3.368857 2.771857 -2.442454
v 3.369568 2.771548 -2.441802
v 3.369870 2.771300 -2.441661
v 3.370873 2.769743 -2.442041
v 3.370587 2.769249 -2.443022
v 3.369791 2.769012 -2.444432
v 3.369235 2.768233 -2.446128
v 3.368764 2.768002 -2.447066
v 3.372575 2.762056 -2.448552
v 3.373556 2.762058 -2.447153
v 3.374801 2.761582 -2.445936
v 3.375801 2.760614 -2.445637
v 3.376028 2.759145 -2.447021
v 3.377952 2.756821 -2.446984
v 3.380125 2.755208 -2.445766
v 3.381262 2.754533 -2.444932
v 3.382811 2.753609 -2.443802
v 3.384298 2.752723 -2.442715
v 3.385555 2.751597 -2.442236
v 3.387712 2.749160 -2.441998
v 3.389001 2.748046 -2.441459
v 3.389752 2.747581 -2.440929
v 3.390543 2.747197 -2.440250
v 3.391279 2.746945 -2.439497
v 3.391880 2.746860 -2.438739
v 3.392787 2.746559 -2.437798
v 3.413229 2.745632 -2.409790
v 3.410704 2.748811 -2.409690
v 3.410080 2.749767 -2.409466
v 3.408990 2.751723 -2.408744
v 3.408279 2.752738 -2.408578
v 3.406607 2.754402 -2.409022
v 3.405849 2.755304 -2.409053
v 3.405528 2.756212 -2.408456
v 3.402012 2.758651 -2.410623
v 3.400003 2.760326 -2.411536
v 3.398357 2.762483 -2.411371
v 3.397758 2.763420 -2.411136
v 3.392714 2.769747 -2.410961
v 3.392703 2.770245 -2.410398
v 3.391603 2.771071 -2.411004
v 3.389481 2.774065 -2.410545
v 3.388415 2.774726 -2.411294
v 3.387966 2.775599 -2.410918
v 3.383117 2.781471 -2.410994
v 3.382164 2.782914 -2.410675
v 3.380447 2.785935 -2.409606
v 3.380149 2.786467 -2.409412
v 3.379818 2.787325 -2.408887
v 3.379699 2.788021 -2.408248
v 3.379511 2.788620 -2.407819
v 3.378973 2.789196 -2.407916
v 3.378402 2.789418 -2.408470
v 3.377920 2.789291 -2.409303
v 3.377604 2.788990 -2.410103
v 3.377525 2.788666 -2.410591
v 3.377239 2.788664 -2.411001
v 3.376654 2.788996 -2.411448
v 3.376090 2.788938 -2.412318
v 3.375720 2.788901 -2.412888
v 3.374936 2.789219 -2.413632
v 3.374404 2.789710 -2.413818
v 3.373217 2.791161 -2.413823
v 3.372673 2.791757 -2.413903
v 3.372497 2.792059 -2.413804
v 3.372743 2.792202 -2.413287
v 3.372052 2.792815 -2.413558
v 3.370601 2.794557 -2.413599
v 3.369906 2.795281 -2.413746
v 3.369551 2.795425 -2.414084
v 3.368848 2.795444 -2.415062
v 3.368511 2.795744 -2.415194
v 3.368173 2.796406 -2.414905
v 3.368178 2.796750 -2.414499
v 3.368292 2.796956 -2.414098
v 3.368278 2.797225 -2.413804
v 3.367323 2.799001 -2.413098
v 3.364906 2.802192 -2.412830
v 3.363498 2.804447 -2.412214
v 3.363168 2.805296 -2.411697
v 3.362893 2.806890 -2.410238
v 3.362466 2.807916 -2.409652
vn 0.6734 0.5681 -0.4730
vn 0.6873 0.5423 -0.4832
vn 0.6649 0.5553 -0.4996
vn 0.6650 0.5554 -0.4993
vn 0.6579 0.5684 -0.4940
vn 0.6800 0.5559 -0.4780
vn 0.6729 0.5686 -0.4732
vn 0.6731 0.5682 -0.4733
vn 0.6728 0.5684 -0.4735
vn 0.6730 0.5682 -0.4736
vn 0.6734 0.5682 -0.4729
vn 0.6728 0.5689 -0.4731
vn 0.6728 0.5689 -0.4729
vn 0.6733 0.5686 -0.4726
vn 0.6734 0.5684 -0.4727
vn 0.6731 0.5685 -0.4731
vn 0.6730 0.5685 -0.4732
vn 0.6731 0.5685 -0.4730
vn 0.6729 0.5685 -0.4733
vn 0.6730 0.5686 -0.4730
vn 0.6731 0.5683 -0.4732
vn 0.6735 0.5683 -0.4727
vn 0.6732 0.5686 -0.4728
vn 0.6730 0.5685 -0.4731
vn 0.6728 0.5686 -0.4732
vn 0.6733 0.5681 -0.4732
vn 0.6731 0.5684 -0.4730
vn 0.6873 0.5424 -0.4831
vn 0.6876 0.5423 -0.4828
vn 0.6872 0.5427 -0.4830
vn 0.6872 0.5426 -0.4831
vn 0.6873 0.5425 -0.4830
vn 0.6870 0.5419 -0.4841
vn 0.6874 0.5421 -0.4834
vn 0.6874 0.5425 -0.4829
vn 0.6874 0.5426 -0.4828
vn 0.6877 0.5422 -0.4828
vn 0.6876 0.5423 -0.4829
vn 0.6867 0.5435 -0.4829
vn 0.6871 0.5424 -0.4834
vn 0.6874 0.5422 -0.4832
vn 0.6874 0.5424 -0.4830
vn 0.6874 0.5425 -0.4830
vn 0.6874 0.5418 -0.4836
vn 0.6882 0.5423 -0.4819
vn 0.6872 0.5428 -0.4828
vn 0.6849 0.5464 -0.4820
vn 0.6875 0.5423 -0.4831
vn 0.6874 0.5422 -0.4831
vn 0.6875 0.5422 -0.4830
vn 0.6872 0.5425 -0.4832
vn 0.6875 0.5426 -0.4827
vn 0.6872 0.5425 -0.4831
vn 0.6891 0.5428 -0.4801
vn 0.6872 0.5427 -0.4829
vn 0.6874 0.5423 -0.4831
vn 0.6877 0.5421 -0.4829
vn 0.6874 0.5424 -0.4831
vn 0.6872 0.5424 -0.4832
vn 0.6870 0.5426 -0.4833
vn 0.6873 0.5425 -0.4831
vn 0.6870 0.5423 -0.4837
vn 0.6870 0.5432 -0.4827
vn 0.6871 0.5426 -0.4832
vn 0.6875 0.5424 -0.4828
vn 0.6874 0.5427 -0.4827
vn 0.6868 0.5424 -0.4838
vn 0.6871 0.5427 -0.4830
vn 0.6875 0.5419 -0.4834
vn 0.6873 0.5421 -0.4835
vn 0.6872 0.5429 -0.4828
vn 0.6893 0.5404 -0.4825
vn 0.6872 0.5430 -0.4826
vn 0.6882 0.5411 -0.4834
vn 0.6649 0.5556 -0.4992
vn 0.6648 0.5557 -0.4992
vn 0.6651 0.5552 -0.4993
vn 0.6649 0.5555 -0.4993
vn 0.6651 0.5551 -0.4995
vn 0.6648 0.5559 -0.4989
vn 0.6650 0.5557 -0.4990
vn 0.6663 0.5560 -0.4969
vn 0.6648 0.5557 -0.4993
vn 0.6650 0.5555 -0.4993
vn 0.6649 0.5552 -0.4997
vn 0.6650 0.5555 -0.4992
vn 0.6645 0.5550 -0.5004
vn 0.6648 0.5557 -0.4991
vn 0.6648 0.5555 -0.4995
vn 0.6653 0.5558 -0.4985
vn 0.6650 0.5553 -0.4994
vn 0.6650 0.5558 -0.4989
vn 0.6652 0.5567 -0.4975
vn 0.6650 0.5556 -0.4991
vn 0.6649 0.5557 -0.4992
vn 0.6656 0.5542 -0.4999
vn 0.6648 0.5555 -0.4994
vn 0.6649 0.5556 -0.4993
vn 0.6651 0.5552 -0.4994
vn 0.6649 0.5557 -0.4991
vn 0.6651 0.5553 -0.4992
vn 0.6648 0.5558 -0.4991
vn 0.6648 0.5554 -0.4996
vn 0.6579 0.5685 -0.4939
vn 0.6581 0.5685 -0.4936
vn 0.6579 0.5686 -0.4938
vn 0.6578 0.5684 -0.4942
vn 0.6580 0.5682 -0.4942
vn 0.6578 0.5688 -0.4938
vn 0.6579 0.5686 -0.4939
vn 0.6581 0.5688 -0.4934
vn 0.6578 0.5687 -0.4939
vn 0.6578 0.5685 -0.4941
vn 0.6579 0.5685 -0.4940
vn 0.6580 0.5684 -0.4939
vn 0.6582 0.5683 -0.4938
vn 0.6586 0.5692 -0.4923
vn 0.6579 0.5684 -0.4941
vn 0.6568 0.5698 -0.4939
vn 0.6584 0.5680 -0.4938
vn 0.6605 0.5647 -0.4949
vn 0.6550 0.5713 -0.4946
vn 0.6586 0.5674 -0.4942
vn 0.6575 0.5691 -0.4937
vn 0.6577 0.5689 -0.4938
vn 0.6569 0.5683 -0.4955
vn 0.6582 0.5686 -0.4934
vn 0.6577 0.5685 -0.4942
vn 0.6577 0.5684 -0.4942
vn 0.6579 0.5683 -0.4942
vn 0.6577 0.5686 -0.4940
vn 0.6580 0.5686 -0.4937
vn 0.6581 0.5685 -0.4938
vn 0.6581 0.5681 -0.4941
vn 0.6582 0.5677 -0.4944
vn 0.6577 0.5687 -0.4940
vn 0.6580 0.5689 -0.4935
vn 0.6581 0.5684 -0.4938
vn 0.6569 0.5690 -0.4947
vn 0.6581 0.5680 -0.4942
vn 0.6574 0.5687 -0.4944
vn 0.6581 0.5684 -0.4937
vn 0.6581 0.5683 -0.4939
vn 0.6565 0.5700 -0.4941
vn 0.6576 0.5689 -0.4940
vn 0.6578 0.5688 -0.4937
vn 0.6568 0.5689 -0.4949
vn 0.6578 0.5683 -0.4943
vn 0.6575 0.5692 -0.4937
vn 0.6584 0.5679 -0.4940
vn 0.6579 0.5687 -0.4937
vn 0.6576 0.5682 -0.4947
vn 0.6580 0.5683 -0.4941
vn 0.6581 0.5685 -0.4937
vn 0.6577 0.5685 -0.4941
vn 0.6803 0.5554 -0.4783
vn 0.6803 0.5555 -0.4781
vn 0.6803 0.5554 -0.4782
vn 0.6804 0.5578 -0.4753
vn 0.6801 0.5555 -0.4785
vn 0.6802 0.5559 -0.4779
vn 0.6804 0.5555 -0.4780
vn 0.6799 0.5554 -0.4788
vn 0.6798 0.5558 -0.4784
vn 0.6803 0.5556 -0.4781
vn 0.6807 0.5552 -0.4779
vn 0.6800 0.5559 -0.4781
vn 0.6802 0.5556 -0.4781
vn 0.6803 0.5556 -0.4780
vn 0.6802 0.5555 -0.4783
vn 0.6802 0.5555 -0.4782
vn 0.6807 0.5555 -0.4776
vn 0.6804 0.5554 -0.4781
vn 0.6803 0.5553 -0.4784
vn 0.6802 0.5557 -0.4781
vn 0.6804 0.5556 -0.4779
vn 0.6800 0.5562 -0.4776
vn 0.6803 0.5555 -0.4782
vn 0.6805 0.5556 -0.4777
vn 0.6801 0.5554 -0.4786
vn 0.6802 0.5556 -0.4782
vn 0.6804 0.5553 -0.4782
vn 0.6804 0.5555 -0.4781
vn 0.6812 0.5551 -0.4774
vn 0.6799 0.5556 -0.4786
vn 0.6806 0.5554 -0.4778
vn 0.6806 0.5554 -0.4779
vn 0.6801 0.5557 -0.4782
vn 0.6800 0.5558 -0.4781
vn 0.6802 0.5561 -0.4776
vn 0.6791 0.5562 -0.4790
vn 0.6809 0.5565 -0.4761
vn 0.6804 0.5545 -0.4791
vn 0.6813 0.5557 -0.4766
vn 0.6804 0.5561 -0.4773
vn 0.6787 0.5570 -0.4787
vn 0.6794 0.5555 -0.4793
vn 0.6805 0.5553 -0.4781
vn 0.6805 0.5551 -0.4783
vn 0.6808 0.5547 -0.4784
vn 0.6802 0.5553 -0.4786
vn 0.6753 0.5569 -0.4836
vn 0.6799 0.5555 -0.4787
vn 0.6802 0.5552 -0.4785
vn 0.6790 0.5561 -0.4792
vn 0.6808 0.5554 -0.4776
vn 0.6804 0.5557 -0.4777
vn 0.6803 0.5558 -0.4777
vn 0.6799 0.5557 -0.4784
vn 0.6795 0.5542 -0.4808
vn 0.6797 0.5565 -0.4779
usemtl None
s off
f 25//1 23//1 22//1
f 92//2 68//2 67//2
f 139//3 5//3 143//3
f 115//4 114//4 125//4
f 157//5 206//5 200//5
f 296//6 295//6 217//6
f 1//7 2//7 30//7
f 2//8 36//8 33//8
f 31//9 2//9 32//9
f 36//10 35//10 33//10
f 35//11 34//11 33//11
f 10//12 3//12 11//12
f 3//13 1//13 11//13
f 33//14 32//14 2//14
f 12//15 11//15 1//15
f 14//16 13//16 17//16
f 13//17 12//17 17//17
f 16//18 15//18 17//18
f 15//19 14//19 17//19
f 12//16 1//16 17//16
f 2//18 31//18 30//18
f 20//20 19//20 21//20
f 19//21 18//21 21//21
f 18//18 17//18 1//18
f 1//22 30//22 29//22
f 28//23 27//23 1//23
f 27//24 26//24 1//24
f 1//25 29//25 28//25
f 18//18 1//18 21//18
f 25//26 24//26 23//26
f 1//18 26//18 22//18
f 26//27 25//27 22//27
f 22//20 21//20 1//20
f 9//28 8//28 48//28
f 8//29 95//29 93//29
f 48//30 8//30 49//30
f 95//31 94//31 93//31
f 8//32 93//32 52//32
f 38//33 37//33 39//33
f 37//34 9//34 47//34
f 39//35 37//35 47//35
f 93//32 92//32 52//32
f 91//36 90//36 87//36
f 90//37 89//37 87//37
f 40//38 39//38 47//38
f 43//39 42//39 44//39
f 42//40 41//40 44//40
f 46//41 45//41 41//41
f 45//36 44//36 41//36
f 47//42 46//42 40//42
f 46//43 41//43 40//43
f 89//44 88//44 87//44
f 87//45 86//45 91//45
f 86//46 85//46 91//46
f 48//47 47//47 9//47
f 84//48 83//48 75//48
f 83//49 82//49 75//49
f 91//50 85//50 72//50
f 85//51 84//51 73//51
f 72//52 85//52 73//52
f 49//53 8//53 51//53
f 51//54 50//54 49//54
f 51//41 8//41 52//41
f 92//28 91//28 68//28
f 52//28 92//28 65//28
f 82//55 81//55 77//55
f 91//56 71//56 68//56
f 54//57 53//57 55//57
f 53//58 52//58 65//58
f 58//59 65//59 64//59
f 71//60 91//60 72//60
f 82//61 77//61 75//61
f 81//30 80//30 77//30
f 80//62 79//62 77//62
f 79//63 78//63 77//63
f 77//64 76//64 75//64
f 65//32 58//32 53//32
f 55//65 53//65 58//65
f 58//66 57//66 56//66
f 56//67 55//67 58//67
f 73//53 84//53 75//53
f 75//68 74//68 73//68
f 60//35 59//35 63//35
f 59//61 58//61 64//61
f 63//69 59//69 64//69
f 62//70 61//70 60//70
f 63//71 62//71 60//71
f 71//72 70//72 69//72
f 71//61 69//61 68//61
f 67//73 66//73 92//73
f 66//74 65//74 92//74
f 5//75 6//75 143//75
f 143//76 142//76 140//76
f 142//77 141//77 140//77
f 140//4 139//4 143//4
f 1//78 4//78 137//78
f 4//79 138//79 137//79
f 96//80 7//80 97//80
f 7//75 1//75 97//75
f 99//81 98//81 97//81
f 1//75 137//75 136//75
f 135//82 134//82 133//82
f 1//83 136//83 135//83
f 99//84 97//84 1//84
f 100//85 99//85 107//85
f 99//78 1//78 107//78
f 1//86 135//86 132//86
f 135//87 133//87 132//87
f 101//88 100//88 106//88
f 106//89 100//89 107//89
f 103//90 102//90 104//90
f 102//91 101//91 104//91
f 104//78 101//78 105//78
f 106//92 105//92 101//92
f 1//84 132//84 112//84
f 132//93 131//93 126//93
f 113//94 126//94 125//94
f 131//95 130//95 128//95
f 130//96 129//96 128//96
f 131//97 128//97 127//97
f 127//4 126//4 131//4
f 126//98 113//98 132//98
f 113//99 125//99 114//99
f 108//100 107//100 1//100
f 110//4 109//4 1//4
f 109//78 108//78 1//78
f 125//94 124//94 115//94
f 124//78 123//78 117//78
f 123//101 122//101 117//101
f 122//102 121//102 120//102
f 120//75 119//75 118//75
f 120//91 118//91 122//91
f 118//86 117//86 122//86
f 111//102 110//102 1//102
f 112//78 111//78 1//78
f 124//75 117//75 116//75
f 113//86 112//86 132//86
f 124//103 116//103 115//103
f 1//104 7//104 193//104
f 7//105 194//105 193//105
f 195//106 2//106 1//106
f 196//107 195//107 1//107
f 1//108 193//108 192//108
f 1//109 192//109 191//109
f 197//110 196//110 1//110
f 199//111 198//111 197//111
f 200//112 199//112 157//112
f 199//104 197//104 157//104
f 157//113 1//113 158//113
f 197//104 1//104 157//104
f 1//114 191//114 182//114
f 159//114 1//114 181//114
f 190//115 189//115 185//115
f 189//116 188//116 185//116
f 1//117 159//117 158//117
f 191//110 190//110 184//110
f 182//118 191//118 183//118
f 188//119 187//119 186//119
f 185//120 188//120 186//120
f 201//121 200//121 205//121
f 203//122 202//122 204//122
f 202//123 201//123 204//123
f 205//124 204//124 201//124
f 190//125 185//125 184//125
f 184//108 183//108 191//108
f 206//126 205//126 200//126
f 212//127 211//127 214//127
f 211//128 210//128 214//128
f 214//129 213//129 212//129
f 215//115 214//115 210//115
f 216//130 215//130 208//130
f 215//131 210//131 209//131
f 215//132 209//132 208//132
f 144//5 216//5 151//5
f 216//112 208//112 152//112
f 151//133 216//133 152//133
f 147//115 146//115 145//115
f 208//134 207//134 156//134
f 147//109 145//109 149//109
f 145//131 144//131 150//131
f 149//135 148//135 147//135
f 150//136 149//136 145//136
f 207//104 206//104 157//104
f 178//137 177//137 176//137
f 176//138 175//138 171//138
f 175//139 174//139 173//139
f 171//109 175//109 173//109
f 173//140 172//140 171//140
f 178//136 176//136 171//136
f 179//138 178//138 171//138
f 171//141 170//141 179//141
f 170//112 169//112 168//112
f 180//142 179//142 168//142
f 179//143 170//143 168//143
f 181//144 180//144 160//144
f 180//145 168//145 167//145
f 180//115 167//115 160//115
f 167//146 166//146 162//146
f 160//147 167//147 161//147
f 166//148 165//148 164//148
f 164//115 163//115 166//115
f 163//149 162//149 166//149
f 162//150 161//150 167//150
f 182//151 181//151 1//151
f 181//152 160//152 159//152
f 151//118 150//118 144//118
f 152//104 208//104 156//104
f 154//153 153//153 155//153
f 153//154 152//154 155//154
f 156//131 207//131 157//131
f 156//155 155//155 152//155
f 8//156 9//156 251//156
f 9//157 250//157 260//157
f 251//158 9//158 252//158
f 249//159 248//159 247//159
f 250//160 249//160 243//160
f 252//161 9//161 253//161
f 249//162 247//162 244//162
f 247//163 246//163 244//163
f 246//164 245//164 244//164
f 244//162 243//162 249//162
f 253//157 9//157 256//157
f 259//157 9//157 260//157
f 9//165 259//165 256//165
f 255//166 254//166 256//166
f 254//167 253//167 256//167
f 250//168 261//168 260//168
f 242//169 241//169 236//169
f 241//170 240//170 236//170
f 261//157 250//157 243//157
f 243//165 242//165 263//165
f 259//171 258//171 257//171
f 257//172 256//172 259//172
f 240//171 239//171 236//171
f 239//157 238//157 236//157
f 238//173 237//173 236//173
f 263//157 262//157 243//157
f 262//174 261//174 243//174
f 263//157 242//157 265//157
f 265//175 264//175 263//175
f 267//176 266//176 265//176
f 269//177 268//177 267//177
f 267//157 265//157 228//157
f 228//178 242//178 236//178
f 265//157 242//157 228//157
f 236//179 235//179 228//179
f 269//178 267//178 227//178
f 234//180 233//180 6//180
f 267//157 228//157 227//157
f 235//181 234//181 229//181
f 228//157 235//157 229//157
f 270//182 269//182 285//182
f 234//183 6//183 231//183
f 6//157 5//157 232//157
f 231//175 6//175 232//175
f 231//181 230//181 234//181
f 230//173 229//173 234//173
f 271//162 270//162 284//162
f 272//184 271//184 281//184
f 269//165 227//165 285//165
f 270//185 285//185 284//185
f 273//186 272//186 280//186
f 275//187 274//187 276//187
f 274//171 273//171 278//171
f 277//169 274//169 278//169
f 277//188 276//188 274//188
f 279//189 278//189 273//189
f 280//176 279//176 273//176
f 271//171 284//171 281//171
f 283//190 282//190 281//190
f 281//191 280//191 272//191
f 227//192 226//192 222//192
f 226//193 225//193 223//193
f 225//194 224//194 223//194
f 223//187 222//187 226//187
f 284//195 283//195 281//195
f 221//196 227//196 222//196
f 220//197 219//197 218//197
f 227//157 221//157 285//157
f 220//175 218//175 286//175
f 218//158 217//158 288//158
f 220//198 286//198 221//198
f 285//199 221//199 286//199
f 217//200 4//200 296//200
f 4//157 1//157 296//157
f 296//201 1//201 297//201
f 286//157 218//157 288//157
f 288//202 287//202 286//202
f 1//157 3//157 304//157
f 3//173 306//173 304//173
f 306//203 305//203 304//203
f 291//204 290//204 289//204
f 289//205 288//205 295//205
f 288//173 217//173 295//173
f 1//169 304//169 303//169
f 1//178 303//178 302//178
f 291//206 289//206 295//206
f 293//207 292//207 294//207
f 292//165 291//165 295//165
f 295//208 294//208 292//208
f 1//157 302//157 297//157
f 297//183 302//183 301//183
f 301//209 300//209 298//209
f 300//210 299//210 298//210
f 301//211 298//211 297//211
