# Blender v2.81 (sub 16) OBJ File: ''
# www.blender.org
mtllib Lebanon.mtl
o 0_Lebanon_sphere.001
v 3.320685 2.841826 -2.412615
v 3.355608 2.771382 -2.437988
v 3.361238 2.760028 -2.442078
v 3.364447 2.753553 -2.444410
v 3.299448 2.839344 -2.435976
v 3.298003 2.839347 -2.437418
v 3.296365 2.839827 -2.438646
v 3.297786 2.837333 -2.439358
v 3.298373 2.836975 -2.439079
v 3.298716 2.837557 -2.438238
v 3.299436 2.837853 -2.437264
v 3.300572 2.837275 -2.436623
v 3.301144 2.836330 -2.436859
v 3.301631 2.835163 -2.437371
v 3.302491 2.833924 -2.437572
v 3.304094 2.832948 -2.436804
v 3.306124 2.832028 -2.435561
v 3.307639 2.830892 -2.435019
v 3.307665 2.829642 -2.436064
v 3.307672 2.829286 -2.436361
v 3.307393 2.829205 -2.436710
v 3.307047 2.829263 -2.437006
v 3.305751 2.829612 -2.438003
v 3.304033 2.829640 -2.439697
v 3.302525 2.829443 -2.441374
v 3.301886 2.829095 -2.442310
v 3.302161 2.827732 -2.443202
v 3.302083 2.826672 -2.444187
v 3.301661 2.825896 -2.445274
v 3.300910 2.825369 -2.446476
v 3.300642 2.824131 -2.447803
v 3.300371 2.823797 -2.448360
v 3.299862 2.823951 -2.448739
v 3.299294 2.823145 -2.449995
v 3.299312 2.822422 -2.450597
v 3.299788 2.821527 -2.450887
v 3.300626 2.820202 -2.451182
v 3.301049 2.819652 -2.451231
v 3.301445 2.819275 -2.451158
v 3.301831 2.818864 -2.451123
v 3.302199 2.818198 -2.451325
v 3.302352 2.817538 -2.451736
v 3.302361 2.816894 -2.452279
v 3.302072 2.814778 -2.454379
v 3.301822 2.813956 -2.455333
v 3.301503 2.813723 -2.455851
v 3.301052 2.813736 -2.456291
v 3.300721 2.813609 -2.456731
v 3.300716 2.812958 -2.457294
v 3.301343 2.811898 -2.457574
v 3.302341 2.811021 -2.457326
v 3.303289 2.809987 -2.457263
v 3.303742 2.808424 -2.458148
v 3.303924 2.807214 -2.459002
v 3.303277 2.805482 -2.461131
v 3.303344 2.804656 -2.461771
v 3.306028 2.802544 -2.460896
v 3.308661 2.799966 -2.460468
v 3.312537 2.797524 -2.458683
v 3.314481 2.795913 -2.458118
v 3.315382 2.794768 -2.458197
v 3.315960 2.793805 -2.458443
v 3.316642 2.793066 -2.458394
v 3.317860 2.792579 -2.457593
v 3.318679 2.792597 -2.456759
v 3.319656 2.793247 -2.455225
v 3.320282 2.793369 -2.454495
v 3.321844 2.792734 -2.453476
v 3.325140 2.790001 -2.452519
v 3.328558 2.787814 -2.450974
v 3.330091 2.786567 -2.450508
v 3.331580 2.785170 -2.450215
v 3.334222 2.782320 -2.450012
v 3.334268 2.782013 -2.450230
v 3.334291 2.781190 -2.450911
v 3.334179 2.780653 -2.451482
v 3.333282 2.778905 -2.453875
v 3.331281 2.778213 -2.456469
v 3.330652 2.777378 -2.457812
v 3.331367 2.775657 -2.458571
v 3.332586 2.774631 -2.458229
v 3.333784 2.774533 -2.457116
v 3.335616 2.775386 -2.454553
v 3.337659 2.777431 -2.450759
v 3.338517 2.777764 -2.449617
v 3.339558 2.777459 -2.448837
v 3.340712 2.776768 -2.448275
v 3.341934 2.776198 -2.447541
v 3.343106 2.776291 -2.446289
v 3.343379 2.776690 -2.445675
v 3.343547 2.777856 -2.444508
v 3.343784 2.778158 -2.444014
v 3.346486 2.776875 -2.442410
v 3.347684 2.776471 -2.441556
v 3.348861 2.776254 -2.440565
v 3.349953 2.775900 -2.439776
v 3.350925 2.775079 -2.439507
v 3.352507 2.773431 -2.439336
v 3.355237 2.771726 -2.438066
v 3.361042 2.759909 -2.442376
v 3.360361 2.759146 -2.443709
v 3.359882 2.758169 -2.445025
v 3.359864 2.757176 -2.445893
v 3.360785 2.755679 -2.446253
v 3.362230 2.754551 -2.445774
v 3.363796 2.753778 -2.444869
v 3.320501 2.841603 -2.412989
v 3.319994 2.840682 -2.414284
v 3.319008 2.840254 -2.415637
v 3.317778 2.840187 -2.416925
v 3.316207 2.840393 -2.418319
v 3.314892 2.840247 -2.419759
v 3.312570 2.839992 -2.422299
v 3.312286 2.840076 -2.422511
v 3.311393 2.840527 -2.423018
v 3.311007 2.840614 -2.423330
v 3.310791 2.840469 -2.423669
v 3.310410 2.839887 -2.424550
v 3.310135 2.839743 -2.424947
v 3.306641 2.839885 -2.428319
v 3.305941 2.840164 -2.428781
v 3.305111 2.840790 -2.429075
v 3.304556 2.841503 -2.429020
v 3.303795 2.843033 -2.428472
v 3.303319 2.843625 -2.428440
v 3.301689 2.844543 -2.429284
v 3.301148 2.843898 -2.430378
v 3.301135 2.841106 -2.432780
v 3.300551 2.839905 -2.434393
v 3.356515 2.770291 -2.437665
v 3.357213 2.769324 -2.437582
v 3.358498 2.768064 -2.436742
v 3.359152 2.767288 -2.436491
v 3.359546 2.766595 -2.436641
v 3.360167 2.765132 -2.437375
v 3.360662 2.764330 -2.437471
v 3.361008 2.763979 -2.437259
v 3.361693 2.763554 -2.436484
v 3.361992 2.763246 -2.436306
v 3.363014 2.761466 -2.436674
v 3.362765 2.760996 -2.437789
v 3.362024 2.760868 -2.439415
v 3.361536 2.760143 -2.441339
v 3.364980 2.753180 -2.443863
v 3.365916 2.753017 -2.442244
v 3.367126 2.752308 -2.440813
v 3.368130 2.751126 -2.440419
v 3.368409 2.749561 -2.441958
v 3.370362 2.746797 -2.441808
v 3.372535 2.744721 -2.440313
v 3.373669 2.743807 -2.439306
v 3.375216 2.742556 -2.437936
v 3.376710 2.741350 -2.436613
v 3.377994 2.739928 -2.435989
v 3.380222 2.736952 -2.435583
v 3.381549 2.735524 -2.434882
v 3.382316 2.734884 -2.434230
v 3.383119 2.734325 -2.433400
v 3.383865 2.733911 -2.432488
v 3.384473 2.733700 -2.431576
v 3.385396 2.733197 -2.430434
v 3.388443 2.730011 -2.428704
v 3.389871 2.728683 -2.427670
v 3.390681 2.728284 -2.426613
v 3.391418 2.727919 -2.425653
v 3.392123 2.727191 -2.425238
v 3.392776 2.725651 -2.426013
v 3.392977 2.725302 -2.426083
v 3.393065 2.725577 -2.425542
v 3.393295 2.726131 -2.424354
v 3.393055 2.728011 -2.422317
v 3.393051 2.728466 -2.421717
v 3.393612 2.728257 -2.420897
v 3.394310 2.727382 -2.420691
v 3.395159 2.726151 -2.420668
v 3.396143 2.724895 -2.420410
v 3.397438 2.722920 -2.420502
v 3.399673 2.718651 -2.421808
v 3.401013 2.716398 -2.422181
v 3.402126 2.714856 -2.422053
v 3.404174 2.712236 -2.421526
v 3.405060 2.710865 -2.421616
v 3.406538 2.710345 -2.419407
v 3.409470 2.708315 -2.416359
v 3.412598 2.706611 -2.412492
v 3.413133 2.706606 -2.411450
v 3.413114 2.707395 -2.410435
v 3.412905 2.708365 -2.409553
v 3.412912 2.709148 -2.408493
v 3.413088 2.709697 -2.407416
v 3.413257 2.709828 -2.406910
v 3.413409 2.709946 -2.406455
v 3.413969 2.709817 -2.405528
v 3.416140 2.708512 -2.403007
v 3.416450 2.708475 -2.402448
v 3.416978 2.708588 -2.401262
v 3.417239 2.708557 -2.400789
v 3.417633 2.708305 -2.400352
v 3.418473 2.707545 -2.399718
v 3.418746 2.707361 -2.399428
v 3.422281 2.706936 -2.393056
v 3.421951 2.707486 -2.392970
v 3.422191 2.707385 -2.392633
v 3.422090 2.707704 -2.392406
v 3.421990 2.707968 -2.392250
v 3.421195 2.709029 -2.392397
v 3.420263 2.710131 -2.392757
v 3.419365 2.711025 -2.393327
v 3.417974 2.711956 -2.394816
v 3.417193 2.712914 -2.395071
v 3.416390 2.713991 -2.395211
v 3.415693 2.714811 -2.395487
v 3.415668 2.715351 -2.394815
v 3.415345 2.715497 -2.395254
v 3.415253 2.715415 -2.395545
v 3.415376 2.714882 -2.396013
v 3.411536 2.720018 -2.396703
v 3.410006 2.722687 -2.396147
v 3.409829 2.724719 -2.393786
v 3.408250 2.726106 -2.395036
v 3.406740 2.727877 -2.395637
v 3.403945 2.731881 -2.395785
v 3.403250 2.733057 -2.395581
v 3.402030 2.735415 -2.394831
v 3.401246 2.736665 -2.394704
v 3.399422 2.738812 -2.395420
v 3.398596 2.739942 -2.395536
v 3.398224 2.740999 -2.394858
v 3.394459 2.744323 -2.397815
v 3.392312 2.746515 -2.399106
v 3.390535 2.749151 -2.399080
v 3.389884 2.750274 -2.398860
v 3.384481 2.757994 -2.399172
v 3.384458 2.758532 -2.398500
v 3.383307 2.759604 -2.399330
v 3.381045 2.763179 -2.399002
v 3.379944 2.764058 -2.399991
v 3.379461 2.765070 -2.399590
v 3.374376 2.772123 -2.400167
v 3.373374 2.773807 -2.399888
v 3.371548 2.777303 -2.398811
v 3.371231 2.777914 -2.398618
v 3.370867 2.778884 -2.398040
v 3.370720 2.779651 -2.397306
v 3.370509 2.780322 -2.396826
v 3.369953 2.781013 -2.396995
v 3.369388 2.781321 -2.397695
v 3.368919 2.781245 -2.398716
v 3.368624 2.780960 -2.399675
v 3.368561 2.780617 -2.400256
v 3.368283 2.780653 -2.400754
v 3.367695 2.781086 -2.401330
v 3.367148 2.781093 -2.402394
v 3.366789 2.781099 -2.403089
v 3.366018 2.781536 -2.404022
v 3.365479 2.782129 -2.404289
v 3.364266 2.783828 -2.404404
v 3.363714 2.784533 -2.404547
v 3.363529 2.784878 -2.404450
v 3.363758 2.785004 -2.403834
v 3.363067 2.785741 -2.404208
v 3.361591 2.787777 -2.404390
v 3.360889 2.788631 -2.404628
v 3.360544 2.788825 -2.405046
v 3.359872 2.788923 -2.406235
v 3.359536 2.789283 -2.406414
v 3.359182 2.790027 -2.406117
v 3.359173 2.790392 -2.405648
v 3.359270 2.790600 -2.405181
v 3.359243 2.790892 -2.404845
v 3.358247 2.792897 -2.404128
v 3.355802 2.796558 -2.404044
v 3.354359 2.799110 -2.403473
v 3.354007 2.800051 -2.402909
v 3.353667 2.801784 -2.401269
v 3.353215 2.802919 -2.400641
v 3.351822 2.805697 -2.399672
v 3.351398 2.806304 -2.399693
v 3.350501 2.807049 -2.400461
v 3.350167 2.807479 -2.400542
v 3.348872 2.810024 -2.399693
v 3.347425 2.812562 -2.399148
v 3.345890 2.814729 -2.399272
v 3.344309 2.816161 -2.400467
v 3.344127 2.815273 -2.402008
v 3.342671 2.816989 -2.402577
v 3.340833 2.819565 -2.402750
v 3.339512 2.821236 -2.403115
v 3.336446 2.823370 -2.406288
v 3.335036 2.824949 -2.406949
v 3.334759 2.826812 -2.405010
v 3.334516 2.827300 -2.404835
v 3.333990 2.827020 -2.406240
v 3.330418 2.828531 -2.411237
v 3.326863 2.831908 -2.413712
v 3.325917 2.832685 -2.414534
v 3.325210 2.833390 -2.414980
v 3.324473 2.834484 -2.414969
v 3.322659 2.838099 -2.413709
v 3.321956 2.839716 -2.412934
v 3.321501 2.841067 -2.412023
v 3.321452 2.841925 -2.410976
v 3.320987 2.841969 -2.411831
vn 0.6046 0.5176 -0.6054
vn 0.6046 0.5179 -0.6051
vn 0.7623 0.5177 -0.3885
vn 0.6050 0.5178 -0.6049
vn 0.6051 0.5178 -0.6047
vn 0.6047 0.5179 -0.6050
vn 0.6053 0.5175 -0.6048
vn 0.6048 0.5179 -0.6049
vn 0.6048 0.5178 -0.6051
vn 0.6049 0.5182 -0.6047
vn 0.6045 0.5180 -0.6052
vn 0.6081 0.5150 -0.6041
vn 0.6007 0.5219 -0.6056
vn 0.6049 0.5178 -0.6050
vn 0.6050 0.5177 -0.6049
vn 0.6047 0.5179 -0.6051
vn 0.6052 0.5186 -0.6039
vn 0.6057 0.5170 -0.6049
vn 0.6050 0.5176 -0.6050
vn 0.6047 0.5171 -0.6058
vn 0.6049 0.5176 -0.6051
vn 0.6046 0.5186 -0.6046
vn 0.6049 0.5178 -0.6049
vn 0.6052 0.5172 -0.6052
vn 0.6057 0.5151 -0.6065
vn 0.6049 0.5179 -0.6049
vn 0.6051 0.5176 -0.6049
vn 0.6038 0.5197 -0.6045
vn 0.6048 0.5175 -0.6053
vn 0.6045 0.5193 -0.6041
vn 0.6049 0.5177 -0.6050
vn 0.6056 0.5185 -0.6036
vn 0.6064 0.5136 -0.6071
vn 0.6048 0.5181 -0.6047
vn 0.6051 0.5178 -0.6048
vn 0.6050 0.5172 -0.6053
vn 0.6051 0.5177 -0.6048
vn 0.6048 0.5182 -0.6048
vn 0.6048 0.5180 -0.6049
vn 0.6050 0.5177 -0.6050
vn 0.6047 0.5180 -0.6050
vn 0.6054 0.5172 -0.6049
vn 0.6051 0.5177 -0.6049
vn 0.6048 0.5178 -0.6050
vn 0.6043 0.5180 -0.6054
vn 0.6048 0.5183 -0.6046
vn 0.6049 0.5179 -0.6048
vn 0.6047 0.5175 -0.6054
vn 0.6048 0.5179 -0.6050
vn 0.6049 0.5177 -0.6051
vn 0.6048 0.5181 -0.6048
vn 0.6055 0.5182 -0.6040
vn 0.6050 0.5176 -0.6051
vn 0.6052 0.5179 -0.6046
vn 0.6052 0.5175 -0.6050
vn 0.6047 0.5181 -0.6049
vn 0.6052 0.5178 -0.6046
vn 0.6046 0.5178 -0.6052
vn 0.6052 0.5176 -0.6048
vn 0.6046 0.5178 -0.6053
vn 0.6045 0.5181 -0.6051
vn 0.6037 0.5184 -0.6057
vn 0.6051 0.5179 -0.6047
vn 0.6056 0.5168 -0.6052
vn 0.6047 0.5178 -0.6052
vn 0.6044 0.5196 -0.6039
vn 0.6047 0.5178 -0.6051
vn 0.6052 0.5175 -0.6049
vn 0.6051 0.5172 -0.6052
vn 0.6045 0.5182 -0.6050
vn 0.6049 0.5181 -0.6047
vn 0.6054 0.5176 -0.6047
vn 0.6046 0.5181 -0.6050
vn 0.6054 0.5171 -0.6050
vn 0.6047 0.5177 -0.6052
vn 0.6051 0.5175 -0.6050
vn 0.6057 0.5175 -0.6044
vn 0.6045 0.5160 -0.6069
vn 0.6052 0.5180 -0.6045
vn 0.7628 0.5176 -0.3877
vn 0.7620 0.5180 -0.3887
vn 0.7624 0.5177 -0.3883
vn 0.7624 0.5179 -0.3879
vn 0.7619 0.5180 -0.3887
vn 0.7622 0.5178 -0.3884
vn 0.7620 0.5180 -0.3886
vn 0.7623 0.5179 -0.3883
vn 0.7625 0.5174 -0.3885
vn 0.7627 0.5159 -0.3900
vn 0.7619 0.5185 -0.3883
vn 0.7642 0.5164 -0.3864
vn 0.7617 0.5177 -0.3896
vn 0.7619 0.5189 -0.3877
vn 0.7624 0.5178 -0.3881
vn 0.7623 0.5178 -0.3884
vn 0.7622 0.5179 -0.3885
vn 0.7614 0.5187 -0.3890
vn 0.7622 0.5179 -0.3884
vn 0.7623 0.5173 -0.3890
vn 0.7622 0.5180 -0.3883
vn 0.7623 0.5175 -0.3887
vn 0.7621 0.5179 -0.3886
vn 0.7623 0.5179 -0.3881
vn 0.7624 0.5177 -0.3882
vn 0.7622 0.5178 -0.3885
vn 0.7623 0.5177 -0.3884
vn 0.7623 0.5178 -0.3883
vn 0.7629 0.5172 -0.3879
vn 0.7620 0.5182 -0.3884
vn 0.7623 0.5179 -0.3882
vn 0.7621 0.5178 -0.3887
vn 0.7614 0.5189 -0.3887
vn 0.7621 0.5180 -0.3885
vn 0.7622 0.5177 -0.3886
vn 0.7584 0.5233 -0.3885
vn 0.7636 0.5167 -0.3871
vn 0.7621 0.5181 -0.3883
vn 0.7620 0.5173 -0.3896
vn 0.7621 0.5182 -0.3882
vn 0.7624 0.5174 -0.3886
vn 0.7619 0.5181 -0.3887
vn 0.7615 0.5165 -0.3916
vn 0.7623 0.5181 -0.3880
vn 0.7622 0.5176 -0.3887
vn 0.7627 0.5168 -0.3889
vn 0.7625 0.5178 -0.3880
vn 0.7621 0.5179 -0.3884
vn 0.7622 0.5181 -0.3881
vn 0.7621 0.5183 -0.3882
vn 0.7623 0.5176 -0.3886
vn 0.7620 0.5181 -0.3885
vn 0.7624 0.5177 -0.3884
vn 0.7623 0.5176 -0.3885
vn 0.7626 0.5175 -0.3881
vn 0.7621 0.5177 -0.3888
vn 0.7624 0.5175 -0.3885
vn 0.7624 0.5175 -0.3886
vn 0.7623 0.5178 -0.3882
vn 0.7624 0.5177 -0.3881
vn 0.7621 0.5181 -0.3884
vn 0.7626 0.5182 -0.3872
vn 0.7616 0.5183 -0.3889
vn 0.7623 0.5174 -0.3889
vn 0.7623 0.5177 -0.3886
vn 0.7625 0.5174 -0.3884
vn 0.7624 0.5173 -0.3888
vn 0.7631 0.5152 -0.3902
vn 0.7628 0.5175 -0.3876
vn 0.7625 0.5172 -0.3888
vn 0.7623 0.5182 -0.3879
vn 0.7622 0.5175 -0.3890
vn 0.7620 0.5185 -0.3879
vn 0.7625 0.5175 -0.3884
vn 0.7629 0.5175 -0.3875
vn 0.7621 0.5181 -0.3882
vn 0.7623 0.5177 -0.3883
vn 0.7624 0.5176 -0.3884
vn 0.7602 0.5207 -0.3886
vn 0.7621 0.5177 -0.3887
vn 0.7622 0.5177 -0.3887
vn 0.7622 0.5179 -0.3883
vn 0.7621 0.5180 -0.3884
vn 0.7626 0.5174 -0.3883
vn 0.7624 0.5174 -0.3885
vn 0.7621 0.5180 -0.3883
vn 0.7620 0.5178 -0.3890
vn 0.7625 0.5177 -0.3881
vn 0.7626 0.5176 -0.3879
vn 0.7624 0.5178 -0.3882
usemtl None
s off
f 100//1 3//1 106//1
f 37//2 36//2 32//2
f 184//3 183//3 189//3
f 3//4 4//4 106//4
f 106//5 105//5 101//5
f 105//6 104//6 102//6
f 104//7 103//7 102//7
f 102//8 101//8 105//8
f 101//9 100//9 106//9
f 1//10 2//10 99//10
f 99//11 98//11 97//11
f 99//12 97//12 96//12
f 107//13 1//13 108//13
f 1//14 99//14 96//14
f 108//15 1//15 96//15
f 109//15 108//15 92//15
f 108//16 96//16 95//16
f 95//17 94//17 93//17
f 108//4 95//4 92//4
f 112//18 111//18 110//18
f 110//19 109//19 20//19
f 95//20 93//20 92//20
f 91//21 90//21 88//21
f 90//22 89//22 88//22
f 109//23 92//23 71//23
f 71//24 92//24 72//24
f 92//25 91//25 86//25
f 73//26 92//26 86//26
f 113//27 112//27 18//27
f 112//14 110//14 18//14
f 116//28 115//28 117//28
f 115//29 114//29 118//29
f 117//30 115//30 118//30
f 92//31 73//31 72//31
f 114//32 113//32 118//32
f 118//33 113//33 119//33
f 91//34 88//34 87//34
f 91//26 87//26 86//26
f 86//35 85//35 73//35
f 84//23 83//23 77//23
f 83//26 82//26 77//26
f 109//15 71//15 70//15
f 82//36 81//36 80//36
f 77//14 82//14 78//14
f 85//37 84//37 75//37
f 73//38 85//38 74//38
f 119//39 113//39 18//39
f 80//39 79//39 78//39
f 80//4 78//4 82//4
f 120//23 119//23 18//23
f 121//19 120//19 17//19
f 109//23 70//23 20//23
f 84//40 77//40 76//40
f 122//41 121//41 129//41
f 125//42 124//42 127//42
f 124//4 123//4 127//4
f 123//43 122//43 128//43
f 120//4 18//4 17//4
f 84//9 76//9 75//9
f 75//23 74//23 85//23
f 127//16 126//16 125//16
f 128//4 127//4 123//4
f 121//44 17//44 16//44
f 129//26 121//26 13//26
f 129//15 128//15 122//15
f 18//19 110//19 19//19
f 70//45 69//45 68//45
f 70//23 68//23 20//23
f 110//46 20//46 19//46
f 66//47 65//47 61//47
f 65//48 64//48 61//48
f 64//49 63//49 62//49
f 64//50 62//50 61//50
f 66//51 61//51 60//51
f 67//52 66//52 60//52
f 59//44 58//44 53//44
f 58//37 57//37 54//37
f 67//53 60//53 59//53
f 8//35 7//35 6//35
f 10//54 9//54 8//54
f 11//21 10//21 6//21
f 10//41 8//41 6//41
f 6//55 5//55 11//55
f 5//31 129//31 12//31
f 11//56 5//56 12//56
f 68//19 67//19 42//19
f 67//23 59//23 43//23
f 52//50 59//50 53//50
f 58//57 54//57 53//57
f 57//58 56//58 55//58
f 54//26 57//26 55//26
f 12//29 129//29 13//29
f 59//26 52//26 43//26
f 13//15 121//15 16//15
f 15//26 14//26 16//26
f 14//38 13//38 16//38
f 51//40 50//40 46//40
f 50//59 49//59 46//59
f 67//60 43//60 42//60
f 52//14 51//14 45//14
f 45//61 51//61 46//61
f 49//62 48//62 47//62
f 49//63 47//63 46//63
f 21//64 20//64 42//64
f 20//23 68//23 42//23
f 52//65 45//65 44//65
f 22//66 21//66 28//66
f 41//67 21//67 42//67
f 24//8 23//8 28//8
f 23//68 22//68 28//68
f 24//69 28//69 27//69
f 26//70 25//70 27//70
f 25//71 24//71 27//71
f 21//26 41//26 28//26
f 52//72 44//72 43//72
f 29//7 28//7 41//7
f 31//73 30//73 29//73
f 34//74 33//74 32//74
f 31//75 29//75 40//75
f 40//40 29//40 41//40
f 35//73 34//73 36//73
f 34//76 32//76 36//76
f 32//77 31//77 40//77
f 39//78 38//78 37//78
f 40//79 39//79 32//79
f 39//38 37//38 32//38
f 1//80 303//80 301//80
f 303//81 302//81 301//81
f 130//82 2//82 265//82
f 2//83 1//83 298//83
f 132//84 131//84 130//84
f 132//85 130//85 258//85
f 2//3 298//3 297//3
f 2//86 266//86 265//86
f 1//87 301//87 300//87
f 1//88 300//88 299//88
f 136//89 135//89 137//89
f 135//3 134//3 138//3
f 138//90 137//90 135//90
f 138//91 134//91 139//91
f 134//92 133//92 139//92
f 1//93 299//93 298//93
f 266//94 2//94 267//94
f 133//95 132//95 256//95
f 2//96 297//96 296//96
f 2//85 296//85 294//85
f 139//95 133//95 255//95
f 2//95 294//95 289//95
f 273//95 2//95 289//95
f 296//97 295//97 294//97
f 2//98 273//98 272//98
f 140//85 139//85 239//85
f 2//95 272//95 267//95
f 143//98 142//98 145//98
f 142//3 141//3 145//3
f 294//85 293//85 290//85
f 293//99 292//99 291//99
f 293//100 291//100 290//100
f 294//101 290//101 289//101
f 289//102 288//102 287//102
f 289//103 287//103 286//103
f 289//85 286//85 273//85
f 286//104 285//104 273//104
f 285//105 284//105 283//105
f 283//82 282//82 285//82
f 282//85 281//85 285//85
f 281//106 280//106 285//106
f 285//107 280//107 273//107
f 273//108 280//108 274//108
f 279//109 278//109 277//109
f 280//110 279//110 274//110
f 279//110 277//110 276//110
f 274//111 279//111 276//111
f 276//112 275//112 274//112
f 258//85 130//85 265//85
f 272//113 271//113 267//113
f 271//114 270//114 268//114
f 270//115 269//115 268//115
f 271//116 268//116 267//116
f 132//95 258//95 256//95
f 265//117 264//117 262//117
f 264//118 263//118 262//118
f 133//119 256//119 255//119
f 261//120 265//120 262//120
f 261//121 260//121 259//121
f 258//122 257//122 256//122
f 261//85 259//85 265//85
f 259//104 258//104 265//104
f 139//95 255//95 239//95
f 255//123 254//123 240//123
f 255//124 240//124 239//124
f 254//125 253//125 241//125
f 240//98 254//98 241//98
f 253//126 252//126 251//126
f 250//113 249//113 243//113
f 249//127 248//127 243//127
f 253//128 251//128 241//128
f 248//129 247//129 244//129
f 243//130 248//130 244//130
f 251//131 250//131 242//131
f 247//128 246//128 244//128
f 246//132 245//132 244//132
f 250//133 243//133 242//133
f 251//134 242//134 241//134
f 141//105 140//105 146//105
f 239//135 238//135 237//135
f 140//95 239//95 237//95
f 4//136 3//136 143//136
f 140//85 237//85 153//85
f 147//95 140//95 153//95
f 4//107 143//107 145//107
f 145//137 144//137 4//137
f 140//110 147//110 146//110
f 237//138 236//138 235//138
f 235//82 234//82 233//82
f 237//106 235//106 153//106
f 146//85 145//85 141//85
f 149//107 148//107 147//107
f 235//117 233//117 153//117
f 233//95 232//95 154//95
f 232//98 231//98 161//98
f 154//95 232//95 161//95
f 231//106 230//106 161//106
f 233//98 154//98 153//98
f 150//96 149//96 147//96
f 153//85 152//85 147//85
f 152//139 151//139 147//139
f 151//140 150//140 147//140
f 229//130 228//130 227//130
f 230//98 229//98 173//98
f 156//141 155//141 157//141
f 155//111 154//111 160//111
f 157//142 155//142 158//142
f 229//143 227//143 226//143
f 226//107 225//107 224//107
f 161//95 230//95 172//95
f 230//144 173//144 172//144
f 226//81 224//81 223//81
f 226//95 223//95 173//95
f 223//145 222//145 174//145
f 173//100 223//100 174//100
f 155//146 160//146 158//146
f 173//95 229//95 226//95
f 159//147 158//147 160//147
f 154//148 161//148 160//148
f 222//95 221//95 176//95
f 163//149 162//149 164//149
f 162//107 161//107 172//107
f 164//133 162//133 172//133
f 220//3 219//3 218//3
f 221//106 220//106 218//106
f 165//103 164//103 172//103
f 168//124 167//124 169//124
f 167//150 166//150 169//150
f 171//98 170//98 166//98
f 170//81 169//81 166//81
f 172//133 171//133 165//133
f 171//106 166//106 165//106
f 174//98 222//98 176//98
f 221//95 218//95 177//95
f 218//85 217//85 190//85
f 216//151 215//151 212//151
f 215//152 214//152 212//152
f 214//153 213//153 212//153
f 212//154 211//154 216//154
f 211//155 210//155 216//155
f 216//106 210//106 197//106
f 209//156 208//156 200//156
f 208//106 207//106 200//106
f 207//110 206//110 202//110
f 206//157 205//157 202//157
f 205//158 204//158 202//158
f 204//127 203//127 202//127
f 202//159 201//159 200//159
f 200//160 199//160 209//160
f 199//140 198//140 209//140
f 202//161 200//161 207//161
f 198//85 197//85 210//85
f 209//161 198//161 210//161
f 196//140 195//140 216//140
f 195//162 194//162 216//162
f 194//95 193//95 216//95
f 197//163 196//163 216//163
f 193//164 192//164 217//164
f 216//85 193//85 217//85
f 192//165 191//165 217//165
f 176//166 175//166 174//166
f 176//95 221//95 177//95
f 217//167 191//167 190//167
f 177//95 218//95 190//95
f 179//168 178//168 180//168
f 178//85 177//85 190//85
f 190//169 189//169 183//169
f 178//160 183//160 180//160
f 188//157 187//157 185//157
f 187//138 186//138 185//138
f 183//107 178//107 190//107
f 189//160 188//160 184//160
f 181//155 180//155 183//155
f 183//130 182//130 181//130
f 185//95 184//95 188//95
