# Blender v2.81 (sub 16) OBJ File: ''
# www.blender.org
mtllib Liberia.mtl
o 0_Liberia_sphere.001
v 4.938447 0.782172 0.000004
v 4.696742 0.782172 1.526068
v 4.848650 0.539184 0.687697
v 4.848823 0.538844 0.686776
v 4.850205 0.537049 0.678940
v 4.850432 0.536597 0.677731
v 4.850657 0.535949 0.676638
v 4.850963 0.535143 0.675107
v 4.851220 0.535169 0.673469
v 4.851415 0.535515 0.672071
v 4.851671 0.536795 0.669817
v 4.851818 0.537295 0.668639
v 4.852509 0.537972 0.663937
v 4.852938 0.538040 0.661198
v 4.853246 0.537635 0.659451
v 4.853596 0.536495 0.657806
v 4.854750 0.534938 0.651298
v 4.854895 0.535053 0.650329
v 4.855075 0.534974 0.649223
v 4.855264 0.533433 0.648800
v 4.856357 0.529277 0.643965
v 4.856760 0.527325 0.642391
v 4.856908 0.525933 0.642148
v 4.857010 0.521941 0.643484
v 4.857108 0.519766 0.643946
v 4.857253 0.517418 0.644201
v 4.857460 0.515328 0.643930
v 4.857747 0.513891 0.642830
v 4.857828 0.514908 0.641815
v 4.857999 0.515263 0.640557
v 4.858148 0.515202 0.639650
v 4.858376 0.514284 0.638666
v 4.858514 0.513336 0.638264
v 4.858752 0.510980 0.637937
v 4.858931 0.510448 0.637068
v 4.859120 0.509526 0.636328
v 4.859025 0.508450 0.637468
v 4.859247 0.505031 0.637766
v 4.859663 0.502596 0.636348
v 4.860460 0.500484 0.632364
v 4.860750 0.499255 0.631142
v 4.861236 0.496687 0.629352
v 4.861400 0.497436 0.627944
v 4.861425 0.499493 0.626762
v 4.861493 0.500867 0.625650
v 4.861914 0.499034 0.623907
v 4.862247 0.497816 0.622412
v 4.862549 0.497551 0.620631
v 4.863022 0.496020 0.618408
v 4.863492 0.494995 0.615948
v 4.863580 0.493244 0.616261
v 4.863756 0.492581 0.615482
v 4.864101 0.490870 0.614153
v 4.864384 0.491061 0.612272
v 4.864497 0.492144 0.611024
v 4.864674 0.490717 0.610616
v 4.864944 0.490437 0.609052
v 4.865158 0.489087 0.608366
v 4.865348 0.487638 0.607885
v 4.865549 0.487027 0.606921
v 4.865610 0.487823 0.606142
v 4.865554 0.489526 0.605646
v 4.865363 0.492594 0.605331
v 4.865983 0.491178 0.602120
v 4.866336 0.487594 0.601668
v 4.866577 0.483221 0.602320
v 4.866861 0.479421 0.602417
v 4.867794 0.471312 0.600559
v 4.868215 0.468605 0.599243
v 4.868900 0.464201 0.597109
v 4.869228 0.462549 0.595855
v 4.868867 0.462884 0.597965
v 4.868860 0.461624 0.598641
v 4.869091 0.459662 0.598156
v 4.869443 0.457878 0.596819
v 4.869140 0.457735 0.598804
v 4.869274 0.456762 0.598443
v 4.869297 0.455731 0.598809
v 4.869188 0.454752 0.599981
v 4.869192 0.453234 0.600716
v 4.869507 0.449332 0.600660
v 4.869522 0.448228 0.601117
v 4.869240 0.448982 0.602522
v 4.869376 0.447323 0.602489
v 4.869583 0.445477 0.602100
v 4.869832 0.443707 0.601406
v 4.870090 0.442315 0.600465
v 4.870392 0.441471 0.598983
v 4.870543 0.441687 0.597920
v 4.870911 0.439601 0.596636
v 4.871112 0.437592 0.596362
v 4.871187 0.436431 0.596467
v 4.871177 0.435355 0.597064
v 4.871124 0.433584 0.598278
v 4.871215 0.431174 0.598903
v 4.871068 0.430057 0.600384
v 4.870938 0.431239 0.600620
v 4.870775 0.432455 0.601045
v 4.870808 0.433382 0.600372
v 4.870611 0.433579 0.601522
v 4.870297 0.431815 0.604379
v 4.870253 0.430853 0.605135
v 4.870261 0.429902 0.605560
v 4.870359 0.426471 0.606641
v 4.870872 0.421587 0.605833
v 4.870996 0.419842 0.605916
v 4.871046 0.418006 0.606513
v 4.871010 0.412912 0.609268
v 4.870741 0.413477 0.610685
v 4.870470 0.413490 0.612394
v 4.870270 0.412689 0.614052
v 4.870218 0.410794 0.615326
v 4.870319 0.408993 0.615581
v 4.870911 0.402993 0.614827
v 4.871065 0.400756 0.614960
v 4.871288 0.399330 0.614263
v 4.871541 0.397981 0.613338
v 4.871790 0.395972 0.612764
v 4.871912 0.394399 0.612775
v 4.871665 0.395038 0.614012
v 4.871445 0.395166 0.615341
v 4.871153 0.392625 0.618444
v 4.871220 0.391652 0.618507
v 4.871584 0.388449 0.617803
v 4.871652 0.387276 0.617957
v 4.871729 0.385123 0.618541
v 4.871799 0.384193 0.618564
v 4.871970 0.383006 0.618069
v 4.872149 0.382265 0.617306
v 4.872323 0.381660 0.616510
v 4.872478 0.380909 0.615906
v 4.872592 0.379984 0.615645
v 4.873078 0.374601 0.615245
v 4.874722 0.352414 0.615895
v 4.874818 0.351479 0.615752
v 4.874936 0.350525 0.615487
v 4.875047 0.349456 0.615317
v 4.875220 0.346821 0.615532
v 4.875494 0.344744 0.614831
v 4.875590 0.343780 0.614707
v 4.875618 0.342758 0.615038
v 4.875604 0.340798 0.616101
v 4.875661 0.339754 0.616254
v 4.875842 0.338543 0.615716
v 4.876549 0.336258 0.612388
v 4.875755 0.335608 0.617726
v 4.875499 0.335809 0.619240
v 4.875048 0.336792 0.621598
v 4.874826 0.337010 0.622893
v 4.873735 0.336922 0.629823
v 4.873580 0.337230 0.630654
v 4.873453 0.337960 0.631093
v 4.873246 0.339010 0.631876
v 4.872977 0.339114 0.633523
v 4.872225 0.340688 0.637489
v 4.871968 0.341445 0.638735
v 4.871709 0.342442 0.639871
v 4.871528 0.343577 0.640456
v 4.871329 0.344983 0.641008
v 4.871093 0.346159 0.641918
v 4.870539 0.347072 0.644962
v 4.870006 0.348994 0.647372
v 4.869791 0.349431 0.648513
v 4.869511 0.349619 0.650184
v 4.869309 0.350158 0.651193
v 4.869131 0.350843 0.651978
v 4.868924 0.351494 0.652960
v 4.868579 0.352223 0.654773
v 4.867793 0.353368 0.659171
v 4.867199 0.353881 0.662667
v 4.865992 0.356376 0.669047
v 4.863912 0.357816 0.681460
v 4.863249 0.359026 0.685047
v 4.862177 0.363916 0.689384
v 4.861858 0.364736 0.690995
v 4.861518 0.365093 0.692962
v 4.859550 0.368920 0.703482
v 4.857118 0.377058 0.714796
v 4.855927 0.380378 0.720665
v 4.853258 0.385633 0.734905
v 4.852621 0.387355 0.738073
v 4.851008 0.393513 0.745195
v 4.850452 0.395244 0.747848
v 4.849840 0.396713 0.750985
v 4.849655 0.396914 0.752048
v 4.849247 0.397869 0.754152
v 4.848712 0.398357 0.757288
v 4.848254 0.399124 0.759795
v 4.847784 0.400272 0.762192
v 4.847402 0.401623 0.763936
v 4.847442 0.402401 0.763295
v 4.846633 0.403657 0.767776
v 4.845894 0.405814 0.771373
v 4.844568 0.410963 0.777190
v 4.844230 0.412018 0.778798
v 4.843536 0.413730 0.782329
v 4.842843 0.416150 0.785499
v 4.842497 0.416854 0.787333
v 4.842158 0.417735 0.789037
v 4.841800 0.419593 0.790378
v 4.842011 0.419594 0.789044
v 4.841652 0.421481 0.790368
v 4.841238 0.422630 0.792415
v 4.840810 0.423510 0.794678
v 4.840410 0.424576 0.796676
v 4.837642 0.435993 0.808478
v 4.837407 0.437552 0.809189
v 4.836946 0.441336 0.810221
v 4.836658 0.443187 0.811111
v 4.836406 0.444254 0.812178
v 4.836052 0.445428 0.813825
v 4.835696 0.446373 0.815605
v 4.835429 0.446756 0.817102
v 4.834867 0.447521 0.820273
v 4.834673 0.448495 0.821010
v 4.834747 0.450040 0.819775
v 4.834709 0.451038 0.819519
v 4.834256 0.453526 0.821147
v 4.832178 0.459602 0.831247
v 4.828722 0.474125 0.845851
v 4.825609 0.485889 0.859661
v 4.824718 0.490061 0.863207
v 4.824552 0.490698 0.863947
v 4.824193 0.491749 0.865689
v 4.824032 0.492525 0.866314
v 4.823908 0.493564 0.866585
v 4.823877 0.494880 0.866128
v 4.823759 0.496123 0.866251
v 4.823489 0.497715 0.867169
v 4.823133 0.499075 0.868742
v 4.822773 0.500032 0.870533
v 4.822503 0.500396 0.872061
v 4.822283 0.501014 0.873140
v 4.820707 0.506823 0.880203
v 4.819703 0.511447 0.884249
v 4.818584 0.514926 0.889580
v 4.818230 0.515752 0.891411
v 4.817565 0.516525 0.895220
v 4.817204 0.517580 0.896982
v 4.816932 0.518957 0.898010
v 4.816869 0.520358 0.897713
v 4.817061 0.519764 0.896795
v 4.817263 0.520095 0.895358
v 4.817263 0.521055 0.894878
v 4.816906 0.521535 0.896894
v 4.816589 0.522692 0.898321
v 4.816281 0.524099 0.899565
v 4.815950 0.525304 0.901055
v 4.815275 0.527385 0.904286
v 4.814957 0.528099 0.905941
v 4.814641 0.528226 0.907874
v 4.811346 0.530637 0.927478
v 4.808790 0.537435 0.940234
v 4.808342 0.539285 0.942142
v 4.808331 0.541026 0.941346
v 4.808597 0.539588 0.940384
v 4.808743 0.539186 0.939664
v 4.808934 0.538907 0.938599
v 4.808456 0.541751 0.940196
v 4.808219 0.544225 0.940465
v 4.808207 0.546518 0.939405
v 4.808396 0.548851 0.937051
v 4.808169 0.548856 0.938479
v 4.808026 0.548561 0.939530
v 4.807934 0.548046 0.940368
v 4.807856 0.547396 0.941184
v 4.807110 0.552319 0.943451
v 4.806318 0.555929 0.946654
v 4.805508 0.558625 0.950427
v 4.802373 0.567390 0.965864
v 4.799073 0.573966 0.983435
v 4.796797 0.579399 0.995101
v 4.796267 0.582019 0.997148
v 4.795958 0.586062 0.997093
v 4.795882 0.588316 0.996449
v 4.795832 0.589267 0.996293
v 4.795741 0.590596 0.996209
v 4.795339 0.593184 0.997462
v 4.794913 0.594226 0.999633
v 4.794514 0.595469 1.001532
v 4.794149 0.596884 1.003135
v 4.793923 0.597909 1.004052
v 4.793262 0.601558 1.006408
vn 0.9847 0.0776 0.1560
vn 0.9847 0.0775 0.1559
vn 0.9848 0.0769 0.1560
vn 0.9847 0.0778 0.1560
vn 0.9847 0.0774 0.1560
vn 0.9846 0.0788 0.1559
vn 0.9847 0.0769 0.1561
vn 0.9847 0.0762 0.1569
vn 0.9847 0.0792 0.1551
vn 0.9849 0.0757 0.1557
vn 0.9846 0.0790 0.1560
vn 0.9843 0.0825 0.1560
vn 0.9846 0.0784 0.1561
vn 0.9847 0.0779 0.1557
vn 0.9847 0.0772 0.1562
vn 0.9847 0.0773 0.1560
vn 0.9848 0.0772 0.1557
vn 0.9847 0.0780 0.1559
vn 0.9847 0.0777 0.1559
vn 0.9847 0.0778 0.1561
vn 0.9847 0.0781 0.1560
vn 0.9847 0.0770 0.1560
vn 0.9847 0.0772 0.1560
vn 0.9848 0.0770 0.1560
vn 0.9847 0.0765 0.1563
vn 0.9847 0.0775 0.1560
vn 0.9849 0.0771 0.1548
vn 0.9846 0.0775 0.1565
vn 0.9847 0.0775 0.1563
vn 0.9847 0.0768 0.1562
vn 0.9847 0.0775 0.1558
vn 0.9849 0.0774 0.1546
vn 0.9848 0.0779 0.1551
vn 0.9846 0.0776 0.1565
vn 0.9847 0.0777 0.1557
vn 0.9847 0.0778 0.1558
vn 0.9847 0.0774 0.1559
vn 0.9847 0.0766 0.1562
vn 0.9847 0.0785 0.1559
vn 0.9846 0.0774 0.1568
vn 0.9848 0.0767 0.1557
vn 0.9848 0.0788 0.1551
vn 0.9847 0.0784 0.1557
vn 0.9847 0.0772 0.1561
vn 0.9847 0.0782 0.1556
vn 0.9847 0.0784 0.1555
vn 0.9848 0.0765 0.1557
vn 0.9848 0.0768 0.1560
vn 0.9849 0.0776 0.1549
vn 0.9847 0.0771 0.1560
vn 0.9847 0.0780 0.1561
vn 0.9848 0.0770 0.1559
vn 0.9847 0.0775 0.1561
vn 0.9847 0.0777 0.1560
vn 0.9847 0.0774 0.1561
vn 0.9847 0.0776 0.1562
vn 0.9848 0.0744 0.1567
vn 0.9845 0.0798 0.1560
vn 0.9848 0.0773 0.1558
vn 0.9847 0.0776 0.1561
vn 0.9847 0.0779 0.1560
vn 0.9849 0.0748 0.1564
vn 0.9846 0.0792 0.1560
vn 0.9847 0.0776 0.1559
vn 0.9846 0.0794 0.1558
vn 0.9847 0.0772 0.1559
vn 0.9849 0.0750 0.1560
vn 0.9844 0.0801 0.1564
vn 0.9846 0.0779 0.1562
vn 0.9846 0.0778 0.1562
vn 0.9848 0.0777 0.1557
vn 0.9847 0.0766 0.1563
vn 0.9848 0.0759 0.1562
vn 0.9850 0.0739 0.1561
vn 0.9847 0.0777 0.1563
vn 0.9847 0.0781 0.1559
vn 0.9847 0.0773 0.1559
vn 0.9848 0.0758 0.1561
vn 0.9846 0.0787 0.1559
vn 0.9848 0.0767 0.1559
vn 0.9847 0.0774 0.1563
vn 0.9846 0.0777 0.1563
vn 0.9848 0.0777 0.1551
vn 0.9846 0.0777 0.1568
vn 0.9847 0.0774 0.1564
vn 0.9847 0.0783 0.1555
vn 0.9851 0.0760 0.1546
vn 0.9846 0.0776 0.1564
vn 0.9848 0.0780 0.1555
vn 0.9847 0.0777 0.1561
vn 0.9847 0.0773 0.1561
vn 0.9848 0.0776 0.1555
vn 0.9848 0.0771 0.1559
vn 0.9848 0.0772 0.1556
vn 0.9848 0.0770 0.1558
vn 0.9847 0.0777 0.1562
vn 0.9849 0.0772 0.1552
vn 0.9849 0.0762 0.1557
vn 0.9850 0.0774 0.1545
vn 0.9848 0.0774 0.1558
vn 0.9847 0.0774 0.1562
vn 0.9847 0.0779 0.1562
vn 0.9848 0.0776 0.1553
vn 0.9847 0.0778 0.1562
vn 0.9847 0.0776 0.1558
vn 0.9847 0.0783 0.1560
vn 0.9845 0.0800 0.1559
vn 0.9848 0.0757 0.1562
vn 0.9848 0.0766 0.1558
vn 0.9847 0.0783 0.1557
vn 0.9847 0.0779 0.1561
vn 0.9847 0.0778 0.1557
vn 0.9847 0.0779 0.1558
vn 0.9848 0.0766 0.1561
vn 0.9845 0.0798 0.1559
vn 0.9849 0.0748 0.1561
vn 0.9848 0.0780 0.1554
vn 0.9846 0.0777 0.1564
vn 0.9847 0.0769 0.1563
vn 0.9848 0.0788 0.1549
vn 0.9847 0.0775 0.1562
vn 0.9848 0.0776 0.1556
vn 0.9846 0.0780 0.1565
vn 0.9847 0.0780 0.1557
vn 0.9848 0.0761 0.1564
vn 0.9847 0.0771 0.1562
vn 0.9848 0.0773 0.1553
vn 0.9847 0.0773 0.1563
vn 0.9847 0.0772 0.1563
vn 0.9848 0.0775 0.1557
vn 0.9847 0.0779 0.1559
vn 0.9847 0.0777 0.1558
vn 0.9847 0.0778 0.1559
vn 0.9846 0.0790 0.1558
vn 0.9845 0.0770 0.1573
vn 0.9848 0.0768 0.1561
vn 0.9848 0.0767 0.1561
vn 0.9847 0.0769 0.1560
vn 0.9847 0.0785 0.1557
vn 0.9848 0.0762 0.1562
vn 0.9847 0.0778 0.1556
vn 0.9848 0.0732 0.1575
vn 0.9845 0.0792 0.1566
vn 0.9848 0.0773 0.1554
vn 0.9848 0.0775 0.1556
vn 0.9846 0.0771 0.1567
vn 0.9848 0.0763 0.1559
vn 0.9847 0.0770 0.1561
vn 0.9847 0.0770 0.1562
vn 0.9845 0.0806 0.1559
vn 0.9848 0.0769 0.1558
vn 0.9846 0.0798 0.1555
vn 0.9848 0.0774 0.1552
vn 0.9848 0.0777 0.1555
vn 0.9850 0.0771 0.1546
vn 0.9846 0.0789 0.1558
vn 0.9846 0.0776 0.1567
vn 0.9847 0.0771 0.1561
vn 0.9848 0.0778 0.1551
vn 0.9845 0.0783 0.1570
vn 0.9848 0.0766 0.1559
vn 0.9848 0.0754 0.1563
usemtl None
s off
f 51//1 47//1 42//1
f 167//2 163//2 128//2
f 254//3 253//3 256//3
f 253//4 252//4 258//4
f 252//5 251//5 258//5
f 251//6 250//6 258//6
f 253//7 258//7 256//7
f 282//8 283//8 273//8
f 283//1 2//1 273//1
f 281//9 282//9 273//9
f 247//10 246//10 244//10
f 246//11 245//11 244//11
f 248//12 247//12 244//12
f 280//13 281//13 274//13
f 277//14 278//14 279//14
f 279//15 280//15 274//15
f 281//16 273//16 274//16
f 242//17 241//17 240//17
f 240//18 239//18 242//18
f 239//19 238//19 243//19
f 239//20 243//20 242//20
f 238//19 237//19 243//19
f 243//21 237//21 244//21
f 237//19 236//19 244//19
f 235//22 234//22 231//22
f 234//23 233//23 231//23
f 244//24 236//24 235//24
f 233//25 232//25 231//25
f 244//26 235//26 3//26
f 235//4 231//4 230//4
f 235//26 230//26 3//26
f 3//16 230//16 229//16
f 227//27 226//27 225//27
f 225//28 224//28 227//28
f 224//29 223//29 227//29
f 222//30 221//30 228//30
f 221//31 220//31 228//31
f 227//32 223//32 222//32
f 228//33 227//33 222//33
f 220//26 219//26 218//26
f 229//34 228//34 220//34
f 229//26 220//26 3//26
f 220//26 218//26 3//26
f 3//26 218//26 210//26
f 216//35 215//35 214//35
f 216//5 214//5 213//5
f 217//36 216//36 213//36
f 217//37 213//37 212//37
f 218//38 217//38 211//38
f 217//39 212//39 211//39
f 218//40 211//40 210//40
f 210//41 209//41 3//41
f 112//36 175//36 113//36
f 208//42 207//42 206//42
f 206//26 205//26 208//26
f 205//43 204//43 203//43
f 205//44 203//44 208//44
f 208//45 203//45 209//45
f 203//46 202//46 209//46
f 201//1 200//1 199//1
f 201//19 199//19 198//19
f 197//47 196//47 195//47
f 201//48 198//48 197//48
f 202//49 201//49 197//49
f 202//50 197//50 195//50
f 209//26 202//26 3//26
f 202//26 195//26 3//26
f 3//2 194//2 191//2
f 194//51 193//51 191//51
f 193//52 192//52 191//52
f 194//53 3//53 195//53
f 3//26 191//26 184//26
f 175//26 112//26 178//26
f 3//54 184//54 4//54
f 191//1 190//1 189//1
f 189//55 188//55 191//55
f 188//56 187//56 191//56
f 186//57 185//57 184//57
f 187//48 186//48 191//48
f 39//16 183//16 182//16
f 191//58 186//58 184//58
f 183//26 39//26 8//26
f 39//26 178//26 112//26
f 178//2 39//2 179//2
f 113//52 175//52 174//52
f 184//2 183//2 4//2
f 182//59 181//59 180//59
f 179//26 39//26 182//26
f 113//26 174//26 122//26
f 182//23 180//23 179//23
f 122//60 171//60 123//60
f 171//5 122//5 174//5
f 178//61 177//61 175//61
f 177//62 176//62 175//62
f 123//26 171//26 169//26
f 123//26 169//26 126//26
f 126//63 169//63 127//63
f 174//64 173//64 172//64
f 171//65 170//65 169//65
f 174//4 172//4 171//4
f 127//5 169//5 168//5
f 127//4 168//4 167//4
f 127//66 167//66 128//66
f 128//37 167//37 163//37
f 166//48 165//48 163//48
f 165//67 164//67 163//67
f 167//68 166//68 163//68
f 128//2 162//2 133//2
f 162//69 128//69 163//69
f 133//2 162//2 160//2
f 162//70 161//70 160//70
f 159//71 158//71 155//71
f 158//72 157//72 156//72
f 133//26 160//26 134//26
f 158//73 156//73 155//73
f 155//60 154//60 153//60
f 152//74 151//74 150//74
f 159//5 155//5 153//5
f 153//75 152//75 150//75
f 153//76 150//76 149//76
f 160//66 159//66 134//66
f 159//26 153//26 134//26
f 153//77 149//77 138//77
f 134//78 153//78 135//78
f 148//26 147//26 143//26
f 147//1 146//1 144//1
f 149//79 148//79 142//79
f 153//54 138//54 135//54
f 147//5 144//5 143//5
f 146//19 145//19 144//19
f 248//1 244//1 3//1
f 148//80 143//80 142//80
f 149//37 142//37 138//37
f 142//81 141//81 138//81
f 141//82 140//82 139//82
f 138//83 141//83 139//83
f 138//84 137//84 136//84
f 138//85 136//85 135//85
f 133//53 132//53 129//53
f 132//86 131//86 130//86
f 132//87 130//87 129//87
f 133//16 129//16 128//16
f 249//16 248//16 3//16
f 183//26 8//26 4//26
f 126//88 125//88 123//88
f 125//89 124//89 123//89
f 122//90 121//90 115//90
f 120//91 119//91 118//91
f 122//92 115//92 114//92
f 121//93 120//93 117//93
f 115//85 121//85 116//85
f 120//20 118//20 117//20
f 117//4 116//4 121//4
f 114//55 113//55 122//55
f 250//76 249//76 3//76
f 277//94 279//94 276//94
f 275//95 276//95 279//95
f 274//16 275//16 279//16
f 112//31 111//31 42//31
f 111//96 110//96 104//96
f 111//97 104//97 103//97
f 110//98 109//98 107//98
f 104//5 110//5 105//5
f 109//26 108//26 107//26
f 107//99 106//99 105//99
f 107//61 105//61 110//61
f 272//5 273//5 2//5
f 269//1 270//1 254//1
f 270//26 271//26 254//26
f 271//26 272//26 254//26
f 272//26 2//26 254//26
f 39//2 112//2 42//2
f 111//26 103//26 42//26
f 268//53 269//53 254//53
f 266//100 267//100 254//100
f 267//26 268//26 254//26
f 264//101 265//101 261//101
f 265//5 266//5 261//5
f 262//102 263//102 261//102
f 263//59 264//59 261//59
f 260//1 261//1 266//1
f 103//103 102//103 84//103
f 260//90 266//90 254//90
f 256//104 257//104 259//104
f 259//93 260//93 254//93
f 102//105 101//105 85//105
f 256//106 259//106 254//106
f 3//5 258//5 250//5
f 101//26 100//26 87//26
f 5//107 4//107 7//107
f 7//108 6//108 5//108
f 8//41 7//41 4//41
f 103//20 84//20 83//20
f 100//109 99//109 93//109
f 84//55 102//55 85//55
f 99//105 98//105 97//105
f 97//5 96//5 95//5
f 94//91 93//91 99//91
f 93//110 92//110 91//110
f 97//54 95//54 99//54
f 95//111 94//111 99//111
f 93//112 91//112 88//112
f 91//16 90//16 88//16
f 90//113 89//113 88//113
f 100//5 93//5 88//5
f 85//90 101//90 86//90
f 9//1 8//1 27//1
f 88//26 87//26 100//26
f 10//114 9//114 27//114
f 8//61 39//61 38//61
f 12//112 11//112 13//112
f 11//115 10//115 13//115
f 14//21 13//21 16//21
f 16//66 13//66 10//66
f 16//116 15//116 14//116
f 19//117 18//117 20//117
f 18//118 17//118 20//118
f 17//54 16//54 25//54
f 25//16 16//16 26//16
f 8//37 38//37 27//37
f 86//5 101//5 87//5
f 20//56 17//56 25//56
f 22//119 21//119 23//119
f 21//26 20//26 24//26
f 24//55 20//55 25//55
f 24//54 23//54 21//54
f 26//64 16//64 10//64
f 103//2 83//2 42//2
f 83//13 82//13 81//13
f 83//44 81//44 80//44
f 27//64 26//64 10//64
f 30//52 29//52 32//52
f 29//26 28//26 33//26
f 32//111 29//111 33//111
f 28//120 27//120 38//120
f 83//121 80//121 68//121
f 79//122 78//122 76//122
f 78//123 77//123 76//123
f 80//124 79//124 73//124
f 31//125 30//125 32//125
f 42//26 83//26 53//26
f 76//126 75//126 74//126
f 79//127 76//127 73//127
f 83//26 68//26 53//26
f 76//128 74//128 73//128
f 72//3 71//3 70//3
f 70//129 69//129 72//129
f 69//77 68//77 73//77
f 72//105 69//105 73//105
f 34//18 33//18 28//18
f 36//130 35//130 37//130
f 35//93 34//93 37//93
f 37//128 34//128 28//128
f 38//105 37//105 28//105
f 73//2 68//2 80//2
f 68//26 67//26 53//26
f 42//131 53//131 51//131
f 41//105 40//105 39//105
f 66//1 65//1 61//1
f 65//1 64//1 62//1
f 61//4 65//4 62//4
f 64//23 63//23 62//23
f 67//132 66//132 60//132
f 42//31 41//31 39//31
f 45//133 44//133 46//133
f 44//133 43//133 46//133
f 43//23 42//23 47//23
f 66//80 61//80 60//80
f 47//3 46//3 43//3
f 49//134 48//134 47//134
f 51//16 50//16 49//16
f 53//135 52//135 51//135
f 56//136 55//136 54//136
f 56//137 54//137 59//137
f 54//76 53//76 59//76
f 58//138 57//138 56//138
f 59//139 58//139 56//139
f 60//43 59//43 67//43
f 59//37 53//37 67//37
f 51//140 49//140 47//140
f 283//141 282//141 278//141
f 282//142 281//142 279//142
f 278//117 282//117 279//117
f 281//143 280//143 279//143
f 1//26 2//26 283//26
f 1//26 283//26 72//26
f 283//131 278//131 269//131
f 72//26 283//26 269//26
f 72//77 71//77 1//77
f 278//90 277//90 270//90
f 269//66 278//66 270//66
f 73//26 72//26 210//26
f 72//76 269//76 268//76
f 277//130 276//130 271//130
f 76//126 75//126 74//126
f 74//129 73//129 76//129
f 275//16 274//16 272//16
f 274//64 273//64 272//64
f 72//26 268//26 249//26
f 276//133 275//133 271//133
f 78//123 77//123 76//123
f 270//1 277//1 271//1
f 76//144 73//144 79//144
f 272//5 271//5 275//5
f 78//145 76//145 79//145
f 79//124 73//124 80//124
f 80//146 73//146 83//146
f 82//13 81//13 83//13
f 81//91 80//91 83//91
f 72//76 249//76 248//76
f 83//26 73//26 183//26
f 262//26 268//26 267//26
f 267//16 266//16 265//16
f 268//147 262//147 249//147
f 84//111 83//111 103//111
f 267//148 265//148 264//148
f 267//133 264//133 263//133
f 85//55 84//55 102//55
f 72//16 248//16 244//16
f 86//60 85//60 101//60
f 72//5 244//5 230//5
f 267//149 263//149 262//149
f 262//101 261//101 259//101
f 261//130 260//130 259//130
f 259//96 257//96 262//96
f 257//150 258//150 256//150
f 256//61 255//61 254//61
f 254//3 253//3 256//3
f 253//4 252//4 257//4
f 252//16 251//16 262//16
f 251//131 250//131 262//131
f 253//129 257//129 256//129
f 257//26 252//26 262//26
f 72//79 230//79 229//79
f 87//5 86//5 101//5
f 72//26 229//26 220//26
f 112//26 83//26 179//26
f 88//26 87//26 100//26
f 83//94 112//94 111//94
f 88//5 100//5 93//5
f 90//113 89//113 88//113
f 92//110 91//110 93//110
f 91//16 90//16 88//16
f 94//91 93//91 99//91
f 88//35 93//35 91//35
f 96//5 95//5 97//5
f 95//111 94//111 99//111
f 97//54 95//54 99//54
f 99//105 98//105 97//105
f 93//151 100//151 99//151
f 262//152 250//152 249//152
f 72//26 220//26 218//26
f 100//26 87//26 101//26
f 244//12 248//12 247//12
f 247//10 246//10 244//10
f 246//11 245//11 244//11
f 83//60 111//60 103//60
f 230//44 244//44 235//44
f 244//21 243//21 237//21
f 235//24 244//24 236//24
f 102//105 101//105 85//105
f 242//17 241//17 240//17
f 243//111 242//111 239//111
f 103//103 102//103 84//103
f 236//132 244//132 237//132
f 242//76 240//76 239//76
f 239//19 238//19 243//19
f 238//19 237//19 243//19
f 104//153 103//153 111//153
f 106//99 105//99 107//99
f 105//5 104//5 110//5
f 108//4 107//4 109//4
f 109//98 107//98 110//98
f 110//61 107//61 105//61
f 235//22 234//22 231//22
f 234//23 233//23 231//23
f 110//96 104//96 111//96
f 233//25 232//25 231//25
f 235//4 231//4 230//4
f 115//154 114//154 122//154
f 114//55 113//55 122//55
f 113//36 112//36 175//36
f 72//1 218//1 210//1
f 73//19 210//19 209//19
f 73//26 209//26 202//26
f 118//20 117//20 120//20
f 117//4 116//4 121//4
f 120//93 117//93 121//93
f 116//85 115//85 121//85
f 73//26 202//26 194//26
f 122//26 113//26 174//26
f 229//34 228//34 220//34
f 119//53 118//53 120//53
f 228//33 227//33 222//33
f 227//27 226//27 225//27
f 225//28 224//28 227//28
f 224//29 223//29 227//29
f 222//30 221//30 228//30
f 221//31 220//31 228//31
f 227//32 223//32 222//32
f 121//90 115//90 122//90
f 220//26 219//26 218//26
f 125//89 124//89 123//89
f 123//60 122//60 171//60
f 73//26 194//26 191//26
f 183//37 73//37 184//37
f 126//88 125//88 123//88
f 127//63 126//63 169//63
f 126//26 123//26 169//26
f 179//26 83//26 182//26
f 218//38 217//38 211//38
f 210//40 218//40 211//40
f 216//35 215//35 214//35
f 217//36 216//36 213//36
f 182//5 83//5 183//5
f 216//5 214//5 213//5
f 213//64 212//64 217//64
f 128//66 127//66 167//66
f 178//77 112//77 179//77
f 131//86 130//86 132//86
f 130//155 129//155 132//155
f 129//53 128//53 133//53
f 112//26 178//26 175//26
f 212//156 211//156 217//156
f 133//53 132//53 129//53
f 134//26 133//26 160//26
f 113//52 175//52 174//52
f 122//5 174//5 171//5
f 73//26 191//26 184//26
f 208//42 207//42 206//42
f 209//45 208//45 203//45
f 137//157 136//157 138//157
f 136//88 135//88 138//88
f 135//78 134//78 153//78
f 208//26 206//26 205//26
f 205//43 204//43 203//43
f 208//158 205//158 203//158
f 140//118 139//118 141//118
f 139//159 138//159 141//159
f 202//154 209//154 203//154
f 138//54 135//54 153//54
f 201//1 200//1 199//1
f 133//2 162//2 160//2
f 201//19 199//19 198//19
f 162//2 133//2 128//2
f 202//49 201//49 197//49
f 142//81 141//81 138//81
f 201//48 198//48 197//48
f 197//47 196//47 195//47
f 194//51 193//51 191//51
f 193//52 192//52 191//52
f 197//50 195//50 202//50
f 195//160 194//160 202//160
f 142//37 138//37 149//37
f 143//161 142//161 148//161
f 169//26 123//26 171//26
f 191//1 190//1 189//1
f 189//55 188//55 191//55
f 188//56 187//56 191//56
f 186//57 185//57 184//57
f 187//48 186//48 191//48
f 134//77 160//77 159//77
f 191//58 186//58 184//58
f 144//5 143//5 147//5
f 146//19 145//19 144//19
f 148//26 147//26 143//26
f 147//1 146//1 144//1
f 151//74 150//74 152//74
f 150//64 149//64 153//64
f 152//82 150//82 153//82
f 149//79 148//79 142//79
f 153//77 149//77 138//77
f 155//60 154//60 153//60
f 134//1 159//1 153//1
f 182//59 181//59 180//59
f 182//23 180//23 179//23
f 155//5 153//5 159//5
f 157//162 156//162 158//162
f 156//73 155//73 158//73
f 159//71 158//71 155//71
f 162//70 161//70 160//70
f 178//61 177//61 175//61
f 177//62 176//62 175//62
f 127//5 169//5 168//5
f 174//64 173//64 172//64
f 127//4 168//4 167//4
f 163//69 162//69 128//69
f 165//67 164//67 163//67
f 166//48 165//48 163//48
f 174//4 172//4 171//4
f 171//65 170//65 169//65
f 166//68 163//68 167//68
