# Blender v2.81 (sub 16) OBJ File: ''
# www.blender.org
mtllib Luxembourg.mtl
o 0_Luxembourg_sphere.001
v 3.230140 3.802029 -0.329961
v 3.226949 3.802029 -0.358868
v 3.185853 3.838387 -0.336993
v 3.185560 3.838517 -0.338248
v 3.185276 3.838711 -0.338709
v 3.184940 3.838962 -0.339036
v 3.184847 3.839000 -0.339465
v 3.185303 3.838547 -0.340245
v 3.185890 3.838028 -0.340553
v 3.186529 3.837494 -0.340557
v 3.187042 3.837048 -0.340741
v 3.187238 3.836805 -0.341605
v 3.188246 3.835988 -0.341320
v 3.189193 3.835213 -0.341146
v 3.191110 3.833625 -0.340994
v 3.191148 3.833584 -0.341097
v 3.191088 3.833604 -0.341431
v 3.191088 3.833592 -0.341560
v 3.191328 3.833408 -0.341375
v 3.192165 3.832749 -0.340936
v 3.192368 3.832521 -0.341574
v 3.192877 3.832056 -0.341998
v 3.194236 3.830875 -0.342496
v 3.194996 3.830247 -0.342419
v 3.195511 3.829788 -0.342721
v 3.196539 3.828829 -0.343812
v 3.198327 3.827238 -0.344869
v 3.198861 3.826744 -0.345379
v 3.197875 3.827521 -0.345884
v 3.198970 3.826506 -0.346979
v 3.202190 3.823610 -0.349200
v 3.202778 3.823031 -0.350154
v 3.203222 3.822477 -0.352134
v 3.203539 3.822133 -0.353000
v 3.203876 3.821822 -0.353308
v 3.204315 3.821430 -0.353586
v 3.204967 3.820846 -0.353999
v 3.205185 3.820657 -0.354083
v 3.205166 3.820630 -0.354540
v 3.204679 3.820963 -0.355341
v 3.204635 3.820955 -0.355837
v 3.204993 3.820563 -0.356843
v 3.205998 3.819561 -0.358593
v 3.206358 3.819168 -0.359600
v 3.206456 3.818993 -0.360607
v 3.206154 3.818996 -0.363309
v 3.206352 3.818666 -0.365087
v 3.206338 3.818658 -0.365310
v 3.206555 3.818445 -0.365641
v 3.206651 3.818378 -0.365510
v 3.207216 3.817901 -0.365567
v 3.207268 3.817864 -0.365491
v 3.208752 3.816633 -0.365387
v 3.209226 3.816233 -0.365434
v 3.209506 3.815982 -0.365619
v 3.209767 3.815763 -0.365624
v 3.210199 3.815449 -0.365118
v 3.210800 3.814945 -0.365144
v 3.211330 3.814484 -0.365333
v 3.211780 3.814079 -0.365655
v 3.212149 3.813729 -0.366103
v 3.212056 3.813854 -0.365597
v 3.212185 3.813769 -0.365346
v 3.212532 3.813493 -0.365190
v 3.212830 3.813205 -0.365613
v 3.212962 3.813083 -0.365740
v 3.215490 3.811332 -0.361822
v 3.216530 3.810534 -0.361051
v 3.216740 3.810348 -0.361174
v 3.216889 3.810188 -0.361557
v 3.217109 3.809969 -0.361930
v 3.217544 3.809597 -0.362031
v 3.217861 3.809342 -0.361912
v 3.218391 3.808934 -0.361539
v 3.219357 3.808170 -0.361066
v 3.220914 3.806991 -0.359747
v 3.222034 3.806123 -0.359006
v 3.222804 3.805502 -0.358765
v 3.224912 3.803719 -0.358995
v 3.225564 3.803179 -0.358954
v 3.229744 3.802424 -0.329268
v 3.228117 3.803965 -0.327305
v 3.227487 3.804372 -0.328595
v 3.226292 3.805262 -0.329779
v 3.225197 3.806138 -0.330207
v 3.224893 3.806483 -0.329208
v 3.224367 3.806869 -0.329796
v 3.223652 3.807431 -0.330176
v 3.222040 3.808726 -0.330738
v 3.221587 3.809067 -0.331144
v 3.221129 3.809403 -0.331662
v 3.220517 3.809891 -0.331917
v 3.219603 3.810693 -0.331502
v 3.219379 3.810919 -0.331067
v 3.219398 3.811009 -0.329925
v 3.219214 3.811200 -0.329517
v 3.218746 3.811615 -0.329269
v 3.218498 3.811816 -0.329325
v 3.218267 3.811996 -0.329472
v 3.217830 3.812363 -0.329456
v 3.217452 3.812674 -0.329505
v 3.217185 3.812874 -0.329754
v 3.216886 3.813107 -0.329935
v 3.216534 3.813410 -0.329845
v 3.216384 3.813538 -0.329806
v 3.216023 3.813874 -0.329439
v 3.216040 3.813894 -0.329070
v 3.216172 3.813817 -0.328718
v 3.216159 3.813856 -0.328399
v 3.216050 3.813980 -0.328047
v 3.215950 3.814138 -0.327242
v 3.215763 3.814330 -0.326858
v 3.215605 3.814460 -0.326866
v 3.214686 3.815249 -0.326647
v 3.214382 3.815514 -0.326527
v 3.212504 3.817225 -0.324994
v 3.212119 3.817585 -0.324579
v 3.211856 3.817874 -0.323829
v 3.211840 3.817944 -0.323217
v 3.211685 3.818127 -0.322626
v 3.210988 3.818772 -0.321956
v 3.210185 3.819482 -0.321529
v 3.209395 3.820157 -0.321367
v 3.208731 3.820695 -0.321552
v 3.208315 3.820984 -0.322184
v 3.207985 3.821313 -0.321605
v 3.207732 3.821518 -0.321679
v 3.207567 3.821648 -0.321767
v 3.207359 3.821816 -0.321828
v 3.206972 3.822143 -0.321784
v 3.206934 3.822038 -0.323269
v 3.206382 3.822553 -0.322685
v 3.205782 3.823175 -0.321371
v 3.205607 3.823385 -0.320685
v 3.204948 3.823921 -0.320847
v 3.202150 3.826104 -0.322527
v 3.201701 3.826462 -0.322709
v 3.201348 3.826748 -0.322809
v 3.200977 3.827042 -0.322982
v 3.200482 3.827420 -0.323377
v 3.200237 3.827590 -0.323751
v 3.200000 3.827713 -0.324564
v 3.199615 3.827995 -0.324993
v 3.198631 3.828769 -0.325514
v 3.198285 3.829082 -0.325251
v 3.197955 3.829398 -0.324819
v 3.197025 3.830178 -0.324789
v 3.196633 3.830477 -0.325101
v 3.196124 3.830801 -0.326196
v 3.195750 3.831080 -0.326567
v 3.195207 3.831525 -0.326653
v 3.194578 3.832057 -0.326588
v 3.193812 3.832710 -0.326446
v 3.193361 3.833060 -0.326740
v 3.192727 3.833519 -0.327500
v 3.192312 3.833838 -0.327803
v 3.191842 3.834223 -0.327895
v 3.190746 3.835139 -0.327894
v 3.190300 3.835496 -0.328053
v 3.189551 3.836042 -0.328912
v 3.188544 3.836700 -0.330912
v 3.187788 3.837261 -0.331676
v 3.186781 3.838070 -0.332022
v 3.185842 3.838843 -0.332158
v 3.185174 3.839363 -0.332568
v 3.184948 3.839443 -0.333748
v 3.184327 3.839888 -0.334553
v 3.184588 3.839633 -0.334943
v 3.185205 3.839094 -0.335194
v 3.185658 3.838681 -0.335587
v 3.185787 3.838525 -0.336100
v 3.185853 3.838446 -0.336356
v 3.227747 3.801345 -0.358822
v 3.229728 3.799598 -0.359225
v 3.230216 3.799173 -0.359276
v 3.230250 3.799252 -0.358133
v 3.229788 3.799800 -0.356557
v 3.228550 3.801142 -0.353687
v 3.228505 3.801191 -0.353581
v 3.228203 3.801604 -0.351979
v 3.228248 3.801719 -0.350355
v 3.228875 3.801485 -0.347132
v 3.229444 3.800954 -0.347566
v 3.229728 3.800859 -0.345980
v 3.229894 3.800753 -0.345589
v 3.230330 3.800402 -0.345334
v 3.230753 3.800032 -0.345385
v 3.231122 3.799722 -0.345294
v 3.231394 3.799551 -0.344630
v 3.232089 3.798998 -0.344147
v 3.232414 3.798794 -0.343340
v 3.233149 3.798618 -0.338530
v 3.233502 3.798405 -0.337572
v 3.231691 3.800059 -0.336599
v 3.230987 3.800776 -0.335451
v 3.230709 3.801364 -0.331797
v 3.230348 3.801816 -0.330327
vn 0.6394 0.7656 -0.0706
vn 0.6502 0.7564 -0.0717
vn 0.6396 0.7654 -0.0706
vn 0.6397 0.7654 -0.0706
vn 0.6396 0.7653 -0.0725
vn 0.6395 0.7655 -0.0705
vn 0.6397 0.7654 -0.0697
vn 0.6396 0.7654 -0.0709
vn 0.6396 0.7655 -0.0703
vn 0.6396 0.7655 -0.0710
vn 0.6394 0.7656 -0.0702
vn 0.6396 0.7655 -0.0704
vn 0.6396 0.7655 -0.0702
vn 0.6400 0.7651 -0.0707
vn 0.6396 0.7656 -0.0697
vn 0.6397 0.7654 -0.0705
vn 0.6401 0.7651 -0.0703
vn 0.6392 0.7656 -0.0724
vn 0.6404 0.7648 -0.0709
vn 0.6395 0.7656 -0.0696
vn 0.6397 0.7653 -0.0713
vn 0.6396 0.7655 -0.0696
vn 0.6394 0.7656 -0.0707
vn 0.6422 0.7633 -0.0703
vn 0.6396 0.7654 -0.0708
vn 0.6396 0.7653 -0.0726
vn 0.6396 0.7654 -0.0707
vn 0.6386 0.7662 -0.0710
vn 0.6398 0.7653 -0.0708
vn 0.6403 0.7647 -0.0717
vn 0.6398 0.7654 -0.0693
vn 0.6393 0.7659 -0.0684
vn 0.6389 0.7665 -0.0660
vn 0.6397 0.7649 -0.0759
vn 0.6382 0.7670 -0.0662
vn 0.6387 0.7661 -0.0724
vn 0.6395 0.7655 -0.0715
vn 0.6409 0.7638 -0.0769
vn 0.6395 0.7656 -0.0700
vn 0.6396 0.7655 -0.0705
vn 0.6397 0.7654 -0.0709
vn 0.6394 0.7656 -0.0715
vn 0.6400 0.7651 -0.0705
vn 0.6371 0.7675 -0.0710
vn 0.6394 0.7656 -0.0710
vn 0.6394 0.7657 -0.0703
vn 0.6420 0.7634 -0.0710
vn 0.6396 0.7655 -0.0708
vn 0.6401 0.7651 -0.0695
vn 0.6393 0.7657 -0.0706
vn 0.6393 0.7657 -0.0709
vn 0.6397 0.7654 -0.0703
vn 0.6395 0.7654 -0.0712
vn 0.6395 0.7655 -0.0702
vn 0.6396 0.7654 -0.0715
vn 0.6394 0.7656 -0.0714
vn 0.6393 0.7658 -0.0693
vn 0.6395 0.7655 -0.0704
vn 0.6397 0.7654 -0.0707
vn 0.6398 0.7653 -0.0703
vn 0.6387 0.7661 -0.0718
vn 0.6396 0.7655 -0.0701
vn 0.6394 0.7656 -0.0705
vn 0.6396 0.7654 -0.0713
vn 0.6396 0.7655 -0.0699
vn 0.6398 0.7653 -0.0707
vn 0.6393 0.7658 -0.0698
vn 0.6388 0.7663 -0.0686
vn 0.6397 0.7654 -0.0704
vn 0.6395 0.7655 -0.0707
vn 0.6402 0.7649 -0.0707
vn 0.6388 0.7662 -0.0696
vn 0.6405 0.7648 -0.0702
vn 0.6396 0.7655 -0.0709
vn 0.6392 0.7657 -0.0708
vn 0.6397 0.7655 -0.0696
vn 0.6433 0.7624 -0.0702
vn 0.6387 0.7662 -0.0706
vn 0.6396 0.7655 -0.0706
vn 0.6395 0.7656 -0.0705
vn 0.6397 0.7653 -0.0718
vn 0.6395 0.7655 -0.0710
vn 0.6392 0.7658 -0.0710
vn 0.6395 0.7656 -0.0701
vn 0.6390 0.7659 -0.0718
vn 0.6401 0.7650 -0.0710
vn 0.6393 0.7655 -0.0724
vn 0.6396 0.7654 -0.0711
vn 0.6414 0.7640 -0.0706
vn 0.6400 0.7650 -0.0713
vn 0.6395 0.7656 -0.0706
vn 0.6399 0.7652 -0.0708
vn 0.6398 0.7654 -0.0699
vn 0.6395 0.7654 -0.0719
vn 0.6400 0.7652 -0.0700
vn 0.6395 0.7657 -0.0697
vn 0.6398 0.7655 -0.0684
vn 0.6396 0.7654 -0.0714
vn 0.6394 0.7658 -0.0694
vn 0.6395 0.7657 -0.0690
vn 0.6390 0.7659 -0.0705
vn 0.6394 0.7654 -0.0736
vn 0.6395 0.7655 -0.0706
vn 0.6396 0.7654 -0.0716
vn 0.6392 0.7656 -0.0721
vn 0.6394 0.7657 -0.0699
vn 0.6400 0.7654 -0.0678
vn 0.6397 0.7653 -0.0705
vn 0.6398 0.7653 -0.0705
vn 0.6395 0.7655 -0.0709
vn 0.6404 0.7648 -0.0707
vn 0.6398 0.7653 -0.0702
vn 0.6401 0.7650 -0.0704
vn 0.6396 0.7654 -0.0704
vn 0.6397 0.7653 -0.0710
vn 0.6393 0.7657 -0.0703
vn 0.6402 0.7649 -0.0708
vn 0.6397 0.7653 -0.0712
vn 0.6398 0.7653 -0.0709
vn 0.6395 0.7656 -0.0702
vn 0.6518 0.7550 -0.0719
vn 0.6510 0.7556 -0.0721
vn 0.6515 0.7552 -0.0720
vn 0.6516 0.7551 -0.0721
vn 0.6517 0.7551 -0.0718
vn 0.6507 0.7559 -0.0714
vn 0.6522 0.7546 -0.0718
vn 0.6511 0.7555 -0.0723
vn 0.6512 0.7554 -0.0719
vn 0.6515 0.7553 -0.0720
vn 0.6520 0.7548 -0.0719
vn 0.6514 0.7553 -0.0717
vn 0.6512 0.7552 -0.0743
vn 0.6515 0.7552 -0.0718
vn 0.6512 0.7555 -0.0724
vn 0.6515 0.7552 -0.0722
vn 0.6517 0.7551 -0.0719
vn 0.6505 0.7560 -0.0728
vn 0.6515 0.7552 -0.0719
vn 0.6514 0.7553 -0.0718
vn 0.6515 0.7552 -0.0721
vn 0.6516 0.7552 -0.0720
usemtl None
s off
f 169//1 168//1 166//1
f 181//2 180//2 2//2
f 1//3 2//3 85//3
f 2//4 80//4 85//4
f 80//5 79//5 78//5
f 80//3 78//3 91//3
f 85//3 80//3 91//3
f 82//6 81//6 83//6
f 81//7 1//7 84//7
f 83//8 81//8 84//8
f 78//1 77//1 92//1
f 76//9 75//9 68//9
f 75//10 74//10 69//10
f 77//11 76//11 68//11
f 87//12 86//12 85//12
f 85//13 84//13 1//13
f 91//14 78//14 92//14
f 75//15 69//15 68//15
f 74//16 73//16 69//16
f 73//17 72//17 70//17
f 69//18 73//18 70//18
f 72//19 71//19 70//19
f 92//3 77//3 68//3
f 88//20 87//20 85//20
f 89//21 88//21 90//21
f 88//22 85//22 91//22
f 91//23 90//23 88//23
f 67//1 66//1 64//1
f 66//24 65//24 64//24
f 68//13 67//13 38//13
f 92//1 68//1 93//1
f 93//3 68//3 38//3
f 67//25 64//25 58//25
f 64//26 63//26 59//26
f 44//27 67//27 58//27
f 96//28 95//28 97//28
f 95//29 94//29 99//29
f 97//30 95//30 98//30
f 94//13 93//13 103//13
f 67//12 44//12 43//12
f 67//27 43//27 38//27
f 64//31 59//31 58//31
f 44//9 58//9 45//9
f 99//32 98//32 95//32
f 101//33 100//33 102//33
f 100//34 99//34 102//34
f 63//35 62//35 60//35
f 62//36 61//36 60//36
f 60//37 59//37 63//37
f 99//1 94//1 102//1
f 103//9 102//9 94//9
f 105//38 104//38 93//38
f 104//39 103//39 93//39
f 105//40 93//40 38//40
f 106//41 105//41 31//41
f 57//42 56//42 55//42
f 58//43 57//43 45//43
f 109//44 108//44 107//44
f 107//45 106//45 114//45
f 57//46 55//46 54//46
f 57//13 54//13 53//13
f 110//47 109//47 107//47
f 57//48 53//48 45//48
f 52//49 51//49 50//49
f 53//25 52//25 46//25
f 45//25 53//25 46//25
f 111//50 110//50 113//50
f 110//51 107//51 114//51
f 113//14 112//14 111//14
f 114//52 113//52 110//52
f 116//3 106//3 28//3
f 50//53 49//53 48//53
f 106//54 116//54 115//54
f 52//55 50//55 47//55
f 115//56 114//56 106//56
f 50//57 48//57 47//57
f 47//58 46//58 52//58
f 117//8 116//8 131//8
f 105//59 38//59 32//59
f 120//60 119//60 121//60
f 119//61 118//61 121//61
f 118//62 117//62 131//62
f 105//63 32//63 31//63
f 123//64 122//64 125//64
f 122//65 121//65 125//65
f 125//66 124//66 123//66
f 127//67 126//67 125//67
f 128//68 127//68 125//68
f 121//69 118//69 125//69
f 106//3 31//3 28//3
f 43//70 42//70 39//70
f 42//71 41//71 39//71
f 39//72 41//72 40//72
f 129//73 128//73 131//73
f 128//41 125//41 131//41
f 125//74 118//74 131//74
f 131//75 130//75 129//75
f 43//76 39//76 38//76
f 38//77 37//77 36//77
f 36//78 35//78 33//78
f 35//40 34//40 33//40
f 33//64 32//64 36//64
f 31//79 30//79 28//79
f 30//80 29//80 28//80
f 38//40 36//40 32//40
f 116//3 28//3 131//3
f 132//81 131//81 136//81
f 135//82 134//82 133//82
f 133//83 132//83 135//83
f 131//66 28//66 27//66
f 136//12 135//12 132//12
f 139//84 138//84 142//84
f 138//85 137//85 142//85
f 137//86 136//86 142//86
f 142//12 136//12 131//12
f 131//3 27//3 143//3
f 27//87 26//87 25//87
f 131//88 143//88 142//88
f 141//89 140//89 139//89
f 142//90 141//90 139//90
f 27//79 25//79 144//79
f 143//91 27//91 144//91
f 24//45 23//45 20//45
f 23//92 22//92 20//92
f 25//4 24//4 150//4
f 144//4 25//4 150//4
f 22//93 21//93 20//93
f 147//94 146//94 145//94
f 145//95 144//95 149//95
f 149//96 144//96 150//96
f 24//79 20//79 150//79
f 148//97 147//97 145//97
f 149//98 148//98 145//98
f 20//99 19//99 16//99
f 19//100 18//100 17//100
f 19//101 17//101 16//101
f 150//25 20//25 151//25
f 15//102 20//102 16//102
f 20//40 15//40 161//40
f 151//103 20//103 156//103
f 156//79 20//79 161//79
f 15//4 14//4 162//4
f 154//104 153//104 152//104
f 152//105 151//105 155//105
f 13//106 12//106 11//106
f 151//107 156//107 155//107
f 14//22 13//22 11//22
f 155//108 154//108 152//108
f 14//27 11//27 3//27
f 10//74 9//74 4//74
f 9//109 8//109 5//109
f 4//27 9//27 5//27
f 161//70 15//70 162//70
f 11//91 10//91 4//91
f 14//110 3//110 172//110
f 8//58 7//58 5//58
f 7//111 6//111 5//111
f 156//112 161//112 157//112
f 159//113 158//113 160//113
f 158//9 157//9 160//9
f 11//114 4//114 3//114
f 161//103 160//103 157//103
f 172//115 171//115 162//115
f 171//116 170//116 162//116
f 14//79 172//79 162//79
f 165//117 164//117 166//117
f 164//118 163//118 166//118
f 163//119 162//119 170//119
f 167//62 166//62 168//62
f 166//79 163//79 170//79
f 169//120 166//120 170//120
f 2//121 1//121 181//121
f 1//122 197//122 196//122
f 181//123 1//123 182//123
f 196//124 195//124 1//124
f 194//125 193//125 192//125
f 194//123 192//123 191//123
f 191//126 190//126 189//126
f 189//127 188//127 187//127
f 189//128 187//128 186//128
f 194//123 191//123 189//123
f 195//129 194//129 185//129
f 194//130 189//130 186//130
f 185//131 194//131 186//131
f 184//132 183//132 182//132
f 185//133 184//133 182//133
f 195//134 185//134 182//134
f 175//135 174//135 176//135
f 174//136 173//136 177//136
f 177//137 176//137 174//137
f 179//138 178//138 2//138
f 178//139 177//139 173//139
f 178//140 173//140 2//140
f 180//141 179//141 2//141
f 195//142 182//142 1//142
