# Blender v2.81 (sub 16) OBJ File: ''
# www.blender.org
mtllib Madagascar.mtl
o 0_Madagascar_sphere.001
v 3.056305 -1.473461 -3.609905
v 3.058108 -1.477638 -3.606702
v 3.060140 -1.472565 -3.606371
v 3.060242 -1.467682 -3.607906
v 3.058495 -1.458201 -3.612833
v 3.058323 -1.455588 -3.613880
v 3.058422 -1.453106 -3.614614
v 3.059155 -1.447700 -3.615693
v 3.059238 -1.444386 -3.616722
v 3.058504 -1.441814 -3.618319
v 3.056144 -1.437062 -3.622272
v 3.049925 -1.417426 -3.635076
v 3.049851 -1.414589 -3.636101
v 3.050085 -1.411461 -3.636916
v 3.050077 -1.408391 -3.637953
v 3.049290 -1.405862 -3.639589
v 3.047888 -1.404133 -3.641570
v 3.043229 -1.400272 -3.647524
v 3.043107 -1.405069 -3.646037
v 3.045915 -1.419059 -3.638539
v 3.047234 -1.434018 -3.632203
v 3.050816 -1.453633 -3.622043
v 3.054254 -1.462346 -3.615683
vn 0.6880 -0.2307 -0.6881
vn 0.6880 -0.2307 -0.6880
vn 0.6879 -0.2309 -0.6881
vn 0.6881 -0.2305 -0.6881
vn 0.6880 -0.2308 -0.6880
vn 0.6881 -0.2307 -0.6880
vn 0.6881 -0.2306 -0.6880
vn 0.6880 -0.2306 -0.6880
vn 0.6879 -0.2307 -0.6882
vn 0.6881 -0.2308 -0.6880
usemtl None
s off
f 5//1 4//1 23//1
f 18//2 17//2 19//2
f 17//3 16//3 19//3
f 16//4 15//4 19//4
f 15//1 14//1 19//1
f 14//5 13//5 20//5
f 22//6 21//6 11//6
f 21//2 20//2 12//2
f 22//7 7//7 6//7
f 20//2 19//2 14//2
f 13//8 12//8 20//8
f 11//2 10//2 22//2
f 10//9 9//9 22//9
f 9//1 8//1 22//1
f 12//2 11//2 21//2
f 23//2 22//2 6//2
f 7//5 22//5 8//5
f 23//5 6//5 5//5
f 2//10 1//10 3//10
f 1//6 23//6 4//6
f 4//6 3//6 1//6
o 1_Madagascar_sphere.001
v 3.186606 -1.115686 -3.599581
v 3.182833 -1.123292 -3.600803
v 3.179642 -1.131504 -3.601241
v 3.178801 -1.135377 -3.600783
v 3.175307 -1.137988 -3.603402
v 3.175720 -1.143998 -3.600973
v 3.177498 -1.150731 -3.596937
v 3.178171 -1.155558 -3.594646
v 3.175843 -1.158447 -3.596005
v 3.171785 -1.161730 -3.598961
v 3.168218 -1.165560 -3.601244
v 3.167184 -1.170171 -3.600731
v 3.168444 -1.172862 -3.598570
v 3.170698 -1.174508 -3.595763
v 3.173365 -1.175333 -3.592820
v 3.175943 -1.175622 -3.590144
v 3.177331 -1.174780 -3.589039
v 3.178470 -1.173000 -3.588497
v 3.179214 -1.171213 -3.588352
v 3.179351 -1.170346 -3.588506
v 3.180836 -1.170787 -3.586874
v 3.184176 -1.173186 -3.582729
v 3.194022 -1.171219 -3.573542
v 3.197652 -1.169198 -3.570590
v 3.201816 -1.165580 -3.567640
v 3.203650 -1.165597 -3.565800
v 3.202847 -1.170674 -3.564901
v 3.204038 -1.170629 -3.563725
v 3.204873 -1.169934 -3.563123
v 3.205673 -1.169055 -3.562617
v 3.206716 -1.168452 -3.561776
v 3.210062 -1.163931 -3.559947
v 3.213119 -1.155966 -3.559560
v 3.216972 -1.139774 -3.561137
v 3.217060 -1.132455 -3.563503
v 3.216567 -1.126025 -3.566153
v 3.217472 -1.121284 -3.566838
v 3.221964 -1.119060 -3.563092
v 3.219949 -1.114161 -3.566749
v 3.215665 -1.115902 -3.570450
v 3.210982 -1.118680 -3.574202
v 3.207664 -1.116729 -3.578174
v 3.205506 -1.119101 -3.579536
v 3.202700 -1.120824 -3.581764
v 3.199935 -1.121272 -3.584379
v 3.198147 -1.119824 -3.586652
v 3.198256 -1.116966 -3.587501
v 3.199995 -1.114108 -3.586721
v 3.202096 -1.111139 -3.585616
v 3.203437 -1.108105 -3.585293
v 3.204426 -1.100486 -3.586858
v 3.203863 -1.096284 -3.588830
v 3.201180 -1.094694 -3.592047
v 3.195808 -1.094637 -3.597438
v 3.190995 -1.096685 -3.601563
v 3.188177 -1.101390 -3.602804
v 3.187457 -1.107522 -3.601468
v 3.189184 -1.113715 -3.597664
vn 0.6880 -0.2307 -0.6880
vn 0.6879 -0.2308 -0.6881
vn 0.6881 -0.2307 -0.6880
vn 0.6880 -0.2308 -0.6881
vn 0.6877 -0.2307 -0.6883
vn 0.6874 -0.2307 -0.6886
vn 0.6880 -0.2308 -0.6880
vn 0.6882 -0.2308 -0.6879
vn 0.6879 -0.2309 -0.6881
vn 0.6882 -0.2310 -0.6878
vn 0.6881 -0.2306 -0.6880
vn 0.6881 -0.2310 -0.6878
vn 0.6880 -0.2306 -0.6880
vn 0.6880 -0.2307 -0.6881
vn 0.6880 -0.2309 -0.6880
vn 0.6881 -0.2308 -0.6880
usemtl None
s off
f 81//11 77//11 73//11
f 35//12 34//12 36//12
f 34//13 33//13 36//13
f 33//13 32//13 43//13
f 37//14 33//14 38//14
f 37//11 36//11 33//11
f 39//14 38//14 41//14
f 43//11 38//11 33//11
f 41//15 40//15 39//15
f 43//16 42//16 41//16
f 46//17 45//17 44//17
f 43//18 41//18 38//18
f 46//11 44//11 31//11
f 44//11 43//11 31//11
f 48//13 47//13 31//13
f 47//19 46//19 31//19
f 51//20 50//20 52//20
f 50//21 49//21 52//21
f 53//22 52//22 49//22
f 55//11 54//11 49//11
f 54//17 53//17 49//17
f 57//11 56//11 48//11
f 56//23 55//23 49//23
f 59//21 58//21 67//21
f 58//14 57//14 67//14
f 67//11 57//11 48//11
f 62//24 61//24 60//24
f 56//19 49//19 48//19
f 63//11 62//11 60//11
f 63//13 60//13 64//13
f 60//17 59//17 64//17
f 66//21 65//21 64//21
f 67//11 48//11 68//11
f 66//13 64//13 59//13
f 67//25 66//25 59//25
f 68//11 48//11 31//11
f 32//12 31//12 43//12
f 69//23 68//23 27//23
f 68//24 31//24 30//24
f 30//21 29//21 27//21
f 29//17 28//17 27//17
f 68//11 30//11 27//11
f 70//13 69//13 81//13
f 27//17 26//17 69//17
f 26//17 25//17 69//17
f 25//11 24//11 69//11
f 24//13 81//13 69//13
f 81//11 80//11 77//11
f 80//14 79//14 77//14
f 79//26 78//26 77//26
f 77//11 76//11 74//11
f 76//25 75//25 74//25
f 74//11 73//11 77//11
f 73//17 72//17 81//17
f 72//11 71//11 81//11
f 71//24 70//24 81//24
o 2_Madagascar_sphere.001
v 3.847108 -1.545086 -2.795083
v 3.385615 -1.545086 -3.256575
v 3.056469 -1.545086 -3.585721
v 3.038329 -2.111111 -3.276374
v 3.037292 -2.113891 -3.275803
v 3.039491 -2.112720 -3.274281
v 3.083369 -2.137985 -3.215786
v 3.093119 -2.144578 -3.202221
v 3.099091 -2.149489 -3.193407
v 3.105624 -2.155321 -3.183500
v 3.109431 -2.162417 -3.175588
v 3.111272 -2.164077 -3.172786
v 3.114446 -2.167788 -3.167465
v 3.118163 -2.168898 -3.163106
v 3.134514 -2.169832 -3.146215
v 3.136060 -2.170621 -3.144212
v 3.137904 -2.170707 -3.142319
v 3.140177 -2.166657 -3.142389
v 3.143400 -2.163583 -3.140944
v 3.150494 -2.160597 -3.135578
v 3.152742 -2.158955 -3.134280
v 3.155323 -2.155342 -3.133789
v 3.162178 -2.150116 -3.129958
v 3.166847 -2.147678 -3.126700
v 3.169456 -2.146788 -3.124605
v 3.175989 -2.145651 -3.118730
v 3.182258 -2.145209 -3.112717
v 3.191575 -2.142912 -3.104729
v 3.194746 -2.138975 -3.103836
v 3.191601 -2.139964 -3.106409
v 3.191168 -2.137275 -3.108398
v 3.056794 -1.221624 -3.693867
v 3.054863 -1.231530 -3.692477
v 3.052458 -1.236518 -3.693209
v 3.051808 -1.239780 -3.692765
v 3.051919 -1.242619 -3.691702
v 3.052406 -1.244747 -3.690502
v 3.050611 -1.246052 -3.691859
v 3.049101 -1.248100 -3.692682
v 3.046909 -1.255423 -3.692418
v 3.040518 -1.269475 -3.694097
v 3.039042 -1.271992 -3.694728
v 3.035309 -1.277345 -3.696667
v 3.033567 -1.281893 -3.696883
v 3.031892 -1.283568 -3.697998
v 3.029904 -1.286681 -3.698941
v 3.028970 -1.289608 -3.698893
v 3.027773 -1.295355 -3.698163
v 3.028286 -1.298614 -3.696557
v 3.027759 -1.301403 -3.696149
v 3.028026 -1.303492 -3.695182
v 3.027538 -1.306039 -3.694816
v 3.028135 -1.308327 -3.693451
v 3.028297 -1.311990 -3.692061
v 3.028721 -1.316366 -3.690170
v 3.028668 -1.320382 -3.688876
v 3.032002 -1.334609 -3.680771
v 3.032115 -1.337104 -3.679821
v 3.034888 -1.346680 -3.673836
v 3.035580 -1.351586 -3.671500
v 3.037033 -1.353000 -3.669573
v 3.038949 -1.352721 -3.667750
v 3.041561 -1.349196 -3.666320
v 3.044245 -1.347923 -3.664063
v 3.047791 -1.344010 -3.661830
v 3.049204 -1.342034 -3.661079
v 3.050031 -1.339344 -3.661154
v 3.050987 -1.334750 -3.661738
v 3.053029 -1.332607 -3.660415
v 3.054658 -1.330369 -3.659537
v 3.055751 -1.327704 -3.659338
v 3.056311 -1.324778 -3.659759
v 3.055968 -1.322174 -3.660975
v 3.056846 -1.319592 -3.660963
v 3.058688 -1.318542 -3.659472
v 3.061218 -1.314925 -3.658156
v 3.061643 -1.311008 -3.659044
v 3.062975 -1.304863 -3.659773
v 3.063320 -1.302423 -3.660246
v 3.066260 -1.303111 -3.657075
v 3.068466 -1.303319 -3.654799
v 3.072425 -1.303076 -3.650922
v 3.074307 -1.303958 -3.648744
v 3.075455 -1.305618 -3.647040
v 3.077906 -1.312423 -3.642307
v 3.077512 -1.314778 -3.641911
v 3.075422 -1.319957 -3.642265
v 3.075042 -1.322470 -3.641802
v 3.075350 -1.324882 -3.640684
v 3.074045 -1.327013 -3.641275
v 3.072244 -1.331254 -3.641654
v 3.070985 -1.334235 -3.641913
v 3.069897 -1.338783 -3.641476
v 3.068886 -1.341612 -3.641538
v 3.067597 -1.344074 -3.642002
v 3.067303 -1.346611 -3.641445
v 3.068711 -1.352644 -3.638014
v 3.058719 -1.539752 -3.585260
v 3.057122 -1.542770 -3.585845
v 3.394072 -1.376572 -3.304628
v 3.393742 -1.374137 -3.305775
v 3.392958 -1.371954 -3.307292
v 3.392755 -1.369789 -3.308220
v 3.393452 -1.364669 -3.309240
v 3.393113 -1.362641 -3.310260
v 3.390066 -1.362192 -3.313457
v 3.388046 -1.361653 -3.315658
v 3.374072 -1.363462 -3.329025
v 3.372496 -1.362899 -3.330790
v 3.369879 -1.364739 -3.332790
v 3.367429 -1.366017 -3.334812
v 3.366192 -1.364553 -3.336539
v 3.364901 -1.362202 -3.338619
v 3.362345 -1.361466 -3.341421
v 3.358970 -1.357920 -3.345986
v 3.357464 -1.356288 -3.348039
v 3.356607 -1.354090 -3.349633
v 3.355319 -1.349096 -3.352596
v 3.354353 -1.346619 -3.354393
v 3.353270 -1.344759 -3.356099
v 3.351815 -1.343360 -3.358023
v 3.348367 -1.341039 -3.362250
v 3.346272 -1.338693 -3.365132
v 3.344805 -1.343455 -3.365002
v 3.342856 -1.348493 -3.365261
v 3.342477 -1.352259 -3.364377
v 3.342009 -1.354972 -3.363935
v 3.340358 -1.356033 -3.365230
v 3.338998 -1.354625 -3.367063
v 3.338138 -1.352586 -3.368607
v 3.336221 -1.351471 -3.370898
v 3.335309 -1.349199 -3.372571
v 3.336939 -1.347732 -3.371433
v 3.338650 -1.345115 -3.370600
v 3.328421 -1.341741 -3.381961
v 3.326936 -1.340516 -3.383856
v 3.326022 -1.343041 -3.383924
v 3.324718 -1.345835 -3.384290
v 3.322288 -1.348642 -3.385780
v 3.208745 -1.226170 -3.540392
v 3.208326 -1.223627 -3.541664
v 3.198581 -1.226998 -3.550278
v 3.197280 -1.228824 -3.550967
v 3.196704 -1.232023 -3.550470
v 3.191535 -1.235281 -3.554547
v 3.190327 -1.232139 -3.556808
v 3.190897 -1.228408 -3.557490
v 3.209343 -1.221059 -3.541508
v 3.211171 -1.217722 -3.540799
v 3.211067 -1.215471 -3.541658
v 3.211992 -1.213047 -3.541546
v 3.213566 -1.209873 -3.541036
v 3.214840 -1.203848 -3.541783
vn 0.6545 -0.3786 -0.6545
vn 0.6544 -0.3787 -0.6544
vn 0.6880 -0.2307 -0.6880
vn 0.6880 -0.2308 -0.6880
vn 0.6545 -0.3787 -0.6545
vn 0.6544 -0.3786 -0.6546
vn 0.6546 -0.3785 -0.6544
vn 0.6544 -0.3786 -0.6545
vn 0.6545 -0.3786 -0.6544
vn 0.6544 -0.3790 -0.6543
vn 0.6548 -0.3784 -0.6543
vn 0.6544 -0.3787 -0.6545
vn 0.6545 -0.3787 -0.6544
vn 0.6543 -0.3785 -0.6546
vn 0.6882 -0.2306 -0.6879
vn 0.6884 -0.2306 -0.6877
vn 0.6881 -0.2307 -0.6880
vn 0.6879 -0.2308 -0.6881
vn 0.6880 -0.2307 -0.6881
vn 0.6879 -0.2312 -0.6879
vn 0.6881 -0.2308 -0.6879
vn 0.6882 -0.2305 -0.6879
vn 0.6880 -0.2309 -0.6880
vn 0.6881 -0.2306 -0.6880
vn 0.6881 -0.2305 -0.6881
vn 0.6878 -0.2308 -0.6883
vn 0.6878 -0.2309 -0.6882
vn 0.6876 -0.2309 -0.6883
vn 0.6879 -0.2303 -0.6883
vn 0.6876 -0.2309 -0.6884
vn 0.6879 -0.2307 -0.6882
vn 0.6880 -0.2308 -0.6881
vn 0.6875 -0.2308 -0.6886
vn 0.6879 -0.2304 -0.6882
vn 0.6881 -0.2308 -0.6880
vn 0.6886 -0.2274 -0.6886
vn 0.6880 -0.2306 -0.6881
vn 0.6877 -0.2306 -0.6884
vn 0.6878 -0.2308 -0.6882
vn 0.6881 -0.2307 -0.6879
vn 0.6884 -0.2307 -0.6876
vn 0.6880 -0.2310 -0.6879
vn 0.6880 -0.2310 -0.6880
vn 0.6880 -0.2286 -0.6888
vn 0.6881 -0.2305 -0.6880
vn 0.6881 -0.2303 -0.6881
vn 0.6879 -0.2309 -0.6881
vn 0.6883 -0.2302 -0.6879
vn 0.6881 -0.2310 -0.6879
vn 0.6881 -0.2299 -0.6883
vn 0.6881 -0.2304 -0.6881
vn 0.6882 -0.2307 -0.6879
vn 0.6880 -0.2306 -0.6880
vn 0.6886 -0.2305 -0.6875
vn 0.6877 -0.2310 -0.6882
vn 0.6884 -0.2308 -0.6876
vn 0.6878 -0.2307 -0.6882
vn 0.6891 -0.2306 -0.6870
usemtl None
s off
f 103//27 100//27 91//27
f 85//28 87//28 86//28
f 170//29 226//29 178//29
f 84//30 179//30 83//30
f 88//27 112//27 106//27
f 112//31 111//31 108//31
f 106//32 112//32 107//32
f 111//33 110//33 109//33
f 109//34 108//34 111//34
f 108//35 107//35 112//35
f 89//27 88//27 105//27
f 88//36 106//36 105//36
f 90//28 89//28 105//28
f 93//37 92//37 91//37
f 91//27 90//27 104//27
f 90//34 105//34 104//34
f 94//38 93//38 95//38
f 93//28 91//28 100//28
f 96//31 95//31 100//31
f 100//34 95//34 93//34
f 98//28 97//28 99//28
f 97//38 96//38 99//38
f 91//39 104//39 103//39
f 103//40 102//40 101//40
f 100//28 99//28 96//28
f 103//39 101//39 100//39
f 130//41 129//41 128//41
f 128//42 127//42 126//42
f 125//43 124//43 123//43
f 128//44 126//44 125//44
f 132//30 131//30 130//30
f 130//29 128//29 125//29
f 125//29 123//29 160//29
f 123//45 122//45 160//45
f 121//43 120//43 118//43
f 120//46 119//46 118//46
f 130//29 125//29 160//29
f 122//29 121//29 160//29
f 134//47 133//47 132//47
f 132//29 130//29 160//29
f 118//44 117//44 115//44
f 117//48 116//48 115//48
f 121//29 118//29 160//29
f 135//29 134//29 160//29
f 134//43 132//43 160//43
f 138//29 137//29 154//29
f 137//30 136//30 155//30
f 136//29 135//29 155//29
f 135//30 160//30 159//30
f 140//29 139//29 149//29
f 139//43 138//43 149//43
f 137//49 155//49 154//49
f 118//45 115//45 114//45
f 114//29 113//29 164//29
f 113//29 228//29 164//29
f 114//45 164//45 118//45
f 228//45 227//45 164//45
f 149//29 138//29 154//29
f 118//50 164//50 163//50
f 227//43 226//43 166//43
f 141//45 140//45 144//45
f 144//30 140//30 146//30
f 143//51 142//51 141//51
f 146//52 145//52 144//52
f 144//49 143//49 141//49
f 225//53 224//53 223//53
f 221//54 222//54 229//54
f 225//29 223//29 221//29
f 226//55 225//55 221//55
f 221//29 229//29 230//29
f 230//56 231//56 232//56
f 233//29 234//29 217//29
f 234//29 82//29 186//29
f 230//57 232//57 233//57
f 221//29 230//29 217//29
f 230//58 233//58 217//58
f 82//29 181//29 185//29
f 181//59 182//59 185//59
f 182//60 183//60 184//60
f 182//61 184//61 185//61
f 234//29 186//29 204//29
f 226//29 221//29 220//29
f 234//29 204//29 217//29
f 186//62 187//62 188//62
f 82//63 185//63 186//63
f 147//45 146//45 148//45
f 148//29 140//29 149//29
f 151//64 150//64 152//64
f 150//65 149//65 154//65
f 153//50 152//50 154//50
f 154//45 152//45 150//45
f 148//45 146//45 140//45
f 157//66 156//66 158//66
f 156//67 155//67 158//67
f 188//68 189//68 190//68
f 186//69 188//69 202//69
f 204//49 186//49 202//49
f 155//29 135//29 159//29
f 159//43 158//43 155//43
f 162//70 161//70 163//70
f 161//48 160//48 163//48
f 190//30 191//30 194//30
f 191//71 192//71 193//71
f 194//29 191//29 193//29
f 194//57 195//57 196//57
f 196//72 197//72 198//72
f 196//73 198//73 199//73
f 194//30 196//30 199//30
f 194//45 199//45 190//45
f 199//74 200//74 190//74
f 188//29 190//29 200//29
f 163//29 160//29 118//29
f 188//75 200//75 201//75
f 164//45 227//45 165//45
f 165//29 227//29 166//29
f 188//76 201//76 202//76
f 202//58 203//58 204//58
f 204//47 205//47 215//47
f 205//29 206//29 215//29
f 206//30 207//30 211//30
f 207//47 208//47 210//47
f 211//45 207//45 210//45
f 208//77 209//77 210//77
f 211//78 212//78 214//78
f 212//45 213//45 214//45
f 215//29 216//29 204//29
f 216//49 217//49 204//49
f 211//79 214//79 206//79
f 214//69 215//69 206//69
f 217//80 218//80 220//80
f 218//81 219//81 220//81
f 166//49 226//49 167//49
f 221//29 217//29 220//29
f 167//43 226//43 170//43
f 169//29 168//29 170//29
f 168//44 167//44 170//44
f 172//82 171//82 170//82
f 174//58 173//58 172//58
f 177//83 176//83 175//83
f 174//30 172//30 170//30
f 177//45 175//45 178//45
f 175//58 174//58 178//58
f 220//29 178//29 226//29
f 170//43 178//43 174//43
f 84//84 180//84 179//84
