# Blender v2.81 (sub 16) OBJ File: ''
# www.blender.org
mtllib Malta.mtl
o 0_Malta_sphere.001
v 3.901890 2.907317 -1.026416
v 3.903715 2.904418 -1.026111
v 3.903505 2.905382 -1.023709
v 3.905504 2.902645 -1.021678
v 3.906576 2.901031 -1.021153
v 3.907914 2.898741 -1.021564
v 3.907886 2.899511 -1.018759
v 3.907795 2.899866 -1.017963
v 3.908671 2.899941 -1.012137
v 3.908983 2.901649 -1.003565
v 3.908318 2.904800 -0.995569
v 3.906302 2.909080 -0.991741
v 3.906075 2.909613 -0.991111
v 3.905864 2.910642 -0.988460
v 3.905440 2.911504 -0.987806
v 3.902031 2.917239 -0.987136
v 3.898381 2.923585 -0.985628
v 3.896879 2.926375 -0.984316
v 3.896118 2.928143 -0.982286
v 3.894775 2.929811 -0.984308
v 3.893744 2.930959 -0.986377
v 3.892959 2.931645 -0.988680
v 3.892382 2.931904 -0.991317
v 3.893133 2.930637 -0.991480
v 3.893538 2.930366 -0.989973
v 3.893958 2.929923 -0.989032
v 3.895296 2.928260 -0.987017
v 3.893735 2.927326 -1.000484
v 3.893800 2.926482 -1.003344
v 3.895190 2.922639 -1.009439
v 3.895193 2.921364 -1.014353
v 3.895825 2.920065 -1.015388
v 3.896801 2.918346 -1.015873
v 3.897825 2.916601 -1.016167
v 3.897751 2.916492 -1.017051
v 3.897903 2.914985 -1.021917
v 3.899492 2.911608 -1.024958
vn 0.8451 0.5175 -0.1339
vn 0.8450 0.5178 -0.1339
vn 0.8450 0.5178 -0.1337
vn 0.8450 0.5178 -0.1338
vn 0.8448 0.5180 -0.1341
vn 0.8449 0.5179 -0.1340
vn 0.8451 0.5176 -0.1338
vn 0.8451 0.5175 -0.1338
vn 0.8449 0.5179 -0.1339
vn 0.8450 0.5177 -0.1339
vn 0.8451 0.5176 -0.1339
vn 0.8448 0.5181 -0.1338
vn 0.8450 0.5177 -0.1337
vn 0.8447 0.5183 -0.1340
vn 0.8447 0.5182 -0.1340
vn 0.8451 0.5177 -0.1337
vn 0.8450 0.5177 -0.1338
vn 0.8450 0.5178 -0.1336
vn 0.8449 0.5178 -0.1339
vn 0.8449 0.5180 -0.1334
usemtl None
s off
f 26//1 25//1 22//1
f 1//2 37//2 3//2
f 37//3 36//3 3//3
f 36//4 35//4 3//4
f 35//5 34//5 3//5
f 34//6 33//6 30//6
f 33//7 32//7 30//7
f 32//8 31//8 30//8
f 30//4 29//4 12//4
f 29//9 28//9 16//9
f 12//10 29//10 13//10
f 28//4 27//4 17//4
f 3//9 2//9 1//9
f 34//4 30//4 10//4
f 13//4 29//4 16//4
f 3//4 34//4 4//4
f 30//2 12//2 11//2
f 4//2 34//2 9//2
f 4//11 9//11 8//11
f 5//12 4//12 8//12
f 7//13 6//13 5//13
f 10//4 9//4 34//4
f 8//14 7//14 5//14
f 11//4 10//4 30//4
f 15//15 14//15 13//15
f 16//4 28//4 17//4
f 15//16 13//16 16//16
f 20//17 19//17 18//17
f 18//18 17//18 27//18
f 18//17 27//17 20//17
f 27//19 26//19 21//19
f 21//17 20//17 27//17
f 23//1 22//1 25//1
f 22//10 21//10 26//10
f 25//20 24//20 23//20
o 1_Malta_sphere.001
v 3.899084 2.920020 -0.994983
v 3.900169 2.919124 -0.991601
v 3.900748 2.919154 -0.987829
v 3.900967 2.919918 -0.983490
v 3.900847 2.921215 -0.979227
v 3.900370 2.922930 -0.975605
v 3.898842 2.925329 -0.975975
v 3.897573 2.927667 -0.974939
v 3.896516 2.929485 -0.974578
v 3.895649 2.930290 -0.976939
v 3.892517 2.932297 -0.988944
v 3.892548 2.930884 -0.994218
v 3.893448 2.927677 -1.000943
v 3.894789 2.924381 -1.005229
v 3.896111 2.922748 -1.003200
v 3.896825 2.922445 -0.999862
vn 0.8450 0.5177 -0.1338
vn 0.8450 0.5179 -0.1337
vn 0.8450 0.5178 -0.1338
vn 0.8450 0.5178 -0.1339
vn 0.8449 0.5179 -0.1339
usemtl None
s off
f 44//21 42//21 41//21
f 51//22 50//22 52//22
f 50//23 49//23 53//23
f 49//24 48//24 39//24
f 48//23 47//23 41//23
f 47//25 46//25 45//25
f 44//23 43//23 42//23
f 47//23 45//23 44//23
f 50//24 53//24 52//24
f 48//23 41//23 40//23
f 41//23 47//23 44//23
f 39//23 38//23 49//23
f 38//23 53//23 49//23
f 40//24 39//24 48//24
