# Blender v2.81 (sub 16) OBJ File: ''
# www.blender.org
mtllib Marshall Islands.mtl
o 0_Marshall_Islands_sphere.001
v -4.887211 0.398674 -0.975102
v -4.886643 0.398581 -0.977880
v -4.887423 0.400093 -0.973470
v -4.887530 0.400823 -0.972639
v -4.887732 0.403565 -0.970496
v -4.887743 0.401366 -0.971382
v -4.887575 0.399673 -0.972917
vn -0.9755 0.0867 -0.2024
vn -0.9755 0.0863 -0.2022
vn -0.9755 0.0877 -0.2020
vn -0.9754 0.0870 -0.2024
vn -0.9757 0.0852 -0.2020
usemtl None
s off
f 6//1 5//1 4//1
f 3//2 2//2 1//2
f 1//3 7//3 3//3
f 7//4 6//4 4//4
f 3//5 7//5 4//5
o 1_Marshall_Islands_sphere.001
v -4.868999 0.487947 -1.023531
v -4.868875 0.487016 -1.024595
v -4.868524 0.487738 -1.025928
v -4.868526 0.487763 -1.025905
v -4.868657 0.487549 -1.025381
v -4.868821 0.487382 -1.024674
v -4.868911 0.487559 -1.024149
v -4.868919 0.488317 -1.023726
v -4.868877 0.489094 -1.023536
v -4.868793 0.489872 -1.023548
v -4.868667 0.490624 -1.023779
v -4.868919 0.489487 -1.023136
vn -0.9745 0.1008 -0.2004
vn -0.9742 0.0995 -0.2026
vn -0.9740 0.1028 -0.2020
vn -0.9746 0.0993 -0.2010
vn -0.9744 0.1017 -0.2005
vn -0.9740 0.1019 -0.2022
vn -0.9741 0.1017 -0.2018
vn -0.9740 0.1017 -0.2023
vn -0.9743 0.0999 -0.2019
vn -0.9740 0.1020 -0.2021
usemtl None
s off
f 14//6 9//6 8//6
f 19//7 18//7 17//7
f 19//8 17//8 16//8
f 11//9 10//9 12//9
f 10//10 9//10 12//10
f 8//11 19//11 16//11
f 8//12 16//12 15//12
f 13//13 12//13 9//13
f 8//14 15//14 14//14
f 14//15 13//15 9//15
o 2_Marshall_Islands_sphere.001
v -4.886063 0.492013 -0.939080
v -4.886035 0.491193 -0.939623
v -4.885972 0.492174 -0.939435
vn -0.9740 0.1029 -0.2020
usemtl None
s off
f 22//16 21//16 20//16
o 3_Marshall_Islands_sphere.001
v -4.892379 0.507543 -0.894900
v -4.892347 0.504845 -0.896688
v -4.891945 0.505049 -0.898869
v -4.892150 0.506021 -0.897117
v -4.892207 0.506586 -0.896456
v -4.892219 0.507390 -0.895912
v -4.892197 0.508537 -0.895354
v -4.892064 0.511233 -0.894510
v -4.891743 0.515415 -0.893860
v -4.891670 0.517714 -0.892908
v -4.891821 0.519337 -0.891071
v -4.892058 0.520683 -0.888915
v -4.892187 0.522214 -0.887265
v -4.892252 0.524007 -0.885824
v -4.892380 0.520739 -0.887039
v -4.891855 0.517350 -0.892062
v -4.892011 0.513869 -0.893243
v -4.892207 0.511203 -0.893708
vn -0.9800 0.1023 -0.1705
vn -0.9801 0.1003 -0.1710
vn -0.9799 0.1024 -0.1710
vn -0.9800 0.1020 -0.1710
vn -0.9800 0.1019 -0.1708
vn -0.9800 0.1018 -0.1710
vn -0.9799 0.1025 -0.1712
vn -0.9801 0.1019 -0.1706
vn -0.9800 0.1018 -0.1708
vn -0.9800 0.1015 -0.1709
vn -0.9800 0.1016 -0.1711
vn -0.9800 0.1021 -0.1710
vn -0.9801 0.1012 -0.1705
usemtl None
s off
f 23//17 29//17 28//17
f 34//18 33//18 37//18
f 33//19 32//19 38//19
f 32//20 31//20 38//20
f 31//21 30//21 39//21
f 37//22 36//22 35//22
f 38//23 37//23 33//23
f 37//22 35//22 34//22
f 23//24 40//24 29//24
f 40//22 39//22 30//22
f 29//22 40//22 30//22
f 24//25 23//25 27//25
f 39//26 38//26 31//26
f 26//27 25//27 24//27
f 27//28 26//28 24//28
f 28//29 27//29 23//29
o 4_Marshall_Islands_sphere.001
v -4.922892 0.527862 -0.692178
v -4.923387 0.527240 -0.689151
v -4.923092 0.527428 -0.691084
v -4.922824 0.527016 -0.693269
v -4.922544 0.527027 -0.695228
v -4.922217 0.528480 -0.696469
v -4.922255 0.528373 -0.696280
v -4.922358 0.528151 -0.695718
v -4.922502 0.527954 -0.694848
vn -0.9849 0.1009 -0.1405
vn -0.9852 0.0988 -0.1402
vn -0.9849 0.1016 -0.1402
vn -0.9847 0.1037 -0.1402
vn -0.9848 0.1023 -0.1403
vn -0.9845 0.1038 -0.1415
vn -0.9848 0.1037 -0.1394
usemtl None
s off
f 49//30 48//30 45//30
f 42//31 41//31 43//31
f 41//32 49//32 44//32
f 43//33 41//33 44//33
f 45//34 44//34 49//34
f 47//35 46//35 45//35
f 48//36 47//36 45//36
o 5_Marshall_Islands_sphere.001
v -4.919609 0.529756 -0.713866
v -4.919672 0.529386 -0.713696
v -4.919586 0.529390 -0.714297
v -4.919454 0.529401 -0.715220
v -4.919346 0.529779 -0.715697
v -4.919262 0.530464 -0.715789
v -4.919200 0.531440 -0.715511
v -4.919288 0.531070 -0.715165
v -4.919389 0.530567 -0.714821
vn -0.9848 0.1023 -0.1401
vn -0.9848 0.1033 -0.1400
vn -0.9850 0.1017 -0.1396
vn -0.9848 0.1026 -0.1399
vn -0.9847 0.1030 -0.1402
vn -0.9849 0.1023 -0.1399
vn -0.9848 0.1018 -0.1404
usemtl None
s off
f 53//37 52//37 58//37
f 51//38 50//38 52//38
f 50//39 58//39 52//39
f 58//40 57//40 55//40
f 57//41 56//41 55//41
f 55//42 54//42 58//42
f 54//43 53//43 58//43
o 6_Marshall_Islands_sphere.001
v -4.908529 0.611458 -0.725233
v -4.908746 0.611026 -0.724070
v -4.909538 0.611288 -0.718282
v -4.909739 0.611024 -0.717096
v -4.910679 0.607843 -0.713164
v -4.911100 0.606705 -0.711158
v -4.910728 0.607020 -0.713512
v -4.909871 0.609821 -0.717182
v -4.909442 0.610409 -0.719698
v -4.908926 0.609781 -0.723847
v -4.908560 0.610610 -0.725726
v -4.908032 0.613476 -0.727028
v -4.908295 0.612299 -0.726171
vn -0.9831 0.1182 -0.1400
vn -0.9832 0.1175 -0.1399
vn -0.9831 0.1175 -0.1402
vn -0.9833 0.1163 -0.1399
vn -0.9831 0.1179 -0.1400
vn -0.9831 0.1186 -0.1396
vn -0.9832 0.1172 -0.1399
vn -0.9830 0.1187 -0.1399
vn -0.9830 0.1185 -0.1400
vn -0.9833 0.1165 -0.1399
vn -0.9832 0.1169 -0.1399
usemtl None
s off
f 60//44 59//44 69//44
f 63//45 62//45 66//45
f 62//46 61//46 66//46
f 65//47 64//47 63//47
f 66//48 65//48 63//48
f 71//49 70//49 69//49
f 69//50 68//50 60//50
f 68//51 67//51 60//51
f 67//52 66//52 61//52
f 67//53 61//53 60//53
f 59//54 71//54 69//54
o 7_Marshall_Islands_sphere.001
v -4.910706 0.611645 -0.709781
v -4.910647 0.610862 -0.710846
v -4.910625 0.611712 -0.710291
v -4.910629 0.614081 -0.708271
v -4.910628 0.614332 -0.708070
v -4.910620 0.614553 -0.707935
v -4.910627 0.614708 -0.707757
v -4.910659 0.614778 -0.707478
v -4.910713 0.613605 -0.708082
v -4.910728 0.612561 -0.708859
vn -0.9831 0.1173 -0.1402
vn -0.9821 0.1265 -0.1399
vn -0.9826 0.1184 -0.1429
vn -0.9831 0.1179 -0.1400
vn -0.9831 0.1175 -0.1403
vn -0.9831 0.1184 -0.1397
vn -0.9831 0.1177 -0.1399
vn -0.9832 0.1177 -0.1399
usemtl None
s off
f 75//55 74//55 81//55
f 79//56 78//56 77//56
f 79//57 77//57 76//57
f 81//58 80//58 75//58
f 80//59 79//59 76//59
f 75//60 80//60 76//60
f 73//61 72//61 74//61
f 72//62 81//62 74//62
o 8_Marshall_Islands_sphere.001
v -4.911682 0.617191 -0.698260
v -4.911483 0.617058 -0.699772
v -4.911500 0.617339 -0.699417
v -4.911534 0.617509 -0.699035
v -4.911623 0.617781 -0.698184
v -4.911658 0.618356 -0.697453
v -4.911640 0.618957 -0.697071
v -4.911561 0.619565 -0.697119
v -4.911415 0.620169 -0.697634
v -4.911660 0.619550 -0.696435
v -4.911744 0.618290 -0.696907
vn -0.9830 0.1187 -0.1402
vn -0.9828 0.1218 -0.1392
vn -0.9835 0.1157 -0.1393
vn -0.9834 0.1152 -0.1399
vn -0.9830 0.1184 -0.1402
vn -0.9829 0.1192 -0.1402
vn -0.9833 0.1165 -0.1398
vn -0.9831 0.1179 -0.1401
vn -0.9830 0.1195 -0.1396
usemtl None
s off
f 92//63 87//63 86//63
f 91//64 90//64 89//64
f 91//65 89//65 88//65
f 82//66 92//66 86//66
f 92//67 91//67 88//67
f 87//68 92//68 88//68
f 84//69 83//69 82//69
f 86//70 85//70 82//70
f 85//71 84//71 82//71
o 9_Marshall_Islands_sphere.001
v -4.900748 0.621763 -0.771244
v -4.903517 0.615824 -0.756779
v -4.903652 0.615836 -0.755819
v -4.903922 0.616258 -0.753566
v -4.904111 0.616914 -0.751688
v -4.905239 0.618795 -0.742186
v -4.905066 0.617440 -0.744536
v -4.904266 0.616505 -0.750945
v -4.904055 0.615109 -0.753600
v -4.903708 0.615116 -0.756030
v -4.903251 0.615541 -0.758884
v -4.900876 0.621062 -0.770939
v -4.900369 0.622776 -0.773058
v -4.900389 0.624132 -0.771778
v -4.900490 0.623291 -0.771775
v -4.900574 0.622754 -0.771640
vn -0.9831 0.1179 -0.1402
vn -0.9831 0.1177 -0.1399
vn -0.9830 0.1185 -0.1403
vn -0.9829 0.1199 -0.1399
vn -0.9832 0.1173 -0.1402
vn -0.9831 0.1182 -0.1400
vn -0.9831 0.1179 -0.1399
vn -0.9831 0.1180 -0.1399
vn -0.9832 0.1172 -0.1400
vn -0.9832 0.1170 -0.1400
vn -0.9831 0.1177 -0.1400
vn -0.9830 0.1182 -0.1403
vn -0.9831 0.1184 -0.1397
vn -0.9831 0.1174 -0.1403
usemtl None
s off
f 93//72 105//72 104//72
f 98//73 97//73 99//73
f 97//74 96//74 101//74
f 99//75 97//75 100//75
f 100//76 97//76 101//76
f 102//77 101//77 95//77
f 95//78 101//78 96//78
f 104//79 103//79 93//79
f 103//80 102//80 94//80
f 93//81 103//81 94//81
f 107//82 106//82 105//82
f 108//83 107//83 105//83
f 102//84 95//84 94//84
f 93//85 108//85 105//85
o 10_Marshall_Islands_sphere.001
v -4.863345 0.636024 -0.968458
v -4.863713 0.635924 -0.966745
v -4.865020 0.635933 -0.960427
v -4.864934 0.634551 -0.961757
v -4.864494 0.634630 -0.963829
v -4.863544 0.635587 -0.967783
v -4.862520 0.636407 -0.972189
v -4.862051 0.637078 -0.974005
v -4.861957 0.638367 -0.973608
v -4.862387 0.637160 -0.972329
v -4.862870 0.636587 -0.970377
vn -0.9706 0.1322 -0.2012
vn -0.9706 0.1322 -0.2009
vn -0.9706 0.1320 -0.2011
vn -0.9705 0.1332 -0.2008
vn -0.9706 0.1328 -0.2009
vn -0.9700 0.1374 -0.2008
vn -0.9704 0.1338 -0.2010
vn -0.9705 0.1333 -0.2010
vn -0.9705 0.1331 -0.2010
usemtl None
s off
f 110//86 109//86 114//86
f 109//87 119//87 115//87
f 119//88 118//88 115//88
f 118//89 117//89 116//89
f 116//90 115//90 118//90
f 115//91 114//91 109//91
f 114//92 113//92 110//92
f 113//93 112//93 111//93
f 110//94 113//94 111//94
o 11_Marshall_Islands_sphere.001
v -4.859221 0.645366 -0.982187
v -4.859462 0.644132 -0.981839
v -4.859124 0.644910 -0.982956
v -4.858754 0.646498 -0.983693
v -4.858494 0.648265 -0.983776
v -4.858483 0.649576 -0.982962
v -4.858714 0.648368 -0.982648
vn -0.9707 0.1321 -0.2009
vn -0.9705 0.1329 -0.2012
vn -0.9704 0.1334 -0.2012
vn -0.9704 0.1332 -0.2013
vn -0.9705 0.1332 -0.2011
usemtl None
s off
f 122//95 121//95 120//95
f 120//96 126//96 123//96
f 126//97 125//97 124//97
f 123//98 126//98 124//98
f 123//99 122//99 120//99
o 12_Marshall_Islands_sphere.001
v -4.864340 0.659364 -0.948203
v -4.864415 0.658701 -0.948277
v -4.864321 0.659005 -0.948531
v -4.864288 0.659538 -0.948340
v -4.864251 0.659882 -0.948289
v -4.864058 0.660522 -0.948797
v -4.863817 0.660877 -0.949725
v -4.863576 0.660937 -0.950847
v -4.863658 0.661090 -0.950352
v -4.863785 0.661189 -0.949674
v -4.863933 0.661135 -0.948994
v -4.864078 0.660849 -0.948484
v -4.864245 0.660081 -0.948184
v -4.864288 0.659828 -0.948148
vn -0.9699 0.1349 -0.2025
vn -0.9701 0.1346 -0.2018
vn -0.9706 0.1329 -0.2005
vn -0.9703 0.1371 -0.1993
vn -0.9705 0.1331 -0.2009
vn -0.9703 0.1348 -0.2009
vn -0.9704 0.1336 -0.2010
vn -0.9703 0.1345 -0.2010
vn -0.9705 0.1320 -0.2018
vn -0.9707 0.1320 -0.2010
vn -0.9708 0.1306 -0.2010
vn -0.9705 0.1339 -0.2005
usemtl None
s off
f 131//100 130//100 140//100
f 140//101 139//101 131//101
f 139//102 138//102 132//102
f 131//103 139//103 132//103
f 138//104 137//104 132//104
f 137//105 136//105 133//105
f 136//106 135//106 133//106
f 135//107 134//107 133//107
f 129//108 128//108 127//108
f 130//109 129//109 127//109
f 137//110 133//110 132//110
f 130//111 127//111 140//111
o 13_Marshall_Islands_sphere.001
v -4.828204 0.722812 -1.079228
v -4.828223 0.722678 -1.079233
v -4.828214 0.722692 -1.079266
v -4.828161 0.723305 -1.079072
v -4.828402 0.722386 -1.078589
vn -0.9665 0.1439 -0.2127
vn -0.9669 0.1555 -0.2020
vn -0.9683 0.1474 -0.2018
usemtl None
s off
f 141//112 143//112 142//112
f 145//113 141//113 142//113
f 145//114 144//114 141//114
o 14_Marshall_Islands_sphere.001
v -4.828825 0.759088 -1.049311
v -4.828786 0.758319 -1.050068
v -4.828694 0.758835 -1.050129
v -4.828622 0.759271 -1.050151
v -4.828615 0.759666 -1.049897
v -4.828690 0.760036 -1.049259
v -4.828794 0.759487 -1.049163
vn -0.9681 0.1523 -0.1991
vn -0.9687 0.1475 -0.1999
vn -0.9683 0.1477 -0.2015
vn -0.9681 0.1494 -0.2012
vn -0.9682 0.1492 -0.2010
usemtl None
s off
f 146//115 152//115 150//115
f 152//116 151//116 150//116
f 150//117 149//117 146//117
f 149//118 148//118 146//118
f 148//119 147//119 146//119
o 15_Marshall_Islands_sphere.001
v -4.876737 0.773324 -0.785329
v -4.876779 0.772333 -0.785958
v -4.876672 0.772478 -0.786440
v -4.876661 0.772496 -0.786490
v -4.876647 0.772521 -0.786545
v -4.876635 0.772557 -0.786587
v -4.876624 0.772603 -0.786607
v -4.876569 0.773395 -0.786228
v -4.876589 0.773588 -0.785942
v -4.876665 0.773646 -0.785462
vn -0.9741 0.1491 -0.1698
vn -0.9737 0.1512 -0.1706
vn -0.9748 0.1450 -0.1698
vn -0.9740 0.1491 -0.1704
vn -0.9661 0.1862 -0.1790
vn -0.9688 0.1872 -0.1626
vn -0.9785 0.1082 -0.1759
usemtl None
s off
f 155//120 154//120 160//120
f 153//121 162//121 161//121
f 161//122 160//122 153//122
f 160//123 159//123 155//123
f 153//120 160//120 154//120
f 159//124 158//124 157//124
f 157//125 156//125 159//125
f 156//126 155//126 159//126
o 16_Marshall_Islands_sphere.001
v -4.860021 0.821474 -0.835340
v -4.860033 0.820752 -0.835970
v -4.859758 0.822284 -0.836058
v -4.859843 0.822254 -0.835601
vn -0.9715 0.1662 -0.1692
vn -0.9717 0.1639 -0.1700
usemtl None
s off
f 165//127 163//127 166//127
f 165//128 164//128 163//128
o 17_Marshall_Islands_sphere.001
v -4.857296 0.891805 -0.779856
v -4.857243 0.891761 -0.780209
v -4.857050 0.892814 -0.780192
v -4.857103 0.892865 -0.779840
vn -0.9692 0.1787 -0.1697
vn -0.9690 0.1802 -0.1691
usemtl None
s off
f 169//129 167//129 170//129
f 169//130 168//130 167//130
o 18_Marshall_Islands_sphere.001
v -4.777168 0.967196 -1.112098
v -4.776950 0.966281 -1.113786
v -4.776486 0.966317 -1.115688
v -4.775879 0.967553 -1.117163
v -4.776579 0.967829 -1.114013
v -4.777068 0.968780 -1.111165
vn -0.9539 0.1941 -0.2289
vn -0.9538 0.1944 -0.2291
vn -0.9537 0.1951 -0.2289
vn -0.9537 0.1952 -0.2289
usemtl None
s off
f 171//131 176//131 175//131
f 175//132 174//132 173//132
f 173//133 172//133 175//133
f 172//134 171//134 175//134
o 19_Marshall_Islands_sphere.001
v -4.742375 1.007668 -1.221989
v -4.742564 1.007054 -1.221762
v -4.742025 1.008256 -1.222826
v -4.742097 1.008189 -1.222613
v -4.742223 1.008018 -1.222283
vn -0.9464 0.1893 -0.2618
vn -0.9455 0.1966 -0.2594
vn -0.9472 0.1891 -0.2588
usemtl None
s off
f 179//135 177//135 180//135
f 178//136 177//136 179//136
f 177//137 181//137 180//137
o 20_Marshall_Islands_sphere.001
v -4.735115 1.013934 -1.243809
v -4.735191 1.013934 -1.243528
v -4.735200 1.013488 -1.243832
v -4.735176 1.014379 -1.243222
v -4.734977 1.014595 -1.243773
v -4.735037 1.014809 -1.243377
vn -0.9463 0.1947 -0.2583
vn -0.9432 0.2094 -0.2579
vn -0.9427 0.2125 -0.2572
vn -0.9429 0.2116 -0.2574
usemtl None
s off
f 182//138 184//138 183//138
f 185//139 187//139 186//139
f 182//140 183//140 186//140
f 183//141 185//141 186//141
o 21_Marshall_Islands_sphere.001
v -4.749410 1.259662 -0.923464
v -4.749382 1.259121 -0.924305
v -4.749300 1.260175 -0.923321
v -4.749268 1.261141 -0.922218
v -4.749311 1.261169 -0.921969
v -4.749374 1.260501 -0.922540
vn -0.9465 0.2561 -0.1962
vn -0.9463 0.2569 -0.1964
vn -0.9464 0.2564 -0.1965
vn -0.9459 0.2587 -0.1958
usemtl None
s off
f 188//142 193//142 190//142
f 192//143 191//143 193//143
f 191//144 190//144 193//144
f 190//145 189//145 188//145
