# Blender v2.81 (sub 16) OBJ File: ''
# www.blender.org
mtllib Mauritius.mtl
o 0_Mauritius_sphere.001
v 2.476039 -1.688139 -3.943983
v 2.475394 -1.688234 -3.944267
v 2.473676 -1.687835 -3.945327
v 2.473047 -1.687957 -3.945591
v 2.471012 -1.689313 -3.946005
v 2.470321 -1.690335 -3.945888
v 2.469589 -1.695656 -3.943818
v 2.468004 -1.697306 -3.943867
v 2.466112 -1.698514 -3.944277
v 2.463526 -1.703161 -3.943461
v 2.459689 -1.706639 -3.943819
v 2.458585 -1.708381 -3.943582
v 2.457917 -1.712418 -3.942069
v 2.457629 -1.717060 -3.940084
v 2.458113 -1.722270 -3.937445
v 2.457853 -1.724921 -3.936360
v 2.456364 -1.727498 -3.935935
v 2.459906 -1.728868 -3.933502
v 2.463455 -1.732423 -3.930061
v 2.465190 -1.736434 -3.927335
v 2.463345 -1.739222 -3.926996
v 2.462955 -1.740423 -3.926643
v 2.461781 -1.741871 -3.926576
v 2.461453 -1.742798 -3.926317
v 2.461641 -1.744368 -3.925501
v 2.462460 -1.744689 -3.924936
v 2.463464 -1.744635 -3.924449
v 2.464202 -1.745135 -3.923844
v 2.465409 -1.749011 -3.921449
v 2.466208 -1.750726 -3.920254
v 2.467842 -1.752087 -3.918797
v 2.479716 -1.756240 -3.910840
v 2.491905 -1.758194 -3.903732
v 2.496374 -1.757762 -3.901654
v 2.503629 -1.755358 -3.899060
v 2.507681 -1.754843 -3.897233
v 2.510364 -1.756284 -3.895204
v 2.520048 -1.748352 -3.893912
v 2.522258 -1.746126 -3.893808
v 2.523300 -1.743999 -3.894253
v 2.521320 -1.743056 -3.895695
v 2.517745 -1.743810 -3.897170
v 2.515930 -1.743412 -3.898278
v 2.515530 -1.741332 -3.899437
v 2.515753 -1.736824 -3.901393
v 2.516256 -1.735187 -3.901889
v 2.517961 -1.734286 -3.901434
v 2.517663 -1.730378 -3.903380
v 2.519367 -1.721626 -3.906530
v 2.519732 -1.716830 -3.908546
v 2.519367 -1.714055 -3.910007
v 2.517648 -1.707249 -3.914007
v 2.516777 -1.705892 -3.915074
v 2.516598 -1.705395 -3.915394
v 2.514109 -1.702510 -3.917986
v 2.512920 -1.701751 -3.918941
v 2.510091 -1.700672 -3.920878
v 2.508858 -1.699956 -3.921835
v 2.507017 -1.697196 -3.924040
v 2.507211 -1.694260 -3.925289
v 2.507754 -1.691324 -3.926361
v 2.506515 -1.687064 -3.928948
v 2.505990 -1.681342 -3.931843
v 2.505494 -1.679602 -3.932895
v 2.505079 -1.678616 -3.933558
v 2.501887 -1.675038 -3.936828
v 2.501015 -1.674501 -3.937519
v 2.499130 -1.674195 -3.938620
v 2.498413 -1.673633 -3.939243
v 2.498030 -1.672474 -3.939970
v 2.497413 -1.671297 -3.940826
v 2.496003 -1.670676 -3.941829
v 2.493642 -1.670844 -3.942955
v 2.486661 -1.672266 -3.945859
v 2.484685 -1.673056 -3.946503
v 2.483525 -1.674758 -3.946312
v 2.483727 -1.677569 -3.944919
v 2.482800 -1.679048 -3.944712
v 2.481399 -1.680500 -3.944759
v 2.479652 -1.683114 -3.944448
v 2.477851 -1.685341 -3.944344
v 2.477029 -1.687183 -3.943917
vn 0.4210 -0.3792 -0.8240
vn 0.4198 -0.3787 -0.8248
vn 0.4202 -0.3786 -0.8246
vn 0.4205 -0.3786 -0.8245
vn 0.4203 -0.3787 -0.8246
vn 0.4204 -0.3786 -0.8246
vn 0.4202 -0.3786 -0.8247
vn 0.4201 -0.3787 -0.8247
vn 0.4202 -0.3787 -0.8246
vn 0.4201 -0.3786 -0.8247
vn 0.4199 -0.3788 -0.8248
vn 0.4202 -0.3787 -0.8247
vn 0.4201 -0.3785 -0.8248
vn 0.4191 -0.3809 -0.8242
vn 0.4200 -0.3788 -0.8247
vn 0.4198 -0.3784 -0.8249
vn 0.4213 -0.3787 -0.8241
vn 0.4203 -0.3784 -0.8247
vn 0.4216 -0.3788 -0.8238
vn 0.4203 -0.3786 -0.8246
vn 0.4198 -0.3785 -0.8249
vn 0.4209 -0.3784 -0.8244
vn 0.4196 -0.3789 -0.8249
vn 0.4208 -0.3786 -0.8244
vn 0.4207 -0.3785 -0.8245
vn 0.4200 -0.3787 -0.8247
vn 0.4202 -0.3785 -0.8247
vn 0.4199 -0.3787 -0.8248
vn 0.4205 -0.3785 -0.8246
vn 0.4204 -0.3785 -0.8246
vn 0.4203 -0.3788 -0.8246
vn 0.4204 -0.3781 -0.8248
vn 0.4193 -0.3796 -0.8247
vn 0.4204 -0.3783 -0.8247
vn 0.4200 -0.3785 -0.8248
vn 0.4203 -0.3780 -0.8249
vn 0.4203 -0.3790 -0.8244
vn 0.4205 -0.3783 -0.8247
vn 0.4202 -0.3783 -0.8248
vn 0.4218 -0.3786 -0.8239
vn 0.4202 -0.3785 -0.8248
vn 0.4195 -0.3792 -0.8248
vn 0.4202 -0.3788 -0.8246
usemtl None
s off
f 56//1 55//1 53//1
f 12//2 11//2 13//2
f 11//3 10//3 13//3
f 10//4 9//4 8//4
f 7//5 6//5 2//5
f 6//6 5//6 2//6
f 10//7 8//7 59//7
f 8//7 7//7 59//7
f 15//8 14//8 10//8
f 14//9 13//9 10//9
f 18//10 17//10 16//10
f 18//11 16//11 15//11
f 19//7 18//7 15//7
f 15//12 10//12 19//12
f 19//7 10//7 59//7
f 5//13 4//13 2//13
f 4//14 3//14 2//14
f 22//15 21//15 28//15
f 21//6 20//6 28//6
f 20//12 19//12 58//12
f 7//16 2//16 1//16
f 82//17 81//17 80//17
f 7//12 1//12 59//12
f 1//18 82//18 59//18
f 19//12 59//12 58//12
f 82//12 80//12 62//12
f 80//19 79//19 78//19
f 80//8 78//8 62//8
f 68//20 78//20 69//20
f 77//12 76//12 74//12
f 76//9 75//9 74//9
f 78//12 68//12 62//12
f 78//12 77//12 69//12
f 24//15 23//15 27//15
f 23//8 22//8 27//8
f 25//21 24//21 26//21
f 27//22 26//22 24//22
f 30//23 29//23 31//23
f 29//24 28//24 31//24
f 28//25 27//25 22//25
f 32//9 31//9 20//9
f 31//8 28//8 20//8
f 34//10 33//10 45//10
f 33//3 32//3 45//3
f 35//9 34//9 45//9
f 32//12 20//12 46//12
f 36//26 35//26 44//26
f 36//7 43//7 37//7
f 38//12 37//12 43//12
f 40//27 39//27 41//27
f 39//28 38//28 41//28
f 42//9 41//9 38//9
f 43//29 36//29 44//29
f 38//30 43//30 42//30
f 77//7 74//7 73//7
f 69//31 73//31 70//31
f 73//32 72//32 70//32
f 77//7 73//7 69//7
f 72//33 71//33 70//33
f 44//20 35//20 45//20
f 59//7 82//7 60//7
f 68//34 67//34 66//34
f 68//35 66//35 65//35
f 82//7 62//7 60//7
f 65//36 64//36 68//36
f 64//37 63//37 68//37
f 63//20 62//20 68//20
f 62//23 61//23 60//23
f 45//8 32//8 46//8
f 48//7 47//7 46//7
f 20//12 58//12 49//12
f 48//7 46//7 20//7
f 20//12 49//12 48//12
f 50//38 49//38 51//38
f 57//39 49//39 58//39
f 52//40 51//40 53//40
f 53//41 51//41 57//41
f 55//42 54//42 53//42
f 57//43 51//43 49//43
f 57//35 56//35 53//35
o 1_Mauritius_sphere.001
v 2.087448 -1.681800 -4.144891
v 2.093927 -1.686528 -4.139418
v 2.106881 -1.674369 -4.138401
v 2.109087 -1.673512 -4.137670
v 2.109262 -1.665764 -4.141139
v 2.106789 -1.662395 -4.143946
v 2.102641 -1.660321 -4.147011
v 2.091355 -1.652178 -4.156501
v 2.080211 -1.648020 -4.164088
v 2.068277 -1.646232 -4.170990
v 2.059513 -1.649498 -4.173955
v 2.052647 -1.651180 -4.176682
v 2.052646 -1.659139 -4.173028
v 2.058424 -1.667978 -4.166025
v 2.069131 -1.672150 -4.158654
v 2.077233 -1.673563 -4.153877
v 2.082583 -1.677105 -4.149525
vn 0.4202 -0.3786 -0.8247
vn 0.4202 -0.3786 -0.8246
vn 0.4202 -0.3787 -0.8247
vn 0.4201 -0.3787 -0.8247
vn 0.4203 -0.3787 -0.8246
vn 0.4201 -0.3786 -0.8247
vn 0.4202 -0.3787 -0.8246
usemtl None
s off
f 98//44 97//44 91//44
f 93//45 92//45 96//45
f 92//46 91//46 97//46
f 91//47 90//47 98//47
f 90//48 89//48 99//48
f 98//47 90//47 99//47
f 89//49 88//49 85//49
f 88//48 87//48 85//48
f 87//44 86//44 85//44
f 85//50 84//50 83//50
f 85//44 83//44 89//44
f 83//49 99//49 89//49
f 92//46 97//46 96//46
f 95//44 94//44 93//44
f 96//47 95//47 93//47
o 2_Mauritius_sphere.001
v 2.684728 -0.899224 -4.075217
v 2.683690 -0.905314 -4.074126
v 2.690345 -0.897958 -4.072692
v 2.696352 -0.889574 -4.071863
v 2.698152 -0.885919 -4.071918
v 2.698611 -0.883084 -4.072439
v 2.698355 -0.882309 -4.072775
v 2.697887 -0.881731 -4.073168
v 2.697082 -0.881342 -4.073682
v 2.695903 -0.881213 -4.074317
v 2.693215 -0.887586 -4.073990
vn 0.4419 -0.2307 -0.8669
vn 0.4417 -0.2307 -0.8670
vn 0.4416 -0.2307 -0.8671
vn 0.4416 -0.2308 -0.8670
vn 0.4421 -0.2310 -0.8667
vn 0.4417 -0.2315 -0.8668
vn 0.4415 -0.2301 -0.8672
vn 0.4418 -0.2307 -0.8669
usemtl None
s off
f 103//51 102//51 110//51
f 101//52 100//52 102//52
f 100//53 110//53 102//53
f 110//54 109//54 104//54
f 109//55 108//55 105//55
f 104//52 109//52 105//52
f 108//56 107//56 106//56
f 106//57 105//57 108//57
f 104//58 103//58 110//58
