# Blender v2.81 (sub 16) OBJ File: ''
# www.blender.org
mtllib Monaco.mtl
o 0_Monaco_sphere.001
v 3.551593 3.429643 -0.469642
v 3.552471 3.428793 -0.468680
v 3.554825 3.426628 -0.465492
v 3.557981 3.423452 -0.462691
v 3.558495 3.423871 -0.457190
v 3.558268 3.424792 -0.453653
v 3.555851 3.427609 -0.453728
v 3.553258 3.430467 -0.454683
v 3.550295 3.433362 -0.457782
v 3.548504 3.434664 -0.462068
v 3.549488 3.432652 -0.466705
vn 0.7549 0.6448 -0.1195
vn 0.7550 0.6447 -0.1195
vn 0.7549 0.6448 -0.1196
vn 0.7549 0.6449 -0.1196
vn 0.7550 0.6447 -0.1196
usemtl None
s off
f 3//1 2//1 11//1
f 1//2 11//2 2//2
f 11//3 10//3 3//3
f 10//1 9//1 3//1
f 9//4 8//4 3//4
f 8//3 7//3 5//3
f 7//1 6//1 5//1
f 8//5 5//5 3//5
f 5//1 4//1 3//1
