# Blender v2.81 (sub 16) OBJ File: ''
# www.blender.org
mtllib Montserrat.mtl
o 0_Montserrat_sphere.001
v 2.236751 1.440291 4.232650
v 2.236814 1.439658 4.232831
v 2.236653 1.438561 4.233287
v 2.236779 1.438198 4.233343
v 2.237083 1.437806 4.233315
v 2.237451 1.437200 4.233325
v 2.237749 1.436577 4.233378
v 2.237865 1.436107 4.233476
v 2.237695 1.435384 4.233810
v 2.237330 1.434822 4.234194
v 2.236763 1.434430 4.234627
v 2.236009 1.434260 4.235084
v 2.231905 1.435432 4.236860
v 2.230560 1.438836 4.236420
v 2.230838 1.443093 4.234832
v 2.231614 1.446849 4.233150
v 2.232645 1.446423 4.232749
v 2.233167 1.446274 4.232522
v 2.233800 1.446309 4.232175
v 2.233669 1.444682 4.232796
v 2.234599 1.443153 4.232821
v 2.235863 1.441694 4.232645
vn 0.4482 0.2864 0.8468
vn 0.4480 0.2866 0.8468
vn 0.4468 0.2868 0.8474
vn 0.4489 0.2861 0.8465
vn 0.4452 0.2875 0.8480
vn 0.4482 0.2865 0.8468
vn 0.4486 0.2867 0.8465
vn 0.4457 0.2870 0.8479
vn 0.4491 0.2864 0.8463
vn 0.4482 0.2866 0.8468
vn 0.4483 0.2865 0.8467
vn 0.4481 0.2863 0.8469
vn 0.4482 0.2861 0.8469
vn 0.4484 0.2865 0.8467
vn 0.4484 0.2866 0.8467
vn 0.4483 0.2866 0.8467
vn 0.4485 0.2866 0.8466
vn 0.4479 0.2870 0.8468
vn 0.4481 0.2866 0.8468
usemtl None
s off
f 21//1 20//1 15//1
f 8//2 7//2 9//2
f 7//3 6//3 9//3
f 6//4 5//4 12//4
f 5//5 4//5 12//5
f 6//6 12//6 11//6
f 3//7 2//7 22//7
f 2//8 1//8 22//8
f 9//9 6//9 10//9
f 3//10 22//10 14//10
f 22//11 21//11 14//11
f 6//12 11//12 10//12
f 4//13 3//13 13//13
f 13//14 12//14 4//14
f 15//15 14//15 21//15
f 14//14 13//14 3//14
f 17//16 16//16 15//16
f 20//17 19//17 18//17
f 18//18 17//18 20//18
f 17//19 15//19 20//19
