# Blender v2.81 (sub 16) OBJ File: ''
# www.blender.org
mtllib Nauru.mtl
o 0_Nauru_sphere.001
v -4.869848 -0.042675 -1.129748
v -4.870198 -0.043366 -1.128265
v -4.870242 -0.045156 -1.128025
v -4.870080 -0.047110 -1.128633
v -4.869805 -0.048265 -1.129739
v -4.869331 -0.047875 -1.131727
v -4.869147 -0.045808 -1.132561
v -4.869301 -0.043562 -1.131995
vn -0.9723 -0.0081 -0.2335
vn -0.9725 -0.0073 -0.2330
vn -0.9723 -0.0076 -0.2336
vn -0.9723 -0.0081 -0.2336
vn -0.9723 -0.0080 -0.2334
vn -0.9724 -0.0076 -0.2334
usemtl None
s off
f 4//1 3//1 7//1
f 3//2 2//2 1//2
f 1//3 8//3 3//3
f 8//4 7//4 3//4
f 7//5 6//5 4//5
f 6//6 5//6 4//6
