# Blender v2.81 (sub 16) OBJ File: ''
# www.blender.org
mtllib Norfolk Island.mtl
o 0_Norfolk_Island_sphere.001
v -4.237130 -2.394710 -0.893122
v -4.236315 -2.397199 -0.888631
v -4.232866 -2.402877 -0.888443
v -4.228985 -2.408557 -0.890966
v -4.226906 -2.411014 -0.894588
v -4.226190 -2.411912 -0.895635
v -4.225451 -2.412968 -0.896219
v -4.224616 -2.414243 -0.896552
v -4.223776 -2.415676 -0.896310
v -4.226322 -2.410839 -0.898954
v -4.227537 -2.407863 -0.902795
v -4.227087 -2.407660 -0.906426
v -4.224590 -2.411236 -0.908355
v -4.224243 -2.411268 -0.910416
v -4.226249 -2.407702 -0.911552
v -4.228001 -2.404383 -0.913327
v -4.229681 -2.401390 -0.914304
v -4.231406 -2.398843 -0.913265
v -4.233647 -2.395735 -0.911140
v -4.235101 -2.393336 -0.911244
v -4.235419 -2.392278 -0.913331
v -4.234134 -2.393351 -0.917290
v -4.237698 -2.388610 -0.913132
v -4.238089 -2.389630 -0.906718
v -4.237226 -2.392894 -0.899539
vn -0.8450 -0.5178 -0.1337
vn -0.8451 -0.5177 -0.1336
vn -0.8450 -0.5178 -0.1338
vn -0.8449 -0.5179 -0.1338
vn -0.8451 -0.5176 -0.1339
vn -0.8450 -0.5178 -0.1339
vn -0.8450 -0.5179 -0.1336
vn -0.8449 -0.5178 -0.1339
vn -0.8450 -0.5177 -0.1338
vn -0.8449 -0.5178 -0.1338
vn -0.8449 -0.5179 -0.1339
vn -0.8450 -0.5179 -0.1333
vn -0.8450 -0.5177 -0.1337
vn -0.8447 -0.5182 -0.1338
vn -0.8451 -0.5176 -0.1337
vn -0.8450 -0.5177 -0.1339
vn -0.8450 -0.5178 -0.1336
usemtl None
s off
f 10//1 8//1 7//1
f 2//2 1//2 3//2
f 1//3 25//3 11//3
f 25//4 24//4 19//4
f 24//5 23//5 20//5
f 23//6 22//6 21//6
f 23//7 21//7 20//7
f 1//8 11//8 3//8
f 24//6 20//6 19//6
f 4//9 3//9 11//9
f 5//10 4//10 11//10
f 5//3 11//3 10//3
f 19//11 18//11 12//11
f 18//12 17//12 16//12
f 12//6 18//6 16//6
f 25//3 19//3 11//3
f 11//13 19//13 12//13
f 6//14 5//14 10//14
f 7//15 6//15 10//15
f 16//16 15//16 12//16
f 15//5 14//5 13//5
f 15//8 13//8 12//8
f 10//17 9//17 8//17
