# Blender v2.81 (sub 16) OBJ File: ''
# www.blender.org
mtllib Norfolk Island.mtl
o 0_Norfolk_Island_sphere.001
v -4.276136 -2.425091 -0.910068
v -4.275996 -2.425704 -0.909050
v -4.275238 -2.427041 -0.909025
v -4.274361 -2.428359 -0.909615
v -4.273869 -2.428920 -0.910445
v -4.273701 -2.429126 -0.910685
v -4.273533 -2.429371 -0.910821
v -4.273347 -2.429667 -0.910900
v -4.273167 -2.430001 -0.910848
v -4.273695 -2.428864 -0.911441
v -4.273920 -2.428152 -0.912318
v -4.273781 -2.428090 -0.913156
v -4.273211 -2.428926 -0.913606
v -4.273111 -2.428927 -0.914084
v -4.273540 -2.428080 -0.914346
v -4.273910 -2.427285 -0.914759
v -4.274273 -2.426569 -0.914988
v -4.274668 -2.425965 -0.914744
v -4.275191 -2.425232 -0.914245
v -4.275516 -2.424656 -0.914268
v -4.275567 -2.424388 -0.914758
v -4.275240 -2.424623 -0.915691
v -4.276083 -2.423504 -0.914710
v -4.276229 -2.423793 -0.913205
v -4.276101 -2.424620 -0.911541
vn -0.8542 -0.4894 -0.1757
vn -0.8546 -0.4882 -0.1770
vn -0.8546 -0.4883 -0.1767
vn -0.8542 -0.4889 -0.1769
vn -0.8547 -0.4880 -0.1769
vn -0.8540 -0.4893 -0.1766
vn -0.8542 -0.4888 -0.1774
vn -0.8544 -0.4886 -0.1770
vn -0.8547 -0.4880 -0.1772
vn -0.8542 -0.4890 -0.1768
vn -0.8545 -0.4885 -0.1768
vn -0.8549 -0.4877 -0.1770
vn -0.8543 -0.4886 -0.1772
vn -0.8552 -0.4878 -0.1751
vn -0.8545 -0.4886 -0.1764
vn -0.8543 -0.4887 -0.1770
vn -0.8542 -0.4886 -0.1777
vn -0.8548 -0.4878 -0.1770
vn -0.8539 -0.4895 -0.1767
vn -0.8538 -0.4896 -0.1769
vn -0.8550 -0.4877 -0.1765
vn -0.8548 -0.4878 -0.1771
vn -0.8546 -0.4881 -0.1773
usemtl None
s off
f 10//1 8//1 7//1
f 2//2 1//2 3//2
f 1//3 25//3 11//3
f 25//4 24//4 19//4
f 24//5 23//5 20//5
f 23//6 22//6 21//6
f 23//7 21//7 20//7
f 1//8 11//8 3//8
f 24//9 20//9 19//9
f 4//10 3//10 11//10
f 5//11 4//11 11//11
f 5//12 11//12 10//12
f 19//13 18//13 12//13
f 18//14 17//14 16//14
f 12//15 18//15 16//15
f 25//16 19//16 11//16
f 11//17 19//17 12//17
f 6//18 5//18 10//18
f 7//19 6//19 10//19
f 16//20 15//20 12//20
f 15//21 14//21 13//21
f 15//22 13//22 12//22
f 10//23 9//23 8//23
