# Blender v2.81 (sub 16) OBJ File: ''
# www.blender.org
mtllib Northern Mariana Islands.mtl
o 0_Northern_Mariana_Islands_sphere.001
v -3.982886 1.220278 -2.764241
v -3.982655 1.219467 -2.764919
v -3.981857 1.218642 -2.766412
v -3.981264 1.218928 -2.767132
v -3.980622 1.219621 -2.767745
v -3.979628 1.220007 -2.768993
v -3.978195 1.219695 -2.771167
v -3.977369 1.219740 -2.772324
v -3.976901 1.220302 -2.772745
v -3.977170 1.221840 -2.771698
v -3.978218 1.223334 -2.769562
v -3.979472 1.224455 -2.767294
v -3.980366 1.224894 -2.765832
v -3.982389 1.226571 -2.762228
v -3.983735 1.226782 -2.760221
v -3.984656 1.224899 -2.759725
v -3.984710 1.223859 -2.760099
v -3.984597 1.223105 -2.760584
v -3.984264 1.222645 -2.761257
v -3.983628 1.222493 -2.762228
v -3.983166 1.222132 -2.763041
v -3.982987 1.221275 -2.763666
vn -0.7941 0.2411 -0.5580
vn -0.7940 0.2409 -0.5582
vn -0.7941 0.2412 -0.5579
vn -0.7940 0.2411 -0.5581
vn -0.7940 0.2415 -0.5579
vn -0.7940 0.2411 -0.5580
vn -0.7930 0.2400 -0.5599
vn -0.7939 0.2413 -0.5581
vn -0.7940 0.2413 -0.5579
vn -0.7940 0.2410 -0.5581
vn -0.7938 0.2411 -0.5583
vn -0.7940 0.2414 -0.5580
vn -0.7939 0.2410 -0.5582
vn -0.7938 0.2412 -0.5583
vn -0.7942 0.2411 -0.5578
vn -0.7940 0.2412 -0.5580
vn -0.7940 0.2410 -0.5580
vn -0.7940 0.2404 -0.5583
usemtl None
s off
f 4//1 2//1 5//1
f 16//2 15//2 14//2
f 13//3 12//3 5//3
f 12//4 11//4 6//4
f 16//5 14//5 17//5
f 14//6 13//6 21//6
f 18//7 17//7 19//7
f 20//8 17//8 14//8
f 20//9 19//9 17//9
f 14//3 21//3 20//3
f 12//10 6//10 5//10
f 21//11 13//11 22//11
f 11//12 10//12 7//12
f 10//13 9//13 8//13
f 7//14 10//14 8//14
f 7//15 6//15 11//15
f 2//16 1//16 5//16
f 1//17 22//17 13//17
f 5//16 1//16 13//16
f 3//18 2//18 4//18
o 1_Northern_Mariana_Islands_sphere.001
v -3.988247 1.287954 -2.726081
v -3.987536 1.286689 -2.727676
v -3.986334 1.287787 -2.728881
v -3.985858 1.288907 -2.729041
v -3.985143 1.291288 -2.728961
v -3.984590 1.292503 -2.729187
v -3.983679 1.293872 -2.729853
v -3.983408 1.294498 -2.729950
v -3.983253 1.295505 -2.729706
v -3.983399 1.297489 -2.728583
v -3.983945 1.299762 -2.726758
v -3.984746 1.301075 -2.725014
v -3.985638 1.300213 -2.724142
v -3.986140 1.299111 -2.723935
v -3.986311 1.298020 -2.724195
v -3.986408 1.296847 -2.724599
v -3.986667 1.295516 -2.724843
v -3.987033 1.294764 -2.724669
v -3.988004 1.293412 -2.723911
v -3.988334 1.292530 -2.723848
v -3.988503 1.290310 -2.724631
vn -0.7908 0.2563 -0.5558
vn -0.7908 0.2564 -0.5557
vn -0.7908 0.2563 -0.5559
vn -0.7907 0.2564 -0.5558
vn -0.7908 0.2562 -0.5558
vn -0.7908 0.2561 -0.5559
vn -0.7910 0.2561 -0.5557
vn -0.7913 0.2559 -0.5553
vn -0.7908 0.2560 -0.5559
vn -0.7908 0.2564 -0.5558
vn -0.7907 0.2569 -0.5557
vn -0.7908 0.2560 -0.5560
vn -0.7910 0.2562 -0.5556
vn -0.7908 0.2562 -0.5559
usemtl None
s off
f 39//19 38//19 32//19
f 42//20 41//20 27//20
f 41//21 40//21 27//21
f 43//21 42//21 27//21
f 24//22 23//22 25//22
f 23//19 43//19 26//19
f 26//23 25//23 23//23
f 27//24 26//24 43//24
f 40//23 39//23 28//23
f 27//25 40//25 28//25
f 30//26 29//26 31//26
f 29//27 28//27 39//27
f 31//28 29//28 39//28
f 32//23 31//23 39//23
f 34//29 33//29 35//29
f 33//28 32//28 38//28
f 36//30 35//30 33//30
f 38//31 37//31 33//31
f 37//32 36//32 33//32
o 2_Northern_Mariana_Islands_sphere.001
v -3.989334 1.316993 -2.711146
v -3.989878 1.314514 -2.711515
v -3.989383 1.317031 -2.711054
v -3.990139 1.316866 -2.709982
v -3.990618 1.316211 -2.709568
v -3.990291 1.315181 -2.710564
v -3.989891 1.314589 -2.711460
v -3.990516 1.308232 -2.713503
v -3.990457 1.307455 -2.713945
v -3.990242 1.307064 -2.714432
v -3.989870 1.307094 -2.714948
v -3.989325 1.307586 -2.715497
v -3.988934 1.306642 -2.716487
v -3.988878 1.305513 -2.717088
v -3.989171 1.304320 -2.717221
v -3.989788 1.303181 -2.716868
v -3.990316 1.302048 -2.716640
v -3.989620 1.302070 -2.717619
v -3.988651 1.302565 -2.718770
v -3.988359 1.302840 -2.719059
v -3.987363 1.302382 -2.720688
v -3.986904 1.302546 -2.721264
v -3.986473 1.303750 -2.721323
v -3.986280 1.305019 -2.721012
v -3.986179 1.308195 -2.719692
v -3.985969 1.309417 -2.719428
v -3.985738 1.310366 -2.719319
v -3.985648 1.311180 -2.719070
v -3.985850 1.311962 -2.718423
v -3.986051 1.312234 -2.718012
v -3.986839 1.312863 -2.716601
v -3.986917 1.313271 -2.716301
v -3.986734 1.314253 -2.716109
v -3.986757 1.314605 -2.715915
v -3.987247 1.315109 -2.714985
v -3.988365 1.315788 -2.713081
v -3.988833 1.316621 -2.712030
v -3.989722 1.313660 -2.712131
v -3.989701 1.310035 -2.713833
v -3.989894 1.309298 -2.713897
vn -0.8052 0.2564 -0.5348
vn -0.7909 0.2563 -0.5556
vn -0.8073 0.2571 -0.5312
vn -0.8080 0.2562 -0.5306
vn -0.8079 0.2562 -0.5307
vn -0.8082 0.2561 -0.5304
vn -0.7908 0.2563 -0.5558
vn -0.7908 0.2562 -0.5558
vn -0.7911 0.2565 -0.5554
vn -0.7907 0.2563 -0.5560
vn -0.7910 0.2562 -0.5556
vn -0.7904 0.2563 -0.5564
vn -0.7909 0.2562 -0.5558
vn -0.7908 0.2563 -0.5557
vn -0.7911 0.2560 -0.5556
vn -0.7902 0.2583 -0.5557
vn -0.7907 0.2564 -0.5559
vn -0.7910 0.2559 -0.5558
vn -0.7910 0.2554 -0.5559
vn -0.7905 0.2562 -0.5563
vn -0.7909 0.2562 -0.5557
vn -0.7907 0.2552 -0.5565
vn -0.7908 0.2563 -0.5559
vn -0.7906 0.2556 -0.5565
vn -0.7910 0.2563 -0.5556
vn -0.7907 0.2565 -0.5558
vn -0.7909 0.2560 -0.5559
vn -0.7908 0.2562 -0.5559
vn -0.7904 0.2558 -0.5566
vn -0.7909 0.2558 -0.5559
vn -0.7907 0.2565 -0.5559
vn -0.7909 0.2565 -0.5556
vn -0.7909 0.2561 -0.5557
vn -0.7908 0.2570 -0.5555
usemtl None
s off
f 46//33 44//33 49//33
f 57//34 56//34 68//34
f 44//35 45//35 50//35
f 50//36 49//36 44//36
f 49//37 48//37 47//37
f 46//38 49//38 47//38
f 45//39 44//39 80//39
f 79//40 78//40 81//40
f 78//41 77//41 76//41
f 45//42 80//42 79//42
f 81//43 45//43 79//43
f 78//44 76//44 75//44
f 78//45 75//45 81//45
f 82//46 81//46 75//46
f 52//47 51//47 83//47
f 53//48 52//48 54//48
f 52//49 83//49 55//49
f 54//50 52//50 55//50
f 83//51 82//51 55//51
f 82//52 75//52 74//52
f 74//53 73//53 55//53
f 73//54 72//54 70//54
f 55//55 73//55 69//55
f 82//45 74//45 55//45
f 72//56 71//56 70//56
f 70//57 69//57 73//57
f 56//58 55//58 69//58
f 69//59 68//59 56//59
f 68//60 67//60 57//60
f 67//45 66//45 63//45
f 66//61 65//61 64//61
f 63//40 62//40 58//40
f 62//62 61//62 59//62
f 58//63 62//63 59//63
f 66//64 64//64 63//64
f 67//45 63//45 57//45
f 57//65 63//65 58//65
f 61//66 60//66 59//66
o 3_Northern_Mariana_Islands_sphere.001
v -3.963328 1.406748 -2.703862
v -3.962021 1.406515 -2.705843
v -3.961357 1.406603 -2.706742
v -3.960667 1.406968 -2.707534
v -3.959995 1.407696 -2.708112
v -3.959489 1.408621 -2.708351
v -3.959346 1.409441 -2.708127
v -3.959622 1.409977 -2.707455
v -3.960404 1.410084 -2.706287
v -3.961122 1.409768 -2.705431
v -3.962703 1.409460 -2.703341
v -3.963396 1.408934 -2.702629
v -3.964103 1.407674 -2.702278
v -3.963950 1.407023 -2.702834
vn -0.7840 0.2865 -0.5506
vn -0.7836 0.2866 -0.5512
vn -0.7838 0.2865 -0.5509
vn -0.7838 0.2866 -0.5509
vn -0.7838 0.2865 -0.5510
vn -0.7839 0.2864 -0.5508
vn -0.7838 0.2867 -0.5509
vn -0.7838 0.2866 -0.5510
vn -0.7837 0.2868 -0.5510
vn -0.7840 0.2867 -0.5505
vn -0.7839 0.2866 -0.5507
vn -0.7839 0.2867 -0.5508
usemtl None
s off
f 89//67 88//67 91//67
f 96//68 95//68 97//68
f 95//69 94//69 84//69
f 93//70 92//70 87//70
f 92//71 91//71 88//71
f 95//72 84//72 97//72
f 94//73 93//73 85//73
f 84//74 94//74 85//74
f 86//75 85//75 93//75
f 88//76 87//76 92//76
f 87//77 86//77 93//77
f 90//78 89//78 91//78
o 4_Northern_Mariana_Islands_sphere.001
v -3.960951 1.436327 -2.691857
v -3.961100 1.435724 -2.691958
v -3.960840 1.434686 -2.692869
v -3.959454 1.436313 -2.693995
v -3.960162 1.436769 -2.692750
v -3.961205 1.436176 -2.691552
vn -0.7836 0.2867 -0.5511
vn -0.8008 0.2867 -0.5258
vn -0.7839 0.2868 -0.5507
vn -0.7840 0.2863 -0.5508
usemtl None
s off
f 102//79 100//79 99//79
f 99//80 103//80 98//80
f 99//81 98//81 102//81
f 102//82 101//82 100//82
o 5_Northern_Mariana_Islands_sphere.001
v -3.951315 1.486961 -2.678420
v -3.951054 1.485620 -2.679590
v -3.949744 1.487259 -2.680640
v -3.950359 1.487611 -2.679500
vn -0.7968 0.3017 -0.5235
vn -0.7970 0.3017 -0.5233
usemtl None
s off
f 107//83 105//83 104//83
f 107//84 106//84 105//84
o 6_Northern_Mariana_Islands_sphere.001
v -3.945317 1.509678 -2.674469
v -3.944906 1.508995 -2.675488
v -3.943646 1.509899 -2.676884
v -3.943054 1.511229 -2.677020
v -3.943116 1.512288 -2.676316
v -3.943851 1.512377 -2.675146
v -3.944611 1.511669 -2.674397
v -3.945149 1.510668 -2.674155
vn -0.7968 0.3018 -0.5235
vn -0.7968 0.3012 -0.5237
vn -0.7969 0.3016 -0.5234
vn -0.7971 0.3012 -0.5233
vn -0.7970 0.3013 -0.5235
vn -0.7968 0.3016 -0.5236
usemtl None
s off
f 109//85 108//85 115//85
f 115//86 114//86 110//86
f 114//87 113//87 110//87
f 113//88 112//88 111//88
f 111//89 110//89 113//89
f 110//90 109//90 115//90
o 7_Northern_Mariana_Islands_sphere.001
v -3.928994 1.559544 -2.670140
v -3.930655 1.553526 -2.671269
v -3.929549 1.559513 -2.669316
v -3.930303 1.558996 -2.668482
v -3.931001 1.558178 -2.667916
v -3.931478 1.557101 -2.667844
v -3.931702 1.555699 -2.668355
v -3.931484 1.554951 -2.669142
v -3.931069 1.554429 -2.670091
v -3.930705 1.553699 -2.671088
v -3.929598 1.550096 -2.674763
v -3.929084 1.549429 -2.675881
v -3.927901 1.549485 -2.677532
v -3.927052 1.551426 -2.677614
v -3.928016 1.552568 -2.675580
v -3.928032 1.554475 -2.674451
v -3.927208 1.558496 -2.673290
v -3.927592 1.559624 -2.672089
vn -0.7929 0.3164 -0.5208
vn -0.7761 0.3165 -0.5454
vn -0.7936 0.3160 -0.5199
vn -0.7928 0.3165 -0.5208
vn -0.7931 0.3164 -0.5205
vn -0.7927 0.3178 -0.5202
vn -0.7930 0.3161 -0.5208
vn -0.7928 0.3166 -0.5208
vn -0.7761 0.3165 -0.5455
vn -0.7760 0.3166 -0.5455
vn -0.7760 0.3165 -0.5455
vn -0.7761 0.3166 -0.5453
vn -0.7761 0.3164 -0.5454
vn -0.7762 0.3164 -0.5454
usemtl None
s off
f 119//91 116//91 124//91
f 126//92 117//92 130//92
f 116//93 117//93 125//93
f 124//94 123//94 119//94
f 123//95 122//95 121//95
f 116//91 125//91 124//91
f 119//96 118//96 116//96
f 121//97 120//97 119//97
f 123//98 121//98 119//98
f 117//99 116//99 132//99
f 116//100 133//100 132//100
f 132//101 131//101 117//101
f 130//99 129//99 127//99
f 129//102 128//102 127//102
f 117//103 131//103 130//103
f 127//104 126//104 130//104
o 8_Northern_Mariana_Islands_sphere.001
v -3.911347 1.605229 -2.668743
v -3.910727 1.604787 -2.669882
v -3.909887 1.604918 -2.671000
v -3.908091 1.606842 -2.672439
v -3.907027 1.610191 -2.672010
v -3.907381 1.612043 -2.670432
v -3.909246 1.611918 -2.667850
v -3.910263 1.610603 -2.667167
v -3.910833 1.609601 -2.666938
v -3.911209 1.608523 -2.667028
v -3.911628 1.606979 -2.667328
v -3.911680 1.606026 -2.667807
vn -0.7763 0.3155 -0.5457
vn -0.7763 0.3161 -0.5455
vn -0.7760 0.3167 -0.5455
vn -0.7760 0.3164 -0.5456
vn -0.7760 0.3167 -0.5454
vn -0.7761 0.3164 -0.5454
vn -0.7761 0.3165 -0.5454
vn -0.7762 0.3164 -0.5453
vn -0.7759 0.3167 -0.5456
vn -0.7759 0.3167 -0.5455
usemtl None
s off
f 134//105 145//105 144//105
f 143//106 142//106 137//106
f 142//107 141//107 137//107
f 141//108 140//108 139//108
f 139//109 138//109 141//109
f 138//110 137//110 141//110
f 137//111 136//111 143//111
f 136//112 135//112 144//112
f 143//113 136//113 144//113
f 135//114 134//114 144//114
o 9_Northern_Mariana_Islands_sphere.001
v -3.876009 1.682208 -2.672459
v -3.875850 1.681386 -2.673187
v -3.874985 1.682043 -2.674016
v -3.874213 1.683082 -2.674481
v -3.873934 1.684047 -2.674288
v -3.874555 1.684454 -2.673156
v -3.875281 1.684080 -2.672351
v -3.875794 1.683224 -2.672144
vn -0.7720 0.3316 -0.5423
vn -0.7719 0.3310 -0.5427
vn -0.7720 0.3313 -0.5425
vn -0.7720 0.3310 -0.5427
vn -0.7720 0.3314 -0.5424
vn -0.7721 0.3307 -0.5427
usemtl None
s off
f 153//115 148//115 146//115
f 153//116 152//116 148//116
f 152//117 151//117 148//117
f 151//118 150//118 149//118
f 149//119 148//119 151//119
f 148//120 147//120 146//120
o 10_Northern_Mariana_Islands_sphere.001
v -3.858905 1.712848 -2.677496
v -3.859067 1.712391 -2.677559
v -3.859365 1.712479 -2.677080
v -3.859725 1.712750 -2.676393
v -3.860070 1.712887 -2.675814
v -3.860336 1.712562 -2.675645
v -3.860448 1.711862 -2.675934
v -3.860375 1.711300 -2.676398
v -3.860152 1.710880 -2.676985
v -3.859841 1.710629 -2.677588
v -3.859224 1.710928 -2.678275
v -3.858609 1.711518 -2.678770
v -3.858147 1.712332 -2.678906
v -3.857981 1.713286 -2.678529
v -3.858204 1.714096 -2.677694
v -3.858557 1.713680 -2.677458
vn -0.7675 0.3461 -0.5396
vn -0.7678 0.3454 -0.5397
vn -0.7676 0.3454 -0.5399
vn -0.7676 0.3464 -0.5392
vn -0.7679 0.3461 -0.5391
vn -0.7678 0.3460 -0.5392
vn -0.7678 0.3459 -0.5393
vn -0.7673 0.3460 -0.5399
vn -0.7678 0.3459 -0.5392
vn -0.7675 0.3462 -0.5395
vn -0.7673 0.3466 -0.5395
vn -0.7674 0.3462 -0.5397
vn -0.7676 0.3456 -0.5399
vn -0.7679 0.3454 -0.5395
usemtl None
s off
f 154//121 169//121 167//121
f 159//122 158//122 157//122
f 159//123 157//123 160//123
f 157//124 156//124 161//124
f 161//125 160//125 157//125
f 163//126 162//126 155//126
f 162//127 161//127 156//127
f 155//128 162//128 156//128
f 165//129 164//129 155//129
f 164//130 163//130 155//130
f 167//131 166//131 154//131
f 166//132 165//132 155//132
f 169//133 168//133 167//133
f 155//134 154//134 166//134
o 11_Northern_Mariana_Islands_sphere.001
v -3.831796 1.752837 -2.690419
v -3.831512 1.752137 -2.691272
v -3.830749 1.752945 -2.691839
v -3.830256 1.754092 -2.691806
v -3.830188 1.755072 -2.691274
v -3.830721 1.755406 -2.690301
v -3.831475 1.754878 -2.689567
v -3.831809 1.753877 -2.689734
vn -0.7677 0.3458 -0.5395
vn -0.7674 0.3465 -0.5395
vn -0.7679 0.3455 -0.5395
vn -0.7678 0.3458 -0.5394
vn -0.7675 0.3464 -0.5395
usemtl None
s off
f 177//135 175//135 173//135
f 177//136 176//136 175//136
f 175//137 174//137 173//137
f 173//138 172//138 170//138
f 172//135 171//135 170//135
f 170//139 177//139 173//139
