# Blender v2.81 (sub 16) OBJ File: ''
# www.blender.org
mtllib Palau.mtl
o 0_Palau_sphere.001
v -3.289644 0.253584 -3.666494
v -3.283870 0.248205 -3.672860
v -3.278286 0.250050 -3.678240
v -3.276860 0.255366 -3.679082
v -3.279821 0.260113 -3.675599
v -3.281924 0.261863 -3.673304
v -3.287062 0.260216 -3.668347
vn -0.7050 0.0775 -0.7049
vn -0.7050 0.0775 -0.7050
vn -0.7049 0.0775 -0.7050
usemtl None
s off
f 2//1 5//1 3//1
f 1//2 7//2 2//2
f 7//2 6//2 2//2
f 6//3 5//3 2//3
f 5//2 4//2 3//2
o 1_Palau_sphere.001
v -3.244335 0.254059 -3.711751
v -3.237341 0.252434 -3.718923
v -3.234760 0.257219 -3.720979
v -3.237825 0.265275 -3.717028
v -3.243620 0.270542 -3.710654
v -3.251040 0.271282 -3.703152
v -3.254111 0.265962 -3.700667
v -3.250607 0.258791 -3.704959
vn -0.7050 0.0775 -0.7050
vn -0.7050 0.0775 -0.7049
vn -0.7049 0.0775 -0.7050
usemtl None
s off
f 8//4 15//4 12//4
f 14//5 13//5 15//5
f 13//4 12//4 15//4
f 12//6 11//6 8//6
f 11//4 10//4 9//4
f 8//4 11//4 9//4
o 2_Palau_sphere.001
v -3.300812 0.456994 -3.632966
v -3.298903 0.451004 -3.635533
v -3.296247 0.458382 -3.637378
v -3.298380 0.459920 -3.635076
vn -0.7050 0.0774 -0.7050
vn -0.7050 0.0775 -0.7050
usemtl None
s off
f 18//7 16//7 19//7
f 18//8 17//8 16//8
o 3_Palau_sphere.001
v -3.414693 0.584828 -3.505031
v -3.410090 0.580139 -3.510149
v -3.404581 0.587607 -3.514838
v -3.401055 0.597622 -3.517263
v -3.401700 0.605170 -3.515788
v -3.408762 0.605537 -3.508687
v -3.413744 0.600493 -3.504258
v -3.415807 0.592616 -3.503061
vn -0.7050 0.0775 -0.7050
vn -0.7049 0.0775 -0.7050
vn -0.7050 0.0774 -0.7050
usemtl None
s off
f 27//9 22//9 20//9
f 27//10 26//10 22//10
f 26//11 25//11 23//11
f 25//9 24//9 23//9
f 23//9 22//9 26//9
f 22//9 21//9 20//9
o 4_Palau_sphere.001
v -3.409915 0.584905 -3.509801
v -3.406978 0.580614 -3.513210
v -3.405477 0.583102 -3.514437
v -3.406823 0.592818 -3.512023
v -3.417558 0.625433 -3.497703
v -3.420314 0.624568 -3.495041
v -3.421785 0.622627 -3.493784
v -3.422385 0.619643 -3.493512
v -3.422816 0.615710 -3.493514
v -3.421542 0.613246 -3.495059
v -3.418699 0.605316 -3.498773
v -3.422045 0.598776 -3.496146
v -3.420775 0.596987 -3.497613
v -3.417414 0.596754 -3.501000
v -3.414474 0.595093 -3.504122
vn -0.7049 0.0776 -0.7050
vn -0.7052 0.0775 -0.7048
vn -0.7048 0.0774 -0.7051
vn -0.7050 0.0775 -0.7050
vn -0.7050 0.0777 -0.7049
vn -0.7049 0.0775 -0.7050
vn -0.7050 0.0776 -0.7050
vn -0.7050 0.0775 -0.7049
vn -0.7049 0.0774 -0.7050
vn -0.7049 0.0775 -0.7051
usemtl None
s off
f 42//12 41//12 38//12
f 36//13 35//13 37//13
f 35//14 34//14 33//14
f 37//15 35//15 32//15
f 33//16 32//16 35//16
f 32//15 31//15 38//15
f 31//17 30//17 28//17
f 42//15 31//15 28//15
f 30//18 29//18 28//18
f 31//19 42//19 38//19
f 40//20 39//20 38//20
f 38//21 37//21 32//21
f 41//15 40//15 38//15
o 5_Palau_sphere.001
v -3.426053 0.613724 -3.490496
v -3.418412 0.601960 -3.499429
v -3.413286 0.599269 -3.504851
v -3.408664 0.600494 -3.509339
v -3.405126 0.603805 -3.512512
v -3.402781 0.608726 -3.514316
v -3.401845 0.614786 -3.514587
v -3.401720 0.623652 -3.513737
v -3.402659 0.625313 -3.512615
v -3.414446 0.608751 -3.502648
v -3.416671 0.609233 -3.500371
v -3.420911 0.613010 -3.495716
v -3.432279 0.628578 -3.482636
v -3.434423 0.633255 -3.479978
v -3.434319 0.639019 -3.479448
v -3.432891 0.644368 -3.480289
v -3.432587 0.647490 -3.480249
v -3.435530 0.646554 -3.477409
v -3.437479 0.645025 -3.475628
v -3.439035 0.643136 -3.474279
v -3.440309 0.640450 -3.473301
v -3.441158 0.636602 -3.472876
v -3.436209 0.634531 -3.478052
v -3.437060 0.630417 -3.477653
v -3.440179 0.625596 -3.475064
v -3.442159 0.621475 -3.473537
v -3.440442 0.618073 -3.475628
v -3.436254 0.616621 -3.479976
v -3.429200 0.616398 -3.487053
vn -0.7050 0.0776 -0.7050
vn -0.7051 0.0775 -0.7049
vn -0.7050 0.0775 -0.7050
vn -0.7049 0.0774 -0.7050
vn -0.7050 0.0774 -0.7050
vn -0.7049 0.0776 -0.7051
vn -0.7051 0.0776 -0.7048
vn -0.7050 0.0775 -0.7049
vn -0.7050 0.0776 -0.7049
vn -0.7051 0.0774 -0.7049
vn -0.7050 0.0774 -0.7049
vn -0.7049 0.0775 -0.7051
usemtl None
s off
f 43//22 55//22 54//22
f 68//23 67//23 69//23
f 67//24 66//24 55//24
f 69//25 67//25 70//25
f 65//26 64//26 63//26
f 70//24 67//24 55//24
f 65//22 63//22 57//22
f 63//26 62//26 57//26
f 62//27 61//27 57//27
f 66//28 65//28 56//28
f 55//29 66//29 56//29
f 71//24 70//24 55//24
f 61//30 60//30 58//30
f 57//30 61//30 58//30
f 60//26 59//26 58//26
f 43//31 71//31 55//31
f 45//24 44//24 52//24
f 44//24 43//24 54//24
f 47//24 46//24 52//24
f 46//24 45//24 52//24
f 49//24 48//24 52//24
f 48//24 47//24 52//24
f 51//32 50//32 49//32
f 52//24 51//24 49//24
f 44//24 54//24 53//24
f 65//24 57//24 56//24
f 53//33 52//33 44//33
o 6_Palau_sphere.001
v -3.434612 0.635204 -3.479575
v -3.440463 0.627407 -3.474581
v -3.439297 0.617344 -3.476853
v -3.435757 0.615967 -3.480545
v -3.432423 0.621353 -3.483287
v -3.429689 0.628554 -3.485229
v -3.427582 0.632931 -3.486855
v -3.422827 0.634993 -3.491383
v -3.419531 0.633499 -3.494843
v -3.413485 0.625889 -3.501726
v -3.412556 0.633207 -3.501851
v -3.412894 0.639173 -3.500856
v -3.415241 0.642713 -3.498120
v -3.420217 0.642617 -3.493155
v -3.426273 0.640362 -3.487347
vn -0.7050 0.0775 -0.7049
vn -0.7050 0.0775 -0.7050
vn -0.7049 0.0775 -0.7050
vn -0.7049 0.0775 -0.7051
vn -0.7050 0.0776 -0.7049
usemtl None
s off
f 86//34 79//34 78//34
f 73//35 72//35 76//35
f 72//35 86//35 78//35
f 86//36 85//36 79//36
f 85//35 84//35 80//35
f 79//37 85//37 80//37
f 84//36 83//36 80//36
f 83//38 82//38 80//38
f 82//35 81//35 80//35
f 74//35 73//35 76//35
f 72//35 78//35 77//35
f 76//34 75//34 74//34
f 77//36 76//36 72//36
o 7_Palau_sphere.001
v -3.445227 0.659308 -3.466311
v -3.443437 0.650702 -3.469046
v -3.440300 0.643752 -3.472948
v -3.440238 0.642044 -3.473197
v -3.442493 0.638283 -3.471355
v -3.442592 0.636639 -3.471437
v -3.441816 0.635472 -3.472341
v -3.440672 0.628692 -3.474230
v -3.436866 0.620724 -3.478912
v -3.436202 0.615030 -3.480203
v -3.438033 0.604982 -3.479475
v -3.437337 0.601302 -3.480577
v -3.436540 0.600483 -3.481464
v -3.435590 0.600949 -3.482362
v -3.433404 0.601225 -3.484518
v -3.431587 0.602784 -3.486164
v -3.430413 0.603020 -3.487311
v -3.429607 0.602050 -3.488224
v -3.427858 0.598282 -3.490387
v -3.426903 0.597520 -3.491426
v -3.424869 0.598042 -3.493402
v -3.424038 0.598980 -3.494131
v -3.423687 0.600599 -3.494304
v -3.421719 0.607270 -3.495538
v -3.419908 0.615878 -3.496403
v -3.418519 0.619652 -3.497377
v -3.416965 0.621337 -3.498747
v -3.415928 0.621236 -3.499794
v -3.415433 0.621666 -3.500242
v -3.415543 0.625079 -3.499757
v -3.415985 0.628018 -3.498991
v -3.416912 0.630691 -3.497771
v -3.418260 0.632836 -3.496187
v -3.420063 0.634170 -3.494238
v -3.420939 0.630785 -3.493733
v -3.422592 0.630331 -3.492130
v -3.424218 0.632201 -3.490299
v -3.424940 0.635780 -3.489183
v -3.424342 0.637933 -3.489544
v -3.422816 0.640050 -3.490838
v -3.419628 0.643052 -3.493696
v -3.420936 0.644911 -3.492184
v -3.423123 0.649761 -3.489464
v -3.425189 0.651848 -3.487168
v -3.425490 0.651680 -3.486885
v -3.425564 0.653099 -3.486656
v -3.425367 0.656595 -3.486468
v -3.425219 0.656907 -3.486582
v -3.426860 0.661877 -3.484395
v -3.428865 0.665064 -3.482039
v -3.431818 0.666793 -3.478896
v -3.436285 0.667300 -3.474374
v -3.440457 0.669018 -3.470012
v -3.441267 0.673206 -3.468743
v -3.439055 0.686216 -3.469524
v -3.437115 0.691090 -3.470928
v -3.436544 0.693968 -3.471183
v -3.437169 0.695046 -3.470440
v -3.438778 0.694582 -3.468881
v -3.440459 0.693191 -3.467353
v -3.441429 0.691462 -3.466574
v -3.444072 0.683210 -3.464838
v -3.445389 0.671348 -3.464825
vn -0.7049 0.0775 -0.7051
vn -0.7050 0.0775 -0.7049
vn -0.7050 0.0775 -0.7050
vn -0.7049 0.0776 -0.7050
vn -0.7050 0.0776 -0.7049
vn -0.7050 0.0773 -0.7050
vn -0.7051 0.0775 -0.7049
vn -0.7049 0.0775 -0.7050
vn -0.7050 0.0774 -0.7050
vn -0.7046 0.0776 -0.7054
vn -0.7051 0.0774 -0.7049
vn -0.7048 0.0776 -0.7052
vn -0.7049 0.0773 -0.7051
vn -0.7049 0.0782 -0.7050
vn -0.7050 0.0776 -0.7050
vn -0.7055 0.0773 -0.7045
vn -0.7056 0.0766 -0.7044
vn -0.7051 0.0770 -0.7049
vn -0.7050 0.0777 -0.7050
vn -0.7051 0.0775 -0.7048
vn -0.7049 0.0774 -0.7050
vn -0.7057 0.0779 -0.7042
vn -0.7050 0.0787 -0.7048
vn -0.7048 0.0776 -0.7051
vn -0.7052 0.0775 -0.7048
usemtl None
s off
f 121//39 117//39 113//39
f 149//40 148//40 140//40
f 148//41 147//41 141//41
f 147//42 146//42 142//42
f 146//43 145//43 142//43
f 145//44 144//44 143//44
f 143//45 142//45 145//45
f 142//46 141//46 147//46
f 148//41 141//41 140//41
f 88//41 87//41 138//41
f 87//41 149//41 139//41
f 89//41 88//41 135//41
f 87//41 139//41 138//41
f 149//47 140//47 139//47
f 92//48 91//48 93//48
f 91//49 90//49 93//49
f 90//42 89//42 131//42
f 88//41 138//41 137//41
f 135//41 88//41 137//41
f 137//50 136//50 135//50
f 132//41 89//41 135//41
f 95//41 94//41 124//41
f 94//41 93//41 124//41
f 124//41 93//41 90//41
f 98//51 97//51 100//51
f 97//41 96//41 102//41
f 100//45 97//45 101//45
f 99//52 98//52 100//52
f 90//41 131//41 125//41
f 89//51 132//51 131//51
f 101//53 97//53 102//53
f 96//47 95//47 122//47
f 124//39 90//39 125//39
f 135//54 134//54 133//54
f 135//45 133//45 132//45
f 131//55 130//55 129//55
f 103//40 102//40 96//40
f 106//56 105//56 107//56
f 105//57 104//57 109//57
f 104//58 103//58 110//58
f 103//41 96//41 111//41
f 95//59 124//59 123//59
f 131//45 129//45 125//45
f 128//47 127//47 126//47
f 129//45 128//45 126//45
f 125//58 129//58 126//58
f 105//42 109//42 107//42
f 103//47 111//47 110//47
f 109//46 104//46 110//46
f 108//60 107//60 109//60
f 95//53 123//53 122//53
f 112//53 111//53 122//53
f 111//41 96//41 122//41
f 115//61 114//61 113//61
f 113//53 112//53 121//53
f 121//47 112//47 122//47
f 121//39 120//39 119//39
f 116//62 115//62 113//62
f 121//43 119//43 118//43
f 118//41 117//41 121//41
f 117//63 116//63 113//63
o 8_Palau_sphere.001
v -3.439675 0.685832 -3.468946
v -3.434258 0.681790 -3.474808
v -3.431082 0.686861 -3.477426
v -3.430827 0.693870 -3.476911
v -3.435878 0.703762 -3.470773
v -3.440025 0.703690 -3.466634
v -3.442080 0.697325 -3.465278
vn -0.7050 0.0775 -0.7050
vn -0.7049 0.0775 -0.7050
vn -0.7050 0.0774 -0.7050
vn -0.7050 0.0776 -0.7050
usemtl None
s off
f 150//64 156//64 153//64
f 156//65 155//65 154//65
f 154//64 153//64 156//64
f 153//66 152//66 150//66
f 152//67 151//67 150//67
