# Blender v2.81 (sub 16) OBJ File: ''
# www.blender.org
mtllib Palau.mtl
o 0_Palau_sphere.001
v -3.328718 0.258192 -3.721173
v -3.327562 0.257163 -3.722301
v -3.326456 0.257507 -3.723282
v -3.326190 0.258521 -3.723449
v -3.326799 0.259426 -3.722828
v -3.327222 0.259758 -3.722418
v -3.328231 0.259445 -3.721524
vn -0.6718 0.0550 -0.7387
vn -0.6718 0.0549 -0.7387
vn -0.6717 0.0551 -0.7387
vn -0.6723 0.0549 -0.7382
vn -0.6725 0.0548 -0.7381
usemtl None
s off
f 2//1 5//1 3//1
f 1//2 7//2 2//2
f 7//3 6//3 2//3
f 6//4 5//4 2//4
f 5//5 4//5 3//5
o 1_Palau_sphere.001
v -3.285979 0.263597 -3.758774
v -3.284484 0.263250 -3.760077
v -3.283948 0.264196 -3.760466
v -3.284642 0.265799 -3.759757
v -3.285889 0.266830 -3.758617
v -3.287433 0.266963 -3.757289
v -3.288045 0.265934 -3.756841
v -3.287304 0.264541 -3.757574
vn -0.6487 0.0549 -0.7591
vn -0.6482 0.0549 -0.7595
vn -0.6483 0.0548 -0.7594
vn -0.6485 0.0549 -0.7593
vn -0.6480 0.0549 -0.7596
vn -0.6486 0.0548 -0.7591
usemtl None
s off
f 8//6 15//6 12//6
f 14//7 13//7 15//7
f 13//8 12//8 15//8
f 12//9 11//9 8//9
f 11//10 10//10 9//10
f 8//11 11//11 9//11
o 2_Palau_sphere.001
v -3.345498 0.462180 -3.686073
v -3.345135 0.461077 -3.686532
v -3.344619 0.462432 -3.686843
v -3.345028 0.462716 -3.686437
vn -0.6702 0.0869 -0.7371
vn -0.6703 0.0865 -0.7370
usemtl None
s off
f 18//12 16//12 19//12
f 18//13 17//13 16//13
o 3_Palau_sphere.001
v -3.458499 0.599980 -3.559661
v -3.457675 0.599135 -3.560600
v -3.456623 0.600473 -3.561399
v -3.455914 0.602289 -3.561785
v -3.455992 0.603670 -3.561482
v -3.457306 0.603737 -3.560198
v -3.458254 0.602815 -3.559432
v -3.458670 0.601385 -3.559264
vn -0.6912 0.1177 -0.7131
vn -0.6911 0.1175 -0.7131
vn -0.6911 0.1178 -0.7131
vn -0.6910 0.1177 -0.7132
vn -0.6912 0.1176 -0.7130
vn -0.6912 0.1173 -0.7131
usemtl None
s off
f 27//14 22//14 20//14
f 27//15 26//15 22//15
f 26//16 25//16 23//16
f 25//17 24//17 23//17
f 23//18 22//18 26//18
f 22//19 21//19 20//19
o 4_Palau_sphere.001
v -3.462055 0.608486 -3.554813
v -3.461535 0.607712 -3.555445
v -3.461244 0.608156 -3.555654
v -3.461440 0.609909 -3.555175
v -3.463276 0.615896 -3.552409
v -3.463797 0.615733 -3.551931
v -3.464081 0.615373 -3.551715
v -3.464206 0.614820 -3.551685
v -3.464303 0.614095 -3.551710
v -3.464077 0.613642 -3.552004
v -3.463583 0.612189 -3.552722
v -3.464233 0.611001 -3.552288
v -3.464006 0.610676 -3.552562
v -3.463384 0.610631 -3.553172
v -3.462848 0.610328 -3.553742
vn -0.6914 0.1174 -0.7128
vn -0.6908 0.1178 -0.7134
vn -0.6925 0.1172 -0.7118
vn -0.6910 0.1175 -0.7133
vn -0.6908 0.1169 -0.7135
vn -0.6909 0.1175 -0.7133
vn -0.6913 0.1174 -0.7130
vn -0.6909 0.1179 -0.7132
vn -0.6913 0.1173 -0.7130
vn -0.6914 0.1173 -0.7129
vn -0.6912 0.1175 -0.7131
vn -0.6909 0.1173 -0.7134
usemtl None
s off
f 42//20 41//20 38//20
f 36//21 35//21 37//21
f 35//22 34//22 33//22
f 37//23 35//23 32//23
f 33//24 32//24 35//24
f 32//25 31//25 38//25
f 31//26 30//26 28//26
f 42//23 31//23 28//23
f 30//27 29//27 28//27
f 31//28 42//28 38//28
f 40//29 39//29 38//29
f 38//30 37//30 32//30
f 41//31 40//31 38//31
o 5_Palau_sphere.001
v -3.471012 0.630678 -3.542387
v -3.469686 0.628572 -3.544066
v -3.468764 0.628087 -3.545050
v -3.467902 0.628297 -3.545846
v -3.467220 0.628880 -3.546398
v -3.466742 0.629756 -3.546698
v -3.466511 0.630846 -3.546718
v -3.466404 0.632458 -3.546520
v -3.466565 0.632762 -3.546307
v -3.468904 0.629775 -3.544599
v -3.469311 0.629863 -3.544188
v -3.470067 0.630544 -3.543327
v -3.472073 0.633370 -3.540855
v -3.472445 0.634227 -3.540335
v -3.472394 0.635288 -3.540186
v -3.472096 0.636282 -3.540289
v -3.472021 0.636865 -3.540253
v -3.472579 0.636688 -3.539745
v -3.472952 0.636402 -3.539437
v -3.473252 0.636050 -3.539212
v -3.473503 0.635551 -3.539062
v -3.473679 0.634841 -3.539024
v -3.472770 0.634461 -3.539976
v -3.472950 0.633707 -3.539943
v -3.473551 0.632830 -3.539525
v -3.473934 0.632085 -3.539292
v -3.473634 0.631471 -3.539697
v -3.472873 0.631207 -3.540485
v -3.471576 0.631161 -3.541751
vn -0.6898 0.1331 -0.7117
vn -0.6900 0.1334 -0.7114
vn -0.6897 0.1339 -0.7116
vn -0.6899 0.1327 -0.7116
vn -0.6895 0.1324 -0.7120
vn -0.6897 0.1333 -0.7117
vn -0.6899 0.1332 -0.7116
vn -0.6896 0.1328 -0.7119
vn -0.6897 0.1328 -0.7118
vn -0.6895 0.1332 -0.7119
vn -0.6897 0.1331 -0.7118
vn -0.6896 0.1330 -0.7119
vn -0.6899 0.1334 -0.7115
vn -0.6897 0.1330 -0.7118
vn -0.6897 0.1331 -0.7117
vn -0.6900 0.1330 -0.7115
vn -0.6896 0.1334 -0.7118
vn -0.6898 0.1333 -0.7116
vn -0.6899 0.1329 -0.7116
vn -0.6899 0.1328 -0.7116
vn -0.6900 0.1331 -0.7115
vn -0.6889 0.1336 -0.7125
vn -0.6899 0.1333 -0.7115
vn -0.6896 0.1330 -0.7118
vn -0.6896 0.1333 -0.7118
vn -0.6907 0.1329 -0.7108
usemtl None
s off
f 52//32 51//32 49//32
f 64//33 63//33 65//33
f 63//34 62//34 57//34
f 65//35 63//35 57//35
f 62//36 61//36 57//36
f 61//37 60//37 58//37
f 57//38 61//38 58//38
f 60//39 59//39 58//39
f 57//40 56//40 65//40
f 68//41 67//41 69//41
f 67//42 66//42 55//42
f 69//43 67//43 70//43
f 66//44 65//44 56//44
f 66//45 56//45 55//45
f 70//46 67//46 55//46
f 71//47 70//47 55//47
f 45//48 44//48 52//48
f 44//49 43//49 54//49
f 53//50 44//50 54//50
f 46//51 45//51 52//51
f 44//52 53//52 52//52
f 43//53 71//53 55//53
f 55//54 54//54 43//54
f 48//55 47//55 52//55
f 47//56 46//56 52//56
f 50//57 49//57 51//57
f 49//49 48//49 52//49
o 6_Palau_sphere.001
v -3.476155 0.639384 -3.535776
v -3.477284 0.637967 -3.534946
v -3.477123 0.636156 -3.535442
v -3.476481 0.635906 -3.536110
v -3.475834 0.636869 -3.536557
v -3.475282 0.638169 -3.536849
v -3.474860 0.638966 -3.537109
v -3.473956 0.639343 -3.537914
v -3.473351 0.639067 -3.538552
v -3.472281 0.637674 -3.539850
v -3.472044 0.639011 -3.539830
v -3.472055 0.640112 -3.539613
v -3.472468 0.640768 -3.539090
v -3.473408 0.640749 -3.538182
v -3.474563 0.640332 -3.537141
vn -0.6898 0.1329 -0.7117
vn -0.6897 0.1330 -0.7117
vn -0.6897 0.1328 -0.7118
vn -0.6895 0.1333 -0.7119
vn -0.6897 0.1330 -0.7118
vn -0.6897 0.1329 -0.7118
vn -0.6897 0.1328 -0.7119
vn -0.6897 0.1332 -0.7117
vn -0.6895 0.1327 -0.7120
vn -0.6897 0.1331 -0.7117
vn -0.6896 0.1330 -0.7118
usemtl None
s off
f 86//58 79//58 78//58
f 73//59 72//59 77//59
f 72//60 86//60 78//60
f 86//61 85//61 79//61
f 85//62 84//62 80//62
f 79//63 85//63 80//63
f 84//63 83//63 80//63
f 83//64 82//64 80//64
f 82//65 81//65 80//65
f 74//65 73//65 76//65
f 72//66 78//66 77//66
f 76//67 75//67 74//67
f 77//68 76//68 73//68
o 7_Palau_sphere.001
v -3.483275 0.660496 -3.524930
v -3.482744 0.657545 -3.525996
v -3.481731 0.655178 -3.527420
v -3.481730 0.654599 -3.527529
v -3.482551 0.653333 -3.526970
v -3.482603 0.652780 -3.527023
v -3.482348 0.652386 -3.527344
v -3.482029 0.650114 -3.528078
v -3.480812 0.647455 -3.529754
v -3.480650 0.645573 -3.530263
v -3.481391 0.642287 -3.530159
v -3.481195 0.641087 -3.530573
v -3.480933 0.640818 -3.530877
v -3.480607 0.640966 -3.531166
v -3.479860 0.641047 -3.531875
v -3.479223 0.641546 -3.532399
v -3.478821 0.641619 -3.532775
v -3.478558 0.641300 -3.533089
v -3.478012 0.640069 -3.533849
v -3.477695 0.639817 -3.534202
v -3.476996 0.639978 -3.534849
v -3.476700 0.640279 -3.535080
v -3.476559 0.640803 -3.535119
v -3.475793 0.642974 -3.535455
v -3.475046 0.645801 -3.535650
v -3.474512 0.647047 -3.535935
v -3.473949 0.647603 -3.536377
v -3.473593 0.647566 -3.536729
v -3.473414 0.647709 -3.536875
v -3.473399 0.648847 -3.536677
v -3.473507 0.649831 -3.536389
v -3.473787 0.650731 -3.535949
v -3.474225 0.651455 -3.535390
v -3.474830 0.651908 -3.534719
v -3.475185 0.650770 -3.534587
v -3.475765 0.650622 -3.534053
v -3.476303 0.651253 -3.533414
v -3.476502 0.652459 -3.532995
v -3.476264 0.653185 -3.533090
v -3.475703 0.653900 -3.533501
v -3.474547 0.654914 -3.534431
v -3.474976 0.655549 -3.533897
v -3.475669 0.657207 -3.532915
v -3.476363 0.657924 -3.532109
v -3.476471 0.657867 -3.532015
v -3.476476 0.658354 -3.531919
v -3.476358 0.659556 -3.531808
v -3.476302 0.659664 -3.531843
v -3.476809 0.661382 -3.531031
v -3.477470 0.662487 -3.530183
v -3.478487 0.663088 -3.529084
v -3.480052 0.663262 -3.527535
v -3.481498 0.663858 -3.526023
v -3.481735 0.665319 -3.525520
v -3.480800 0.669903 -3.525569
v -3.480052 0.671641 -3.525970
v -3.479811 0.672670 -3.526011
v -3.480020 0.673055 -3.525737
v -3.480601 0.672885 -3.525206
v -3.481216 0.672383 -3.524703
v -3.481582 0.671764 -3.524464
v -3.482612 0.668831 -3.524014
v -3.483204 0.664667 -3.524219
vn -0.6897 0.1329 -0.7118
vn -0.6897 0.1331 -0.7118
vn -0.6898 0.1330 -0.7116
vn -0.6898 0.1330 -0.7117
vn -0.6898 0.1328 -0.7118
vn -0.6894 0.1332 -0.7120
vn -0.6897 0.1330 -0.7117
vn -0.6897 0.1333 -0.7117
vn -0.6897 0.1331 -0.7117
vn -0.6899 0.1329 -0.7116
vn -0.6897 0.1332 -0.7117
vn -0.6897 0.1330 -0.7118
vn -0.6899 0.1331 -0.7115
vn -0.6898 0.1331 -0.7117
vn -0.6900 0.1330 -0.7115
vn -0.6896 0.1331 -0.7118
vn -0.6899 0.1334 -0.7115
vn -0.6895 0.1327 -0.7121
vn -0.6901 0.1334 -0.7113
vn -0.6896 0.1325 -0.7120
vn -0.6898 0.1339 -0.7115
vn -0.6914 0.1333 -0.7101
vn -0.6872 0.1357 -0.7137
vn -0.6900 0.1332 -0.7115
vn -0.6894 0.1331 -0.7121
vn -0.6898 0.1333 -0.7116
vn -0.6896 0.1330 -0.7119
vn -0.6891 0.1332 -0.7124
vn -0.6896 0.1329 -0.7118
vn -0.6887 0.1317 -0.7130
vn -0.6902 0.1333 -0.7113
vn -0.6898 0.1331 -0.7116
vn -0.6895 0.1356 -0.7115
vn -0.6901 0.1330 -0.7114
vn -0.6894 0.1330 -0.7121
vn -0.6895 0.1335 -0.7119
vn -0.6896 0.1330 -0.7118
vn -0.6896 0.1328 -0.7119
vn -0.6898 0.1334 -0.7116
vn -0.6902 0.1330 -0.7113
usemtl None
s off
f 121//69 117//69 113//69
f 149//70 148//70 140//70
f 148//71 147//71 141//71
f 147//72 146//72 142//72
f 146//73 145//73 142//73
f 145//74 144//74 143//74
f 143//75 142//75 145//75
f 142//76 141//76 147//76
f 148//77 141//77 140//77
f 88//78 87//78 138//78
f 87//69 149//69 139//69
f 89//79 88//79 135//79
f 87//80 139//80 138//80
f 149//72 140//72 139//72
f 92//81 91//81 93//81
f 91//82 90//82 93//82
f 90//83 89//83 131//83
f 88//84 138//84 137//84
f 135//77 88//77 137//77
f 137//85 136//85 135//85
f 132//77 89//77 135//77
f 95//77 94//77 124//77
f 94//70 93//70 124//70
f 124//80 93//80 90//80
f 98//81 97//81 100//81
f 97//69 96//69 102//69
f 100//86 97//86 101//86
f 99//87 98//87 100//87
f 90//69 131//69 125//69
f 89//88 132//88 131//88
f 101//89 97//89 102//89
f 96//80 95//80 122//80
f 124//82 90//82 125//82
f 135//90 134//90 133//90
f 135//83 133//83 132//83
f 131//91 130//91 129//91
f 103//92 102//92 96//92
f 106//93 105//93 109//93
f 105//94 104//94 109//94
f 104//94 103//94 110//94
f 103//77 96//77 111//77
f 95//70 124//70 123//70
f 131//95 129//95 125//95
f 128//77 127//77 126//77
f 129//81 128//81 126//81
f 125//96 129//96 126//96
f 103//82 111//82 110//82
f 109//97 104//97 110//97
f 108//98 107//98 109//98
f 107//99 106//99 109//99
f 95//77 123//77 122//77
f 112//100 111//100 122//100
f 111//80 96//80 122//80
f 115//101 114//101 113//101
f 113//102 112//102 121//102
f 121//103 112//103 122//103
f 121//104 120//104 119//104
f 116//105 115//105 113//105
f 121//106 119//106 118//106
f 118//107 117//107 121//107
f 117//108 116//108 113//108
o 8_Palau_sphere.001
v -3.483119 0.700855 -3.517537
v -3.482118 0.700103 -3.518648
v -3.481475 0.701038 -3.519096
v -3.481370 0.702345 -3.518953
v -3.482266 0.704212 -3.517735
v -3.483065 0.704199 -3.516964
v -3.483502 0.702999 -3.516765
vn -0.6896 0.1332 -0.7118
vn -0.6901 0.1335 -0.7113
vn -0.6897 0.1332 -0.7117
vn -0.6897 0.1331 -0.7118
vn -0.6898 0.1328 -0.7118
usemtl None
s off
f 150//109 156//109 153//109
f 156//110 155//110 154//110
f 154//111 153//111 156//111
f 153//112 152//112 150//112
f 152//113 151//113 150//113
