# Blender v2.81 (sub 16) OBJ File: ''
# www.blender.org
mtllib Palestine.mtl
o 0_Palestine_sphere.001
v 3.517231 2.612492 -2.408767
v 3.512956 2.612492 -2.414850
v 3.532949 2.598564 -2.400983
v 3.514271 2.615021 -2.410238
v 3.511056 2.618289 -2.411266
v 3.510763 2.618654 -2.411288
v 3.510289 2.617036 -2.413716
v 3.510248 2.615519 -2.415421
v 3.511163 2.613927 -2.415845
v 3.533598 2.591757 -2.407186
v 3.534759 2.590812 -2.406523
v 3.533731 2.594425 -2.404204
v 3.533359 2.595669 -2.403430
v 3.531531 2.599500 -2.402021
v 3.530348 2.600670 -2.402480
v 3.527153 2.603225 -2.404350
v 3.525131 2.605545 -2.404798
v 3.522008 2.607776 -2.406906
v 3.520020 2.610063 -2.407341
v 3.513554 2.612003 -2.414510
v 3.514541 2.611346 -2.413795
v 3.522872 2.604396 -2.409216
v 3.525108 2.601764 -2.408791
v 3.525758 2.600482 -2.409206
v 3.526692 2.597885 -2.410596
v 3.527458 2.596596 -2.410856
v 3.530173 2.594181 -2.409522
vn 0.6943 0.5291 -0.4879
vn 0.7009 0.5159 -0.4925
vn 0.6942 0.5291 -0.4880
vn 0.6943 0.5292 -0.4878
vn 0.6944 0.5289 -0.4879
vn 0.6948 0.5280 -0.4883
vn 0.7011 0.5157 -0.4925
vn 0.7010 0.5157 -0.4926
vn 0.7010 0.5156 -0.4927
vn 0.7013 0.5160 -0.4918
vn 0.7008 0.5159 -0.4926
vn 0.7009 0.5158 -0.4926
vn 0.7009 0.5157 -0.4927
vn 0.7008 0.5158 -0.4928
vn 0.7011 0.5153 -0.4929
usemtl None
s off
f 7//1 5//1 4//1
f 24//2 23//2 16//2
f 1//3 2//3 4//3
f 2//4 9//4 7//4
f 4//3 2//3 7//3
f 9//5 8//5 7//5
f 7//6 6//6 5//6
f 14//7 3//7 13//7
f 13//2 12//2 27//2
f 12//8 11//8 10//8
f 10//9 27//9 12//9
f 27//10 26//10 25//10
f 13//8 27//8 15//8
f 15//2 14//2 13//2
f 18//8 17//8 22//8
f 17//11 16//11 23//11
f 22//8 17//8 23//8
f 16//12 15//12 24//12
f 24//13 15//13 25//13
f 15//13 27//13 25//13
f 1//12 19//12 21//12
f 19//14 18//14 22//14
f 20//15 2//15 1//15
f 21//2 20//2 1//2
f 19//8 22//8 21//8
o 1_Palestine_sphere.001
v 3.494892 2.612492 -2.440553
v 3.472090 2.612492 -2.472997
v 3.456207 2.679133 -2.423327
v 3.437365 2.679133 -2.450136
v 3.442576 2.687622 -2.433190
v 3.442016 2.687217 -2.434441
v 3.439238 2.687411 -2.438176
v 3.438090 2.687191 -2.440058
v 3.437432 2.686039 -2.442287
v 3.437969 2.684302 -2.443473
v 3.439191 2.682017 -2.444301
v 3.439938 2.680156 -2.445327
v 3.439090 2.679674 -2.447075
v 3.438099 2.679628 -2.448535
v 3.454594 2.681572 -2.422883
v 3.452627 2.683717 -2.423273
v 3.450878 2.684907 -2.424426
v 3.449132 2.685802 -2.425906
v 3.447167 2.687025 -2.427327
v 3.445132 2.688859 -2.428165
v 3.444187 2.689524 -2.428762
v 3.443390 2.689593 -2.429819
v 3.443011 2.689095 -2.430916
v 3.472482 2.611753 -2.473212
v 3.472559 2.611561 -2.473304
v 3.475707 2.611181 -2.469222
v 3.479241 2.609037 -2.466438
v 3.486821 2.603157 -2.461809
v 3.490033 2.601738 -2.458724
v 3.495373 2.601806 -2.451055
v 3.498207 2.601284 -2.447569
v 3.499581 2.600721 -2.446204
v 3.500900 2.600444 -2.444617
v 3.501904 2.600718 -2.442901
v 3.502320 2.601804 -2.441173
v 3.501566 2.604339 -2.439591
v 3.499693 2.606855 -2.439621
v 3.495359 2.611706 -2.440711
v 3.434536 2.677942 -2.455453
v 3.434696 2.677374 -2.455841
v 3.434967 2.676700 -2.456187
v 3.435230 2.676700 -2.455813
v 3.434972 2.677210 -2.455626
v 3.435288 2.677208 -2.455178
v 3.435547 2.676698 -2.455364
v 3.435683 2.675978 -2.455951
v 3.436844 2.673754 -2.456710
v 3.437014 2.672655 -2.457661
v 3.437641 2.671789 -2.457708
v 3.438371 2.670373 -2.458205
v 3.438928 2.668961 -2.458944
v 3.439027 2.668096 -2.459740
v 3.439329 2.667916 -2.459507
v 3.439593 2.667716 -2.459347
v 3.439845 2.667444 -2.459284
v 3.440125 2.667031 -2.459334
v 3.439565 2.667033 -2.460128
v 3.441895 2.663522 -2.460620
v 3.442683 2.662337 -2.460784
v 3.442949 2.661456 -2.461361
v 3.443228 2.660903 -2.461563
v 3.443712 2.660636 -2.461165
v 3.444074 2.660301 -2.461012
v 3.444282 2.659896 -2.461157
v 3.444297 2.659422 -2.461648
v 3.445932 2.657604 -2.461294
v 3.446394 2.656743 -2.461569
v 3.446411 2.655824 -2.462542
v 3.447574 2.654949 -2.461837
v 3.448459 2.653663 -2.461973
v 3.450122 2.650230 -2.463329
v 3.450542 2.648486 -2.464622
v 3.450850 2.647697 -2.465040
v 3.451339 2.646681 -2.465446
v 3.451584 2.646062 -2.465769
v 3.451748 2.645240 -2.466427
v 3.452080 2.644648 -2.466596
v 3.452447 2.644305 -2.466445
v 3.452809 2.644176 -2.466071
v 3.453187 2.643955 -2.465773
v 3.453611 2.643352 -2.465823
v 3.455589 2.637402 -2.469461
v 3.456522 2.636472 -2.469142
v 3.456801 2.635919 -2.469345
v 3.457933 2.631915 -2.472078
v 3.460446 2.629650 -2.470957
v 3.463402 2.625949 -2.470765
v 3.466033 2.622657 -2.470591
v 3.469458 2.617265 -2.471565
v 3.493888 2.614133 -2.440202
v 3.492813 2.616206 -2.439482
v 3.491598 2.618215 -2.439033
v 3.489919 2.620169 -2.439303
v 3.489694 2.620433 -2.439337
v 3.488209 2.621805 -2.439962
v 3.482793 2.625653 -2.443495
v 3.480145 2.627912 -2.444812
v 3.478910 2.628832 -2.445572
v 3.477784 2.629439 -2.446516
v 3.474702 2.630288 -2.449980
v 3.474634 2.629947 -2.450448
v 3.474495 2.629786 -2.450821
v 3.474252 2.629877 -2.451066
v 3.473876 2.630301 -2.451143
v 3.472999 2.631901 -2.450655
v 3.472444 2.633139 -2.450102
v 3.472312 2.634062 -2.449290
v 3.472698 2.634727 -2.448019
v 3.475153 2.635762 -2.443402
v 3.476581 2.637352 -2.439648
v 3.477109 2.637504 -2.438730
v 3.477583 2.637203 -2.438382
v 3.478957 2.635997 -2.437737
v 3.479581 2.635605 -2.437273
v 3.479935 2.635512 -2.436870
v 3.480597 2.635524 -2.435915
v 3.481821 2.635896 -2.433770
v 3.481587 2.637144 -2.432749
v 3.481336 2.637474 -2.432750
v 3.480569 2.638478 -2.432751
v 3.479099 2.639084 -2.434186
v 3.477428 2.640056 -2.435509
v 3.476664 2.642551 -2.433891
v 3.476022 2.645463 -2.431646
v 3.474700 2.647694 -2.431107
v 3.474535 2.647948 -2.431068
v 3.474384 2.648217 -2.430991
v 3.474260 2.648486 -2.430875
v 3.474169 2.648733 -2.430737
v 3.474181 2.648848 -2.430595
v 3.473237 2.650549 -2.430093
v 3.472548 2.651940 -2.429566
v 3.469500 2.658957 -2.426293
v 3.469069 2.660213 -2.425544
v 3.468586 2.662513 -2.423737
v 3.468134 2.663229 -2.423603
v 3.467006 2.664322 -2.424023
v 3.464194 2.666581 -2.425575
v 3.463409 2.667504 -2.425691
v 3.462776 2.668448 -2.425567
v 3.462451 2.669231 -2.425181
v 3.462460 2.669788 -2.424563
v 3.462868 2.670035 -2.423716
v 3.462237 2.671009 -2.423557
v 3.460893 2.673344 -2.422937
v 3.460235 2.674285 -2.422853
v 3.459984 2.674458 -2.423023
v 3.459257 2.674768 -2.423720
v 3.459010 2.674943 -2.423882
v 3.457921 2.676471 -2.423775
v 3.457108 2.677732 -2.423563
vn 0.6874 0.5423 -0.4831
vn 0.7009 0.5158 -0.4927
vn 0.6942 0.5296 -0.4875
vn 0.6872 0.5426 -0.4830
vn 0.6878 0.5418 -0.4832
vn 0.6870 0.5423 -0.4837
vn 0.6874 0.5425 -0.4830
vn 0.6873 0.5424 -0.4831
vn 0.6874 0.5422 -0.4832
vn 0.6873 0.5425 -0.4831
vn 0.6875 0.5425 -0.4828
vn 0.6875 0.5421 -0.4832
vn 0.6874 0.5426 -0.4827
vn 0.6873 0.5425 -0.4830
vn 0.6875 0.5417 -0.4836
vn 0.6875 0.5418 -0.4835
vn 0.6874 0.5424 -0.4831
vn 0.6872 0.5424 -0.4832
vn 0.6875 0.5423 -0.4831
vn 0.6873 0.5427 -0.4829
vn 0.7010 0.5158 -0.4926
vn 0.7009 0.5156 -0.4929
vn 0.7009 0.5158 -0.4926
vn 0.7010 0.5157 -0.4926
vn 0.7009 0.5159 -0.4926
vn 0.7011 0.5156 -0.4926
vn 0.7008 0.5158 -0.4928
vn 0.7012 0.5155 -0.4926
vn 0.7008 0.5160 -0.4926
vn 0.7007 0.5163 -0.4924
vn 0.7016 0.5145 -0.4929
vn 0.7010 0.5156 -0.4927
vn 0.6942 0.5291 -0.4880
vn 0.6943 0.5291 -0.4879
vn 0.6942 0.5291 -0.4879
vn 0.6942 0.5292 -0.4879
vn 0.6949 0.5287 -0.4875
vn 0.6939 0.5289 -0.4887
vn 0.6943 0.5291 -0.4878
vn 0.6940 0.5292 -0.4881
vn 0.6920 0.5318 -0.4883
vn 0.6949 0.5295 -0.4866
vn 0.6944 0.5290 -0.4878
vn 0.6942 0.5294 -0.4877
vn 0.6945 0.5285 -0.4882
vn 0.6940 0.5297 -0.4877
vn 0.6946 0.5289 -0.4877
vn 0.6944 0.5287 -0.4882
vn 0.6946 0.5287 -0.4878
vn 0.6938 0.5307 -0.4868
vn 0.6943 0.5285 -0.4885
vn 0.6940 0.5292 -0.4882
vn 0.6944 0.5295 -0.4872
vn 0.6944 0.5291 -0.4878
vn 0.6942 0.5289 -0.4882
vn 0.6947 0.5290 -0.4874
vn 0.6939 0.5292 -0.4883
vn 0.6944 0.5291 -0.4877
vn 0.6925 0.5305 -0.4889
vn 0.6950 0.5293 -0.4866
vn 0.6943 0.5292 -0.4878
vn 0.6943 0.5290 -0.4880
vn 0.6943 0.5291 -0.4880
vn 0.6945 0.5292 -0.4876
vn 0.6944 0.5268 -0.4902
vn 0.6943 0.5290 -0.4879
vn 0.6941 0.5292 -0.4879
vn 0.6946 0.5278 -0.4889
vn 0.6944 0.5292 -0.4877
vn 0.6942 0.5293 -0.4877
vn 0.6926 0.5290 -0.4904
vn 0.6942 0.5292 -0.4880
vn 0.6941 0.5291 -0.4882
vn 0.6941 0.5294 -0.4878
vn 0.6941 0.5293 -0.4879
vn 0.6942 0.5293 -0.4878
vn 0.6942 0.5290 -0.4881
vn 0.6959 0.5298 -0.4848
vn 0.6944 0.5289 -0.4879
vn 0.6946 0.5295 -0.4870
vn 0.6957 0.5284 -0.4865
vn 0.6942 0.5287 -0.4884
vn 0.6953 0.5283 -0.4874
vn 0.6940 0.5295 -0.4879
vn 0.6939 0.5295 -0.4880
vn 0.6928 0.5318 -0.4870
vn 0.6976 0.5279 -0.4845
vn 0.6959 0.5279 -0.4869
vn 0.6947 0.5289 -0.4874
vn 0.6942 0.5288 -0.4883
vn 0.6921 0.5299 -0.4902
vn 0.6938 0.5290 -0.4886
vn 0.6952 0.5289 -0.4868
vn 0.6943 0.5287 -0.4883
vn 0.6939 0.5294 -0.4881
vn 0.6945 0.5289 -0.4878
vn 0.6939 0.5291 -0.4884
vn 0.6940 0.5298 -0.4875
vn 0.6945 0.5291 -0.4875
vn 0.6936 0.5291 -0.4889
vn 0.6950 0.5291 -0.4869
vn 0.6942 0.5291 -0.4881
vn 0.6960 0.5289 -0.4856
vn 0.6941 0.5292 -0.4880
vn 0.6946 0.5286 -0.4880
usemtl None
s off
f 34//16 33//16 38//16
f 58//17 57//17 65//17
f 176//18 175//18 168//18
f 30//19 31//19 40//19
f 31//20 41//20 40//20
f 43//21 42//21 44//21
f 42//22 30//22 44//22
f 45//23 44//23 30//23
f 48//24 47//24 49//24
f 47//25 46//25 32//25
f 49//26 47//26 50//26
f 50//27 47//27 32//27
f 46//28 45//28 33//28
f 45//29 30//29 33//29
f 46//30 33//30 32//30
f 30//31 40//31 39//31
f 38//32 37//32 34//32
f 37//33 36//33 35//33
f 30//23 39//23 33//23
f 39//34 38//34 33//34
f 35//35 34//35 37//35
f 29//36 28//36 53//36
f 28//37 65//37 57//37
f 53//38 28//38 54//38
f 65//39 64//39 58//39
f 64//40 63//40 60//40
f 60//41 63//41 61//41
f 63//42 62//42 61//42
f 60//43 59//43 64//43
f 59//44 58//44 64//44
f 51//45 29//45 53//45
f 53//46 52//46 51//46
f 56//47 55//47 28//47
f 55//38 54//38 28//38
f 56//39 28//39 57//39
f 28//48 29//48 117//48
f 29//48 116//48 129//48
f 117//49 29//49 123//49
f 115//50 114//50 131//50
f 114//51 113//51 132//51
f 115//50 130//50 116//50
f 119//52 118//52 120//52
f 118//51 117//51 122//51
f 120//53 118//53 122//53
f 123//50 29//50 129//50
f 113//54 112//54 111//54
f 130//55 115//55 131//55
f 122//56 121//56 120//56
f 125//57 124//57 126//57
f 124//58 123//58 129//58
f 126//59 124//59 129//59
f 123//49 122//49 117//49
f 129//60 116//60 130//60
f 113//50 111//50 133//50
f 111//61 110//61 133//61
f 110//62 109//62 108//62
f 132//63 113//63 133//63
f 110//49 108//49 133//49
f 128//64 127//64 126//64
f 129//65 128//65 126//65
f 131//54 114//54 132//54
f 108//66 107//66 98//66
f 133//67 108//67 134//67
f 106//68 105//68 104//68
f 134//69 108//69 135//69
f 107//70 106//70 102//70
f 106//71 104//71 103//71
f 102//72 106//72 103//72
f 101//73 100//73 98//73
f 100//74 99//74 98//74
f 107//75 102//75 101//75
f 135//51 108//51 98//51
f 137//76 136//76 150//76
f 136//51 135//51 154//51
f 150//77 136//77 154//77
f 107//50 101//50 98//50
f 98//78 97//78 135//78
f 138//79 137//79 149//79
f 135//50 97//50 158//50
f 137//48 150//48 149//48
f 141//80 140//80 142//80
f 140//81 139//81 148//81
f 97//82 96//82 165//82
f 154//83 135//83 155//83
f 140//51 148//51 142//51
f 96//84 95//84 94//84
f 143//85 142//85 148//85
f 96//86 94//86 93//86
f 155//87 135//87 158//87
f 139//88 138//88 149//88
f 145//89 144//89 146//89
f 144//90 143//90 146//90
f 148//91 147//91 146//91
f 139//51 149//51 148//51
f 93//92 92//92 91//92
f 96//81 93//81 165//81
f 148//48 146//48 143//48
f 93//93 91//93 90//93
f 93//51 90//51 166//51
f 158//94 97//94 159//94
f 89//95 88//95 87//95
f 90//96 89//96 86//96
f 152//94 151//94 150//94
f 159//50 97//50 160//50
f 89//97 87//97 86//97
f 86//98 85//98 83//98
f 85//99 84//99 83//99
f 160//49 97//49 165//49
f 90//100 86//100 83//100
f 153//101 152//101 150//101
f 154//102 153//102 150//102
f 90//49 83//49 167//49
f 83//103 82//103 77//103
f 158//104 157//104 156//104
f 158//105 156//105 155//105
f 93//81 166//81 165//81
f 82//106 81//106 78//106
f 166//48 90//48 167//48
f 80//107 79//107 78//107
f 81//108 80//108 78//108
f 31//77 83//77 77//77
f 83//51 31//51 167//51
f 163//109 162//109 164//109
f 162//48 161//48 164//48
f 161//90 160//90 165//90
f 78//92 77//92 82//92
f 165//77 164//77 161//77
f 77//110 76//110 31//110
f 76//49 75//49 74//49
f 74//49 73//49 72//49
f 76//58 74//58 31//58
f 74//90 72//90 31//90
f 72//111 71//111 31//111
f 168//112 167//112 176//112
f 70//113 69//113 68//113
f 169//49 168//49 175//49
f 167//50 31//50 176//50
f 70//114 68//114 67//114
f 170//111 169//111 171//111
f 171//90 169//90 175//90
f 71//115 70//115 66//115
f 70//116 67//116 66//116
f 66//92 31//92 71//92
f 31//76 30//76 178//76
f 31//117 178//117 177//117
f 173//118 172//118 174//118
f 172//119 171//119 175//119
f 175//120 174//120 172//120
f 31//81 177//81 176//81
