# Blender v2.81 (sub 16) OBJ File: ''
# www.blender.org
mtllib Qatar.mtl
o 0_Qatar_sphere.001
v 2.829008 2.049701 -3.521226
v 2.835482 2.043808 -3.518162
v 2.839884 2.041603 -3.515035
v 2.844221 2.041045 -3.511021
v 2.848622 2.041341 -3.506449
v 2.851959 2.042987 -3.502159
v 2.854249 2.047894 -3.497031
v 2.856759 2.059226 -3.487963
v 2.855237 2.059593 -3.489273
v 2.852598 2.062103 -3.490461
v 2.851336 2.064912 -3.490098
v 2.849271 2.075076 -3.486282
v 2.849184 2.077724 -3.484836
v 2.850394 2.085219 -3.479290
v 2.850223 2.086787 -3.478554
v 2.848596 2.089843 -3.478413
v 2.847858 2.091944 -3.477936
v 2.847432 2.093843 -3.477262
v 2.847682 2.094644 -3.476549
v 2.849297 2.096071 -3.474109
v 2.848886 2.099639 -3.472455
v 2.847947 2.103535 -3.471140
v 2.847965 2.105996 -3.469698
v 2.846903 2.107945 -3.469633
v 2.846420 2.110155 -3.468837
v 2.846120 2.112478 -3.467793
v 2.845588 2.114778 -3.466994
v 2.843443 2.120517 -3.465819
v 2.842901 2.122704 -3.465096
v 2.841837 2.130508 -3.461644
v 2.839758 2.135038 -3.461101
v 2.839103 2.137090 -3.460570
v 2.839720 2.138322 -3.459240
v 2.836792 2.141759 -3.460179
v 2.835290 2.142114 -3.461476
v 2.834795 2.140845 -3.462706
v 2.835073 2.138958 -3.463519
v 2.834627 2.138202 -3.464402
v 2.835168 2.136189 -3.465026
v 2.833309 2.135815 -3.467101
v 2.833364 2.139946 -3.464657
v 2.833138 2.141714 -3.463860
v 2.832727 2.143572 -3.463196
v 2.832273 2.144733 -3.462977
v 2.831680 2.145959 -3.462861
v 2.831293 2.147230 -3.462513
v 2.831406 2.148483 -3.461675
v 2.831870 2.148962 -3.460934
v 2.833390 2.149293 -3.459222
v 2.834108 2.149770 -3.458228
v 2.832911 2.151106 -3.458652
v 2.831845 2.151484 -3.459500
v 2.830775 2.151676 -3.460458
v 2.829603 2.152395 -3.461215
v 2.829206 2.152987 -3.461269
v 2.828320 2.154569 -3.461240
v 2.827934 2.154898 -3.461436
v 2.827510 2.154695 -3.461977
v 2.827301 2.153752 -3.462731
v 2.826817 2.153554 -3.463330
v 2.826641 2.152802 -3.463942
v 2.827239 2.151077 -3.464341
v 2.828467 2.148287 -3.464728
v 2.829038 2.146152 -3.465392
v 2.829171 2.145392 -3.465699
v 2.829098 2.143466 -3.466886
v 2.828895 2.142923 -3.467403
v 2.828525 2.142362 -3.468098
v 2.827713 2.142674 -3.468729
v 2.827489 2.142952 -3.468792
v 2.827404 2.143452 -3.468588
v 2.826466 2.145862 -3.468132
v 2.825764 2.148313 -3.467415
v 2.825154 2.149412 -3.467390
v 2.824030 2.150530 -3.467867
v 2.823610 2.150221 -3.468465
v 2.823198 2.149550 -3.469266
v 2.822204 2.149523 -3.470275
v 2.821556 2.150252 -3.470502
v 2.819752 2.153254 -3.470569
v 2.818865 2.154518 -3.470725
v 2.821133 2.153465 -3.469066
v 2.823106 2.152981 -3.467372
v 2.824438 2.153720 -3.465614
v 2.824773 2.156384 -3.463737
v 2.824471 2.157829 -3.463203
v 2.822656 2.162629 -3.462240
v 2.822357 2.163087 -3.462275
v 2.821455 2.163851 -3.462735
v 2.821157 2.164374 -3.462730
v 2.821133 2.164792 -3.462512
v 2.821345 2.165388 -3.461956
v 2.821313 2.165809 -3.461744
v 2.820503 2.168839 -3.460801
v 2.819585 2.168551 -3.461886
v 2.819031 2.169359 -3.461972
v 2.818501 2.170447 -3.461872
v 2.817689 2.171009 -3.462359
v 2.817289 2.170675 -3.462952
v 2.817100 2.169812 -3.463641
v 2.817140 2.168667 -3.464263
v 2.817430 2.167492 -3.464653
v 2.816181 2.168379 -3.465389
v 2.815156 2.169761 -3.465614
v 2.814513 2.171393 -3.465312
v 2.814443 2.173058 -3.464420
v 2.815112 2.172364 -3.464152
v 2.815773 2.173771 -3.462677
v 2.815078 2.175902 -3.462139
v 2.811702 2.181621 -3.462206
v 2.810899 2.183544 -3.461897
v 2.809512 2.188040 -3.460682
v 2.809071 2.187494 -3.461440
v 2.808927 2.187211 -3.461747
v 2.808872 2.186641 -3.462132
v 2.808431 2.186645 -3.462570
v 2.805288 2.192544 -3.462301
v 2.803212 2.195102 -3.462896
v 2.800940 2.196170 -3.464550
v 2.799809 2.196467 -3.465510
v 2.796510 2.197943 -3.467955
v 2.795763 2.198495 -3.468382
v 2.795009 2.199975 -3.468280
v 2.792866 2.202047 -3.469225
v 2.792111 2.203492 -3.469143
v 2.791013 2.202908 -3.470580
v 2.789467 2.203461 -3.471805
v 2.786483 2.205438 -3.473646
v 2.782051 2.201699 -3.480241
v 2.781359 2.200145 -3.481832
v 2.781713 2.198305 -3.482543
v 2.782460 2.195913 -3.483180
v 2.782930 2.193832 -3.483913
v 2.782445 2.192944 -3.484912
v 2.781329 2.192296 -3.486403
v 2.781341 2.190688 -3.487322
v 2.781770 2.188707 -3.488039
v 2.781884 2.186923 -3.488957
v 2.781148 2.185687 -3.490408
v 2.780350 2.185503 -3.491313
v 2.779850 2.185393 -3.491875
v 2.776866 2.185733 -3.494664
v 2.775279 2.185546 -3.496358
v 2.774077 2.185010 -3.497870
v 2.773119 2.184182 -3.499308
v 2.772277 2.183118 -3.500766
v 2.771680 2.181950 -3.502038
v 2.771316 2.180485 -3.503250
v 2.771252 2.178808 -3.504283
v 2.772683 2.168323 -3.508919
v 2.773020 2.167005 -3.509345
v 2.773494 2.165874 -3.509525
v 2.774149 2.165385 -3.509153
v 2.774467 2.165691 -3.508658
v 2.774496 2.167082 -3.507824
v 2.775001 2.167395 -3.507138
v 2.775634 2.166973 -3.506749
v 2.776347 2.166002 -3.506598
v 2.776875 2.164876 -3.506722
v 2.776998 2.163976 -3.507119
v 2.776575 2.163270 -3.507951
v 2.775970 2.163383 -3.508490
v 2.775379 2.163967 -3.508743
v 2.774955 2.164698 -3.508745
v 2.774420 2.162494 -3.510554
v 2.775871 2.160200 -3.510431
v 2.777393 2.159466 -3.509334
v 2.777030 2.161991 -3.508236
v 2.778039 2.161605 -3.507451
v 2.780765 2.159887 -3.505718
v 2.779907 2.159385 -3.506866
v 2.779079 2.158593 -3.508152
v 2.778492 2.157637 -3.509292
v 2.778352 2.156652 -3.510003
v 2.779109 2.154508 -3.510486
v 2.780248 2.153608 -3.509868
v 2.781502 2.153202 -3.508849
v 2.782598 2.152504 -3.508156
v 2.782968 2.152871 -3.507575
v 2.783385 2.153078 -3.507038
v 2.784517 2.147911 -3.508895
v 2.785041 2.146403 -3.509244
v 2.785682 2.145379 -3.509195
v 2.786486 2.144417 -3.508948
v 2.787113 2.143436 -3.508889
v 2.787180 2.142521 -3.509351
v 2.786079 2.136899 -3.513704
v 2.786019 2.135517 -3.514564
v 2.786238 2.134132 -3.515146
v 2.787527 2.129789 -3.516371
v 2.789102 2.124498 -3.517856
v 2.789565 2.122298 -3.518667
v 2.789453 2.121199 -3.519414
v 2.788709 2.120766 -3.520409
v 2.784844 2.120202 -3.524600
v 2.784436 2.119353 -3.525499
v 2.784341 2.117414 -3.526716
v 2.784536 2.115666 -3.527532
v 2.784733 2.113907 -3.528353
v 2.786648 2.105598 -3.531245
v 2.789978 2.095110 -3.533983
v 2.789907 2.093937 -3.534734
v 2.790732 2.093013 -3.534443
v 2.793336 2.086756 -3.535458
v 2.794729 2.084721 -3.535244
v 2.798093 2.080834 -3.534128
v 2.799474 2.078243 -3.534246
v 2.800141 2.077788 -3.533842
v 2.800862 2.077439 -3.533323
v 2.801433 2.077002 -3.533005
v 2.802004 2.076065 -3.532976
v 2.806240 2.066454 -3.534301
v 2.806471 2.065922 -3.534378
v 2.807135 2.064763 -3.534385
v 2.808193 2.063829 -3.533867
v 2.809087 2.061805 -3.534144
v 2.810679 2.057379 -3.535113
v 2.812044 2.055670 -3.534737
v 2.815590 2.053008 -3.532731
v 2.816406 2.052154 -3.532408
v 2.817421 2.049670 -3.532831
v 2.818767 2.047922 -3.532496
v 2.820120 2.046474 -3.531980
v 2.821174 2.044920 -3.531826
v 2.821638 2.046385 -3.530514
v 2.820981 2.047903 -3.530294
v 2.819897 2.049653 -3.530365
v 2.818961 2.051846 -3.530032
v 2.819235 2.052949 -3.529120
v 2.820513 2.053002 -3.527812
v 2.823205 2.052355 -3.525494
v 2.822847 2.054193 -3.524788
v 2.823308 2.054186 -3.524331
v 2.824247 2.053380 -3.523858
v 2.825360 2.052800 -3.523081
v 2.826720 2.052459 -3.521919
v 2.828077 2.051703 -3.520999
v 2.828991 2.050511 -3.520774
vn 0.6547 0.3785 -0.6543
vn 0.6545 0.3786 -0.6545
vn 0.6544 0.3787 -0.6545
vn 0.6549 0.3781 -0.6543
vn 0.6545 0.3785 -0.6545
vn 0.6545 0.3784 -0.6545
vn 0.6544 0.3788 -0.6544
vn 0.6531 0.3786 -0.6558
vn 0.6545 0.3787 -0.6544
vn 0.6546 0.3788 -0.6542
vn 0.6545 0.3787 -0.6545
vn 0.6549 0.3793 -0.6536
vn 0.6541 0.3784 -0.6550
vn 0.6545 0.3786 -0.6544
vn 0.6544 0.3791 -0.6542
vn 0.6544 0.3786 -0.6545
vn 0.6555 0.3775 -0.6541
vn 0.6544 0.3789 -0.6543
vn 0.6541 0.3783 -0.6551
vn 0.6564 0.3793 -0.6522
vn 0.6549 0.3784 -0.6541
vn 0.6546 0.3777 -0.6548
vn 0.6545 0.3788 -0.6543
vn 0.6541 0.3798 -0.6542
vn 0.6542 0.3785 -0.6548
vn 0.6540 0.3790 -0.6547
vn 0.6541 0.3789 -0.6546
vn 0.6550 0.3786 -0.6540
vn 0.6545 0.3789 -0.6543
vn 0.6546 0.3785 -0.6544
vn 0.6544 0.3788 -0.6545
vn 0.6544 0.3787 -0.6544
vn 0.6541 0.3791 -0.6545
vn 0.6549 0.3794 -0.6536
vn 0.6548 0.3783 -0.6543
vn 0.6546 0.3789 -0.6542
vn 0.6544 0.3781 -0.6548
vn 0.6542 0.3786 -0.6548
vn 0.6547 0.3788 -0.6541
vn 0.6542 0.3789 -0.6546
vn 0.6544 0.3786 -0.6546
vn 0.6546 0.3786 -0.6544
vn 0.6542 0.3788 -0.6546
vn 0.6545 0.3785 -0.6544
vn 0.6549 0.3784 -0.6542
vn 0.6542 0.3788 -0.6547
vn 0.6542 0.3783 -0.6549
vn 0.6540 0.3789 -0.6547
vn 0.6543 0.3787 -0.6545
vn 0.6543 0.3785 -0.6546
vn 0.6546 0.3787 -0.6542
vn 0.6541 0.3787 -0.6548
vn 0.6551 0.3788 -0.6537
vn 0.6542 0.3786 -0.6547
vn 0.6543 0.3789 -0.6545
vn 0.6546 0.3784 -0.6545
vn 0.6551 0.3785 -0.6539
vn 0.6542 0.3784 -0.6549
vn 0.6545 0.3790 -0.6543
vn 0.6543 0.3786 -0.6547
vn 0.6540 0.3795 -0.6544
vn 0.6543 0.3785 -0.6547
vn 0.6549 0.3789 -0.6539
vn 0.6549 0.3782 -0.6542
vn 0.6547 0.3787 -0.6542
vn 0.6545 0.3783 -0.6545
vn 0.6543 0.3790 -0.6543
vn 0.6545 0.3788 -0.6544
vn 0.6544 0.3790 -0.6544
vn 0.6543 0.3788 -0.6545
vn 0.6542 0.3787 -0.6547
vn 0.6548 0.3780 -0.6545
vn 0.6546 0.3782 -0.6546
vn 0.6544 0.3789 -0.6544
vn 0.6546 0.3787 -0.6543
vn 0.6541 0.3786 -0.6549
vn 0.6548 0.3786 -0.6542
vn 0.6543 0.3787 -0.6546
vn 0.6541 0.3788 -0.6547
vn 0.6540 0.3794 -0.6545
vn 0.6546 0.3788 -0.6543
vn 0.6549 0.3786 -0.6541
vn 0.6545 0.3789 -0.6542
vn 0.6546 0.3786 -0.6543
vn 0.6543 0.3777 -0.6551
vn 0.6545 0.3792 -0.6541
vn 0.6532 0.3781 -0.6560
vn 0.6539 0.3789 -0.6549
vn 0.6540 0.3801 -0.6540
vn 0.6543 0.3786 -0.6546
vn 0.6547 0.3786 -0.6543
vn 0.6547 0.3786 -0.6542
vn 0.6536 0.3793 -0.6549
vn 0.6546 0.3780 -0.6546
vn 0.6505 0.3832 -0.6558
vn 0.6547 0.3791 -0.6539
vn 0.6549 0.3787 -0.6540
usemtl None
s off
f 81//1 103//1 102//1
f 201//2 200//2 193//2
f 200//3 199//3 194//3
f 193//4 200//4 194//4
f 199//2 198//2 194//2
f 198//5 197//5 194//5
f 197//6 196//6 195//6
f 197//7 195//7 194//7
f 203//7 202//7 201//7
f 205//2 204//2 203//2
f 208//8 207//8 206//8
f 206//9 205//9 203//9
f 203//10 201//10 206//10
f 201//11 193//11 206//11
f 208//12 206//12 209//12
f 209//13 206//13 210//13
f 193//3 192//3 18//3
f 191//14 190//14 186//14
f 190//15 189//15 187//15
f 206//3 193//3 210//3
f 210//2 193//2 18//2
f 190//16 187//16 186//16
f 189//17 188//17 187//17
f 192//18 191//18 40//18
f 18//11 192//11 24//11
f 211//9 210//9 13//9
f 214//19 213//19 215//19
f 213//20 212//20 215//20
f 212//21 211//21 215//21
f 210//2 18//2 17//2
f 215//22 233//22 232//22
f 191//2 186//2 70//2
f 186//23 185//23 79//23
f 191//24 70//24 69//24
f 184//25 183//25 181//25
f 183//26 182//26 181//26
f 233//3 215//3 211//3
f 233//2 211//2 12//2
f 185//27 184//27 180//27
f 184//16 181//16 180//16
f 218//28 217//28 216//28
f 216//18 215//18 232//18
f 216//16 232//16 229//16
f 218//14 216//14 229//14
f 218//29 229//29 219//29
f 220//30 219//30 229//30
f 222//16 221//16 227//16
f 221//16 220//16 228//16
f 225//14 224//14 223//14
f 223//10 222//10 226//10
f 221//3 228//3 227//3
f 228//31 220//31 229//31
f 226//32 225//32 223//32
f 227//2 226//2 222//2
f 229//33 232//33 230//33
f 232//7 231//7 230//7
f 210//11 17//11 13//11
f 235//34 234//34 233//34
f 24//3 192//3 25//3
f 185//2 180//2 81//2
f 236//35 235//35 233//35
f 236//11 233//11 12//11
f 12//9 211//9 13//9
f 179//36 178//36 177//36
f 237//2 236//2 12//2
f 180//37 179//37 177//37
f 177//9 176//9 173//9
f 176//38 175//38 174//38
f 173//39 176//39 174//39
f 173//14 172//14 177//14
f 172//14 171//14 177//14
f 177//14 171//14 180//14
f 171//3 170//3 180//3
f 238//23 237//23 11//23
f 2//40 1//40 238//40
f 237//2 12//2 11//2
f 180//9 170//9 81//9
f 2//41 238//41 4//41
f 4//30 3//30 2//30
f 6//9 5//9 7//9
f 5//42 4//42 7//42
f 10//2 4//2 11//2
f 8//9 7//9 9//9
f 9//9 7//9 10//9
f 10//3 7//3 4//3
f 11//3 4//3 238//3
f 40//2 191//2 69//2
f 15//43 14//43 16//43
f 14//44 13//44 16//44
f 16//30 13//30 17//30
f 70//2 186//2 78//2
f 78//3 186//3 79//3
f 21//9 20//9 19//9
f 19//45 18//45 22//45
f 21//9 19//9 22//9
f 18//46 24//46 22//46
f 24//30 23//30 22//30
f 27//47 26//47 25//47
f 25//2 192//2 40//2
f 27//48 25//48 28//48
f 28//9 25//9 40//9
f 170//49 169//49 160//49
f 31//14 30//14 39//14
f 30//9 29//9 40//9
f 39//41 30//41 40//41
f 29//42 28//42 40//42
f 168//16 167//16 166//16
f 168//50 166//50 165//50
f 165//3 164//3 163//3
f 165//16 163//16 162//16
f 168//51 165//51 162//51
f 168//52 162//52 161//52
f 169//53 168//53 161//53
f 169//54 161//54 160//54
f 32//14 31//14 39//14
f 34//9 33//9 32//9
f 36//55 35//55 34//55
f 39//43 38//43 37//43
f 37//56 36//56 34//56
f 34//32 32//32 37//32
f 37//14 32//14 39//14
f 170//16 160//16 159//16
f 170//57 159//57 158//57
f 170//2 139//2 104//2
f 139//2 170//2 140//2
f 158//58 157//58 141//58
f 42//32 41//32 66//32
f 41//14 40//14 68//14
f 66//5 41//5 67//5
f 44//32 43//32 65//32
f 43//42 42//42 66//42
f 65//14 43//14 66//14
f 45//6 44//6 65//6
f 45//59 65//59 64//59
f 170//32 158//32 140//32
f 46//9 45//9 64//9
f 157//60 156//60 149//60
f 155//16 154//16 151//16
f 154//61 153//61 152//61
f 154//62 152//62 151//62
f 151//1 150//1 155//1
f 150//3 149//3 156//3
f 149//63 148//63 146//63
f 148//64 147//64 146//64
f 146//65 145//65 149//65
f 145//66 144//66 143//66
f 142//67 145//67 143//67
f 142//68 141//68 157//68
f 145//5 142//5 149//5
f 155//69 150//69 156//69
f 149//16 142//16 157//16
f 141//65 140//65 158//65
f 50//16 49//16 51//16
f 49//30 48//30 52//30
f 52//32 51//32 49//32
f 53//70 52//70 48//70
f 54//9 53//9 47//9
f 53//71 48//71 47//71
f 57//72 56//72 58//72
f 56//23 55//23 59//23
f 58//73 56//73 59//73
f 55//74 54//74 62//74
f 54//32 47//32 63//32
f 54//2 63//2 62//2
f 47//23 46//23 63//23
f 61//42 60//42 59//42
f 63//3 46//3 64//3
f 79//2 185//2 81//2
f 59//3 55//3 62//3
f 62//75 61//75 59//75
f 139//14 138//14 105//14
f 137//42 136//42 134//42
f 136//70 135//70 134//70
f 138//76 137//76 133//76
f 138//3 133//3 121//3
f 137//9 134//9 133//9
f 67//32 41//32 68//32
f 132//2 131//2 129//2
f 131//77 130//77 129//77
f 133//3 132//3 127//3
f 129//7 128//7 127//7
f 126//68 125//68 124//68
f 129//2 127//2 132//2
f 127//78 126//78 122//78
f 69//79 68//79 40//79
f 72//80 71//80 70//80
f 81//11 170//11 104//11
f 104//31 139//31 105//31
f 126//81 124//81 122//81
f 124//82 123//82 122//82
f 74//83 73//83 77//83
f 73//84 72//84 77//84
f 76//85 75//85 74//85
f 77//59 76//59 74//59
f 72//50 70//50 78//50
f 77//32 72//32 78//32
f 127//16 122//16 133//16
f 122//86 121//86 133//86
f 121//78 120//78 116//78
f 120//6 119//6 117//6
f 119//41 118//41 117//41
f 117//2 116//2 120//2
f 115//87 114//87 113//87
f 115//88 113//88 111//88
f 113//84 112//84 111//84
f 121//2 116//2 138//2
f 116//35 115//35 111//35
f 110//14 109//14 106//14
f 109//3 108//3 106//3
f 116//48 111//48 110//48
f 81//89 80//89 79//89
f 83//2 82//2 85//2
f 82//32 81//32 86//32
f 85//90 82//90 86//90
f 85//91 84//91 83//91
f 87//92 86//92 89//92
f 89//9 86//9 81//9
f 89//93 88//93 87//93
f 116//16 110//16 105//16
f 108//9 107//9 106//9
f 105//11 138//11 116//11
f 90//94 89//94 102//94
f 89//3 81//3 102//3
f 93//95 92//95 91//95
f 91//96 90//96 102//96
f 110//7 106//7 105//7
f 93//5 91//5 95//5
f 95//40 94//40 93//40
f 98//16 97//16 99//16
f 97//52 96//52 99//52
f 96//23 95//23 101//23
f 102//16 95//16 91//16
f 81//43 104//43 103//43
f 95//74 102//74 101//74
f 101//90 100//90 96//90
f 100//97 99//97 96//97
