# Blender v2.81 (sub 16) OBJ File: ''
# www.blender.org
mtllib Rwanda.mtl
o 0_Rwanda_sphere.001
v 4.301586 -0.157056 -2.543945
v 4.302401 -0.116901 -2.544428
v 4.364367 -0.157056 -2.433878
v 4.290998 -0.157056 -2.561224
v 4.368476 -0.235535 -2.420452
v 4.367262 -0.235535 -2.422582
v 4.354406 -0.235535 -2.445121
v 4.329783 -0.235535 -2.488289
v 4.299837 -0.208805 -2.542910
v 4.308387 -0.092968 -2.535072
v 4.308712 -0.093685 -2.534468
v 4.309026 -0.094635 -2.533873
v 4.309139 -0.095615 -2.533627
v 4.308980 -0.096556 -2.533863
v 4.308332 -0.097438 -2.534955
v 4.308164 -0.098632 -2.535194
v 4.308245 -0.099143 -2.535027
v 4.308396 -0.099636 -2.534739
v 4.308502 -0.100162 -2.534528
v 4.308419 -0.100682 -2.534649
v 4.308030 -0.101202 -2.535306
v 4.307690 -0.101097 -2.535908
v 4.307415 -0.100794 -2.536403
v 4.307239 -0.100698 -2.536717
v 4.306691 -0.101481 -2.537641
v 4.306497 -0.102023 -2.537955
v 4.306283 -0.104280 -2.538224
v 4.305993 -0.105557 -2.538671
v 4.305153 -0.108199 -2.540016
v 4.304864 -0.109978 -2.540438
v 4.304441 -0.111039 -2.541129
v 4.304339 -0.111753 -2.541274
v 4.304467 -0.112401 -2.541020
v 4.304558 -0.112914 -2.540836
v 4.304591 -0.113564 -2.540747
v 4.304330 -0.114965 -2.541137
v 4.303756 -0.115820 -2.542103
v 4.362851 -0.151723 -2.436789
v 4.361822 -0.148134 -2.438764
v 4.360989 -0.144627 -2.440393
v 4.360497 -0.143078 -2.441328
v 4.358485 -0.139567 -2.445023
v 4.358071 -0.138416 -2.445804
v 4.356989 -0.133468 -2.447937
v 4.356513 -0.132163 -2.448833
v 4.355847 -0.131580 -2.450028
v 4.352541 -0.131298 -2.455838
v 4.352339 -0.131118 -2.456200
v 4.352115 -0.130462 -2.456625
v 4.351339 -0.127799 -2.458112
v 4.349911 -0.124653 -2.460765
v 4.348231 -0.122132 -2.463830
v 4.346554 -0.120904 -2.466829
v 4.344803 -0.121093 -2.469889
v 4.343896 -0.120956 -2.471485
v 4.343096 -0.120513 -2.472911
v 4.342222 -0.119498 -2.474489
v 4.341570 -0.118520 -2.475680
v 4.340859 -0.117758 -2.476962
v 4.339813 -0.117379 -2.478816
v 4.339291 -0.117614 -2.479719
v 4.338343 -0.118748 -2.481327
v 4.338041 -0.118964 -2.481846
v 4.337691 -0.118538 -2.482480
v 4.337463 -0.116810 -2.482960
v 4.337090 -0.115868 -2.483660
v 4.336699 -0.115361 -2.484370
v 4.336328 -0.115135 -2.485032
v 4.335939 -0.115252 -2.485707
v 4.335450 -0.115742 -2.486542
v 4.334155 -0.119322 -2.488643
v 4.333925 -0.121161 -2.488957
v 4.333747 -0.124769 -2.489098
v 4.333289 -0.126626 -2.489812
v 4.332515 -0.128032 -2.491103
v 4.331654 -0.128523 -2.492589
v 4.330748 -0.128325 -2.494186
v 4.329807 -0.127611 -2.495870
v 4.326930 -0.124324 -2.501071
v 4.326486 -0.124136 -2.501859
v 4.326129 -0.122226 -2.502574
v 4.325589 -0.121051 -2.503577
v 4.325368 -0.120809 -2.503975
v 4.324114 -0.119429 -2.506240
v 4.322374 -0.118043 -2.509357
v 4.321920 -0.117157 -2.510194
v 4.321724 -0.115829 -2.510602
v 4.321531 -0.112437 -2.511101
v 4.321247 -0.111244 -2.511658
v 4.320912 -0.110840 -2.512262
v 4.320571 -0.110726 -2.512866
v 4.320227 -0.110674 -2.513472
v 4.319911 -0.110486 -2.514036
v 4.319259 -0.109686 -2.515217
v 4.317408 -0.106002 -2.518637
v 4.316872 -0.104543 -2.519645
v 4.316441 -0.102967 -2.520476
v 4.316370 -0.102388 -2.520628
v 4.316298 -0.101135 -2.520814
v 4.316185 -0.100613 -2.521037
v 4.316041 -0.100369 -2.521300
v 4.315891 -0.100110 -2.521576
v 4.315182 -0.099457 -2.522850
v 4.314926 -0.099017 -2.523320
v 4.314730 -0.097694 -2.523727
v 4.314526 -0.094087 -2.524256
v 4.314188 -0.092846 -2.524907
v 4.313537 -0.092375 -2.526071
v 4.312818 -0.092601 -2.527321
v 4.312070 -0.093041 -2.528611
v 4.311340 -0.093238 -2.529882
v 4.310669 -0.092905 -2.531074
v 4.310113 -0.092396 -2.532072
v 4.309530 -0.092242 -2.533103
v 4.308864 -0.092663 -2.534250
v 4.330124 -0.236934 -2.487536
v 4.330625 -0.238521 -2.486481
v 4.331426 -0.240346 -2.484874
v 4.332196 -0.241317 -2.483417
v 4.333055 -0.241652 -2.481875
v 4.334135 -0.241592 -2.479987
v 4.335131 -0.241003 -2.478306
v 4.335627 -0.241011 -2.477437
v 4.335911 -0.241828 -2.476846
v 4.335969 -0.243670 -2.476541
v 4.336116 -0.244485 -2.476192
v 4.336514 -0.245003 -2.475439
v 4.337472 -0.245249 -2.473730
v 4.338303 -0.244994 -2.472303
v 4.340161 -0.243788 -2.469178
v 4.340641 -0.243478 -2.468371
v 4.340953 -0.243443 -2.467828
v 4.342197 -0.244382 -2.465543
v 4.342502 -0.244781 -2.464963
v 4.342833 -0.245052 -2.464353
v 4.343282 -0.245015 -2.463570
v 4.344222 -0.245267 -2.461896
v 4.344982 -0.246307 -2.460446
v 4.345779 -0.246867 -2.458986
v 4.346840 -0.245713 -2.457255
v 4.348436 -0.245116 -2.454523
v 4.349288 -0.244799 -2.453064
v 4.350056 -0.244978 -2.451698
v 4.351846 -0.246609 -2.448380
v 4.352902 -0.246804 -2.446505
v 4.353363 -0.245133 -2.445884
v 4.353464 -0.244034 -2.445829
v 4.353956 -0.242214 -2.445168
v 4.354098 -0.241196 -2.445032
v 4.353995 -0.240282 -2.445314
v 4.353467 -0.238800 -2.446404
v 4.353417 -0.237803 -2.446603
v 4.353733 -0.236716 -2.446170
v 4.367337 -0.237440 -2.422239
v 4.368062 -0.235941 -2.421133
v 4.301975 -0.117546 -2.545093
v 4.301261 -0.118783 -2.546203
v 4.300828 -0.119268 -2.546889
v 4.297753 -0.121381 -2.551810
v 4.296846 -0.121618 -2.553280
v 4.295933 -0.122640 -2.554723
v 4.295626 -0.124925 -2.555121
v 4.295664 -0.127202 -2.554957
v 4.295788 -0.128233 -2.554708
v 4.296021 -0.128742 -2.554304
v 4.295728 -0.129880 -2.554732
v 4.294930 -0.131807 -2.555947
v 4.294337 -0.132962 -2.556863
v 4.294119 -0.133630 -2.557188
v 4.293612 -0.136774 -2.557874
v 4.293134 -0.138743 -2.558565
v 4.292393 -0.139816 -2.559726
v 4.291316 -0.139015 -2.561519
v 4.290946 -0.140868 -2.562040
v 4.290941 -0.143119 -2.561945
v 4.291404 -0.150021 -2.560878
v 4.291401 -0.150962 -2.560842
v 4.291289 -0.151414 -2.561003
v 4.290858 -0.152605 -2.561652
v 4.290729 -0.153411 -2.561827
v 4.291213 -0.155815 -2.560929
v 4.291034 -0.156737 -2.561180
v 4.300015 -0.208706 -2.542605
v 4.300938 -0.208477 -2.541005
v 4.301736 -0.209473 -2.539527
v 4.303153 -0.209373 -2.537051
v 4.304634 -0.208019 -2.534562
v 4.307104 -0.204140 -2.530540
v 4.307376 -0.203455 -2.530116
v 4.307639 -0.202228 -2.529752
v 4.307860 -0.201749 -2.529404
v 4.308005 -0.201859 -2.529140
v 4.309392 -0.201205 -2.526761
v 4.309608 -0.200988 -2.526399
v 4.310287 -0.201406 -2.525175
v 4.310684 -0.202203 -2.524417
v 4.310846 -0.202679 -2.524094
v 4.311027 -0.203207 -2.523736
v 4.311548 -0.204248 -2.522740
v 4.312146 -0.204892 -2.521639
v 4.312941 -0.205428 -2.520203
v 4.313755 -0.205774 -2.518749
v 4.314451 -0.205840 -2.517523
v 4.314996 -0.205598 -2.516587
v 4.316391 -0.204273 -2.514246
v 4.316897 -0.204176 -2.513367
v 4.317031 -0.204764 -2.513085
v 4.317026 -0.205587 -2.513030
v 4.317094 -0.206202 -2.512861
v 4.318882 -0.211160 -2.509332
v 4.319585 -0.212192 -2.508019
v 4.320551 -0.212260 -2.506320
v 4.321573 -0.211485 -2.504589
v 4.322516 -0.210275 -2.503033
v 4.323272 -0.209021 -2.501807
v 4.324725 -0.205814 -2.499514
v 4.325282 -0.204992 -2.498603
v 4.325787 -0.204640 -2.497745
v 4.326206 -0.204614 -2.497013
v 4.326569 -0.204687 -2.496370
v 4.326908 -0.204588 -2.495784
v 4.327717 -0.203263 -2.494470
v 4.328114 -0.202617 -2.493826
v 4.328471 -0.202220 -2.493230
v 4.328914 -0.202247 -2.492452
v 4.329023 -0.202736 -2.492221
v 4.328992 -0.203551 -2.492212
v 4.329123 -0.208029 -2.491626
v 4.328581 -0.214756 -2.492044
v 4.329295 -0.221364 -2.490268
v 4.329174 -0.230323 -2.489771
v 4.329162 -0.231296 -2.489715
v 4.329328 -0.233219 -2.489271
v 4.329676 -0.235123 -2.488511
v 4.354749 -0.234928 -2.444569
v 4.354952 -0.233667 -2.444310
v 4.354934 -0.232639 -2.444425
v 4.354976 -0.232231 -2.444383
v 4.355536 -0.231438 -2.443465
v 4.356358 -0.230524 -2.442096
v 4.357286 -0.230076 -2.440503
v 4.359125 -0.229607 -2.437317
v 4.360109 -0.229006 -2.435639
v 4.362813 -0.226683 -2.431084
v 4.363525 -0.226473 -2.429851
v 4.366020 -0.226789 -2.425453
v 4.366929 -0.228721 -2.423705
v 4.368979 -0.235048 -2.419611
v 4.370275 -0.234759 -2.417361
v 4.370863 -0.234294 -2.416365
v 4.372543 -0.232157 -2.413590
v 4.372901 -0.231460 -2.413019
v 4.372853 -0.224811 -2.413630
v 4.373213 -0.222781 -2.413160
v 4.373689 -0.221869 -2.412398
v 4.374186 -0.221396 -2.411563
v 4.374588 -0.220862 -2.410901
v 4.374788 -0.219744 -2.410639
v 4.374671 -0.218600 -2.410935
v 4.373973 -0.217253 -2.412266
v 4.374161 -0.216188 -2.412020
v 4.374655 -0.214610 -2.411279
v 4.374876 -0.212878 -2.411027
v 4.375027 -0.211010 -2.410912
v 4.374786 -0.208722 -2.411516
v 4.374218 -0.207669 -2.412595
v 4.373095 -0.206863 -2.414628
v 4.372211 -0.206335 -2.416219
v 4.371499 -0.205445 -2.417539
v 4.370933 -0.204184 -2.418631
v 4.370489 -0.202606 -2.419535
v 4.370209 -0.201307 -2.420127
v 4.370095 -0.200368 -2.420402
v 4.370071 -0.199610 -2.420505
v 4.369657 -0.198772 -2.421298
v 4.369300 -0.198511 -2.421943
v 4.368058 -0.198596 -2.424114
v 4.366176 -0.197572 -2.427496
v 4.364772 -0.195199 -2.430144
v 4.363807 -0.191792 -2.432106
v 4.363271 -0.187653 -2.433375
v 4.363144 -0.184000 -2.433887
v 4.363339 -0.180853 -2.433793
v 4.364946 -0.167123 -2.432065
v 4.365147 -0.163925 -2.431966
v 4.365036 -0.160800 -2.432408
v 4.290549 -0.160238 -2.561717
v 4.290750 -0.161719 -2.561278
v 4.291170 -0.163028 -2.560495
v 4.291380 -0.164374 -2.560050
v 4.290974 -0.165936 -2.560596
v 4.291680 -0.167047 -2.559360
v 4.291940 -0.167616 -2.558893
v 4.292144 -0.168320 -2.558506
v 4.290751 -0.168735 -2.560749
v 4.290533 -0.171047 -2.560930
v 4.290962 -0.176133 -2.559849
v 4.290114 -0.175781 -2.561259
v 4.289257 -0.176566 -2.562598
v 4.288510 -0.177904 -2.563717
v 4.287976 -0.179170 -2.564494
v 4.287502 -0.181710 -2.565075
v 4.288750 -0.191443 -2.562307
v 4.289020 -0.195292 -2.561578
v 4.288624 -0.201274 -2.561774
v 4.288759 -0.203053 -2.561420
v 4.289181 -0.204686 -2.560609
v 4.289750 -0.205506 -2.559618
v 4.290501 -0.206153 -2.558344
v 4.291185 -0.206926 -2.557169
v 4.291815 -0.207221 -2.556119
v 4.292136 -0.207580 -2.555569
v 4.292548 -0.207795 -2.554880
v 4.292927 -0.207622 -2.554275
v 4.295400 -0.205364 -2.550408
v 4.295901 -0.205063 -2.549614
v 4.296491 -0.205215 -2.548639
v 4.296992 -0.205997 -2.547764
v 4.297567 -0.208338 -2.546648
v 4.298055 -0.209156 -2.545791
v 4.299013 -0.209250 -2.544222
vn 0.8684 -0.0237 -0.4953
vn 0.8673 -0.0561 -0.4947
vn 0.8673 -0.0553 -0.4948
vn 0.8524 -0.0236 -0.5223
vn 0.8680 -0.0387 -0.4951
vn 0.8520 -0.0394 -0.5221
vn 0.8684 -0.0236 -0.4953
vn 0.8684 -0.0232 -0.4953
vn 0.8683 -0.0252 -0.4954
vn 0.8683 -0.0239 -0.4954
vn 0.8684 -0.0237 -0.4954
vn 0.8684 -0.0238 -0.4953
vn 0.8684 -0.0240 -0.4952
vn 0.8687 -0.0238 -0.4948
vn 0.8684 -0.0233 -0.4953
vn 0.8680 -0.0228 -0.4960
vn 0.8681 -0.0238 -0.4958
vn 0.8686 -0.0218 -0.4951
vn 0.8684 -0.0235 -0.4953
vn 0.8684 -0.0240 -0.4953
vn 0.8677 -0.0187 -0.4968
vn 0.8682 -0.0231 -0.4956
vn 0.8684 -0.0241 -0.4952
vn 0.8687 -0.0217 -0.4949
vn 0.8685 -0.0234 -0.4952
vn 0.8687 -0.0204 -0.4950
vn 0.8683 -0.0236 -0.4954
vn 0.8684 -0.0239 -0.4954
vn 0.8684 -0.0230 -0.4953
vn 0.8688 -0.0236 -0.4946
vn 0.8685 -0.0237 -0.4951
vn 0.8684 -0.0248 -0.4953
vn 0.8682 -0.0219 -0.4958
vn 0.8684 -0.0234 -0.4953
vn 0.8685 -0.0199 -0.4953
vn 0.8684 -0.0239 -0.4953
vn 0.8683 -0.0249 -0.4954
vn 0.8685 -0.0225 -0.4952
vn 0.8682 -0.0232 -0.4957
vn 0.8689 -0.0232 -0.4944
vn 0.8685 -0.0232 -0.4951
vn 0.8682 -0.0237 -0.4956
vn 0.8681 -0.0229 -0.4958
vn 0.8685 -0.0240 -0.4951
vn 0.8686 -0.0235 -0.4950
vn 0.8685 -0.0232 -0.4952
vn 0.8685 -0.0238 -0.4952
vn 0.8683 -0.0238 -0.4954
vn 0.8684 -0.0236 -0.4954
vn 0.8685 -0.0240 -0.4950
vn 0.8682 -0.0238 -0.4956
vn 0.8683 -0.0234 -0.4955
vn 0.8684 -0.0235 -0.4952
vn 0.8685 -0.0233 -0.4951
vn 0.8681 -0.0242 -0.4958
vn 0.8685 -0.0227 -0.4952
vn 0.8683 -0.0236 -0.4955
vn 0.8685 -0.0228 -0.4952
vn 0.8681 -0.0282 -0.4956
vn 0.8683 -0.0217 -0.4955
vn 0.8684 -0.0235 -0.4954
vn 0.8683 -0.0237 -0.4955
vn 0.8690 -0.0244 -0.4943
vn 0.8683 -0.0243 -0.4954
vn 0.8671 -0.0220 -0.4977
vn 0.8678 -0.0234 -0.4964
vn 0.8684 -0.0249 -0.4952
vn 0.8685 -0.0221 -0.4952
vn 0.8683 -0.0233 -0.4955
vn 0.8687 -0.0252 -0.4948
vn 0.8685 -0.0233 -0.4952
vn 0.8684 -0.0241 -0.4953
vn 0.8684 -0.0231 -0.4953
vn 0.8686 -0.0227 -0.4949
vn 0.8683 -0.0241 -0.4955
vn 0.8685 -0.0248 -0.4951
vn 0.8684 -0.0223 -0.4953
vn 0.8678 -0.0244 -0.4963
vn 0.8673 -0.0548 -0.4947
vn 0.8673 -0.0544 -0.4948
vn 0.8673 -0.0552 -0.4947
vn 0.8676 -0.0558 -0.4941
vn 0.8673 -0.0543 -0.4948
vn 0.8674 -0.0551 -0.4946
vn 0.8672 -0.0544 -0.4949
vn 0.8673 -0.0546 -0.4949
vn 0.8673 -0.0558 -0.4947
vn 0.8674 -0.0550 -0.4946
vn 0.8677 -0.0543 -0.4941
vn 0.8674 -0.0546 -0.4946
vn 0.8676 -0.0553 -0.4942
vn 0.8663 -0.0552 -0.4965
vn 0.8673 -0.0549 -0.4948
vn 0.8673 -0.0546 -0.4948
vn 0.8673 -0.0546 -0.4947
vn 0.8673 -0.0549 -0.4947
vn 0.8671 -0.0553 -0.4951
vn 0.8667 -0.0575 -0.4955
vn 0.8676 -0.0547 -0.4943
vn 0.8671 -0.0569 -0.4949
vn 0.8672 -0.0554 -0.4949
vn 0.8673 -0.0551 -0.4948
vn 0.8673 -0.0559 -0.4946
vn 0.8674 -0.0548 -0.4947
vn 0.8672 -0.0557 -0.4948
vn 0.8674 -0.0546 -0.4947
vn 0.8673 -0.0545 -0.4948
vn 0.8675 -0.0552 -0.4944
vn 0.8667 -0.0567 -0.4956
vn 0.8524 -0.0232 -0.5224
vn 0.8544 -0.0248 -0.5190
vn 0.8521 -0.0238 -0.5228
vn 0.8503 -0.0074 -0.5263
vn 0.8525 -0.0236 -0.5223
vn 0.8524 -0.0237 -0.5223
vn 0.8524 -0.0236 -0.5224
vn 0.8505 -0.0233 -0.5255
vn 0.8523 -0.0237 -0.5226
vn 0.8522 -0.0236 -0.5226
vn 0.8525 -0.0237 -0.5222
vn 0.8524 -0.0234 -0.5224
vn 0.8524 -0.0235 -0.5224
vn 0.8523 -0.0236 -0.5225
vn 0.8525 -0.0235 -0.5222
vn 0.8524 -0.0239 -0.5223
vn 0.8521 -0.0234 -0.5228
vn 0.8523 -0.0231 -0.5225
vn 0.8524 -0.0235 -0.5223
vn 0.8522 -0.0240 -0.5226
vn 0.8524 -0.0237 -0.5224
vn 0.8526 -0.0237 -0.5220
vn 0.8534 -0.0235 -0.5207
vn 0.8523 -0.0235 -0.5225
vn 0.8523 -0.0237 -0.5225
vn 0.8680 -0.0392 -0.4951
vn 0.8694 -0.0370 -0.4927
vn 0.8677 -0.0395 -0.4955
vn 0.8686 -0.0401 -0.4939
vn 0.8680 -0.0393 -0.4951
vn 0.8679 -0.0392 -0.4951
vn 0.8671 -0.0389 -0.4966
vn 0.8673 -0.0394 -0.4963
vn 0.8681 -0.0386 -0.4948
vn 0.8679 -0.0394 -0.4951
vn 0.8679 -0.0392 -0.4952
vn 0.8680 -0.0393 -0.4950
vn 0.8678 -0.0402 -0.4952
vn 0.8681 -0.0393 -0.4949
vn 0.8680 -0.0390 -0.4951
vn 0.8680 -0.0375 -0.4951
vn 0.8681 -0.0397 -0.4948
vn 0.8676 -0.0393 -0.4957
vn 0.8679 -0.0393 -0.4951
vn 0.8680 -0.0395 -0.4950
vn 0.8678 -0.0391 -0.4953
vn 0.8680 -0.0394 -0.4949
vn 0.8680 -0.0393 -0.4949
vn 0.8678 -0.0392 -0.4953
vn 0.8682 -0.0401 -0.4946
vn 0.8678 -0.0390 -0.4953
vn 0.8680 -0.0391 -0.4950
vn 0.8679 -0.0389 -0.4951
vn 0.8680 -0.0396 -0.4950
vn 0.8680 -0.0388 -0.4950
vn 0.8680 -0.0386 -0.4951
vn 0.8679 -0.0398 -0.4952
vn 0.8682 -0.0398 -0.4946
vn 0.8678 -0.0399 -0.4952
vn 0.8678 -0.0383 -0.4954
vn 0.8679 -0.0390 -0.4951
vn 0.8679 -0.0396 -0.4951
vn 0.8680 -0.0391 -0.4951
vn 0.8683 -0.0392 -0.4945
vn 0.8679 -0.0391 -0.4952
vn 0.8680 -0.0388 -0.4951
vn 0.8678 -0.0384 -0.4954
vn 0.8678 -0.0388 -0.4954
vn 0.8681 -0.0416 -0.4947
vn 0.8681 -0.0345 -0.4953
vn 0.8683 -0.0403 -0.4945
vn 0.8679 -0.0416 -0.4951
vn 0.8677 -0.0369 -0.4958
vn 0.8681 -0.0395 -0.4948
vn 0.8682 -0.0395 -0.4947
vn 0.8679 -0.0368 -0.4954
vn 0.8681 -0.0390 -0.4949
vn 0.8680 -0.0386 -0.4950
vn 0.8680 -0.0395 -0.4951
vn 0.8679 -0.0436 -0.4948
vn 0.8681 -0.0381 -0.4950
vn 0.8687 -0.0384 -0.4939
vn 0.8685 -0.0384 -0.4941
vn 0.8678 -0.0382 -0.4954
vn 0.8680 -0.0406 -0.4949
vn 0.8680 -0.0382 -0.4951
vn 0.8679 -0.0402 -0.4951
vn 0.8679 -0.0399 -0.4951
vn 0.8682 -0.0374 -0.4947
vn 0.8670 -0.0383 -0.4968
vn 0.8520 -0.0393 -0.5221
vn 0.8520 -0.0394 -0.5220
vn 0.8519 -0.0392 -0.5222
vn 0.8519 -0.0393 -0.5222
vn 0.8520 -0.0392 -0.5221
vn 0.8520 -0.0374 -0.5222
vn 0.8518 -0.0396 -0.5223
vn 0.8518 -0.0393 -0.5224
vn 0.8520 -0.0391 -0.5221
vn 0.8520 -0.0397 -0.5221
vn 0.8521 -0.0394 -0.5220
vn 0.8513 -0.0394 -0.5232
vn 0.8521 -0.0398 -0.5219
vn 0.8518 -0.0397 -0.5224
vn 0.8520 -0.0335 -0.5224
vn 0.8519 -0.0391 -0.5222
vn 0.8520 -0.0395 -0.5220
vn 0.8519 -0.0392 -0.5223
vn 0.8520 -0.0377 -0.5222
vn 0.8519 -0.0388 -0.5223
vn 0.8520 -0.0392 -0.5220
vn 0.8517 -0.0394 -0.5226
vn 0.8517 -0.0397 -0.5225
vn 0.8520 -0.0390 -0.5220
vn 0.8520 -0.0402 -0.5220
vn 0.8522 -0.0392 -0.5217
usemtl None
s off
f 88//1 87//1 92//1
f 155//2 6//2 5//2
f 133//3 153//3 137//3
f 170//4 167//4 1//4
f 207//5 206//5 216//5
f 309//6 305//6 315//6
f 3//7 1//7 76//7
f 1//7 2//7 37//7
f 1//7 37//7 36//7
f 39//8 38//8 48//8
f 38//7 3//7 76//7
f 41//9 40//9 42//9
f 40//10 39//10 42//10
f 76//11 1//11 77//11
f 1//7 36//7 86//7
f 77//12 1//12 78//12
f 36//13 35//13 95//13
f 78//7 1//7 80//7
f 35//14 34//14 30//14
f 80//7 1//7 85//7
f 34//15 33//15 30//15
f 33//16 32//16 31//16
f 30//13 29//13 28//13
f 33//17 31//17 30//17
f 45//18 44//18 46//18
f 44//7 43//7 47//7
f 47//19 46//19 44//19
f 47//20 43//20 42//20
f 48//21 47//21 42//21
f 30//22 28//22 35//22
f 35//7 28//7 96//7
f 27//23 26//23 22//23
f 26//24 25//24 22//24
f 28//25 27//25 21//25
f 48//7 42//7 39//7
f 51//19 50//19 54//19
f 50//7 49//7 54//7
f 49//26 48//26 55//26
f 54//27 49//27 55//27
f 53//28 52//28 54//28
f 52//29 51//29 54//29
f 25//30 24//30 23//30
f 22//31 25//31 23//31
f 55//19 48//19 75//19
f 55//12 75//12 74//12
f 56//32 55//32 74//32
f 28//7 21//7 96//7
f 27//33 22//33 21//33
f 57//34 56//34 63//34
f 57//35 63//35 62//35
f 59//36 58//36 62//36
f 58//20 57//20 62//20
f 61//37 60//37 59//37
f 62//7 61//7 59//7
f 21//38 20//38 96//38
f 63//34 56//34 74//34
f 18//39 17//39 15//39
f 17//40 16//40 15//40
f 15//41 14//41 18//41
f 19//42 18//42 14//42
f 19//7 14//7 105//7
f 14//43 13//43 111//43
f 105//44 111//44 110//44
f 11//45 10//45 115//45
f 115//46 114//46 11//46
f 114//47 113//47 12//47
f 114//48 12//48 11//48
f 113//49 112//49 12//49
f 13//50 12//50 112//50
f 112//51 111//51 13//51
f 110//52 109//52 105//52
f 109//53 108//53 106//53
f 109//54 106//54 105//54
f 108//55 107//55 106//55
f 14//19 111//19 105//19
f 20//56 19//56 104//56
f 64//36 63//36 73//36
f 73//57 63//57 74//57
f 66//13 65//13 70//13
f 65//58 64//58 70//58
f 68//59 67//59 69//59
f 67//7 66//7 70//7
f 70//60 69//60 67//60
f 72//7 71//7 64//7
f 71//12 70//12 64//12
f 73//61 72//61 64//61
f 19//20 105//20 104//20
f 103//62 102//62 98//62
f 102//63 101//63 98//63
f 20//64 104//64 103//64
f 101//65 100//65 99//65
f 98//66 101//66 99//66
f 20//7 103//7 97//7
f 97//67 103//67 98//67
f 75//7 48//7 38//7
f 76//29 75//29 38//29
f 20//8 97//8 96//8
f 80//68 79//68 78//68
f 85//69 1//69 86//69
f 86//7 36//7 94//7
f 96//1 95//1 35//1
f 95//49 94//49 36//49
f 82//70 81//70 83//70
f 81//71 80//71 83//71
f 85//72 84//72 80//72
f 84//73 83//73 80//73
f 94//74 93//74 87//74
f 86//75 94//75 87//75
f 92//76 91//76 88//76
f 91//77 90//77 88//77
f 93//46 92//46 87//46
f 90//78 89//78 88//78
f 155//79 154//79 6//79
f 8//79 7//79 123//79
f 7//80 153//80 132//80
f 123//81 7//81 132//81
f 153//82 152//82 141//82
f 117//83 116//83 122//83
f 116//84 8//84 122//84
f 119//85 118//85 120//85
f 118//86 117//86 120//86
f 121//87 120//87 117//87
f 122//88 121//88 117//88
f 123//89 132//89 131//89
f 152//90 151//90 143//90
f 151//91 150//91 148//91
f 150//92 149//92 148//92
f 148//93 147//93 151//93
f 147//94 146//94 144//94
f 146//95 145//95 144//95
f 144//96 143//96 147//96
f 122//97 8//97 123//97
f 151//96 147//96 143//96
f 143//93 142//93 152//93
f 126//98 125//98 127//98
f 125//99 124//99 128//99
f 124//100 123//100 130//100
f 132//83 153//83 133//83
f 142//101 141//101 152//101
f 140//102 139//102 138//102
f 141//103 140//103 137//103
f 125//104 128//104 127//104
f 123//105 131//105 130//105
f 130//106 129//106 124//106
f 129//85 128//85 124//85
f 141//88 137//88 153//88
f 140//96 138//96 137//96
f 137//107 136//107 133//107
f 136//108 135//108 134//108
f 136//109 134//109 133//109
f 1//110 4//110 181//110
f 4//111 182//111 181//111
f 181//112 180//112 179//112
f 156//113 2//113 157//113
f 2//114 1//114 157//114
f 1//115 181//115 177//115
f 181//116 179//116 178//116
f 181//117 178//117 177//117
f 158//118 157//118 1//118
f 161//119 160//119 162//119
f 160//120 159//120 162//120
f 159//121 158//121 165//121
f 158//116 1//116 165//116
f 176//122 175//122 172//122
f 175//123 174//123 172//123
f 1//124 177//124 176//124
f 163//125 162//125 159//125
f 165//126 164//126 163//126
f 165//127 163//127 159//127
f 1//128 176//128 171//128
f 174//129 173//129 172//129
f 176//130 172//130 171//130
f 166//121 165//121 1//121
f 170//131 169//131 167//131
f 169//132 168//132 167//132
f 1//133 171//133 170//133
f 167//134 166//134 1//134
f 7//135 8//135 238//135
f 8//136 234//136 231//136
f 238//135 8//135 231//135
f 234//137 233//137 231//137
f 233//138 232//138 231//138
f 231//139 230//139 238//139
f 230//140 229//140 228//140
f 228//139 227//139 226//139
f 235//141 7//141 236//141
f 237//142 7//142 238//142
f 237//143 236//143 7//143
f 230//139 228//139 238//139
f 238//144 228//144 239//144
f 228//139 226//139 280//139
f 239//135 228//135 280//135
f 240//145 239//145 280//145
f 240//146 280//146 279//146
f 226//144 225//144 282//144
f 240//139 279//139 241//139
f 243//147 242//147 241//147
f 279//139 243//139 241//139
f 243//139 279//139 244//139
f 244//140 279//140 278//140
f 244//148 278//148 245//148
f 245//135 278//135 270//135
f 246//145 245//145 270//145
f 246//149 260//149 254//149
f 5//150 6//150 248//150
f 6//135 247//135 248//135
f 250//151 249//151 247//151
f 249//140 248//140 247//140
f 252//152 251//152 253//152
f 251//153 250//153 253//153
f 250//139 247//139 253//139
f 247//139 246//139 253//139
f 254//154 253//154 246//154
f 260//139 246//139 269//139
f 257//155 256//155 258//155
f 256//153 255//153 260//153
f 255//146 254//146 260//146
f 269//156 246//156 270//156
f 256//157 260//157 259//157
f 259//158 258//158 256//158
f 263//159 262//159 261//159
f 261//160 260//160 268//160
f 263//161 261//161 267//161
f 260//162 269//162 268//162
f 265//158 264//158 266//158
f 264//163 263//163 267//163
f 267//164 266//164 264//164
f 268//144 267//144 261//144
f 270//156 278//156 277//156
f 271//165 270//165 277//165
f 225//166 224//166 1//166
f 272//167 271//167 277//167
f 273//168 272//168 277//168
f 275//169 274//169 273//169
f 277//170 276//170 273//170
f 276//171 275//171 273//171
f 280//135 226//135 281//135
f 281//139 226//139 282//139
f 282//172 225//172 283//172
f 283//135 225//135 3//135
f 3//135 225//135 1//135
f 285//139 284//139 3//139
f 284//158 283//158 3//158
f 3//154 286//154 285//154
f 183//173 9//173 1//173
f 186//171 185//171 184//171
f 184//174 183//174 191//174
f 183//135 1//135 191//135
f 186//175 184//175 187//175
f 188//176 187//176 190//176
f 190//153 187//153 184//153
f 190//177 189//177 188//177
f 193//178 192//178 191//178
f 194//179 193//179 191//179
f 191//180 190//180 184//180
f 1//139 224//139 206//139
f 224//181 223//181 206//181
f 222//182 221//182 220//182
f 223//183 222//183 218//183
f 194//139 191//139 1//139
f 223//5 218//5 206//5
f 222//184 220//184 219//184
f 222//185 219//185 218//185
f 195//186 194//186 1//186
f 196//187 195//187 205//187
f 195//135 1//135 206//135
f 218//188 217//188 206//188
f 197//189 196//189 201//189
f 195//190 206//190 205//190
f 199//191 198//191 200//191
f 198//192 197//192 200//192
f 201//193 200//193 197//193
f 203//194 202//194 204//194
f 202//162 201//162 205//162
f 204//195 202//195 205//195
f 216//139 215//139 207//139
f 215//5 214//5 207//5
f 217//196 216//196 206//196
f 205//144 201//144 196//144
f 214//197 213//197 210//197
f 207//163 214//163 209//163
f 213//153 212//153 210//153
f 212//198 211//198 210//198
f 210//172 209//172 214//172
f 209//199 208//199 207//199
f 1//200 9//200 317//200
f 9//201 321//201 318//201
f 321//202 320//202 319//202
f 321//203 319//203 318//203
f 4//204 1//204 289//204
f 9//205 318//205 317//205
f 288//206 287//206 4//206
f 289//207 288//207 4//207
f 1//200 317//200 297//200
f 294//208 1//208 297//208
f 290//209 289//209 1//209
f 292//210 291//210 290//210
f 293//211 292//211 290//211
f 1//212 294//212 293//212
f 317//213 316//213 303//213
f 315//208 314//208 311//208
f 314//214 313//214 312//214
f 293//208 290//208 1//208
f 296//215 295//215 294//215
f 314//216 312//216 311//216
f 311//217 310//217 309//217
f 297//200 317//200 303//200
f 297//200 296//200 294//200
f 299//218 298//218 297//218
f 301//219 300//219 297//219
f 300//200 299//200 297//200
f 303//203 302//203 297//203
f 302//220 301//220 297//220
f 306//221 305//221 308//221
f 305//208 304//208 315//208
f 308//222 305//222 309//222
f 304//223 303//223 316//223
f 316//224 315//224 304//224
f 315//200 311//200 309//200
f 308//225 307//225 306//225
