# Blender v2.81 (sub 16) OBJ File: ''
# www.blender.org
mtllib Rwanda.mtl
o 0_Rwanda_sphere.001
v 4.251436 -0.064946 -2.522826
v 4.251780 -0.065860 -2.521996
v 4.252091 -0.067086 -2.521174
v 4.252157 -0.068359 -2.520827
v 4.251890 -0.069599 -2.521138
v 4.251039 -0.070792 -2.522604
v 4.250746 -0.072362 -2.522912
v 4.250807 -0.073029 -2.522677
v 4.250957 -0.073664 -2.522275
v 4.251048 -0.074343 -2.521979
v 4.250906 -0.075037 -2.522139
v 4.250393 -0.075737 -2.523026
v 4.249987 -0.075620 -2.523844
v 4.249676 -0.075238 -2.524519
v 4.249468 -0.075120 -2.524947
v 4.248744 -0.076180 -2.526186
v 4.248467 -0.076902 -2.526605
v 4.248034 -0.079874 -2.526946
v 4.247590 -0.081563 -2.527531
v 4.246371 -0.085081 -2.529320
v 4.245882 -0.087438 -2.529876
v 4.245288 -0.088856 -2.530798
v 4.245112 -0.089799 -2.530983
v 4.245217 -0.090650 -2.530631
v 4.245290 -0.091321 -2.530372
v 4.245278 -0.092176 -2.530249
v 4.244856 -0.094042 -2.530759
v 4.244092 -0.095194 -2.532061
v 4.242438 -0.096678 -2.535053
v 4.241822 -0.097563 -2.536111
v 4.240909 -0.099247 -2.537613
v 4.240379 -0.099914 -2.538540
v 4.236713 -0.102901 -2.545223
v 4.235667 -0.103271 -2.547212
v 4.234551 -0.104676 -2.549163
v 4.234020 -0.107708 -2.549686
v 4.233880 -0.110714 -2.549446
v 4.233937 -0.112072 -2.549101
v 4.234160 -0.112732 -2.548550
v 4.233735 -0.114252 -2.549124
v 4.232677 -0.116851 -2.550757
v 4.231910 -0.118411 -2.551995
v 4.231611 -0.119307 -2.552427
v 4.230780 -0.123502 -2.553339
v 4.230075 -0.126141 -2.554271
v 4.229151 -0.127597 -2.555837
v 4.228002 -0.126578 -2.558266
v 4.227433 -0.129053 -2.558959
v 4.227240 -0.132049 -2.558825
v 4.227189 -0.141241 -2.557351
v 4.227109 -0.142499 -2.557292
v 4.226942 -0.143107 -2.557515
v 4.226357 -0.144715 -2.558388
v 4.226144 -0.145795 -2.558621
v 4.226490 -0.149010 -2.557392
v 4.226212 -0.150251 -2.557725
v 4.225432 -0.154973 -2.558448
v 4.225563 -0.156965 -2.557850
v 4.225956 -0.158724 -2.556777
v 4.226107 -0.160538 -2.556170
v 4.225547 -0.162652 -2.556907
v 4.226276 -0.164148 -2.555219
v 4.226537 -0.164916 -2.554577
v 4.226720 -0.165868 -2.554054
v 4.225115 -0.166440 -2.557107
v 4.224719 -0.169571 -2.557348
v 4.224877 -0.176469 -2.555856
v 4.223937 -0.175990 -2.557783
v 4.222915 -0.177056 -2.559608
v 4.221982 -0.178868 -2.561129
v 4.221292 -0.180584 -2.562187
v 4.220593 -0.184029 -2.562970
v 4.221369 -0.197306 -2.559174
v 4.221421 -0.202576 -2.558168
v 4.220579 -0.210770 -2.558419
v 4.220615 -0.213219 -2.557927
v 4.220985 -0.215481 -2.556815
v 4.221584 -0.216629 -2.555444
v 4.222397 -0.217550 -2.553689
v 4.223127 -0.218644 -2.552070
v 4.223832 -0.219074 -2.550612
v 4.224177 -0.219583 -2.549848
v 4.224632 -0.219897 -2.548901
v 4.225079 -0.219673 -2.548062
v 4.228071 -0.216642 -2.542710
v 4.228671 -0.216244 -2.541600
v 4.229337 -0.216474 -2.540253
v 4.229866 -0.217578 -2.539026
v 4.230384 -0.220852 -2.537449
v 4.230897 -0.222009 -2.536243
v 4.232001 -0.222178 -2.534049
v 4.233211 -0.221459 -2.531796
v 4.234375 -0.221165 -2.529563
v 4.235307 -0.222576 -2.527491
v 4.237079 -0.222477 -2.524031
v 4.239003 -0.220625 -2.520572
v 4.242321 -0.215275 -2.514976
v 4.242701 -0.214325 -2.514392
v 4.243102 -0.212622 -2.513898
v 4.243409 -0.211960 -2.513409
v 4.243580 -0.212114 -2.513047
v 4.245356 -0.211233 -2.509713
v 4.245641 -0.210935 -2.509203
v 4.246469 -0.211533 -2.507475
v 4.246921 -0.212652 -2.506398
v 4.247096 -0.213322 -2.505939
v 4.247293 -0.214064 -2.505426
v 4.247889 -0.215530 -2.504005
v 4.248605 -0.216445 -2.502442
v 4.249576 -0.217215 -2.500405
v 4.250582 -0.217719 -2.498344
v 4.251456 -0.217829 -2.496610
v 4.252157 -0.217503 -2.495290
v 4.253994 -0.215679 -2.491997
v 4.254642 -0.215554 -2.490748
v 4.254778 -0.216382 -2.490338
v 4.254725 -0.217537 -2.490244
v 4.254778 -0.218401 -2.489993
v 4.256770 -0.225427 -2.484881
v 4.257607 -0.226904 -2.482984
v 4.258832 -0.227028 -2.480558
v 4.260173 -0.225964 -2.478108
v 4.261444 -0.224284 -2.475903
v 4.262475 -0.222535 -2.474179
v 4.264504 -0.218048 -2.470965
v 4.265259 -0.216901 -2.469680
v 4.265925 -0.216417 -2.468455
v 4.266461 -0.216391 -2.467408
v 4.266922 -0.216502 -2.466485
v 4.267363 -0.216371 -2.465641
v 4.268468 -0.214520 -2.463789
v 4.269007 -0.213618 -2.462887
v 4.269490 -0.213066 -2.462031
v 4.270056 -0.213115 -2.460912
v 4.270170 -0.213805 -2.460571
v 4.270088 -0.214955 -2.460536
v 4.270020 -0.221292 -2.459583
v 4.268972 -0.230814 -2.460009
v 4.269544 -0.240240 -2.457274
v 4.268914 -0.253031 -2.456319
v 4.268846 -0.254425 -2.456214
v 4.268957 -0.257185 -2.455523
v 4.269307 -0.259934 -2.454367
v 4.269818 -0.262552 -2.452915
v 4.270413 -0.264847 -2.451354
v 4.271387 -0.267501 -2.448988
v 4.272352 -0.268936 -2.446848
v 4.273458 -0.269467 -2.444586
v 4.274866 -0.269439 -2.441829
v 4.276182 -0.268646 -2.439381
v 4.276831 -0.268691 -2.438099
v 4.277173 -0.269877 -2.437226
v 4.277185 -0.272526 -2.436749
v 4.277352 -0.273709 -2.436218
v 4.277853 -0.274476 -2.435105
v 4.279096 -0.274881 -2.432595
v 4.280190 -0.274567 -2.430503
v 4.282668 -0.272936 -2.425918
v 4.283307 -0.272518 -2.424736
v 4.283716 -0.272484 -2.423938
v 4.285322 -0.273915 -2.420541
v 4.285710 -0.274507 -2.419677
v 4.286137 -0.274915 -2.418772
v 4.286728 -0.274891 -2.417614
v 4.287957 -0.275309 -2.415132
v 4.288926 -0.276859 -2.412965
v 4.289963 -0.277719 -2.410782
v 4.291399 -0.276107 -2.408238
v 4.293531 -0.275339 -2.404186
v 4.294670 -0.274927 -2.402022
v 4.295681 -0.275232 -2.399984
v 4.298014 -0.277709 -2.394982
v 4.299411 -0.278056 -2.392180
v 4.300073 -0.275654 -2.391292
v 4.300245 -0.274066 -2.391226
v 4.300950 -0.271444 -2.390293
v 4.301172 -0.269979 -2.390108
v 4.301062 -0.268645 -2.390553
v 4.300400 -0.266464 -2.392226
v 4.300365 -0.265015 -2.392541
v 4.300818 -0.263454 -2.391919
v 4.302234 -0.260910 -2.389577
v 4.302561 -0.259082 -2.389247
v 4.302581 -0.257586 -2.389465
v 4.302662 -0.256999 -2.389406
v 4.303433 -0.255865 -2.388086
v 4.304574 -0.254575 -2.386070
v 4.305832 -0.253966 -2.383704
v 4.308312 -0.253369 -2.378938
v 4.309657 -0.252539 -2.376442
v 4.313377 -0.249271 -2.369700
v 4.314340 -0.248995 -2.367858
v 4.317687 -0.249569 -2.361190
v 4.318831 -0.252431 -2.358454
v 4.319052 -0.265225 -2.355830
v 4.320071 -0.263071 -2.354198
v 4.321344 -0.261808 -2.351917
v 4.323112 -0.261449 -2.348509
v 4.323931 -0.260797 -2.347013
v 4.326299 -0.257737 -2.342891
v 4.326807 -0.256728 -2.342064
v 4.327006 -0.246967 -2.343347
v 4.327574 -0.244010 -2.342738
v 4.328248 -0.242690 -2.341640
v 4.328950 -0.242022 -2.340376
v 4.329509 -0.241252 -2.339412
v 4.329829 -0.239627 -2.339062
v 4.329713 -0.237948 -2.339576
v 4.328818 -0.235956 -2.341674
v 4.329118 -0.234409 -2.341351
v 4.329843 -0.232118 -2.340321
v 4.330210 -0.229600 -2.340032
v 4.330484 -0.226883 -2.339958
v 4.330250 -0.223545 -2.340989
v 4.329517 -0.221998 -2.342692
v 4.328027 -0.220798 -2.345824
v 4.326860 -0.220009 -2.348248
v 4.325931 -0.218700 -2.350296
v 4.325212 -0.216857 -2.352021
v 4.324681 -0.214565 -2.353457
v 4.324357 -0.212680 -2.354416
v 4.324236 -0.211320 -2.354886
v 4.324231 -0.210224 -2.355083
v 4.323710 -0.209006 -2.356314
v 4.323246 -0.208624 -2.357291
v 4.321570 -0.208722 -2.360562
v 4.319091 -0.207211 -2.365687
v 4.317308 -0.203773 -2.369774
v 4.316166 -0.198874 -2.372855
v 4.315622 -0.192943 -2.374939
v 4.315604 -0.187726 -2.375868
v 4.315996 -0.183242 -2.375866
v 4.318686 -0.163745 -2.373924
v 4.319080 -0.159220 -2.373926
v 4.319057 -0.154808 -2.374727
v 4.318306 -0.149394 -2.377127
v 4.316613 -0.142088 -2.381702
v 4.315457 -0.137094 -2.384824
v 4.314553 -0.132231 -2.387432
v 4.313993 -0.130090 -2.388896
v 4.311557 -0.125278 -2.394503
v 4.311080 -0.123697 -2.395708
v 4.309953 -0.116901 -2.399085
v 4.309406 -0.115121 -2.400463
v 4.308574 -0.114343 -2.402231
v 4.304301 -0.114074 -2.410662
v 4.304052 -0.113832 -2.411191
v 4.303806 -0.112939 -2.411826
v 4.302956 -0.109323 -2.414115
v 4.301299 -0.105081 -2.418093
v 4.299288 -0.101718 -2.422615
v 4.297209 -0.100123 -2.426969
v 4.294959 -0.100454 -2.431328
v 4.293808 -0.100306 -2.433613
v 4.292813 -0.099739 -2.435662
v 4.291763 -0.098402 -2.437951
v 4.290994 -0.097109 -2.439683
v 4.290136 -0.096113 -2.441537
v 4.288831 -0.095645 -2.444178
v 4.288154 -0.095989 -2.445449
v 4.286883 -0.097557 -2.447674
v 4.286479 -0.097866 -2.448413
v 4.286062 -0.097307 -2.449328
v 4.285888 -0.094987 -2.450067
v 4.285475 -0.093736 -2.451092
v 4.285013 -0.093072 -2.452113
v 4.284556 -0.092786 -2.453058
v 4.284059 -0.092960 -2.454003
v 4.283407 -0.093645 -2.455167
v 4.281545 -0.098518 -2.457987
v 4.281133 -0.101008 -2.458369
v 4.280674 -0.105883 -2.458435
v 4.279971 -0.108412 -2.459381
v 4.278902 -0.110343 -2.461149
v 4.277788 -0.111036 -2.463217
v 4.276652 -0.110805 -2.465486
v 4.275518 -0.109873 -2.467870
v 4.272121 -0.105552 -2.475277
v 4.271578 -0.105315 -2.476383
v 4.271262 -0.102763 -2.477440
v 4.270664 -0.101207 -2.478881
v 4.270403 -0.100891 -2.479447
v 4.268934 -0.099097 -2.482637
v 4.266860 -0.097317 -2.487013
v 4.266358 -0.096156 -2.488197
v 4.266206 -0.094390 -2.488799
v 4.266199 -0.089880 -2.489584
v 4.265927 -0.088309 -2.490385
v 4.265544 -0.087784 -2.491227
v 4.265128 -0.087650 -2.492068
v 4.264707 -0.087596 -2.492904
v 4.264326 -0.087363 -2.493690
v 4.263576 -0.086334 -2.495339
v 4.261546 -0.081552 -2.500141
v 4.260993 -0.079649 -2.501554
v 4.260571 -0.077592 -2.502733
v 4.260525 -0.076833 -2.502954
v 4.260526 -0.075188 -2.503234
v 4.260422 -0.074504 -2.503554
v 4.260266 -0.074188 -2.503915
v 4.260098 -0.073858 -2.504302
v 4.259270 -0.073039 -2.506066
v 4.258990 -0.072478 -2.506711
v 4.258842 -0.070751 -2.507298
v 4.258850 -0.066033 -2.508090
v 4.258523 -0.064427 -2.509007
v 4.257762 -0.063852 -2.510599
v 4.256865 -0.064190 -2.512300
v 4.255923 -0.064813 -2.514043
v 4.255013 -0.065119 -2.515776
v 4.254220 -0.064724 -2.517401
v 4.253580 -0.064098 -2.518765
v 4.252881 -0.063931 -2.520166
v 4.252041 -0.064521 -2.521713
vn 0.8883 -0.0775 -0.4526
vn 0.8884 -0.0772 -0.4526
vn 0.8883 -0.0774 -0.4526
vn 0.8883 -0.0773 -0.4527
vn 0.8883 -0.0774 -0.4527
vn 0.8883 -0.0775 -0.4527
vn 0.8883 -0.0776 -0.4527
vn 0.8883 -0.0776 -0.4526
vn 0.8882 -0.0778 -0.4527
vn 0.8883 -0.0777 -0.4526
vn 0.8882 -0.0781 -0.4527
vn 0.8886 -0.0761 -0.4523
vn 0.8884 -0.0792 -0.4523
vn 0.8884 -0.0766 -0.4526
vn 0.8883 -0.0788 -0.4525
vn 0.8884 -0.0769 -0.4527
vn 0.8884 -0.0778 -0.4525
vn 0.8885 -0.0756 -0.4525
vn 0.8882 -0.0787 -0.4527
vn 0.8883 -0.0772 -0.4527
vn 0.8883 -0.0771 -0.4527
vn 0.8883 -0.0778 -0.4526
vn 0.8886 -0.0773 -0.4520
vn 0.8885 -0.0780 -0.4523
vn 0.8882 -0.0779 -0.4527
vn 0.8891 -0.0771 -0.4511
vn 0.8883 -0.0773 -0.4526
vn 0.8885 -0.0739 -0.4529
vn 0.8879 -0.0814 -0.4528
vn 0.8878 -0.0781 -0.4536
vn 0.8882 -0.0774 -0.4528
vn 0.8882 -0.0777 -0.4528
vn 0.8882 -0.0776 -0.4529
vn 0.8885 -0.0774 -0.4523
vn 0.8888 -0.0766 -0.4518
vn 0.8880 -0.0794 -0.4529
vn 0.8884 -0.0776 -0.4525
vn 0.8885 -0.0770 -0.4524
vn 0.8885 -0.0776 -0.4522
vn 0.8885 -0.0752 -0.4527
vn 0.8875 -0.0775 -0.4542
vn 0.8885 -0.0747 -0.4527
vn 0.8883 -0.0769 -0.4527
vn 0.8884 -0.0770 -0.4526
vn 0.8880 -0.0800 -0.4528
vn 0.8884 -0.0775 -0.4525
vn 0.8882 -0.0772 -0.4529
vn 0.8882 -0.0776 -0.4528
vn 0.8877 -0.0783 -0.4538
vn 0.8883 -0.0772 -0.4526
vn 0.8881 -0.0777 -0.4531
vn 0.8882 -0.0793 -0.4526
vn 0.8884 -0.0769 -0.4526
vn 0.8884 -0.0767 -0.4527
vn 0.8884 -0.0773 -0.4525
vn 0.8888 -0.0781 -0.4516
vn 0.8883 -0.0783 -0.4526
vn 0.8889 -0.0778 -0.4514
vn 0.8883 -0.0766 -0.4529
vn 0.8884 -0.0760 -0.4527
vn 0.8885 -0.0766 -0.4525
vn 0.8882 -0.0800 -0.4525
vn 0.8883 -0.0764 -0.4529
vn 0.8883 -0.0780 -0.4526
vn 0.8886 -0.0756 -0.4524
vn 0.8887 -0.0799 -0.4514
vn 0.8884 -0.0777 -0.4525
vn 0.8885 -0.0776 -0.4524
vn 0.8882 -0.0774 -0.4529
vn 0.8883 -0.0801 -0.4523
vn 0.8887 -0.0750 -0.4523
vn 0.8885 -0.0743 -0.4528
vn 0.8884 -0.0767 -0.4526
vn 0.8883 -0.0775 -0.4528
vn 0.8884 -0.0774 -0.4524
vn 0.8886 -0.0777 -0.4521
vn 0.8888 -0.0770 -0.4519
vn 0.8884 -0.0787 -0.4522
vn 0.8882 -0.0779 -0.4529
vn 0.8883 -0.0780 -0.4527
vn 0.8880 -0.0775 -0.4532
vn 0.8882 -0.0773 -0.4529
vn 0.8881 -0.0772 -0.4530
vn 0.8883 -0.0774 -0.4528
vn 0.8880 -0.0774 -0.4532
vn 0.8892 -0.0778 -0.4508
vn 0.8885 -0.0774 -0.4524
vn 0.8883 -0.0782 -0.4526
vn 0.8882 -0.0780 -0.4528
vn 0.8883 -0.0779 -0.4527
vn 0.8881 -0.0771 -0.4531
vn 0.8884 -0.0783 -0.4523
vn 0.8882 -0.0779 -0.4528
vn 0.8882 -0.0770 -0.4530
vn 0.8884 -0.0777 -0.4524
vn 0.8883 -0.0784 -0.4525
vn 0.8884 -0.0772 -0.4525
vn 0.8883 -0.0762 -0.4528
vn 0.8884 -0.0774 -0.4525
vn 0.8885 -0.0772 -0.4524
vn 0.8875 -0.0777 -0.4543
vn 0.8882 -0.0810 -0.4522
vn 0.8881 -0.0785 -0.4528
vn 0.8886 -0.0767 -0.4522
vn 0.8881 -0.0778 -0.4530
vn 0.8884 -0.0771 -0.4526
vn 0.8884 -0.0774 -0.4526
vn 0.8883 -0.0778 -0.4527
vn 0.8883 -0.0768 -0.4528
vn 0.8884 -0.0779 -0.4523
vn 0.8883 -0.0759 -0.4529
vn 0.8884 -0.0773 -0.4526
vn 0.8884 -0.0765 -0.4526
vn 0.8884 -0.0782 -0.4524
vn 0.8881 -0.0774 -0.4531
vn 0.8882 -0.0793 -0.4525
vn 0.8885 -0.0749 -0.4527
vn 0.8882 -0.0789 -0.4526
vn 0.8883 -0.0768 -0.4527
vn 0.8882 -0.0786 -0.4526
vn 0.8883 -0.0777 -0.4525
vn 0.8883 -0.0777 -0.4527
vn 0.8883 -0.0783 -0.4525
vn 0.8884 -0.0769 -0.4525
vn 0.8886 -0.0773 -0.4522
vn 0.8884 -0.0778 -0.4524
vn 0.8886 -0.0783 -0.4519
vn 0.8885 -0.0770 -0.4523
vn 0.8884 -0.0752 -0.4529
vn 0.8885 -0.0768 -0.4525
vn 0.8885 -0.0771 -0.4523
vn 0.8882 -0.0775 -0.4528
vn 0.8881 -0.0775 -0.4530
vn 0.8882 -0.0777 -0.4529
vn 0.8886 -0.0774 -0.4522
vn 0.8882 -0.0783 -0.4527
vn 0.8883 -0.0765 -0.4529
vn 0.8882 -0.0775 -0.4529
vn 0.8884 -0.0775 -0.4526
vn 0.8888 -0.0771 -0.4517
vn 0.8884 -0.0784 -0.4523
vn 0.8885 -0.0773 -0.4523
usemtl None
s off
f 193//1 218//1 209//1
f 72//2 71//2 67//2
f 71//3 70//3 67//3
f 70//4 69//4 67//4
f 69//5 68//5 67//5
f 67//6 66//6 64//6
f 66//7 65//7 64//7
f 73//8 72//8 67//8
f 76//9 75//9 79//9
f 75//3 74//3 85//3
f 79//1 75//1 85//1
f 74//5 73//5 86//5
f 73//1 67//1 87//1
f 86//10 73//10 87//10
f 77//11 76//11 78//11
f 79//12 78//12 76//12
f 81//13 80//13 79//13
f 83//14 82//14 84//14
f 82//15 81//15 84//15
f 85//16 84//16 81//16
f 81//8 79//8 85//8
f 74//17 86//17 85//17
f 67//1 64//1 100//1
f 87//1 67//1 100//1
f 88//18 87//18 93//18
f 93//5 99//5 96//5
f 90//19 89//19 91//19
f 89//20 88//20 91//20
f 92//17 91//17 88//17
f 95//21 94//21 93//21
f 93//22 92//22 88//22
f 99//8 93//8 87//8
f 96//10 95//10 93//10
f 98//23 97//23 99//23
f 97//24 96//24 99//24
f 87//25 100//25 99//25
f 64//26 63//26 60//26
f 100//27 64//27 103//27
f 102//28 101//28 100//28
f 103//29 102//29 100//29
f 103//1 64//1 279//1
f 62//6 61//6 60//6
f 63//30 62//30 60//30
f 45//1 279//1 51//1
f 279//3 45//3 44//3
f 64//1 51//1 279//1
f 51//31 64//31 55//31
f 104//32 103//32 279//32
f 64//33 60//33 55//33
f 59//5 58//5 56//5
f 58//6 57//6 56//6
f 60//34 59//34 55//34
f 107//35 106//35 109//35
f 106//36 105//36 110//36
f 109//37 106//37 110//37
f 105//2 104//2 114//2
f 55//38 54//38 53//38
f 59//39 56//39 55//39
f 108//40 107//40 109//40
f 55//37 53//37 52//37
f 55//41 52//41 51//41
f 110//8 105//8 114//8
f 112//42 111//42 113//42
f 111//43 110//43 114//43
f 113//44 111//44 114//44
f 114//45 104//45 115//45
f 50//46 49//46 46//46
f 49//5 48//5 46//5
f 51//47 50//47 45//47
f 279//8 44//8 284//8
f 115//1 104//1 277//1
f 48//7 47//7 46//7
f 50//48 46//48 45//48
f 118//49 117//49 116//49
f 284//3 44//3 40//3
f 119//10 118//10 123//10
f 118//50 116//50 123//50
f 44//4 43//4 41//4
f 41//51 43//51 42//51
f 116//52 115//52 125//52
f 123//53 116//53 124//53
f 121//54 120//54 119//54
f 123//3 122//3 119//3
f 122//55 121//55 119//55
f 125//1 124//1 116//1
f 44//56 41//56 40//56
f 126//57 125//57 115//57
f 284//1 40//1 31//1
f 39//58 38//58 37//58
f 40//59 39//59 32//59
f 127//60 126//60 115//60
f 130//61 129//61 131//61
f 129//62 128//62 131//62
f 128//63 127//63 131//63
f 127//64 115//64 132//64
f 131//65 127//65 132//65
f 40//66 32//66 31//66
f 39//3 37//3 33//3
f 32//8 39//8 33//8
f 37//67 36//67 33//67
f 36//68 35//68 34//68
f 33//69 36//69 34//69
f 31//70 30//70 28//70
f 30//71 29//71 28//71
f 284//10 31//10 28//10
f 133//72 132//72 115//72
f 284//8 28//8 285//8
f 133//1 115//1 277//1
f 28//73 27//73 285//73
f 134//74 133//74 275//74
f 104//1 279//1 277//1
f 27//21 26//21 293//21
f 285//8 27//8 293//8
f 137//30 136//30 135//30
f 26//75 25//75 21//75
f 19//20 26//20 21//20
f 26//1 19//1 294//1
f 25//76 24//76 21//76
f 24//77 23//77 22//77
f 21//78 20//78 19//78
f 24//79 22//79 21//79
f 19//80 18//80 12//80
f 18//6 17//6 13//6
f 17//47 16//47 13//47
f 16//81 15//81 14//81
f 16//82 14//82 13//82
f 293//1 26//1 294//1
f 135//83 134//83 247//83
f 13//46 12//46 18//46
f 139//84 138//84 137//84
f 12//4 11//4 295//4
f 294//64 19//64 295//64
f 11//21 10//21 303//21
f 9//85 8//85 6//85
f 8//86 7//86 6//86
f 11//22 303//22 302//22
f 10//1 9//1 5//1
f 303//50 10//50 304//50
f 9//5 6//5 5//5
f 10//10 5//10 304//10
f 5//87 4//87 310//87
f 4//21 3//21 311//21
f 2//4 1//4 314//4
f 3//32 2//32 314//32
f 314//5 313//5 3//5
f 313//46 312//46 3//46
f 312//88 311//88 3//88
f 4//67 311//67 310//67
f 5//3 310//3 304//3
f 310//10 309//10 304//10
f 309//37 308//37 304//37
f 308//89 307//89 305//89
f 304//74 308//74 305//74
f 307//90 306//90 305//90
f 11//8 302//8 296//8
f 302//5 301//5 297//5
f 301//91 300//91 297//91
f 300//92 299//92 298//92
f 300//93 298//93 297//93
f 11//3 296//3 295//3
f 296//88 302//88 297//88
f 12//3 295//3 19//3
f 285//94 293//94 286//94
f 293//95 292//95 286//95
f 292//32 291//32 286//32
f 291//96 290//96 287//96
f 290//97 289//97 287//97
f 289//98 288//98 287//98
f 287//99 286//99 291//99
f 284//44 283//44 279//44
f 283//100 282//100 279//100
f 282//101 281//101 280//101
f 279//102 278//102 277//102
f 282//103 280//103 279//103
f 133//6 277//6 276//6
f 133//1 276//1 275//1
f 137//8 135//8 230//8
f 134//1 275//1 274//1
f 141//104 140//104 142//104
f 140//6 139//6 151//6
f 139//1 137//1 185//1
f 134//1 274//1 247//1
f 247//1 274//1 254//1
f 140//22 151//22 150//22
f 142//105 140//105 143//105
f 144//2 143//2 150//2
f 150//8 143//8 140//8
f 146//106 145//106 149//106
f 145//107 144//107 150//107
f 148//108 147//108 146//108
f 150//1 149//1 145//1
f 149//88 148//88 146//88
f 254//109 274//109 273//109
f 139//8 160//8 151//8
f 160//1 139//1 185//1
f 272//6 271//6 263//6
f 271//1 270//1 263//1
f 273//110 272//110 262//110
f 254//80 273//80 255//80
f 255//3 273//3 262//3
f 270//8 269//8 263//8
f 269//9 268//9 266//9
f 268//111 267//111 266//111
f 266//112 265//112 269//112
f 265//112 264//112 269//112
f 264//8 263//8 269//8
f 152//113 151//113 158//113
f 154//114 153//114 155//114
f 153//3 152//3 156//3
f 156//21 155//21 153//21
f 158//10 157//10 152//10
f 157//10 156//10 152//10
f 159//22 158//22 151//22
f 272//4 263//4 262//4
f 160//115 159//115 151//115
f 261//107 260//107 258//107
f 260//116 259//116 258//116
f 262//117 261//117 256//117
f 255//118 262//118 256//118
f 258//119 257//119 261//119
f 257//120 256//120 261//120
f 161//112 160//112 185//112
f 168//121 181//121 169//121
f 163//55 162//55 164//55
f 162//89 161//89 164//89
f 181//6 168//6 165//6
f 185//122 165//122 161//122
f 165//44 164//44 161//44
f 167//123 166//123 168//123
f 166//2 165//2 168//2
f 170//27 169//27 180//27
f 180//47 169//47 181//47
f 165//112 185//112 181//112
f 173//46 172//46 174//46
f 172//2 171//2 175//2
f 174//124 172//124 175//124
f 170//64 180//64 171//64
f 247//37 254//37 248//37
f 253//122 252//122 251//122
f 254//124 253//124 248//124
f 177//125 176//125 178//125
f 176//6 175//6 179//6
f 179//5 178//5 176//5
f 175//8 171//8 179//8
f 253//10 251//10 250//10
f 250//6 249//6 253//6
f 249//8 248//8 253//8
f 171//8 180//8 179//8
f 183//3 182//3 184//3
f 182//5 181//5 184//5
f 185//27 137//27 186//27
f 135//126 247//126 246//126
f 185//127 184//127 181//127
f 186//1 137//1 229//1
f 246//108 245//108 243//108
f 245//128 244//128 243//128
f 135//1 246//1 241//1
f 231//1 135//1 232//1
f 135//3 231//3 230//3
f 246//1 243//1 242//1
f 187//1 186//1 229//1
f 229//3 137//3 230//3
f 190//129 189//129 188//129
f 188//46 187//46 228//46
f 246//130 242//130 241//130
f 241//131 240//131 239//131
f 241//132 239//132 238//132
f 191//1 190//1 228//1
f 190//6 188//6 228//6
f 241//1 238//1 232//1
f 238//48 237//48 232//48
f 237//5 236//5 233//5
f 236//133 235//133 234//133
f 233//134 236//134 234//134
f 233//46 232//46 237//46
f 192//46 191//46 227//46
f 187//1 229//1 228//1
f 193//1 192//1 219//1
f 241//1 232//1 135//1
f 194//27 193//27 202//27
f 196//87 195//87 194//87
f 199//108 198//108 194//108
f 198//107 197//107 194//107
f 197//32 196//32 194//32
f 191//6 228//6 227//6
f 201//135 200//135 202//135
f 200//5 199//5 202//5
f 192//1 227//1 219//1
f 219//53 227//53 226//53
f 202//1 199//1 194//1
f 203//21 202//21 193//21
f 219//136 226//136 220//136
f 226//4 225//4 222//4
f 225//19 224//19 222//19
f 204//37 203//37 209//37
f 209//1 203//1 193//1
f 206//137 205//137 207//137
f 205//46 204//46 209//46
f 208//138 207//138 205//138
f 209//139 208//139 205//139
f 221//25 226//25 222//25
f 224//140 223//140 222//140
f 212//141 211//141 210//141
f 210//10 209//10 217//10
f 217//107 209//107 218//107
f 226//132 221//132 220//132
f 212//8 210//8 216//8
f 214//142 213//142 215//142
f 213//27 212//27 216//27
f 216//1 215//1 213//1
f 217//132 216//132 210//132
f 193//7 219//7 218//7
