# Blender v2.81 (sub 16) OBJ File: ''
# www.blender.org
mtllib Saint Helena.mtl
o 0_Saint_Helena_sphere.001
v 3.751446 -3.239493 0.654288
v 3.750445 -3.240280 0.656179
v 3.750834 -3.239243 0.659016
v 3.752465 -3.236217 0.664465
v 3.752854 -3.235748 0.664535
v 3.753993 -3.234504 0.664088
v 3.754457 -3.234054 0.663627
v 3.754775 -3.233863 0.662741
v 3.755467 -3.233680 0.659668
v 3.755470 -3.233859 0.658776
v 3.755105 -3.234397 0.658236
v 3.753705 -3.236240 0.657245
v 3.753220 -3.236911 0.656745
v 3.752580 -3.237968 0.655245
v 3.752201 -3.238516 0.654739
vn 0.7541 -0.6434 0.1317
vn 0.7541 -0.6434 0.1319
vn 0.7542 -0.6434 0.1312
vn 0.7542 -0.6433 0.1317
vn 0.7541 -0.6435 0.1316
vn 0.7539 -0.6437 0.1318
vn 0.7538 -0.6438 0.1315
vn 0.7544 -0.6431 0.1314
vn 0.7540 -0.6435 0.1316
vn 0.7536 -0.6441 0.1312
vn 0.7546 -0.6428 0.1317
usemtl None
s off
f 13//1 12//1 3//1
f 1//2 15//2 2//2
f 15//3 14//3 2//3
f 14//4 13//4 3//4
f 3//5 2//5 14//5
f 5//6 4//6 8//6
f 4//5 3//5 12//5
f 7//7 6//7 8//7
f 6//8 5//8 8//8
f 9//9 8//9 12//9
f 11//10 10//10 9//10
f 12//11 11//11 9//11
f 12//5 8//5 4//5
o 1_Saint_Helena_sphere.001
v 3.894055 -3.019312 0.846462
v 3.893860 -3.019326 0.847353
v 3.894708 -3.017658 0.849538
v 3.895378 -3.016157 0.851947
v 3.896027 -3.015474 0.851383
v 3.897592 -3.013727 0.850399
v 3.898325 -3.012951 0.849778
v 3.898575 -3.012707 0.849489
v 3.899087 -3.012928 0.846186
v 3.898866 -3.013555 0.844894
v 3.898456 -3.014393 0.843722
v 3.898222 -3.015131 0.842073
v 3.897730 -3.015705 0.842290
v 3.897369 -3.016100 0.842548
v 3.897085 -3.016380 0.842864
v 3.896834 -3.016595 0.843267
v 3.894925 -3.018514 0.845265
vn 0.7785 -0.6067 0.1612
vn 0.7785 -0.6067 0.1608
vn 0.7783 -0.6068 0.1613
vn 0.7783 -0.6068 0.1612
vn 0.7786 -0.6065 0.1613
vn 0.7785 -0.6066 0.1614
vn 0.7784 -0.6067 0.1611
vn 0.7784 -0.6067 0.1613
vn 0.7785 -0.6066 0.1611
vn 0.7786 -0.6064 0.1617
vn 0.7782 -0.6070 0.1611
vn 0.7788 -0.6062 0.1610
vn 0.7782 -0.6071 0.1609
usemtl None
s off
f 24//12 21//12 18//12
f 26//13 25//13 31//13
f 25//14 24//14 18//14
f 24//15 23//15 22//15
f 22//16 21//16 24//16
f 21//17 20//17 18//17
f 20//18 19//18 18//18
f 18//18 17//18 32//18
f 17//19 16//19 32//19
f 32//19 31//19 25//19
f 18//20 32//20 25//20
f 31//21 30//21 26//21
f 30//22 29//22 26//22
f 29//23 28//23 26//23
f 28//24 27//24 26//24
o 2_Saint_Helena_sphere.001
v 4.784800 -1.369721 0.474647
v 4.784461 -1.371231 0.473842
v 4.784151 -1.372525 0.473317
v 4.783817 -1.373769 0.473150
v 4.783432 -1.375031 0.473387
v 4.782959 -1.376411 0.474134
v 4.782645 -1.377154 0.475070
v 4.782363 -1.377720 0.476164
v 4.781971 -1.378611 0.477428
v 4.782086 -1.378120 0.477644
v 4.782129 -1.377853 0.477945
v 4.782141 -1.377677 0.478284
v 4.782187 -1.377381 0.478635
v 4.781714 -1.378583 0.479824
v 4.781338 -1.379363 0.481229
v 4.781128 -1.379526 0.482710
v 4.781153 -1.378878 0.484147
v 4.781378 -1.377757 0.484990
v 4.781664 -1.376818 0.484814
v 4.781998 -1.375859 0.484255
v 4.782357 -1.374708 0.483955
v 4.782781 -1.373417 0.483441
v 4.783295 -1.372094 0.482183
v 4.783776 -1.370992 0.480656
v 4.784119 -1.370285 0.479366
v 4.784281 -1.370122 0.478317
v 4.784552 -1.370165 0.475750
vn 0.9567 -0.2713 0.1056
vn 0.9568 -0.2710 0.1056
vn 0.9567 -0.2712 0.1056
vn 0.9565 -0.2719 0.1058
vn 0.9567 -0.2711 0.1057
vn 0.9561 -0.2738 0.1048
vn 0.9567 -0.2714 0.1056
vn 0.9567 -0.2713 0.1055
vn 0.9566 -0.2715 0.1057
vn 0.9566 -0.2716 0.1057
vn 0.9566 -0.2715 0.1056
vn 0.9565 -0.2718 0.1056
vn 0.9567 -0.2714 0.1054
vn 0.9565 -0.2721 0.1057
vn 0.9572 -0.2696 0.1057
vn 0.9567 -0.2711 0.1056
vn 0.9566 -0.2715 0.1058
vn 0.9522 -0.2854 0.1089
vn 0.9571 -0.2700 0.1053
vn 0.9566 -0.2716 0.1055
vn 0.9567 -0.2713 0.1058
vn 0.9566 -0.2717 0.1055
usemtl None
s off
f 46//25 45//25 52//25
f 36//26 35//26 59//26
f 35//27 34//27 59//27
f 34//28 33//28 59//28
f 59//29 58//29 36//29
f 58//30 57//30 56//30
f 45//31 58//31 56//31
f 56//25 55//25 45//25
f 55//32 54//32 45//32
f 54//33 53//33 45//33
f 52//34 51//34 49//34
f 51//35 50//35 49//35
f 53//36 52//36 45//36
f 58//31 45//31 37//31
f 38//37 37//37 39//37
f 37//38 36//38 58//38
f 40//39 39//39 45//39
f 45//40 39//40 37//40
f 42//41 41//41 40//41
f 45//42 44//42 43//42
f 43//43 42//43 40//43
f 48//44 52//44 49//44
f 48//45 47//45 52//45
f 47//33 46//33 52//33
f 45//46 43//46 40//46
o 3_Saint_Helena_sphere.001
v 4.796746 -0.687991 1.231600
v 4.795986 -0.693833 1.231405
v 4.797547 -0.685898 1.229465
v 4.797577 -0.686244 1.229142
v 4.797688 -0.686242 1.228683
v 4.797911 -0.685831 1.227992
v 4.797920 -0.687153 1.227193
v 4.798363 -0.689569 1.223956
v 4.798479 -0.691145 1.222568
v 4.798188 -0.691724 1.223446
v 4.797595 -0.692620 1.225402
v 4.797283 -0.693288 1.226316
v 4.797008 -0.693698 1.227226
v 4.796421 -0.693807 1.229610
v 4.796127 -0.694122 1.230653
v 4.797156 -0.686255 1.230889
v 4.797571 -0.685244 1.229745
v 4.795862 -0.693620 1.231966
v 4.795878 -0.692680 1.232386
v 4.795992 -0.691575 1.232531
v 4.795992 -0.690604 1.233026
v 4.796420 -0.689287 1.232133
vn 0.9637 -0.1333 0.2312
vn 0.9560 -0.1330 0.2614
vn 0.9637 -0.1331 0.2315
vn 0.9637 -0.1332 0.2315
vn 0.9637 -0.1330 0.2314
vn 0.9638 -0.1333 0.2310
vn 0.9636 -0.1335 0.2314
vn 0.9641 -0.1298 0.2317
vn 0.9637 -0.1331 0.2314
vn 0.9638 -0.1324 0.2315
vn 0.9637 -0.1334 0.2314
vn 0.9637 -0.1331 0.2316
vn 0.9636 -0.1333 0.2317
vn 0.9641 -0.1319 0.2306
vn 0.9636 -0.1337 0.2314
vn 0.9560 -0.1331 0.2613
vn 0.9561 -0.1331 0.2613
vn 0.9560 -0.1342 0.2609
vn 0.9562 -0.1314 0.2615
usemtl None
s off
f 66//47 70//47 67//47
f 61//48 81//48 79//48
f 60//49 61//49 73//49
f 61//50 74//50 73//50
f 73//51 72//51 66//51
f 72//52 71//52 66//52
f 76//52 75//52 62//52
f 75//53 60//53 63//53
f 62//54 75//54 63//54
f 60//55 73//55 66//55
f 70//56 69//56 67//56
f 69//57 68//57 67//57
f 71//58 70//58 66//58
f 66//59 65//59 64//59
f 64//60 63//60 66//60
f 63//61 60//61 66//61
f 61//62 60//62 81//62
f 81//63 80//63 79//63
f 79//64 78//64 61//64
f 78//65 77//65 61//65
