# Blender v2.81 (sub 16) OBJ File: ''
# www.blender.org
mtllib Saint Pierre and Miquelon.mtl
o 0_Saint_Pierre_and_Miquelon_sphere.001
v 1.903887 3.644842 2.844008
v 1.906462 3.644842 2.842317
v 1.907091 3.642113 2.845325
v 1.905852 3.641828 2.846497
v 1.904464 3.641935 2.847275
v 1.903138 3.642607 2.847302
v 1.903419 3.643994 2.845379
v 1.903655 3.644580 2.844489
v 1.906656 3.644339 2.842820
v 1.906534 3.644069 2.843238
v 1.906491 3.643770 2.843642
v 1.906535 3.643435 2.844034
v 1.906691 3.643046 2.844418
v 1.907647 3.642708 2.844214
v 1.907965 3.642635 2.844097
v 1.904128 3.645116 2.843495
v 1.904610 3.645294 2.842948
v 1.905488 3.645421 2.842207
v 1.906319 3.645199 2.841948
vn 0.3788 0.7237 0.5769
vn 0.3721 0.7352 0.5667
vn 0.3791 0.7234 0.5770
vn 0.3789 0.7239 0.5765
vn 0.3783 0.7235 0.5775
vn 0.3790 0.7235 0.5770
vn 0.3788 0.7236 0.5770
vn 0.3790 0.7235 0.5769
vn 0.3793 0.7235 0.5768
vn 0.3798 0.7227 0.5775
vn 0.3788 0.7237 0.5768
vn 0.3787 0.7233 0.5775
vn 0.3726 0.7342 0.5675
vn 0.3731 0.7348 0.5665
vn 0.3725 0.7345 0.5672
usemtl None
s off
f 11//1 1//1 12//1
f 17//2 16//2 1//2
f 2//3 1//3 10//3
f 1//4 8//4 12//4
f 2//5 10//5 9//5
f 8//6 7//6 12//6
f 7//7 6//7 5//7
f 4//8 7//8 5//8
f 4//9 3//9 13//9
f 3//10 15//10 14//10
f 3//11 14//11 13//11
f 7//8 4//8 13//8
f 12//12 7//12 13//12
f 10//8 1//8 11//8
f 1//13 2//13 17//13
f 2//14 19//14 18//14
f 17//15 2//15 18//15
o 1_Saint_Pierre_and_Miquelon_sphere.001
v 1.895093 3.644842 2.849785
v 1.898551 3.644842 2.847513
v 1.893246 3.656511 2.835896
v 1.893256 3.655945 2.836622
v 1.892830 3.655686 2.837237
v 1.892466 3.655812 2.837313
v 1.892161 3.656095 2.837147
v 1.891905 3.656379 2.836949
v 1.891669 3.656505 2.836940
v 1.891344 3.656460 2.837213
v 1.890681 3.656090 2.838126
v 1.889851 3.656308 2.838389
v 1.889563 3.656229 2.838681
v 1.889897 3.655676 2.839177
v 1.890316 3.655347 2.839328
v 1.890652 3.655296 2.839172
v 1.890929 3.655327 2.838951
v 1.891440 3.655143 2.838854
v 1.891738 3.655139 2.838663
v 1.892084 3.655096 2.838491
v 1.892482 3.654862 2.838532
v 1.892817 3.654457 2.838836
v 1.892844 3.654166 2.839196
v 1.892758 3.653957 2.839522
v 1.892753 3.653784 2.839749
v 1.894228 3.651325 2.841964
v 1.894897 3.650568 2.842504
v 1.895565 3.650341 2.842357
v 1.896971 3.650297 2.841491
v 1.899732 3.648907 2.841476
v 1.900106 3.647128 2.843534
v 1.899115 3.645417 2.846399
v 1.895050 3.644986 2.849626
v 1.894798 3.645403 2.849252
v 1.893632 3.646001 2.849244
v 1.892927 3.646736 2.848757
v 1.893214 3.647643 2.847394
v 1.894219 3.649090 2.844862
v 1.893534 3.651451 2.842255
v 1.891693 3.653807 2.840416
v 1.886332 3.658690 2.837618
v 1.885588 3.659665 2.836845
v 1.884141 3.661833 2.834990
v 1.883281 3.662807 2.834295
v 1.882970 3.663385 2.833751
v 1.882958 3.664096 2.832838
v 1.883154 3.664632 2.832016
v 1.883501 3.664990 2.831324
v 1.884049 3.665055 2.830880
v 1.884850 3.664718 2.830791
v 1.884265 3.664133 2.831932
v 1.884097 3.663541 2.832808
v 1.884494 3.662923 2.833347
v 1.885612 3.662248 2.833486
v 1.886655 3.661912 2.833236
v 1.888656 3.661561 2.832376
v 1.892306 3.659795 2.832263
v 1.892741 3.659207 2.832739
v 1.893203 3.658385 2.833499
v 1.893458 3.657651 2.834282
v 1.893132 3.657074 2.835243
v 1.897328 3.643569 2.849912
v 1.896813 3.643391 2.850474
v 1.896007 3.643722 2.850589
v 1.895189 3.644503 2.850146
vn 0.3728 0.7344 0.5672
vn 0.3790 0.7237 0.5767
vn 0.3729 0.7338 0.5679
vn 0.3726 0.7340 0.5678
vn 0.3727 0.7344 0.5673
vn 0.3728 0.7343 0.5673
vn 0.3730 0.7342 0.5673
vn 0.3724 0.7345 0.5673
vn 0.3730 0.7340 0.5676
vn 0.3727 0.7342 0.5675
vn 0.3727 0.7343 0.5674
vn 0.3726 0.7343 0.5674
vn 0.3726 0.7342 0.5675
vn 0.3729 0.7344 0.5671
vn 0.3725 0.7343 0.5675
vn 0.3723 0.7340 0.5680
vn 0.3724 0.7337 0.5684
vn 0.3724 0.7347 0.5670
vn 0.3734 0.7348 0.5662
vn 0.3735 0.7355 0.5652
vn 0.3728 0.7334 0.5684
vn 0.3723 0.7344 0.5675
vn 0.3726 0.7345 0.5671
vn 0.3730 0.7343 0.5672
vn 0.3726 0.7337 0.5682
vn 0.3725 0.7342 0.5676
vn 0.3727 0.7343 0.5673
vn 0.3736 0.7349 0.5660
vn 0.3725 0.7344 0.5675
vn 0.3719 0.7349 0.5671
vn 0.3728 0.7347 0.5667
vn 0.3731 0.7346 0.5667
vn 0.3731 0.7341 0.5673
vn 0.3729 0.7342 0.5673
vn 0.3726 0.7339 0.5680
vn 0.3728 0.7340 0.5677
vn 0.3723 0.7344 0.5676
vn 0.3732 0.7342 0.5672
vn 0.3728 0.7342 0.5674
vn 0.3733 0.7347 0.5664
vn 0.3726 0.7343 0.5673
vn 0.3726 0.7344 0.5672
vn 0.3720 0.7349 0.5671
vn 0.3728 0.7341 0.5676
vn 0.3728 0.7337 0.5680
vn 0.3727 0.7340 0.5678
vn 0.3725 0.7344 0.5674
vn 0.3729 0.7341 0.5675
vn 0.3726 0.7344 0.5673
vn 0.3723 0.7338 0.5682
vn 0.3789 0.7235 0.5771
vn 0.3796 0.7237 0.5763
vn 0.3790 0.7234 0.5771
usemtl None
s off
f 22//16 80//16 27//16
f 83//17 82//17 81//17
f 20//18 21//18 52//18
f 21//19 51//19 56//19
f 52//20 21//20 53//20
f 51//21 50//21 57//21
f 50//22 49//22 48//22
f 47//23 50//23 48//23
f 47//24 46//24 57//24
f 50//25 47//25 57//25
f 53//26 21//26 56//26
f 51//27 57//27 56//27
f 55//28 54//28 56//28
f 54//29 53//29 56//29
f 46//30 45//30 58//30
f 57//30 46//30 58//30
f 43//31 42//31 37//31
f 42//32 41//32 38//32
f 37//33 42//33 38//33
f 41//34 40//34 38//34
f 40//35 39//35 38//35
f 37//36 36//36 35//36
f 37//37 35//37 59//37
f 35//38 34//38 59//38
f 43//39 37//39 59//39
f 44//40 43//40 59//40
f 45//41 44//41 58//41
f 44//42 59//42 58//42
f 34//43 33//43 59//43
f 61//44 60//44 75//44
f 60//45 59//45 33//45
f 64//46 63//46 72//46
f 63//25 62//25 72//25
f 60//47 33//47 32//47
f 65//48 64//48 71//48
f 71//42 64//42 72//42
f 62//49 61//49 73//49
f 60//50 32//50 31//50
f 60//28 31//28 29//28
f 75//51 29//51 28//51
f 66//29 65//29 70//29
f 68//52 67//52 70//52
f 67//53 66//53 70//53
f 70//27 69//27 68//27
f 71//41 70//41 65//41
f 29//42 75//42 60//42
f 61//54 75//54 74//54
f 31//41 30//41 29//41
f 27//55 26//55 23//55
f 26//56 25//56 24//56
f 61//57 74//57 73//57
f 28//58 27//58 80//58
f 73//59 72//59 62//59
f 76//60 75//60 77//60
f 77//20 75//20 28//20
f 26//61 24//61 23//61
f 77//62 28//62 78//62
f 79//63 78//63 80//63
f 80//64 78//64 28//64
f 23//65 22//65 27//65
f 21//66 20//66 81//66
f 20//67 84//67 81//67
f 84//68 83//68 81//68
