# Blender v2.81 (sub 16) OBJ File: ''
# www.blender.org
mtllib Saint Barthelemy.mtl
o 0_Saint_Barthelemy_sphere.001
v 2.145315 1.509146 4.187753
v 2.140499 1.512758 4.189246
v 2.136084 1.519084 4.189812
v 2.133311 1.525325 4.189564
v 2.133418 1.528933 4.188550
v 2.136718 1.527242 4.187318
v 2.160936 1.523306 4.176026
v 2.158855 1.518715 4.178308
v 2.155381 1.513556 4.181450
v 2.150784 1.509694 4.184821
vn 0.4417 0.2307 0.8670
vn 0.4416 0.2308 0.8670
vn 0.4416 0.2307 0.8670
vn 0.4420 0.2307 0.8668
vn 0.4418 0.2307 0.8669
vn 0.4418 0.2306 0.8670
usemtl None
s off
f 8//1 7//1 6//1
f 6//2 5//2 4//2
f 4//3 3//3 6//3
f 3//4 2//4 6//4
f 2//3 1//3 10//3
f 10//5 9//5 2//5
f 9//6 8//6 6//6
f 2//1 9//1 6//1
