# Blender v2.81 (sub 16) OBJ File: ''
# www.blender.org
mtllib Saint Kitts and Nevis.mtl
o 0_Saint_Kitts_and_Nevis_sphere.001
v 2.199548 1.470200 4.242226
v 2.202420 1.470200 4.240705
v 2.202996 1.470349 4.240347
v 2.198110 1.470332 4.242941
v 2.196579 1.473453 4.242634
v 2.196635 1.477054 4.241316
v 2.197852 1.478781 4.240055
v 2.199436 1.478746 4.239228
v 2.200882 1.478245 4.238642
v 2.202100 1.477132 4.238395
v 2.202985 1.475254 4.238599
v 2.203187 1.474478 4.238769
v 2.203510 1.472490 4.239309
v 2.203491 1.471745 4.239586
v 2.203251 1.470710 4.240084
v 2.201669 1.470004 4.241170
vn 0.4462 0.3014 0.8427
vn 0.4480 0.2868 0.8468
vn 0.4460 0.3014 0.8428
vn 0.4467 0.3020 0.8422
vn 0.4456 0.3019 0.8428
vn 0.4474 0.3014 0.8420
vn 0.4461 0.3016 0.8426
vn 0.4463 0.3012 0.8426
vn 0.4462 0.3015 0.8426
vn 0.4461 0.3016 0.8427
vn 0.4464 0.3013 0.8426
vn 0.4459 0.3014 0.8428
vn 0.4461 0.3015 0.8427
vn 0.4459 0.3017 0.8427
usemtl None
s off
f 12//1 5//1 1//1
f 1//2 16//2 2//2
f 1//3 2//3 13//3
f 2//4 3//4 15//4
f 14//5 2//5 15//5
f 14//6 13//6 2//6
f 13//7 12//7 1//7
f 12//8 11//8 5//8
f 11//9 10//9 6//9
f 10//10 9//10 6//10
f 9//11 8//11 6//11
f 8//12 7//12 6//12
f 6//13 5//13 11//13
f 5//14 4//14 1//14
o 1_Saint_Kitts_and_Nevis_sphere.001
v 2.189315 1.489542 4.240725
v 2.191122 1.486056 4.241015
v 2.192201 1.484464 4.241013
v 2.193534 1.483789 4.240549
v 2.194653 1.483155 4.240183
v 2.195759 1.481763 4.240096
v 2.195966 1.480359 4.240489
v 2.194380 1.479684 4.241570
v 2.193322 1.480392 4.241876
v 2.192054 1.483589 4.241404
v 2.190417 1.484597 4.241910
v 2.189261 1.485802 4.242091
v 2.188531 1.486074 4.242380
v 2.186188 1.485940 4.243669
v 2.185200 1.486089 4.244138
v 2.182672 1.487146 4.245099
v 2.179161 1.489310 4.246184
v 2.176577 1.492028 4.246580
v 2.176768 1.494765 4.245499
v 2.177016 1.495054 4.245265
v 2.177193 1.495209 4.245116
v 2.177401 1.495301 4.244972
v 2.177737 1.495394 4.244761
v 2.178584 1.495818 4.244161
v 2.178870 1.496066 4.243921
v 2.179005 1.496552 4.243675
v 2.187162 1.491694 4.241094
vn 0.4464 0.3015 0.8425
vn 0.4462 0.3015 0.8426
vn 0.4463 0.3015 0.8426
vn 0.4463 0.3016 0.8425
vn 0.4458 0.3018 0.8427
vn 0.4460 0.3015 0.8427
vn 0.4458 0.3014 0.8429
vn 0.4458 0.3015 0.8428
vn 0.4462 0.3016 0.8426
vn 0.4466 0.3013 0.8424
vn 0.4457 0.3017 0.8428
vn 0.4461 0.3015 0.8427
vn 0.4462 0.3014 0.8426
vn 0.4463 0.3014 0.8426
vn 0.4456 0.3017 0.8429
vn 0.4480 0.3003 0.8421
vn 0.4540 0.2985 0.8395
vn 0.4443 0.3024 0.8433
vn 0.4465 0.3016 0.8425
vn 0.4461 0.3016 0.8426
vn 0.4459 0.3020 0.8426
usemtl None
s off
f 18//15 17//15 28//15
f 22//16 21//16 25//16
f 21//17 20//17 25//17
f 20//18 19//18 26//18
f 24//19 23//19 22//19
f 26//20 25//20 20//20
f 25//21 24//21 22//21
f 28//22 27//22 18//22
f 27//23 26//23 19//23
f 18//24 27//24 19//24
f 31//25 30//25 43//25
f 30//15 29//15 17//15
f 43//16 30//16 17//16
f 32//26 31//26 43//26
f 34//27 33//27 39//27
f 33//28 32//28 43//28
f 34//29 39//29 35//29
f 36//30 35//30 39//30
f 38//31 37//31 36//31
f 39//32 38//32 36//32
f 39//20 33//20 40//20
f 40//33 33//33 41//33
f 29//34 28//34 17//34
f 33//16 43//16 41//16
f 43//35 42//35 41//35
