# Blender v2.81 (sub 16) OBJ File: ''
# www.blender.org
mtllib Saint Martin.mtl
o 0_Saint_Martin_sphere.001
v 2.125869 1.545085 4.188097
v 2.146625 1.545085 4.177521
v 2.150661 1.515209 4.183416
v 2.124736 1.525845 4.193795
v 2.117016 1.527351 4.197328
v 2.116828 1.529364 4.196887
v 2.113923 1.528710 4.198542
v 2.108663 1.526583 4.201788
v 2.107317 1.526262 4.202559
v 2.103736 1.528431 4.203807
v 2.102497 1.530757 4.203819
v 2.103521 1.532347 4.202874
v 2.114129 1.532540 4.197417
v 2.120247 1.534239 4.193849
v 2.124227 1.537969 4.190827
v 2.125209 1.544505 4.188588
v 2.146869 1.543037 4.177942
v 2.150904 1.530915 4.179112
v 2.152719 1.518386 4.181522
v 2.127716 1.546786 4.186375
v 2.133836 1.549461 4.182028
v 2.140802 1.551446 4.177568
v 2.145644 1.551543 4.175056
vn 0.4417 0.2308 0.8670
vn 0.4202 0.3787 0.8246
vn 0.4423 0.2304 0.8668
vn 0.4417 0.2307 0.8670
vn 0.4415 0.2308 0.8671
vn 0.4418 0.2307 0.8670
vn 0.4417 0.2308 0.8669
vn 0.4413 0.2309 0.8671
vn 0.4416 0.2307 0.8670
vn 0.4415 0.2306 0.8671
vn 0.4419 0.2307 0.8669
vn 0.4419 0.2308 0.8669
vn 0.4203 0.3784 0.8247
vn 0.4202 0.3786 0.8247
usemtl None
s off
f 7//1 6//1 13//1
f 21//2 20//2 2//2
f 2//1 1//1 17//1
f 1//3 16//3 15//3
f 1//4 15//4 17//4
f 19//5 18//5 3//5
f 18//4 17//4 15//4
f 3//6 18//6 4//6
f 15//1 14//1 4//1
f 4//1 18//1 15//1
f 6//1 5//1 4//1
f 6//4 4//4 14//4
f 13//7 12//7 8//7
f 12//8 11//8 10//8
f 6//9 14//9 13//9
f 9//10 8//10 12//10
f 8//11 7//11 13//11
f 9//12 12//12 10//12
f 1//13 2//13 20//13
f 2//14 23//14 22//14
f 21//14 2//14 22//14
