# Blender v2.81 (sub 16) OBJ File: ''
# www.blender.org
mtllib Saint Kitts and Nevis.mtl
o 0_Saint_Kitts_and_Nevis_sphere.001
v 2.187435 1.435489 4.185894
v 2.180640 1.433600 4.189859
v 2.162466 1.435157 4.198705
v 2.155428 1.451435 4.197959
v 2.156639 1.469665 4.192491
v 2.163071 1.478174 4.186949
v 2.170846 1.478005 4.183032
v 2.177858 1.475566 4.180109
v 2.183691 1.470105 4.178590
v 2.187858 1.460763 4.178953
v 2.188788 1.456856 4.179519
v 2.190229 1.446696 4.181489
v 2.190068 1.442832 4.182599
v 2.188761 1.437404 4.184710
vn 0.4417 0.2307 0.8670
vn 0.4418 0.2307 0.8669
vn 0.4417 0.2308 0.8669
vn 0.4418 0.2307 0.8670
vn 0.4417 0.2308 0.8670
vn 0.4419 0.2307 0.8669
usemtl None
s off
f 11//1 4//1 2//1
f 12//2 11//2 2//2
f 11//3 10//3 4//3
f 10//4 9//4 5//4
f 9//4 8//4 5//4
f 8//5 7//5 5//5
f 7//2 6//2 5//2
f 5//1 4//1 10//1
f 4//1 3//1 2//1
f 2//6 1//6 14//6
f 14//5 13//5 2//5
f 13//1 12//1 2//1
o 1_Saint_Kitts_and_Nevis_sphere.001
v 2.172094 1.475859 4.182968
v 2.178826 1.462144 4.183187
v 2.182937 1.455786 4.182785
v 2.188117 1.453096 4.180861
v 2.192477 1.450559 4.179315
v 2.196800 1.444908 4.178617
v 2.197622 1.439119 4.179738
v 2.191357 1.436236 4.183697
v 2.187185 1.439143 4.185050
v 2.182322 1.452237 4.184042
v 2.175976 1.456266 4.186204
v 2.171558 1.461081 4.187173
v 2.168735 1.462149 4.188328
v 2.159556 1.461552 4.193163
v 2.155704 1.462123 4.194974
v 2.145961 1.466289 4.198830
v 2.132661 1.474792 4.203343
v 2.123263 1.485363 4.205318
v 2.124717 1.495836 4.201791
v 2.125744 1.496928 4.200977
v 2.126463 1.497514 4.200455
v 2.127282 1.497862 4.199944
v 2.128601 1.498213 4.199180
v 2.131941 1.499804 4.197054
v 2.133089 1.500732 4.196222
v 2.133713 1.502548 4.195421
v 2.164047 1.484163 4.184858
vn 0.4417 0.2308 0.8670
vn 0.4419 0.2307 0.8669
vn 0.4417 0.2307 0.8670
vn 0.4418 0.2307 0.8669
vn 0.4416 0.2307 0.8670
vn 0.4419 0.2306 0.8669
vn 0.4410 0.2310 0.8673
vn 0.4457 0.2299 0.8651
vn 0.4418 0.2307 0.8670
vn 0.4418 0.2308 0.8669
vn 0.4414 0.2306 0.8672
vn 0.4416 0.2308 0.8670
usemtl None
s off
f 29//7 28//7 41//7
f 21//8 20//8 22//8
f 20//9 19//9 23//9
f 22//9 20//9 23//9
f 19//10 18//10 23//10
f 18//7 17//7 24//7
f 16//7 15//7 26//7
f 15//9 41//9 28//9
f 26//10 15//10 27//10
f 18//11 24//11 23//11
f 17//9 16//9 25//9
f 41//9 40//9 39//9
f 41//9 39//9 31//9
f 39//12 38//12 31//12
f 27//9 15//9 28//9
f 37//13 36//13 34//13
f 36//14 35//14 34//14
f 16//15 26//15 25//15
f 38//9 37//9 31//9
f 25//16 24//16 17//16
f 41//9 31//9 30//9
f 34//17 33//17 37//17
f 33//18 32//18 37//18
f 32//9 31//9 37//9
f 30//9 29//9 41//9
