# Blender v2.81 (sub 16) OBJ File: ''
# www.blender.org
mtllib Saint Lucia.mtl
o 0_Saint_Lucia_sphere.001
v 2.360161 1.210449 4.237867
v 2.360753 1.207923 4.238252
v 2.361018 1.205674 4.238743
v 2.360917 1.199065 4.240692
v 2.361590 1.195278 4.241390
v 2.361168 1.191089 4.242829
v 2.361038 1.190498 4.243072
v 2.360826 1.190395 4.243222
v 2.359925 1.190109 4.243819
v 2.359635 1.189874 4.244051
v 2.359388 1.189055 4.244426
v 2.359107 1.185794 4.245519
v 2.358703 1.185301 4.245891
v 2.358489 1.185163 4.246052
v 2.358119 1.185166 4.246263
v 2.356505 1.187256 4.246585
v 2.350656 1.189719 4.249217
v 2.349210 1.191403 4.249560
v 2.348921 1.191851 4.249597
v 2.348402 1.192414 4.249732
v 2.348036 1.193062 4.249755
v 2.348389 1.194394 4.249173
v 2.348367 1.195259 4.248938
v 2.348082 1.196940 4.248620
v 2.347898 1.197489 4.248568
v 2.347635 1.197921 4.248594
v 2.347384 1.198464 4.248582
v 2.347249 1.199332 4.248411
v 2.347333 1.200234 4.248105
v 2.347810 1.201823 4.247378
v 2.347869 1.202531 4.247142
v 2.348130 1.203718 4.246654
v 2.349557 1.206593 4.245018
v 2.349990 1.208512 4.244222
v 2.351428 1.211569 4.242527
v 2.351773 1.211914 4.242232
v 2.352443 1.212374 4.241719
v 2.352762 1.212785 4.241419
v 2.352874 1.213314 4.241204
v 2.352983 1.214825 4.240710
v 2.353207 1.215417 4.240412
v 2.354672 1.218344 4.238740
v 2.355627 1.219168 4.237960
v 2.357130 1.218642 4.237253
v 2.356975 1.217164 4.237764
v 2.357565 1.216398 4.237646
v 2.358442 1.215877 4.237295
v 2.359133 1.215132 4.237114
v 2.359469 1.214064 4.237228
vn 0.4803 0.2412 0.8433
vn 0.4808 0.2410 0.8431
vn 0.4828 0.2418 0.8417
vn 0.4802 0.2413 0.8433
vn 0.4802 0.2410 0.8434
vn 0.4808 0.2411 0.8430
vn 0.4810 0.2412 0.8429
vn 0.4807 0.2416 0.8430
vn 0.4807 0.2410 0.8431
vn 0.4808 0.2412 0.8430
vn 0.4805 0.2418 0.8430
vn 0.4809 0.2411 0.8430
vn 0.4808 0.2409 0.8431
vn 0.4813 0.2414 0.8427
vn 0.4809 0.2412 0.8429
vn 0.4809 0.2405 0.8431
vn 0.4812 0.2409 0.8429
vn 0.4806 0.2411 0.8431
vn 0.4821 0.2410 0.8423
vn 0.4804 0.2409 0.8433
vn 0.4810 0.2409 0.8430
vn 0.4819 0.2426 0.8420
vn 0.4805 0.2419 0.8430
vn 0.4809 0.2412 0.8430
vn 0.4822 0.2425 0.8418
vn 0.4809 0.2410 0.8430
vn 0.4805 0.2411 0.8432
vn 0.4824 0.2410 0.8421
vn 0.4809 0.2376 0.8440
vn 0.4811 0.2412 0.8429
vn 0.4804 0.2411 0.8433
vn 0.4808 0.2410 0.8430
vn 0.4816 0.2411 0.8426
vn 0.4807 0.2411 0.8431
vn 0.4825 0.2411 0.8421
vn 0.4817 0.2410 0.8426
vn 0.4828 0.2399 0.8422
vn 0.4801 0.2413 0.8434
usemtl None
s off
f 17//1 23//1 22//1
f 1//2 49//2 39//2
f 49//3 48//3 47//3
f 46//4 49//4 47//4
f 45//5 44//5 43//5
f 49//6 46//6 39//6
f 45//7 43//7 42//7
f 46//8 45//8 41//8
f 39//6 46//6 40//6
f 3//9 2//9 35//9
f 2//10 1//10 37//10
f 38//11 1//11 39//11
f 6//12 5//12 9//12
f 5//13 4//13 24//13
f 9//14 5//14 10//14
f 4//15 3//15 33//15
f 1//16 38//16 37//16
f 45//17 42//17 41//17
f 41//18 40//18 46//18
f 7//19 6//19 8//19
f 9//20 8//20 6//20
f 10//6 5//6 23//6
f 2//21 37//21 35//21
f 24//6 4//6 30//6
f 13//22 12//22 15//22
f 12//9 11//9 16//9
f 11//23 10//23 16//23
f 33//24 3//24 34//24
f 37//25 36//25 35//25
f 35//12 34//12 3//12
f 33//18 32//18 4//18
f 32//26 31//26 4//26
f 30//27 29//27 25//27
f 29//28 28//28 25//28
f 31//15 30//15 4//15
f 5//10 24//10 23//10
f 14//29 13//29 15//29
f 12//30 16//30 15//30
f 18//31 17//31 22//31
f 17//32 16//32 10//32
f 21//33 20//33 22//33
f 20//34 19//34 22//34
f 19//35 18//35 22//35
f 23//15 17//15 10//15
f 28//36 27//36 26//36
f 28//37 26//37 25//37
f 30//38 25//38 24//38
