# Blender v2.81 (sub 16) OBJ File: ''
# www.blender.org
mtllib Saint Lucia.mtl
o 0_Saint_Lucia_sphere.001
v 2.338592 1.209480 4.169024
v 2.340286 1.202204 4.170097
v 2.341030 1.195722 4.171443
v 2.340638 1.176573 4.176739
v 2.342558 1.165594 4.178682
v 2.341257 1.153331 4.182609
v 2.340867 1.151590 4.183271
v 2.340241 1.151269 4.183675
v 2.337579 1.150351 4.185276
v 2.336717 1.149637 4.185905
v 2.335971 1.147209 4.186931
v 2.335083 1.137577 4.189948
v 2.333875 1.136080 4.190961
v 2.333235 1.135652 4.191401
v 2.332135 1.135622 4.191969
v 2.327360 1.141630 4.192803
v 2.309804 1.148380 4.199952
v 2.305461 1.153260 4.200866
v 2.304595 1.154575 4.200958
v 2.303030 1.156205 4.201321
v 2.301929 1.158106 4.201377
v 2.303053 1.162096 4.199742
v 2.303011 1.164661 4.199080
v 2.302203 1.169633 4.198169
v 2.301659 1.171251 4.198016
v 2.300875 1.172517 4.198079
v 2.300125 1.174112 4.198036
v 2.299743 1.176680 4.197547
v 2.300028 1.179355 4.196690
v 2.301538 1.184073 4.194665
v 2.301743 1.186166 4.194004
v 2.302574 1.189676 4.192647
v 2.306984 1.198163 4.188140
v 2.308348 1.203791 4.185947
v 2.312757 1.212720 4.181325
v 2.313803 1.213722 4.180526
v 2.315816 1.215055 4.179145
v 2.316780 1.216246 4.178337
v 2.317130 1.217780 4.177751
v 2.317488 1.222159 4.176403
v 2.318176 1.223869 4.175597
v 2.322593 1.232282 4.171107
v 2.325432 1.234622 4.169038
v 2.329848 1.233064 4.167202
v 2.329364 1.228825 4.168577
v 2.331084 1.226612 4.168290
v 2.333645 1.225096 4.167388
v 2.335658 1.222945 4.166935
v 2.336623 1.219875 4.167260
vn 0.4417 0.2307 0.8670
vn 0.4418 0.2307 0.8669
vn 0.4418 0.2309 0.8669
vn 0.4418 0.2307 0.8670
vn 0.4411 0.2307 0.8673
vn 0.4422 0.2305 0.8668
vn 0.4419 0.2307 0.8669
vn 0.4416 0.2305 0.8671
vn 0.4416 0.2307 0.8670
vn 0.4418 0.2306 0.8669
vn 0.4416 0.2307 0.8671
vn 0.4425 0.2310 0.8665
vn 0.4410 0.2310 0.8673
vn 0.4433 0.2310 0.8661
vn 0.4417 0.2306 0.8670
vn 0.4421 0.2307 0.8668
vn 0.4418 0.2308 0.8669
vn 0.4419 0.2300 0.8671
vn 0.4417 0.2308 0.8670
vn 0.4419 0.2306 0.8669
vn 0.4418 0.2318 0.8666
vn 0.4422 0.2308 0.8667
usemtl None
s off
f 10//1 23//1 17//1
f 3//1 2//1 34//1
f 2//2 1//2 37//2
f 37//3 1//3 38//3
f 1//4 49//4 39//4
f 49//5 48//5 47//5
f 46//6 49//6 47//6
f 45//7 44//7 43//7
f 49//4 46//4 39//4
f 1//8 39//8 38//8
f 45//9 43//9 42//9
f 46//10 45//10 41//10
f 4//4 3//4 33//4
f 6//11 5//11 9//11
f 5//1 4//1 24//1
f 9//12 5//12 10//12
f 8//13 7//13 6//13
f 9//7 8//7 6//7
f 2//9 37//9 35//9
f 45//1 42//1 41//1
f 41//3 40//3 46//3
f 40//1 39//1 46//1
f 10//1 5//1 23//1
f 37//14 36//14 35//14
f 2//1 35//1 34//1
f 33//4 3//4 34//4
f 5//15 24//15 23//15
f 33//1 32//1 4//1
f 32//2 31//2 4//2
f 30//1 29//1 25//1
f 29//16 28//16 25//16
f 31//17 30//17 4//17
f 13//18 12//18 15//18
f 12//19 11//19 16//19
f 11//20 10//20 16//20
f 4//1 30//1 24//1
f 24//16 30//16 25//16
f 28//6 27//6 26//6
f 28//13 26//13 25//13
f 14//21 13//21 15//21
f 12//2 16//2 15//2
f 18//9 17//9 22//9
f 17//1 16//1 10//1
f 21//16 20//16 22//16
f 20//2 19//2 22//2
f 19//7 18//7 22//7
f 22//22 17//22 23//22
