# Blender v2.81 (sub 16) OBJ File: ''
# www.blender.org
mtllib Samoa.mtl
o 0_Samoa_sphere.001
v -4.726916 -1.187535 0.721112
v -4.726223 -1.189742 0.722143
v -4.725060 -1.188812 0.730891
v -4.722383 -1.193649 0.740456
v -4.719723 -1.200860 0.746327
v -4.718605 -1.207033 0.744032
v -4.718336 -1.207801 0.744561
v -4.717719 -1.209845 0.745363
v -4.718456 -1.210038 0.740412
v -4.720959 -1.208641 0.726728
v -4.722081 -1.209396 0.718498
v -4.722761 -1.209063 0.714709
v -4.723865 -1.207057 0.710780
v -4.723969 -1.208749 0.707558
v -4.724522 -1.208561 0.704352
v -4.725840 -1.207069 0.698292
v -4.726265 -1.207359 0.695167
v -4.726985 -1.209878 0.686810
v -4.727313 -1.209816 0.684827
v -4.727707 -1.209278 0.683159
v -4.728144 -1.208197 0.682035
v -4.728598 -1.206559 0.681651
v -4.729117 -1.204892 0.680900
v -4.729604 -1.204100 0.679029
v -4.730420 -1.203231 0.675194
v -4.731387 -1.201423 0.671830
v -4.732107 -1.200396 0.668836
v -4.732656 -1.200147 0.665746
v -4.733617 -1.201163 0.658146
v -4.734176 -1.201059 0.654771
v -4.734888 -1.200033 0.651833
v -4.735815 -1.197944 0.649145
v -4.737928 -1.191656 0.645333
v -4.738791 -1.189344 0.643394
v -4.738934 -1.189969 0.641538
v -4.739140 -1.189975 0.640233
v -4.740787 -1.185226 0.637037
v -4.741464 -1.183854 0.634839
v -4.742265 -1.183351 0.630539
v -4.743290 -1.181609 0.626706
v -4.744342 -1.177487 0.626318
v -4.745163 -1.172968 0.627981
v -4.745533 -1.169918 0.630272
v -4.744450 -1.164372 0.645518
v -4.742496 -1.161677 0.661941
v -4.741020 -1.162022 0.670736
v -4.739317 -1.163765 0.678839
v -4.732457 -1.174415 0.706011
v -4.730906 -1.175346 0.714390
v -4.729883 -1.176855 0.718568
v -4.728750 -1.179378 0.721893
v -4.727588 -1.183011 0.723728
v -4.727169 -1.185014 0.723336
v -4.727096 -1.186203 0.721992
vn -0.9609 -0.2311 0.1524
vn -0.9611 -0.2307 0.1522
vn -0.9610 -0.2307 0.1522
vn -0.9610 -0.2308 0.1522
vn -0.9610 -0.2307 0.1523
vn -0.9610 -0.2311 0.1521
vn -0.9609 -0.2310 0.1523
vn -0.9611 -0.2307 0.1521
vn -0.9609 -0.2313 0.1522
vn -0.9611 -0.2306 0.1522
vn -0.9611 -0.2304 0.1524
vn -0.9610 -0.2308 0.1521
vn -0.9610 -0.2309 0.1522
vn -0.9611 -0.2307 0.1520
vn -0.9610 -0.2309 0.1524
vn -0.9609 -0.2315 0.1521
vn -0.9609 -0.2313 0.1521
vn -0.9610 -0.2308 0.1523
vn -0.9611 -0.2305 0.1522
vn -0.9609 -0.2314 0.1522
vn -0.9611 -0.2303 0.1522
vn -0.9610 -0.2308 0.1524
vn -0.9610 -0.2306 0.1523
usemtl None
s off
f 26//1 25//1 24//1
f 5//2 4//2 6//2
f 4//3 3//3 10//3
f 4//4 10//4 9//4
f 3//5 2//5 10//5
f 8//6 7//6 9//6
f 7//7 6//7 9//7
f 6//8 4//8 9//8
f 12//3 11//3 2//3
f 11//2 10//2 2//2
f 15//9 14//9 13//9
f 13//2 12//2 2//2
f 2//2 1//2 13//2
f 16//10 15//10 13//10
f 54//10 53//10 52//10
f 16//3 13//3 1//3
f 1//11 54//11 50//11
f 54//12 52//12 51//12
f 51//13 50//13 54//13
f 50//10 49//10 1//10
f 49//10 48//10 1//10
f 48//3 47//3 24//3
f 47//4 46//4 27//4
f 28//3 45//3 33//3
f 46//3 45//3 28//3
f 45//3 44//3 34//3
f 44//3 43//3 38//3
f 43//14 42//14 38//14
f 44//8 38//8 37//8
f 42//15 41//15 39//15
f 41//10 40//10 39//10
f 39//8 38//8 42//8
f 37//16 36//16 35//16
f 37//3 35//3 34//3
f 45//4 34//4 33//4
f 34//5 44//5 37//5
f 33//10 32//10 29//10
f 32//13 31//13 30//13
f 32//17 30//17 29//17
f 46//4 28//4 27//4
f 17//18 16//18 48//18
f 16//3 1//3 48//3
f 19//19 18//19 22//19
f 18//3 17//3 23//3
f 22//20 18//20 23//20
f 21//21 20//21 22//21
f 20//22 19//22 22//22
f 33//23 29//23 28//23
f 23//2 17//2 48//2
f 47//2 27//2 26//2
f 47//3 26//3 24//3
f 24//3 23//3 48//3
o 1_Samoa_sphere.001
v -4.748560 -1.133343 0.666599
v -4.743735 -1.146165 0.677624
v -4.743510 -1.147007 0.677775
v -4.743033 -1.149266 0.677359
v -4.742802 -1.150144 0.677490
v -4.742429 -1.151029 0.678503
v -4.741819 -1.151989 0.680895
v -4.741457 -1.152957 0.681713
v -4.740854 -1.155067 0.682327
v -4.740291 -1.157210 0.682633
v -4.739188 -1.161805 0.682629
v -4.738147 -1.165618 0.683419
v -4.737325 -1.167933 0.685102
v -4.736555 -1.170446 0.686154
v -4.735675 -1.174865 0.685011
v -4.735264 -1.177969 0.682904
v -4.735053 -1.180405 0.680542
v -4.734674 -1.183276 0.678585
v -4.733715 -1.187875 0.677666
v -4.732553 -1.192437 0.678092
v -4.732090 -1.194491 0.677898
v -4.732077 -1.195364 0.676659
v -4.732832 -1.195311 0.671967
v -4.733262 -1.194875 0.669917
v -4.733819 -1.193905 0.667868
v -4.734925 -1.191288 0.664850
v -4.735639 -1.189335 0.663305
v -4.736188 -1.188305 0.661399
v -4.736771 -1.188597 0.657276
v -4.737508 -1.192110 0.647294
v -4.741527 -1.195320 0.617061
v -4.742137 -1.193993 0.615217
v -4.743069 -1.191371 0.613311
v -4.743670 -1.189853 0.611814
v -4.744569 -1.188144 0.608726
v -4.745085 -1.186963 0.607259
v -4.745593 -1.185241 0.606666
v -4.746081 -1.183435 0.606319
v -4.747293 -1.179508 0.604621
v -4.747919 -1.177129 0.604275
v -4.748628 -1.174767 0.603378
v -4.749337 -1.173290 0.601140
v -4.749994 -1.172264 0.598552
v -4.750582 -1.171121 0.596565
v -4.752742 -1.164729 0.592622
v -4.753838 -1.161744 0.590223
v -4.755066 -1.159866 0.585319
v -4.755715 -1.158414 0.583421
v -4.756809 -1.155730 0.580581
v -4.757132 -1.154763 0.580010
v -4.757649 -1.152711 0.579851
v -4.757974 -1.151665 0.579392
v -4.758285 -1.151073 0.578323
v -4.758626 -1.151319 0.575795
v -4.758861 -1.150994 0.574804
v -4.759812 -1.148422 0.572698
v -4.761321 -1.143973 0.569915
v -4.762505 -1.139728 0.568876
v -4.762480 -1.137782 0.571980
v -4.761469 -1.137697 0.578495
v -4.759731 -1.140288 0.585540
v -4.758673 -1.140402 0.592047
v -4.758151 -1.139744 0.596341
v -4.758030 -1.137192 0.600972
v -4.757824 -1.136591 0.603184
v -4.757249 -1.136155 0.607478
v -4.757011 -1.135514 0.609947
v -4.756824 -1.132789 0.615265
v -4.756655 -1.131989 0.617543
v -4.754265 -1.131803 0.632915
v -4.753788 -1.131141 0.636928
v -4.753147 -1.128284 0.645309
v -4.752634 -1.127404 0.649877
v -4.751960 -1.127388 0.654159
v -4.751100 -1.128114 0.658489
v -4.749985 -1.129979 0.662699
vn -0.9610 -0.2308 0.1523
vn -0.9610 -0.2307 0.1522
vn -0.9611 -0.2307 0.1521
vn -0.9610 -0.2308 0.1521
vn -0.9611 -0.2306 0.1521
vn -0.9609 -0.2313 0.1523
vn -0.9613 -0.2297 0.1522
vn -0.9610 -0.2308 0.1522
vn -0.9611 -0.2306 0.1522
vn -0.9610 -0.2310 0.1523
vn -0.9611 -0.2305 0.1521
vn -0.9609 -0.2313 0.1522
vn -0.9609 -0.2313 0.1524
vn -0.9613 -0.2310 0.1504
vn -0.9610 -0.2307 0.1523
vn -0.9612 -0.2294 0.1530
vn -0.9611 -0.2304 0.1521
vn -0.9610 -0.2309 0.1522
vn -0.9610 -0.2311 0.1522
vn -0.9611 -0.2302 0.1524
vn -0.9611 -0.2308 0.1521
vn -0.9611 -0.2304 0.1522
vn -0.9610 -0.2310 0.1522
vn -0.9613 -0.2295 0.1521
vn -0.9611 -0.2307 0.1515
vn -0.9611 -0.2305 0.1522
vn -0.9611 -0.2307 0.1522
vn -0.9610 -0.2307 0.1524
vn -0.9608 -0.2315 0.1524
vn -0.9612 -0.2300 0.1523
vn -0.9609 -0.2314 0.1522
vn -0.9612 -0.2300 0.1526
vn -0.9611 -0.2306 0.1519
vn -0.9611 -0.2303 0.1524
vn -0.9610 -0.2308 0.1525
vn -0.9610 -0.2311 0.1521
vn -0.9611 -0.2307 0.1520
vn -0.9611 -0.2306 0.1518
usemtl None
s off
f 99//24 97//24 96//24
f 68//25 67//25 69//25
f 67//26 66//26 69//26
f 65//27 64//27 60//27
f 64//28 63//28 60//28
f 63//29 62//29 60//29
f 60//30 62//30 61//30
f 69//25 66//25 70//25
f 66//25 65//25 82//25
f 71//31 66//31 82//31
f 71//26 70//26 66//26
f 72//32 71//32 82//32
f 75//33 74//33 76//33
f 74//34 73//34 77//34
f 76//35 74//35 77//35
f 73//32 72//32 81//32
f 82//25 65//25 59//25
f 65//36 60//36 59//36
f 58//37 57//37 56//37
f 58//38 56//38 55//38
f 72//25 82//25 81//25
f 59//39 58//39 55//39
f 82//25 59//25 83//25
f 78//40 77//40 73//40
f 80//31 79//31 73//31
f 79//41 78//41 73//41
f 81//42 80//42 73//42
f 55//43 130//43 129//43
f 129//44 128//44 55//44
f 128//32 127//32 55//32
f 127//45 126//45 55//45
f 126//31 125//31 55//31
f 124//46 123//46 122//46
f 124//25 122//25 95//25
f 122//25 121//25 95//25
f 125//38 124//38 84//38
f 125//31 59//31 55//31
f 83//25 59//25 125//25
f 121//24 120//24 96//24
f 124//25 95//25 84//25
f 120//42 119//42 117//42
f 119//47 118//47 117//47
f 83//25 125//25 84//25
f 120//25 117//25 99//25
f 85//25 84//25 87//25
f 85//48 87//48 86//48
f 95//38 121//38 96//38
f 117//25 116//25 100//25
f 87//49 84//49 88//49
f 116//32 115//32 105//32
f 96//25 120//25 99//25
f 115//31 114//31 107//31
f 114//50 113//50 111//50
f 113//51 112//51 111//51
f 111//25 110//25 114//25
f 110//52 109//52 108//52
f 107//24 110//24 108//24
f 110//38 107//38 114//38
f 84//53 95//53 94//53
f 90//54 89//54 91//54
f 89//50 88//50 92//50
f 91//55 89//55 92//55
f 88//31 84//31 94//31
f 115//56 107//56 106//56
f 94//57 93//57 92//57
f 115//58 106//58 105//58
f 105//46 104//46 103//46
f 103//59 102//59 105//59
f 102//41 101//41 116//41
f 105//25 102//25 116//25
f 101//25 100//25 116//25
f 94//60 92//60 88//60
f 99//61 98//61 97//61
f 100//31 99//31 117//31
