# Blender v2.81 (sub 16) OBJ File: ''
# www.blender.org
mtllib San Marino.mtl
o 0_San_Marino_sphere.001
v 3.500339 3.433987 -0.769823
v 3.499414 3.436342 -0.762961
v 3.495875 3.441194 -0.759144
v 3.490950 3.446729 -0.760391
v 3.488259 3.449357 -0.763214
v 3.486473 3.451100 -0.765088
v 3.483130 3.453877 -0.771222
v 3.481449 3.454782 -0.776954
v 3.482884 3.452761 -0.778789
v 3.485777 3.449116 -0.780177
v 3.489009 3.445268 -0.780525
v 3.491127 3.442981 -0.779483
v 3.491404 3.442683 -0.779347
v 3.491899 3.442184 -0.778908
v 3.492441 3.441587 -0.778702
v 3.493056 3.440862 -0.778732
v 3.493589 3.440182 -0.779032
v 3.498441 3.435014 -0.776268
vn 0.7546 0.6449 -0.1214
vn 0.7551 0.6447 -0.1196
vn 0.7549 0.6448 -0.1195
vn 0.7549 0.6448 -0.1196
vn 0.7550 0.6447 -0.1198
vn 0.7550 0.6448 -0.1196
vn 0.7550 0.6448 -0.1193
vn 0.7550 0.6447 -0.1196
vn 0.7549 0.6449 -0.1195
usemtl None
s off
f 14//1 13//1 12//1
f 10//2 9//2 7//2
f 9//3 8//3 7//3
f 7//4 6//4 10//4
f 12//5 6//5 14//5
f 6//4 5//4 14//4
f 5//6 4//6 15//6
f 14//7 5//7 15//7
f 4//6 3//6 15//6
f 3//8 2//8 15//8
f 2//3 1//3 16//3
f 1//6 18//6 16//6
f 18//7 17//7 16//7
f 16//9 15//9 2//9
f 6//4 12//4 11//4
f 11//6 10//6 6//6
