# Blender v2.81 (sub 16) OBJ File: ''
# www.blender.org
mtllib San Marino.mtl
o 0_San_Marino_sphere.001
v 3.518672 3.466314 -0.775516
v 3.518405 3.467016 -0.773504
v 3.517318 3.468377 -0.772353
v 3.515758 3.469912 -0.772668
v 3.514883 3.470637 -0.773482
v 3.514295 3.471124 -0.774027
v 3.513171 3.471889 -0.775858
v 3.512583 3.472122 -0.777600
v 3.513051 3.471523 -0.778160
v 3.513999 3.470461 -0.778580
v 3.515052 3.469359 -0.778681
v 3.515739 3.468720 -0.778364
v 3.515829 3.468637 -0.778323
v 3.515989 3.468500 -0.778191
v 3.516163 3.468334 -0.778128
v 3.516359 3.468132 -0.778137
v 3.516528 3.467939 -0.778227
v 3.518064 3.466537 -0.777406
vn 0.7089 0.6897 -0.1478
vn 0.7084 0.6904 -0.1466
vn 0.7082 0.6906 -0.1467
vn 0.7087 0.6901 -0.1467
vn 0.7086 0.6903 -0.1465
vn 0.7085 0.6903 -0.1467
vn 0.7081 0.6906 -0.1469
vn 0.7091 0.6894 -0.1477
vn 0.7084 0.6904 -0.1467
vn 0.7092 0.6879 -0.1546
vn 0.7091 0.6897 -0.1466
vn 0.7086 0.6902 -0.1465
vn 0.7098 0.6889 -0.1471
vn 0.7085 0.6902 -0.1469
usemtl None
s off
f 18//1 17//1 16//1
f 10//2 9//2 7//2
f 9//3 8//3 7//3
f 7//4 6//4 10//4
f 14//5 6//5 5//5
f 5//6 4//6 15//6
f 4//4 3//4 15//4
f 6//7 14//7 12//7
f 14//8 5//8 15//8
f 11//9 10//9 6//9
f 14//10 13//10 12//10
f 12//11 11//11 6//11
f 3//6 2//6 15//6
f 2//12 1//12 16//12
f 15//13 2//13 16//13
f 1//14 18//14 16//14
