# Blender v2.81 (sub 16) OBJ File: ''
# www.blender.org
mtllib Sao Tome and Principe.mtl
o 0_Sao_Tome_and_Principe_sphere.001
v 4.914016 -0.000001 -0.542909
v 4.907606 -0.000001 -0.583384
v 4.908697 -0.012903 -0.570081
v 4.909876 -0.012971 -0.562601
v 4.910049 -0.012778 -0.561604
v 4.909789 -0.021162 -0.559084
v 4.909914 -0.024391 -0.556691
v 4.910662 -0.020640 -0.553835
v 4.910610 -0.024730 -0.552128
v 4.910938 -0.025230 -0.549808
v 4.911470 -0.022940 -0.547583
v 4.912003 -0.018747 -0.546307
v 4.911968 -0.018450 -0.546675
v 4.912094 -0.014455 -0.547862
v 4.912223 -0.012572 -0.547983
v 4.912512 -0.010215 -0.547330
v 4.912729 -0.009191 -0.546466
v 4.912904 -0.008676 -0.545623
v 4.913072 -0.007818 -0.544989
v 4.907609 -0.000241 -0.583242
v 4.907785 -0.000771 -0.581870
v 4.908077 -0.001249 -0.579785
v 4.908209 -0.002220 -0.578469
v 4.907657 -0.006225 -0.579970
v 4.907847 -0.007160 -0.578300
v 4.908208 -0.007641 -0.575787
v 4.908443 -0.008187 -0.574028
v 4.908683 -0.012187 -0.570527
v 4.913569 0.017670 -0.536951
v 4.913605 0.019846 -0.535646
v 4.913297 0.021847 -0.536596
v 4.913089 0.023836 -0.536921
v 4.912738 0.028416 -0.536858
v 4.912522 0.030232 -0.537317
v 4.911448 0.035568 -0.541450
v 4.911149 0.037667 -0.542296
v 4.911001 0.039154 -0.542490
v 4.910805 0.040627 -0.542995
v 4.908916 0.049051 -0.550733
v 4.908569 0.049963 -0.552472
v 4.906971 0.053118 -0.561000
v 4.905339 0.059450 -0.568152
v 4.903746 0.064569 -0.575669
v 4.902325 0.063855 -0.584992
v 4.901774 0.060198 -0.590292
v 4.901383 0.054210 -0.595736
v 4.901228 0.047278 -0.600157
v 4.901367 0.040762 -0.602518
v 4.901720 0.034411 -0.603445
v 4.902041 0.030658 -0.603284
v 4.902537 0.026372 -0.602279
v 4.903199 0.021851 -0.600351
v 4.903737 0.019040 -0.598347
v 4.905058 0.013732 -0.592643
v 4.905783 0.010310 -0.589766
vn 0.9847 -0.0773 -0.1559
vn 0.9847 0.0775 -0.1559
vn 0.9847 -0.0773 -0.1560
vn 0.9846 -0.0779 -0.1563
vn 0.9846 -0.0763 -0.1570
vn 0.9847 -0.0776 -0.1559
vn 0.9846 -0.0784 -0.1560
vn 0.9844 -0.0798 -0.1566
vn 0.9847 -0.0789 -0.1556
vn 0.9847 -0.0769 -0.1561
vn 0.9847 -0.0775 -0.1560
vn 0.9847 -0.0776 -0.1558
vn 0.9847 -0.0771 -0.1560
vn 0.9847 -0.0776 -0.1561
vn 0.9848 -0.0773 -0.1556
vn 0.9847 -0.0780 -0.1558
vn 0.9847 -0.0782 -0.1558
vn 0.9847 -0.0774 -0.1559
vn 0.9846 -0.0789 -0.1559
vn 0.9847 -0.0776 -0.1560
vn 0.9846 -0.0788 -0.1559
vn 0.9847 -0.0779 -0.1559
vn 0.9847 0.0775 -0.1560
vn 0.9847 0.0774 -0.1560
vn 0.9847 0.0776 -0.1560
vn 0.9847 0.0782 -0.1556
vn 0.9847 0.0773 -0.1559
vn 0.9847 0.0775 -0.1561
vn 0.9847 0.0777 -0.1557
vn 0.9847 0.0774 -0.1559
vn 0.9847 0.0778 -0.1559
vn 0.9847 0.0777 -0.1560
vn 0.9847 0.0776 -0.1559
vn 0.9847 0.0774 -0.1562
vn 0.9846 0.0783 -0.1565
vn 0.9848 0.0776 -0.1556
vn 0.9848 0.0777 -0.1555
usemtl None
s off
f 8//1 11//1 9//1
f 35//2 32//2 29//2
f 2//3 1//3 22//3
f 1//4 19//4 17//4
f 19//5 18//5 17//5
f 1//6 17//6 5//6
f 22//7 1//7 23//7
f 21//8 20//8 2//8
f 22//9 21//9 2//9
f 17//10 16//10 5//10
f 23//11 1//11 5//11
f 25//12 24//12 23//12
f 16//13 15//13 5//13
f 26//14 25//14 23//14
f 27//15 26//15 23//15
f 15//16 14//16 8//16
f 5//11 15//11 8//11
f 13//17 12//17 11//17
f 14//18 13//18 8//18
f 28//1 27//1 4//1
f 27//3 23//3 5//3
f 4//19 3//19 28//19
f 7//20 6//20 8//20
f 6//11 5//11 8//11
f 5//21 4//21 27//21
f 13//6 11//6 8//6
f 11//22 10//22 9//22
f 1//23 2//23 29//23
f 2//24 55//24 29//24
f 54//25 53//25 49//25
f 53//26 52//26 51//26
f 55//27 54//27 41//27
f 29//23 55//23 35//23
f 31//28 30//28 29//28
f 35//24 55//24 36//24
f 53//24 51//24 49//24
f 51//29 50//29 49//29
f 49//24 48//24 54//24
f 48//25 47//25 41//25
f 47//23 46//23 41//23
f 46//30 45//30 42//30
f 41//25 46//25 42//25
f 45//31 44//31 42//31
f 44//32 43//32 42//32
f 41//24 40//24 36//24
f 40//33 39//33 36//33
f 39//34 38//34 36//34
f 38//35 37//35 36//35
f 35//36 34//36 33//36
f 41//23 36//23 55//23
f 48//23 41//23 54//23
f 32//37 31//37 29//37
f 35//23 33//23 32//23
o 1_Sao_Tome_and_Principe_sphere.001
v 4.885759 0.138894 -0.652301
v 4.886503 0.128394 -0.652823
v 4.887587 0.119302 -0.650498
v 4.888302 0.114771 -0.648232
v 4.888978 0.112888 -0.644896
v 4.889941 0.112026 -0.639244
v 4.890402 0.109466 -0.637606
v 4.890674 0.105586 -0.637821
v 4.891128 0.100759 -0.637349
v 4.891183 0.102455 -0.636163
v 4.891148 0.105767 -0.634739
v 4.891160 0.107119 -0.633992
v 4.891733 0.105848 -0.631005
v 4.892333 0.103894 -0.628185
v 4.892404 0.111138 -0.624137
v 4.893219 0.113329 -0.617902
v 4.894217 0.113828 -0.611355
v 4.894822 0.116312 -0.606298
v 4.894009 0.130268 -0.604499
v 4.893332 0.138672 -0.604593
v 4.892724 0.137957 -0.608790
v 4.891295 0.141142 -0.616230
v 4.890385 0.145487 -0.619814
v 4.889769 0.151286 -0.620824
v 4.889180 0.158969 -0.620726
v 4.888102 0.168062 -0.623014
v 4.886551 0.175401 -0.629159
v 4.884947 0.179112 -0.637444
v 4.883729 0.177238 -0.646060
v 4.881745 0.176159 -0.659126
v 4.881100 0.173832 -0.664356
v 4.881406 0.167159 -0.665743
v 4.881988 0.164935 -0.663172
v 4.883007 0.162720 -0.657839
v 4.884104 0.159526 -0.652499
v 4.884972 0.154257 -0.649638
v 4.883960 0.153143 -0.656582
v 4.883244 0.149782 -0.662768
v 4.883152 0.146221 -0.665117
v 4.883961 0.144583 -0.660827
v 4.885156 0.142970 -0.654086
vn 0.9847 0.0771 -0.1560
vn 0.9848 0.0774 -0.1558
vn 0.9847 0.0774 -0.1559
vn 0.9847 0.0775 -0.1560
vn 0.9847 0.0776 -0.1559
vn 0.9847 0.0775 -0.1561
vn 0.9847 0.0774 -0.1560
vn 0.9847 0.0776 -0.1560
vn 0.9847 0.0776 -0.1561
vn 0.9847 0.0775 -0.1559
vn 0.9847 0.0777 -0.1559
vn 0.9848 0.0771 -0.1558
vn 0.9847 0.0773 -0.1562
vn 0.9847 0.0773 -0.1560
vn 0.9847 0.0778 -0.1560
usemtl None
s off
f 67//38 66//38 62//38
f 87//39 86//39 88//39
f 86//40 85//40 88//40
f 84//41 83//41 90//41
f 83//41 82//41 90//41
f 85//42 84//42 89//42
f 89//43 88//43 85//43
f 82//41 81//41 91//41
f 81//44 80//44 91//44
f 80//45 79//45 91//45
f 82//41 91//41 90//41
f 90//40 89//40 84//40
f 93//46 92//46 95//46
f 92//47 91//47 96//47
f 95//41 92//41 96//41
f 79//44 78//44 91//44
f 78//46 77//46 61//46
f 91//45 78//45 56//45
f 94//45 93//45 95//45
f 56//41 78//41 57//41
f 76//42 75//42 74//42
f 77//40 76//40 74//40
f 77//47 74//47 71//47
f 91//47 56//47 96//47
f 74//42 73//42 72//42
f 74//44 72//44 71//44
f 58//48 57//48 61//48
f 61//47 57//47 78//47
f 70//47 77//47 71//47
f 70//47 69//47 68//47
f 70//44 68//44 67//44
f 77//41 70//41 61//41
f 59//49 58//49 60//49
f 61//47 60//47 58//47
f 64//50 63//50 65//50
f 63//45 62//45 66//45
f 65//45 63//45 66//45
f 62//51 61//51 70//51
f 70//52 67//52 62//52
