# Blender v2.81 (sub 16) OBJ File: ''
# www.blender.org
mtllib Sao Tome and Principe.mtl
o 0_Sao_Tome_and_Principe_sphere.001
v 4.966107 0.006625 -0.576030
v 4.966433 0.006552 -0.573090
v 4.966475 0.006620 -0.572695
v 4.966604 0.003438 -0.571761
v 4.966715 0.002209 -0.570844
v 4.966832 0.003592 -0.569687
v 4.966914 0.002044 -0.569051
v 4.967016 0.001839 -0.568141
v 4.967110 0.002678 -0.567235
v 4.967158 0.004250 -0.566678
v 4.967142 0.004365 -0.566822
v 4.967083 0.005892 -0.567248
v 4.967074 0.006612 -0.567275
v 4.967099 0.007513 -0.566986
v 4.967135 0.007902 -0.566626
v 4.967172 0.008096 -0.566281
v 4.967199 0.008423 -0.566014
v 4.967467 0.018531 -0.562861
v 4.967515 0.019392 -0.562363
v 4.967464 0.020181 -0.562771
v 4.967441 0.020962 -0.562929
v 4.967422 0.022754 -0.562960
v 4.967394 0.023460 -0.563168
v 4.967189 0.025512 -0.564878
v 4.967144 0.026315 -0.565237
v 4.967129 0.026884 -0.565330
v 4.967100 0.027445 -0.565545
v 4.966732 0.030595 -0.568658
v 4.966654 0.030927 -0.569342
v 4.966279 0.032052 -0.572658
v 4.965956 0.034341 -0.575417
v 4.965627 0.036149 -0.578268
v 4.965244 0.035814 -0.581757
v 4.965036 0.034450 -0.583737
v 4.964828 0.032234 -0.585781
v 4.964664 0.029670 -0.587457
v 4.964581 0.027254 -0.588373
v 4.964558 0.024886 -0.588759
v 4.964573 0.023480 -0.588723
v 4.964624 0.021864 -0.588372
v 4.964715 0.020148 -0.587672
v 4.964806 0.019074 -0.586928
v 4.965060 0.017026 -0.584774
v 4.965191 0.015691 -0.583679
v 4.965502 0.011523 -0.581166
v 4.965563 0.011313 -0.580628
v 4.965654 0.011121 -0.579812
v 4.965714 0.010742 -0.579296
v 4.965662 0.009217 -0.579884
v 4.965736 0.008852 -0.579232
v 4.965846 0.008656 -0.578251
v 4.965924 0.008439 -0.577563
v 4.966086 0.006900 -0.576202
vn 0.9939 0.0078 -0.1098
vn 0.9940 0.0083 -0.1094
vn 0.9939 0.0079 -0.1097
vn 0.9939 0.0079 -0.1098
vn 0.9939 0.0074 -0.1098
vn 0.9939 0.0080 -0.1098
vn 0.9939 0.0077 -0.1098
vn 0.9939 0.0069 -0.1098
vn 0.9939 0.0076 -0.1097
vn 0.9939 0.0062 -0.1100
vn 0.9940 0.0096 -0.1089
vn 0.9935 0.0091 -0.1131
vn 0.9938 0.0086 -0.1108
vn 0.9939 0.0078 -0.1097
vn 0.9939 0.0079 -0.1096
vn 0.9938 0.0080 -0.1108
vn 0.9940 0.0088 -0.1092
vn 0.9939 0.0077 -0.1101
vn 0.9939 0.0076 -0.1099
vn 0.9939 0.0086 -0.1099
vn 0.9939 0.0081 -0.1096
vn 0.9939 0.0082 -0.1096
vn 0.9940 0.0076 -0.1092
vn 0.9939 0.0068 -0.1099
vn 0.9940 0.0077 -0.1095
vn 0.9941 0.0081 -0.1084
vn 0.9939 0.0081 -0.1098
vn 0.9937 0.0152 -0.1113
vn 0.9939 0.0093 -0.1098
vn 0.9939 0.0061 -0.1099
vn 0.9939 0.0083 -0.1098
vn 0.9939 0.0084 -0.1100
vn 0.9939 0.0077 -0.1099
vn 0.9939 0.0120 -0.1097
vn 0.9939 0.0076 -0.1098
vn 0.9940 0.0035 -0.1096
vn 0.9939 0.0083 -0.1097
vn 0.9940 0.0071 -0.1096
vn 0.9939 0.0086 -0.1097
vn 0.9943 0.0080 -0.1065
vn 0.9939 0.0080 -0.1099
usemtl None
s off
f 11//1 9//1 6//1
f 38//2 37//2 43//2
f 37//3 36//3 30//3
f 43//4 37//4 30//4
f 36//5 35//5 30//5
f 35//4 34//4 31//4
f 30//6 35//6 31//6
f 34//7 33//7 31//7
f 33//8 32//8 31//8
f 30//9 29//9 25//9
f 29//10 28//10 25//10
f 28//11 27//11 25//11
f 27//12 26//12 25//12
f 24//13 23//13 22//13
f 30//14 25//14 44//14
f 25//15 24//15 44//15
f 39//16 38//16 40//16
f 41//17 40//17 42//17
f 42//18 40//18 38//18
f 43//19 42//19 38//19
f 46//20 45//20 44//20
f 47//21 46//21 44//21
f 44//22 43//22 30//22
f 24//23 22//23 21//23
f 24//14 21//14 18//14
f 44//3 24//3 47//3
f 48//24 47//24 24//24
f 50//6 49//6 48//6
f 51//25 50//25 48//25
f 48//3 24//3 18//3
f 21//26 20//26 18//26
f 20//27 19//27 18//27
f 18//14 17//14 3//14
f 17//28 16//28 15//28
f 17//29 15//29 3//29
f 51//30 48//30 52//30
f 52//31 48//31 3//31
f 3//32 15//32 14//32
f 48//14 18//14 3//14
f 53//33 52//33 2//33
f 2//34 1//34 53//34
f 5//35 4//35 6//35
f 4//7 3//7 6//7
f 3//36 2//36 52//36
f 14//37 13//37 3//37
f 3//14 13//14 6//14
f 13//38 12//38 6//38
f 8//14 7//14 9//14
f 7//39 6//39 9//39
f 11//40 10//40 9//40
f 6//41 12//41 11//41
o 1_Sao_Tome_and_Principe_sphere.001
v 4.955605 0.140925 -0.646727
v 4.955638 0.138904 -0.646836
v 4.955743 0.137130 -0.646395
v 4.955826 0.136236 -0.645959
v 4.955927 0.135860 -0.645311
v 4.956088 0.135683 -0.644211
v 4.956146 0.135172 -0.643889
v 4.956159 0.134397 -0.643927
v 4.956196 0.133427 -0.643830
v 4.956221 0.133766 -0.643598
v 4.956244 0.134429 -0.643323
v 4.956259 0.134699 -0.643179
v 4.956348 0.134440 -0.642591
v 4.956437 0.134043 -0.642032
v 4.956514 0.135488 -0.641254
v 4.956676 0.135918 -0.640037
v 4.956857 0.136010 -0.638751
v 4.956985 0.136499 -0.637766
v 4.956960 0.139246 -0.637485
v 4.956913 0.140877 -0.637546
v 4.956801 0.140740 -0.638358
v 4.956579 0.141354 -0.639811
v 4.956459 0.142185 -0.640516
v 4.956403 0.143287 -0.640727
v 4.956368 0.144735 -0.640731
v 4.956262 0.146428 -0.641192
v 4.956062 0.147774 -0.642367
v 4.955825 0.148441 -0.643925
v 4.955604 0.148089 -0.645533
v 4.955264 0.147876 -0.647965
v 4.955135 0.147445 -0.648941
v 4.955125 0.146221 -0.649214
v 4.955203 0.145813 -0.648739
v 4.955353 0.145408 -0.647746
v 4.955510 0.144818 -0.646747
v 4.955609 0.143835 -0.646211
v 4.955428 0.143623 -0.647523
v 4.955276 0.142989 -0.648695
v 4.955227 0.142317 -0.649146
v 4.955350 0.142007 -0.648339
v 4.955539 0.141702 -0.647063
vn 0.9896 0.0213 -0.1422
vn 0.9898 0.0240 -0.1407
vn 0.9897 0.0236 -0.1411
vn 0.9897 0.0240 -0.1411
vn 0.9898 0.0230 -0.1408
vn 0.9898 0.0235 -0.1406
vn 0.9898 0.0236 -0.1406
vn 0.9898 0.0237 -0.1408
vn 0.9897 0.0240 -0.1409
vn 0.9898 0.0232 -0.1409
vn 0.9898 0.0238 -0.1408
vn 0.9897 0.0236 -0.1409
vn 0.9898 0.0241 -0.1407
vn 0.9898 0.0231 -0.1408
vn 0.9898 0.0230 -0.1409
vn 0.9898 0.0233 -0.1409
vn 0.9897 0.0240 -0.1413
vn 0.9897 0.0244 -0.1409
vn 0.9899 0.0239 -0.1401
vn 0.9897 0.0237 -0.1414
vn 0.9898 0.0236 -0.1408
vn 0.9897 0.0239 -0.1410
vn 0.9898 0.0237 -0.1406
vn 0.9897 0.0235 -0.1409
vn 0.9898 0.0233 -0.1408
vn 0.9898 0.0236 -0.1405
vn 0.9897 0.0235 -0.1413
vn 0.9899 0.0211 -0.1403
vn 0.9897 0.0235 -0.1410
vn 0.9898 0.0222 -0.1409
vn 0.9898 0.0237 -0.1407
vn 0.9898 0.0233 -0.1404
vn 0.9898 0.0237 -0.1403
vn 0.9898 0.0235 -0.1403
vn 0.9897 0.0255 -0.1410
vn 0.9897 0.0241 -0.1410
usemtl None
s off
f 65//42 64//42 60//42
f 85//43 84//43 86//43
f 84//44 83//44 86//44
f 82//45 81//45 88//45
f 81//46 80//46 88//46
f 83//47 82//47 87//47
f 87//48 86//48 83//48
f 80//49 79//49 89//49
f 79//50 78//50 89//50
f 78//51 77//51 89//51
f 80//52 89//52 88//52
f 88//53 87//53 82//53
f 91//54 90//54 93//54
f 90//51 89//51 94//51
f 93//55 90//55 94//55
f 77//56 76//56 89//56
f 76//53 75//53 59//53
f 89//57 76//57 54//57
f 92//58 91//58 93//58
f 54//59 76//59 55//59
f 74//60 73//60 72//60
f 75//61 74//61 72//61
f 75//62 72//62 69//62
f 89//63 54//63 94//63
f 72//64 71//64 70//64
f 72//65 70//65 69//65
f 56//66 55//66 59//66
f 59//49 55//49 76//49
f 68//67 75//67 69//67
f 68//68 67//68 66//68
f 68//69 66//69 65//69
f 75//70 68//70 59//70
f 57//71 56//71 58//71
f 59//72 58//72 56//72
f 62//73 61//73 63//73
f 61//74 60//74 64//74
f 63//75 61//75 64//75
f 60//76 59//76 68//76
f 68//77 65//77 60//77
