# Blender v2.81 (sub 16) OBJ File: ''
# www.blender.org
mtllib Seychelles.mtl
o 0_Seychelles_sphere.001
v 3.391755 -0.846397 -3.574270
v 3.392309 -0.847196 -3.573548
v 3.393043 -0.846799 -3.572929
v 3.393224 -0.845855 -3.572972
v 3.392789 -0.844947 -3.573603
v 3.392078 -0.844294 -3.574444
v 3.391444 -0.844051 -3.575114
v 3.391464 -0.845102 -3.574852
vn 0.6865 -0.1640 -0.7084
vn 0.6862 -0.1638 -0.7087
vn 0.6864 -0.1642 -0.7084
vn 0.6861 -0.1646 -0.7086
vn 0.6864 -0.1643 -0.7084
usemtl None
s off
f 1//1 8//1 5//1
f 7//2 6//2 8//2
f 6//3 5//3 8//3
f 5//1 4//1 1//1
f 4//4 3//4 2//4
f 1//5 4//5 2//5
o 1_Seychelles_sphere.001
v 3.328188 -0.842328 -3.634120
v 3.328620 -0.843493 -3.633464
v 3.328770 -0.842153 -3.633629
v 3.328435 -0.841815 -3.634010
vn 0.6634 -0.1645 -0.7299
vn 0.6640 -0.1644 -0.7294
usemtl None
s off
f 11//6 9//6 12//6
f 11//7 10//7 9//7
o 2_Seychelles_sphere.001
v 3.393935 -0.815289 -3.579366
v 3.394694 -0.815745 -3.578524
v 3.396585 -0.818003 -3.576169
v 3.397638 -0.818884 -3.574944
v 3.402330 -0.818716 -3.570436
v 3.407219 -0.820904 -3.565191
v 3.411361 -0.821173 -3.561115
v 3.413770 -0.815246 -3.560155
v 3.412006 -0.817745 -3.561285
v 3.409092 -0.818872 -3.563847
v 3.406163 -0.818642 -3.566738
v 3.404368 -0.817068 -3.568843
v 3.403253 -0.817148 -3.569905
v 3.401626 -0.816404 -3.571655
v 3.400125 -0.815395 -3.573343
v 3.399391 -0.814622 -3.574233
v 3.398925 -0.815276 -3.574533
v 3.398558 -0.814624 -3.575040
v 3.397882 -0.815057 -3.575594
v 3.397159 -0.815280 -3.576244
v 3.397234 -0.814628 -3.576322
v 3.397930 -0.814060 -3.575779
v 3.398399 -0.813242 -3.575514
v 3.398721 -0.812224 -3.575438
v 3.398968 -0.811062 -3.575468
v 3.395762 -0.812831 -3.578165
v 3.394330 -0.814080 -3.579264
v 3.393656 -0.814919 -3.579722
vn 0.6865 -0.1641 -0.7084
vn 0.6868 -0.1641 -0.7081
vn 0.6866 -0.1643 -0.7082
vn 0.6863 -0.1638 -0.7086
vn 0.6864 -0.1643 -0.7084
vn 0.6863 -0.1644 -0.7084
vn 0.6868 -0.1636 -0.7082
vn 0.6861 -0.1644 -0.7087
vn 0.6865 -0.1642 -0.7084
vn 0.6866 -0.1640 -0.7083
vn 0.6864 -0.1644 -0.7084
vn 0.6865 -0.1643 -0.7084
vn 0.6865 -0.1640 -0.7084
vn 0.6862 -0.1641 -0.7087
vn 0.6867 -0.1640 -0.7082
vn 0.6864 -0.1641 -0.7085
vn 0.6863 -0.1641 -0.7086
vn 0.6860 -0.1639 -0.7089
vn 0.6865 -0.1639 -0.7084
vn 0.6864 -0.1639 -0.7085
vn 0.6864 -0.1640 -0.7085
usemtl None
s off
f 26//8 25//8 17//8
f 40//9 39//9 13//9
f 39//10 38//10 14//10
f 38//11 37//11 36//11
f 36//12 35//12 38//12
f 35//13 34//13 38//13
f 34//14 33//14 38//14
f 39//15 14//15 13//15
f 14//16 38//16 33//16
f 16//17 15//17 31//17
f 15//8 14//8 32//8
f 19//16 18//16 22//16
f 18//18 17//18 23//18
f 17//19 16//19 26//19
f 15//17 32//17 31//17
f 18//20 23//20 22//20
f 29//21 16//21 31//21
f 21//22 20//22 19//22
f 22//23 21//23 19//23
f 14//24 33//24 32//24
f 31//25 30//25 29//25
f 16//16 29//16 27//16
f 26//26 16//26 27//26
f 29//27 28//27 27//27
f 23//8 17//8 24//8
f 25//28 24//28 17//28
o 3_Seychelles_sphere.001
v 3.400183 -0.811162 -3.574267
v 3.401073 -0.812554 -3.573082
v 3.403036 -0.812886 -3.571103
v 3.405098 -0.812491 -3.569196
v 3.406277 -0.811710 -3.568234
v 3.407025 -0.812329 -3.567367
v 3.408523 -0.812035 -3.565983
v 3.409247 -0.812370 -3.565203
v 3.409396 -0.812078 -3.565127
v 3.409389 -0.811874 -3.565181
v 3.409455 -0.811756 -3.565145
v 3.409807 -0.811705 -3.564815
v 3.409871 -0.811289 -3.564850
v 3.409758 -0.811216 -3.564976
v 3.409566 -0.811245 -3.565156
v 3.407480 -0.810140 -3.567433
v 3.404976 -0.810365 -3.569807
v 3.402377 -0.810997 -3.572180
vn 0.6870 -0.1638 -0.7079
vn 0.6866 -0.1641 -0.7083
vn 0.6865 -0.1640 -0.7084
vn 0.6863 -0.1644 -0.7085
vn 0.6884 -0.1635 -0.7067
vn 0.6844 -0.1645 -0.7103
vn 0.6864 -0.1643 -0.7084
vn 0.6865 -0.1641 -0.7083
vn 0.6864 -0.1641 -0.7084
vn 0.6865 -0.1643 -0.7083
vn 0.6863 -0.1641 -0.7085
vn 0.6864 -0.1645 -0.7084
vn 0.6836 -0.1646 -0.7111
vn 0.6863 -0.1645 -0.7084
usemtl None
s off
f 51//29 50//29 47//29
f 58//30 57//30 43//30
f 57//31 56//31 45//31
f 45//32 56//32 46//32
f 55//33 54//33 52//33
f 54//34 53//34 52//34
f 56//35 55//35 47//35
f 47//36 55//36 51//36
f 42//37 41//37 58//37
f 44//30 43//30 57//30
f 43//38 42//38 58//38
f 47//38 46//38 56//38
f 45//39 44//39 57//39
f 51//40 55//40 52//40
f 50//41 49//41 48//41
f 50//42 48//42 47//42
o 4_Seychelles_sphere.001
v 2.754320 -0.622590 -4.125661
v 2.755985 -0.626080 -4.124073
v 2.755421 -0.621396 -4.125107
v 2.754750 -0.619563 -4.125808
v 2.753454 -0.618681 -4.126784
v 2.753661 -0.620648 -4.126369
vn 0.5452 -0.1175 -0.8301
vn 0.5451 -0.1176 -0.8301
vn 0.5452 -0.1177 -0.8300
vn 0.5454 -0.1174 -0.8299
usemtl None
s off
f 59//43 64//43 61//43
f 63//44 62//44 64//44
f 62//45 61//45 64//45
f 61//46 60//46 59//46
o 5_Seychelles_sphere.001
v 3.004143 -0.608759 -3.949471
v 3.003687 -0.609728 -3.949670
v 3.003968 -0.609640 -3.949472
v 3.004072 -0.609427 -3.949425
v 3.004093 -0.609133 -3.949453
vn 0.5947 -0.1166 -0.7955
vn 0.5990 -0.1175 -0.7921
vn 0.5965 -0.1167 -0.7941
usemtl None
s off
f 68//47 67//47 66//47
f 66//48 65//48 69//48
f 69//49 68//49 66//49
o 6_Seychelles_sphere.001
v 2.825315 -0.510920 -4.092756
v 2.825429 -0.511243 -4.092635
v 2.825462 -0.510868 -4.092659
v 2.825304 -0.509877 -4.092894
vn 0.5753 -0.1014 -0.8116
vn 0.5724 -0.1031 -0.8135
usemtl None
s off
f 72//50 70//50 73//50
f 72//51 71//51 70//51
o 7_Seychelles_sphere.001
v 2.971257 -0.473518 -3.992682
v 2.971175 -0.474084 -3.992671
v 2.971508 -0.473650 -3.992477
v 2.971723 -0.473202 -3.992372
v 2.972066 -0.472203 -3.992243
v 2.971460 -0.473085 -3.992585
vn 0.5976 -0.1012 -0.7954
vn 0.5980 -0.1018 -0.7950
vn 0.5980 -0.1014 -0.7950
vn 0.5968 -0.1024 -0.7958
usemtl None
s off
f 77//52 76//52 79//52
f 75//53 74//53 76//53
f 74//54 79//54 76//54
f 79//55 78//55 77//55
o 8_Seychelles_sphere.001
v 2.829065 -0.407921 -4.101805
v 2.829158 -0.407953 -4.101737
v 2.829473 -0.407543 -4.101558
v 2.829672 -0.407330 -4.101441
v 2.829667 -0.407149 -4.101464
v 2.829768 -0.407002 -4.101408
v 2.829720 -0.406887 -4.101454
v 2.829585 -0.406903 -4.101548
v 2.829420 -0.406986 -4.101655
v 2.829142 -0.407183 -4.101830
v 2.828979 -0.407478 -4.101912
v 2.829033 -0.407757 -4.101846
vn 0.5712 -0.0869 -0.8162
vn 0.5728 -0.0862 -0.8151
vn 0.5735 -0.0869 -0.8146
vn 0.5758 -0.0855 -0.8131
vn 0.5742 -0.0841 -0.8144
vn 0.5730 -0.0859 -0.8150
vn 0.5738 -0.0862 -0.8144
vn 0.5744 -0.0857 -0.8141
vn 0.5698 -0.0888 -0.8170
vn 0.5735 -0.0848 -0.8148
usemtl None
s off
f 82//56 88//56 84//56
f 90//57 89//57 82//57
f 89//58 88//58 82//58
f 88//59 87//59 84//59
f 87//60 86//60 85//60
f 84//61 87//61 85//61
f 84//62 83//62 82//62
f 82//63 81//63 91//63
f 81//64 80//64 91//64
f 91//65 90//65 82//65
o 9_Seychelles_sphere.001
v 2.831360 -0.406738 -4.100317
v 2.831421 -0.406869 -4.100261
v 2.831655 -0.406754 -4.100109
v 2.832021 -0.406688 -4.099858
v 2.832246 -0.406491 -4.099721
v 2.832364 -0.406277 -4.099661
v 2.832211 -0.406097 -4.099787
v 2.831950 -0.406212 -4.099959
v 2.831613 -0.406508 -4.100164
vn 0.5737 -0.0862 -0.8145
vn 0.5713 -0.0873 -0.8161
vn 0.5719 -0.0865 -0.8158
vn 0.5738 -0.0876 -0.8143
vn 0.5729 -0.0860 -0.8151
vn 0.5750 -0.0866 -0.8135
vn 0.5741 -0.0864 -0.8142
usemtl None
s off
f 94//66 93//66 92//66
f 92//67 100//67 94//67
f 100//68 99//68 95//68
f 94//69 100//69 95//69
f 99//70 98//70 96//70
f 98//71 97//71 96//71
f 96//72 95//72 99//72
o 10_Seychelles_sphere.001
v 2.822765 -0.403392 -4.106712
v 2.822577 -0.403549 -4.106828
v 2.822442 -0.403458 -4.106933
v 2.822257 -0.403536 -4.107054
v 2.822023 -0.404175 -4.107152
v 2.822085 -0.404423 -4.107081
v 2.822319 -0.404449 -4.106915
v 2.822624 -0.404318 -4.106714
v 2.822850 -0.404070 -4.106581
v 2.823123 -0.403939 -4.106403
v 2.823164 -0.403548 -4.106416
v 2.823022 -0.403379 -4.106534
vn 0.5721 -0.0872 -0.8155
vn 0.5721 -0.0858 -0.8157
vn 0.5734 -0.0884 -0.8145
vn 0.5743 -0.0865 -0.8140
vn 0.5704 -0.0866 -0.8168
vn 0.5741 -0.0891 -0.8139
vn 0.5731 -0.0860 -0.8150
vn 0.5710 -0.0864 -0.8164
vn 0.5728 -0.0858 -0.8152
vn 0.5745 -0.0849 -0.8141
usemtl None
s off
f 112//73 111//73 109//73
f 105//74 104//74 102//74
f 104//75 103//75 102//75
f 102//76 101//76 109//76
f 101//77 112//77 109//77
f 107//78 106//78 105//78
f 109//79 108//79 102//79
f 108//80 107//80 105//80
f 102//81 108//81 105//81
f 111//82 110//82 109//82
o 11_Seychelles_sphere.001
v 2.821644 -0.403336 -4.107506
v 2.821762 -0.403544 -4.107402
v 2.821959 -0.403440 -4.107274
v 2.822214 -0.403244 -4.107116
v 2.822353 -0.403009 -4.107043
v 2.822299 -0.402814 -4.107101
v 2.822191 -0.402840 -4.107174
v 2.822000 -0.403036 -4.107287
v 2.821751 -0.403114 -4.107455
vn 0.5743 -0.0862 -0.8141
vn 0.5715 -0.0858 -0.8161
vn 0.5754 -0.0854 -0.8134
vn 0.5707 -0.0856 -0.8167
vn 0.5750 -0.0856 -0.8137
vn 0.5745 -0.0857 -0.8140
vn 0.5718 -0.0851 -0.8160
usemtl None
s off
f 115//83 114//83 113//83
f 113//84 121//84 115//84
f 121//85 120//85 115//85
f 120//86 119//86 116//86
f 119//87 118//87 117//87
f 116//88 119//88 117//88
f 116//89 115//89 120//89
o 12_Seychelles_sphere.001
v 2.822424 -0.400801 -4.107226
v 2.822079 -0.400893 -4.107460
v 2.821781 -0.400893 -4.107669
v 2.821637 -0.400997 -4.107759
v 2.821758 -0.401362 -4.107635
v 2.821973 -0.401752 -4.107443
v 2.822441 -0.401986 -4.107089
v 2.822728 -0.402233 -4.106862
v 2.822865 -0.402259 -4.106762
v 2.822910 -0.401999 -4.106758
v 2.822858 -0.401530 -4.106844
v 2.822916 -0.401217 -4.106837
v 2.822840 -0.401022 -4.106911
v 2.822739 -0.400918 -4.106993
vn 0.5729 -0.0865 -0.8150
vn 0.5719 -0.0863 -0.8158
vn 0.5710 -0.0863 -0.8164
vn 0.5739 -0.0866 -0.8143
vn 0.5739 -0.0856 -0.8145
vn 0.5790 -0.0848 -0.8109
vn 0.5713 -0.0859 -0.8162
vn 0.5728 -0.0878 -0.8150
vn 0.5707 -0.0847 -0.8168
vn 0.5727 -0.0832 -0.8155
vn 0.5716 -0.0867 -0.8160
vn 0.5728 -0.0864 -0.8151
usemtl None
s off
f 128//90 127//90 122//90
f 125//91 124//91 126//91
f 124//92 123//92 126//92
f 123//93 122//93 127//93
f 122//94 135//94 132//94
f 135//95 134//95 132//95
f 134//96 133//96 132//96
f 132//97 131//97 128//97
f 131//98 130//98 129//98
f 128//99 131//99 129//99
f 122//100 132//100 128//100
f 127//101 126//101 123//101
o 13_Seychelles_sphere.001
v 2.790440 -0.400198 -4.129267
v 2.790824 -0.400354 -4.128999
v 2.791254 -0.400310 -4.128721
v 2.791725 -0.399777 -4.128467
v 2.791778 -0.399444 -4.128466
v 2.791548 -0.399222 -4.128641
v 2.791237 -0.399110 -4.128856
v 2.790916 -0.399221 -4.129056
v 2.790516 -0.399798 -4.129259
vn 0.5480 -0.0862 -0.8320
vn 0.5484 -0.0867 -0.8317
vn 0.5465 -0.0859 -0.8330
vn 0.5467 -0.0865 -0.8328
vn 0.5478 -0.0859 -0.8322
vn 0.5441 -0.0860 -0.8346
vn 0.5475 -0.0862 -0.8324
usemtl None
s off
f 138//102 137//102 143//102
f 136//103 144//103 137//103
f 144//104 143//104 137//104
f 143//105 142//105 138//105
f 142//106 141//106 139//106
f 141//107 140//107 139//107
f 139//108 138//108 142//108
o 14_Seychelles_sphere.001
v 2.825625 -0.402949 -4.104749
v 2.825653 -0.403108 -4.104712
v 2.825096 -0.403074 -4.105108
v 2.824216 -0.404363 -4.105590
v 2.822556 -0.405734 -4.106612
v 2.821147 -0.406855 -4.107483
v 2.820214 -0.407933 -4.108025
v 2.820599 -0.410376 -4.107495
v 2.820302 -0.410915 -4.107647
v 2.819997 -0.412946 -4.107647
v 2.820596 -0.413155 -4.107204
v 2.820749 -0.414151 -4.106990
v 2.820020 -0.415892 -4.107319
v 2.819855 -0.417109 -4.107306
v 2.819291 -0.417633 -4.107646
v 2.818992 -0.418877 -4.107725
v 2.820311 -0.418884 -4.106797
v 2.821464 -0.418182 -4.106061
v 2.822514 -0.416149 -4.105538
v 2.822867 -0.415194 -4.105391
v 2.823526 -0.414905 -4.104959
v 2.824015 -0.415322 -4.104570
v 2.824574 -0.414991 -4.104213
v 2.824315 -0.413369 -4.104567
v 2.823110 -0.413374 -4.105413
v 2.822640 -0.412909 -4.105793
v 2.823154 -0.412120 -4.105515
v 2.823520 -0.411581 -4.105315
v 2.823456 -0.410833 -4.105439
v 2.823756 -0.410252 -4.105290
v 2.824473 -0.410169 -4.104795
v 2.825249 -0.408882 -4.104385
v 2.825986 -0.407719 -4.103991
v 2.826978 -0.407593 -4.103306
v 2.828283 -0.406677 -4.102487
v 2.828953 -0.406199 -4.102067
v 2.829500 -0.406177 -4.101685
v 2.830041 -0.405939 -4.101329
v 2.830024 -0.405583 -4.101379
v 2.829650 -0.405502 -4.101650
v 2.829849 -0.405227 -4.101539
v 2.830445 -0.404999 -4.101145
v 2.831153 -0.405192 -4.100627
v 2.831776 -0.404964 -4.100214
v 2.832206 -0.404590 -4.099950
v 2.832101 -0.404283 -4.100057
v 2.831539 -0.404349 -4.100445
v 2.831349 -0.404155 -4.100599
v 2.831584 -0.403701 -4.100482
v 2.830643 -0.402539 -4.101266
v 2.830203 -0.402315 -4.101599
v 2.829316 -0.402233 -4.102231
v 2.828553 -0.401821 -4.102811
v 2.828246 -0.401118 -4.103101
v 2.828004 -0.400416 -4.103346
v 2.827619 -0.400073 -4.103653
v 2.827476 -0.399009 -4.103866
v 2.827595 -0.397509 -4.103940
v 2.827102 -0.397333 -4.104306
v 2.826598 -0.397390 -4.104654
v 2.826059 -0.397491 -4.105022
v 2.825371 -0.398302 -4.105421
v 2.825074 -0.399366 -4.105515
v 2.825353 -0.399760 -4.105278
v 2.825536 -0.400699 -4.105050
v 2.825502 -0.401400 -4.105000
v 2.825531 -0.402429 -4.104871
v 2.825299 -0.402821 -4.104992
vn 0.5738 -0.0862 -0.8145
vn 0.5729 -0.0864 -0.8150
vn 0.5726 -0.0869 -0.8152
vn 0.5729 -0.0863 -0.8151
vn 0.5732 -0.0861 -0.8149
vn 0.5728 -0.0864 -0.8151
vn 0.5731 -0.0867 -0.8149
vn 0.5728 -0.0862 -0.8151
vn 0.5730 -0.0863 -0.8150
vn 0.5741 -0.0856 -0.8143
vn 0.5727 -0.0863 -0.8152
vn 0.5728 -0.0865 -0.8151
vn 0.5728 -0.0866 -0.8151
vn 0.5728 -0.0861 -0.8151
vn 0.5730 -0.0878 -0.8148
vn 0.5724 -0.0864 -0.8154
vn 0.5729 -0.0862 -0.8151
vn 0.5727 -0.0867 -0.8152
vn 0.5730 -0.0864 -0.8150
vn 0.5740 -0.0863 -0.8143
vn 0.5733 -0.0862 -0.8148
vn 0.5724 -0.0865 -0.8154
vn 0.5731 -0.0861 -0.8150
vn 0.5739 -0.0853 -0.8145
vn 0.5727 -0.0865 -0.8152
vn 0.5730 -0.0866 -0.8150
vn 0.5723 -0.0864 -0.8155
vn 0.5727 -0.0861 -0.8152
vn 0.5720 -0.0864 -0.8157
vn 0.5729 -0.0861 -0.8151
vn 0.5727 -0.0869 -0.8152
vn 0.5724 -0.0866 -0.8154
vn 0.5741 -0.0862 -0.8143
vn 0.5730 -0.0862 -0.8150
vn 0.5731 -0.0862 -0.8150
vn 0.5729 -0.0863 -0.8150
vn 0.5718 -0.0867 -0.8158
vn 0.5722 -0.0864 -0.8155
vn 0.5723 -0.0866 -0.8155
vn 0.5728 -0.0864 -0.8152
vn 0.5723 -0.0863 -0.8155
vn 0.5724 -0.0862 -0.8154
vn 0.5726 -0.0864 -0.8153
vn 0.5727 -0.0862 -0.8152
vn 0.5722 -0.0863 -0.8156
vn 0.5722 -0.0860 -0.8156
vn 0.5735 -0.0861 -0.8147
vn 0.5725 -0.0866 -0.8153
vn 0.5722 -0.0858 -0.8156
vn 0.5701 -0.0866 -0.8170
vn 0.5730 -0.0865 -0.8149
vn 0.5734 -0.0862 -0.8147
vn 0.5721 -0.0863 -0.8156
vn 0.5718 -0.0874 -0.8158
usemtl None
s off
f 184//109 180//109 196//109
f 160//110 159//110 161//110
f 159//111 158//111 161//111
f 158//112 157//112 162//112
f 157//113 156//113 163//113
f 155//114 154//114 153//114
f 156//115 155//115 170//115
f 155//116 153//116 170//116
f 152//117 151//117 150//117
f 153//118 152//118 170//118
f 152//114 150//114 174//114
f 174//119 150//119 149//119
f 161//120 158//120 162//120
f 157//121 163//121 162//121
f 164//122 163//122 156//122
f 167//123 166//123 165//123
f 165//124 164//124 169//124
f 164//125 156//125 170//125
f 152//126 174//126 173//126
f 149//127 148//127 177//127
f 174//127 149//127 176//127
f 148//114 147//114 146//114
f 145//128 212//128 211//128
f 148//129 146//129 177//129
f 149//116 177//116 176//116
f 145//130 211//130 198//130
f 211//131 210//131 198//131
f 146//132 145//132 197//132
f 145//133 198//133 197//133
f 210//134 209//134 200//134
f 167//117 165//117 168//117
f 164//135 170//135 169//135
f 169//136 168//136 165//136
f 208//137 207//137 206//137
f 206//138 205//138 201//138
f 205//139 204//139 201//139
f 204//140 203//140 201//140
f 203//141 202//141 201//141
f 208//142 206//142 201//142
f 209//143 208//143 200//143
f 201//144 200//144 208//144
f 200//145 199//145 198//145
f 200//133 198//133 210//133
f 173//146 172//146 171//146
f 171//147 170//147 152//147
f 146//148 197//148 179//148
f 196//149 195//149 185//149
f 195//150 194//150 186//150
f 185//151 195//151 186//151
f 197//152 196//152 180//152
f 173//125 171//125 152//125
f 176//153 175//153 174//153
f 194//154 193//154 192//154
f 194//155 192//155 186//155
f 177//149 146//149 178//149
f 179//112 178//112 146//112
f 182//156 181//156 184//156
f 181//157 180//157 184//157
f 180//151 179//151 197//151
f 192//158 191//158 187//158
f 191//159 190//159 188//159
f 190//160 189//160 188//160
f 188//161 187//161 191//161
f 187//160 186//160 192//160
f 183//162 182//162 184//162
f 185//160 184//160 196//160
o 15_Seychelles_sphere.001
v 2.841754 -0.392298 -4.094542
v 2.840118 -0.392298 -4.095691
v 2.842552 -0.391204 -4.094075
v 2.843128 -0.389038 -4.093858
v 2.842902 -0.387361 -4.094162
v 2.841655 -0.387856 -4.094995
v 2.840289 -0.388997 -4.095857
v 2.839545 -0.390545 -4.096246
v 2.840132 -0.392339 -4.095678
v 2.841463 -0.392692 -4.094705
vn 0.5734 -0.0708 -0.8162
vn 0.5727 -0.0860 -0.8152
vn 0.5736 -0.0706 -0.8161
vn 0.5735 -0.0706 -0.8162
vn 0.5736 -0.0707 -0.8161
vn 0.5736 -0.0705 -0.8161
vn 0.5754 -0.0824 -0.8137
usemtl None
s off
f 216//163 215//163 218//163
f 222//164 214//164 213//164
f 213//165 214//165 220//165
f 220//166 219//166 215//166
f 219//167 218//167 215//167
f 220//168 215//168 213//168
f 218//168 217//168 216//168
f 222//169 221//169 214//169
o 16_Seychelles_sphere.001
v 2.812857 -0.379528 -4.115955
v 2.813073 -0.379528 -4.115803
v 2.813411 -0.379165 -4.115597
v 2.813178 -0.378934 -4.115781
v 2.813036 -0.379099 -4.115867
vn 0.5742 -0.0720 -0.8156
vn 0.5720 -0.0723 -0.8171
vn 0.5741 -0.0694 -0.8158
usemtl None
s off
f 224//170 227//170 225//170
f 223//171 227//171 224//171
f 227//172 226//172 225//172
o 17_Seychelles_sphere.001
v 2.798979 -0.381356 -4.125403
v 2.799140 -0.382107 -4.125234
v 2.799665 -0.381943 -4.124903
v 2.800349 -0.381160 -4.124520
v 2.800555 -0.380085 -4.124475
v 2.800217 -0.379007 -4.124789
v 2.800008 -0.378124 -4.125001
v 2.799089 -0.378579 -4.125566
v 2.798553 -0.379689 -4.125824
v 2.798054 -0.380539 -4.126080
v 2.798535 -0.380833 -4.125739
vn 0.5478 -0.0703 -0.8336
vn 0.5474 -0.0707 -0.8339
vn 0.5474 -0.0710 -0.8338
vn 0.5477 -0.0705 -0.8337
vn 0.5477 -0.0706 -0.8337
vn 0.5477 -0.0707 -0.8337
vn 0.5473 -0.0706 -0.8340
vn 0.5472 -0.0706 -0.8340
usemtl None
s off
f 231//173 230//173 228//173
f 236//174 235//174 233//174
f 235//175 234//175 233//175
f 233//176 232//176 236//176
f 232//177 231//177 228//177
f 236//178 232//178 228//178
f 238//179 237//179 236//179
f 230//180 229//180 228//180
f 228//179 238//179 236//179
o 18_Seychelles_sphere.001
v 2.793299 -0.378620 -4.129366
v 2.793358 -0.379212 -4.129277
v 2.793639 -0.379048 -4.129106
v 2.793748 -0.378391 -4.129090
v 2.793605 -0.377831 -4.129231
v 2.793237 -0.378094 -4.129451
vn 0.5491 -0.0712 -0.8327
vn 0.5475 -0.0706 -0.8338
vn 0.5503 -0.0703 -0.8320
vn 0.5456 -0.0707 -0.8350
usemtl None
s off
f 239//181 244//181 242//181
f 244//182 243//182 242//182
f 242//183 241//183 239//183
f 241//184 240//184 239//184
o 19_Seychelles_sphere.001
v 2.811894 -0.377845 -4.116778
v 2.812268 -0.377910 -4.116509
v 2.812311 -0.377515 -4.116513
v 2.812103 -0.377318 -4.116676
v 2.811857 -0.377417 -4.116841
vn 0.5735 -0.0711 -0.8161
vn 0.5763 -0.0707 -0.8142
vn 0.5722 -0.0706 -0.8171
usemtl None
s off
f 247//185 246//185 245//185
f 249//186 248//186 245//186
f 248//187 247//187 245//187
o 20_Seychelles_sphere.001
v 2.796155 -0.378082 -4.127535
v 2.796588 -0.378214 -4.127240
v 2.796991 -0.377722 -4.127017
v 2.797517 -0.376904 -4.126741
v 2.797401 -0.376379 -4.126862
v 2.797041 -0.376476 -4.127090
v 2.796291 -0.377394 -4.127504
vn 0.5477 -0.0708 -0.8337
vn 0.5471 -0.0714 -0.8340
vn 0.5480 -0.0707 -0.8335
vn 0.5478 -0.0705 -0.8337
vn 0.5473 -0.0701 -0.8340
usemtl None
s off
f 253//188 252//188 255//188
f 250//189 256//189 251//189
f 256//190 255//190 252//190
f 251//191 256//191 252//191
f 255//192 254//192 253//192
o 21_Seychelles_sphere.001
v 2.806192 -0.375861 -4.120956
v 2.805598 -0.376713 -4.121301
v 2.804893 -0.376323 -4.121830
v 2.803980 -0.376488 -4.122458
v 2.803233 -0.377551 -4.122890
v 2.804383 -0.377614 -4.122077
v 2.804547 -0.378343 -4.121899
v 2.804528 -0.379278 -4.121830
v 2.805135 -0.379994 -4.121342
v 2.806024 -0.379967 -4.120720
v 2.807051 -0.379454 -4.120042
v 2.807765 -0.378602 -4.119614
v 2.808220 -0.377505 -4.119390
v 2.809206 -0.377305 -4.118713
v 2.810089 -0.377166 -4.118105
v 2.810656 -0.376508 -4.117764
v 2.810740 -0.375861 -4.117760
v 2.811275 -0.374518 -4.117501
v 2.810350 -0.374111 -4.118186
v 2.809858 -0.374005 -4.118541
v 2.809317 -0.373979 -4.118923
v 2.808239 -0.375134 -4.119580
v 2.807247 -0.375629 -4.120236
vn 0.5736 -0.0710 -0.8160
vn 0.5736 -0.0708 -0.8160
vn 0.5735 -0.0705 -0.8162
vn 0.5736 -0.0702 -0.8161
vn 0.5731 -0.0707 -0.8165
vn 0.5735 -0.0702 -0.8162
vn 0.5742 -0.0705 -0.8157
vn 0.5735 -0.0707 -0.8162
vn 0.5732 -0.0710 -0.8164
vn 0.5742 -0.0709 -0.8156
vn 0.5722 -0.0703 -0.8171
vn 0.5732 -0.0703 -0.8164
vn 0.5733 -0.0709 -0.8163
vn 0.5741 -0.0708 -0.8157
vn 0.5738 -0.0707 -0.8159
vn 0.5734 -0.0708 -0.8162
vn 0.5735 -0.0704 -0.8162
vn 0.5734 -0.0705 -0.8163
vn 0.5725 -0.0706 -0.8169
vn 0.5733 -0.0707 -0.8163
vn 0.5742 -0.0704 -0.8157
usemtl None
s off
f 266//193 265//193 263//193
f 261//194 260//194 262//194
f 260//195 259//195 262//195
f 258//196 257//196 269//196
f 257//197 279//197 269//197
f 259//198 258//198 262//198
f 279//199 278//199 269//199
f 278//200 277//200 276//200
f 276//201 275//201 273//201
f 275//202 274//202 273//202
f 273//203 272//203 271//203
f 262//204 258//204 263//204
f 278//205 276//205 273//205
f 273//206 271//206 270//206
f 269//207 268//207 258//207
f 268//208 267//208 258//208
f 273//209 270//209 278//209
f 270//210 269//210 278//210
f 265//211 264//211 263//211
f 263//212 258//212 266//212
f 267//213 266//213 258//213
o 22_Seychelles_sphere.001
v 2.797084 -0.374553 -4.127224
v 2.797357 -0.374585 -4.127042
v 2.797658 -0.373897 -4.126903
v 2.797678 -0.373405 -4.126932
v 2.797430 -0.373437 -4.127091
v 2.797326 -0.373995 -4.127113
vn 0.5481 -0.0712 -0.8334
vn 0.5478 -0.0703 -0.8336
vn 0.5497 -0.0709 -0.8324
vn 0.5482 -0.0702 -0.8334
usemtl None
s off
f 281//214 280//214 285//214
f 285//215 284//215 282//215
f 284//216 283//216 282//216
f 282//217 281//217 285//217
o 23_Seychelles_sphere.001
v 2.807229 -0.373936 -4.120395
v 2.807244 -0.374231 -4.120358
v 2.808138 -0.373861 -4.119762
v 2.808791 -0.373162 -4.119364
v 2.808588 -0.372850 -4.119533
v 2.808078 -0.372852 -4.119892
v 2.806892 -0.372952 -4.120716
v 2.806570 -0.372986 -4.120940
v 2.806660 -0.373412 -4.120840
v 2.807330 -0.373411 -4.120369
vn 0.5735 -0.0708 -0.8161
vn 0.5724 -0.0709 -0.8169
vn 0.5736 -0.0711 -0.8160
vn 0.5747 -0.0711 -0.8153
vn 0.5720 -0.0700 -0.8172
vn 0.5743 -0.0701 -0.8157
vn 0.5734 -0.0704 -0.8162
vn 0.5737 -0.0712 -0.8159
usemtl None
s off
f 295//218 291//218 288//218
f 293//219 292//219 294//219
f 292//220 291//220 295//220
f 291//221 290//221 288//221
f 290//222 289//222 288//222
f 288//223 287//223 286//223
f 295//224 288//224 286//224
f 295//225 294//225 292//225
o 24_Seychelles_sphere.001
v 2.811621 -0.367225 -4.117888
v 2.811854 -0.367456 -4.117705
v 2.812397 -0.367389 -4.117329
v 2.812780 -0.367290 -4.117068
v 2.812708 -0.367058 -4.117139
v 2.812250 -0.367026 -4.117464
v 2.811977 -0.367093 -4.117650
vn 0.5729 -0.0706 -0.8166
vn 0.5746 -0.0702 -0.8154
vn 0.5728 -0.0699 -0.8167
vn 0.5741 -0.0698 -0.8158
vn 0.5738 -0.0700 -0.8160
usemtl None
s off
f 300//226 299//226 298//226
f 296//227 302//227 297//227
f 302//228 301//228 298//228
f 297//229 302//229 298//229
f 301//230 300//230 298//230
o 25_Seychelles_sphere.001
v 2.814206 -0.330559 -4.119244
v 2.813683 -0.332393 -4.119452
v 2.814216 -0.332386 -4.119079
v 2.814738 -0.331454 -4.118793
vn 0.5731 -0.0708 -0.8164
vn 0.5740 -0.0702 -0.8158
usemtl None
s off
f 306//231 304//231 303//231
f 306//232 305//232 304//232
