# Blender v2.81 (sub 16) OBJ File: ''
# www.blender.org
mtllib Siachen Glacier.mtl
o 0_Siachen_Glacier_sphere.001
v 0.920650 2.894033 -3.926780
v 0.916244 2.894591 -3.927135
v 0.913983 2.894583 -3.927498
v 0.912061 2.893981 -3.928172
v 0.910859 2.892924 -3.929009
v 0.909025 2.890245 -3.930942
v 0.907813 2.889096 -3.931838
v 0.904197 2.887556 -3.933354
v 0.900348 2.887197 -3.934183
v 0.892327 2.887849 -3.935055
v 0.889086 2.887455 -3.935810
v 0.886601 2.886212 -3.936965
v 0.881979 2.882388 -3.940041
v 0.878689 2.880647 -3.941628
v 0.875512 2.880253 -3.942373
v 0.868325 2.880960 -3.943078
v 0.864312 2.881001 -3.943688
v 0.863494 2.880859 -3.943905
v 0.847803 2.878131 -3.948061
v 0.844438 2.878589 -3.948315
v 0.841205 2.880022 -3.947948
v 0.837494 2.882181 -3.947213
v 0.835973 2.882591 -3.947202
v 0.834451 2.882659 -3.947402
v 0.831410 2.882161 -3.948189
v 0.876594 2.860395 -3.954371
v 0.921681 2.838970 -3.960359
v 0.931101 2.871470 -3.938951
v 0.939763 2.901965 -3.918891
v 0.939216 2.901911 -3.919011
v 0.934946 2.902043 -3.919606
v 0.933202 2.901291 -3.920343
v 0.932029 2.899865 -3.921403
v 0.930157 2.896728 -3.923622
v 0.928734 2.895462 -3.924623
v 0.926937 2.894697 -3.925376
v 0.924853 2.894251 -3.925980
vn 0.1337 0.5179 -0.8450
vn 0.1339 0.5179 -0.8449
vn 0.1336 0.5176 -0.8451
vn 0.1338 0.5178 -0.8450
vn 0.1337 0.5177 -0.8450
vn 0.1341 0.5184 -0.8446
vn 0.1345 0.5177 -0.8449
vn 0.1336 0.5179 -0.8449
vn 0.1336 0.5178 -0.8450
vn 0.1341 0.5179 -0.8449
vn 0.1340 0.5178 -0.8450
vn 0.1338 0.5196 -0.8439
vn 0.1341 0.5178 -0.8449
vn 0.1339 0.5178 -0.8449
vn 0.1339 0.5178 -0.8450
vn 0.1339 0.5176 -0.8451
vn 0.1337 0.5180 -0.8449
vn 0.1339 0.5177 -0.8450
vn 0.1340 0.5175 -0.8451
usemtl None
s off
f 8//1 28//1 9//1
f 25//2 24//2 22//2
f 24//3 23//3 22//3
f 22//4 21//4 25//4
f 27//4 26//4 28//4
f 26//5 25//5 20//5
f 20//6 25//6 21//6
f 29//4 28//4 34//4
f 29//7 34//7 30//7
f 32//8 31//8 33//8
f 31//4 30//4 33//4
f 34//9 28//9 35//9
f 26//10 20//10 19//10
f 34//4 33//4 30//4
f 35//11 28//11 36//11
f 26//4 19//4 18//4
f 18//12 17//12 16//12
f 26//4 18//4 16//4
f 36//4 28//4 37//4
f 37//13 28//13 1//13
f 26//14 16//14 15//14
f 26//15 15//15 14//15
f 1//4 28//4 6//4
f 3//16 2//16 5//16
f 2//17 1//17 6//17
f 7//15 28//15 8//15
f 26//4 14//4 13//4
f 13//1 12//1 10//1
f 12//9 11//9 10//9
f 26//4 13//4 9//4
f 2//18 6//18 5//18
f 28//2 7//2 6//2
f 5//19 4//19 3//19
f 26//4 9//4 28//4
f 9//18 13//18 10//18
