# Blender v2.81 (sub 16) OBJ File: ''
# www.blender.org
mtllib Singapore.mtl
o 0_Singapore_sphere.001
v -1.205997 0.121426 -4.850204
v -1.208145 0.120922 -4.849700
v -1.209337 0.120467 -4.849426
v -1.209676 0.119921 -4.849357
v -1.208692 0.118213 -4.849635
v -1.207239 0.116394 -4.850028
v -1.205480 0.114940 -4.850485
v -1.203547 0.114349 -4.850964
v -1.201420 0.114104 -4.851480
v -1.199737 0.113436 -4.851901
v -1.196723 0.111300 -4.852676
v -1.196226 0.110821 -4.852808
v -1.195981 0.110517 -4.852873
v -1.195531 0.110317 -4.852986
v -1.194420 0.110141 -4.853257
v -1.192305 0.110182 -4.853764
v -1.191259 0.110456 -4.854009
v -1.190812 0.110988 -4.854103
v -1.190064 0.112209 -4.854253
v -1.188260 0.113055 -4.854666
v -1.186089 0.113572 -4.855175
v -1.184230 0.113778 -4.855615
v -1.180458 0.113674 -4.856524
v -1.178922 0.114059 -4.856883
v -1.178286 0.115293 -4.857006
v -1.178653 0.116701 -4.856884
v -1.181225 0.120473 -4.856174
v -1.181591 0.122160 -4.856045
v -1.182017 0.123111 -4.855920
v -1.182986 0.124130 -4.855663
v -1.184135 0.124847 -4.855370
v -1.184967 0.124988 -4.855166
v -1.186861 0.124733 -4.854718
v -1.188808 0.124986 -4.854245
v -1.191213 0.126169 -4.853638
v -1.192501 0.126555 -4.853320
v -1.194807 0.126414 -4.852769
v -1.197029 0.125666 -4.852254
v -1.203551 0.122316 -4.850770
vn -0.2329 0.0234 -0.9722
vn -0.2335 0.0232 -0.9721
vn -0.2327 0.0237 -0.9723
vn -0.2335 0.0237 -0.9721
vn -0.2333 0.0236 -0.9721
vn -0.2337 0.0236 -0.9720
vn -0.2336 0.0236 -0.9721
vn -0.2329 0.0236 -0.9722
vn -0.2330 0.0236 -0.9722
vn -0.2334 0.0236 -0.9721
vn -0.2335 0.0236 -0.9721
vn -0.2334 0.0232 -0.9721
vn -0.2333 0.0239 -0.9721
vn -0.2351 0.0241 -0.9717
vn -0.2334 0.0238 -0.9721
vn -0.2336 0.0236 -0.9720
vn -0.2331 0.0235 -0.9722
vn -0.2359 0.0226 -0.9715
vn -0.2334 0.0235 -0.9721
vn -0.2321 0.0239 -0.9724
vn -0.2332 0.0238 -0.9721
vn -0.2344 0.0216 -0.9719
vn -0.2339 0.0243 -0.9720
vn -0.2334 0.0234 -0.9721
vn -0.2329 0.0242 -0.9722
vn -0.2357 0.0241 -0.9715
vn -0.2331 0.0239 -0.9722
usemtl None
s off
f 27//1 22//1 21//1
f 4//2 3//2 5//2
f 3//3 2//3 5//3
f 2//4 1//4 5//4
f 6//5 5//5 1//5
f 8//6 7//6 39//6
f 7//7 6//7 1//7
f 39//8 7//8 1//8
f 9//9 8//9 39//9
f 39//10 38//10 10//10
f 38//11 37//11 19//11
f 10//5 38//5 19//5
f 37//12 36//12 35//12
f 35//11 34//11 19//11
f 33//13 32//13 30//13
f 32//14 31//14 30//14
f 35//6 19//6 37//6
f 10//15 19//15 11//15
f 34//6 33//6 20//6
f 10//16 9//16 39//16
f 33//17 30//17 28//17
f 30//18 29//18 28//18
f 27//5 26//5 22//5
f 26//19 25//19 23//19
f 23//20 25//20 24//20
f 28//21 27//21 33//21
f 19//8 34//8 20//8
f 14//22 13//22 12//22
f 12//23 11//23 15//23
f 11//24 19//24 15//24
f 15//25 14//25 12//25
f 17//26 16//26 18//26
f 16//11 15//11 19//11
f 19//27 18//27 16//27
f 20//8 33//8 21//8
f 26//7 23//7 22//7
f 33//11 27//11 21//11
