# Blender v2.81 (sub 16) OBJ File: ''
# www.blender.org
mtllib Sint Maarten.mtl
o 0_Sint_Maarten_sphere.001
v 2.157137 1.547839 4.236800
v 2.156342 1.546647 4.237632
v 2.151109 1.548020 4.239686
v 2.149922 1.548607 4.240049
v 2.149307 1.549314 4.240088
v 2.150103 1.549985 4.239449
v 2.150069 1.550206 4.239383
v 2.151708 1.549909 4.238691
vn 0.4179 0.3164 0.8516
vn 0.4175 0.3164 0.8518
vn 0.4174 0.3160 0.8520
vn 0.4161 0.3166 0.8524
vn 0.4172 0.3165 0.8519
vn 0.4173 0.3164 0.8519
usemtl None
s off
f 6//1 4//1 3//1
f 1//2 8//2 2//2
f 8//3 7//3 6//3
f 6//4 5//4 4//4
f 8//5 6//5 3//5
f 3//6 2//6 8//6
