# Blender v2.81 (sub 16) OBJ File: ''
# www.blender.org
mtllib Spratly Islands.mtl
o 0_Spratly_Islands_sphere.001
v -2.010751 0.828929 -4.437335
v -2.009619 0.828688 -4.437976
v -2.008505 0.829474 -4.438335
v -2.008481 0.830622 -4.438042
v -2.009222 0.832070 -4.437278
v -2.009686 0.832948 -4.436808
v -2.011069 0.834164 -4.435781
v -2.011981 0.833953 -4.435372
v -2.012369 0.833099 -4.435401
v -2.012390 0.832878 -4.435449
v -2.012161 0.831453 -4.435946
vn -0.4431 0.2307 -0.8663
vn -0.4416 0.2303 -0.8671
vn -0.4418 0.2304 -0.8670
vn -0.4420 0.2306 -0.8669
vn -0.4416 0.2310 -0.8670
vn -0.4421 0.2306 -0.8668
vn -0.4421 0.2308 -0.8667
vn -0.4417 0.2307 -0.8670
vn -0.4416 0.2307 -0.8671
usemtl None
s off
f 10//1 9//1 7//1
f 9//2 8//2 7//2
f 7//3 6//3 10//3
f 6//4 5//4 11//4
f 10//5 6//5 11//5
f 5//6 4//6 1//6
f 4//7 3//7 2//7
f 1//8 4//8 2//8
f 1//9 11//9 5//9
o 1_Spratly_Islands_sphere.001
v -2.009133 0.838565 -4.435596
v -2.008662 0.837734 -4.436056
v -2.008016 0.838967 -4.436058
vn -0.4424 0.2304 -0.8667
usemtl None
s off
f 14//10 13//10 12//10
o 2_Spratly_Islands_sphere.001
v -1.981938 0.857712 -4.444356
v -1.980337 0.857509 -4.445226
v -1.979467 0.858877 -4.445305
v -1.979988 0.859823 -4.444788
v -1.983039 0.861332 -4.442832
v -1.983967 0.860656 -4.442539
vn -0.4418 0.2307 -0.8670
vn -0.4417 0.2306 -0.8670
vn -0.4417 0.2307 -0.8670
vn -0.4413 0.2307 -0.8672
usemtl None
s off
f 16//11 15//11 18//11
f 20//12 19//12 15//12
f 19//13 18//13 15//13
f 18//14 17//14 16//14
o 3_Spratly_Islands_sphere.001
v -2.007987 0.872665 -4.427104
v -2.005919 0.870537 -4.428724
v -2.003935 0.870889 -4.429642
v -2.003142 0.872221 -4.429691
v -2.003062 0.873968 -4.429267
v -2.004515 0.875534 -4.428110
v -2.005648 0.875578 -4.427521
v -2.007274 0.874144 -4.427074
vn -0.4417 0.2306 -0.8670
vn -0.4418 0.2307 -0.8669
vn -0.4415 0.2306 -0.8671
vn -0.4417 0.2309 -0.8669
vn -0.4422 0.2306 -0.8668
vn -0.4416 0.2309 -0.8670
usemtl None
s off
f 25//15 22//15 28//15
f 21//16 28//16 22//16
f 28//17 27//17 26//17
f 25//18 28//18 26//18
f 25//19 24//19 22//19
f 24//20 23//20 22//20
o 4_Spratly_Islands_sphere.001
v -2.081193 0.877642 -4.388479
v -2.080974 0.876895 -4.388790
v -2.080402 0.877648 -4.388881
vn -0.4404 0.2309 -0.8676
usemtl None
s off
f 31//21 30//21 29//21
o 5_Spratly_Islands_sphere.001
v -2.012628 0.886811 -4.420975
v -2.010976 0.886668 -4.421854
v -2.009782 0.888702 -4.421922
v -2.010677 0.891313 -4.420771
v -2.011593 0.891468 -4.420263
v -2.012761 0.890708 -4.419870
v -2.013428 0.888794 -4.420040
vn -0.4417 0.2307 -0.8670
vn -0.4415 0.2310 -0.8670
vn -0.4418 0.2310 -0.8668
vn -0.4420 0.2307 -0.8668
vn -0.4416 0.2304 -0.8671
usemtl None
s off
f 32//22 38//22 34//22
f 38//23 37//23 34//23
f 37//24 36//24 35//24
f 34//25 37//25 35//25
f 34//26 33//26 32//26
o 6_Spratly_Islands_sphere.001
v -2.005568 0.886908 -4.424546
v -2.004328 0.886831 -4.425199
v -2.002216 0.888885 -4.425728
v -2.001718 0.891013 -4.425416
v -2.002530 0.891504 -4.424871
v -2.005092 0.889496 -4.424100
v -2.005800 0.888107 -4.424109
vn -0.4415 0.2310 -0.8670
vn -0.4418 0.2308 -0.8669
vn -0.4419 0.2306 -0.8669
vn -0.4408 0.2308 -0.8674
vn -0.4417 0.2307 -0.8670
usemtl None
s off
f 40//27 39//27 45//27
f 45//28 44//28 40//28
f 44//29 43//29 41//29
f 43//30 42//30 41//30
f 41//31 40//31 44//31
o 7_Spratly_Islands_sphere.001
v -2.012547 0.890710 -4.419979
v -2.010774 0.888806 -4.421389
v -2.008883 0.889463 -4.422177
v -2.008586 0.891492 -4.421788
v -2.009260 0.892449 -4.421190
v -2.010426 0.892689 -4.420532
v -2.011836 0.892072 -4.419978
vn -0.4419 0.2308 -0.8668
vn -0.4415 0.2310 -0.8670
vn -0.4416 0.2308 -0.8670
vn -0.4421 0.2308 -0.8668
vn -0.4414 0.2307 -0.8671
usemtl None
s off
f 49//32 48//32 47//32
f 46//33 52//33 47//33
f 52//34 51//34 47//34
f 51//35 50//35 47//35
f 50//36 49//36 47//36
o 8_Spratly_Islands_sphere.001
v -2.111818 0.917444 -4.362282
v -2.109340 0.914710 -4.364273
v -2.107651 0.915872 -4.364824
v -2.106688 0.917903 -4.364774
v -2.107111 0.920996 -4.363736
v -2.108442 0.921354 -4.362962
v -2.112710 0.921759 -4.360680
v -2.113803 0.921107 -4.360296
v -2.114166 0.920915 -4.360162
v -2.115488 0.918682 -4.360083
v -2.115021 0.917886 -4.360533
v -2.114077 0.917757 -4.361049
vn -0.4413 0.2309 -0.8671
vn -0.4415 0.2308 -0.8671
vn -0.4424 0.2307 -0.8666
vn -0.4421 0.2305 -0.8669
vn -0.4419 0.2306 -0.8669
vn -0.4418 0.2308 -0.8669
vn -0.4418 0.2309 -0.8669
vn -0.4417 0.2307 -0.8670
vn -0.4423 0.2311 -0.8666
usemtl None
s off
f 53//37 64//37 60//37
f 62//38 61//38 64//38
f 61//39 60//39 64//39
f 60//40 59//40 53//40
f 59//41 58//41 53//41
f 58//42 57//42 56//42
f 56//41 55//41 53//41
f 55//43 54//43 53//43
f 58//44 56//44 53//44
f 63//45 62//45 64//45
o 9_Spratly_Islands_sphere.001
v -2.114931 0.924424 -4.358839
v -2.114461 0.923969 -4.359200
v -2.112156 0.924342 -4.360274
v -2.109340 0.924754 -4.361600
v -2.107689 0.926477 -4.361983
v -2.107211 0.928385 -4.361718
v -2.107815 0.929168 -4.361202
v -2.112177 0.928807 -4.359076
v -2.113623 0.928132 -4.358519
v -2.113833 0.928094 -4.358421
v -2.115576 0.925832 -4.358136
vn -0.4417 0.2307 -0.8670
vn -0.4421 0.2309 -0.8668
vn -0.4417 0.2306 -0.8670
vn -0.4417 0.2310 -0.8669
vn -0.4418 0.2308 -0.8669
vn -0.4418 0.2307 -0.8670
vn -0.4419 0.2307 -0.8669
vn -0.4412 0.2324 -0.8668
usemtl None
s off
f 67//46 65//46 73//46
f 75//46 74//46 65//46
f 74//47 73//47 65//47
f 73//48 72//48 67//48
f 72//49 71//49 69//49
f 71//50 70//50 69//50
f 69//51 68//51 72//51
f 68//52 67//52 72//52
f 67//53 66//53 65//53
o 10_Spratly_Islands_sphere.001
v -1.993643 0.943591 -4.415537
v -1.991863 0.943358 -4.416506
v -1.988940 0.944772 -4.417619
v -1.989067 0.945808 -4.417279
v -1.991442 0.947663 -4.415575
v -1.993090 0.947943 -4.414661
v -1.994948 0.946097 -4.414206
vn -0.4419 0.2307 -0.8669
vn -0.4415 0.2307 -0.8671
vn -0.4414 0.2308 -0.8671
vn -0.4415 0.2306 -0.8671
usemtl None
s off
f 77//54 76//54 80//54
f 82//55 81//55 76//55
f 81//56 80//56 76//56
f 80//54 79//54 77//54
f 79//57 78//57 77//57
o 11_Spratly_Islands_sphere.001
v -2.048872 0.953271 -4.384821
v -2.049404 0.951675 -4.384974
v -2.049102 0.949218 -4.385782
v -2.048385 0.948223 -4.386412
v -2.046457 0.948485 -4.387325
v -2.044225 0.951087 -4.387769
v -2.044507 0.952333 -4.387295
v -2.045489 0.952043 -4.386871
vn -0.4417 0.2308 -0.8670
vn -0.4418 0.2304 -0.8670
vn -0.4420 0.2302 -0.8670
vn -0.4419 0.2307 -0.8669
vn -0.4421 0.2304 -0.8669
vn -0.4417 0.2308 -0.8669
usemtl None
s off
f 85//58 84//58 90//58
f 84//59 83//59 90//59
f 90//60 89//60 88//60
f 88//61 87//61 90//61
f 87//62 86//62 85//62
f 90//63 87//63 85//63
