# Blender v2.81 (sub 16) OBJ File: ''
# www.blender.org
mtllib Swaziland.mtl
o 0_Swaziland_sphere.001
v 3.782483 -2.269954 -2.268701
v 3.744752 -2.269954 -2.342752
v 3.744371 -2.270827 -2.342337
v 3.741343 -2.276451 -2.340781
v 3.740407 -2.278192 -2.340297
v 3.736742 -2.284995 -2.338421
v 3.735803 -2.286349 -2.338458
v 3.734993 -2.287352 -2.338711
v 3.734266 -2.288336 -2.338825
v 3.733597 -2.289386 -2.338739
v 3.732938 -2.290604 -2.338406
v 3.736774 -2.290443 -2.331093
v 3.740920 -2.290250 -2.323214
v 3.747242 -2.289978 -2.311169
v 3.752072 -2.289771 -2.301966
v 3.755576 -2.288576 -2.296681
v 3.761590 -2.285535 -2.288933
v 3.766086 -2.283259 -2.283145
v 3.768170 -2.282202 -2.280464
v 3.773341 -2.279588 -2.273799
v 3.774448 -2.278716 -2.272788
v 3.775799 -2.277401 -2.271890
v 3.781008 -2.271318 -2.269778
v 3.785399 -2.161229 -2.360955
v 3.784309 -2.160760 -2.363517
v 3.782594 -2.158444 -2.368969
v 3.780630 -2.160869 -2.370639
v 3.778842 -2.162443 -2.372730
v 3.775302 -2.164376 -2.377937
v 3.774810 -2.167488 -2.376098
v 3.773335 -2.171154 -2.375689
v 3.771536 -2.174950 -2.375798
v 3.770044 -2.178469 -2.375555
v 3.769296 -2.181134 -2.374623
v 3.768075 -2.188895 -2.370024
v 3.767299 -2.191787 -2.368941
v 3.763263 -2.202099 -2.367570
v 3.761995 -2.204901 -2.367534
v 3.757081 -2.213498 -2.369430
v 3.753921 -2.221553 -2.368374
v 3.745662 -2.246440 -2.362154
v 3.746557 -2.245777 -2.360998
v 3.748318 -2.243598 -2.359504
v 3.749090 -2.243289 -2.358268
v 3.751966 -2.243090 -2.352803
v 3.750892 -2.245980 -2.352305
v 3.748734 -2.254409 -2.348944
v 3.746738 -2.262198 -2.345843
v 3.788682 -2.263143 -2.262673
v 3.790918 -2.259705 -2.261382
v 3.791993 -2.257257 -2.261478
v 3.792927 -2.253409 -2.263113
v 3.793761 -2.250951 -2.263691
v 3.794737 -2.248982 -2.263551
v 3.795751 -2.247492 -2.262903
v 3.798029 -2.244739 -2.260913
v 3.799281 -2.242913 -2.260101
v 3.801727 -2.238316 -2.259443
v 3.802447 -2.236962 -2.259249
v 3.802506 -2.238215 -2.258005
v 3.802788 -2.239346 -2.256432
v 3.803253 -2.240161 -2.254786
v 3.803912 -2.240413 -2.253265
v 3.804671 -2.240474 -2.251722
v 3.805836 -2.238119 -2.251555
v 3.808816 -2.231194 -2.251947
v 3.813998 -2.217188 -2.254398
v 3.818028 -2.206285 -2.256315
v 3.819821 -2.198633 -2.259691
v 3.819414 -2.188009 -2.270065
v 3.819077 -2.179700 -2.278214
v 3.819943 -2.168604 -2.286513
v 3.821746 -2.156635 -2.293760
v 3.823003 -2.151153 -2.296233
v 3.823164 -2.149021 -2.297838
v 3.821602 -2.141938 -2.307287
v 3.819805 -2.133917 -2.318043
v 3.818930 -2.132736 -2.320824
v 3.817578 -2.132066 -2.324080
v 3.816189 -2.132194 -2.326692
v 3.814688 -2.133155 -2.328772
v 3.807380 -2.140286 -2.336688
v 3.800152 -2.147347 -2.344511
v 3.793946 -2.153433 -2.351206
v 3.792845 -2.154514 -2.352393
v 3.786992 -2.160270 -2.358693
vn 0.7622 -0.5179 -0.3883
vn 0.8247 -0.3786 -0.4202
vn 0.7623 -0.5178 -0.3884
vn 0.7616 -0.5201 -0.3866
vn 0.7622 -0.5181 -0.3882
vn 0.7623 -0.5177 -0.3884
vn 0.7622 -0.5179 -0.3884
vn 0.7622 -0.5178 -0.3884
vn 0.7624 -0.5175 -0.3884
vn 0.7623 -0.5179 -0.3883
vn 0.7621 -0.5180 -0.3884
vn 0.7623 -0.5179 -0.3882
vn 0.7623 -0.5177 -0.3885
vn 0.8246 -0.3787 -0.4203
vn 0.8247 -0.3787 -0.4202
vn 0.8246 -0.3787 -0.4202
vn 0.8246 -0.3786 -0.4202
vn 0.8247 -0.3784 -0.4203
vn 0.8248 -0.3786 -0.4200
vn 0.8246 -0.3788 -0.4202
vn 0.8245 -0.3788 -0.4204
vn 0.8247 -0.3788 -0.4199
vn 0.8246 -0.3788 -0.4201
vn 0.8250 -0.3788 -0.4194
vn 0.8245 -0.3792 -0.4201
vn 0.8246 -0.3786 -0.4203
vn 0.8245 -0.3787 -0.4204
vn 0.8246 -0.3790 -0.4199
vn 0.8247 -0.3786 -0.4201
vn 0.8248 -0.3779 -0.4206
vn 0.8247 -0.3785 -0.4202
vn 0.8247 -0.3787 -0.4201
usemtl None
s off
f 7//1 6//1 12//1
f 32//2 31//2 24//2
f 2//3 1//3 23//3
f 23//3 22//3 19//3
f 22//4 21//4 20//4
f 19//5 22//5 20//5
f 19//6 18//6 23//6
f 18//3 17//3 2//3
f 2//7 17//7 16//7
f 16//6 15//6 2//6
f 2//8 15//8 14//8
f 2//9 14//9 3//9
f 2//3 23//3 18//3
f 5//6 4//6 13//6
f 4//7 3//7 13//7
f 13//7 12//7 5//7
f 12//10 11//10 10//10
f 9//11 12//11 10//11
f 14//3 13//3 3//3
f 6//6 5//6 12//6
f 12//12 9//12 8//12
f 7//13 12//13 8//13
f 1//2 2//2 48//2
f 47//14 46//14 45//14
f 1//15 48//15 47//15
f 50//16 49//16 52//16
f 49//17 1//17 52//17
f 52//18 51//18 50//18
f 1//2 47//2 45//2
f 52//19 1//19 53//19
f 1//15 45//15 53//15
f 54//20 53//20 45//20
f 57//21 56//21 58//21
f 56//22 55//22 58//22
f 55//23 54//23 45//23
f 55//2 45//2 59//2
f 59//24 58//24 55//24
f 61//25 60//25 65//25
f 60//23 59//23 65//23
f 63//16 62//16 65//16
f 62//15 61//15 65//15
f 65//26 64//26 63//26
f 67//15 66//15 59//15
f 66//2 65//2 59//2
f 69//15 68//15 70//15
f 68//2 67//2 70//2
f 71//2 70//2 59//2
f 70//15 67//15 59//15
f 59//15 45//15 71//15
f 45//2 44//2 40//2
f 71//2 38//2 37//2
f 72//15 71//15 36//15
f 75//27 74//27 73//27
f 76//2 75//2 73//2
f 73//2 72//2 83//2
f 71//2 45//2 38//2
f 38//16 45//16 40//16
f 77//2 76//2 82//2
f 76//2 73//2 82//2
f 82//16 73//16 83//16
f 79//28 78//28 81//28
f 78//29 77//29 81//29
f 81//30 80//30 79//30
f 82//31 81//31 77//31
f 85//23 84//23 72//23
f 84//16 83//16 72//16
f 86//15 85//15 72//15
f 71//2 37//2 36//2
f 44//2 43//2 40//2
f 43//16 42//16 41//16
f 41//16 40//16 43//16
f 40//32 39//32 38//32
f 86//15 72//15 36//15
f 24//29 86//29 35//29
f 27//32 26//32 25//32
f 27//26 25//26 28//26
f 25//26 24//26 31//26
f 28//29 25//29 31//29
f 30//20 29//20 28//20
f 86//29 36//29 35//29
f 35//2 34//2 24//2
f 34//16 33//16 32//16
f 24//14 34//14 32//14
f 30//26 28//26 31//26
