# Blender v2.81 (sub 16) OBJ File: ''
# www.blender.org
mtllib Swaziland.mtl
o 0_Swaziland.002_sphere.001
v 3.847059 -2.199698 -2.314694
v 3.804571 -2.199698 -2.384029
v 3.820305 -2.269955 -2.291174
v 3.779284 -2.269955 -2.358115
v 3.804043 -2.200589 -2.384040
v 3.802612 -2.203296 -2.383786
v 3.801877 -2.205377 -2.382995
v 3.800611 -2.211545 -2.379163
v 3.799843 -2.213824 -2.378238
v 3.795905 -2.221903 -2.376939
v 3.794668 -2.224098 -2.376859
v 3.789897 -2.230809 -2.378226
v 3.786758 -2.237230 -2.377209
v 3.778375 -2.257405 -2.371598
v 3.779249 -2.256889 -2.370665
v 3.780983 -2.255152 -2.369496
v 3.781729 -2.254933 -2.368489
v 3.784474 -2.254897 -2.364043
v 3.783393 -2.257242 -2.363565
v 3.781163 -2.264152 -2.360596
v 3.821344 -2.267972 -2.291375
v 3.822243 -2.264904 -2.292842
v 3.823027 -2.262958 -2.293422
v 3.823934 -2.261406 -2.293427
v 3.824863 -2.260252 -2.293013
v 3.826938 -2.258132 -2.291655
v 3.828083 -2.256719 -2.291137
v 3.830321 -2.253151 -2.290898
v 3.830978 -2.252101 -2.290830
v 3.831014 -2.253100 -2.289815
v 3.831246 -2.254014 -2.288563
v 3.831647 -2.254682 -2.287270
v 3.832224 -2.254913 -2.286106
v 3.832896 -2.254988 -2.284939
v 3.833956 -2.253165 -2.284951
v 3.836668 -2.247800 -2.285656
v 3.841374 -2.236996 -2.288308
v 3.845000 -2.228665 -2.290358
v 3.846634 -2.222794 -2.293303
v 3.846408 -2.214481 -2.301622
v 3.846217 -2.207990 -2.308140
v 3.816744 -2.190684 -2.372447
v 3.815763 -2.190213 -2.374482
v 3.814226 -2.188200 -2.378839
v 3.812433 -2.189981 -2.380128
v 3.810801 -2.191096 -2.381768
v 3.807565 -2.192347 -2.385899
v 3.807099 -2.194824 -2.384384
v 3.805726 -2.197673 -2.384006
v 3.847086 -2.199438 -2.314891
v 3.848683 -2.190204 -2.320770
v 3.849777 -2.186028 -2.322822
v 3.849926 -2.184369 -2.324103
v 3.848619 -2.178689 -2.331456
v 3.847114 -2.172232 -2.339845
v 3.846370 -2.171219 -2.341990
v 3.845212 -2.170559 -2.344486
v 3.844011 -2.170524 -2.346478
v 3.842715 -2.171126 -2.348040
v 3.836338 -2.176024 -2.353945
v 3.829962 -2.180935 -2.359837
v 3.824436 -2.185207 -2.364929
v 3.823453 -2.185968 -2.365834
v 3.818182 -2.190055 -2.370680
v 3.779076 -2.270567 -2.357847
v 3.776630 -2.277718 -2.354729
v 3.774424 -2.282521 -2.353554
v 3.773741 -2.284005 -2.353193
v 3.771093 -2.289773 -2.351780
v 3.770363 -2.290916 -2.351836
v 3.769712 -2.291761 -2.352057
v 3.769141 -2.292590 -2.352166
v 3.768635 -2.293474 -2.352113
v 3.768159 -2.294505 -2.351866
v 3.771835 -2.294425 -2.345946
v 3.775783 -2.294328 -2.339600
v 3.781768 -2.294190 -2.329971
v 3.786307 -2.294085 -2.322667
v 3.789457 -2.293135 -2.318471
v 3.794733 -2.290672 -2.312311
v 3.798663 -2.288836 -2.307722
v 3.800481 -2.287987 -2.305600
v 3.804978 -2.285887 -2.300349
v 3.805906 -2.285178 -2.299539
v 3.807014 -2.284099 -2.298803
v 3.811182 -2.279085 -2.296986
v 3.818227 -2.272615 -2.291921
vn 0.7626 -0.4470 -0.4677
vn 0.7686 -0.4328 -0.4710
vn 0.7564 -0.4616 -0.4635
vn 0.7627 -0.4470 -0.4674
vn 0.7627 -0.4469 -0.4674
vn 0.7625 -0.4471 -0.4676
vn 0.7628 -0.4469 -0.4674
vn 0.7628 -0.4470 -0.4673
vn 0.7627 -0.4469 -0.4675
vn 0.7630 -0.4467 -0.4673
vn 0.7631 -0.4471 -0.4666
vn 0.7626 -0.4471 -0.4675
vn 0.7631 -0.4462 -0.4675
vn 0.7630 -0.4464 -0.4675
vn 0.7626 -0.4472 -0.4675
vn 0.7626 -0.4469 -0.4676
vn 0.7627 -0.4472 -0.4672
vn 0.7625 -0.4471 -0.4677
vn 0.7628 -0.4469 -0.4673
vn 0.7628 -0.4469 -0.4675
vn 0.7629 -0.4466 -0.4676
vn 0.7623 -0.4476 -0.4674
vn 0.7628 -0.4470 -0.4674
vn 0.7687 -0.4327 -0.4710
vn 0.7686 -0.4329 -0.4710
vn 0.7687 -0.4328 -0.4710
vn 0.7686 -0.4327 -0.4712
vn 0.7686 -0.4331 -0.4708
vn 0.7685 -0.4329 -0.4712
vn 0.7688 -0.4326 -0.4710
vn 0.7681 -0.4334 -0.4714
vn 0.7686 -0.4328 -0.4711
vn 0.7682 -0.4342 -0.4705
vn 0.7687 -0.4326 -0.4711
vn 0.7685 -0.4332 -0.4709
vn 0.7567 -0.4609 -0.4637
vn 0.7564 -0.4609 -0.4642
vn 0.7567 -0.4609 -0.4636
vn 0.7560 -0.4618 -0.4638
vn 0.7565 -0.4614 -0.4636
vn 0.7567 -0.4612 -0.4635
vn 0.7567 -0.4608 -0.4637
vn 0.7566 -0.4610 -0.4637
vn 0.7568 -0.4608 -0.4637
vn 0.7566 -0.4610 -0.4638
vn 0.7566 -0.4611 -0.4637
vn 0.7568 -0.4610 -0.4635
vn 0.7565 -0.4610 -0.4639
vn 0.7570 -0.4605 -0.4636
usemtl None
s off
f 13//1 12//1 11//1
f 54//2 51//2 60//2
f 70//3 69//3 75//3
f 3//4 4//4 22//4
f 4//5 20//5 23//5
f 22//4 4//4 23//4
f 20//6 19//6 18//6
f 20//7 18//7 23//7
f 22//8 21//8 3//8
f 24//9 23//9 18//9
f 25//10 24//10 18//10
f 27//11 26//11 28//11
f 26//12 25//12 28//12
f 29//13 28//13 25//13
f 31//14 30//14 35//14
f 30//15 29//15 35//15
f 33//16 32//16 35//16
f 32//17 31//17 35//17
f 35//18 34//18 33//18
f 37//19 36//19 29//19
f 36//7 35//7 29//7
f 39//8 38//8 40//8
f 38//20 37//20 40//20
f 41//7 40//7 29//7
f 29//4 40//4 37//4
f 2//4 1//4 8//4
f 1//4 41//4 10//4
f 8//7 1//7 9//7
f 6//1 5//1 7//1
f 5//21 2//21 7//21
f 8//8 7//8 2//8
f 9//4 1//4 10//4
f 41//7 29//7 18//7
f 29//4 25//4 18//4
f 18//4 17//4 13//4
f 16//22 15//22 14//22
f 41//5 18//5 11//5
f 10//9 41//9 11//9
f 16//4 14//4 13//4
f 17//7 16//7 13//7
f 11//23 18//23 13//23
f 1//2 2//2 64//2
f 2//24 49//24 42//24
f 48//25 47//25 46//25
f 2//26 42//26 64//26
f 49//27 48//27 46//27
f 42//25 49//25 43//25
f 50//28 1//28 63//28
f 46//29 45//29 43//29
f 45//30 44//30 43//30
f 46//25 43//25 49//25
f 53//31 52//31 51//31
f 64//2 63//2 1//2
f 63//32 62//32 50//32
f 54//30 53//30 51//30
f 51//25 50//25 61//25
f 62//26 61//26 50//26
f 61//2 60//2 51//2
f 60//25 59//25 55//25
f 59//33 58//33 57//33
f 57//34 56//34 59//34
f 56//35 55//35 59//35
f 55//2 54//2 60//2
f 4//36 3//36 86//36
f 3//37 87//37 86//37
f 86//38 85//38 82//38
f 85//39 84//39 83//39
f 65//40 4//40 79//40
f 4//36 86//36 81//36
f 85//41 83//41 82//41
f 82//42 81//42 86//42
f 81//43 80//43 4//43
f 66//43 65//43 77//43
f 79//42 4//42 80//42
f 69//44 68//44 75//44
f 68//45 67//45 76//45
f 67//46 66//46 76//46
f 78//36 65//36 79//36
f 78//36 77//36 65//36
f 68//43 76//43 75//43
f 66//36 77//36 76//36
f 75//47 74//47 73//47
f 70//38 75//38 71//38
f 73//48 72//48 75//48
f 72//49 71//49 75//49
