# Blender v2.81 (sub 16) OBJ File: ''
# www.blender.org
mtllib Taiwan.mtl
o 0_Taiwan_sphere.001
v -2.415846 1.844805 -3.902720
v -2.409568 1.842210 -3.907110
v -2.399413 1.845715 -3.910675
v -2.389278 1.851783 -3.913053
v -2.383043 1.856600 -3.914018
v -2.383813 1.860313 -3.911921
v -2.383010 1.863776 -3.910740
v -2.380991 1.866919 -3.910326
v -2.378004 1.869744 -3.910551
v -2.403481 1.870115 -3.897399
v -2.403979 1.867792 -3.898212
v -2.403639 1.866343 -3.899050
v -2.403244 1.863122 -3.900731
v -2.403629 1.859299 -3.902290
v -2.405480 1.855983 -3.902869
v -2.412246 1.851541 -3.901461
v -2.415474 1.848404 -3.901257
vn -0.4202 0.3786 -0.8247
vn -0.4205 0.3786 -0.8245
vn -0.4202 0.3787 -0.8247
vn -0.4203 0.3786 -0.8246
vn -0.4202 0.3787 -0.8246
vn -0.4201 0.3787 -0.8247
vn -0.4197 0.3788 -0.8248
usemtl None
s off
f 7//1 12//1 10//1
f 17//2 16//2 1//2
f 16//3 15//3 2//3
f 16//3 2//3 1//3
f 3//1 2//1 15//1
f 5//4 4//4 6//4
f 4//1 3//1 14//1
f 6//3 4//3 14//3
f 3//5 15//5 14//5
f 7//1 6//1 13//1
f 10//1 9//1 8//1
f 8//1 7//1 10//1
f 6//5 14//5 13//5
f 12//6 7//6 13//6
f 12//7 11//7 10//7
o 1_Taiwan_sphere.001
v -2.390331 1.897641 -3.891460
v -2.390563 1.896180 -3.892013
v -2.389520 1.896417 -3.892436
v -2.387303 1.896325 -3.893608
v -2.386088 1.896557 -3.894120
v -2.385348 1.897283 -3.894164
v -2.381637 1.898571 -3.895463
v -2.376530 1.905085 -3.895074
v -2.373481 1.910763 -3.894021
v -2.374038 1.911597 -3.893354
v -2.386860 1.912895 -3.886225
v -2.388464 1.912061 -3.885791
v -2.389941 1.909518 -3.886205
v -2.390068 1.904228 -3.888570
v -2.389383 1.902050 -3.889919
v -2.389401 1.899797 -3.890944
vn -0.4202 0.3785 -0.8247
vn -0.4208 0.3786 -0.8244
vn -0.4202 0.3787 -0.8247
vn -0.4203 0.3787 -0.8246
vn -0.4202 0.3786 -0.8246
vn -0.4201 0.3787 -0.8247
vn -0.4207 0.3788 -0.8243
vn -0.4203 0.3788 -0.8245
vn -0.4200 0.3786 -0.8247
vn -0.4202 0.3786 -0.8247
vn -0.4202 0.3787 -0.8246
vn -0.4201 0.3788 -0.8246
usemtl None
s off
f 21//8 20//8 33//8
f 30//9 29//9 28//9
f 28//10 27//10 25//10
f 27//11 26//11 25//11
f 25//12 24//12 32//12
f 32//13 24//13 23//13
f 23//14 22//14 21//14
f 32//15 23//15 33//15
f 30//16 28//16 31//16
f 32//17 31//17 25//17
f 25//17 31//17 28//17
f 19//18 18//18 20//18
f 18//19 33//19 20//19
f 23//17 21//17 33//17
o 2_Taiwan_sphere.001
v -2.256921 1.946376 -3.937059
v -2.252997 1.943774 -3.940253
v -2.256666 1.951946 -3.934631
v -2.271819 1.972702 -3.917380
v -2.282101 1.991799 -3.903373
v -2.285199 1.992822 -3.901324
v -2.277408 1.972233 -3.914748
v -2.272717 1.965767 -3.920107
v -2.269755 1.960529 -3.924021
v -2.265667 1.954935 -3.928673
v -2.262150 1.951782 -3.931913
vn -0.4201 0.3787 -0.8247
vn -0.4203 0.3785 -0.8246
vn -0.4202 0.3786 -0.8247
vn -0.4200 0.3787 -0.8247
vn -0.4203 0.3786 -0.8246
usemtl None
s off
f 42//20 41//20 37//20
f 39//21 38//21 40//21
f 38//22 37//22 40//22
f 37//22 36//22 42//22
f 36//23 35//23 34//23
f 44//20 36//20 34//20
f 44//22 43//22 36//22
f 43//23 42//23 36//23
f 41//24 40//24 37//24
o 3_Taiwan_sphere.001
v -2.235787 1.987230 -3.929069
v -2.235397 1.985402 -3.930107
v -2.240522 1.987198 -3.926671
v -2.244790 1.986767 -3.924694
v -2.247771 1.987030 -3.923054
v -2.249140 1.990836 -3.920609
v -2.257944 1.978776 -3.921661
v -2.260849 1.973122 -3.922777
v -2.260968 1.968885 -3.924662
v -2.257806 1.971634 -3.925010
v -2.253868 1.973942 -3.925958
v -2.249902 1.974664 -3.927647
v -2.245219 1.971405 -3.931529
v -2.241500 1.970842 -3.933682
v -2.239822 1.969700 -3.935062
v -2.239195 1.967569 -3.936360
v -2.238912 1.961677 -3.939210
v -2.238325 1.959899 -3.940325
v -2.232659 1.955794 -3.945097
v -2.226106 1.954607 -3.948981
v -2.218766 1.957138 -3.951558
v -2.210507 1.964047 -3.952594
v -2.211612 1.967787 -3.950314
v -2.216311 1.963177 -3.950036
v -2.222187 1.962074 -3.947549
v -2.227858 1.963953 -3.943797
v -2.231926 1.968231 -3.939759
v -2.228282 1.969470 -3.941047
v -2.225270 1.971098 -3.941834
v -2.222631 1.973380 -3.942132
v -2.220032 1.976508 -3.942019
v -2.219517 1.975166 -3.942898
v -2.219607 1.974711 -3.943061
v -2.219386 1.974453 -3.943292
v -2.218074 1.973634 -3.944337
v -2.216604 1.979424 -3.942427
v -2.215807 1.985172 -3.940194
v -2.218319 1.985202 -3.938901
v -2.221390 1.984466 -3.937674
v -2.230323 1.991186 -3.930036
v -2.236206 1.993493 -3.925980
vn -0.4202 0.3786 -0.8247
vn -0.4202 0.3787 -0.8247
vn -0.4203 0.3787 -0.8246
vn -0.4201 0.3788 -0.8247
vn -0.4201 0.3787 -0.8247
vn -0.4203 0.3786 -0.8247
vn -0.4203 0.3786 -0.8246
vn -0.4200 0.3789 -0.8246
vn -0.4189 0.3786 -0.8254
vn -0.4202 0.3787 -0.8246
vn -0.4204 0.3787 -0.8245
vn -0.4200 0.3787 -0.8247
vn -0.4202 0.3786 -0.8246
usemtl None
s off
f 69//25 68//25 65//25
f 52//25 51//25 54//25
f 51//26 50//26 49//26
f 51//25 49//25 56//25
f 54//27 53//27 52//27
f 55//27 54//27 51//27
f 51//28 56//28 55//28
f 49//29 48//29 56//29
f 48//29 47//29 56//29
f 47//25 46//25 57//25
f 56//25 47//25 57//25
f 46//30 45//30 84//30
f 45//25 85//25 84//25
f 84//25 83//25 46//25
f 83//29 82//29 80//29
f 82//25 81//25 80//25
f 80//31 79//31 76//31
f 83//31 80//31 75//31
f 79//32 78//32 76//32
f 78//33 77//33 76//33
f 58//34 57//34 46//34
f 80//35 76//35 75//35
f 75//36 74//36 83//36
f 74//31 73//31 83//31
f 46//25 83//25 72//25
f 58//37 46//37 59//37
f 59//34 46//34 71//34
f 73//29 72//29 83//29
f 72//29 71//29 46//29
f 62//29 61//29 71//29
f 61//34 60//34 71//34
f 60//25 59//25 71//25
f 63//34 62//34 70//34
f 70//26 62//26 71//26
f 65//34 64//34 69//34
f 64//25 63//25 70//25
f 69//29 64//29 70//29
f 67//37 66//37 68//37
f 66//27 65//27 68//27
o 4_Taiwan_sphere.001
v -2.221499 1.959022 -3.949301
v -2.216262 1.958877 -3.952036
v -2.216561 1.961969 -3.950464
v -2.217917 1.963843 -3.948912
v -2.220361 1.964761 -3.947246
v -2.223836 1.965119 -3.945311
v -2.226630 1.966418 -3.943290
v -2.226900 1.969385 -3.941791
v -2.225599 1.976294 -3.939281
v -2.227083 1.991241 -3.931662
v -2.230468 1.995656 -3.927910
v -2.237273 1.990512 -3.926805
v -2.234303 1.988353 -3.929309
v -2.232985 1.983180 -3.932356
v -2.231661 1.970984 -3.938631
v -2.232152 1.967690 -3.939893
v -2.233663 1.964924 -3.940393
v -2.233647 1.962949 -3.941308
v -2.229614 1.962126 -3.943741
v -2.226605 1.961926 -3.945365
v -2.224537 1.961458 -3.946634
v -2.222916 1.960539 -3.947882
vn -0.4202 0.3786 -0.8247
vn -0.4201 0.3787 -0.8247
vn -0.4203 0.3786 -0.8246
vn -0.4202 0.3787 -0.8246
vn -0.4203 0.3787 -0.8246
vn -0.4199 0.3788 -0.8248
vn -0.4201 0.3786 -0.8247
vn -0.4202 0.3787 -0.8247
vn -0.4200 0.3786 -0.8248
usemtl None
s off
f 88//38 87//38 86//38
f 97//38 96//38 98//38
f 96//38 95//38 98//38
f 95//39 94//39 99//39
f 94//38 93//38 100//38
f 99//38 94//38 100//38
f 99//40 98//40 95//40
f 100//41 93//41 101//41
f 93//41 92//41 101//41
f 103//42 102//42 104//42
f 102//40 101//40 104//40
f 91//38 90//38 106//38
f 90//38 89//38 107//38
f 101//38 92//38 104//38
f 92//40 91//40 105//40
f 105//43 104//43 92//43
f 90//44 107//44 106//44
f 89//42 88//42 86//42
f 107//45 89//45 86//45
f 106//46 105//46 91//46
o 5_Taiwan_sphere.001
v -2.239727 1.969420 -3.935239
v -2.236842 1.968385 -3.937184
v -2.234823 1.970544 -3.937222
v -2.232579 1.975632 -3.936029
v -2.228893 1.979869 -3.935961
v -2.221434 1.986155 -3.936876
v -2.228131 1.992265 -3.930658
v -2.233260 1.989764 -3.929193
v -2.238576 1.985820 -3.928295
v -2.241342 1.981551 -3.928846
v -2.238639 1.978007 -3.931850
v -2.241074 1.972882 -3.932963
vn -0.4202 0.3787 -0.8247
vn -0.4203 0.3787 -0.8246
vn -0.4202 0.3786 -0.8247
vn -0.4201 0.3788 -0.8246
vn -0.4203 0.3786 -0.8246
usemtl None
s off
f 111//47 110//47 119//47
f 117//48 116//48 118//48
f 116//47 115//47 112//47
f 118//47 116//47 112//47
f 115//49 114//49 112//49
f 114//47 113//47 112//47
f 108//50 119//50 110//50
f 119//49 118//49 111//49
f 110//51 109//51 108//51
f 112//49 111//49 118//49
o 6_Taiwan_sphere.001
v -2.154903 2.060055 -3.936843
v -2.162967 2.045748 -3.939303
v -2.163917 2.035669 -3.943447
v -2.160821 2.030244 -3.947516
v -2.152302 2.035100 -3.949627
v -2.146314 2.036940 -3.951833
v -2.137516 2.035882 -3.956801
v -2.130569 2.030498 -3.962813
v -2.127561 2.023249 -3.967674
v -2.124146 2.021157 -3.970375
v -2.119271 2.023311 -3.971870
v -2.116174 2.023472 -3.973374
v -2.113251 2.024674 -3.974311
v -2.111492 2.027104 -3.974091
v -2.111794 2.028002 -3.973526
v -2.113677 2.031296 -3.971054
v -2.114179 2.032801 -3.970107
v -2.113956 2.035205 -3.969116
v -2.113310 2.038097 -3.968117
v -2.111567 2.043151 -3.966686
v -2.108742 2.047970 -3.965912
v -2.108032 2.050418 -3.965149
v -2.109550 2.051463 -3.963897
v -2.117229 2.055810 -3.957988
v -2.129821 2.048328 -3.955007
v -2.137379 2.049377 -3.950675
v -2.136571 2.059387 -3.946490
v -2.137896 2.065572 -3.942975
v -2.145695 2.067318 -3.938200
vn -0.4199 0.3786 -0.8248
vn -0.4202 0.3787 -0.8247
vn -0.4202 0.3786 -0.8246
vn -0.4201 0.3787 -0.8247
vn -0.4202 0.3786 -0.8247
vn -0.4202 0.3787 -0.8246
vn -0.4205 0.3786 -0.8245
vn -0.4201 0.3786 -0.8247
usemtl None
s off
f 134//52 133//52 132//52
f 121//53 120//53 145//53
f 120//53 148//53 146//53
f 145//54 120//54 146//54
f 148//55 147//55 146//55
f 122//56 121//56 124//56
f 124//57 123//57 122//57
f 125//57 124//57 121//57
f 121//56 145//56 125//56
f 144//53 143//53 139//53
f 143//57 142//57 139//57
f 145//57 144//57 126//57
f 125//56 145//56 126//56
f 142//58 141//58 140//58
f 139//57 142//57 140//57
f 129//57 128//57 130//57
f 128//56 127//56 136//56
f 130//57 128//57 136//57
f 127//55 126//55 144//55
f 144//56 139//56 138//56
f 144//56 138//56 127//56
f 138//55 137//55 127//55
f 132//55 131//55 134//55
f 131//55 130//55 135//55
f 130//59 136//59 135//59
f 137//57 136//57 127//57
f 135//53 134//53 131//53
