# Blender v2.81 (sub 16) OBJ File: ''
# www.blender.org
mtllib Trinidad and Tobago.mtl
o 0_Trinidad_and_Tobago.002_sphere.001
v 2.353182 0.936904 4.310758
v 2.357817 0.936904 4.308304
v 2.366113 0.936705 4.303952
v 2.371576 0.874642 4.313886
v 2.367823 0.936904 4.302935
v 2.386413 0.936904 4.292332
v 2.367520 0.875330 4.315892
v 2.365864 0.875151 4.316805
v 2.361119 0.874041 4.319547
v 2.355071 0.874581 4.322638
v 2.348591 0.873947 4.326200
v 2.345404 0.874514 4.327770
v 2.344707 0.874313 4.328181
v 2.342614 0.873325 4.329493
v 2.341766 0.873221 4.329964
v 2.340299 0.872814 4.330824
v 2.339531 0.872712 4.331252
v 2.338434 0.872892 4.331796
v 2.337634 0.873331 4.332129
v 2.336887 0.873904 4.332406
v 2.335955 0.874462 4.332784
v 2.334489 0.874926 4.333464
v 2.332899 0.875121 4.334266
v 2.326257 0.875109 4.337785
v 2.324461 0.874866 4.338786
v 2.323135 0.874117 4.339643
v 2.322098 0.873140 4.340394
v 2.320693 0.872148 4.341343
v 2.319180 0.871476 4.342283
v 2.317845 0.871452 4.342995
v 2.316087 0.872692 4.343669
v 2.316733 0.873864 4.343085
v 2.319074 0.875314 4.341546
v 2.319415 0.875639 4.341299
v 2.320232 0.875930 4.340805
v 2.322672 0.876456 4.339405
v 2.323131 0.877003 4.339049
v 2.323815 0.878302 4.338418
v 2.324924 0.879320 4.337620
v 2.326144 0.880018 4.336830
v 2.331885 0.882001 4.333381
v 2.332225 0.882196 4.333160
v 2.335027 0.883777 4.331350
v 2.337108 0.886035 4.329782
v 2.336851 0.888679 4.329371
v 2.337773 0.889252 4.328764
v 2.338932 0.889278 4.328146
v 2.342954 0.888535 4.326169
v 2.345948 0.888671 4.324556
v 2.346175 0.888682 4.324434
v 2.347031 0.888722 4.323973
v 2.347861 0.889101 4.323454
v 2.348801 0.890026 4.322765
v 2.349620 0.891202 4.322089
v 2.350111 0.892324 4.321597
v 2.350249 0.894049 4.321167
v 2.350095 0.894697 4.321115
v 2.349902 0.895499 4.321051
v 2.349395 0.896895 4.321031
v 2.349049 0.898514 4.320880
v 2.348867 0.898981 4.320880
v 2.348145 0.899604 4.321133
v 2.347876 0.899982 4.321198
v 2.347804 0.900454 4.321138
v 2.348001 0.900580 4.321008
v 2.348258 0.900641 4.320859
v 2.348366 0.900894 4.320750
v 2.348233 0.901565 4.320682
v 2.347641 0.903254 4.320646
v 2.347305 0.903844 4.320702
v 2.347028 0.905088 4.320591
v 2.347313 0.906792 4.320088
v 2.348094 0.909471 4.319121
v 2.348317 0.912752 4.318325
v 2.348034 0.916143 4.317774
v 2.346985 0.919308 4.317676
v 2.344932 0.921898 4.318227
v 2.345448 0.922427 4.317844
v 2.342201 0.924744 4.319085
v 2.340587 0.925534 4.319776
v 2.338311 0.926644 4.320752
v 2.336643 0.927031 4.321555
v 2.332721 0.927329 4.323570
v 2.332222 0.927498 4.323800
v 2.331806 0.927961 4.323924
v 2.331241 0.928965 4.324016
v 2.334949 0.932013 4.321422
v 2.335938 0.932491 4.320799
v 2.339089 0.932193 4.319193
v 2.342522 0.933101 4.317188
v 2.344431 0.933070 4.316184
v 2.344764 0.933066 4.316008
v 2.345675 0.933550 4.315425
v 2.346183 0.934410 4.314979
v 2.346543 0.934763 4.314715
v 2.347025 0.933702 4.314680
v 2.347593 0.933700 4.314379
v 2.347588 0.933987 4.314322
v 2.347489 0.934876 4.314191
v 2.347956 0.934875 4.313944
v 2.348048 0.934441 4.313985
v 2.348194 0.934213 4.313954
v 2.348391 0.934027 4.313889
v 2.348628 0.933698 4.313831
v 2.348115 0.933059 4.314235
v 2.348732 0.933226 4.313874
v 2.349143 0.933624 4.313574
v 2.349405 0.934033 4.313351
v 2.349573 0.934231 4.313221
v 2.351035 0.934280 4.312437
v 2.351183 0.934227 4.312369
v 2.351752 0.934858 4.311938
v 2.353024 0.936734 4.310876
v 2.358844 0.936762 4.307789
v 2.385144 0.933827 4.293702
v 2.381704 0.928306 4.296825
v 2.380280 0.928590 4.297578
v 2.379540 0.926941 4.298347
v 2.379368 0.924368 4.298985
v 2.379675 0.921896 4.299330
v 2.381606 0.916659 4.299330
v 2.382138 0.914106 4.299563
v 2.380152 0.911994 4.301141
v 2.380413 0.909574 4.301500
v 2.380810 0.908002 4.301605
v 2.382010 0.903245 4.301920
v 2.382499 0.902065 4.301889
v 2.383099 0.900969 4.301778
v 2.384651 0.898703 4.301369
v 2.387649 0.896456 4.300131
v 2.385701 0.893811 4.301799
v 2.385145 0.889355 4.303052
v 2.385548 0.884318 4.303882
v 2.386482 0.879932 4.304272
v 2.384827 0.880343 4.305129
v 2.383065 0.879735 4.306262
v 2.381454 0.878555 4.307429
v 2.380234 0.877282 4.308393
v 2.378991 0.876291 4.309310
v 2.377346 0.875585 4.310397
v 2.374043 0.874703 4.312466
v 2.373277 0.874625 4.312920
v 2.372237 0.874518 4.313535
v 2.367608 0.936702 4.303100
v 2.353461 0.937202 4.310543
v 2.354511 0.937297 4.309965
v 2.354775 0.937321 4.309820
v 2.387750 0.940175 4.290820
v 2.368192 0.937253 4.302644
v 2.369343 0.938334 4.301741
v 2.373654 0.938947 4.299141
v 2.374943 0.939600 4.298257
v 2.384562 0.940868 4.292480
vn 0.4602 0.1800 0.8694
vn 0.4871 0.1796 0.8547
vn 0.4595 0.1942 0.8667
vn 0.4849 0.1964 0.8522
vn 0.4605 0.1782 0.8696
vn 0.4602 0.1797 0.8694
vn 0.4603 0.1797 0.8694
vn 0.4604 0.1797 0.8693
vn 0.4605 0.1785 0.8695
vn 0.4605 0.1801 0.8692
vn 0.4595 0.1813 0.8695
vn 0.4602 0.1803 0.8693
vn 0.4604 0.1797 0.8694
vn 0.4614 0.1801 0.8687
vn 0.4600 0.1797 0.8696
vn 0.4601 0.1797 0.8695
vn 0.4605 0.1797 0.8693
vn 0.4609 0.1797 0.8691
vn 0.4604 0.1796 0.8694
vn 0.4619 0.1792 0.8686
vn 0.4599 0.1782 0.8699
vn 0.4606 0.1786 0.8695
vn 0.4609 0.1790 0.8692
vn 0.4604 0.1794 0.8694
vn 0.4597 0.1781 0.8700
vn 0.4601 0.1796 0.8695
vn 0.4602 0.1797 0.8695
vn 0.4613 0.1797 0.8688
vn 0.4610 0.1797 0.8690
vn 0.4596 0.1797 0.8698
vn 0.4606 0.1797 0.8692
vn 0.4604 0.1802 0.8692
vn 0.4593 0.1796 0.8699
vn 0.4600 0.1796 0.8696
vn 0.4599 0.1805 0.8694
vn 0.4601 0.1798 0.8695
vn 0.4603 0.1795 0.8694
vn 0.4611 0.1797 0.8690
vn 0.4595 0.1794 0.8698
vn 0.4606 0.1795 0.8692
vn 0.4602 0.1796 0.8694
vn 0.4597 0.1799 0.8697
vn 0.4611 0.1796 0.8690
vn 0.4606 0.1796 0.8693
vn 0.4607 0.1796 0.8692
vn 0.4619 0.1794 0.8686
vn 0.4616 0.1781 0.8690
vn 0.4607 0.1800 0.8691
vn 0.4608 0.1799 0.8690
vn 0.4614 0.1797 0.8688
vn 0.4610 0.1798 0.8690
vn 0.4602 0.1798 0.8694
vn 0.4602 0.1796 0.8695
vn 0.4606 0.1805 0.8690
vn 0.4603 0.1796 0.8694
vn 0.4603 0.1798 0.8694
vn 0.4598 0.1804 0.8695
vn 0.4603 0.1793 0.8695
vn 0.4605 0.1796 0.8693
vn 0.4610 0.1802 0.8689
vn 0.4609 0.1798 0.8690
vn 0.4613 0.1794 0.8689
vn 0.4598 0.1798 0.8697
vn 0.4599 0.1797 0.8696
vn 0.4605 0.1798 0.8693
vn 0.4519 0.1802 0.8737
vn 0.4600 0.1794 0.8696
vn 0.4615 0.1795 0.8688
vn 0.4581 0.1798 0.8705
vn 0.4630 0.1805 0.8678
vn 0.4567 0.1802 0.8712
vn 0.4699 0.1806 0.8641
vn 0.4773 0.1765 0.8608
vn 0.4639 0.1797 0.8675
vn 0.4597 0.1798 0.8697
vn 0.4618 0.1795 0.8686
vn 0.4591 0.1798 0.8700
vn 0.4606 0.1795 0.8693
vn 0.4874 0.1797 0.8545
vn 0.4875 0.1795 0.8545
vn 0.4878 0.1799 0.8542
vn 0.4871 0.1781 0.8550
vn 0.4874 0.1794 0.8545
vn 0.4874 0.1796 0.8545
vn 0.4866 0.1788 0.8551
vn 0.4875 0.1797 0.8544
vn 0.4878 0.1796 0.8543
vn 0.4875 0.1799 0.8544
vn 0.4876 0.1799 0.8543
vn 0.4879 0.1797 0.8542
vn 0.4870 0.1795 0.8547
vn 0.4873 0.1797 0.8545
vn 0.4876 0.1795 0.8544
vn 0.4873 0.1799 0.8545
vn 0.4872 0.1796 0.8547
vn 0.4877 0.1794 0.8544
vn 0.4874 0.1798 0.8545
vn 0.4868 0.1798 0.8548
vn 0.4872 0.1796 0.8546
vn 0.4868 0.1797 0.8548
vn 0.4587 0.1963 0.8666
vn 0.4591 0.1892 0.8680
vn 0.4860 0.1951 0.8519
vn 0.4859 0.1952 0.8520
vn 0.4859 0.1945 0.8521
vn 0.4861 0.1947 0.8519
usemtl None
s off
f 78//1 77//1 76//1
f 128//2 127//2 132//2
f 146//3 145//3 1//3
f 149//4 5//4 151//4
f 2//5 1//5 113//5
f 2//6 113//6 112//6
f 4//7 3//7 74//7
f 3//7 114//7 75//7
f 74//8 3//8 75//8
f 114//9 2//9 111//9
f 2//10 112//10 111//10
f 111//11 110//11 107//11
f 110//12 109//12 108//12
f 7//13 4//13 57//13
f 10//8 9//8 54//8
f 9//7 8//7 55//7
f 56//14 7//14 57//14
f 8//15 7//15 56//15
f 4//16 74//16 73//16
f 58//8 4//8 60//8
f 110//17 108//17 107//17
f 4//18 58//18 57//18
f 114//7 111//7 76//7
f 75//19 114//19 76//19
f 12//16 11//16 50//16
f 11//8 10//8 51//8
f 12//20 50//20 49//20
f 111//21 107//21 106//21
f 15//22 14//22 13//22
f 17//23 16//23 19//23
f 16//24 15//24 20//24
f 19//25 18//25 17//25
f 20//26 19//26 16//26
f 15//7 13//7 44//7
f 20//7 15//7 43//7
f 43//27 15//27 44//27
f 21//28 20//28 43//28
f 13//29 12//29 48//29
f 22//30 21//30 43//30
f 111//31 106//31 78//31
f 105//32 104//32 103//32
f 106//33 105//33 78//33
f 23//8 22//8 41//8
f 44//13 13//13 48//13
f 105//34 103//34 97//34
f 103//35 102//35 97//35
f 28//36 27//36 35//36
f 27//8 26//8 35//8
f 30//27 29//27 32//27
f 29//36 28//36 33//36
f 32//37 31//37 30//37
f 35//38 34//38 28//38
f 34//39 33//39 28//39
f 33//8 32//8 29//8
f 26//40 25//40 36//40
f 36//41 35//41 26//41
f 39//42 38//42 24//42
f 38//43 37//43 25//43
f 24//44 38//44 25//44
f 37//30 36//30 25//30
f 40//45 39//45 24//45
f 43//8 42//8 22//8
f 42//46 41//46 22//46
f 41//7 40//7 23//7
f 23//7 40//7 24//7
f 102//47 101//47 98//47
f 101//48 100//48 99//48
f 101//49 99//49 98//49
f 102//50 98//50 97//50
f 46//51 45//51 44//51
f 47//52 46//52 44//52
f 48//53 12//53 49//53
f 76//6 111//6 78//6
f 105//54 97//54 96//54
f 96//45 95//45 94//45
f 105//55 96//55 93//55
f 47//56 44//56 48//56
f 96//57 94//57 93//57
f 105//58 93//58 92//58
f 51//16 50//16 11//16
f 91//16 90//16 79//16
f 90//8 89//8 80//8
f 89//8 88//8 82//8
f 88//59 87//59 82//59
f 87//16 86//16 83//16
f 86//60 85//60 83//60
f 85//61 84//61 83//61
f 83//8 82//8 87//8
f 92//62 91//62 79//62
f 90//59 80//59 79//59
f 52//63 51//63 10//63
f 53//29 52//29 10//29
f 89//16 82//16 81//16
f 54//64 53//64 10//64
f 55//65 54//65 9//65
f 89//36 81//36 80//36
f 56//26 55//26 8//26
f 92//7 79//7 78//7
f 60//66 59//66 58//66
f 63//67 62//67 66//67
f 62//68 61//68 66//68
f 64//69 63//69 65//69
f 66//70 65//70 63//70
f 66//71 61//71 67//71
f 61//72 60//72 67//72
f 68//73 67//73 60//73
f 71//74 70//74 69//74
f 68//75 60//75 73//75
f 73//7 60//7 4//7
f 71//76 69//76 72//76
f 69//77 68//77 73//77
f 72//78 69//78 73//78
f 92//8 78//8 105//8
f 3//79 4//79 124//79
f 4//80 143//80 142//80
f 124//81 4//81 125//81
f 142//82 141//82 4//82
f 141//83 140//83 137//83
f 6//84 5//84 115//84
f 5//85 144//85 118//85
f 115//86 5//86 117//86
f 144//87 3//87 119//87
f 141//79 137//79 132//79
f 140//88 139//88 138//88
f 137//89 140//89 138//89
f 117//79 5//79 118//79
f 117//90 116//90 115//90
f 3//91 124//91 123//91
f 141//92 132//92 4//92
f 4//93 127//93 126//93
f 127//86 4//86 132//86
f 137//94 136//94 132//94
f 119//95 118//95 144//95
f 136//96 135//96 133//96
f 132//97 136//97 133//97
f 135//98 134//98 133//98
f 120//79 119//79 3//79
f 122//97 121//97 123//97
f 121//86 120//86 123//86
f 131//86 130//86 129//86
f 132//99 131//99 128//99
f 123//79 120//79 3//79
f 126//84 125//84 4//84
f 131//100 129//100 128//100
f 1//101 2//101 147//101
f 147//102 146//102 1//102
f 5//103 6//103 151//103
f 6//104 148//104 153//104
f 151//105 6//105 152//105
f 153//103 152//103 6//103
f 151//106 150//106 149//106
o 1_Trinidad_and_Tobago.002_sphere.001
v 2.412268 0.983553 4.266906
v 2.412558 0.981371 4.267240
v 2.412559 0.978673 4.267857
v 2.412173 0.976770 4.268513
v 2.411297 0.976999 4.268960
v 2.410823 0.976999 4.269230
v 2.410482 0.975680 4.269727
v 2.409824 0.975534 4.270136
v 2.409033 0.975827 4.270520
v 2.408281 0.975807 4.270953
v 2.408170 0.975421 4.271105
v 2.407194 0.973691 4.272058
v 2.406931 0.973624 4.272223
v 2.405279 0.972387 4.273448
v 2.404772 0.971881 4.273854
v 2.403984 0.971304 4.274436
v 2.403017 0.971317 4.274984
v 2.402074 0.971533 4.275472
v 2.401351 0.971567 4.275877
v 2.397004 0.968949 4.278955
v 2.395691 0.968591 4.279787
v 2.393843 0.966593 4.281298
v 2.392619 0.966012 4.282128
v 2.391947 0.967413 4.282192
v 2.390874 0.966768 4.282951
v 2.389802 0.966976 4.283515
v 2.389101 0.967839 4.283718
v 2.389147 0.969163 4.283388
v 2.389750 0.969526 4.282961
v 2.390781 0.969714 4.282330
v 2.391717 0.970158 4.281695
v 2.392035 0.971295 4.281253
v 2.392677 0.972425 4.280628
v 2.398639 0.977202 4.276134
v 2.399865 0.978742 4.275082
v 2.400587 0.979406 4.274518
v 2.401500 0.979973 4.273868
v 2.403900 0.981019 4.272259
v 2.406005 0.981534 4.270941
v 2.406847 0.982113 4.270328
v 2.407758 0.982310 4.269763
v 2.409053 0.981499 4.269210
v 2.409608 0.981578 4.268875
v 2.410873 0.983531 4.267707
v 2.411635 0.984204 4.267118
vn 0.4859 0.1949 0.8520
vn 0.4855 0.1950 0.8522
vn 0.4857 0.1953 0.8521
vn 0.4861 0.1950 0.8519
vn 0.4855 0.1944 0.8524
vn 0.4860 0.1953 0.8519
vn 0.4858 0.1950 0.8520
vn 0.4867 0.1951 0.8515
vn 0.4863 0.1950 0.8517
vn 0.4853 0.1956 0.8522
vn 0.4858 0.1951 0.8520
vn 0.4860 0.1950 0.8519
vn 0.4862 0.1950 0.8518
vn 0.4866 0.1956 0.8515
vn 0.4863 0.1951 0.8517
vn 0.4858 0.1949 0.8521
vn 0.4859 0.1950 0.8520
vn 0.4852 0.1951 0.8523
vn 0.4854 0.1950 0.8523
vn 0.4857 0.1950 0.8521
vn 0.4853 0.1952 0.8523
vn 0.4847 0.1951 0.8526
vn 0.4861 0.1947 0.8519
vn 0.4862 0.1954 0.8517
vn 0.4857 0.1949 0.8521
vn 0.4840 0.1952 0.8530
vn 0.4859 0.1951 0.8520
vn 0.4860 0.1948 0.8519
vn 0.4850 0.1953 0.8524
vn 0.4862 0.1949 0.8518
vn 0.4860 0.1949 0.8519
vn 0.4858 0.1952 0.8520
vn 0.4859 0.1951 0.8519
vn 0.4856 0.1952 0.8521
vn 0.4856 0.1949 0.8522
usemtl None
s off
f 184//107 177//107 175//107
f 155//108 154//108 197//108
f 154//109 198//109 197//109
f 197//110 196//110 155//110
f 195//111 194//111 193//111
f 195//112 193//112 192//112
f 155//113 196//113 156//113
f 196//114 195//114 159//114
f 157//115 156//115 158//115
f 158//116 156//116 159//116
f 159//117 156//117 196//117
f 195//118 192//118 163//118
f 159//119 195//119 162//119
f 192//118 191//118 163//118
f 191//110 190//110 166//110
f 163//120 191//120 164//120
f 190//121 189//121 167//121
f 189//122 188//122 167//122
f 187//123 186//123 173//123
f 186//124 185//124 174//124
f 187//125 172//125 171//125
f 188//126 187//126 171//126
f 167//118 188//118 171//118
f 195//127 163//127 162//127
f 161//128 160//128 159//128
f 162//129 161//129 159//129
f 172//118 187//118 173//118
f 185//130 184//130 174//130
f 191//131 166//131 164//131
f 165//132 164//132 166//132
f 190//133 167//133 166//133
f 169//134 168//134 170//134
f 168//135 167//135 171//135
f 170//136 168//136 171//136
f 174//115 173//115 186//115
f 174//137 184//137 175//137
f 183//136 182//136 178//136
f 182//138 181//138 180//138
f 184//123 183//123 177//123
f 182//139 180//139 179//139
f 178//140 182//140 179//140
f 177//141 176//141 175//141
f 178//108 177//108 183//108
