# Blender v2.81 (sub 16) OBJ File: ''
# www.blender.org
mtllib Trinidad and Tobago.mtl
o 0_Trinidad_and_Tobago_sphere.001
v 2.379159 0.949490 4.217545
v 2.374959 0.939166 4.222432
v 2.369402 0.930202 4.227649
v 2.367069 0.930671 4.228714
v 2.365880 0.927993 4.230031
v 2.365642 0.923819 4.231263
v 2.366184 0.919819 4.232052
v 2.369409 0.911388 4.232653
v 2.370312 0.907296 4.233282
v 2.367114 0.903896 4.235816
v 2.367577 0.900030 4.236609
v 2.368244 0.897526 4.236935
v 2.370255 0.889981 4.237918
v 2.371066 0.888119 4.238001
v 2.372048 0.886393 4.237960
v 2.374573 0.882847 4.237617
v 2.379415 0.879376 4.236074
v 2.376322 0.875173 4.238768
v 2.375486 0.868177 4.241056
v 2.376188 0.860330 4.242787
v 2.377730 0.853548 4.243806
v 2.375089 0.854125 4.244998
v 2.372285 0.853112 4.246696
v 2.369727 0.851225 4.248502
v 2.367795 0.849202 4.250024
v 2.365823 0.847611 4.251452
v 2.363199 0.846450 4.253099
v 2.357911 0.844941 4.256195
v 2.356680 0.844790 4.256862
v 2.355006 0.844579 4.257771
v 2.347424 0.845770 4.261317
v 2.344777 0.845472 4.262745
v 2.337202 0.843699 4.267076
v 2.327477 0.844469 4.271827
v 2.317080 0.843404 4.277408
v 2.311931 0.844252 4.279806
v 2.310816 0.843934 4.280459
v 2.307488 0.842371 4.282570
v 2.306130 0.842200 4.283308
v 2.303783 0.841545 4.284678
v 2.302550 0.841376 4.285351
v 2.300771 0.841642 4.286187
v 2.299465 0.842321 4.286671
v 2.298228 0.843202 4.287067
v 2.296696 0.844058 4.287620
v 2.294306 0.844765 4.288650
v 2.291724 0.845053 4.289889
v 2.280980 0.844955 4.295390
v 2.278079 0.844550 4.296975
v 2.275976 0.843362 4.298363
v 2.274356 0.841825 4.299597
v 2.272144 0.840262 4.301140
v 2.269734 0.839192 4.302653
v 2.267570 0.839136 4.303771
v 2.264637 0.841048 4.304756
v 2.265602 0.842885 4.303776
v 2.269321 0.845185 4.301269
v 2.269847 0.845697 4.300865
v 2.271158 0.846162 4.300073
v 2.275082 0.847014 4.297846
v 2.275794 0.847874 4.297255
v 2.276826 0.849921 4.296185
v 2.278568 0.851526 4.294869
v 2.280510 0.852641 4.293583
v 2.289716 0.855816 4.288047
v 2.290255 0.856124 4.287691
v 2.294714 0.858636 4.284750
v 2.297976 0.862214 4.282136
v 2.297427 0.866384 4.281306
v 2.298896 0.867299 4.280314
v 2.300775 0.867350 4.279343
v 2.307336 0.866209 4.276304
v 2.312197 0.866451 4.273763
v 2.312561 0.866473 4.273571
v 2.313944 0.866541 4.272849
v 2.315277 0.867147 4.272008
v 2.316758 0.868615 4.270863
v 2.318044 0.870484 4.269710
v 2.318788 0.872258 4.268859
v 2.318944 0.874993 4.268051
v 2.318673 0.876022 4.267915
v 2.318321 0.877291 4.267757
v 2.317441 0.879508 4.267616
v 2.316810 0.882081 4.267252
v 2.316497 0.882823 4.267215
v 2.315294 0.883811 4.267565
v 2.314839 0.884414 4.267636
v 2.314700 0.885164 4.267507
v 2.315016 0.885370 4.267292
v 2.315433 0.885466 4.267053
v 2.315597 0.885873 4.266861
v 2.315351 0.886943 4.266702
v 2.314314 0.889642 4.266512
v 2.313740 0.890583 4.266554
v 2.313232 0.892574 4.266284
v 2.313629 0.895313 4.265352
v 2.314788 0.899623 4.263614
v 2.315013 0.904917 4.262091
v 2.314403 0.910405 4.260942
v 2.312538 0.915544 4.260524
v 2.309040 0.919757 4.261185
v 2.309866 0.920623 4.260533
v 2.304399 0.924406 4.262312
v 2.301686 0.925699 4.263350
v 2.297865 0.927518 4.264814
v 2.295083 0.928152 4.266062
v 2.288563 0.928639 4.269254
v 2.287723 0.928917 4.269609
v 2.287006 0.929680 4.269771
v 2.286004 0.931332 4.269842
v 2.291997 0.936357 4.265451
v 2.293619 0.937147 4.264415
v 2.298872 0.936651 4.261869
v 2.304520 0.938149 4.258594
v 2.307689 0.938095 4.256993
v 2.308241 0.938088 4.256713
v 2.309730 0.938889 4.255742
v 2.310535 0.940308 4.254953
v 2.311113 0.940891 4.254504
v 2.311963 0.939138 4.254538
v 2.312904 0.939136 4.254059
v 2.312887 0.939608 4.253942
v 2.312682 0.941078 4.253654
v 2.313459 0.941076 4.253260
v 2.313627 0.940358 4.253365
v 2.313877 0.939982 4.253338
v 2.314212 0.939675 4.253249
v 2.314624 0.939132 4.253183
v 2.313799 0.938076 4.253885
v 2.314814 0.938352 4.253294
v 2.315479 0.939007 4.252781
v 2.315894 0.939682 4.252390
v 2.316165 0.940011 4.252164
v 2.318586 0.940091 4.250909
v 2.318830 0.940004 4.250808
v 2.319751 0.941046 4.250062
v 2.321783 0.944147 4.248201
v 2.322493 0.944920 4.247634
v 2.324233 0.945075 4.246706
v 2.324672 0.945114 4.246472
v 2.331427 0.944188 4.243276
v 2.345952 0.944064 4.235909
v 2.346918 0.944964 4.235177
v 2.348815 0.946729 4.233741
v 2.355969 0.947678 4.229843
v 2.358096 0.948731 4.228479
v 2.373930 0.950665 4.219897
vn 0.4421 0.2307 0.8668
vn 0.4418 0.2307 0.8670
vn 0.4417 0.2307 0.8670
vn 0.4419 0.2303 0.8670
vn 0.4417 0.2308 0.8670
vn 0.4418 0.2307 0.8669
vn 0.4422 0.2306 0.8668
vn 0.4418 0.2308 0.8669
vn 0.4409 0.2300 0.8676
vn 0.4415 0.2307 0.8671
vn 0.4419 0.2302 0.8670
vn 0.4414 0.2310 0.8671
vn 0.4415 0.2306 0.8671
vn 0.4418 0.2300 0.8671
vn 0.4416 0.2313 0.8669
vn 0.4420 0.2301 0.8670
vn 0.4419 0.2307 0.8669
vn 0.4418 0.2301 0.8671
vn 0.4420 0.2307 0.8669
vn 0.4414 0.2314 0.8670
vn 0.4414 0.2307 0.8671
vn 0.4417 0.2306 0.8670
vn 0.4423 0.2303 0.8668
vn 0.4410 0.2304 0.8675
vn 0.4420 0.2310 0.8668
vn 0.4417 0.2309 0.8669
vn 0.4427 0.2310 0.8664
vn 0.4413 0.2306 0.8672
vn 0.4416 0.2310 0.8670
vn 0.4435 0.2305 0.8661
vn 0.4415 0.2308 0.8671
vn 0.4416 0.2307 0.8670
vn 0.4424 0.2310 0.8666
vn 0.4420 0.2309 0.8668
vn 0.4431 0.2314 0.8661
vn 0.4422 0.2308 0.8667
vn 0.4413 0.2308 0.8672
vn 0.4414 0.2308 0.8671
vn 0.4420 0.2308 0.8668
vn 0.4426 0.2303 0.8667
vn 0.4420 0.2299 0.8671
vn 0.4419 0.2306 0.8669
vn 0.4421 0.2306 0.8668
vn 0.4414 0.2311 0.8670
vn 0.4425 0.2308 0.8666
vn 0.4418 0.2306 0.8670
vn 0.4415 0.2309 0.8670
vn 0.4419 0.2308 0.8669
vn 0.4435 0.2308 0.8660
vn 0.4419 0.2311 0.8668
vn 0.4416 0.2307 0.8671
vn 0.4417 0.2309 0.8670
vn 0.4418 0.2317 0.8667
vn 0.4420 0.2307 0.8668
vn 0.4396 0.2303 0.8681
vn 0.4463 0.2305 0.8647
vn 0.4390 0.2311 0.8683
vn 0.4405 0.2311 0.8675
vn 0.4424 0.2311 0.8666
vn 0.4409 0.2308 0.8673
vn 0.4429 0.2306 0.8664
vn 0.4417 0.2308 0.8669
vn 0.4416 0.2305 0.8671
vn 0.4450 0.2308 0.8653
vn 0.4406 0.2309 0.8675
vn 0.4417 0.2311 0.8669
usemtl None
s off
f 78//1 77//1 34//1
f 1//2 147//2 2//2
f 147//3 146//3 2//3
f 145//4 144//4 143//4
f 146//5 145//5 4//5
f 2//6 146//6 4//6
f 3//3 2//3 4//3
f 145//2 5//2 4//2
f 145//3 143//3 5//3
f 143//7 142//7 5//7
f 141//8 140//8 136//8
f 140//9 139//9 136//9
f 142//2 141//2 7//2
f 5//10 142//10 6//10
f 6//6 142//6 7//6
f 139//11 138//11 137//11
f 136//12 139//12 137//12
f 135//13 134//13 131//13
f 134//14 133//14 132//14
f 134//15 132//15 131//15
f 141//16 136//16 135//16
f 9//17 8//17 10//17
f 8//5 7//5 10//5
f 7//3 141//3 99//3
f 141//2 135//2 100//2
f 10//5 7//5 99//5
f 141//6 100//6 99//6
f 135//18 131//18 130//18
f 129//19 128//19 127//19
f 135//17 130//17 102//17
f 100//6 135//6 102//6
f 129//3 127//3 121//3
f 127//20 126//20 121//20
f 130//21 129//21 102//21
f 11//22 10//22 98//22
f 126//23 125//23 122//23
f 125//24 124//24 123//24
f 125//25 123//25 122//25
f 12//26 11//26 97//26
f 126//27 122//27 121//27
f 13//3 12//3 84//3
f 10//3 99//3 98//3
f 14//3 13//3 81//3
f 129//23 121//23 120//23
f 120//28 119//28 118//28
f 120//29 118//29 117//29
f 11//2 98//2 97//2
f 129//21 120//21 117//21
f 15//30 14//30 19//30
f 117//3 116//3 129//3
f 115//6 114//6 103//6
f 114//3 113//3 104//3
f 103//31 114//31 104//31
f 129//32 116//32 102//32
f 116//33 115//33 103//33
f 113//19 112//19 106//19
f 112//10 111//10 106//10
f 111//3 110//3 107//3
f 110//34 109//34 107//34
f 109//35 108//35 107//35
f 107//3 106//3 111//3
f 102//17 116//17 103//17
f 18//8 17//8 16//8
f 16//36 15//36 18//36
f 113//37 106//37 105//37
f 19//38 18//38 15//38
f 113//39 105//39 104//39
f 20//17 19//17 23//17
f 22//3 21//3 20//3
f 23//31 22//31 20//31
f 102//3 101//3 100//3
f 12//3 97//3 92//3
f 24//21 23//21 19//21
f 26//40 25//40 27//40
f 25//41 24//41 27//41
f 28//42 27//42 24//42
f 31//43 30//43 29//43
f 29//44 28//44 19//44
f 12//2 92//2 84//2
f 84//45 92//45 91//45
f 28//6 24//6 19//6
f 29//3 19//3 31//3
f 19//3 14//3 31//3
f 97//46 96//46 93//46
f 96//43 95//43 93//43
f 97//47 93//47 92//47
f 32//48 31//48 80//48
f 32//17 80//17 79//17
f 34//2 33//2 78//2
f 33//3 32//3 79//3
f 34//8 76//8 75//8
f 36//3 35//3 74//3
f 35//2 34//2 75//2
f 36//49 74//49 73//49
f 39//50 38//50 37//50
f 76//51 34//51 77//51
f 35//21 75//21 74//21
f 40//52 39//52 44//52
f 39//32 37//32 68//32
f 44//32 39//32 67//32
f 41//53 40//53 43//53
f 42//3 41//3 43//3
f 40//17 44//17 43//17
f 67//6 39//6 68//6
f 37//37 36//37 72//37
f 45//54 44//54 67//54
f 13//22 84//22 82//22
f 95//55 94//55 93//55
f 46//6 45//6 67//6
f 68//2 37//2 72//2
f 84//56 91//56 85//56
f 47//6 46//6 65//6
f 48//5 47//5 64//5
f 46//6 67//6 66//6
f 13//48 82//48 81//48
f 91//57 90//57 85//57
f 90//58 89//58 87//58
f 89//59 88//59 87//59
f 87//60 86//60 90//60
f 86//61 85//61 90//61
f 49//3 48//3 62//3
f 47//3 65//3 64//3
f 52//48 51//48 59//48
f 51//46 50//46 59//46
f 52//8 59//8 58//8
f 53//3 52//3 57//3
f 57//28 52//28 58//28
f 55//8 54//8 56//8
f 54//62 53//62 56//62
f 57//2 56//2 53//2
f 60//6 59//6 50//6
f 60//47 50//47 49//47
f 63//5 62//5 48//5
f 62//17 61//17 49//17
f 61//63 60//63 49//63
f 84//64 83//64 82//64
f 64//54 63//54 48//54
f 66//65 65//65 46//65
f 14//66 81//66 80//66
f 14//3 80//3 31//3
f 70//6 69//6 68//6
f 72//6 71//6 68//6
f 71//32 70//32 68//32
f 73//6 72//6 36//6
f 79//51 78//51 33//51
o 1_Trinidad_and_Tobago_sphere.001
v 2.402514 0.986698 4.195743
v 2.403382 0.980451 4.196963
v 2.403416 0.972764 4.198991
v 2.402333 0.967354 4.200984
v 2.399813 0.967987 4.202098
v 2.398450 0.967978 4.202795
v 2.397493 0.964223 4.204282
v 2.395597 0.963791 4.205363
v 2.393305 0.964606 4.206314
v 2.391128 0.964527 4.207445
v 2.390815 0.963426 4.207897
v 2.388027 0.958481 4.210633
v 2.387261 0.958280 4.211077
v 2.382490 0.954701 4.214460
v 2.381027 0.953242 4.215595
v 2.378740 0.951567 4.217206
v 2.375906 0.951559 4.218652
v 2.373123 0.952132 4.219917
v 2.370991 0.952196 4.220986
v 2.358213 0.944489 4.229548
v 2.354305 0.943386 4.231833
v 2.348871 0.937541 4.236157
v 2.345223 0.935793 4.238481
v 2.343092 0.939765 4.238510
v 2.339883 0.937837 4.240658
v 2.336601 0.938362 4.242190
v 2.334389 0.940806 4.242667
v 2.334428 0.944642 4.241627
v 2.336250 0.945730 4.240409
v 2.339382 0.946331 4.238652
v 2.342201 0.947668 4.236861
v 2.343087 0.950973 4.235529
v 2.344963 0.954275 4.233695
v 2.362663 0.968309 4.220942
v 2.366252 0.972794 4.217919
v 2.368377 0.974726 4.216322
v 2.371069 0.976379 4.214511
v 2.378141 0.979422 4.210098
v 2.384327 0.980913 4.206549
v 2.386779 0.982584 4.204854
v 2.389438 0.983150 4.203350
v 2.393237 0.980814 4.202035
v 2.394849 0.981041 4.201154
v 2.398481 0.986646 4.197812
v 2.400677 0.988574 4.196179
vn 0.4416 0.2307 0.8670
vn 0.4419 0.2308 0.8669
vn 0.4419 0.2309 0.8669
vn 0.4417 0.2307 0.8670
vn 0.4418 0.2304 0.8670
vn 0.4418 0.2309 0.8669
vn 0.4419 0.2307 0.8669
vn 0.4417 0.2309 0.8669
vn 0.4421 0.2308 0.8668
vn 0.4418 0.2307 0.8669
vn 0.4417 0.2308 0.8670
vn 0.4418 0.2307 0.8670
vn 0.4417 0.2306 0.8670
vn 0.4418 0.2308 0.8669
vn 0.4416 0.2308 0.8670
vn 0.4416 0.2306 0.8671
vn 0.4416 0.2310 0.8670
vn 0.4418 0.2305 0.8670
vn 0.4415 0.2307 0.8671
usemtl None
s off
f 178//67 171//67 169//67
f 149//68 148//68 191//68
f 148//69 192//69 191//69
f 191//70 190//70 149//70
f 189//71 188//71 187//71
f 189//72 187//72 186//72
f 149//67 190//67 150//67
f 190//73 189//73 153//73
f 151//74 150//74 152//74
f 152//75 150//75 153//75
f 153//76 150//76 190//76
f 189//76 186//76 157//76
f 153//70 189//70 156//70
f 186//77 185//77 157//77
f 185//78 184//78 160//78
f 157//79 185//79 158//79
f 184//70 183//70 161//70
f 183//68 182//68 161//68
f 181//77 180//77 167//77
f 180//80 179//80 168//80
f 181//70 166//70 165//70
f 182//78 181//78 165//78
f 161//70 182//70 165//70
f 189//70 157//70 156//70
f 155//77 154//77 153//77
f 156//81 155//81 153//81
f 166//70 181//70 167//70
f 179//80 178//80 168//80
f 185//70 160//70 158//70
f 159//82 158//82 160//82
f 184//70 161//70 160//70
f 163//83 162//83 164//83
f 162//72 161//72 165//72
f 164//84 162//84 165//84
f 168//70 167//70 180//70
f 168//70 178//70 169//70
f 177//68 176//68 172//68
f 176//77 175//77 174//77
f 178//67 177//67 171//67
f 176//73 174//73 173//73
f 172//85 176//85 173//85
f 171//73 170//73 169//73
f 172//76 171//76 177//76
