# Blender v2.81 (sub 16) OBJ File: ''
# www.blender.org
mtllib Turks and Caicos Islands.mtl
o 0_Turks_and_Caicos_Islands.002_sphere.001
v 1.464266 1.816001 4.421934
v 1.462988 1.815269 4.422670
v 1.462715 1.815424 4.422701
v 1.463528 1.816079 4.422155
v 1.464074 1.816465 4.421809
v 1.464550 1.816641 4.421575
vn 0.3027 0.3606 0.8822
vn 0.3018 0.3616 0.8821
vn 0.3020 0.3617 0.8820
vn 0.3024 0.3607 0.8823
usemtl None
s off
f 2//1 1//1 4//1
f 6//2 5//2 1//2
f 5//3 4//3 1//3
f 4//4 3//4 2//4
o 1_Turks_and_Caicos_Islands.002_sphere.001
v 1.468026 1.816912 4.420274
v 1.467676 1.815590 4.420935
v 1.467098 1.816303 4.420841
v 1.467453 1.817631 4.420176
v 1.467836 1.818098 4.419854
vn 0.3017 0.3609 0.8825
vn 0.3022 0.3610 0.8822
vn 0.3025 0.3610 0.8821
usemtl None
s off
f 9//5 8//5 7//5
f 7//6 11//6 10//6
f 10//7 9//7 7//7
o 2_Turks_and_Caicos_Islands.002_sphere.001
v 1.500746 1.817879 4.408676
v 1.499878 1.816821 4.409406
v 1.499394 1.817140 4.409441
v 1.499598 1.818709 4.408730
v 1.499863 1.819434 4.408342
v 1.500651 1.819406 4.408084
v 1.501322 1.818895 4.408063
vn 0.3029 0.3615 0.8818
vn 0.3020 0.3607 0.8824
vn 0.3026 0.3601 0.8825
vn 0.3025 0.3608 0.8822
vn 0.3017 0.3609 0.8824
usemtl None
s off
f 14//8 13//8 12//8
f 18//9 17//9 12//9
f 17//10 16//10 15//10
f 12//11 17//11 15//11
f 15//12 14//12 12//12
o 3_Turks_and_Caicos_Islands.002_sphere.001
v 1.504706 1.827841 4.403247
v 1.503961 1.826581 4.404017
v 1.503216 1.828190 4.403614
v 1.503036 1.830077 4.402904
v 1.503241 1.831958 4.402065
v 1.503636 1.833526 4.401288
v 1.504418 1.832216 4.401556
v 1.504810 1.830025 4.402318
vn 0.3017 0.3610 0.8824
vn 0.3022 0.3607 0.8824
vn 0.3011 0.3609 0.8827
vn 0.3027 0.3608 0.8822
vn 0.3032 0.3607 0.8820
vn 0.3015 0.3607 0.8826
usemtl None
s off
f 19//13 26//13 21//13
f 26//14 25//14 23//14
f 25//15 24//15 23//15
f 23//16 22//16 26//16
f 22//17 21//17 26//17
f 21//18 20//18 19//18
o 4_Turks_and_Caicos_Islands.002_sphere.001
v 1.475942 1.834787 4.410254
v 1.476247 1.832864 4.410936
v 1.475755 1.831743 4.411563
v 1.474476 1.831351 4.412161
v 1.473055 1.832208 4.412297
v 1.472713 1.833645 4.411827
v 1.473574 1.834295 4.411266
v 1.474548 1.834155 4.410990
v 1.475034 1.834584 4.410648
v 1.474801 1.836585 4.409910
v 1.475192 1.838043 4.409180
v 1.475449 1.838070 4.409081
v 1.475673 1.837569 4.409209
vn 0.3025 0.3608 0.8822
vn 0.3017 0.3612 0.8823
vn 0.3030 0.3609 0.8820
vn 0.3027 0.3606 0.8822
vn 0.3013 0.3609 0.8826
vn 0.3021 0.3610 0.8823
vn 0.3023 0.3607 0.8824
vn 0.3011 0.3609 0.8827
vn 0.3026 0.3607 0.8822
vn 0.3020 0.3609 0.8824
vn 0.3020 0.3607 0.8824
usemtl None
s off
f 28//19 27//19 35//19
f 39//20 38//20 37//20
f 37//21 36//21 39//21
f 36//22 35//22 27//22
f 39//23 36//23 27//23
f 34//24 33//24 31//24
f 33//25 32//25 31//25
f 35//26 34//26 28//26
f 34//27 31//27 30//27
f 29//28 34//28 30//28
f 29//29 28//29 34//29
o 5_Turks_and_Caicos_Islands.002_sphere.001
v 1.401117 1.844052 4.430801
v 1.398928 1.842825 4.431995
v 1.398865 1.843342 4.431795
v 1.399646 1.844205 4.431189
v 1.400008 1.845712 4.430439
v 1.400027 1.847470 4.429689
v 1.399803 1.849087 4.429072
v 1.401948 1.849409 4.428277
v 1.402256 1.846983 4.429209
vn 0.2726 0.3753 0.8859
vn 0.2725 0.3752 0.8860
vn 0.2722 0.3755 0.8859
vn 0.2725 0.3753 0.8859
vn 0.2729 0.3753 0.8858
vn 0.2731 0.3753 0.8857
vn 0.2723 0.3752 0.8861
usemtl None
s off
f 48//30 45//30 44//30
f 48//31 47//31 45//31
f 47//32 46//32 45//32
f 41//33 40//33 43//33
f 40//34 48//34 44//34
f 43//35 40//35 44//35
f 43//36 42//36 41//36
o 6_Turks_and_Caicos_Islands.002_sphere.001
v 1.477594 1.845527 4.405204
v 1.476689 1.845341 4.405593
v 1.475430 1.846452 4.405548
v 1.473315 1.848959 4.405200
v 1.471524 1.849970 4.405379
v 1.467825 1.851472 4.406003
v 1.466256 1.853020 4.405878
v 1.466589 1.853271 4.405656
v 1.466900 1.853401 4.405494
v 1.467132 1.853614 4.405324
v 1.467243 1.854108 4.405075
v 1.470089 1.852406 4.404829
v 1.471551 1.851842 4.404570
v 1.473558 1.851296 4.404115
v 1.475247 1.850635 4.403821
v 1.476928 1.849405 4.403772
v 1.477934 1.847673 4.404168
vn 0.2995 0.3757 0.8770
vn 0.3009 0.3750 0.8768
vn 0.3001 0.3754 0.8769
vn 0.3002 0.3754 0.8769
vn 0.3002 0.3752 0.8770
vn 0.3000 0.3755 0.8769
vn 0.2998 0.3752 0.8771
vn 0.3000 0.3753 0.8770
vn 0.3003 0.3754 0.8769
vn 0.2991 0.3754 0.8773
vn 0.3002 0.3758 0.8767
vn 0.3001 0.3756 0.8769
vn 0.3013 0.3754 0.8765
vn 0.3003 0.3753 0.8769
usemtl None
s off
f 57//37 56//37 54//37
f 65//38 64//38 51//38
f 64//39 63//39 52//39
f 63//40 62//40 52//40
f 62//41 61//41 53//41
f 52//42 62//42 53//42
f 60//43 59//43 58//43
f 64//44 52//44 51//44
f 60//45 58//45 54//45
f 58//46 57//46 54//46
f 61//43 60//43 53//43
f 50//47 49//47 51//47
f 49//48 65//48 51//48
f 55//49 54//49 56//49
f 54//50 53//50 60//50
o 7_Turks_and_Caicos_Islands.002_sphere.001
v 1.448678 1.860010 4.408905
v 1.449416 1.860001 4.408656
v 1.450104 1.860190 4.408340
v 1.450796 1.860265 4.408070
v 1.455669 1.859643 4.406668
v 1.457851 1.860088 4.405730
v 1.458864 1.860140 4.405361
v 1.459960 1.859633 4.405203
v 1.460914 1.858594 4.405321
v 1.463331 1.854541 4.406229
v 1.461928 1.854984 4.406519
v 1.460919 1.856139 4.406371
v 1.460040 1.857483 4.406096
v 1.459029 1.858505 4.406005
v 1.459898 1.856656 4.406498
v 1.461737 1.853776 4.407102
v 1.462499 1.852241 4.407497
v 1.461469 1.852039 4.407937
v 1.460622 1.852583 4.407994
v 1.458990 1.854562 4.407706
v 1.458637 1.853718 4.408188
v 1.458555 1.853383 4.408360
v 1.458067 1.853386 4.408525
v 1.456558 1.855642 4.408076
v 1.454470 1.856279 4.408518
v 1.449733 1.855726 4.410377
v 1.447825 1.855562 4.411100
v 1.447160 1.856032 4.411127
v 1.446302 1.857374 4.410846
v 1.445900 1.858327 4.410576
v 1.445309 1.861354 4.409482
v 1.445958 1.861300 4.409284
v 1.446639 1.861151 4.409114
v 1.447289 1.860899 4.408999
vn 0.3002 0.3754 0.8769
vn 0.2997 0.3755 0.8770
vn 0.3002 0.3755 0.8769
vn 0.2995 0.3748 0.8774
vn 0.3003 0.3753 0.8769
vn 0.3003 0.3754 0.8769
vn 0.3004 0.3753 0.8769
vn 0.2995 0.3755 0.8771
vn 0.3001 0.3754 0.8769
vn 0.3003 0.3756 0.8768
vn 0.3008 0.3751 0.8768
vn 0.3006 0.3754 0.8768
vn 0.3005 0.3752 0.8769
vn 0.3008 0.3752 0.8768
vn 0.3000 0.3754 0.8770
vn 0.2998 0.3753 0.8771
vn 0.3000 0.3753 0.8770
vn 0.3002 0.3753 0.8769
vn 0.2997 0.3756 0.8770
vn 0.3005 0.3754 0.8768
vn 0.3013 0.3751 0.8767
vn 0.3009 0.3754 0.8767
vn 0.3002 0.3755 0.8768
vn 0.3005 0.3748 0.8771
vn 0.3001 0.3755 0.8769
vn 0.3001 0.3766 0.8764
usemtl None
s off
f 80//51 89//51 85//51
f 75//52 74//52 77//52
f 74//53 73//53 79//53
f 75//54 77//54 76//54
f 73//55 72//55 79//55
f 72//56 71//56 79//56
f 70//57 69//57 90//57
f 69//58 68//58 91//58
f 70//59 90//59 89//59
f 71//60 70//60 79//60
f 78//61 74//61 79//61
f 78//62 77//62 74//62
f 68//63 67//63 91//63
f 82//64 81//64 83//64
f 81//65 80//65 85//65
f 83//66 81//66 84//66
f 84//67 81//67 85//67
f 80//63 79//63 89//63
f 79//67 70//67 89//67
f 90//68 69//68 91//68
f 67//58 66//58 91//58
f 66//69 99//69 95//69
f 99//70 98//70 95//70
f 98//71 97//71 95//71
f 97//72 96//72 95//72
f 95//61 94//61 66//61
f 66//51 94//51 91//51
f 94//73 93//73 91//73
f 93//74 92//74 91//74
f 89//75 88//75 86//75
f 88//76 87//76 86//76
f 89//55 86//55 85//55
o 8_Turks_and_Caicos_Islands.002_sphere.001
v 1.425027 1.861099 4.416223
v 1.424461 1.860530 4.416639
v 1.423770 1.860590 4.416826
v 1.424339 1.861169 4.416406
v 1.424732 1.861439 4.416170
vn 0.2734 0.3750 0.8858
vn 0.2724 0.3748 0.8862
vn 0.2735 0.3747 0.8859
usemtl None
s off
f 103//77 101//77 100//77
f 100//78 104//78 103//78
f 103//79 102//79 101//79
o 9_Turks_and_Caicos_Islands.002_sphere.001
v 1.410066 1.860998 4.420869
v 1.415600 1.856527 4.421061
v 1.416692 1.856157 4.420881
v 1.418235 1.856171 4.420401
v 1.419732 1.856436 4.419828
v 1.420715 1.856802 4.419370
v 1.421707 1.857866 4.418614
v 1.422237 1.858744 4.418079
v 1.423057 1.858961 4.417736
v 1.424889 1.857993 4.417582
v 1.424963 1.857383 4.417818
v 1.423123 1.855408 4.419220
v 1.422589 1.854623 4.419717
v 1.422036 1.855809 4.419385
v 1.421899 1.856303 4.419218
v 1.419843 1.855168 4.420331
v 1.420149 1.855070 4.420279
v 1.420424 1.855014 4.420218
v 1.420694 1.854899 4.420183
v 1.420984 1.854613 4.420215
v 1.419894 1.853998 4.420811
v 1.417874 1.854267 4.421319
v 1.416766 1.853973 4.421784
v 1.416621 1.855151 4.421329
v 1.413800 1.852684 4.423243
v 1.412400 1.852472 4.423763
v 1.411251 1.854560 4.423232
v 1.411737 1.854563 4.423081
v 1.412320 1.853863 4.423198
v 1.413111 1.853516 4.423102
v 1.413643 1.853690 4.422864
v 1.413463 1.854571 4.422547
v 1.412926 1.855004 4.422528
v 1.410004 1.856249 4.422900
v 1.410403 1.855120 4.423255
v 1.410309 1.854266 4.423646
v 1.409729 1.853685 4.424071
v 1.408690 1.853364 4.424526
v 1.408440 1.853914 4.424371
v 1.408354 1.854290 4.424238
v 1.408375 1.854640 4.424083
v 1.408471 1.855112 4.423853
v 1.408648 1.854756 4.423950
v 1.408684 1.854702 4.423961
v 1.408772 1.854702 4.423934
v 1.409081 1.854549 4.423904
v 1.409257 1.855633 4.423391
v 1.410031 1.857426 4.422392
v 1.410218 1.858504 4.421879
v 1.408671 1.857216 4.422900
v 1.408266 1.856750 4.423223
v 1.407896 1.857829 4.422879
v 1.408403 1.860429 4.421621
v 1.408173 1.861841 4.421093
vn 0.2729 0.3754 0.8858
vn 0.2729 0.3751 0.8859
vn 0.2728 0.3755 0.8858
vn 0.2723 0.3752 0.8860
vn 0.2724 0.3753 0.8860
vn 0.2724 0.3755 0.8859
vn 0.2720 0.3753 0.8861
vn 0.2730 0.3758 0.8856
vn 0.2724 0.3754 0.8860
vn 0.2723 0.3756 0.8859
vn 0.2723 0.3753 0.8860
vn 0.2732 0.3755 0.8856
vn 0.2725 0.3753 0.8859
vn 0.2725 0.3755 0.8859
vn 0.2707 0.3761 0.8861
vn 0.2729 0.3749 0.8860
vn 0.2738 0.3751 0.8856
vn 0.2730 0.3750 0.8859
vn 0.2728 0.3754 0.8858
vn 0.2727 0.3752 0.8859
vn 0.2660 0.3727 0.8890
vn 0.2728 0.3757 0.8857
vn 0.2734 0.3754 0.8856
vn 0.2724 0.3752 0.8860
vn 0.2731 0.3753 0.8857
vn 0.2721 0.3754 0.8860
vn 0.2754 0.3749 0.8852
vn 0.2726 0.3754 0.8859
vn 0.2723 0.3754 0.8860
vn 0.2727 0.3754 0.8858
vn 0.2718 0.3768 0.8855
vn 0.2728 0.3752 0.8859
vn 0.2727 0.3755 0.8858
vn 0.2730 0.3752 0.8858
vn 0.2713 0.3756 0.8862
vn 0.2720 0.3755 0.8860
vn 0.2731 0.3752 0.8858
vn 0.2724 0.3757 0.8858
vn 0.2722 0.3758 0.8858
vn 0.2726 0.3746 0.8862
vn 0.2716 0.3756 0.8861
vn 0.2717 0.3758 0.8860
vn 0.2729 0.3752 0.8858
vn 0.2700 0.3746 0.8870
vn 0.2725 0.3754 0.8859
usemtl None
s off
f 143//80 141//80 150//80
f 115//81 114//81 113//81
f 113//82 112//82 111//82
f 113//83 111//83 115//83
f 111//84 110//84 119//84
f 116//85 115//85 119//85
f 119//84 115//84 111//84
f 118//86 117//86 116//86
f 119//87 118//87 116//87
f 106//88 105//88 153//88
f 105//89 158//89 157//89
f 157//90 156//90 153//90
f 156//91 155//91 154//91
f 105//92 157//92 153//92
f 156//93 154//93 153//93
f 152//94 151//94 138//94
f 151//95 150//95 139//95
f 138//96 151//96 139//96
f 106//84 153//84 137//84
f 153//97 152//97 137//97
f 107//98 106//98 128//98
f 128//99 106//99 136//99
f 150//100 149//100 148//100
f 120//101 119//101 110//101
f 123//102 122//102 125//102
f 122//103 121//103 125//103
f 120//104 110//104 109//104
f 124//99 123//99 125//99
f 120//105 109//105 108//105
f 121//106 120//106 125//106
f 126//107 125//107 120//107
f 128//108 127//108 126//108
f 130//83 129//83 134//83
f 129//109 128//109 135//109
f 132//110 131//110 133//110
f 131//111 130//111 133//111
f 128//112 126//112 108//112
f 134//113 133//113 130//113
f 135//114 134//114 129//114
f 126//115 120//115 108//115
f 136//108 135//108 128//108
f 128//85 108//85 107//85
f 137//116 136//116 106//116
f 140//117 139//117 150//117
f 138//118 137//118 152//118
f 141//103 140//103 150//103
f 143//119 142//119 141//119
f 145//120 144//120 148//120
f 144//121 143//121 150//121
f 147//122 146//122 145//122
f 148//123 147//123 145//123
f 144//124 150//124 148//124
o 10_Turks_and_Caicos_Islands.002_sphere.001
v 1.426685 1.862181 4.415255
v 1.426187 1.861965 4.415500
v 1.425967 1.862546 4.415321
v 1.426387 1.863442 4.414813
v 1.426773 1.863684 4.414591
v 1.427014 1.863314 4.414674
v 1.427094 1.862642 4.414933
vn 0.2726 0.3748 0.8861
vn 0.2732 0.3747 0.8860
vn 0.2723 0.3756 0.8859
vn 0.2724 0.3751 0.8860
vn 0.2723 0.3761 0.8857
usemtl None
s off
f 161//125 160//125 159//125
f 165//126 164//126 162//126
f 164//127 163//127 162//127
f 162//128 161//128 165//128
f 165//129 161//129 159//129
o 11_Turks_and_Caicos_Islands.002_sphere.001
v 1.432937 1.869723 4.410136
v 1.433560 1.864743 4.412055
v 1.439904 1.868832 4.408133
v 1.440163 1.868179 4.408323
v 1.440062 1.866916 4.408898
v 1.441344 1.862101 4.410521
v 1.442710 1.860423 4.410771
v 1.445182 1.860155 4.410039
v 1.443774 1.858949 4.411037
v 1.442379 1.859279 4.411374
v 1.441094 1.860190 4.411424
v 1.440016 1.860706 4.411572
v 1.439338 1.860917 4.411714
v 1.438347 1.861438 4.411830
v 1.437383 1.862164 4.411849
v 1.436796 1.862966 4.411707
v 1.436762 1.864037 4.411260
v 1.437716 1.865943 4.410118
v 1.437890 1.866923 4.409639
v 1.437124 1.868345 4.409293
v 1.435943 1.867608 4.410012
v 1.434363 1.865519 4.411448
v 1.434130 1.864876 4.411803
v 1.436768 1.869720 4.408826
v 1.437241 1.869626 4.408704
v 1.438343 1.869205 4.408507
v 1.438962 1.869110 4.408336
v 1.433403 1.864706 4.412119
v 1.432488 1.864873 4.412329
v 1.431736 1.865255 4.412398
v 1.431313 1.866023 4.412204
v 1.431340 1.866822 4.411856
v 1.431208 1.867541 4.411593
v 1.430260 1.868048 4.411670
v 1.430530 1.868678 4.411319
v 1.430967 1.869179 4.410973
v 1.431553 1.869535 4.410641
v 1.432248 1.869722 4.410348
vn 0.3003 0.3755 0.8768
vn 0.2731 0.3756 0.8856
vn 0.3007 0.3753 0.8768
vn 0.3002 0.3755 0.8768
vn 0.3017 0.3751 0.8765
vn 0.3002 0.3753 0.8769
vn 0.2990 0.3754 0.8773
vn 0.2985 0.3753 0.8775
vn 0.3015 0.3750 0.8766
vn 0.2997 0.3754 0.8771
vn 0.3003 0.3753 0.8769
vn 0.3000 0.3753 0.8770
vn 0.3010 0.3753 0.8767
vn 0.3006 0.3751 0.8769
vn 0.3000 0.3754 0.8770
vn 0.3006 0.3754 0.8768
vn 0.3003 0.3754 0.8769
vn 0.2999 0.3753 0.8770
vn 0.3001 0.3755 0.8769
vn 0.3005 0.3748 0.8771
vn 0.3009 0.3753 0.8767
vn 0.3003 0.3752 0.8769
vn 0.3003 0.3751 0.8770
vn 0.2996 0.3753 0.8772
vn 0.3002 0.3756 0.8768
vn 0.2722 0.3754 0.8860
vn 0.2724 0.3759 0.8857
vn 0.2737 0.3745 0.8859
vn 0.2707 0.3760 0.8862
vn 0.2722 0.3756 0.8859
vn 0.2731 0.3753 0.8857
vn 0.2727 0.3756 0.8858
vn 0.2704 0.3762 0.8862
vn 0.2714 0.3743 0.8867
vn 0.2728 0.3758 0.8856
usemtl None
s off
f 175//130 174//130 172//130
f 194//131 167//131 197//131
f 166//132 167//132 187//132
f 167//133 188//133 187//133
f 190//134 189//134 185//134
f 189//135 166//135 186//135
f 185//136 189//136 186//136
f 168//137 192//137 169//137
f 192//138 191//138 184//138
f 191//139 190//139 185//139
f 166//140 187//140 186//140
f 192//141 184//141 170//141
f 170//142 169//142 192//142
f 191//143 185//143 184//143
f 183//144 182//144 171//144
f 182//145 181//145 180//145
f 170//141 184//141 183//141
f 171//146 170//146 183//146
f 182//147 180//147 179//147
f 171//148 182//148 179//148
f 179//149 178//149 171//149
f 178//150 177//150 171//150
f 174//151 173//151 172//151
f 172//152 171//152 176//152
f 176//153 171//153 177//153
f 176//154 175//154 172//154
f 167//155 166//155 197//155
f 166//156 203//156 198//156
f 197//157 166//157 198//157
f 203//158 202//158 198//158
f 202//159 201//159 198//159
f 201//160 200//160 198//160
f 200//161 199//161 198//161
f 194//162 193//162 167//162
f 196//163 195//163 194//163
f 197//164 196//164 194//164
