# Blender v2.81 (sub 16) OBJ File: ''
# www.blender.org
mtllib Turks and Caicos Islands.mtl
o 0_Turks_and_Caicos_Islands_sphere.001
v 1.459803 1.809612 4.406015
v 1.457207 1.808222 4.407976
v 1.456651 1.808577 4.408096
v 1.458282 1.809856 4.406678
v 1.459395 1.810615 4.405762
v 1.460378 1.810941 4.405111
vn 0.4200 0.3785 0.8248
vn 0.4199 0.3786 0.8248
vn 0.4206 0.3784 0.8245
vn 0.4202 0.3786 0.8247
usemtl None
s off
f 2//1 1//1 4//1
f 6//2 5//2 1//2
f 5//3 4//3 1//3
f 4//4 3//4 2//4
o 1_Turks_and_Caicos_Islands_sphere.001
v 1.463201 1.810339 4.403949
v 1.462503 1.807555 4.405583
v 1.461286 1.809146 4.405473
v 1.461985 1.811943 4.403832
v 1.462772 1.812914 4.402986
vn 0.4202 0.3787 0.8246
vn 0.4202 0.3786 0.8247
vn 0.4201 0.3788 0.8246
usemtl None
s off
f 9//5 8//5 7//5
f 11//6 10//6 7//6
f 10//7 9//7 7//7
o 2_Turks_and_Caicos_Islands_sphere.001
v 1.494486 1.809246 4.388511
v 1.492489 1.806831 4.390637
v 1.491362 1.807659 4.390831
v 1.491775 1.811381 4.388912
v 1.492367 1.813101 4.387821
v 1.494215 1.812957 4.386945
v 1.495825 1.811642 4.386729
vn 0.4205 0.3785 0.8246
vn 0.4198 0.3787 0.8248
vn 0.4203 0.3788 0.8245
vn 0.4204 0.3787 0.8246
vn 0.4202 0.3786 0.8247
usemtl None
s off
f 14//8 13//8 12//8
f 18//9 17//9 12//9
f 17//10 16//10 15//10
f 12//11 17//11 15//11
f 15//12 14//12 12//12
o 3_Turks_and_Caicos_Islands_sphere.001
v 1.498773 1.815821 4.383308
v 1.497015 1.812878 4.385555
v 1.495190 1.816930 4.384624
v 1.494696 1.821571 4.382745
v 1.495114 1.826195 4.380409
v 1.496010 1.830089 4.378164
v 1.497951 1.826742 4.378712
v 1.498969 1.821215 4.380731
vn 0.4200 0.3787 0.8247
vn 0.4202 0.3787 0.8247
vn 0.4202 0.3786 0.8247
vn 0.4203 0.3786 0.8246
usemtl None
s off
f 26//13 25//13 23//13
f 25//14 24//14 23//14
f 23//14 22//14 26//14
f 22//13 21//13 26//13
f 21//15 20//15 19//15
f 19//16 26//16 21//16
o 4_Turks_and_Caicos_Islands_sphere.001
v 1.471853 1.827402 4.391706
v 1.472576 1.822990 4.393364
v 1.471496 1.820547 4.395036
v 1.468692 1.819909 4.396758
v 1.465614 1.822043 4.397346
v 1.464836 1.825251 4.396270
v 1.466652 1.826580 4.394734
v 1.468773 1.826145 4.393854
v 1.469832 1.827052 4.392897
v 1.469264 1.831617 4.391090
v 1.470097 1.834937 4.389142
v 1.470674 1.834986 4.388825
v 1.471188 1.833815 4.389101
vn 0.4202 0.3787 0.8247
vn 0.4200 0.3788 0.8247
vn 0.4202 0.3787 0.8246
vn 0.4201 0.3787 0.8247
vn 0.4200 0.3787 0.8247
vn 0.4202 0.3786 0.8247
vn 0.4205 0.3786 0.8245
vn 0.4203 0.3786 0.8246
usemtl None
s off
f 28//17 27//17 35//17
f 39//18 38//18 37//18
f 37//19 36//19 39//19
f 36//19 35//19 27//19
f 39//20 36//20 27//20
f 34//21 33//21 31//21
f 33//22 32//22 31//22
f 35//23 34//23 28//23
f 34//22 31//22 30//22
f 29//24 34//24 30//24
f 29//21 28//21 34//21
o 5_Turks_and_Caicos_Islands_sphere.001
v 1.396357 1.834245 4.414357
v 1.391130 1.831052 4.416507
v 1.390979 1.832243 4.416038
v 1.392875 1.834367 4.414857
v 1.393750 1.837877 4.413265
v 1.393806 1.841901 4.411589
v 1.393284 1.845583 4.410147
v 1.398307 1.846422 4.409004
v 1.399004 1.841004 4.411138
vn 0.1447 0.3787 0.9141
vn 0.1446 0.3786 0.9142
vn 0.1448 0.3786 0.9141
vn 0.1448 0.3788 0.9141
vn 0.1449 0.3786 0.9141
vn 0.1450 0.3786 0.9141
vn 0.1448 0.3786 0.9142
usemtl None
s off
f 48//25 45//25 44//25
f 48//26 47//26 45//26
f 47//27 46//27 45//27
f 41//28 40//28 43//28
f 40//29 48//29 44//29
f 43//30 40//30 44//30
f 43//31 42//31 41//31
o 6_Turks_and_Caicos_Islands_sphere.001
v 1.478141 1.832116 4.386338
v 1.476099 1.831889 4.387483
v 1.473300 1.834582 4.387672
v 1.468701 1.840391 4.387349
v 1.464925 1.842792 4.388171
v 1.457449 1.846324 4.390358
v 1.454368 1.849661 4.390395
v 1.454999 1.850167 4.389841
v 1.455593 1.850423 4.389421
v 1.456036 1.850861 4.388994
v 1.456234 1.851893 4.388420
v 1.461933 1.848142 4.387239
v 1.464946 1.846825 4.386308
v 1.469191 1.845472 4.384766
v 1.472869 1.843849 4.383637
v 1.476629 1.840906 4.383073
v 1.478922 1.836863 4.383760
vn 0.4204 0.3786 0.8246
vn 0.4203 0.3786 0.8246
vn 0.4202 0.3787 0.8246
vn 0.4200 0.3787 0.8247
vn 0.4202 0.3788 0.8246
vn 0.4201 0.3786 0.8247
vn 0.4196 0.3787 0.8249
vn 0.4203 0.3788 0.8246
vn 0.4202 0.3785 0.8247
vn 0.4201 0.3787 0.8247
vn 0.4199 0.3787 0.8248
usemtl None
s off
f 57//32 56//32 54//32
f 65//33 64//33 51//33
f 64//34 63//34 52//34
f 63//35 62//35 52//35
f 62//36 61//36 53//36
f 52//33 62//33 53//33
f 60//32 59//32 58//32
f 64//37 52//37 51//37
f 60//34 58//34 54//34
f 58//38 57//38 54//38
f 61//39 60//39 53//39
f 50//40 49//40 51//40
f 49//41 65//41 51//41
f 55//42 54//42 56//42
f 54//41 53//41 60//41
o 7_Turks_and_Caicos_Islands_sphere.001
v 1.440341 1.855885 4.394685
v 1.441461 1.855829 4.394139
v 1.442509 1.856098 4.393482
v 1.443577 1.856182 4.392900
v 1.451307 1.854870 4.389563
v 1.454888 1.855484 4.387456
v 1.456580 1.855511 4.386582
v 1.458436 1.854578 4.386065
v 1.460068 1.852733 4.386081
v 1.464263 1.845544 4.387244
v 1.461820 1.846462 4.388067
v 1.460083 1.848537 4.388000
v 1.458580 1.850907 4.387677
v 1.456867 1.852724 4.387716
v 1.458343 1.849516 4.388436
v 1.461493 1.844421 4.389171
v 1.462811 1.841705 4.389746
v 1.461035 1.841501 4.390744
v 1.459586 1.842536 4.391008
v 1.456825 1.846067 4.390794
v 1.456240 1.844690 4.391724
v 1.456105 1.844139 4.392045
v 1.455295 1.844201 4.392430
v 1.452795 1.848129 4.391900
v 1.449413 1.849379 4.393049
v 1.442026 1.848908 4.397029
v 1.439151 1.848819 4.398535
v 1.438150 1.849626 4.398675
v 1.436850 1.851825 4.398327
v 1.436235 1.853365 4.397933
v 1.435296 1.858204 4.396190
v 1.436251 1.858089 4.395757
v 1.437261 1.857821 4.395365
v 1.438234 1.857387 4.395068
vn 0.4202 0.3787 0.8246
vn 0.4201 0.3787 0.8247
vn 0.4200 0.3786 0.8247
vn 0.4198 0.3787 0.8248
vn 0.4200 0.3786 0.8248
vn 0.4203 0.3786 0.8246
vn 0.4202 0.3786 0.8247
vn 0.4199 0.3787 0.8248
vn 0.4199 0.3786 0.8248
vn 0.4197 0.3786 0.8249
vn 0.4203 0.3787 0.8246
vn 0.4208 0.3784 0.8245
vn 0.4202 0.3787 0.8247
vn 0.4201 0.3786 0.8247
vn 0.4206 0.3787 0.8244
vn 0.4197 0.3787 0.8249
vn 0.4205 0.3785 0.8246
vn 0.4202 0.3788 0.8246
vn 0.4203 0.3780 0.8249
vn 0.4204 0.3786 0.8246
vn 0.4193 0.3790 0.8250
usemtl None
s off
f 80//43 89//43 85//43
f 75//44 74//44 77//44
f 74//45 73//45 79//45
f 75//46 77//46 76//46
f 73//47 72//47 79//47
f 72//44 71//44 79//44
f 70//48 69//48 90//48
f 69//49 68//49 91//49
f 70//50 90//50 89//50
f 71//48 70//48 79//48
f 78//51 74//51 79//51
f 78//48 77//48 74//48
f 68//43 67//43 91//43
f 82//52 81//52 83//52
f 81//53 80//53 85//53
f 83//54 81//54 84//54
f 84//44 81//44 85//44
f 80//55 79//55 89//55
f 79//48 70//48 89//48
f 90//56 69//56 91//56
f 67//55 66//55 91//55
f 66//49 99//49 95//49
f 99//57 98//57 95//57
f 98//58 97//58 95//58
f 97//59 96//59 95//59
f 95//56 94//56 66//56
f 66//49 94//49 91//49
f 94//60 93//60 91//60
f 93//61 92//61 91//61
f 89//62 88//62 86//62
f 88//63 87//63 86//63
f 89//48 86//48 85//48
o 8_Turks_and_Caicos_Islands_sphere.001
v 1.421111 1.855240 4.401740
v 1.419900 1.854003 4.402444
v 1.418410 1.854049 4.402661
v 1.419643 1.855315 4.401941
v 1.420485 1.855912 4.401560
vn 0.1443 0.3787 0.9142
vn 0.1445 0.3789 0.9141
vn 0.1444 0.3785 0.9143
usemtl None
s off
f 103//64 101//64 100//64
f 100//65 104//65 103//65
f 103//66 102//66 101//66
o 9_Turks_and_Caicos_Islands_sphere.001
v 1.400117 1.856931 4.404365
v 1.410110 1.849666 4.405791
v 1.412018 1.849141 4.405706
v 1.414681 1.849308 4.405216
v 1.417223 1.849882 4.404575
v 1.418872 1.850570 4.404029
v 1.420519 1.852397 4.403011
v 1.421390 1.853870 4.402263
v 1.422731 1.854276 4.401883
v 1.425683 1.852834 4.402012
v 1.425803 1.851856 4.402399
v 1.422839 1.848501 4.404258
v 1.421967 1.847169 4.404947
v 1.421060 1.849056 4.404309
v 1.420834 1.849852 4.404015
v 1.417408 1.847793 4.405411
v 1.417922 1.847660 4.405385
v 1.418383 1.847596 4.405338
v 1.418833 1.847433 4.405334
v 1.419317 1.846990 4.405441
v 1.417492 1.845860 4.406198
v 1.414056 1.846088 4.406648
v 1.412139 1.845470 4.407208
v 1.411890 1.847440 4.406431
v 1.406889 1.842924 4.409093
v 1.404355 1.842376 4.409722
v 1.402261 1.845849 4.408616
v 1.403157 1.845909 4.408449
v 1.404220 1.844770 4.408752
v 1.405653 1.844265 4.408734
v 1.406614 1.844628 4.408432
v 1.406295 1.846118 4.407865
v 1.405327 1.846803 4.407734
v 1.399960 1.848656 4.407817
v 1.400695 1.846730 4.408498
v 1.400512 1.845229 4.409149
v 1.399423 1.844144 4.409770
v 1.397457 1.843448 4.410370
v 1.396988 1.844386 4.410057
v 1.396828 1.845039 4.409811
v 1.396872 1.845658 4.409547
v 1.397060 1.846501 4.409169
v 1.397393 1.845894 4.409368
v 1.397460 1.845804 4.409394
v 1.397626 1.845814 4.409364
v 1.398210 1.845580 4.409368
v 1.398552 1.847503 4.408518
v 1.400023 1.850711 4.406956
v 1.400378 1.852603 4.406116
v 1.397460 1.850222 4.407564
v 1.396687 1.849364 4.408042
v 1.395990 1.851234 4.407378
v 1.396984 1.855842 4.405312
v 1.396560 1.858308 4.404358
vn 0.1448 0.3785 0.9142
vn 0.1445 0.3787 0.9142
vn 0.1461 0.3786 0.9140
vn 0.1448 0.3786 0.9142
vn 0.1451 0.3785 0.9142
vn 0.1448 0.3787 0.9141
vn 0.1447 0.3785 0.9142
vn 0.1444 0.3787 0.9142
vn 0.1440 0.3787 0.9142
vn 0.1447 0.3787 0.9141
vn 0.1449 0.3787 0.9141
vn 0.1446 0.3789 0.9141
vn 0.1449 0.3786 0.9142
vn 0.1446 0.3785 0.9142
vn 0.1454 0.3784 0.9142
vn 0.1447 0.3786 0.9142
vn 0.1453 0.3787 0.9140
vn 0.1446 0.3788 0.9141
vn 0.1444 0.3785 0.9143
vn 0.1451 0.3786 0.9141
vn 0.1484 0.3795 0.9132
vn 0.1451 0.3784 0.9142
vn 0.1450 0.3788 0.9140
vn 0.1440 0.3788 0.9142
vn 0.1455 0.3788 0.9140
vn 0.1446 0.3790 0.9140
vn 0.1449 0.3786 0.9141
vn 0.1445 0.3786 0.9142
vn 0.1446 0.3786 0.9142
vn 0.1449 0.3785 0.9142
vn 0.1449 0.3783 0.9143
vn 0.1451 0.3788 0.9140
vn 0.1453 0.3787 0.9141
vn 0.1437 0.3785 0.9144
vn 0.1462 0.3766 0.9148
vn 0.1444 0.3783 0.9143
usemtl None
s off
f 143//67 141//67 150//67
f 115//68 114//68 113//68
f 113//69 112//69 111//69
f 113//70 111//70 115//70
f 111//71 110//71 119//71
f 116//72 115//72 119//72
f 119//73 115//73 111//73
f 118//74 117//74 116//74
f 119//75 118//75 116//75
f 106//70 105//70 153//70
f 105//76 158//76 157//76
f 157//77 156//77 153//77
f 156//78 155//78 154//78
f 105//79 157//79 153//79
f 156//80 154//80 153//80
f 152//81 151//81 138//81
f 151//82 150//82 139//82
f 138//83 151//83 139//83
f 106//72 153//72 137//72
f 153//84 152//84 137//84
f 107//85 106//85 128//85
f 128//86 106//86 136//86
f 150//87 149//87 148//87
f 120//88 119//88 110//88
f 123//88 122//88 125//88
f 122//89 121//89 125//89
f 120//71 110//71 109//71
f 124//90 123//90 125//90
f 120//71 109//71 108//71
f 121//91 120//91 125//91
f 126//70 125//70 120//70
f 128//92 127//92 126//92
f 130//73 129//73 134//73
f 129//93 128//93 135//93
f 132//94 131//94 133//94
f 131//82 130//82 133//82
f 128//95 126//95 108//95
f 134//67 133//67 130//67
f 135//95 134//95 129//95
f 126//82 120//82 108//82
f 136//84 135//84 128//84
f 128//88 108//88 107//88
f 137//72 136//72 106//72
f 140//96 139//96 150//96
f 138//86 137//86 152//86
f 141//67 140//67 150//67
f 143//97 142//97 141//97
f 145//98 144//98 148//98
f 144//99 143//99 150//99
f 147//100 146//100 145//100
f 148//101 147//101 145//101
f 144//102 150//102 148//102
o 10_Turks_and_Caicos_Islands_sphere.001
v 1.422302 1.855576 4.401412
v 1.421239 1.855070 4.401790
v 1.420771 1.856244 4.401378
v 1.421675 1.858133 4.400452
v 1.422495 1.858666 4.400101
v 1.423004 1.857930 4.400326
v 1.423170 1.856566 4.400865
vn 0.1448 0.3790 0.9140
vn 0.1448 0.3786 0.9142
vn 0.1445 0.3792 0.9139
vn 0.1445 0.3788 0.9141
vn 0.1447 0.3787 0.9141
usemtl None
s off
f 161//103 160//103 159//103
f 165//104 164//104 162//104
f 164//105 163//105 162//105
f 162//106 161//106 165//106
f 165//107 161//107 159//107
o 11_Turks_and_Caicos_Islands_sphere.001
v 1.428167 1.867735 4.395447
v 1.428868 1.862255 4.397605
v 1.436780 1.866004 4.391853
v 1.437228 1.864852 4.392153
v 1.437066 1.862658 4.393244
v 1.439300 1.854178 4.395998
v 1.441681 1.851082 4.396207
v 1.446081 1.850254 4.394345
v 1.443561 1.848350 4.396504
v 1.441109 1.849142 4.397389
v 1.438883 1.850906 4.397713
v 1.437043 1.851940 4.398176
v 1.435899 1.852392 4.398552
v 1.434240 1.853404 4.398932
v 1.432640 1.854749 4.399130
v 1.431671 1.856168 4.398973
v 1.431600 1.857982 4.398176
v 1.433138 1.861145 4.395939
v 1.433413 1.862810 4.395035
v 1.432128 1.865292 4.394549
v 1.430211 1.864097 4.396075
v 1.431524 1.867663 4.393769
v 1.432303 1.867485 4.393454
v 1.434140 1.866717 4.392871
v 1.435181 1.866529 4.392426
v 1.427515 1.860532 4.398534
v 1.427077 1.859403 4.399071
v 1.425725 1.859033 4.399437
v 1.424031 1.859243 4.399620
v 1.422626 1.859842 4.399593
v 1.421835 1.861149 4.399178
v 1.421894 1.862549 4.398588
v 1.421651 1.863798 4.398109
v 1.419850 1.864633 4.398049
v 1.420373 1.865754 4.397501
v 1.421210 1.866650 4.396998
v 1.422320 1.867296 4.396554
v 1.423626 1.867646 4.396203
vn 0.4201 0.3787 0.8247
vn 0.1449 0.3787 0.9141
vn 0.4205 0.3786 0.8245
vn 0.4203 0.3787 0.8246
vn 0.4205 0.3784 0.8246
vn 0.4200 0.3784 0.8249
vn 0.4209 0.3784 0.8244
vn 0.4208 0.3787 0.8243
vn 0.4201 0.3784 0.8248
vn 0.4200 0.3787 0.8247
vn 0.4199 0.3787 0.8248
vn 0.4202 0.3787 0.8246
vn 0.4207 0.3787 0.8244
vn 0.4202 0.3786 0.8247
vn 0.4201 0.3788 0.8246
vn 0.4200 0.3787 0.8248
vn 0.4202 0.3788 0.8246
vn 0.4200 0.3786 0.8248
vn 0.4207 0.3786 0.8244
vn 0.1447 0.3787 0.9142
vn 0.1456 0.3786 0.9140
vn 0.1441 0.3786 0.9143
vn 0.1444 0.3786 0.9142
vn 0.1448 0.3787 0.9141
vn 0.1447 0.3788 0.9141
vn 0.1446 0.3786 0.9142
vn 0.1442 0.3787 0.9142
vn 0.1435 0.3784 0.9145
vn 0.1446 0.3782 0.9144
usemtl None
s off
f 171//108 182//108 179//108
f 197//109 194//109 191//109
f 166//110 167//110 186//110
f 166//111 186//111 185//111
f 188//112 187//112 185//112
f 187//108 166//108 185//108
f 168//113 190//113 169//113
f 190//114 189//114 184//114
f 169//115 190//115 170//115
f 189//116 188//116 185//116
f 170//117 190//117 184//117
f 189//118 185//118 184//118
f 183//119 182//119 171//119
f 182//120 181//120 180//120
f 184//119 183//119 170//119
f 171//121 170//121 183//121
f 174//111 173//111 172//111
f 174//122 172//122 175//122
f 172//123 171//123 176//123
f 176//124 175//124 172//124
f 179//119 178//119 171//119
f 178//119 177//119 171//119
f 177//125 176//125 171//125
f 182//126 180//126 179//126
f 167//127 166//127 203//127
f 203//128 202//128 198//128
f 202//129 201//129 198//129
f 201//130 200//130 198//130
f 200//131 199//131 198//131
f 167//131 203//131 198//131
f 193//132 192//132 191//132
f 191//109 167//109 197//109
f 198//133 197//133 167//133
f 197//134 196//134 194//134
f 196//135 195//135 194//135
f 194//136 193//136 191//136
