# Blender v2.81 (sub 16) OBJ File: ''
# www.blender.org
mtllib United States Virgin Islands.mtl
o 0_United_States_Virgin_Islands_sphere.001
v 2.027103 1.527198 4.307823
v 2.028062 1.520077 4.309861
v 2.032495 1.525541 4.305765
v 2.034159 1.524943 4.305161
v 2.035022 1.524490 4.304897
v 2.035811 1.523812 4.304749
v 2.037328 1.525323 4.303474
v 2.039954 1.525939 4.301971
v 2.042940 1.525759 4.300571
v 2.045506 1.524924 4.299609
v 2.045584 1.524349 4.299772
v 2.043661 1.524134 4.300791
v 2.042112 1.523576 4.301746
v 2.039141 1.522031 4.303745
v 2.037575 1.521496 4.304701
v 2.027397 1.527417 4.307602
v 2.029124 1.527837 4.306608
v 2.029340 1.527619 4.306580
v 2.022328 1.519162 4.312767
v 2.020960 1.518621 4.313572
v 2.021329 1.520060 4.312907
v 2.021259 1.521277 4.312516
v 2.020725 1.524698 4.311571
v 2.020817 1.525755 4.311162
v 2.021354 1.526424 4.310688
v 2.024363 1.525512 4.309645
v 2.025880 1.526293 4.308689
vn 0.4193 0.3009 0.8565
vn 0.3927 0.3014 0.8689
vn 0.4196 0.3015 0.8562
vn 0.4195 0.3015 0.8562
vn 0.4193 0.3013 0.8564
vn 0.4194 0.3015 0.8563
vn 0.4194 0.3016 0.8562
vn 0.4196 0.3009 0.8564
vn 0.4198 0.3016 0.8561
vn 0.4193 0.3016 0.8563
vn 0.4196 0.3015 0.8561
vn 0.4193 0.2998 0.8569
vn 0.4192 0.3016 0.8563
vn 0.4192 0.3034 0.8557
vn 0.3921 0.3014 0.8691
vn 0.3924 0.3015 0.8690
vn 0.3913 0.3013 0.8695
vn 0.3923 0.3015 0.8690
vn 0.3928 0.3014 0.8688
vn 0.3921 0.3017 0.8691
usemtl None
s off
f 18//1 17//1 16//1
f 26//2 23//2 22//2
f 1//3 2//3 18//3
f 2//4 15//4 6//4
f 3//5 2//5 4//5
f 15//6 14//6 7//6
f 14//4 13//4 8//4
f 15//7 7//7 6//7
f 12//8 11//8 10//8
f 13//4 12//4 9//4
f 12//9 10//9 9//9
f 9//10 8//10 13//10
f 8//11 7//11 14//11
f 6//12 5//12 4//12
f 6//13 4//13 2//13
f 16//14 1//14 18//14
f 2//4 3//4 18//4
f 2//15 1//15 27//15
f 26//16 25//16 23//16
f 25//17 24//17 23//17
f 2//18 27//18 26//18
f 21//19 20//19 19//19
f 19//16 2//16 22//16
f 2//16 26//16 22//16
f 22//20 21//20 19//20
o 1_United_States_Virgin_Islands_sphere.001
v 2.020804 1.572478 4.294436
v 2.020856 1.572109 4.294547
v 2.020691 1.572247 4.294571
v 2.030797 1.573767 4.289061
v 2.031237 1.572904 4.289166
v 2.030217 1.572718 4.289734
v 2.028073 1.573445 4.290515
v 2.027563 1.573209 4.290852
v 2.028541 1.572060 4.290801
v 2.028319 1.570108 4.291634
v 2.025684 1.571506 4.292406
v 2.021966 1.571152 4.294359
v 2.021554 1.574042 4.293487
v 2.022727 1.574608 4.292702
v 2.024013 1.575032 4.291914
v 2.023610 1.575651 4.291882
v 2.024231 1.576030 4.291437
v 2.026858 1.575309 4.290418
v 2.028115 1.575067 4.289892
v 2.029324 1.574538 4.289496
vn 0.3894 0.3167 0.8649
vn 0.4170 0.3167 0.8520
vn 0.4162 0.3166 0.8524
vn 0.4175 0.3166 0.8517
vn 0.4179 0.3164 0.8516
vn 0.4174 0.3165 0.8519
vn 0.4170 0.3166 0.8520
vn 0.4179 0.3162 0.8517
vn 0.4176 0.3164 0.8518
vn 0.4173 0.3165 0.8519
vn 0.4174 0.3164 0.8519
vn 0.4170 0.3164 0.8521
vn 0.4173 0.3163 0.8519
vn 0.4170 0.3163 0.8521
vn 0.4175 0.3164 0.8518
vn 0.4171 0.3163 0.8521
usemtl None
s off
f 28//21 30//21 29//21
f 47//22 46//22 34//22
f 28//23 29//23 39//23
f 38//24 37//24 36//24
f 28//25 39//25 40//25
f 39//26 38//26 41//26
f 41//27 40//27 39//27
f 44//28 43//28 42//28
f 42//29 41//29 38//29
f 38//30 36//30 35//30
f 38//31 35//31 42//31
f 45//32 44//32 42//32
f 34//31 33//31 47//31
f 33//27 32//27 31//27
f 42//33 35//33 45//33
f 35//34 34//34 45//34
f 46//35 45//35 34//35
f 31//36 47//36 33//36
o 2_United_States_Virgin_Islands_sphere.001
v 2.010539 1.576563 4.297575
v 2.013608 1.574862 4.296812
v 2.016612 1.573215 4.296059
v 2.018008 1.571331 4.296117
v 2.017170 1.571183 4.296550
v 2.016462 1.571413 4.296786
v 2.015649 1.571076 4.297276
v 2.015222 1.570222 4.297781
v 2.012679 1.571153 4.298589
v 2.011731 1.571717 4.298810
v 2.010845 1.573138 4.298690
v 2.010632 1.572376 4.299065
v 2.009828 1.572896 4.299238
v 2.008228 1.572554 4.300086
v 2.007002 1.572785 4.300554
v 2.005934 1.573829 4.300655
v 2.003604 1.573054 4.301991
v 2.002182 1.574290 4.302180
v 2.004286 1.575556 4.300766
v 2.006151 1.576085 4.299731
v 2.008976 1.575986 4.298491
v 2.010247 1.575131 4.298231
v 2.010898 1.575371 4.297849
v 2.009515 1.576369 4.298108
v 2.008819 1.577081 4.298162
vn 0.3894 0.3167 0.8649
vn 0.3896 0.3162 0.8650
vn 0.3901 0.3164 0.8647
vn 0.3911 0.3164 0.8642
vn 0.3902 0.3167 0.8645
vn 0.3910 0.3168 0.8642
vn 0.3899 0.3169 0.8646
vn 0.3903 0.3165 0.8646
vn 0.3904 0.3164 0.8646
vn 0.3906 0.3164 0.8645
vn 0.3904 0.3165 0.8645
vn 0.3903 0.3166 0.8646
vn 0.3899 0.3165 0.8647
vn 0.3905 0.3165 0.8645
vn 0.3905 0.3164 0.8645
vn 0.3904 0.3164 0.8645
vn 0.3900 0.3165 0.8647
vn 0.3901 0.3167 0.8646
vn 0.3905 0.3163 0.8645
vn 0.3902 0.3163 0.8647
vn 0.3909 0.3164 0.8643
vn 0.3903 0.3164 0.8646
usemtl None
s off
f 57//37 56//37 49//37
f 51//38 50//38 52//38
f 50//39 49//39 54//39
f 52//40 50//40 53//40
f 49//41 48//41 70//41
f 48//42 72//42 71//42
f 70//43 48//43 71//43
f 69//44 68//44 60//44
f 68//45 67//45 61//45
f 60//46 68//46 61//46
f 67//47 66//47 63//47
f 49//48 70//48 58//48
f 70//49 69//49 58//49
f 53//50 50//50 54//50
f 58//49 69//49 60//49
f 66//51 65//51 64//51
f 63//52 62//52 67//52
f 62//53 61//53 67//53
f 66//54 64//54 63//54
f 56//55 55//55 54//55
f 60//56 59//56 58//56
f 56//57 54//57 49//57
f 58//58 57//58 49//58
