# Blender v2.81 (sub 16) OBJ File: ''
# www.blender.org
mtllib United States Minor Outlying Islands.mtl
o 0_United_States_Minor_Outlying_Islands_sphere.001
v -4.673007 -0.033395 1.700858
v -4.674261 -0.035014 1.698120
v -4.675053 -0.031965 1.697087
v -4.672786 -0.031054 1.701693
vn -0.8883 -0.0775 0.4526
vn -0.8883 -0.0778 0.4527
usemtl None
s off
f 3//1 1//1 4//1
f 3//2 2//2 1//2
o 1_United_States_Minor_Outlying_Islands_sphere.001
v -4.950219 0.016476 0.306152
v -4.950492 0.015591 0.304869
v -4.950562 0.015956 0.304246
v -4.950573 0.016869 0.303724
v -4.950665 0.017573 0.302790
v -4.950475 0.017626 0.303966
v -4.950293 0.018020 0.304924
v -4.950191 0.017877 0.305640
vn -0.9848 0.0764 0.1559
vn -0.9848 0.0774 0.1557
vn -0.9846 0.0794 0.1558
vn -0.9847 0.0778 0.1561
vn -0.9849 0.0764 0.1556
vn -0.9847 0.0768 0.1565
usemtl None
s off
f 7//3 6//3 5//3
f 5//4 12//4 11//4
f 10//5 9//5 8//5
f 5//6 11//6 7//6
f 11//7 10//7 8//7
f 7//8 11//8 8//8
o 2_United_States_Minor_Outlying_Islands_sphere.001
v -4.949823 0.020344 0.306730
v -4.949974 0.018187 0.306856
v -4.950148 0.019042 0.305328
vn -0.9847 0.0780 0.1556
usemtl None
s off
f 13//9 15//9 14//9
o 3_United_States_Minor_Outlying_Islands_sphere.001
v -4.948287 0.070713 0.291402
v -4.948636 0.066296 0.291391
v -4.948555 0.070234 0.289943
v -4.948492 0.070752 0.290089
v -4.948433 0.071229 0.290222
v -4.948349 0.071899 0.290421
vn -0.9847 0.0771 0.1562
vn -0.9847 0.0777 0.1561
vn -0.9847 0.0776 0.1561
vn -0.9847 0.0775 0.1559
usemtl None
s off
f 16//10 20//10 19//10
f 16//11 21//11 20//11
f 19//12 18//12 16//12
f 18//13 17//13 16//13
o 4_United_States_Minor_Outlying_Islands_sphere.001
v -4.717536 0.511981 1.529035
v -4.717510 0.511180 1.529603
v -4.717719 0.509621 1.529058
v -4.718097 0.508869 1.527042
v -4.718574 0.509191 1.523874
v -4.718616 0.509833 1.523286
v -4.718521 0.509753 1.523926
v -4.718371 0.510367 1.524566
v -4.717943 0.511669 1.526628
v -4.718030 0.511642 1.526087
v -4.718171 0.511420 1.525306
v -4.718304 0.511353 1.524500
v -4.718463 0.511684 1.523332
v -4.718639 0.511780 1.522176
v -4.718706 0.512158 1.521565
v -4.718628 0.512457 1.521905
v -4.717781 0.512478 1.527243
vn -0.9846 0.0806 0.1548
vn -0.9847 0.0777 0.1560
vn -0.9847 0.0779 0.1561
vn -0.9847 0.0774 0.1561
vn -0.9846 0.0783 0.1560
vn -0.9849 0.0766 0.1555
vn -0.9847 0.0779 0.1560
vn -0.9843 0.0824 0.1561
vn -0.9847 0.0769 0.1561
vn -0.9848 0.0765 0.1561
vn -0.9847 0.0775 0.1559
vn -0.9848 0.0773 0.1558
vn -0.9848 0.0769 0.1560
vn -0.9849 0.0756 0.1558
vn -0.9847 0.0776 0.1559
usemtl None
s off
f 31//14 30//14 38//14
f 23//15 22//15 24//15
f 22//16 38//16 30//16
f 24//17 22//17 30//17
f 38//18 37//18 34//18
f 37//19 36//19 35//19
f 34//20 37//20 35//20
f 34//21 33//21 32//21
f 34//22 32//22 38//22
f 32//23 31//23 38//23
f 26//24 25//24 29//24
f 25//25 24//25 30//25
f 26//26 29//26 28//26
f 28//27 27//27 26//27
f 30//28 29//28 25//28
o 5_United_States_Minor_Outlying_Islands_sphere.001
v -4.718732 0.557231 1.499002
v -4.719185 0.557164 1.496178
v -4.718970 0.560018 1.496114
v -4.718522 0.560047 1.498931
vn -0.9847 0.0775 0.1559
vn -0.9847 0.0776 0.1561
usemtl None
s off
f 41//29 39//29 42//29
f 41//30 40//30 39//30
o 6_United_States_Minor_Outlying_Islands_sphere.001
v -4.650054 1.418517 0.856280
v -4.650540 1.418098 0.853845
v -4.650434 1.419182 0.852869
v -4.649900 1.420928 0.853593
v -4.648252 1.423502 0.860105
v -4.647661 1.423134 0.864388
vn -0.9610 0.2308 0.1522
vn -0.9610 0.2307 0.1523
vn -0.9610 0.2309 0.1521
vn -0.9611 0.2307 0.1519
usemtl None
s off
f 44//31 43//31 46//31
f 48//32 47//32 43//32
f 47//33 46//33 43//33
f 46//34 45//34 44//34
o 7_United_States_Minor_Outlying_Islands_sphere.001
v -4.648493 1.422139 0.860645
v -4.648593 1.421973 0.860267
v -4.648424 1.422695 0.860235
vn -0.9610 0.2306 0.1527
usemtl None
s off
f 51//35 50//35 49//35
o 8_United_States_Minor_Outlying_Islands_sphere.001
v -4.649138 1.421801 0.857084
v -4.649580 1.421635 0.854542
v -4.649234 1.422547 0.855348
v -4.648707 1.423447 0.857312
v -4.648370 1.424211 0.858278
v -4.647474 1.425300 0.862285
v -4.647256 1.425241 0.863753
v -4.648081 1.423476 0.861215
v -4.648671 1.422377 0.859163
vn -0.9610 0.2307 0.1523
vn -0.9610 0.2309 0.1523
vn -0.9612 0.2299 0.1523
vn -0.9611 0.2307 0.1520
vn -0.9610 0.2311 0.1520
vn -0.9610 0.2310 0.1523
vn -0.9610 0.2308 0.1523
usemtl None
s off
f 52//36 60//36 55//36
f 58//37 57//37 59//37
f 57//38 56//38 59//38
f 55//39 54//39 52//39
f 54//40 53//40 52//40
f 56//41 55//41 60//41
f 60//42 59//42 56//42
o 9_United_States_Minor_Outlying_Islands_sphere.001
v 1.216129 1.571133 4.551887
v 1.217041 1.570726 4.551911
v 1.219772 1.570798 4.551448
v 1.219913 1.570674 4.551477
v 1.220766 1.570696 4.551333
v 1.221730 1.569590 4.551639
v 1.222030 1.569450 4.551649
v 1.222129 1.568473 4.552038
v 1.222172 1.568042 4.552210
v 1.222063 1.567766 4.552341
v 1.222217 1.566229 4.552953
v 1.221702 1.565793 4.553216
v 1.221270 1.565777 4.553290
v 1.221024 1.565485 4.553451
v 1.220326 1.565459 4.553572
v 1.220011 1.565731 4.553510
v 1.219162 1.565700 4.553657
v 1.218858 1.565837 4.553648
v 1.218432 1.565821 4.553722
v 1.218113 1.566083 4.553664
v 1.218083 1.566369 4.553551
v 1.217621 1.566764 4.553460
v 1.217560 1.567333 4.553234
v 1.216591 1.568302 4.552986
v 1.216575 1.568440 4.552931
v 1.215962 1.568698 4.552922
v 1.214498 1.570090 4.552577
v 1.214539 1.571093 4.552155
vn 0.1504 0.3787 0.9132
vn 0.1375 0.3798 0.9148
vn 0.1446 0.3791 0.9140
vn 0.1444 0.3789 0.9141
vn 0.1450 0.3788 0.9140
vn 0.1452 0.3785 0.9141
vn 0.1433 0.3795 0.9140
vn 0.1441 0.3785 0.9143
vn 0.1446 0.3813 0.9131
vn 0.1454 0.3791 0.9139
vn 0.1453 0.3771 0.9147
vn 0.1451 0.3791 0.9139
vn 0.1457 0.3784 0.9141
vn 0.1448 0.3787 0.9141
vn 0.1445 0.3785 0.9143
vn 0.1450 0.3788 0.9141
vn 0.1444 0.3785 0.9143
vn 0.1449 0.3785 0.9142
vn 0.1382 0.3791 0.9150
vn 0.1464 0.3780 0.9142
vn 0.1437 0.3788 0.9142
vn 0.1442 0.3788 0.9142
vn 0.1446 0.3786 0.9142
vn 0.1442 0.3783 0.9144
usemtl None
s off
f 85//43 84//43 83//43
f 69//44 68//44 70//44
f 68//45 67//45 66//45
f 66//46 65//46 64//46
f 68//47 66//47 64//47
f 70//48 68//48 64//48
f 72//49 71//49 73//49
f 71//50 70//50 73//50
f 64//51 63//51 62//51
f 75//52 74//52 73//52
f 78//53 77//53 76//53
f 76//54 75//54 73//54
f 73//55 70//55 76//55
f 70//56 64//56 83//56
f 76//57 83//57 81//57
f 62//58 61//58 86//58
f 61//59 88//59 87//59
f 83//56 76//56 70//56
f 64//60 62//60 85//60
f 78//58 76//58 81//58
f 80//61 79//61 81//61
f 79//62 78//62 81//62
f 83//63 82//63 81//63
f 83//64 64//64 85//64
f 61//65 87//65 86//65
f 86//66 85//66 62//66
o 10_United_States_Minor_Outlying_Islands_sphere.001
v -4.548504 1.633425 -1.074550
v -4.549206 1.630539 -1.077666
v -4.546938 1.632836 -1.085975
v -4.547431 1.633004 -1.082427
v -4.547375 1.634302 -1.079387
v -4.546494 1.636877 -1.078209
v -4.544530 1.640959 -1.079938
v -4.546402 1.638113 -1.075563
vn -0.9142 0.3785 -0.1447
vn -0.9141 0.3787 -0.1449
vn -0.9141 0.3786 -0.1448
vn -0.9143 0.3782 -0.1449
vn -0.9141 0.3788 -0.1447
vn -0.9141 0.3789 -0.1447
usemtl None
s off
f 93//67 90//67 89//67
f 89//68 96//68 94//68
f 96//69 95//69 94//69
f 92//70 91//70 90//70
f 89//71 94//71 93//71
f 93//72 92//72 90//72
o 11_United_States_Minor_Outlying_Islands_sphere.001
v -4.374640 2.348191 0.204912
v -4.375049 2.348145 0.202505
v -4.373918 2.349621 0.203934
v -4.374206 2.348780 0.205372
v -4.374402 2.348354 0.205783
vn -0.8449 0.5179 0.1339
vn -0.8453 0.5173 0.1338
vn -0.8450 0.5178 0.1334
usemtl None
s off
f 99//73 98//73 97//73
f 101//74 100//74 97//74
f 100//75 99//75 97//75
o 12_United_States_Minor_Outlying_Islands_sphere.001
v -4.376117 2.347284 0.199095
v -4.376546 2.347104 0.197080
v -4.375152 2.349140 0.198005
v -4.374131 2.350387 0.199629
v -4.373500 2.350859 0.201784
v -4.373282 2.350549 0.204364
v -4.374440 2.349061 0.202807
v -4.375396 2.347958 0.201041
vn -0.8451 0.5176 0.1337
vn -0.8449 0.5179 0.1338
vn -0.8447 0.5183 0.1337
vn -0.8451 0.5176 0.1340
vn -0.8450 0.5177 0.1338
vn -0.8448 0.5180 0.1339
usemtl None
s off
f 109//76 108//76 105//76
f 107//77 106//77 108//77
f 106//78 105//78 108//78
f 105//79 104//79 109//79
f 104//80 103//80 102//80
f 109//81 104//81 102//81
