# Blender v2.81 (sub 16) OBJ File: ''
# www.blender.org
mtllib United States Minor Outlying Islands.mtl
o 0_United_States_Minor_Outlying_Islands.002_sphere.001
v -4.698351 -0.033345 1.708922
v -4.698736 -0.033942 1.707888
v -4.698909 -0.032813 1.707455
v -4.698245 -0.032484 1.709221
vn -0.9355 -0.0066 0.3533
vn -0.9355 -0.0086 0.3532
usemtl None
s off
f 3//1 1//1 4//1
f 3//2 2//2 1//2
o 1_United_States_Minor_Outlying_Islands.002_sphere.001
v -4.990294 0.016849 0.307386
v -4.990313 0.016604 0.307030
v -4.990320 0.016705 0.306857
v -4.990324 0.016957 0.306713
v -4.990335 0.017152 0.306454
v -4.990320 0.017166 0.306782
v -4.990306 0.017274 0.307048
v -4.990297 0.017235 0.307246
vn -0.9989 0.0049 0.0464
vn -0.9989 0.0066 0.0472
vn -0.9989 0.0069 0.0462
vn -0.9988 0.0085 0.0475
vn -0.9989 0.0075 0.0469
vn -0.9989 0.0059 0.0469
usemtl None
s off
f 10//3 8//3 7//3
f 5//4 12//4 11//4
f 10//5 9//5 8//5
f 5//6 11//6 7//6
f 11//7 10//7 7//7
f 7//8 6//8 5//8
o 2_United_States_Minor_Outlying_Islands.002_sphere.001
v -4.990206 0.019716 0.308753
v -4.990210 0.019126 0.308786
v -4.990228 0.019360 0.308365
vn -0.9988 0.0077 0.0476
usemtl None
s off
f 13//9 15//9 14//9
o 3_United_States_Minor_Outlying_Islands.002_sphere.001
v -4.990535 0.070114 0.293342
v -4.990545 0.068932 0.293335
v -4.990554 0.069986 0.292950
v -4.990551 0.070125 0.292989
v -4.990549 0.070252 0.293026
v -4.990545 0.070430 0.293080
vn -0.9987 0.0154 0.0476
vn -0.9989 0.0082 0.0468
vn -0.9989 0.0000 0.0475
vn -0.9989 0.0082 0.0471
usemtl None
s off
f 16//10 20//10 19//10
f 16//11 21//11 20//11
f 19//12 18//12 16//12
f 18//13 17//13 16//13
o 4_United_States_Minor_Outlying_Islands.002_sphere.001
v -4.731588 0.512836 1.531861
v -4.731545 0.512420 1.532148
v -4.731713 0.511622 1.531879
v -4.732059 0.511261 1.530882
v -4.732509 0.511459 1.529349
v -4.732561 0.511786 1.529067
v -4.732472 0.511739 1.529372
v -4.732347 0.512042 1.529675
v -4.731972 0.512687 1.530669
v -4.732054 0.512676 1.530405
v -4.732182 0.512568 1.530026
v -4.732305 0.512539 1.529639
v -4.732458 0.512711 1.529079
v -4.732620 0.512765 1.528533
v -4.732689 0.512955 1.528244
v -4.732625 0.513103 1.528401
v -4.731835 0.513097 1.530968
vn -0.9512 0.1033 0.2908
vn -0.9510 0.1027 0.2917
vn -0.9507 0.1021 0.2929
vn -0.9507 0.1020 0.2930
vn -0.9508 0.1020 0.2925
vn -0.9506 0.1034 0.2928
vn -0.9509 0.1021 0.2922
vn -0.9498 0.1117 0.2922
vn -0.9512 0.0975 0.2929
vn -0.9509 0.1007 0.2927
vn -0.9509 0.1016 0.2925
vn -0.9519 0.0986 0.2900
vn -0.9507 0.1024 0.2928
vn -0.9509 0.1013 0.2925
vn -0.9508 0.1012 0.2927
usemtl None
s off
f 31//14 30//14 38//14
f 23//15 22//15 24//15
f 22//16 38//16 30//16
f 24//17 22//17 30//17
f 38//18 37//18 34//18
f 37//19 36//19 35//19
f 34//20 37//20 35//20
f 34//21 33//21 32//21
f 34//22 32//22 31//22
f 26//23 25//23 29//23
f 25//24 24//24 30//24
f 26//25 29//25 28//25
f 28//26 27//26 26//26
f 30//27 29//27 25//27
f 34//28 31//28 38//28
o 5_United_States_Minor_Outlying_Islands.002_sphere.001
v -4.735109 0.559890 1.503426
v -4.735502 0.559888 1.502151
v -4.735352 0.561223 1.502103
v -4.734959 0.561224 1.503379
vn -0.9492 0.1169 0.2922
vn -0.9491 0.1177 0.2922
usemtl None
s off
f 42//29 40//29 39//29
f 42//30 41//30 40//30
o 6_United_States_Minor_Outlying_Islands.002_sphere.001
v -4.708533 1.438471 0.869115
v -4.708641 1.438392 0.868637
v -4.708611 1.438602 0.868442
v -4.708484 1.438941 0.868579
v -4.708110 1.439437 0.869859
v -4.707985 1.439362 0.870708
vn -0.9432 0.2880 0.1654
vn -0.9440 0.2858 0.1649
vn -0.9443 0.2849 0.1648
vn -0.9441 0.2855 0.1645
usemtl None
s off
f 44//31 43//31 46//31
f 48//32 47//32 43//32
f 47//33 46//33 43//33
f 46//34 45//34 44//34
o 7_United_States_Minor_Outlying_Islands.002_sphere.001
v -4.707558 1.440365 0.871411
v -4.707580 1.440333 0.871336
v -4.707539 1.440474 0.871329
vn -0.9428 0.2917 0.1612
usemtl None
s off
f 51//35 50//35 49//35
o 8_United_States_Minor_Outlying_Islands.002_sphere.001
v -4.707603 1.441225 0.869661
v -4.707698 1.441195 0.869160
v -4.707617 1.441372 0.869317
v -4.707497 1.441545 0.869702
v -4.707419 1.441694 0.869892
v -4.707218 1.441903 0.870683
v -4.707171 1.441890 0.870974
v -4.707362 1.441548 0.870474
v -4.707497 1.441335 0.870070
vn -0.9425 0.2909 0.1643
vn -0.9432 0.2886 0.1647
vn -0.9433 0.2882 0.1645
vn -0.9427 0.2906 0.1643
vn -0.9448 0.2835 0.1641
vn -0.9446 0.2846 0.1636
vn -0.9432 0.2888 0.1645
usemtl None
s off
f 52//36 60//36 55//36
f 58//37 57//37 59//37
f 57//38 56//38 59//38
f 55//39 54//39 52//39
f 54//40 53//40 52//40
f 56//41 55//41 60//41
f 60//42 59//42 56//42
o 9_United_States_Minor_Outlying_Islands.002_sphere.001
v 1.225680 1.579509 4.582186
v 1.225963 1.579368 4.582158
v 1.226825 1.579367 4.581923
v 1.226869 1.579325 4.581924
v 1.227141 1.579325 4.581851
v 1.227444 1.578948 4.581898
v 1.227540 1.578899 4.581889
v 1.227569 1.578572 4.581994
v 1.227581 1.578427 4.582041
v 1.227545 1.578336 4.582082
v 1.227589 1.577820 4.582248
v 1.227422 1.577679 4.582343
v 1.227282 1.577679 4.582381
v 1.227202 1.577585 4.582436
v 1.226978 1.577585 4.582497
v 1.226879 1.577680 4.582491
v 1.226607 1.577680 4.582565
v 1.226511 1.577731 4.582574
v 1.226376 1.577731 4.582611
v 1.226276 1.577822 4.582607
v 1.226268 1.577917 4.582576
v 1.226124 1.578054 4.582569
v 1.226108 1.578244 4.582507
v 1.225808 1.578574 4.582475
v 1.225804 1.578620 4.582460
v 1.225613 1.578712 4.582480
v 1.225166 1.579183 4.582440
v 1.225185 1.579510 4.582321
vn 0.2503 0.3160 0.9152
vn 0.2483 0.3169 0.9154
vn 0.2498 0.3044 0.9192
vn 0.2500 0.3168 0.9149
vn 0.2489 0.3176 0.9150
vn 0.2512 0.3164 0.9148
vn 0.2562 0.3154 0.9137
vn 0.2491 0.3165 0.9153
vn 0.2472 0.3157 0.9161
vn 0.2502 0.3165 0.9150
vn 0.2513 0.3168 0.9146
vn 0.2541 0.3172 0.9137
vn 0.2560 0.3159 0.9136
vn 0.2505 0.3168 0.9148
vn 0.2696 0.3118 0.9111
vn 0.2460 0.3162 0.9162
vn 0.2495 0.3200 0.9140
vn 0.2531 0.3161 0.9143
vn 0.2452 0.3163 0.9164
vn 0.2503 0.3163 0.9150
vn 0.2501 0.3164 0.9151
vn 0.2505 0.3172 0.9147
vn 0.2479 0.3142 0.9164
vn 0.2524 0.3160 0.9146
vn 0.2506 0.3123 0.9163
vn 0.2503 0.3183 0.9143
usemtl None
s off
f 75//43 73//43 76//43
f 66//44 65//44 64//44
f 64//45 63//45 62//45
f 62//46 61//46 86//46
f 61//47 88//47 87//47
f 86//48 61//48 87//48
f 85//49 84//49 83//49
f 86//50 85//50 62//50
f 66//51 64//51 70//51
f 64//52 62//52 85//52
f 83//53 64//53 85//53
f 83//54 82//54 81//54
f 67//55 66//55 68//55
f 64//56 83//56 70//56
f 69//57 68//57 70//57
f 70//58 68//58 66//58
f 72//59 71//59 73//59
f 71//60 70//60 73//60
f 81//61 80//61 79//61
f 83//62 81//62 76//62
f 70//63 83//63 76//63
f 73//64 70//64 76//64
f 75//65 74//65 73//65
f 81//66 79//66 78//66
f 78//67 77//67 76//67
f 81//68 78//68 76//68
o 10_United_States_Minor_Outlying_Islands.002_sphere.001
v -4.591350 1.651019 -1.089314
v -4.591442 1.650271 -1.090057
v -4.590765 1.650792 -1.092096
v -4.590949 1.650859 -1.091224
v -4.591001 1.651207 -1.090486
v -4.590832 1.651860 -1.090208
v -4.590364 1.652870 -1.090637
v -4.590868 1.652183 -1.089574
vn -0.9174 0.3313 -0.2203
vn -0.9174 0.3314 -0.2202
vn -0.9172 0.3320 -0.2202
vn -0.9174 0.3319 -0.2197
vn -0.9177 0.3302 -0.2207
vn -0.9176 0.3308 -0.2204
usemtl None
s off
f 93//69 90//69 89//69
f 89//70 96//70 94//70
f 96//71 95//71 94//71
f 92//72 91//72 90//72
f 89//73 94//73 93//73
f 93//74 92//74 90//74
o 11_United_States_Minor_Outlying_Islands.002_sphere.001
v -4.400959 2.362830 0.205638
v -4.401028 2.362775 0.204809
v -4.400711 2.363319 0.205303
v -4.400835 2.363045 0.205796
v -4.400906 2.362902 0.205936
vn -0.8788 0.4754 0.0418
vn -0.8776 0.4777 0.0408
vn -0.8797 0.4737 0.0420
usemtl None
s off
f 99//75 98//75 97//75
f 101//76 100//76 97//76
f 100//77 99//77 97//77
o 12_United_States_Minor_Outlying_Islands.002_sphere.001
v -4.401421 2.362351 0.201329
v -4.401508 2.362251 0.200621
v -4.401090 2.362996 0.200951
v -4.400810 2.363464 0.201519
v -4.400669 2.363662 0.202263
v -4.400666 2.363591 0.203144
v -4.400986 2.363044 0.202614
v -4.401241 2.362624 0.202006
vn -0.8790 0.4750 0.0415
vn -0.8793 0.4745 0.0409
vn -0.8793 0.4745 0.0411
vn -0.8786 0.4757 0.0415
vn -0.8793 0.4745 0.0414
vn -0.8794 0.4743 0.0414
usemtl None
s off
f 109//78 108//78 105//78
f 107//79 106//79 108//79
f 106//80 105//80 108//80
f 105//81 104//81 109//81
f 104//82 103//82 102//82
f 109//83 104//83 102//83
