# Blender v2.81 (sub 16) OBJ File: ''
# www.blender.org
mtllib United States Virgin Islands.mtl
o 0_United_States_Virgin_Islands_sphere.001
v 2.008888 1.512107 4.256479
v 2.013013 1.510551 4.254791
v 2.015150 1.509375 4.254015
v 2.017090 1.507615 4.253495
v 2.020998 1.511496 4.250471
v 2.027634 1.513052 4.246675
v 2.035156 1.512560 4.242974
v 2.041632 1.510377 4.240255
v 2.041826 1.508887 4.240552
v 2.036941 1.508352 4.243184
v 2.033000 1.506922 4.245573
v 2.025410 1.502941 4.250499
v 2.021413 1.501567 4.252902
v 1.983075 1.495916 4.273939
v 1.979673 1.494583 4.276028
v 1.980756 1.498296 4.274487
v 1.980742 1.501443 4.273658
v 1.979887 1.510217 4.271758
v 1.980244 1.512894 4.270864
v 1.981618 1.514573 4.269717
v 1.988769 1.512175 4.266711
v 1.992537 1.514119 4.264275
v 1.996355 1.516942 4.261578
v 2.000685 1.517994 4.259091
v 2.001200 1.517438 4.258977
vn 0.4417 0.2307 0.8670
vn 0.4419 0.2307 0.8669
vn 0.4418 0.2307 0.8670
vn 0.4416 0.2306 0.8671
vn 0.4416 0.2307 0.8670
vn 0.4415 0.2308 0.8671
vn 0.4417 0.2308 0.8670
vn 0.4408 0.2309 0.8674
vn 0.4417 0.2306 0.8670
vn 0.4420 0.2307 0.8669
vn 0.4419 0.2304 0.8670
vn 0.4418 0.2308 0.8669
vn 0.4415 0.2308 0.8670
usemtl None
s off
f 14//1 1//1 22//1
f 9//1 8//1 10//1
f 8//2 7//2 10//2
f 7//2 6//2 11//2
f 6//1 5//1 12//1
f 11//3 6//3 12//3
f 4//4 3//4 2//4
f 5//1 4//1 13//1
f 13//5 12//5 5//5
f 11//6 10//6 7//6
f 4//7 2//7 13//7
f 2//3 1//3 13//3
f 14//3 13//3 1//3
f 16//1 15//1 14//1
f 19//8 18//8 20//8
f 18//1 17//1 21//1
f 17//9 16//9 14//9
f 18//3 21//3 20//3
f 17//10 14//10 21//10
f 24//11 23//11 25//11
f 23//12 22//12 1//12
f 25//12 23//12 1//12
f 22//13 21//13 14//13
o 1_United_States_Virgin_Islands_sphere.001
v 2.011507 1.545085 4.246367
v 2.015088 1.545085 4.244543
v 2.014842 1.543171 4.245178
v 2.025691 1.559059 4.232724
v 2.027685 1.555270 4.233448
v 2.023141 1.554483 4.236125
v 2.013552 1.557703 4.239532
v 2.011309 1.556685 4.241143
v 2.015740 1.551670 4.241187
v 2.003212 1.549371 4.248626
v 1.987040 1.547969 4.257510
v 1.981266 1.552693 4.258283
v 1.984624 1.560442 4.253014
v 1.989678 1.562903 4.249309
v 1.995300 1.564751 4.245595
v 1.993400 1.567499 4.245302
v 1.996100 1.569181 4.243154
v 2.007948 1.565942 4.238604
v 2.013598 1.564849 4.236227
v 2.019057 1.562485 4.234531
vn 0.4416 0.2308 0.8670
vn 0.4202 0.3786 0.8247
vn 0.4201 0.3787 0.8247
vn 0.4202 0.3786 0.8246
vn 0.4202 0.3787 0.8247
vn 0.4202 0.3787 0.8246
vn 0.4203 0.3787 0.8246
vn 0.4203 0.3786 0.8246
usemtl None
s off
f 26//14 28//14 27//14
f 44//15 43//15 32//15
f 26//16 27//16 34//16
f 26//15 34//15 33//15
f 37//17 36//17 38//17
f 36//18 35//18 39//18
f 35//15 26//15 33//15
f 32//19 31//19 45//19
f 31//15 30//15 29//15
f 36//16 39//16 38//16
f 35//16 33//16 40//16
f 31//16 29//16 45//16
f 35//19 40//19 39//19
f 33//20 32//20 43//20
f 40//18 33//18 43//18
f 42//21 41//21 40//21
f 43//15 42//15 40//15
f 45//21 44//21 32//21
o 2_United_States_Virgin_Islands_sphere.001
v 1.989807 1.566406 4.247634
v 2.000009 1.560730 4.245043
v 2.010010 1.555223 4.242475
v 2.014681 1.549050 4.242929
v 2.011914 1.548629 4.244533
v 2.009573 1.549415 4.245365
v 2.006915 1.548390 4.247190
v 2.005556 1.545696 4.249119
v 1.997231 1.548830 4.251922
v 1.994122 1.550687 4.252654
v 1.991130 1.555281 4.252068
v 1.990514 1.552855 4.253496
v 1.987869 1.554559 4.254062
v 1.982776 1.553555 4.257117
v 1.978839 1.554359 4.258755
v 1.975299 1.557739 4.259007
v 1.968057 1.555390 4.263775
v 1.963380 1.559377 4.264327
v 1.969799 1.563340 4.259237
v 1.975666 1.564987 4.255491
v 1.984780 1.564571 4.251039
v 1.988996 1.561742 4.250189
v 1.991092 1.562497 4.248775
v 1.986489 1.565804 4.249602
v 1.984146 1.568157 4.249715
vn 0.4202 0.3787 0.8246
vn 0.4201 0.3786 0.8247
vn 0.4202 0.3786 0.8247
vn 0.4202 0.3788 0.8246
vn 0.4203 0.3787 0.8246
vn 0.4200 0.3787 0.8247
vn 0.4203 0.3786 0.8246
vn 0.4201 0.3787 0.8247
vn 0.4201 0.3788 0.8246
usemtl None
s off
f 55//22 54//22 47//22
f 49//23 48//23 50//23
f 48//24 47//24 52//24
f 50//23 48//23 51//23
f 47//25 46//25 68//25
f 46//25 70//25 69//25
f 68//26 46//26 69//26
f 67//23 66//23 58//23
f 66//24 65//24 59//24
f 58//23 66//23 59//23
f 65//26 64//26 61//26
f 47//24 68//24 56//24
f 68//23 67//23 56//23
f 51//27 48//27 52//27
f 56//28 67//28 58//28
f 64//29 63//29 62//29
f 61//26 60//26 65//26
f 60//22 59//22 65//22
f 64//24 62//24 61//24
f 54//30 53//30 52//30
f 58//22 57//22 56//22
f 54//24 52//24 47//24
f 56//29 55//29 47//29
