# Blender v2.81 (sub 16) OBJ File: ''
# www.blender.org
mtllib US Naval Base Guantanamo Bay.mtl
o 0_US_Naval_Base_Guantanamo_Bay_sphere.001
v 1.194136 1.690178 4.506060
v 1.191551 1.688109 4.507327
v 1.190829 1.686503 4.508106
v 1.189077 1.686723 4.508293
v 1.188360 1.688376 4.507721
v 1.186609 1.688590 4.507910
v 1.184980 1.687619 4.508570
v 1.183931 1.686879 4.509043
v 1.184163 1.685489 4.509582
v 1.188183 1.683234 4.509879
v 1.192373 1.682947 4.509335
v 1.192854 1.681867 4.509706
v 1.187836 1.681467 4.510666
v 1.180674 1.679494 4.512618
v 1.180124 1.679341 4.512768
v 1.180039 1.690908 4.507990
v 1.194525 1.701553 4.501287
v 1.200162 1.701609 4.500371
v 1.197837 1.700325 4.501271
v 1.197249 1.697551 4.502512
v 1.199805 1.695439 4.502983
v 1.202119 1.692036 4.504026
v 1.197615 1.690953 4.505188
vn 0.1450 0.3785 0.9142
vn 0.1448 0.3787 0.9141
vn 0.1446 0.3787 0.9142
vn 0.1449 0.3786 0.9142
vn 0.1448 0.3786 0.9142
vn 0.1464 0.3787 0.9139
vn 0.1447 0.3786 0.9142
vn 0.1451 0.3786 0.9141
vn 0.1448 0.3786 0.9141
vn 0.1450 0.3786 0.9141
vn 0.1450 0.3788 0.9140
vn 0.1447 0.3787 0.9141
vn 0.1448 0.3789 0.9140
vn 0.1450 0.3789 0.9140
vn 0.1454 0.3789 0.9140
vn 0.1448 0.3788 0.9141
usemtl None
s off
f 16//1 8//1 7//1
f 22//2 21//2 23//2
f 21//3 20//3 23//3
f 19//4 18//4 17//4
f 20//5 19//5 17//5
f 16//3 15//3 9//3
f 15//6 14//6 9//6
f 13//7 12//7 11//7
f 20//8 17//8 1//8
f 17//2 16//2 6//2
f 1//9 23//9 20//9
f 4//10 3//10 2//10
f 2//11 1//11 5//11
f 5//12 17//12 6//12
f 14//2 13//2 9//2
f 13//13 11//13 10//13
f 13//14 10//14 9//14
f 17//4 5//4 1//4
f 5//10 4//10 2//10
f 9//15 8//15 16//15
f 7//16 6//16 16//16
o 1_US_Naval_Base_Guantanamo_Bay_sphere.001
v 1.205023 1.702836 4.499093
v 1.207175 1.680679 4.507929
v 1.203456 1.680598 4.508552
v 1.194705 1.678647 4.510746
v 1.187221 1.677825 4.512272
v 1.185964 1.679546 4.511758
v 1.185667 1.684644 4.509694
v 1.187598 1.686251 4.508722
v 1.190917 1.687817 4.507548
v 1.197663 1.693233 4.504236
v 1.199001 1.694369 4.503553
v 1.203076 1.694077 4.503029
v 1.203761 1.697230 4.501615
v 1.202510 1.699086 4.501044
v 1.198607 1.701371 4.500716
v 1.194973 1.697797 4.502771
v 1.193679 1.698529 4.502673
v 1.191643 1.700633 4.502124
v 1.192232 1.702675 4.501185
vn 0.1448 0.3786 0.9141
vn 0.1448 0.3787 0.9141
vn 0.1445 0.3786 0.9142
vn 0.1447 0.3787 0.9141
vn 0.1453 0.3786 0.9141
vn 0.1449 0.3787 0.9141
vn 0.1451 0.3786 0.9141
vn 0.1448 0.3785 0.9142
vn 0.1447 0.3786 0.9142
vn 0.1449 0.3786 0.9141
vn 0.1450 0.3786 0.9141
vn 0.1447 0.3787 0.9142
vn 0.1446 0.3787 0.9142
usemtl None
s off
f 36//17 35//17 25//17
f 24//18 42//18 38//18
f 42//19 41//19 40//19
f 38//20 42//20 40//20
f 40//21 39//21 38//21
f 26//22 25//22 35//22
f 25//23 24//23 36//23
f 28//24 27//24 29//24
f 27//25 26//25 32//25
f 30//26 29//26 31//26
f 32//27 31//27 27//27
f 27//18 31//18 29//18
f 35//27 34//27 33//27
f 35//28 33//28 26//28
f 33//18 32//18 26//18
f 24//18 38//18 37//18
f 24//29 37//29 36//29
