# Blender v2.81 (sub 16) OBJ File: ''
# www.blender.org
mtllib US Naval Base Guantanamo Bay.mtl
o 0_US_Naval_Base_Guantanamo_Bay_sphere.001
v 1.201892 1.704489 4.543728
v 1.201195 1.703943 4.544128
v 1.200999 1.703506 4.544349
v 1.200534 1.703588 4.544445
v 1.200347 1.704051 4.544318
v 1.199888 1.704129 4.544415
v 1.199459 1.703880 4.544627
v 1.199183 1.703689 4.544775
v 1.199240 1.703306 4.544906
v 1.200289 1.702635 4.544876
v 1.201405 1.702499 4.544622
v 1.201533 1.702191 4.544705
v 1.200193 1.702151 4.545087
v 1.198318 1.701712 4.545768
v 1.198175 1.701678 4.545820
v 1.198192 1.704824 4.544612
v 1.202013 1.707628 4.542495
v 1.203541 1.707619 4.542080
v 1.202905 1.707274 4.542386
v 1.202743 1.706509 4.542723
v 1.203439 1.705904 4.542764
v 1.204075 1.704931 4.542962
v 1.202835 1.704671 4.543401
vn 0.2484 0.3453 0.9050
vn 0.2471 0.3461 0.9051
vn 0.2480 0.3460 0.9048
vn 0.2468 0.3454 0.9054
vn 0.2472 0.3463 0.9050
vn 0.2479 0.3460 0.9049
vn 0.2531 0.3443 0.9041
vn 0.2481 0.3463 0.9047
vn 0.2480 0.3459 0.9049
vn 0.2474 0.3460 0.9050
vn 0.2474 0.3462 0.9050
vn 0.2485 0.3470 0.9044
vn 0.2479 0.3461 0.9049
vn 0.2488 0.3460 0.9047
vn 0.2473 0.3462 0.9050
vn 0.2472 0.3464 0.9049
vn 0.2473 0.3461 0.9050
vn 0.2471 0.3459 0.9052
vn 0.2457 0.3466 0.9053
vn 0.2463 0.3465 0.9051
usemtl None
s off
f 16//1 8//1 7//1
f 22//2 21//2 23//2
f 21//3 20//3 23//3
f 19//4 18//4 17//4
f 20//5 19//5 17//5
f 16//6 15//6 9//6
f 15//7 14//7 9//7
f 13//8 12//8 11//8
f 20//9 17//9 1//9
f 17//10 16//10 6//10
f 1//11 23//11 20//11
f 4//12 3//12 2//12
f 2//13 1//13 5//13
f 5//14 17//14 6//14
f 14//11 13//11 9//11
f 13//15 11//15 10//15
f 13//16 10//16 9//16
f 17//17 5//17 1//17
f 5//18 4//18 2//18
f 9//19 8//19 16//19
f 7//20 6//20 16//20
o 1_US_Naval_Base_Guantanamo_Bay_sphere.001
v 1.208698 1.707704 4.540637
v 1.209285 1.701403 4.542886
v 1.208246 1.701438 4.543157
v 1.205852 1.701022 4.543971
v 1.203865 1.700911 4.544557
v 1.203542 1.701408 4.544455
v 1.203482 1.702816 4.543933
v 1.203990 1.703235 4.543634
v 1.204865 1.703630 4.543243
v 1.206677 1.705068 4.542198
v 1.207041 1.705374 4.541981
v 1.208154 1.705259 4.541721
v 1.208345 1.706140 4.541332
v 1.208004 1.706667 4.541224
v 1.206946 1.707321 4.541263
v 1.205965 1.706352 4.541902
v 1.205622 1.706562 4.541915
v 1.205089 1.707149 4.541836
v 1.205250 1.707704 4.541580
vn 0.2470 0.3461 0.9051
vn 0.2477 0.3471 0.9045
vn 0.2463 0.3460 0.9053
vn 0.2474 0.3461 0.9050
vn 0.2480 0.3457 0.9050
vn 0.2480 0.3460 0.9049
vn 0.2472 0.3466 0.9048
vn 0.2475 0.3462 0.9049
vn 0.2460 0.3463 0.9053
vn 0.2473 0.3462 0.9050
vn 0.2478 0.3460 0.9049
vn 0.2473 0.3465 0.9049
vn 0.2477 0.3460 0.9049
vn 0.2478 0.3459 0.9049
vn 0.2492 0.3459 0.9045
usemtl None
s off
f 36//21 35//21 25//21
f 24//22 42//22 38//22
f 42//23 41//23 40//23
f 38//24 42//24 40//24
f 40//25 39//25 38//25
f 26//26 25//26 35//26
f 25//24 24//24 36//24
f 28//27 27//27 29//27
f 27//28 26//28 32//28
f 30//29 29//29 31//29
f 32//30 31//30 27//30
f 27//31 31//31 29//31
f 35//32 34//32 33//32
f 35//33 33//33 26//33
f 33//24 32//24 26//24
f 24//34 38//34 37//34
f 24//35 37//35 36//35
