# Blender v2.81 (sub 16) OBJ File: ''
# www.blender.org
mtllib Wallis and Futuna.mtl
o 0_Wallis_and_Futuna_sphere.001
v -4.841730 -1.236043 0.165210
v -4.841584 -1.236629 0.165203
v -4.841872 -1.236339 0.160633
v -4.841835 -1.236632 0.159879
v -4.842003 -1.236160 0.158807
v -4.842184 -1.235842 0.156641
v -4.842329 -1.235413 0.155821
v -4.842998 -1.233023 0.154256
v -4.843649 -1.230569 0.153382
v -4.843951 -1.229230 0.154042
v -4.843579 -1.230151 0.157073
v -4.842692 -1.233170 0.159968
v -4.842546 -1.233707 0.160224
v -4.842416 -1.234025 0.161301
vn -0.9693 -0.2415 0.0459
vn -0.9695 -0.2409 0.0457
vn -0.9695 -0.2407 0.0457
vn -0.9694 -0.2410 0.0464
vn -0.9694 -0.2413 0.0456
vn -0.9695 -0.2406 0.0457
vn -0.9695 -0.2408 0.0460
vn -0.9697 -0.2399 0.0459
vn -0.9694 -0.2411 0.0456
vn -0.9693 -0.2415 0.0456
vn -0.9694 -0.2411 0.0457
usemtl None
s off
f 5//1 3//1 13//1
f 2//2 1//2 3//2
f 1//3 14//3 3//3
f 13//4 12//4 5//4
f 12//5 11//5 7//5
f 6//6 12//6 7//6
f 14//7 13//7 3//7
f 5//8 4//8 3//8
f 12//9 6//9 5//9
f 11//10 10//10 9//10
f 9//5 8//5 11//5
f 8//11 7//11 11//11
o 1_Wallis_and_Futuna_sphere.001
v -4.853533 -1.154342 0.326896
v -4.853567 -1.154559 0.325825
v -4.853737 -1.154226 0.324646
v -4.853946 -1.153605 0.323827
v -4.854263 -1.152266 0.323752
v -4.854679 -1.150785 0.322837
v -4.855035 -1.149389 0.322443
v -4.855176 -1.148284 0.323906
v -4.855647 -1.146469 0.323297
v -4.855989 -1.144805 0.323853
v -4.856229 -1.143368 0.325055
v -4.856381 -1.142268 0.326366
v -4.855858 -1.144163 0.327418
v -4.855433 -1.145634 0.328476
v -4.855068 -1.147065 0.328885
v -4.854720 -1.148868 0.327985
v -4.854621 -1.149193 0.328280
v -4.854557 -1.149427 0.328414
v -4.854398 -1.150043 0.328613
v -4.854456 -1.150271 0.327193
v -4.854285 -1.151106 0.326905
v -4.853735 -1.153311 0.327374
vn -0.9711 -0.2259 0.0764
vn -0.9712 -0.2258 0.0762
vn -0.9711 -0.2261 0.0765
vn -0.9712 -0.2257 0.0765
vn -0.9712 -0.2255 0.0766
vn -0.9709 -0.2269 0.0765
vn -0.9713 -0.2254 0.0765
vn -0.9713 -0.2254 0.0766
vn -0.9712 -0.2257 0.0764
vn -0.9709 -0.2271 0.0767
vn -0.9716 -0.2243 0.0756
vn -0.9713 -0.2255 0.0764
vn -0.9711 -0.2260 0.0760
vn -0.9713 -0.2252 0.0764
vn -0.9713 -0.2252 0.0765
vn -0.9715 -0.2247 0.0756
vn -0.9710 -0.2267 0.0765
vn -0.9713 -0.2254 0.0764
usemtl None
s off
f 17//12 36//12 19//12
f 29//13 28//13 30//13
f 28//14 27//14 24//14
f 22//15 28//15 23//15
f 27//16 26//16 25//16
f 25//17 24//17 27//17
f 24//18 23//18 28//18
f 22//19 21//19 20//19
f 28//20 22//20 30//20
f 32//21 31//21 34//21
f 31//22 30//22 34//22
f 22//12 20//12 35//12
f 20//23 19//23 35//23
f 22//24 35//24 34//24
f 33//25 32//25 34//25
f 30//26 22//26 34//26
f 19//27 18//27 17//27
f 17//28 16//28 36//28
f 16//16 15//16 36//16
f 36//29 35//29 19//29
