# Blender v2.81 (sub 16) OBJ File: ''
# www.blender.org
mtllib Western Sahara.mtl
o 0_Western_Sahara_sphere.001
v 4.351361 2.269953 0.654595
v 4.352780 2.269953 0.645631
v 4.326174 2.313267 0.646029
v 4.327063 2.313266 0.640423
v 4.331537 2.305734 0.641319
v 4.336028 2.298173 0.642215
v 4.340509 2.290627 0.643119
v 4.344982 2.283093 0.644030
v 4.347486 2.278873 0.644542
v 4.350368 2.274016 0.645148
v 4.350506 2.272271 0.651026
v 4.348589 2.275500 0.650630
v 4.345500 2.280272 0.651673
v 4.342477 2.284884 0.652915
v 4.339895 2.289104 0.652891
v 4.337416 2.293576 0.651241
v 4.335510 2.297103 0.649627
v 4.332028 2.302750 0.649761
v 4.327704 2.309401 0.651328
v 4.325428 2.313114 0.651335
v 4.353728 2.267650 0.645673
v 4.356881 2.259955 0.645892
v 4.360415 2.251341 0.646106
v 4.364191 2.242126 0.646361
v 4.368105 2.232569 0.646644
v 4.372025 2.222997 0.646928
v 4.375822 2.213723 0.647209
v 4.379380 2.205029 0.647483
v 4.382577 2.197222 0.647713
v 4.385285 2.190601 0.647932
v 4.387358 2.185533 0.648098
v 4.388698 2.182251 0.648220
v 4.390738 2.177261 0.648390
v 4.391026 2.175732 0.650573
v 4.389926 2.175734 0.657509
v 4.388634 2.175710 0.665727
v 4.387325 2.175714 0.673982
v 4.386020 2.175718 0.682211
v 4.384719 2.175711 0.690444
v 4.383406 2.175732 0.698684
v 4.382098 2.175734 0.706931
v 4.380790 2.175743 0.715169
v 4.379477 2.175763 0.723409
v 4.378153 2.175792 0.731685
v 4.376832 2.175828 0.739936
v 4.375518 2.175846 0.748184
v 4.374182 2.175910 0.756453
v 4.372875 2.175910 0.764710
v 4.371538 2.175972 0.772984
v 4.370211 2.176025 0.781227
v 4.368882 2.176069 0.789501
v 4.367541 2.176140 0.797779
v 4.366221 2.176175 0.806025
v 4.364886 2.176236 0.814294
v 4.363554 2.176297 0.822547
v 4.362213 2.176375 0.830810
v 4.360875 2.176445 0.839072
v 4.359542 2.176514 0.847310
v 4.358197 2.176601 0.855574
v 4.356860 2.176679 0.863811
v 4.355514 2.176774 0.872058
v 4.354167 2.176871 0.880314
v 4.352829 2.176947 0.888559
v 4.351487 2.177041 0.896786
v 4.350142 2.177146 0.905008
v 4.348791 2.177257 0.913240
v 4.347447 2.177361 0.921458
v 4.349990 2.171023 0.921975
v 4.352544 2.164665 0.922476
v 4.355103 2.158293 0.922986
v 4.357663 2.151918 0.923497
v 4.360211 2.145567 0.924015
v 4.362781 2.139168 0.924528
v 4.365345 2.132782 0.925039
v 4.367898 2.126416 0.925570
v 4.370464 2.120025 0.926082
v 4.373037 2.113612 0.926606
v 4.375607 2.107208 0.927130
v 4.378177 2.100806 0.927642
v 4.380748 2.094401 0.928164
v 4.383327 2.087971 0.928691
v 4.385908 2.081542 0.929216
v 4.388482 2.075127 0.929739
v 4.391057 2.068704 0.930274
v 4.393641 2.062265 0.930800
v 4.396233 2.055806 0.931328
v 4.398820 2.049360 0.931854
v 4.401401 2.042926 0.932390
v 4.403983 2.036490 0.932914
v 4.406580 2.030018 0.933443
v 4.409164 2.023574 0.933980
v 4.411756 2.017111 0.934517
v 4.414351 2.010646 0.935045
v 4.416937 2.004192 0.935592
v 4.419534 1.997720 0.936120
v 4.422132 1.991244 0.936659
v 4.424722 1.984781 0.937206
v 4.427315 1.978315 0.937745
v 4.429908 1.971845 0.938291
v 4.432685 1.964927 0.938853
v 4.433798 1.962014 0.939444
v 4.434158 1.960670 0.940683
v 4.433605 1.958667 0.949419
v 4.433817 1.950846 0.968527
v 4.433639 1.950092 0.971630
v 4.432020 1.948545 0.985895
v 4.431813 1.947030 0.991160
v 4.432290 1.943757 0.996714
v 4.433093 1.938166 1.006259
v 4.434027 1.931675 1.017343
v 4.434784 1.926457 1.026208
v 4.435281 1.924574 1.027991
v 4.437847 1.915310 1.036020
v 4.439543 1.909987 1.039233
v 4.441646 1.904285 1.040873
v 4.443975 1.898803 1.040500
v 4.449054 1.887707 1.037452
v 4.451449 1.882145 1.036877
v 4.460193 1.860806 1.037479
v 4.468945 1.839456 1.038054
v 4.483397 1.804232 1.038930
v 4.486415 1.796878 1.039102
v 4.492066 1.783105 1.039444
v 4.489885 1.783643 1.051806
v 4.489281 1.783769 1.055290
v 4.487540 1.784213 1.065122
v 4.484842 1.784895 1.080373
v 4.481327 1.785836 1.100106
v 4.477152 1.787021 1.123369
v 4.472950 1.788264 1.146647
v 4.472486 1.788402 1.149215
v 4.467490 1.789956 1.176693
v 4.462302 1.791698 1.204895
v 4.457125 1.793480 1.232917
v 4.452101 1.795303 1.259871
v 4.447402 1.797080 1.284893
v 4.443189 1.798731 1.307177
v 4.439625 1.800188 1.325867
v 4.436887 1.801314 1.340211
v 4.435115 1.802074 1.349411
v 4.434496 1.802328 1.352654
v 4.432732 1.803109 1.361753
v 4.435426 1.795463 1.364733
v 4.438262 1.787704 1.367121
v 4.441331 1.778630 1.371472
v 4.442271 1.776051 1.372286
v 4.444865 1.768775 1.374936
v 4.445761 1.766396 1.375501
v 4.448676 1.759629 1.374796
v 4.446681 1.763477 1.377329
v 4.445805 1.765550 1.377439
v 4.442801 1.773565 1.375441
v 4.442298 1.774966 1.374954
v 4.440903 1.779061 1.373053
v 4.431838 1.803221 1.367100
v 4.430799 1.806140 1.366030
v 4.429078 1.810596 1.365241
v 4.429712 1.811004 1.360167
v 4.431729 1.812882 1.342522
v 4.433634 1.812840 1.330602
v 4.439510 1.810496 1.299633
v 4.441122 1.811254 1.287483
v 4.442931 1.810569 1.277846
v 4.445820 1.808786 1.264266
v 4.448619 1.806279 1.253149
v 4.451510 1.803875 1.241182
v 4.454075 1.802962 1.227380
v 4.456512 1.801414 1.216039
v 4.459219 1.800501 1.201344
v 4.460854 1.800669 1.190575
v 4.460542 1.804409 1.182764
v 4.458414 1.812390 1.175325
v 4.456178 1.818985 1.172199
v 4.454280 1.824751 1.169099
v 4.451771 1.830718 1.169340
v 4.450286 1.834126 1.169803
v 4.449349 1.838121 1.165271
v 4.447561 1.844590 1.159637
v 4.446777 1.848538 1.154265
v 4.445740 1.851805 1.152268
v 4.445279 1.854944 1.146971
v 4.443947 1.860590 1.140612
v 4.442861 1.864640 1.136881
v 4.441260 1.870303 1.132174
v 4.439369 1.875388 1.130820
v 4.436958 1.882101 1.128482
v 4.432261 1.893901 1.127283
v 4.426825 1.908214 1.124169
v 4.423530 1.917468 1.120771
v 4.420793 1.925003 1.118351
v 4.416368 1.936778 1.115492
v 4.409140 1.956909 1.108481
v 4.407044 1.962823 1.106243
v 4.403925 1.971974 1.102003
v 4.401246 1.980338 1.097048
v 4.399445 1.986174 1.093155
v 4.398146 1.991082 1.088520
v 4.397785 1.994280 1.082438
v 4.397996 1.997355 1.073063
v 4.397772 2.000546 1.066131
v 4.397837 2.003668 1.057560
v 4.398070 2.006029 1.049911
v 4.397846 2.009225 1.042968
v 4.396945 2.012471 1.040164
v 4.395266 2.018318 1.035476
v 4.391844 2.029187 1.028656
v 4.389684 2.035907 1.024718
v 4.387122 2.044295 1.018962
v 4.385741 2.050036 1.012662
v 4.385425 2.052243 1.008890
v 4.385163 2.054105 1.005672
v 4.384697 2.058232 0.997823
v 4.384189 2.063092 0.988317
v 4.383604 2.067179 0.981326
v 4.382846 2.071356 0.975185
v 4.382349 2.074562 0.969935
v 4.381250 2.079589 0.963726
v 4.379980 2.083753 0.960860
v 4.377479 2.091304 0.956901
v 4.373374 2.103170 0.951787
v 4.368859 2.115739 0.947420
v 4.363980 2.129214 0.942984
v 4.361012 2.137583 0.939839
v 4.357358 2.147677 0.936516
v 4.354826 2.155280 0.932618
v 4.351866 2.163619 0.929498
v 4.350790 2.166946 0.927590
v 4.349102 2.171149 0.927254
v 4.347004 2.177023 0.925135
v 4.346056 2.180359 0.922394
v 4.346328 2.181932 0.916572
v 4.346711 2.183559 0.909896
v 4.347870 2.184727 0.899520
v 4.347764 2.186171 0.896411
v 4.346043 2.191061 0.894495
v 4.344518 2.195321 0.892983
v 4.342382 2.202147 0.888614
v 4.340893 2.207552 0.883881
v 4.339954 2.210874 0.881122
v 4.338164 2.216645 0.877329
v 4.337037 2.220754 0.873698
v 4.335832 2.226004 0.867576
v 4.334977 2.230104 0.862252
v 4.333549 2.234314 0.860255
v 4.331518 2.239353 0.859905
v 4.329297 2.243443 0.863234
v 4.325880 2.250932 0.865224
v 4.326659 2.253095 0.854647
v 4.327113 2.255558 0.845337
v 4.327478 2.257931 0.836828
v 4.327755 2.261171 0.826600
v 4.328958 2.261133 0.819106
v 4.329576 2.261900 0.813202
v 4.331576 2.260227 0.804947
v 4.333238 2.259382 0.796660
v 4.335184 2.256861 0.790972
v 4.338803 2.251860 0.781196
v 4.341502 2.248482 0.772995
v 4.342301 2.248471 0.767976
v 4.342505 2.250066 0.762516
v 4.342278 2.252401 0.757843
v 4.342649 2.252556 0.755094
v 4.344008 2.250853 0.750972
v 4.346410 2.247489 0.744602
v 4.347479 2.247458 0.737928
v 4.348177 2.248342 0.731212
v 4.347293 2.252470 0.726000
v 4.345912 2.259105 0.717367
v 4.344955 2.264039 0.710506
v 4.344615 2.267192 0.704406
v 4.345056 2.267995 0.699525
v 4.345911 2.268003 0.694107
v 4.346831 2.268158 0.687887
v 4.348743 2.267343 0.677948
v 4.349803 2.267328 0.671299
v 4.350768 2.268477 0.662201
vn 0.8449 0.5179 0.1338
vn 0.9141 0.3787 0.1448
vn 0.8450 0.5178 0.1338
vn 0.8450 0.5178 0.1339
vn 0.8449 0.5180 0.1338
vn 0.8450 0.5177 0.1338
vn 0.8449 0.5179 0.1337
vn 0.8449 0.5180 0.1339
vn 0.8450 0.5177 0.1339
vn 0.9141 0.3788 0.1448
vn 0.9141 0.3787 0.1447
vn 0.9142 0.3786 0.1448
vn 0.9141 0.3786 0.1448
vn 0.9139 0.3791 0.1448
vn 0.9141 0.3789 0.1448
vn 0.9142 0.3784 0.1448
vn 0.9142 0.3785 0.1448
vn 0.9137 0.3797 0.1446
vn 0.9142 0.3786 0.1447
vn 0.9142 0.3787 0.1447
vn 0.9141 0.3787 0.1449
vn 0.9139 0.3792 0.1446
vn 0.9142 0.3785 0.1449
vn 0.9143 0.3784 0.1448
vn 0.9140 0.3790 0.1447
vn 0.9138 0.3793 0.1453
vn 0.9141 0.3788 0.1447
vn 0.9142 0.3785 0.1447
vn 0.9141 0.3788 0.1446
vn 0.9141 0.3786 0.1450
vn 0.9140 0.3790 0.1446
vn 0.9141 0.3788 0.1449
vn 0.9140 0.3788 0.1450
vn 0.9141 0.3787 0.1450
vn 0.9140 0.3790 0.1448
vn 0.9143 0.3783 0.1448
vn 0.9142 0.3785 0.1446
usemtl None
s off
f 13//1 8//1 14//1
f 203//2 202//2 109//2
f 150//2 149//2 148//2
f 1//3 2//3 11//3
f 2//3 10//3 11//3
f 10//4 9//4 12//4
f 9//5 8//5 13//5
f 12//3 9//3 13//3
f 8//6 7//6 14//6
f 7//7 6//7 17//7
f 5//3 4//3 3//3
f 7//3 17//3 16//3
f 6//6 5//6 18//6
f 17//6 6//6 18//6
f 12//8 11//8 10//8
f 5//3 3//3 19//3
f 3//9 20//9 19//9
f 19//3 18//3 5//3
f 16//1 15//1 7//1
f 15//6 14//6 7//6
f 2//10 1//10 21//10
f 1//11 276//11 22//11
f 1//12 22//12 21//12
f 276//12 275//12 23//12
f 22//10 276//10 23//10
f 24//12 23//12 275//12
f 24//2 275//2 274//2
f 27//10 26//10 39//10
f 26//2 25//2 273//2
f 40//13 267//13 41//13
f 25//11 24//11 274//11
f 274//13 273//13 25//13
f 273//14 272//14 268//14
f 267//13 40//13 26//13
f 30//12 29//12 36//12
f 29//10 28//10 37//10
f 37//12 28//12 38//12
f 28//12 27//12 38//12
f 267//2 26//2 268//2
f 272//15 271//15 269//15
f 271//12 270//12 269//12
f 269//16 268//16 272//16
f 267//13 266//13 41//13
f 268//13 26//13 273//13
f 26//2 40//2 39//2
f 32//12 31//12 35//12
f 31//17 30//17 36//17
f 35//15 31//15 36//15
f 34//2 33//2 32//2
f 37//12 36//12 29//12
f 35//12 34//12 32//12
f 27//12 39//12 38//12
f 266//13 265//13 44//13
f 264//12 263//12 260//12
f 263//18 262//18 261//18
f 260//17 263//17 261//17
f 265//19 264//19 46//19
f 266//11 42//11 41//11
f 44//13 43//13 266//13
f 43//12 42//12 266//12
f 44//20 265//20 45//20
f 47//13 46//13 264//13
f 46//2 45//2 265//2
f 264//11 48//11 47//11
f 264//13 260//13 259//13
f 49//2 48//2 259//2
f 49//13 259//13 258//13
f 48//2 264//2 259//2
f 52//21 51//21 258//21
f 51//13 50//13 258//13
f 52//12 258//12 257//12
f 50//2 49//2 258//2
f 257//19 256//19 54//19
f 256//22 255//22 254//22
f 254//23 253//23 252//23
f 256//13 254//13 54//13
f 257//19 53//19 52//19
f 54//2 53//2 257//2
f 252//2 55//2 254//2
f 252//12 251//12 250//12
f 252//12 250//12 244//12
f 250//10 249//10 244//10
f 244//21 249//21 245//21
f 55//2 54//2 254//2
f 55//2 252//2 244//2
f 55//19 244//19 243//19
f 56//12 55//12 243//12
f 248//2 247//2 246//2
f 249//12 248//12 245//12
f 57//13 56//13 243//13
f 59//2 58//2 242//2
f 58//2 57//2 243//2
f 59//2 242//2 241//2
f 61//2 60//2 238//2
f 60//2 59//2 239//2
f 64//12 63//12 234//12
f 63//2 62//2 235//2
f 64//12 234//12 233//12
f 62//12 61//12 237//12
f 60//12 239//12 238//12
f 59//2 241//2 240//2
f 248//19 246//19 245//19
f 65//20 64//20 233//20
f 66//10 65//10 232//10
f 243//12 242//12 58//12
f 65//12 233//12 232//12
f 63//2 235//2 234//2
f 67//24 66//24 231//24
f 240//12 239//12 59//12
f 238//12 237//12 61//12
f 237//2 236//2 62//2
f 236//17 235//17 62//17
f 70//17 69//17 226//17
f 69//2 68//2 227//2
f 72//10 71//10 224//10
f 71//2 70//2 225//2
f 75//10 74//10 222//10
f 74//12 73//12 223//12
f 71//12 225//12 224//12
f 69//25 227//25 226//25
f 74//12 223//12 222//12
f 73//12 72//12 224//12
f 223//13 73//13 224//13
f 77//2 76//2 221//2
f 76//17 75//17 222//17
f 221//2 76//2 222//2
f 80//12 79//12 220//12
f 79//17 78//17 220//17
f 78//10 77//10 221//10
f 78//2 221//2 220//2
f 81//2 80//2 219//2
f 84//13 83//13 217//13
f 83//12 82//12 218//12
f 218//2 82//2 219//2
f 82//13 81//13 219//13
f 80//12 220//12 219//12
f 86//12 85//12 216//12
f 85//12 84//12 217//12
f 88//2 87//2 214//2
f 87//2 86//2 216//2
f 216//10 85//10 217//10
f 90//2 89//2 213//2
f 89//2 88//2 214//2
f 91//12 90//12 213//12
f 87//12 216//12 215//12
f 87//11 215//11 214//11
f 83//12 218//12 217//12
f 94//12 93//12 206//12
f 93//2 92//2 207//2
f 206//2 93//2 207//2
f 92//12 91//12 212//12
f 96//13 95//13 106//13
f 95//12 94//12 206//12
f 106//2 95//2 205//2
f 99//19 98//19 103//19
f 98//19 97//19 104//19
f 103//2 98//2 104//2
f 97//12 96//12 105//12
f 96//2 106//2 105//2
f 101//26 100//26 102//26
f 100//12 99//12 103//12
f 102//19 100//19 103//19
f 95//12 206//12 205//12
f 68//21 67//21 229//21
f 105//27 104//27 97//27
f 225//12 70//12 226//12
f 109//12 108//12 203//12
f 108//2 107//2 203//2
f 204//12 107//12 205//12
f 110//12 109//12 202//12
f 107//20 204//20 203//20
f 213//17 89//17 214//17
f 107//2 106//2 205//2
f 232//28 231//28 66//28
f 231//21 230//21 67//21
f 230//13 229//13 67//13
f 229//12 228//12 68//12
f 228//12 227//12 68//12
f 118//17 117//17 186//17
f 117//12 116//12 186//12
f 184//2 119//2 185//2
f 119//2 118//2 186//2
f 119//13 184//13 120//13
f 128//12 183//12 182//12
f 183//2 128//2 120//2
f 123//12 122//12 124//12
f 122//2 121//2 125//2
f 124//10 122//10 125//10
f 121//2 120//2 127//2
f 128//13 182//13 129//13
f 120//2 128//2 127//2
f 116//17 115//17 188//17
f 129//13 182//13 181//13
f 126//12 125//12 121//12
f 127//12 126//12 121//12
f 130//13 129//13 179//13
f 130//29 174//29 131//29
f 132//12 131//12 172//12
f 172//2 131//2 173//2
f 134//2 133//2 168//2
f 133//12 132//12 170//12
f 168//13 133//13 169//13
f 136//13 135//13 164//13
f 135//12 134//12 166//12
f 138//2 137//2 161//2
f 137//12 136//12 161//12
f 140//12 139//12 159//12
f 139//2 138//2 160//2
f 159//2 139//2 160//2
f 142//13 141//13 158//13
f 141//23 140//23 159//23
f 158//2 141//2 159//2
f 145//19 144//19 154//19
f 144//2 143//2 155//2
f 154//2 144//2 155//2
f 143//12 142//12 155//12
f 155//12 142//12 156//12
f 147//30 146//30 152//30
f 146//19 145//19 154//19
f 153//31 152//31 146//31
f 154//12 153//12 146//12
f 158//19 157//19 156//19
f 158//12 156//12 142//12
f 161//2 160//2 138//2
f 163//19 162//19 136//19
f 162//12 161//12 136//12
f 165//2 164//2 135//2
f 164//2 163//2 136//2
f 168//12 167//12 134//12
f 167//2 166//2 134//2
f 166//2 165//2 135//2
f 174//13 130//13 179//13
f 132//19 172//19 171//19
f 115//12 114//12 190//12
f 183//10 120//10 184//10
f 169//12 133//12 170//12
f 170//2 132//2 171//2
f 173//12 131//12 174//12
f 129//2 181//2 179//2
f 114//12 113//12 191//12
f 119//13 186//13 185//13
f 113//13 112//13 192//13
f 177//12 176//12 175//12
f 175//21 174//21 177//21
f 112//10 111//10 194//10
f 186//12 116//12 187//12
f 178//11 177//11 174//11
f 181//32 180//32 179//32
f 179//2 178//2 174//2
f 187//2 116//2 188//2
f 188//2 115//2 189//2
f 111//13 110//13 201//13
f 189//17 115//17 190//17
f 114//2 191//2 190//2
f 191//13 113//13 192//13
f 91//19 213//19 212//19
f 92//2 211//2 207//2
f 112//10 193//10 192//10
f 211//12 92//12 212//12
f 193//12 112//12 194//12
f 194//12 111//12 199//12
f 196//28 195//28 198//28
f 195//10 194//10 199//10
f 198//33 197//33 196//33
f 201//13 200//13 111//13
f 200//2 199//2 111//2
f 199//27 198//27 195//27
f 211//34 210//34 207//34
f 210//35 209//35 208//35
f 207//36 210//36 208//36
f 202//2 201//2 110//2
f 148//37 147//37 151//37
f 151//28 150//28 148//28
